<?xml version="1.0" encoding="UTF-8"?>
<svg id="Layer_1" data-name="Layer 1" xmlns="http://www.w3.org/2000/svg" viewBox="0 0 114.49 114.22">
  <defs>
    <style>
      .cls-1 {
        fill: #0b4060;
      }
    </style>
  </defs>
  <path class="cls-1" d="M99.74,16.35c-10.17-8.73-27.87-12.85-47.14,1.63-5.12-5.62-11.06-8.45-18.15-8.64-12.73-.34-25.36,9.23-29.39,22.25-3.88,12.52-1.66,24.23,6.27,32.97,6.84,7.55,14.31,14.76,21.57,21.77,1.93,1.86,3.85,3.72,5.77,5.58,2.22,2.16,4.4,4.36,6.58,6.55,2.23,2.25,4.53,4.57,6.85,6.81,1.65,1.6,3.69,2.49,5.74,2.49h0c.56,0,1.11-.07,1.64-.2,2.36-.59,4.18-2.36,4.99-4.86,1.16-3.57-.71-6.03-2.46-7.78l-1.73-1.73,1.61,1.55c3.45,3.35,8.16,3.45,11.46.24,1.33-1.3,2.05-2.86,2.07-4.52.02-1.88-.84-3.79-2.54-5.69l.14-.23c3.31,2.82,7.72,2.97,10.57.26,1.4-1.34,2.16-2.99,2.19-4.78.03-1.96-.82-3.95-2.45-5.79l.34-.56c.22.21.44.42.65.62,2.7,2.54,6.12,2.71,9.16.46,2.57-1.9,3.47-4.72,2.5-7.77,1.28-1.41,2.53-2.74,3.74-4.02l.08-.08c6.73-7.16,12.05-12.82,11.98-20.45-.02-10.33-4.18-19.34-12.01-26.07ZM90.92,71.3c-1.35,1-2.52.95-3.68-.14-3.01-2.83-6.09-5.89-9.4-9.35l-.11-.11c-1.42-1.48-3.18-3.32-5.53-3.32h0c-1.25.01-2.38.55-3.36,1.61-.91.98-1.33,2.06-1.26,3.19.13,1.93,1.68,3.23,2.84,4.19.36.3.7.58.91.81,1.76,1.91,3.62,3.74,5.41,5.51,1.01.99,2.01,1.98,3,2.98,1.13,1.15,1.75,2.31,1.73,3.28,0,.62-.3,1.21-.86,1.74-1.34,1.27-3.55.94-5.25-.8-1.02-1.04-2.1-2.07-3.13-3.06l-.09-.09c-2.13-2.03-4.14-3.95-5.91-6.14l-.23-.29c-.82-1.04-2.05-2.61-4.01-2.77-1.18-.09-2.31.35-3.35,1.3-1.04.96-1.58,2.04-1.6,3.21-.03,1.89,1.32,3.22,2.31,4.19l.31.31c1.17,1.18,2.35,2.35,3.52,3.52l.14.14c2.02,2.01,4.04,4.02,6.03,6.06,1.16,1.18,1.79,2.3,1.78,3.14,0,.51-.26,1-.78,1.5-1.61,1.57-3.72,1.48-5.49-.24l-1.83-1.77c-2.87-2.77-5.84-5.64-8.51-8.65-.84-.95-3.09-3.47-6.13-1.09-1.42,1.11-1.79,2.36-1.84,3.21-.06.92.18,2.32,1.65,3.8,2.65,2.68,5.32,5.33,7.99,7.99l2.79,2.78c1.6,1.6,1.73,2.44,1.41,3.43-.35,1.08-1.04,1.8-1.94,2.03-1.08.27-2.31-.17-3.37-1.21-2.34-2.27-4.74-4.69-6.9-6.87-2.12-2.14-4.32-4.35-6.52-6.49-1.87-1.82-3.75-3.64-5.64-5.46l-.14-.14c-7.18-6.93-14.61-14.1-21.37-21.56-6.96-7.68-8.81-17.65-5.34-28.82,3.34-10.79,14.17-19.24,24.65-19.24.18,0,.36,0,.54,0,5.77.16,10.66,2.47,14.92,7.06-1.08.91-2.16,1.83-3.25,2.75-3.68,3.12-7.48,6.34-11.33,9.3-5.31,4.08-5.79,12.08-2.65,16.25,4.56,6.07,11.45,7.06,17.55,2.54,4.6-3.41,10.03-7.48,15.4-11.78.42-.34.85-.68.98-.69.11.03.44.39.73.71,1.94,2.17,3.86,4.35,5.79,6.54,5.58,6.34,11.34,12.89,17.51,18.94.65.64,1.23,1.48,1.65,2.38.96,2.06.18,3.01-.71,3.67ZM96.66,59.93c-.94,1-1.91,2.03-2.9,3.1-.25-.3-.51-.58-.77-.84-6.07-5.95-11.78-12.44-17.3-18.72l-.39-.44c-1.8-2.05-3.6-4.09-5.42-6.12-1.3-1.45-2.57-2.16-3.88-2.16-1.14,0-2.28.51-3.71,1.65-5.27,4.22-10.67,8.27-15.26,11.67-4.15,3.08-8.48,2.46-11.58-1.67-1.7-2.26-1.68-7.57,1.84-10.28,3.94-3.02,7.78-6.29,11.5-9.44l.08-.07c1.59-1.35,3.18-2.7,4.78-4.04,17.82-14.3,34.04-10.92,43.29-2.98,6.86,5.89,10.5,13.79,10.52,22.84.05,5.92-4.74,11.02-10.82,17.49Z"/>
</svg>