<?xml version="1.0" encoding="UTF-8"?>
<svg id="Layer_1" data-name="Layer 1" xmlns="http://www.w3.org/2000/svg" viewBox="0 0 1334 1000">
  <defs>
    <style>
      .cls-1 {
        fill: #af6b4e;
      }

      .cls-1, .cls-2, .cls-3, .cls-4, .cls-5, .cls-6, .cls-7, .cls-8, .cls-9, .cls-10, .cls-11 {
        stroke-width: 0px;
      }

      .cls-2 {
        fill: #6b3825;
      }

      .cls-3 {
        fill: #d83b28;
      }

      .cls-4 {
        fill: #24180f;
      }

      .cls-5 {
        fill: #888;
      }

      .cls-6 {
        fill: #000;
      }

      .cls-7 {
        fill: #f1eef7;
      }

      .cls-8 {
        fill: #b8e0ee;
      }

      .cls-9 {
        fill: #f8ae1c;
      }

      .cls-10 {
        fill: #fff;
      }

      .cls-11 {
        fill: #4f2e25;
      }
    </style>
  </defs>
  <rect class="cls-8" x="-11.35" y="-28.91" width="1359.5" height="1057.58" rx="12" ry="12"/>
  <g>
    <path class="cls-1" d="M1065.83,713.43c13.65-40.07,48.33-119.63,48.33-119.63l-58.11-37.41-71.74,136.66c22.55,16.4,58.08,5.29,81.51,20.38Z"/>
    <path class="cls-1" d="M1077.15,620.72l46.83-19.94c17.47-3.33,34.03-10.34,48.59-20.56,12.87-11.32,24.1-24.38,33.37-38.8l30.35-23.88,12.04-9.47s26.34-3.89,25.7-12.23c-.64-8.34-10.85-9.46-20.76-10.52-9.92-1.06-145.07,30.56-145.07,30.56,7.32-12.36,15.69-24.08,25.01-35.01,14.43-16.67,8.8-30.01-2.1-35.12-10.9-5.11-26.47,19.51-32.64,34.15-4.95,11.75-29.38,22.77-41.57,41.58-12.19,18.81-7.37,49.12-7.37,49.12-17.11,36,27.63,50.12,27.63,50.12Z"/>
    <path class="cls-11" d="M1207.3,541.51c4.56-6.35,9.12-12.69,13.68-19.04.65-.9,1.3-1.8,1.94-2.71l-.76.63c2.28-1.14-.53-4.38-1.61-5.36-2.18-1.99-4.97-3.36-7.91-3.75-5.21-.69-10.24,1.28-14.14,4.62-2.03,1.73-3.87,3.67-5.88,5.43-2.23,1.96-4.67,3.67-6.91,5.63-5.03,4.4-9.62,9.28-14.32,14.01-2.46,2.48-5.16,4.79-7.47,7.4-1.7,1.92-3.59,3.53-5.58,5.15-1.52,1.24.86,1.91,1.86,1.09,1.64-1.34,3.33-2.64,4.8-4.17.67-.7,1.29-1.44,1.95-2.16.99-1.08,2.14-2.05,3.2-3.07,4.33-4.2,8.46-8.6,12.78-12.81,2.05-2,4.14-3.97,6.34-5.81,2.16-1.82,4.46-3.45,6.55-5.35,3.05-2.77,5.96-6.39,10.07-7.6,2.93-.86,6.11-.8,8.88.53,1.46.7,2.9,1.67,3.96,2.91.45.53,1.58,2.06,1.38,2.71l.85-.87c-.89.44-1.48,1.6-2.04,2.38-1.24,1.72-2.47,3.44-3.71,5.16-2.87,4-5.74,7.99-8.62,11.99-.68.95-1.36,1.9-2.04,2.85-.42.59.36.99.83,1.03.71.07,1.48-.26,1.9-.84h0Z"/>
    <path class="cls-11" d="M1138.1,535.74c12.04-5.51,25.15-8.42,38.15-10.61.62-.1,1.54-.42,1.6-1.17.05-.68-.75-1.05-1.34-.95-13.54,2.27-27.15,5.28-39.69,11.02-.54.25-1.09.91-.68,1.5s1.41.47,1.97.22h0Z"/>
    <path class="cls-11" d="M1142.89,553.57c-1.9-6.55-6.17-11.68-11.96-15.18-3.17-1.92-6.16-3.63-9.84-4.4s-7.19-.72-10.74-.06c-.33.06-1.69.34-1.69.81,0,.51.84.37,1.17.31,3.42-.64,6.92-.49,10.28.43s6.15,2.68,9.06,4.49c5.28,3.28,9.09,8.42,10.82,14.38.2.68,3.09-.11,2.9-.78h0Z"/>
  </g>
  <path class="cls-1" d="M694.71,466.93c-1.81-4.96,0-63.25,0-63.25l-90.69,12.01-90.69-12.01s1.81,58.29,0,63.25c-1.81,4.96-77.32,27.94-77.32,27.94,0,0,51.23,46,169.02,46s166.58-45.1,166.58-45.1c0,0-75.08-23.89-76.89-28.85Z"/>
  <path class="cls-11" d="M513.86,427.23s18.54,25.95,33.38,26.22c19.84.36,92.13,1.07,119.51.45,13.28-.3,19.53-13.85,27.42-23.35v-10.33l-71.65,10.81-108.65-11.44v7.64Z"/>
  <path class="cls-10" d="M315.81,1060.54l50.49-253.07-48.89-278.59s-53.24,4.61-82.26,91.66c-24.76,93.26-70.99,398.91-67.97,458.54.98,17.75,7.01,60.87,14.91,112.34h139.22l-5.5-130.88Z"/>
  <path class="cls-10" d="M978.85,922.45c-3.11-3.66-16.9-11.1-18.89-15.38-9.1-19.61-31.74-9.5-30.36-30.63.32-4.93.81-9.86,1.58-14.75.95-6.04,2.68-12.05,4.51-17.9,3.59-11.51,8.36-22.66,13.63-33.57,9.41-19.49,20.47-38.27,29.53-57.91l-56.33-166.99c-6.92-24.11-25.91-55.55-50.94-63.81l-74.73-22.97-29.71,212.38,92.82,185.42c8.87,19.77,38.11,40,58.56,49.25,21.87,9.89,36.35,9.89,55.09,9.89-1.79-1.51,6.74-31.26,5.24-33.03Z"/>
  <path class="cls-10" d="M1118.13,613.92c-11.68-1.12-23.87-5.31-33.3-8.52-9.03-3.08-18-6.31-27.03-9.38-7.67-2.6-8.77-3.85-15.89-7.66-4.35-2.33-6.35-4.8-10.36-7.57l-74.25,167.16-3.57-3.2c-9.33,20.67-11.51,43.13-20.7,63.87-4.86,10.96-9.07,22.23-12,33.86-1.37,5.45-2.46,10.92-3.02,16.53-.51,5.11-.8,10.25-.87,15.39-.15,10.74.6,21.58,2.67,32.22,1.98,10.18,5.12,20.35,10.39,29.56,2.23,3.9,4.8,7.44,8.16,10.56,1.46,1.35,3,4.59,4.61,5.76,25.34,5.05,46.58,4.76,69.06-9.44,12.57-10.83,22.98-29.35,30.83-43.7,14.97-27.67,26.72-89.66,36.37-124.28l38.9-161.15Z"/>
  <path class="cls-10" d="M857.69,1086.8c2.16-39.65.67-130.67,1.63-184.62,3.02-22.27,11.66-3.2,24.43-45.97,11.27-37.36-53.11-346.63-53.11-346.63l-96.49-32.26-28.22-5.77-1.22-1.24c-.24,1.68-.24,3.38,0,5.06l-1,2.75c-6.97,31.47-44.01,55.9-75.33,58.66-10.87.75-37.32,3.24-48.19,2.49-33.9-1.98-61.19-21.64-75.95-49.68l-5.05-17.92-53.42,13.9-146.43,49.22,19.1,248.13c2.93,52.44-11.6,62.11,10.23,109.41l5.88,206.13,37.04-13.93"/>
  <path class="cls-5" d="M965.99,723.18c-1.74,3.43-3.41,6.89-5.07,10.36-4.11,8.58-8.09,17.23-11.92,25.95-4.95,11.25-9.66,22.6-13.98,34.11-4.3,11.46-8.27,23.09-11.26,34.97-2.29,9.08-4.36,18.72-3.67,28.15.07.9.16,1.79.3,2.68s3.05.25,2.9-.78c-1.36-8.88.51-18.26,2.51-26.89,2.71-11.72,6.5-23.18,10.62-34.46,4.25-11.62,8.93-23.09,13.85-34.44,3.98-9.17,8.12-18.26,12.41-27.28,1.36-2.86,2.74-5.72,4.13-8.56.43-.88.86-1.75,1.3-2.62.21-.42.56-.91.68-1.37.02-.06.06-.12.09-.18.3-.59-.99-.6-1.24-.57-.64.08-1.35.36-1.65.95h0Z"/>
  <g>
    <path class="cls-10" d="M499.18,471.67s6.9,71.46,100.43,68.01c107.66-3.97,106.39-71.46,106.39-71.46l28.62,6.9s-15.68,93.09-135.62,91.89c-119.94-1.2-125.04-88.11-125.04-88.11l25.22-7.23Z"/>
    <path class="cls-5" d="M497.73,472.05c.25,2.61.88,5.22,1.56,7.75,1.69,6.35,4.22,12.47,7.41,18.2,4.44,7.99,10.29,15.11,17.22,21.06,9.03,7.73,19.81,13.2,31.15,16.63,15.9,4.8,32.66,5.66,49.16,4.74,16.46-.92,33.04-3.45,48.61-9.01,10.97-3.92,21.51-9.38,30.42-16.95,6.57-5.58,12.23-12.22,16.42-19.77,2.97-5.34,5.2-11.12,6.54-17.09.65-2.88,1.38-6.12,1.23-9.11,0-.14,0-.28,0-.42l-2.31,1.05c8.35,2.01,16.7,4.03,25.05,6.04,1.19.29,2.38.57,3.56.86l-.61-.78c-.51,3.05-1.42,6.06-2.37,8.99-2.35,7.29-5.65,14.62-9.53,21.38-5.55,9.69-12.51,18.55-20.63,26.22-10.23,9.65-22.27,17.23-35.23,22.65-17.17,7.18-35.74,10.51-54.27,11.33-20.49.92-41.48-.72-61.24-6.4-14.39-4.14-28.16-10.59-39.93-19.91-8.83-6.99-16.39-15.56-22.2-25.21-4.28-7.11-7.6-14.81-9.84-22.8-1.14-4.05-2.07-8.22-2.45-12.42-.02-.19-.04-.39-.05-.58l-1.21,1.29c7.35-2.11,14.7-4.21,22.04-6.32l3.17-.91c1.76-.5,1.29-2.32-.49-1.81-7.35,2.11-14.7,4.21-22.04,6.32-1.06.3-2.12.61-3.17.91-.62.18-1.25.59-1.21,1.29.18,3.02.8,6.05,1.48,8.99,1.72,7.49,4.44,14.75,7.94,21.58,4.92,9.58,11.45,18.29,19.3,25.67,10.39,9.76,22.81,17.06,36.1,22.12,18.32,6.98,38.07,9.8,57.59,10.28,20.2.5,40.63-1.47,59.96-7.59,14.62-4.63,28.51-11.63,40.54-21.18,9.49-7.53,17.74-16.53,24.45-26.61,4.95-7.43,9.06-15.43,12.18-23.79,1.6-4.29,3.03-8.69,3.92-13.18.04-.2.08-.4.11-.6.06-.38-.26-.7-.61-.78-8.35-2.01-16.7-4.03-25.05-6.04-1.19-.29-2.38-.57-3.56-.86-.64-.16-2.33.08-2.31,1.05.04,2.08-.25,4.19-.59,6.23-.85,5.2-2.41,10.22-4.57,15.01-3.18,7.06-7.63,13.49-13.02,19.04-7.29,7.51-16.19,13.29-25.7,17.6-13.56,6.15-28.3,9.43-43.03,11.13-17.13,1.98-34.8,2.34-51.76-1.2-12.16-2.54-23.93-7.12-34.11-14.33-7.73-5.48-14.38-12.41-19.56-20.35-3.85-5.9-6.89-12.33-9.02-19.04-1.12-3.51-1.89-7.05-2.5-10.68-.03-.16-.04-.33-.06-.49-.12-1.2-3.02-.53-2.9.78Z"/>
  </g>
  <g>
    <path class="cls-3" d="M570.51,902.17c-15.38-2.57-28.4-10.13-40.41-19.33-36.32-27.83-52.3-65.05-49.03-110.36,2.65-36.75,25.32-63.83,58.95-71.94,39.89-9.63,80.01,17.57,84.97,57.84.76,6.18,2.13,13.95-5.69,16.53-7.67,2.53-11.78-3.05-15.4-9.42-9.73-17.07-25.12-24.05-44.32-22.43-18.36,1.55-31.52,11.11-38.38,28.2-12.46,31.07-7.86,60.52,9.83,88.33,9.11,14.32,20.68,26.47,33.55,37.43,1.99,1.7,3.96,3.43,5.94,5.15Z"/>
    <path class="cls-9" d="M586.5,907.43c11.04-2.48,22.26-4.38,33.09-7.57,25.34-7.48,48.36-18.84,62.18-42.98,8.49-14.83,12.06-30.82,7.52-47.7-4.72-17.56-23.96-28.86-41.94-25.27-3.13.63-6.28,1.54-9.44,1.6-4.04.08-8.14-.54-10.18-4.88-2.09-4.45-.82-8.35,2.4-11.68,14.29-14.8,31.63-19.3,51.22-13.99,48.76,13.2,54.22,63.77,36.44,93.53-21.31,35.66-54.64,52.43-94.58,58.27-12.19,1.78-24.38,1.57-36.71.68Z"/>
    <path class="cls-3" d="M622.85,662.83c13.3.17,24.32,11.34,24.27,24.61-.05,13.57-11.7,24.9-25.17,24.47-13.24-.42-24.21-11.86-23.94-24.97.27-13.06,11.82-24.28,24.84-24.11Z"/>
    <path class="cls-9" d="M673.07,730.42c-.04-9.7,7.33-17.4,16.87-17.65,9.35-.24,17.29,7.54,17.47,17.1.19,10.08-7.56,18.14-17.32,18.03-9.54-.1-16.98-7.74-17.01-17.49Z"/>
  </g>
  <path class="cls-1" d="M487.89,271.43s-13.8-26.73-23.16-26.67c-5.7.04-19.45,15.24-19.3,29.77.21,19.43,13.74,41.51,17.12,52.84,3.37,11.33,2.81,27.62,17.91,27.52,5.98-.04,13.37-12.54,13.37-12.54,0,0-2.82-53.29-5.94-70.91Z"/>
  <path class="cls-11" d="M482.97,297.91c-3.44-7.28-7.24-14.49-11.98-21.02-2.46-3.38-5.21-6.68-8.59-9.19-1.37-1.02-2.94-2-4.63-2.34-1.84-.38-2.63,1.07-3.37,2.54-3.34,6.58-3.09,14.42-1.32,21.4.22.86,2.39.29,2.17-.58-1.4-5.53-1.82-11.38-.25-16.92.42-1.48.98-2.93,1.72-4.28.2-.36.41-.72.64-1.06.07-.1.46-.62.18-.27l-1.29.45c.08,0,.2,0,.28.03-.35-.15-.02,0,.12.03.16.05.32.08.48.13.89.28,2.05.94,3.02,1.61,4.73,3.28,8.31,8.31,11.4,13.07,3.51,5.42,6.51,11.16,9.27,16.99.39.83,2.53.17,2.17-.58h0Z"/>
  <path class="cls-11" d="M477.27,300.72c-1.92-.09-3.96.44-5.07,2.15-1.03,1.6-1.01,3.69-.92,5.51.12,2.35.55,4.67.87,6.99.23,1.69.71,3.88.06,5.54-.04.09-.47.69-.46.72-.01-.04.66-.24.65-.15,0,0-.29-.18-.32-.21-.66-.81-1.16-1.61-1.58-2.57-1.4-3.21-2.2-6.71-2.87-10.13-.46-2.37-1.03-5.03-1.03-7.12,0-1.68.1-3.36.28-5.02.52-4.75,1.78-11.68,6.73-13.82,1.38-.59.14-1.48-.9-1.04-4.81,2.07-6.73,7.46-7.6,12.24-.65,3.56-.94,7.26-.42,10.85.6,4.13,1.41,8.27,2.73,12.23.59,1.78,1.43,4.86,3.32,5.75,1.68.79,3.31-.66,3.73-2.22.51-1.92.05-4.17-.22-6.09-.39-2.73-2.85-12.46,2.2-12.24.44.02,1.24-.15,1.43-.62s-.16-.72-.62-.74h0Z"/>
  <path class="cls-1" d="M715.12,271.43s13.8-26.73,23.16-26.67c5.7.04,19.45,15.24,19.3,29.77-.21,19.43-13.74,41.51-17.12,52.84-3.37,11.33-2.81,27.62-17.91,27.52-5.98-.04-13.37-12.54-13.37-12.54,0,0,2.82-53.29,5.94-70.91Z"/>
  <path class="cls-11" d="M722.15,298.29c4.07-8.61,8.61-17.35,14.86-24.61,2.33-2.71,5.15-5.57,8.32-6.8-.42.16,1.15-.35.54-.16.15-.04.66-.03.08-.04l-.61-.27c1.29,1.61,2.06,3.73,2.62,5.68,1.6,5.57,1.17,11.47-.23,17.03-.24.95,1.97.67,2.19-.21,1.66-6.56,1.98-13.82-.76-20.15-.55-1.27-1.3-3.71-3.01-3.5s-3.29,1.12-4.66,2.05c-3.2,2.16-5.84,5.13-8.18,8.16-5.36,6.93-9.5,14.75-13.24,22.65-.5,1.06,1.69.96,2.06.17h0Z"/>
  <path class="cls-11" d="M725.68,301.88c5.23-.23,3.88,7.32,3.43,10.49-.32,2.22-.77,4.48-.76,6.73,0,1.32.27,3.38,1.94,3.52,2.12.18,3.36-1.67,4.15-3.34,1.56-3.32,2.38-7.03,3.08-10.61.47-2.42,1.05-4.93,1.05-7.41,0-1.83-.11-3.66-.33-5.48-.63-5.2-2.2-11.86-7.52-14.15-.51-.22-2.48.59-1.77.89,4.54,1.95,6.13,7.62,6.87,12.06.56,3.37.8,6.8.29,10.18-.59,3.94-1.36,7.89-2.59,11.68-.42,1.31-.9,2.62-1.55,3.84-.21.39-.44.79-.72,1.13-.06.07-.35.3-.37.39,0,.04.7-.07.69-.2,0-.1-.56-.61-.64-.76-.16-.31-.25-.65-.31-.99-.15-.86-.11-1.77-.05-2.64.17-2.33.63-4.62.91-6.94.26-2.17.58-4.64-.18-6.75-.76-2.08-2.64-2.72-4.71-2.62-.35.02-1.3.16-1.45.54s.13.44.53.42h0Z"/>
  <path class="cls-1" d="M709.93,402.12c3.49-3.4,8.02-19.77,8.05-24.69.08-14.56.79-18.72,1.74-40.86.97-22.14,5.05-41.87,6.99-63.04,1.92-21.18,4.32-104.1-1.94-120.96-1.87-5.01-9.75-12.55-21.01-20.67-26.5-19.13-71.69-41.42-100.74-41.42-41.4,0-115.51,45.25-121.78,62.09-6.25,16.86-3.85,99.77-1.92,120.96,1.92,21.17,6.02,40.9,6.99,63.04.95,22.14-.2,47.65,3.24,55.88.76,1.81,4.82,6.66,6.11,8.53,8.73,12.76,19.22,16.13,31.74,29.03,0,0,9.58,11.24,18.08,15.87,8.49,4.63,119.96.77,125.47,0,5.51-.77,39-43.77,39-43.77"/>
  <path class="cls-6" d="M478.43,259.22s-4.13-4.25-11.04-25.07c-2.52-7.58-6.26-91.31-1.87-106.74,7.05-24.75,82.44-64.67,138.85-62.6,71.64,2.64,127.8,35.05,137,52.04,7.46,13.78,1.06,97.37-3.89,115.3-2.82,10.21-9.64,22.6-9.64,22.6,0,0,.11-37.36-9.4-56.21-9.51-18.85-8.05-56.27-12.76-61.42-4.71-5.15-53.22-17.33-101.3-17.65-57.53-.38-99.4,17.38-102.28,19.57-2.88,2.19-3.4,39.31-5.66,50.12-2.26,10.81-15.95,38.6-18,70.05Z"/>
  <path class="cls-6" d="M610.54,328.54c-5.65,2.3-9.78,2.39-13.49-.88-.82-.72-3.71.06-2.56,1.08,4.89,4.31,14.2,3.66,19.31-.09.51-.38.45-.9-.16-1.17-.62-.29-2.57.66-3.11,1.06"/>
  <path class="cls-6" d="M592.45,326.17c-3.59-1.05-7.43-1.22-11.13-.82-.54.06-1.19.42-1.51.88-.25.36-.24.78.22.95,1.89.73,4.12.75,6.09.32.62-.13,1.41-.46,1.64-1.11.22-.6-.45-.83-.93-.73-1.62.35-3.35.32-4.91-.28-.44.61-.86,1.22-1.3,1.82,3.32-.36,6.75-.17,9.96.77.64.19,1.44-.17,1.89-.61.34-.33.64-1,0-1.19"/>
  <path class="cls-6" d="M615.86,327.02c3.58-1.09,7.41-1.31,11.12-.95.54.06,1.2.4,1.52.86.25.36.24.77-.21.95-1.88.75-4.11.79-6.08.39-.62-.13-1.41-.45-1.65-1.09-.23-.6.44-.84.92-.74,1.63.33,3.36.28,4.91-.33.44.6.88,1.21,1.32,1.81-3.32-.32-6.75-.1-9.95.88-.64.2-1.44-.15-1.9-.59-.34-.32-.65-.99-.01-1.19"/>
  <path class="cls-6" d="M577.82,327.87c-3.67-.12-7.99-2.19-9.79-5.77-2.73-5.4-.19-11.82,4.4-15.27.5-.38.23-.86-.27-1-.66-.18-1.44.13-1.96.53-3.99,3.01-6.58,7.9-5.98,12.96.56,4.73,4.07,8.04,8.47,9.41,1.31.41,2.7.68,4.07.73.56.02,1.56-.2,1.83-.76.28-.57-.23-.82-.75-.84"/>
  <path class="cls-6" d="M630.85,328.01c3.67-.12,7.99-2.19,9.79-5.77,2.73-5.4.19-11.82-4.4-15.27-.5-.38-.23-.86.27-1,.66-.18,1.44.13,1.96.53,3.99,3.01,6.58,7.9,5.98,12.96-.56,4.73-4.07,8.04-8.47,9.41-1.31.41-2.7.68-4.07.73-.56.02-1.56-.2-1.83-.76-.28-.57.23-.82.75-.84"/>
  <path class="cls-6" d="M541.29,248.9c-3.72-1.93-8.08-.26-10.51,1.9-.58.51-2.12,1.95-2.83,4.4-.92,3.13.33,6.67,2.29,8.83,2.62,2.88,6.99,3.37,10.35,1.81,4.55-2.12,6.03-7.6,4.9-11.58-.21-.73-1.18-3.8-4.19-5.36"/>
  <path class="cls-6" d="M666.84,250.29c3.72-1.93,8.08-.26,10.51,1.9.58.51,2.12,1.95,2.83,4.4.92,3.13-.33,6.67-2.29,8.83-2.62,2.88-6.99,3.37-10.35,1.81-4.55-2.12-6.03-7.6-4.9-11.58.21-.73,1.18-3.8,4.19-5.36"/>
  <path class="cls-6" d="M635.07,265.28s21.46-15.6,32.43-16.61c16.01-1.47,35.74,6.73,41.41,14.07,0,0-26.11-12.26-37.35-10.92-10.75,1.28-36.48,13.46-36.48,13.46Z"/>
  <path class="cls-6" d="M574.29,262.92s-21.46-15.6-32.43-16.61c-16.01-1.47-35.74,6.73-41.41,14.07,0,0,26.11-12.26,37.35-10.92,10.75,1.28,36.48,13.46,36.48,13.46Z"/>
  <path class="cls-6" d="M575.54,206.58c-.02,3.82-.05,7.65-.08,11.49-.03,2.92-.05,5.84-.09,8.75-8.58-2.51-15.92-4.15-21.47-5.23-11-2.15-22.46-3.51-33.61-1.72-5.34.86-10.02,2.31-14.48,5.23-1.41.92-5.21,4.93-7.31,3.88-.86-.43.57-5.13.72-5.61,2.93-9.47,10.47-13.37,19.67-15.59,18.76-4.51,37.61-3.91,56.65-1.22"/>
  <path class="cls-6" d="M634.4,207.98c.02,3.82.05,7.65.08,11.49.02,2.92.05,5.84.09,8.75,8.44-2.51,15.67-4.15,21.13-5.23,10.82-2.15,22.11-3.51,33.08-1.72,5.25.86,9.86,2.31,14.26,5.23,1.39.92,5.13,4.93,7.19,3.88.85-.43-.56-5.13-.71-5.61-2.89-9.47-10.3-13.37-19.36-15.59-18.46-4.51-37.02-3.91-55.76-1.22"/>
  <path class="cls-2" d="M603.94,359.53c-21.81,0-57.14-2.49-57.14-2.49,0,0,6.59,52.48,57.14,52.48s57.14-52.48,57.14-52.48c0,0-35.34,2.49-57.14,2.49Z"/>
  <path class="cls-4" d="M604.15,359.53c-10.37,0-52.15-1.7-52.15-1.7,0,0,13.82,32.79,51.31,32.79,40.65,0,52.6-32.47,52.6-32.47l-51.76,1.38Z"/>
  <path class="cls-7" d="M604.6,361.05c-10.37,0-41.91-1.7-41.91-1.7,0,0,11.36,11.04,42.46,11.04s40.98-10.72,40.98-10.72l-41.52,1.38Z"/>
  <path class="cls-2" d="M663.37,353.94c-1.1-.26-7.14,1.68-12.29,1.25-8.58-.72-18.96-2.91-25.18-3.38-10.61-.79-17.35,3.28-21.97,3.28s-11.35-4.07-21.97-3.28c-6.22.46-16.6,2.66-25.18,3.38-5.15.43-11.18-1.52-12.29-1.25-1.53.36,1.44,11.3,59.45,11.3s60.95-10.93,59.42-11.3Z"/>
  <path class="cls-5" d="M324.57,663.24c.91,28.79,1.69,57.59,2.29,86.4.47,22.95.83,45.89,1.06,68.84.21,20.5.33,41,.43,61.5.11,21.12.21,42.24.39,63.36.21,25.13.52,50.25.93,75.38.06,3.51.12,7.02.18,10.53,0,.43,2.91,0,2.9-.78-.46-25.83-.81-51.66-1.04-77.49-.2-21.43-.31-42.85-.42-64.28s-.21-40.83-.39-61.24c-.21-22.47-.52-44.93-.95-67.39-.54-27.92-1.26-55.84-2.1-83.75-.12-3.95-.24-7.91-.37-11.86-.01-.44-2.92,0-2.9.78h0Z"/>
  <path class="cls-5" d="M863.19,672.9c0,16.64-.06,33.28-.34,49.92-.18,10.77-.47,21.54-.9,32.3-.39,9.7-.86,19.39-1.3,29.09-.59,13.3-1.1,26.61-1.52,39.92-.69,21.75-1.18,43.51-1.59,65.26-.06,3.4-.13,6.8-.19,10.2,0,.4,2.88.03,2.9-.78.41-23.08.9-46.17,1.59-69.24.42-14.06.93-28.12,1.54-42.17.43-9.88.92-19.76,1.33-29.65.43-10.39.75-20.77.96-31.17.31-15.69.39-31.38.42-47.07,0-2.46,0-4.92,0-7.39,0-.41-2.9-.02-2.9.78h0Z"/>
</svg>