<?xml version="1.0" encoding="UTF-8"?>
<svg id="Layer_1" data-name="Layer 1" xmlns="http://www.w3.org/2000/svg" xmlns:xlink="http://www.w3.org/1999/xlink" viewBox="0 0 1334 1000">
  <defs>
    <style>
      .cls-1 {
        fill: none;
      }

      .cls-2 {
        fill: #122e1d;
      }

      .cls-3 {
        fill: #b27b54;
      }

      .cls-3, .cls-4, .cls-5 {
        stroke: #020202;
        stroke-miterlimit: 10;
        stroke-width: .2px;
      }

      .cls-6 {
        fill: #066334;
      }

      .cls-7 {
        fill: #f1ece1;
      }

      .cls-8 {
        fill: url(#linear-gradient);
        opacity: .5;
      }

      .cls-4 {
        fill: #aa6c42;
      }

      .cls-9 {
        fill: #020202;
      }

      .cls-10 {
        fill: #fff;
      }

      .cls-11 {
        fill: #876756;
      }

      .cls-12 {
        fill: #9a5b45;
      }

      .cls-5 {
        fill: #774a29;
      }

      .cls-13 {
        fill: #fbb217;
      }

      .cls-14 {
        fill: #bc2328;
      }

      .cls-15 {
        fill: #161312;
      }
    </style>
    <linearGradient id="linear-gradient" x1="-1614.07" y1="3938.67" x2="-696.98" y2="3938.67" gradientTransform="translate(-3272.19 1551.16) rotate(90) scale(1 -1)" gradientUnits="userSpaceOnUse">
      <stop offset="0" stop-color="#f1ece1"/>
      <stop offset=".18" stop-color="#efe9de" stop-opacity=".99"/>
      <stop offset=".33" stop-color="#e9e1d5" stop-opacity=".97"/>
      <stop offset=".46" stop-color="#dfd5c6" stop-opacity=".94"/>
      <stop offset=".59" stop-color="#d0c3b1" stop-opacity=".88"/>
      <stop offset=".72" stop-color="#beab95" stop-opacity=".82"/>
      <stop offset=".84" stop-color="#a78f74" stop-opacity=".74"/>
      <stop offset=".95" stop-color="#8d6d4d" stop-opacity=".64"/>
      <stop offset="1" stop-color="#825f3c" stop-opacity=".6"/>
    </linearGradient>
  </defs>
  <polyline class="cls-7" points="-98.73 1000.55 -98.73 -57.88 1391.65 -57.88 1391.65 1000.55"/>
  <polyline class="cls-8" points="1433.79 851.15 -100.83 851.15 -100.83 -65.94 1433.79 -65.94"/>
  <rect class="cls-11" x="-75.03" y="712.48" width="1488.83" height="371.34"/>
  <rect class="cls-1" x="149.45" y="-150.82" width="1000.99" height="1095.2"/>
  <g>
    <path class="cls-5" d="M211.87,408.55l439.26-74.19,439.26,74.19-439.26,84.79-439.26-84.79Z"/>
    <g>
      <path class="cls-10" d="M662.9,393.25c-25.91-98.92-120.12-151.91-220.22-127.18-98.92,24.73-158.98,120.12-134.25,219.04,25.91,98.92,126.01,157.8,226.11,133.07,98.92-24.73,153.09-126.01,128.36-223.75v-1.18Z"/>
      <path class="cls-9" d="M442.68,264.88c-98.92,24.73-158.98,126.01-133.07,223.75,24.73,97.74,126.01,157.8,224.93,133.07,98.92-24.73,158.98-126.01,133.07-223.75-24.73-97.74-126.01-157.8-224.93-133.07ZM354.36,541.63c-28.26-25.91-38.86-58.88-40.04-62.41,0-41.22,15.31-65.95,17.66-69.48,21.2-2.36,45.93-8.24,54.17-9.42,1.18,10.6,10.6,40.04,43.57,70.66-2.36,5.89-14.13,34.15-17.66,68.3-34.15,12.95-55.35,3.53-57.7,2.36ZM510.99,329.65c10.6,16.49,37.68,54.17,42.39,60.06-14.13,37.68-35.33,67.12-40.04,71.84-7.07,0-44.75,0-81.26,5.89-35.33-32.97-42.39-64.77-43.57-69.48l36.51-69.48c7.07,0,55.35-8.24,84.79,0h0l1.18,1.18ZM387.33,296.68c-14.13,9.42-27.09,21.2-37.68,30.62,12.95-15.31,27.09-28.26,43.57-37.68-3.53,3.53-5.89,5.89-7.07,7.07h1.18ZM328.45,407.38c-2.36,4.71-15.31,27.09-18.84,64.77-5.89-38.86,0-77.72,17.66-110.7-4.71,23.55,0,42.39,0,45.93h1.18ZM547.49,534.56c-2.36-7.07-12.95-44.75-29.44-70.66,4.71-5.89,25.91-35.33,40.04-73.01,27.09,1.18,56.53,0,63.59-1.18,3.53,4.71,20.02,29.44,30.62,69.48-18.84,49.46-34.15,67.12-36.51,69.48-40.04,12.95-62.41,5.89-67.12,4.71l-1.18,1.18ZM668.79,461.55l-14.13-3.53c-10.6-41.22-28.26-65.95-30.62-70.66,3.53-22.37,0-44.75,0-52.99,2.36,0,7.07,0,11.78,1.18,12.95,17.66,23.55,38.86,29.44,62.41,5.89,21.2,7.07,42.39,4.71,62.41h0l-1.18,1.18ZM631.1,332.01h-9.42c-32.97-29.44-64.77-42.39-69.48-43.57-7.07-8.24-16.49-15.31-25.91-20.02,41.22,8.24,78.9,31.8,104.81,64.77h0v-1.18ZM510.99,264.88c9.42,4.71,25.91,12.95,36.51,23.55-20.02,14.13-32.97,31.8-35.33,36.51-30.62-8.24-77.72-1.18-85.97,0-12.95-15.31-28.26-23.55-34.15-27.09,3.53-3.53,12.95-12.95,27.09-21.2,8.24-3.53,16.49-5.89,24.73-8.24,22.37-5.89,45.93-7.07,67.12-4.71v1.18ZM368.49,578.13h0l-2.36-2.36c-7.07-9.42-10.6-22.37-11.78-28.26,7.07,2.36,22.37,5.89,45.93,0,3.53,0,8.24-2.36,11.78-3.53,2.36,2.36,10.6,9.42,21.2,17.66,11.78,9.42,29.44,20.02,47.11,24.73,2.36,16.49,5.89,25.91,8.24,30.62-3.53,1.18-10.6,3.53-21.2,4.71-36.51-4.71-71.84-20.02-98.92-44.75h0v1.18ZM513.34,621.71c-5.89,0-12.95-1.18-20.02-5.89,0-2.36-5.89-12.95-8.24-30.62,7.07-3.53,37.68-18.84,61.24-48.28,5.89,2.36,23.55,7.07,57.7-1.18,3.53,0,7.07-2.36,10.6-3.53,5.89,20.02,0,34.15,0,34.15v3.53c-1.18,0,2.36,0,2.36,0-22.37,22.37-50.64,38.86-82.43,47.11-7.07,2.36-14.13,3.53-21.2,3.53h0v1.18Z"/>
      <path class="cls-15" d="M925.51,183.63c14.13,0,27.09-7.07,41.22-4.71,12.95,1.18,23.55,10.6,30.62,21.2,7.07,10.6,10.6,23.55,14.13,35.33,3.53,14.13,5.89,29.44,3.53,43.57-5.89,27.09-31.8,45.93-57.7,57.7-9.42,3.53-18.84,8.24-24.73,16.49,4.71-16.49,5.89-32.97,4.71-49.46-7.07,10.6-15.31,18.84-24.73,25.91-5.89-29.44-11.78-60.06-12.95-89.5,0-8.24,0-16.49,2.36-24.73,2.36-5.89,5.89-10.6,10.6-15.31,5.89-7.07,10.6-12.95,16.49-20.02"/>
      <path class="cls-15" d="M720.6,183.63c-14.13,0-27.09-7.07-41.22-4.71-12.95,1.18-23.55,10.6-30.62,21.2-7.07,10.6-10.6,23.55-14.13,35.33-3.53,14.13-5.89,29.44-3.53,43.57,5.89,27.09,31.8,45.93,57.7,57.7,9.42,3.53,18.84,8.24,24.73,16.49-4.71-16.49-5.89-32.97-4.71-49.46,7.07,10.6,15.31,18.84,24.73,25.91,5.89-29.44,11.78-60.06,12.95-89.5,0-8.24,0-16.49-2.36-24.73-2.36-5.89-5.89-10.6-10.6-15.31-5.89-7.07-10.6-12.95-16.49-20.02"/>
      <path class="cls-12" d="M765.35,361.45c0,4.71-3.53,9.42-5.89,12.95-18.84,22.37-70.66,148.38-77.72,153.09-17.66,15.31-71.84-34.15-52.99-65.95,10.6-18.84,47.11-98.92,91.86-129.54,21.2-14.13,49.46,4.71,44.75,29.44h0Z"/>
      <path class="cls-13" d="M912.56,200.11s25.91,24.73,38.86-4.71c12.95-29.44-27.09-30.62-27.09-30.62l-11.78,35.33h0Z"/>
      <path class="cls-13" d="M717.07,201.29s-27.09,23.55-38.86-7.07c-11.78-30.62,28.26-29.44,28.26-29.44l9.42,36.51h1.18Z"/>
      <path class="cls-6" d="M945.53,586.38c30.62-23.55,28.26-48.28,20.02-69.48-9.42-21.2-107.16-226.11-107.16-226.11l-104.81-7.07s-55.35,131.89-67.12,151.91c-12.95,20.02-74.19,100.1-71.84,105.99,2.36,4.71,68.3,75.37,187.24,75.37s135.43-22.37,144.85-29.44l-1.18-1.18Z"/>
      <path class="cls-12" d="M778.31,104.73c36.51,23.55,109.52,55.35,150.74,69.48,7.07,56.53-15.31,126.01-115.41,131.89-100.1,5.89-130.72-68.3-120.12-135.43,41.22-10.6,49.46-42.39,85.97-65.95h-1.18Z"/>
      <path class="cls-15" d="M724.14,95.3c7.07-8.24,17.66-15.31,30.62-21.2,29.44-12.95,71.84-16.49,108.34,2.36,15.31,8.24,30.62,20.02,42.39,37.68,10.6,14.13,18.84,36.51,22.37,60.06-37.68,18.84-113.05-30.62-149.56-54.17-36.51,23.55-44.75,40.04-85.97,50.64,4.71-28.26,15.31-55.35,32.97-75.37h-1.18Z"/>
      <path class="cls-9" d="M794.79,96.48c-24.73,24.73-52.99,45.93-85.97,57.7h-1.18v-1.18c31.8-14.13,58.88-35.33,84.79-56.53,0,0,2.36,0,1.18,1.18h0l1.18-1.18Z"/>
      <path class="cls-9" d="M761.82,201.29c0-7.07-3.53-12.95-9.42-14.13-5.89,0-11.78,4.71-12.95,11.78,0,7.07,3.53,12.95,9.42,14.13,5.89,0,11.78-4.71,12.95-11.78Z"/>
      <path class="cls-9" d="M848.97,201.29c0,7.07-7.07,11.78-12.95,11.78s-10.6-7.07-9.42-14.13c0-7.07,7.07-11.78,12.95-11.78s10.6,7.07,9.42,14.13Z"/>
      <path class="cls-14" d="M885.47,227.2c0,7.07-7.07,11.78-12.95,11.78s-10.6-7.07-9.42-14.13c0-7.07,7.07-11.78,12.95-11.78s10.6,7.07,9.42,14.13Z"/>
      <path class="cls-14" d="M735.91,228.38c0,7.07-7.07,11.78-12.95,11.78s-10.6-7.07-9.42-14.13c0-7.07,7.07-11.78,12.95-11.78s10.6,7.07,9.42,14.13Z"/>
      <path class="cls-15" d="M797.15,268.42h-4.71c-37.68-1.18-50.64-25.91-50.64-27.09l8.24-4.71s11.78,21.2,42.39,21.2c37.68,1.18,45.93-16.49,45.93-16.49l8.24,3.53s-10.6,22.37-50.64,22.37l1.18,1.18Z"/>
      <g>
        <path class="cls-2" d="M841.9,310.81l-23.55,42.39-31.8-32.97-24.73,28.26-19.96-33.56c-.95,2.22-2.15,4.31-3.73,6.16l22.51,36.83,25.91-28.26,32.97,32.97,23.55-42.39,29.44,30.62,4.71-3.53-35.33-36.51Z"/>
        <polygon class="cls-2" points="853.68 440.35 818.35 394.42 784.2 436.82 758.29 394.42 730.02 433.28 708.83 385 714.72 382.65 731.2 421.51 758.29 383.82 785.37 427.4 818.35 385 852.5 429.75 872.52 395.6 877.23 397.96 853.68 440.35"/>
        <polygon class="cls-2" points="880.76 523.96 845.43 478.03 811.28 520.43 785.37 478.03 740.62 515.72 721.78 472.15 679.39 500.41 667.61 462.73 672.32 460.37 681.74 490.99 724.14 462.73 742.98 505.12 786.55 468.61 812.46 511.01 845.43 468.61 880.76 513.36 899.6 479.21 905.49 481.57 880.76 523.96"/>
        <path class="cls-2" d="M819.52,474.5l-21.2-27.09,21.2-27.09,23.55,28.26-23.55,27.09v-1.18ZM806.57,447.42l14.13,18.84,15.31-17.66-15.31-18.84s-14.13,17.66-14.13,17.66Z"/>
        <path class="cls-2" d="M879.58,479.21l-21.2-27.09,21.2-27.09,23.55,28.26-23.55,27.09v-1.18ZM865.45,452.13l14.13,18.84,15.31-17.66-15.31-18.84-14.13,17.66Z"/>
        <path class="cls-2" d="M753.58,472.15l-21.2-27.09,21.2-27.09,23.55,28.26-23.55,27.09v-1.18ZM739.45,445.06l14.13,18.84,15.31-17.66-15.31-18.84-14.13,17.66Z"/>
        <path class="cls-2" d="M720.6,441.53l-17.66-32.97-6.92,5.98c-1.55,3.82-3.04,7.66-4.6,11.49-.21.51-.44,1.02-.69,1.52l11.03-9.56,11.78,21.2-18.84,14.13-8.8-17.6c-1.27,2.2-2.35,4.48-2.81,7.02-.01.07-.04.13-.06.2l9.31,18.62v1.18l28.26-21.2Z"/>
        <path class="cls-2" d="M784.2,399.13l-21.2-27.09,21.2-27.09,23.55,28.26-23.55,27.09v-1.18ZM771.24,372.05l14.13,18.84,15.31-17.66-15.31-18.84-14.13,17.66Z"/>
        <path class="cls-2" d="M844.25,403.84l-21.2-27.09,21.2-27.09,23.55,28.26-23.55,27.09v-1.18ZM830.12,376.76l14.13,18.84,15.31-17.66-15.31-18.84-14.13,17.66Z"/>
        <path class="cls-2" d="M758.29,372.05l-17.66-32.97-16.98,14.66s0,.05,0,.07c-1.23,5.2-3.03,10.26-5.16,15.17l11.55,23.09v1.18l28.26-21.2ZM722.19,363.45l17.25-14.95,11.78,21.2-18.84,14.13-10.19-20.38Z"/>
      </g>
      <path class="cls-12" d="M858.39,346.14c0,4.71,0,9.42,2.36,14.13,11.78,27.09,25.91,161.34,30.62,168.4,12.95,18.84,93.03-3.53,83.61-40.04-5.89-21.2-35.33-101.28-69.48-142.49-16.49-20.02-45.93-25.91-47.11,0h0Z"/>
    </g>
    <path class="cls-4" d="M651.12,943.2l-439.26-90.68v-443.97l439.26,84.79v449.85Z"/>
    <path class="cls-3" d="M651.12,943.2l439.26-90.68v-443.97l-439.26,84.79s0,449.85,0,449.85Z"/>
    <path class="cls-4" d="M1149.26,492.17l-442.79,87.14-57.7-84.79,442.79-87.14,57.7,84.79Z"/>
    <path class="cls-3" d="M150.63,492.17l442.79,87.14,57.7-84.79-441.61-87.14-58.88,84.79Z"/>
  </g>
</svg>