<?xml version="1.0" encoding="UTF-8"?>
<svg id="Layer_2" data-name="Layer 2" xmlns="http://www.w3.org/2000/svg" xmlns:xlink="http://www.w3.org/1999/xlink" viewBox="0 0 1163.45 1166.32">
  <defs>
    <style>
      .cls-1 {
        fill: #af6b4e;
      }

      .cls-1, .cls-2, .cls-3, .cls-4, .cls-5, .cls-6, .cls-7, .cls-8, .cls-9, .cls-10, .cls-11, .cls-12, .cls-13, .cls-14, .cls-15, .cls-16, .cls-17, .cls-18, .cls-19 {
        stroke-width: 0px;
      }

      .cls-2 {
        fill: #6b3825;
      }

      .cls-3 {
        fill: #f8f6f3;
      }

      .cls-4 {
        fill: #052d25;
      }

      .cls-20 {
        clip-path: url(#clippath);
      }

      .cls-5 {
        fill: none;
      }

      .cls-6 {
        fill: #91cee8;
      }

      .cls-7 {
        fill: #000;
      }

      .cls-8 {
        fill: #3a221b;
      }

      .cls-9 {
        fill: #aad1b9;
      }

      .cls-10 {
        fill: #11492d;
      }

      .cls-11 {
        fill: #065151;
      }

      .cls-12 {
        fill: #745145;
      }

      .cls-13 {
        fill: #513834;
      }

      .cls-14 {
        fill: #b8e0ee;
      }

      .cls-15 {
        fill: #24170e;
      }

      .cls-16 {
        fill: #fff;
      }

      .cls-17 {
        fill: #331c17;
      }

      .cls-18 {
        fill: #805639;
      }

      .cls-19 {
        fill: #4f2e25;
      }
    </style>
    <clipPath id="clippath">
      <circle class="cls-5" cx="581.21" cy="584.77" r="581.59"/>
    </clipPath>
  </defs>
  <g class="cls-20">
    <circle class="cls-14" cx="581.59" cy="584.21" r="581.59"/>
    <path class="cls-3" d="M833.71,818.56c-45.89-.17-80.81-.99-80.81-.99,0,0-110.63-213.08-173.61-308.11-36.05,54.64-72.25,109.65-92.91,170.25,47.18,84.96,121.43,219.63,170.46,267.28,39.67,38.55,94.09,24.05,94.09,24.05,19.66-3.18,48.95-7.74,82.78-14.49v-137.99Z"/>
    <path class="cls-11" d="M491.77,437.98s114.04,67.84,148.31,94.77c43.82,34.44,89.75,242.05,101.51,270.82,11.86,29-55.4,145.53-55.4,145.53l-82.31-104.85-81.26-54.08-13.2-288.22-17.65-63.98Z"/>
    <path class="cls-1" d="M588.74,1043.78c11.96,12.36,47.23,4.98,55.23,20.26,3.24,6.19,3.18,12.1,5.34,18.7,15.23,2.79,56.29-108.57,69.67-162.26-25.03-17.22-52.55-35.16-81.13-43.93-18.07,43.4-36.98,118.41-40.2,131.37,5.33,4.77-13.9,30.72-8.92,35.87Z"/>
    <path class="cls-1" d="M656.29,1075.83c-9.67-13.98-22.99-25.58-37.94-35.24-12.87-8.31-26.94-15.2-41.47-21.31l-192.31,63.47-7.98,42.25s222.94,1.83,275.08-42.01c1.65-1.39,3.35-3.59,5.08-6.48-.15-.23-.3-.46-.45-.68Z"/>
    <path class="cls-1" d="M401.31,268.75s-15.3,76.81-46.91,118.42c-5.07,6.67-49.87,13.03-49.87,13.03l6.73,15.7c5.81,13.55,77.53,223.31,88.7,232.94,55.59,47.93,87.74-124.93,130.42-154.69l-7.25-28.31s-7.8-4.21-6.74-14.04c1.06-9.83,35.67-66.91,35.67-66.91"/>
    <path class="cls-18" d="M385.84,300.42c-.05.17-.08.33-.13.5,0-.23.03-.41.13-.5Z"/>
    <path class="cls-1" d="M467.15,438.14l55.84,17.18,29.73,3.37c2.78,1.03,24.8-22.99,27.96-25.91,9.8-9.06,21.58-23.35,29.44-34.17,8.42-11.59,21.54-17.54,28.94-32.44,5.43-10.91,8.26-18.89,8.64-39.63.1-5.27,1.69-10,4.63-14.67,6.22-9.83,11.48-22.03,19.5-35.31.63-1.04,3.85-6.03,3.84-7.41,0,0,19.5-60.34,16.17-85.49-3.33-25.15-12.08-39.12-26.38-48.66-14.31-9.55-61.68-22.97-61.68-22.97l-60.89-31.62-63.92,7.88-50.84,56.5-22.91,78.21-15.82,71.49"/>
    <path class="cls-8" d="M499.43,435.49c-.55.13-28.26-13.75-28.81-13.99l-12.48-12.34s-.05-.08-.06-.1c-1.54.05-3.18-.43-4.76-1.68-8.24-6.52-14.59-14.61-20.36-23.32-5.18-7.83-7.61-26.95-14.37-33.57-3.2-3.13-1.44-3.83-3.82-7.42,0,.96-1.98,5.99-1.97,6.94,8.01,24.09,22.75,74.13,39.94,91.75,1.37.93,5.93,6.05,18.21,11.56,16.11,7.23,34.7,11.96,51.7,15.47,4.42-11.6,2.28-27.29,6.53-38.96-5.93-2.19-9.31.93-29.75,5.65Z"/>
    <path class="cls-7" d="M537.05,257.34c-2.83-3.11-7.51-3.06-10.56-1.88-.72.28-2.67,1.1-4.2,3.16-1.96,2.62-2.02,6.4-.92,9.11,1.46,3.62,5.4,5.61,9.11,5.31,5.02-.41,8.32-5.05,8.65-9.19.06-.76.21-3.99-2.07-6.5"/>
    <path class="cls-7" d="M634.21,294.13c4.18-.52,7.69,2.57,9.23,5.45.36.68,1.31,2.58,1.13,5.13-.22,3.26-2.64,6.17-5.24,7.51-3.47,1.8-7.76.74-10.37-1.9-3.54-3.58-3.03-9.25-.57-12.61.45-.61,2.44-3.16,5.81-3.58"/>
    <path class="cls-7" d="M606.74,299.05s17.78-9.45,27.31-7c13.92,3.58,16.1,8.25,18.28,16.91,0,0-6.1-10.47-15.99-12.7-9.45-2.13-29.61,2.78-29.61,2.78Z"/>
    <path class="cls-7" d="M562.8,278.61s-16.18-21.15-26.44-25.26c-14.98-6-36.3-3.75-43.86,1.68,0,0,28.62-4.32,39.06.18,9.98,4.31,31.24,23.39,31.24,23.39Z"/>
    <path class="cls-7" d="M577.43,212.59c2.14.91,1.46,2.55,1.63,6.4.05,1.23.17,3.11.3,5.1.24,3.7-3.25,6.58-6.83,5.59-6.42-1.78-12.15-3.7-16.56-4.26-11.91-1.53-24.15-3.92-36.02-1.48-5.68,1.17-10.63,2.88-15.26,6.07-1.46,1.01-5.33,5.24-7.63,4.31-.94-.38.34-5.17.48-5.66,2.64-9.66,10.52-14,20.27-16.74,19.89-5.59,39.04-.94,59.61.67"/>
    <path class="cls-7" d="M674.17,278.52s-2.82-5.47-2.84-5.52c-6.05-11.86-14.38-21.71-24.01-30.51-4.88-4.46-12.42-4.33-17.29.14-.03.03-.06.05-.09.08-.97.89-4.39,3.05-4.64,4.37-.05.26.02.52.1.77.86,2.69,2.79,4.95,5.03,6.67,2.78,2.13,6.07,3.36,8.91,5.37,8.16,5.79,16.85,11.79,22.16,20.34.42.68,2.63,4.38,3,5.06,6.03-1.26,9.97-5.18,9.66-6.76Z"/>
    <g>
      <path class="cls-7" d="M570.09,352.69c-5.3.73-11.84-2.32-15.25-6.8-.76-.99-4.27-1.61-3.22-.21,4.51,5.91,14.06,9.84,20.9,8.9.68-.1.74-.58.12-1.08-.64-.53-1.83-.91-2.56-.81"/>
      <path class="cls-7" d="M550.18,343.68c-2.44-2.54-5.49-4.53-8.72-6.03-.47-.22-1.17-.26-1.65-.07-.38.15-.56.47-.27.82,1.2,1.47,3.02,2.57,4.83,3.2.57.2,1.37.33,1.87-.05.47-.35.03-.85-.41-1.01-1.5-.52-2.9-1.38-3.89-2.59-.65.25-1.29.5-1.93.75,2.89,1.34,5.6,3.15,7.78,5.42.43.45,1.26.57,1.84.45.43-.08,1-.44.56-.9"/>
      <path class="cls-7" d="M536.82,339.2c-3.86-1.54-7.79-4.97-8.59-8.68-1.21-5.59,4.08-11.61,10.01-12.7.64-.12.52-.63.02-.94-.64-.41-1.57-.45-2.24-.33-5.17.95-10.03,5.67-10.97,10.15-.87,4.19,1.82,8.34,6.05,11.21,1.26.85,2.65,1.63,4.09,2.21.58.23,1.71.44,2.17.08.47-.37,0-.78-.54-1"/>
      <path class="cls-7" d="M577.97,353.31c-.04-.54.46-.69.77-.57,1.04.42,2.23.51,3.4.1.19.56.37,1.11.55,1.67-2.19-.55-4.56-.62-6.92-.03-.47.12-.95-.25-1.17-.66-.17-.31-.25-.91.22-1.03"/>
      <path class="cls-7" d="M574.81,352.8c2.64-.66,5.28-.54,7.73.07.36.09.74.44.87.87.1.33.02.69-.32.81"/>
      <path class="cls-7" d="M585.85,356.85c2.57.84,6.19.21,8.54-2.33,3.56-3.83,3.8-9.85,1.71-13.91-.23-.44.11-.78.5-.77.51.01.95.48,1.19.94,1.82,3.54,2.09,8.3.1,12.39-1.86,3.82-5.31,5.7-8.76,5.72-1.03,0-2.07-.12-3.03-.43-.39-.13-1.01-.56-1.02-1.11-.01-.55.42-.63.78-.51"/>
    </g>
    <path class="cls-1" d="M435.53,226.8c-.95,6.08-9.69,28.99-10.97,34.89l-30.22-11.03c-2.35-23.07-7.15-34.08-8.81-40.63-2.59-10.22,5.23-42.99,7.58-53.06,3.98-16.99,16.8-36.27,28.1-50.22,12.45-15.36,24.02-23.11,41.46-31.75,35.57-17.64,87.66-16.72,132.72,2.35,4.28,1.81,8.5,3.79,12.53,5.86,38.09,19.61,65.98,41.03,80.23,82.98,10.28,30.25,3.93,52.69-8.41,87.08,10.12-33.26,8.35-63.59,8.19-64.73-3.41-26.15-15.28-37.39-24.65-42.21-8.17-4.2-15.4-4.14-16.85-4.07-10.49-1.18-24.3-7.4-34.08-12.43-7.28-3.75-12.92-7.14-14.45-8.08-3.96-5.32-10.82-10.59-19.86-15.24-21.01-10.81-54.36-17.96-64.25-10.6-10.97,8.15-40.47,40.49-43.61,49.32,0,0-27.79,37.86-34.65,81.59Z"/>
    <path class="cls-1" d="M551.69,442.86c-.36-.18-.67-.44-.91-.75-4.49-5.94-4.17-8.28-6.8-9.97-.61-.39-.86-.75-2.82-1.76-7.85-4.06-12.58-6.68-39.66-.43-.54.13-28.26-13.75-28.81-13.99l-12.49-12.34c-1.96-2.43-41.46-69.39-41.46-69.39-.29-1.88-6.49-16.67-6.36-18.32-.14-.15-.28-.31-.44-.44-.06-.05-.18-.16-.31-.27-.06.09-.14.21-.19.27-.33.61-.55,1.29-.75,1.95-.87,2.87,6.6-15.13,6.5-12.12-.16,4.61-1.22,10.47-1.55,15.05-.12,1.62-2.71,23.85-2.69,25.47,5,6.22,26.11,70.83,45.27,90.47,1.37.93,2.21,3.88,14.48,9.39,23.06,10.35,46.01,18.39,71.78,19.81,6.72.37,13.17-2.25,17.61-7.05,12.67-13.69,40.73-44.2,53.01-66.98-11.39,11.71-35.58,36.86-52.16,53.94-.5.52-9.7-2.16-10.52-2.2"/>
    <path class="cls-7" d="M435.53,226.8c-.95,6.08-9.69,28.99-10.97,34.89l-30.22-11.03c-2.35-23.07-7.15-34.08-8.81-40.63-2.59-10.22,5.23-42.99,7.58-53.06,3.98-16.99,13.48-47.58,24.78-61.53,12.45-15.36,28.99-23.99,46.42-32.63,35.57-17.64,86.02-4.52,131.07,14.54,4.28,1.81,8.5,3.79,12.53,5.86,38.09,19.61,65.98,41.03,80.23,82.98,10.28,30.25,5.06,52.72-2.17,68.86,10.12-33.26,5.11-47.39,4.8-48.5-5.94-20.96-13.96-39.03-23.32-43.86-8.17-4.2-19.57-.5-21.02-.43-10.49-1.18-24.3-7.4-34.08-12.43-7.28-3.75-12.92-7.14-14.45-8.08-3.96-5.32-28.95-24.99-37.99-29.64-21.01-10.81-38.09-11.27-47.99-3.92-10.97,8.15-38.6,48.2-41.75,57.03,0,0-27.79,37.86-34.65,81.59Z"/>
    <path class="cls-1" d="M393.5,304.65c-25.73,18.57-23.77-27.43-23.77-27.43-9.71-27.02-1.66-49.11,4.47-63.99,6.13-14.88,22.67-8.6,22.67-8.6,13.55,6.68,17.1,16.55,11.57,68.45"/>
    <path class="cls-19" d="M393.08,243.69c-5.74-.42-9.08,4.39-10.61,9.31-.43,1.38-.61,2.79-.94,4.19-.49,2.09-1.21,4.04-1.47,6.2s-.28,4.41-.05,6.61c.32,3.16,1.07,6.91,3.2,9.4,1.22,1.42,3.28,1.86,4.68.38,1.26-1.33,1.43-3.64,1.63-5.36.3-2.56.39-5.13.73-7.68.16-1.24.45-5.13,2.13-5.43.77-.14,1.72.61,2.39.94,1.1.55,2.21,1.11,3.31,1.66.28.14,1.29,0,1.3-.44.12-7.72.39-15.41-.42-23.11-.52-4.98-1.35-10.11-3.36-14.73-.76-1.75-1.74-3.68-3.24-4.92-1.2-.99-2.6.23-3.65.99-5.99,4.29-9.4,11.33-11.06,18.34-.12.53,1.33.31,1.45-.18,1.31-5.54,3.64-10.98,7.6-15.15,1.32-1.4,3.27-3.08,4.8-3.75l-.86.05c1.28.65,2.5,2.86,3.18,4.28,3.02,6.34,3.74,13.83,4.11,20.74.32,5.88.1,11.75,0,17.63l1.3-.44c-1.62-.81-3.25-1.85-4.95-2.47-1.45-.53-3.07-.16-3.99,1.12-1.1,1.52-1.33,3.68-1.54,5.49-.29,2.45-.39,4.91-.68,7.36-.15,1.29-.26,4.22-1.53,5.03-1.74,1.11-3.58-3.66-3.92-4.64-1.33-3.91-1.6-8.23-1.05-12.3.32-2.41,1.17-4.66,1.62-7.03.91-4.76,3.41-11.69,9.33-11.25.55.04,1.54-.74.57-.82h0Z"/>
    <path class="cls-11" d="M579.68,507.6c-17.87-12.4-44.85-33.8-55.49-41.09,3.64,14.3,4.19,33.41-10.12,34.5-18.64,1.43-29.05,2.13-29.05,2.13-1.86-.33-12.84,47.63-14.66,47.23-2.74-.59-1.02-49.63-3.62-50.35-18.56-5.13-52.73-6.51-68.17-17.88-28.88-21.27-55.38-60.73-61.07-91.66l-60.87,22.25s-61.38,25.19-84.1,32.11c-17,5.18-61.88,243.35-61.88,243.35l-24.66,354-40.97,187.69c94.63-3.62,203.74-6.3,223.89-.48,42.78,12.36,341.78,31.64,339.55,7.7-22.5-241.58,24.15-501.95,24.15-501.95l-8.29-154.8s-34.62-51.94-64.63-72.76Z"/>
    <path class="cls-13" d="M369.86,722.82c.13.03.25.08.37.16-.08.5-.01,1.07-.55,1.39.06-.52.12-1.03.18-1.55Z"/>
    <path class="cls-13" d="M321.27,857.63c-.12.05-.25.08-.39.09.01-.33.03-.65.04-.98.12.3.23.59.35.89Z"/>
    <path class="cls-12" d="M488.53,737.47c-.17-.07-.34-.13-.51-.2.19-.04.38-.09.58-.13.04.12.02.23-.07.33Z"/>
    <path class="cls-12" d="M486.93,737.15c-.24-.03-.47-.06-.71-.09.27-.19.5-.16.71.09Z"/>
    <path class="cls-12" d="M371.52,723.08c.22-.18.43-.16.61.06-.2-.02-.41-.04-.61-.06Z"/>
    <path class="cls-4" d="M631.66,891.49c2.29-21.85,3.02-43.8,4.07-65.73.97-20.21,2.16-40.54,6.08-60.42,2.04-10.36,4.88-20.58,8.87-30.36.15-.37-1.91-.18-2.14.38-7.24,17.77-10.61,36.82-12.56,55.83-2.14,20.96-2.65,42.06-3.71,63.09-.64,12.62-1.46,25.23-2.77,37.79-.03.29,2.1.08,2.17-.58h0Z"/>
    <path class="cls-13" d="M611.28,996.13c.08.19.19.36.32.51.34-.37.67-.73,1.01-1.1-.44.19-.89.39-1.33.58Z"/>
    <path class="cls-1" d="M770.01,747.57c3.64-.22,5.44-.4,9.05-.78,14.88-1.56,30.18-3.29,44.83-6.34,22.6-4.7,40.62-18.29,59.16-31.06-.18,14.19,1.28,31.6,6.67,41.4l-.43,4.15c-31.44,49.65-49.96,78.35-155.61,47.82l34.45-53.83,1.87-1.36Z"/>
    <path class="cls-1" d="M722.88,603.32c.59-6.5,1.31-14.05,2.23-23.14.27-2.64.6-5.16.94-7.66.3-1.27.48-2.55.56-3.85,6.81-44.05,24.21-65.41,24.21-65.41,22.21-27.03,57.06-40.19,91.54-34.54,40.69,5.79,74.48,35.06,90.64,62.34,8.03,13.51,10.8,29.52,7.78,44.95-2.56,13.19-12.13,24.51-17.47,38.52,14.33,1.08,27.68,7.89,19.3,33.52-11.56,35.36-36.28,43.76-46.05,32.47-2.58.14-9.73,15.57-11.24,23.06-.12.58-4.79,40.41-4.9,41.02-20.38,10.73-58.76,9.46-82.14,12.06-14.66,1.63-23.09.31-37.83.2-3.56-.03,3.58.17,0,0l3.52-28.3c-1.02-.2-1.92-.24-6.35-2.26-31.8-12.48-41.23-57.59-41.08-74.3.13-14.18,3.5-40.44,6.35-48.67Z"/>
    <path class="cls-17" d="M763.97,728.56s38.46,7.84,76.21-10.94c0,0-5.64,11.17-31.59,16.94-25.95,5.77-45.39.29-45.39.29l.78-6.3Z"/>
    <path class="cls-19" d="M929.72,651.1c1.89-3.92,3.05-8.45,2.08-12.79-.19-.87-.27-2.06-1.3-2.1-3.38-.13-6.86,2.66-9.24,4.68-4.25,3.6-7.85,7.96-11.21,12.39-.39.52.94.26,1.11.17,1.03-.57,2.57-1.19,3.71-.64,1.45.7,1.51,2.95,1.32,4.33-.66,4.67-4.91,6.52-9.21,6.44-.5,0-1.56.72-.59.74,4.99.09,10.76-2.11,11.28-7.77.17-1.81-.19-4.15-2.27-4.59-1.69-.36-3.65.33-5.12,1.14l1.11.17c2.9-3.83,5.97-7.57,9.49-10.85,1.88-1.74,3.91-3.44,6.21-4.6.56-.29,1.15-.53,1.76-.71.38-.11.68-.11.91-.16.25-.05.09-.06.26.01-.47-.2-.19-.16-.14.13.07.39.28.79.38,1.18,1.15,4.39-.04,9.04-1.97,13.03-.17.36,1.23.22,1.44-.21h0Z"/>
    <path class="cls-7" d="M901.96,645.68c.09-.21.78-1,.89-1.21,2.61-4.9,8.38-13.76,13.08-16.93,2.15-1.45,4.69-3.04,7.28-3.83,2.59-.79,5.37-1.72,8.13-1.73,3.9-.45,7.66.1,11.26,1.67.6.36,1.2.72,1.79,1.08,13.8-30.13,27.59-60.25,9.65-101.74-5.18-11.96-21.01-26.47-25.83-31.1-29.24-27.76-57.93-33.23-93.95-34.36-41.75-1.31-78.17,15.95-93.09,56.35-3.6,9.74-2.13,4.76-4.27,13.46,0,0,4.84-19.54,26.27-28.81,21.42-9.27,22.72,8.65,50.79,12.95,32.51,4.85,45.54-11.45,69.9,5.59,22.24,15.61,26.57,37.37,26.57,37.37,1.78,14.67,7.04,24.99.94,40.74-1.48,3.75-2.77,7.56-3.98,11.4-1.15,7.14-6.53,10.53-6.17,17.82.18,3.58-4.97,17.33-2.22,19.84,2.97,2.69-.68,2.2,2.96,1.45Z"/>
    <g>
      <path class="cls-7" d="M771.23,651.18c2.68,1.98,7.18,2.3,10.4.92.71-.3,2.82.42,1.83.85-4.24,1.82-10.66,1.07-14.12-1.48-.34-.26-.23-.53.26-.62.51-.09,1.28.06,1.64.33"/>
      <path class="cls-7" d="M784.84,652.3c2.1-.63,4.37-.78,6.59-.62.32.03.72.21.93.46.16.19.17.42-.1.52-1.1.43-2.42.47-3.61.27-.37-.06-.85-.23-1.01-.59-.15-.33.24-.46.53-.42.98.17,2,.13,2.91-.23.28.33.55.65.83.98-1.98-.15-4.01,0-5.89.57-.37.11-.86-.07-1.14-.31-.21-.17-.41-.54-.04-.65"/>
      <path class="cls-7" d="M793.51,653.91c2.58.33,5.76-.33,7.31-2.08,2.34-2.63,1.3-7.82-1.62-10.17-.32-.26-.09-.49.27-.51.48-.03.99.23,1.33.49,2.55,2.05,3.75,6.42,2.92,9.1-.78,2.5-3.5,3.92-6.68,4.19-.95.08-1.94.08-2.9-.04-.39-.05-1.07-.27-1.22-.61-.15-.34.23-.42.6-.37"/>
      <path class="cls-7" d="M766.73,649.15c.18-.28-.04-.51-.25-.53-.7-.09-1.37-.39-1.89-.96-.27.24-.53.49-.8.73,1.36.36,2.69,1.03,3.8,2.05.22.2.59.15.84,0,.19-.11.41-.41.19-.62"/>
      <path class="cls-7" d="M768.61,649.82c-1.25-1.14-2.73-1.87-4.26-2.28-.22-.06-.54.02-.73.2-.16.15-.22.36-.07.53"/>
      <path class="cls-7" d="M761.35,648.69c-1.66-.32-3.45-1.74-3.98-3.8-.8-3.11.88-6.41,3.24-7.96.26-.17.18-.45-.04-.56-.28-.15-.66-.03-.93.15-2.06,1.35-3.63,3.82-3.78,6.6-.13,2.6,1.2,4.64,3.08,5.68.56.31,1.17.56,1.79.68.25.05.72,0,.89-.29.17-.29-.04-.46-.27-.5"/>
    </g>
    <path class="cls-9" d="M1005.84,965.3c-2.21-5.14-18.15-10.7-32.14-50.83,0,0,47.95-19.86,60.79-31.16,0,0-.95-86.89-81.39-127.54-30.63-15.48-32.04-21.78-61.43-26,0,0-36.27,51.75-94.46,54.42-58.19,2.67-43.98-36.24-43.98-36.24-14.64,2.83-50.39,19.32-60.26,24.31-41.3,20.86-47.99,74.1-62.41,119.52-.07,5.9-.82,16.09-1.44,21.96-1.17,11.11-.96,22.15-1.86,33.29-.46,5.6-.67,11.24-.73,16.86-.01,1.04-.01,2.07-.01,3.11,12.7,12,41.18,13.75,41.18,13.75,0,0,7.71,48.72,12.13,85.59,3.81,32.61-5.74,88.56-4.08,156.38,8.19,2.04,38.55-17.17,46.51-14.37,13.82,4.85,27.79,9.45,42.13,12.53,15.16,3.25,30.61,4.73,46.06,5.79,15.41,1.06,30.78,1.42,46.23,1.14,29.91-.54,59.8-3.23,89.17-9.04,30.29-5.99,59.45-15.54,87.9-27.48,11.18-4.69,22.23-9.65,33.22-14.76-28.14-95.1-60.26-209.26-61.12-211.24Z"/>
    <path class="cls-10" d="M653.2,904.23c4.26,3.8,5.83,9.99,6.77,15.41s1.21,10.93,1.13,16.4c-.03,1.65-.17,3.29-.14,4.94.06,3.92.43,7.84.88,11.73,1.11,9.51,2.93,18.94,5.14,28.26.12.5,1.57.13,1.45-.39-3.05-12.85-5.66-26.13-6.01-39.37-.04-1.48.07-2.98.11-4.5.12-5.17-.08-10.38-.81-15.5-.86-6.06-2.39-13.26-7.18-17.53-.38-.34-1.74.22-1.35.57h0Z"/>
    <g>
      <path class="cls-9" d="M762.49,740.44s.78,35.92,36.77,43.25c0,0-25.77,16.03-32.26,39.36,0,0-25.63-17.87-36.16-68.66,0,0,14.61-12.86,27.21-18.36,4.52-1.98,4.44,4.42,4.44,4.42Z"/>
      <path class="cls-10" d="M761.76,740.51c.1,4.32,1.12,8.72,2.44,12.81,2.86,8.85,8.09,16.89,15.56,22.52,5.61,4.23,12.22,6.89,19.08,8.31l-.04-.74c-3.31,2.06-6.41,4.52-9.37,7.04-6.27,5.33-12.01,11.39-16.5,18.3-2.89,4.45-5.21,9.26-6.65,14.38.43-.15.86-.31,1.3-.46-1.91-1.34-3.62-3.02-5.25-4.67-4.55-4.6-8.49-9.79-11.95-15.24-5.55-8.73-9.87-18.2-13.21-27.98-2.15-6.3-3.9-12.74-5.3-19.25-.04-.18-.33-1.07-.36-1,.03-.07.16-.11.2-.17.28-.38.83-.71,1.19-1.01,1.45-1.22,2.93-2.41,4.43-3.58,5.12-3.99,10.45-7.79,16.15-10.92,1.39-.77,2.81-1.49,4.26-2.15,1.13-.51,2.24-.92,3.1.22.73.96.95,2.41.94,3.6,0,.7,1.46.45,1.46-.14.01-1.5-.28-3.4-1.43-4.47-.83-.77-1.99-.87-3.05-.61-1.82.46-3.61,1.55-5.25,2.43-6.82,3.66-13.15,8.23-19.17,13.08-1.38,1.11-2.75,2.24-4.08,3.41-.1.09-.15.24-.13.37,3.3,15.82,8.6,31.34,16.8,45.32,4.43,7.56,9.72,14.8,16.19,20.76,1.06.97,2.15,1.96,3.33,2.79.4.28,1.17,0,1.3-.46,4.31-15.26,16.28-27.78,28.87-36.86,1.03-.74,2.06-1.47,3.13-2.14.29-.18.39-.65-.04-.74-11.27-2.33-21.35-8.22-27.94-17.78-4.23-6.13-6.89-13.32-8.05-20.66-.22-1.41-.45-3.19-.48-4.43-.02-.71-1.47-.45-1.46.14Z"/>
    </g>
    <path class="cls-10" d="M788.75,792.34c.16,8.27.31,16.53.47,24.8.25,13.12.49,26.23.74,39.35.06,3,.11,6.01.17,9.01,0,.16.34.18.43.18,6.26-.42,12.53-.83,18.79-1.25.48-.03,1.55-.8.59-.74-6.26.42-12.53.83-18.79,1.25l.43.18c-.16-8.27-.31-16.53-.47-24.8-.25-13.12-.49-26.23-.74-39.35-.06-3-.11-6.01-.17-9.01,0-.38-1.46-.12-1.45.39h0Z"/>
    <ellipse class="cls-10" cx="803.61" cy="817.98" rx="6.26" ry="4.9" transform="translate(-39.76 41.06) rotate(-2.86)"/>
    <ellipse class="cls-10" cx="804.89" cy="843.82" rx="6.26" ry="4.9" transform="translate(-41.05 41.16) rotate(-2.86)"/>
    <path class="cls-15" d="M771.6,667.42c9.8,2.01,30.13,12.8,33.66,17.73,0,0-12.89,5.93-35.62,1.27-22.73-4.67-22.02-14.31-22.02-14.31,0,0,11.5-7.25,23.98-4.69Z"/>
    <path class="cls-16" d="M796.94,678.78s-11.46-3.39-20.77-5.3c-9.3-1.91-21.16-3.3-21.16-3.3,0,0,.02-7.69,16.89-4.22,16.87,3.46,25.04,12.83,25.04,12.83Z"/>
    <path class="cls-2" d="M768.57,686.32c10.97.58,24.45-4.54,36.69-1.17,0,0-8.32,17.57-35.04,12.08-26.72-5.48-22.6-25.12-22.6-25.12,12.58,1.73,10.64,10.42,20.95,14.22Z"/>
    <path class="cls-2" d="M761.14,659.4c5.7.71,8.8,3.7,11.24,4.2,2.44.5,6.47-1.03,11.99.57,5.17,1.49,24.62,19.71,21.76,20.96-2.85,1.26-18.03-12.3-34.93-15.77-16.9-3.47-21.45,5.02-23.57,2.74-2.12-2.28,8.17-13.37,13.52-12.7Z"/>
    <path class="cls-7" d="M824.28,558s-9.24,9.09-3.79,13.59,15.08,4.05,20.36,4.5,18.07,9.59,23.86,18.43c5.79,8.84,3.83,13.65,5.79,8.84,4.65-11.38-10.42-25.21-16.36-31.22-5.94-6-12.01-5.44-19.02-7.86-7.01-2.43-2.55-5.18-10.84-6.28Z"/>
    <path class="cls-7" d="M775.16,554.65c-8.19-1.65-4.87,2.4-12.29,2.42-7.42.02-12.97-2.49-20.55,1.27-4,1.98-11.13,5.21-16.85,9.62-.95,1.24-1.56,2.81-1.62,4.3,0,.24,0,.48,0,.72,0,.11.02.22.03.32,0,.03.03.23.04.24.04.23.1.46.17.68.04.12.08.24.12.36.01.03.01.03.01.03,0,.01.01.03.03.07.11.23.23.45.37.66.16.23.09.14.32.39.09.1.17.18.25.25,8.37-6.43,23.3-10.88,28.41-9.59,5.14,1.29,14.11,4.84,20.72,2.35,6.61-2.49.83-14.08.83-14.08Z"/>
    <path class="cls-19" d="M784.49,569.17c3.74.39,7.53-1.29,9.96-4.12,2.74-3.19,3.56-7.54,3.48-11.64,0-.22-1.46,0-1.45.39.07,3.49-.51,7.08-2.39,10.07-1.78,2.83-4.92,5.11-8.4,4.75-.33-.03-.71.04-1.01.19-.09.05-.52.32-.18.36h0Z"/>
    <path class="cls-19" d="M808.75,572.59c-8.57-1.6-6.18-12.42-3.2-17.88.39-.71-1.08-.73-1.39-.17-1.86,3.4-3.11,7.48-2.81,11.39.13,1.77.64,3.56,1.79,4.96,1.29,1.58,3.15,2.39,5.12,2.75.72.13,1.47-.88.5-1.06h0Z"/>
    <path class="cls-6" d="M855.58,615.33c-.03-3.58-.29-5.88-.3-7.29-.7.06-1.41.13-2.11.22.14,2.58.34,7.17.47,13.32.2,9.86-4.03,14.49.2,14.73,4.23.24,1.81-12.32,1.74-20.97Z"/>
    <path class="cls-6" d="M861.84,624.95c-.25-3.5-.76-8.44-1.13-11.96-.8,0-1.6-.01-2.4-.02.92,2.73,2.32,8.88,1.33,19.38-1.41,14.94-7.64,29.47-8.85,35.11-1.21,5.64,1.61,6.24,4.03,4.53,2.42-1.71.2-6.55.4-12.92.2-6.38,8.11-13.71,6.63-34.12Z"/>
    <path class="cls-6" d="M724.25,591.52c.49.98-1.09,7.23-2.34,12.67-1.94,8.44-7.02,20.17-2.84,20.85,4.18.68-.37-4.75,1.96-14.34,1.64-6.75,4.58-13.48,5.35-16.88"/>
    <path class="cls-6" d="M725.24,593.65c1.79.3,3.47-.81,5.02-1.75s3.52-1.75,5.11-.88c.83.45,1.48,1.33,2.43,1.4.56.04,1.09-.22,1.59-.47,1.44-.73,2.89-1.49,4.48-1.79,1.59-.29,3.36-.05,4.55,1.03.72.65,1.25,1.6,2.18,1.87,1.31.38,2.57-.79,3.93-.89,2.33-.17,3.59,2.56,4.85,4.53,1.32,2.07,3.26,3.65,5.17,5.2-.6-4.59-3.64-8.64-7.52-11.17s-8.52-3.67-13.14-4.03c-7.03-.55-14.71.91-19.53,6.06"/>
    <path class="cls-6" d="M808.63,607.7c-.85,1.27,2.57-1.14,3.7-2.16.98-.9,2.34-1.36,3.66-1.27.87.06,1.77.36,2.61.1.69-.22,1.2-.78,1.71-1.29,1.46-1.49,3.56-2.87,5.52-2.14.6.22,1.13.63,1.75.76,1.72.35,3.37-1.52,5.04-1.02,1.21.36,1.82,1.82,3.02,2.2,1.42.46,2.91-.79,4.38-.57,2.18.33,2.81,3.42,4.84,4.29.98.42,2.1.23,3.17.22s2.29.24,2.81,1.17c.29.53.3,1.19.64,1.7.84,1.25,3.07.73,3.96,1.95.31.43.38.98.57,1.48.53,1.39,2.17,2.25,3.62,1.9,0,0,1.51-3.31-7.03-9.76-8.54-6.45-18.38-8.07-23.78-7.64-5.41.43-16.8,5.01-20.18,10.07Z"/>
    <path class="cls-7" d="M731.84,585.55c4.46-2.13,10.36-3.17,18.67-1.42,13.3,2.8,17.38,20.39,17.38,20.39,0,0-5.61-13.73-18.67-16.82-6.29-1.49-20.2,2.7-25.37,4.6.28-1.27,5.31-5.32,8-6.75Z"/>
    <path class="cls-7" d="M806.3,608.63s15.17-16.04,29.83-13.07c20.62,4.18,23.22,13.25,26.44,20.42,0,0-11.29-14.1-27.3-16.94-14.53-2.58-28.96,9.6-28.96,9.6Z"/>
    <path class="cls-1" d="M972.74,1058.49c15.1,8.24,27.46,50.8,39.65,63.01,4.94,4.94,8.27-1.03,12.29,4.63,15.37-1.87,21.86-141.54,18.66-196.78-29.02-8.99-60.63-17.93-90.53-17.79-4.33,46.81-.07,124.05.72,137.38,6.51,2.97,12.94,6.13,19.22,9.56Z"/>
    <path class="cls-9" d="M924.07,741.3s99.21,32.57,117.19,91.3c25.85,84.46,17.01,153.82,17.01,153.82,0,0-76,22.15-129.27-1.47-37.62-16.68-13.93-221.82-13.93-221.82"/>
    <path class="cls-10" d="M968.44,808.28c-4.89,1.22-9.56,4.22-13.42,7.34-10.3,8.3-16.58,20.52-19.71,33.19-2.49,10.04-3.5,20.55-3.97,30.86-.48,10.41-.19,20.84.33,31.25.5,9.88,1.26,19.75,1.67,29.63.23,5.46.33,10.93.43,16.39.21,10.43.36,20.87.48,31.31,0,.2,0,.39,0,.59.03.05.07.08.13.09,7.88,1.23,15.73,2.59,23.61,3.83,18.17,2.84,36.78,3.33,55.1,1.91,15.35-1.19,30.59-3.86,45.37-8.18.17-.05.67-.17.66-.42-.03-5.54-.06-11.08-.09-16.62,0-.21-.73-.04-.78-.03-4.02,1.09-8.13,1.88-12.22,2.63-10.72,1.95-21.58,3.21-32.46,3.87-14.23.86-28.5.54-42.71-.47-8.03-.57-16.12-1.32-24.01-2.97-2.28-.48-4.95-.91-7.01-2.02-.37-.2-1.54.4-1.37.49,1.66.89,3.71,1.29,5.52,1.72,7.2,1.69,14.64,2.46,22,3.07,25.57,2.13,51.33,1.66,76.66-2.61,5.26-.89,10.57-1.86,15.72-3.26l-.78-.03c.03,5.54.06,11.08.09,16.62l.66-.42c-16.61,4.85-33.79,7.58-51.07,8.46-12.74.65-25.54.32-38.23-1.02-5.35-.57-10.63-1.39-15.91-2.37-2.59-.48-5.22-.82-7.82-1.22l-6.47-1.01c-.75-.12-1.51-.24-2.26-.35-.19-.03-.83-.02-.98-.15.21.19.09-.13.11-.29.05-.36,0-.76-.01-1.12-.02-1.41-.04-2.83-.05-4.24-.06-4.52-.12-9.05-.2-13.57-.15-9.58-.26-19.16-.65-28.73-.65-16.11-2.16-32.17-2.25-48.31-.05-8.49.29-16.99,1.21-25.44.88-8.05,2.1-16.13,4.63-23.84,3.26-9.94,8.67-19.3,16.63-26.2,3.79-3.29,8.21-6.17,13.01-7.73.21-.07-.08.02.16-.05.07-.02.14-.04.21-.06.06-.02.12-.03.18-.05.84-.21.73-.66-.12-.45h0Z"/>
    <path class="cls-4" d="M440.39,518.32c-15.7-.51-30.99-5.17-45.06-12-14.13-6.86-27.2-15.92-38.97-26.29-10.23-9.01-19.71-19.13-27.32-30.48-7.5-11.18-14.72-23.08-19.15-35.86-.98-2.81-1.82-5.7-2.27-8.65-.12-.78-.21-1.62-.23-2.21,0-.32.09-.79.01-1.1,0-.04,0-.1.01-.14l-.9.82c9.09-3.27,18.18-6.53,27.27-9.8,1.3-.47,2.6-.93,3.9-1.4l-1.28-.44c.86,3.3,1.98,6.54,3.13,9.75,2.89,8.11,6.33,16.03,10.23,23.71,5.23,10.29,11.34,20.16,18.48,29.24,8.02,10.19,17.38,19.41,28.11,26.72,11.7,7.97,24.95,13.48,38.89,15.95,1.86.33,3.72.6,5.59.83,1.05.13,2.22-1.38.76-1.55-14.2-1.72-27.84-6.56-39.97-14.13-11.03-6.88-20.69-15.78-28.97-25.77-7.43-8.96-13.8-18.78-19.25-29.06-4.18-7.87-7.83-16.03-10.92-24.39-.98-2.64-1.9-5.31-2.75-8-.38-1.21-.63-2.54-1.1-3.72-.02-.05-.03-.11-.04-.17-.13-.49-.89-.58-1.28-.44-9.09,3.27-18.18,6.53-27.27,9.8-1.3.47-2.6.93-3.9,1.4-.38.14-.84.36-.9.82-.12.81-.02,1.67.06,2.48.24,2.51.86,4.99,1.59,7.4,3.58,11.84,9.97,22.88,16.55,33.27,7.65,12.08,16.73,22.92,27.2,32.67,11.54,10.75,24.4,20.19,38.34,27.58,13.93,7.39,29.14,12.84,44.91,14.34,1.92.18,3.84.3,5.76.36.48.02,1.23-.13,1.42-.66.17-.47-.15-.88-.66-.89h0Z"/>
    <path class="cls-4" d="M539.82,469.47c2.65,6.02,3.76,13.13,3.42,19.66-.31,5.94-2.04,11.74-5.44,16.66-4.03,5.83-10.15,10.69-16.46,13.85-4.66,2.34-9.67,3.72-14.85,4.24-1.17.12-1.71,1.64-.22,1.49,12.08-1.23,23.04-7.15,31.11-16.2,7.91-8.88,9.45-21.08,7.02-32.38-.57-2.67-1.3-5.39-2.41-7.89-.4-.91-2.55-.27-2.17.58h0Z"/>
    <path class="cls-4" d="M509.3,502.7c4.26-.27,8.5-1.53,11.75-4.39,2.63-2.31,4.31-5.43,5.27-8.76,1.4-4.86,1.42-10.23.58-15.2-.38-2.23-1.17-4.42-1.77-6.59-.26-.94-2.43-.36-2.17.58,1,3.63,2.01,6.97,2.21,10.74.31,5.81-.44,12.45-4.34,17.05-2.86,3.39-7,4.81-11.32,5.08-1.19.07-1.71,1.58-.22,1.49h0Z"/>
    <path class="cls-4" d="M440.13,496.5c.08,1.57.16,3.14.24,4.71.22,4.28.44,8.55.66,12.83.33,6.32.65,12.65.98,18.97.4,7.76.8,15.51,1.2,23.27.44,8.46.88,16.91,1.31,25.37s.88,17.07,1.33,25.61c.41,7.96.82,15.92,1.24,23.88.35,6.73.7,13.46,1.04,20.18.25,4.84.5,9.68.75,14.52.08,1.51.16,3.03.23,4.54.04.74-.05,1.63.12,2.35.02.09.01.21.02.3,0,.12.33.12.37.12,7.72.38,15.43.75,23.15,1.13,1.09.05,2.19.11,3.28.16.33.02,1.83-.21,1.8-.7-.09-1.55-.18-3.09-.27-4.64-.24-4.21-.49-8.42-.73-12.63-.36-6.26-.72-12.53-1.09-18.79-.44-7.61-.88-15.22-1.32-22.82-.48-8.33-.96-16.66-1.44-25-.49-8.41-.97-16.82-1.46-25.23-.45-7.84-.91-15.69-1.36-23.53-.38-6.66-.77-13.32-1.15-19.98-.28-4.77-.55-9.53-.83-14.3-.09-1.48-.17-2.97-.26-4.45-.04-.73.04-1.62-.13-2.33-.02-.09-.01-.2-.02-.29-.04-.07-.1-.11-.19-.11-7.46-1.12-14.91-2.24-22.37-3.36-1.05-.16-2.1-.31-3.14-.47-.48-.07-1.08.08-1.51.29-.15.07-.77.43-.28.5,7.22,1.08,14.44,2.17,21.66,3.25,1.21.18,2.41.39,3.63.54.23.03.09-.18.05.15-.11.84.11,1.86.16,2.71.26,4.44.51,8.89.77,13.33.41,7.15.83,14.31,1.24,21.46.52,8.93,1.03,17.86,1.55,26.79.56,9.65,1.12,19.31,1.67,28.96.55,9.44,1.09,18.87,1.64,28.31.48,8.25.95,16.49,1.43,24.74.35,6.08.7,12.16,1.05,18.25.11,1.94.22,3.88.34,5.81.06.99.02,2.05.18,3.03.02.12.01.26.02.38l1.8-.7c-7.72-.38-15.43-.75-23.15-1.13-1.09-.05-2.19-.11-3.28-.16l.37.12c-.08-1.57-.16-3.14-.24-4.71-.22-4.28-.44-8.55-.66-12.83-.33-6.32-.65-12.65-.98-18.97-.4-7.76-.8-15.51-1.2-23.27-.44-8.46-.88-16.91-1.31-25.37-.44-8.54-.88-17.07-1.33-25.61-.41-7.96-.82-15.92-1.24-23.88-.35-6.73-.7-13.46-1.04-20.18-.25-4.84-.5-9.68-.75-14.52-.08-1.51-.16-3.03-.23-4.54-.04-.74.05-1.63-.12-2.35-.02-.09-.01-.21-.02-.3-.02-.31-2.2.03-2.17.58Z"/>
    <path class="cls-4" d="M508.02,501.71c-.29,1.54-.58,3.08-.87,4.62-.78,4.19-1.57,8.38-2.35,12.57-1.15,6.16-2.31,12.33-3.46,18.49l-4.24,22.67c-1.55,8.28-3.1,16.56-4.65,24.84-1.56,8.36-3.13,16.71-4.69,25.07-1.45,7.76-2.9,15.51-4.36,23.27l-3.7,19.77-2.66,14.21c-.41,2.19-1.1,4.5-1.26,6.73,0,.09-.04.19-.05.29.72-.16,1.44-.33,2.16-.49-.11-2.08-.22-4.16-.32-6.23l-.84-16.22c-.39-7.49-.78-14.98-1.17-22.47-.43-8.33-.87-16.67-1.3-25-.41-7.93-.83-15.87-1.24-23.8-.33-6.29-.65-12.58-.98-18.87-.18-3.41-.35-6.81-.53-10.22-.03-.61-.07-.73.04-1.13.51-1.9,1.02-3.81,1.53-5.71,1.99-7.45,3.98-14.91,5.97-22.36,1.58-5.9,3.15-11.8,4.73-17.7l.25-.93c-.52.2-1.03.41-1.55.61,7.62-.52,15.25-1.04,22.87-1.56,1.09-.07,2.19-.15,3.28-.22.55-.04,2.37-.92.95-.83-7.62.52-15.25,1.04-22.87,1.56-1.09.07-2.19.15-3.28.22-.29.02-1.44.21-1.55.61-1.15,4.31-2.3,8.62-3.45,12.93-2.09,7.82-4.18,15.64-6.27,23.46-.74,2.77-1.48,5.54-2.22,8.31-.22.81-.59,1.7-.65,2.55-.06.73.08,1.53.12,2.27.09,1.71.18,3.42.27,5.13.29,5.67.59,11.33.88,17,.4,7.67.8,15.34,1.2,23.01.43,8.35.87,16.7,1.3,25.05.41,7.86.82,15.71,1.23,23.57.31,6.04.63,12.07.94,18.11.16,3,.14,6.07.47,9.05.01.14.01.27.02.41.02.37,2.08-.06,2.16-.49.29-1.54.58-3.08.87-4.62.78-4.19,1.57-8.38,2.35-12.57,1.15-6.16,2.31-12.33,3.46-18.49,1.41-7.56,2.83-15.11,4.24-22.67,1.55-8.28,3.1-16.56,4.65-24.84,1.56-8.36,3.13-16.71,4.69-25.07,1.45-7.76,2.9-15.51,4.36-23.27,1.23-6.59,2.47-13.18,3.7-19.77l2.66-14.21.83-4.42c.14-.74.41-1.56.43-2.31,0-.09.04-.19.05-.29.08-.44-2.04-.11-2.14.4Z"/>
    <path class="cls-15" d="M554.12,373.86c-12.72-4.68-43.84-6.76-51.41-3.61,0,0,10.6,16.03,40.11,26.88,29.5,10.85,35.57-.76,35.57-.76,0,0-8.06-16.56-24.27-22.51Z"/>
    <path class="cls-16" d="M516.83,368.86s15.62,4.28,27.7,8.72c12.08,4.44,26.73,11.3,26.73,11.3,0,0,5.46-8.86-16.43-16.92-21.89-8.05-38-3.1-38-3.1Z"/>
    <path class="cls-2" d="M544.11,397.79c-13.05-7.17-24.91-22.68-41.41-27.54,0,0-2.96,26.17,31.73,38.92,34.68,12.76,43.95-12.8,43.95-12.8-15.72-6.99-19.69,4.41-34.27,1.42Z"/>
    <path class="cls-2" d="M571.89,372.1c-7.07-3.25-12.78-2.02-15.94-3.18-3.17-1.16-6.71-5.8-14.21-7.9-7.02-1.97-42.41,5.12-40.03,8.61,2.38,3.48,29.55-1.29,51.48,6.78,21.93,8.07,21.11,21.09,25.19,19.98,4.07-1.11.13-21.23-6.5-24.27Z"/>
    <g>
      <path class="cls-9" d="M921.61,735.23s-20.55-20.07-36.13-24.64c0,0-36.69,66.51-85.51,73.58,0,0,33.94,18.96,40.24,40.42,0,0,90.33-56.46,81.67-87.51"/>
      <path class="cls-10" d="M922.28,734.93c-7.7-7.51-16.35-14.52-25.65-19.92-3.39-1.97-6.94-3.73-10.71-4.85-.35-.11-.93.05-1.11.39-4.36,7.91-9.62,15.41-15.07,22.59-11.1,14.65-24.05,28.44-39.54,38.5-9.13,5.93-19.3,10.48-30.13,12.08-.28.04-1.24.52-.65.84,4.02,2.25,7.88,4.84,11.62,7.52,7.62,5.45,14.94,11.61,20.81,18.95,3.29,4.12,6.13,8.68,7.65,13.76.14.47.92.25,1.19.07,3.06-1.91,6.07-3.92,9.06-5.94,7.24-4.89,14.35-9.96,21.3-15.25,8.61-6.54,17.01-13.4,24.91-20.78,7.4-6.91,14.57-14.32,20.19-22.78,4.01-6.03,7.85-13.44,6.93-20.93-.1-.78-.25-1.54-.46-2.3-.16-.58-1.61-.19-1.45.39,1.94,7.08-1.29,14.46-4.91,20.43-5.13,8.45-12.03,15.8-19.12,22.62-7.78,7.49-16.11,14.4-24.66,21-7.11,5.48-14.39,10.74-21.81,15.8-2.41,1.64-4.83,3.27-7.28,4.86-.76.49-1.52.99-2.28,1.48-.37.24-.89.46-1.2.76-.04.04-.11.07-.16.1l1.19.07c-2.74-9.16-9.49-16.76-16.39-23.1-6.08-5.59-12.76-10.53-19.74-14.93-1.4-.89-2.82-1.76-4.27-2.58l-.65.84c19.51-2.88,36.52-14.56,50.49-27.93,11.7-11.19,21.86-24.05,30.64-37.63,1.79-2.76,3.55-5.56,5.15-8.44l-1.11.39c6.91,2.06,13.19,6.16,18.99,10.36,4.95,3.59,9.68,7.5,14.2,11.62.91.83,1.82,1.67,2.7,2.53.41.4,1.78-.16,1.34-.6h0Z"/>
    </g>
    <path class="cls-10" d="M625.64,967.82c8.04,6.11,17.39,10.07,27.31,11.97,4.78.91,9.63,1.37,14.49,1.45.64.01,1.51-.94.53-.96-13.05-.21-26.22-3.25-37.25-10.43-1.35-.88-2.66-1.83-3.95-2.81-.45-.34-1.76.31-1.13.78h0Z"/>
    <path class="cls-10" d="M663.45,956.43c-8.44.97-17.56-.09-25.59-2.73-3.78-1.24-7.38-2.94-10.67-5.17-.47-.32-1.77.35-1.13.78,9.9,6.7,22.52,8.75,34.28,8.28.99-.04,1.98-.09,2.96-.2.76-.09,1.15-1.07.16-.95h0Z"/>
    <circle class="cls-5" cx="582.21" cy="584.21" r="581.59"/>
    <circle class="cls-5" cx="583.06" cy="585.53" r="581.59"/>
    <path class="cls-1" d="M920.55,842.98c-15.65,8.76-36.89,20.19-39.99,19.5-3.1-.7-24.47-2.24-43.17-3.52-9.55-.23-17.41-7.68-17.56-16.62-.04-2.33,44.06-11.95,37.84-30.75l-39.09.64c-12.55,1.92-24.73,5.35-36.23,10.19-13.87,6.85-45.54,41.67-45.54,41.67l-49.83-.26,8.66,79.9,48.69-8.41,48.08,12.16s90.96,3.65,101.68-3.28c10.72-6.93,22.2-31.86,22.2-31.86,15.7-6.77,16.48-29.42,16.48-29.42,21.63-19.28,2.61-23.52,2.61-23.52.91-.48,1.64-1.2,2.11-2.07,5.24-9.39-7.65-19.65-16.94-14.35Z"/>
    <path class="cls-19" d="M933.35,858.41c-2.28,1.5-4.46,3.13-6.56,4.88-2.1,1.76-3.99,3.72-5.99,5.59-3.77,3.52-7.91,6.64-12.31,9.33-4.41,2.69-9.1,4.92-13.95,6.69-2.74,1-5.63,1.44-8.5,1.86s-5.8.7-8.71.86c-6.82.36-13.66-.02-20.42-1.04-.6-.09-1.59.14-2.05.55-.42.37-.41.64.2.73,12.37,1.87,25.04,1.52,37.27-1.13,2.66-.58,5.28-1.76,7.77-2.84s4.93-2.25,7.3-3.56c4.71-2.6,9.16-5.65,13.27-9.13,2.35-1.99,4.46-4.22,6.73-6.29,2.56-2.33,5.31-4.42,8.19-6.33.51-.34.3-.63-.2-.73-.63-.13-1.53.21-2.05.55h0Z"/>
    <path class="cls-19" d="M858.94,911.91c7.45,1.27,15.27,2.1,22.83,1.64,3.55-.22,7.1-.8,10.53-1.74,3.49-.95,6.68-2.59,9.82-4.36,7.03-3.97,13.4-9.11,19.89-13.9,1.21-.89,2.46-1.7,3.68-2.57,3.11-2.2,5.94-4.79,8.42-7.68,1.18-1.37-1.59-1.74-2.41-.79-2.16,2.5-4.56,4.76-7.22,6.72-1.23.9-2.52,1.7-3.75,2.6-2.67,1.97-5.34,3.94-8.01,5.92-2.88,2.13-5.73,4.3-8.76,6.22-2.9,1.83-5.93,3.49-9.07,4.9s-7.01,2.07-10.51,2.45c-3.98.43-7.97.26-11.96.02-4.18-.25-8.34-.75-12.47-1.46-1.38-.24-2.96,1.7-1.02,2.03h0Z"/>
    <path class="cls-19" d="M860.24,930.72c.02,1.29,2.69,1.63,3.55,1.78,3.49.61,7.09.69,10.63.78,2.81.07,5.63.07,8.44.06,3.27-.02,6.64.16,9.83-.68,3.14-.82,6.07-2.56,8.79-4.28,2.73-1.73,5.37-3.62,7.82-5.73,2.53-2.19,4.94-4.61,6.86-7.35.39-.56,2.38-3.08,1.49-3.83-.8-.66-3.5.47-2.69,1.14-.04-.04,0-.22-.07.06-.05.19-.12.37-.2.54-.36.8-.89,1.55-1.41,2.26-1.58,2.18-3.47,4.12-5.46,5.92-2.18,1.97-4.52,3.7-6.97,5.32s-5.24,3.48-8.13,4.34-5.85.59-8.74.61c-2.53.02-5.06.01-7.59-.04-3.28-.06-6.6-.13-9.85-.57-.56-.08-1.12-.16-1.68-.28-.22-.05-.44-.1-.66-.16-.23-.06-.35-.1-.37-.11-.13-.05-.25-.1-.38-.17-.2-.1-.21-.14-.18-.11-.19-.18-.13.02-.13-.28-.02-.93-2.92-.37-2.9.78h0Z"/>
    <path class="cls-11" d="M114.52,579.78c-6.46-73.3,62.15-150.16,115.04-139.66,26.77,5.32,25.07,58.86,25.07,58.86,44.21,92.4,105.26,355.27,116.05,406.84-8.72,4.24-17.48.8-25.09,6.81-26.62,21.03-43.67,12.02-56.28,43.35-6.26,15.54-10.38,39.75-11.99,56.66-37.06-29.09-54.77-87.87-70.34-130.27-23.44-63.81-45.12-88.75-62.32-154.39-13.33-50.89-25.49-95.58-30.13-148.2Z"/>
    <path class="cls-11" d="M338.78,1052.28c-16.1-.78-34.32-21.87-48.62-27.78-.61-2.22-.58-2.23-1.08-4.48-7.24-32.9-4.58-68.23,5.48-100.26,6.94-22.13,5.74-41.43,21.85-58.51,2.43,3.87,8.62,14.57,8.62,14.57l406.71-14.01s11.15,105.62,11.15,105.62c-131.19,53.7-253.36,63.95-393.83,83.47-3.43.48-6.86.95-10.29,1.37Z"/>
    <path class="cls-4" d="M132.8,674.43c2.44,10.42,5.04,20.81,7.67,31.18,6.42,25.35,13.2,50.6,20.37,75.75,8.96,31.44,18.5,62.72,29.11,93.64,9.88,28.78,20.52,57.49,33.88,84.86,5.15,10.55,10.74,20.96,17.4,30.65,4.77,6.95,10.2,13.96,17.26,18.71,7.4,4.98,16.07,7.97,24.63,10.24,11.25,2.98,22.83,4.71,34.39,5.93,29.18,3.08,58.7,2.97,87.99,1.98,31.83-1.08,63.6-3.46,95.3-6.53,26.63-2.58,53.2-5.66,79.72-9.18,13.96-1.85,27.92-3.8,41.84-5.96.63-.1,1.25-.19,1.88-.29,1.25-.2,2.51-1.61.48-1.29-9.63,1.54-19.3,2.91-28.96,4.26-23.98,3.34-48.01,6.3-72.08,8.89-30.99,3.33-62.06,6.04-93.18,7.7-30.55,1.64-61.26,2.42-91.82.64-12.76-.74-25.52-1.94-38.11-4.13-10.13-1.76-20.32-4.14-29.8-8.2-7.43-3.19-13.65-7.6-19-13.66-6.93-7.86-12.47-16.92-17.53-26.06-13.84-25.03-24.36-51.92-34.12-78.75-11.17-30.71-21.04-61.89-30.29-93.23-8.01-27.16-15.53-54.47-22.64-81.88-3.8-14.64-7.51-29.31-11.01-44.03-.16-.67-.32-1.35-.48-2.02-.18-.78-3.09-.05-2.9.78h0Z"/>
    <path class="cls-4" d="M636.5,863.46c-2.39.03-4.79.06-7.18.09-6.51.09-13.03.17-19.54.26l-28.9.38c-11.76.15-23.51.31-35.27.46-12.88.17-25.76.34-38.63.51-13,.17-26,.34-39,.51-12.12.16-24.25.32-36.37.48l-30.74.41c-7.37.1-14.74.19-22.11.29-2.29.03-4.59.06-6.88.09-1.17.02-2.44-.11-3.6.05-.15.02-.31,0-.45,0l1.33.73c-.96-3.49-1.91-6.99-2.85-10.49-2.5-9.22-4.98-18.44-7.46-27.67-3.49-13.05-6.96-26.11-10.4-39.18-3.94-14.99-7.84-30-11.68-45.02-3.83-14.97-7.59-29.95-11.25-44.97-3.22-13.2-6.36-26.42-9.28-39.7-2.46-11.19-4.6-22.41-6.5-33.71-3.03-18.03-5.98-36.09-9.93-53.96s-8.23-34.11-15.57-49.94c-5.56-12.01-13.22-24.4-25.28-30.77-2.59-1.37-5.31-2.36-8.15-3.06-1.48-.36-2.88,1.74-.98,2.2,12.77,3.12,21.61,14.05,27.75,25.02,8.22,14.69,13.06,31.22,17.04,47.49,4.36,17.78,7.51,35.82,10.54,53.86,2.07,12.31,4.1,24.61,6.69,36.82,2.68,12.61,5.61,25.17,8.62,37.71,3.53,14.72,7.19,29.41,10.91,44.08,3.82,15.05,7.7,30.08,11.63,45.1,3.56,13.6,7.15,27.19,10.78,40.78,2.72,10.18,5.45,20.36,8.2,30.53,1.35,4.99,2.63,10.01,4.07,14.97.06.22.12.44.18.67.16.58.82.73,1.33.73,2.39-.03,4.79-.06,7.18-.09,6.51-.09,13.03-.17,19.54-.26l28.9-.38c11.76-.15,23.51-.31,35.27-.46,12.88-.17,25.76-.34,38.63-.51,13-.17,26-.34,39-.51,12.12-.16,24.25-.32,36.37-.48,10.25-.14,20.49-.27,30.74-.41,7.37-.1,14.74-.19,22.11-.29,3.49-.05,7,.02,10.49-.14.15,0,.3,0,.45,0,1.69-.02,2.19-2.25.23-2.23h0Z"/>
    <path class="cls-4" d="M373,863.97c-15.48,3.01-29.31,12.86-37.59,26.23-2.35,3.79-4.18,7.85-5.54,12.09-.22.7.88.93,1.33.9.72-.05,1.38-.45,1.6-1.14,4.52-14.13,15.29-26.03,28.7-32.29,3.83-1.79,7.86-3.08,12.01-3.89.55-.11,1.37-.68,1.19-1.34-.19-.71-1.16-.67-1.7-.56h0Z"/>
    <path class="cls-1" d="M933.68,1176.48c2.06-16.87-.19-34.39-4.95-51.55-4.1-14.76,3.54-38.62-3.26-52.84l-199.5-70.94-34.34,34.2s165.74,141.54,233.83,143.4c2.15.06,4.89-.45,8.11-1.47.04-.27.08-.54.11-.81Z"/>
  </g>
  <path class="cls-4" d="M730.31,862.2c.37,3.5.74,7,1.11,10.5.89,8.4,1.77,16.81,2.66,25.21,1.07,10.17,2.15,20.34,3.22,30.51.93,8.79,1.86,17.59,2.78,26.38.31,2.91.61,5.82.92,8.73.14,1.28.05,2.87.43,4.11.02.06.01.13.02.18l1.25-1.14c-6.8,2.07-13.61,4.14-20.41,6.21-.97.3-1.94.59-2.92.89.55.12,1.1.24,1.65.37-.42-3.74-.83-7.48-1.25-11.22-1-8.98-2-17.96-3-26.94-1.21-10.86-2.42-21.72-3.62-32.58-1.04-9.38-2.09-18.77-3.13-28.15l-1.02-9.21c-.16-1.41-.12-3.05-.49-4.42-.02-.06-.01-.13-.02-.2l-2.01,1.24h24.72c.59,0,1.62-.19,1.91-.8s-.24-.89-.8-.89h-24.72c-.65,0-2.11.32-2.01,1.24.42,3.74.83,7.48,1.25,11.22,1,8.98,2,17.96,3,26.94,1.21,10.86,2.42,21.72,3.62,32.58,1.04,9.38,2.09,18.77,3.13,28.15.34,3.07.68,6.14,1.02,9.21.16,1.4.1,3.06.49,4.42.02.06.01.13.02.2.07.62,1.33.47,1.65.37,6.8-2.07,13.61-4.14,20.41-6.21.97-.3,1.94-.59,2.92-.89.5-.15,1.32-.49,1.25-1.14-.37-3.5-.74-7-1.11-10.5-.89-8.4-1.77-16.81-2.66-25.21-1.07-10.17-2.15-20.34-3.22-30.51-.93-8.79-1.86-17.59-2.78-26.38-.31-2.91-.61-5.82-.92-8.73-.14-1.3-.07-2.85-.43-4.11-.02-.06-.01-.13-.02-.18-.11-1-3.02-.36-2.9.78Z"/>
  <path class="cls-1" d="M605.92,924.12c8.31,11.36,19.72,26.45,22.16,26.97,2.44.52,18.19,6.4,31.94,11.59,6.89,2.95,14.93.21,17.95-6.13.79-1.65-27.53-22.91-16.95-34.29l27.68,13.22c8.33,5.47,15.89,11.89,22.51,19.1,7.66,9.42,18.88,44.59,18.88,44.59l35.63,16.09-32.27,54.17-31.99-21.9-38.27-7.03s-66.07-27.1-71.46-35.54c-5.39-8.44-5.44-29.98-5.44-29.98-8.99-9.96-2.15-26.37-2.15-26.37-9.13-20.82,5.82-17.63,5.82-17.63-.49-.64-.78-1.39-.83-2.17-.67-8.41,11.87-11.52,16.77-4.7Z"/>
  <path class="cls-19" d="M589.47,931.03c1.27,2.04,2.42,4.15,3.41,6.34.93,2.06,1.64,4.2,2.55,6.26,1.73,3.95,3.88,7.7,6.4,11.2,2.49,3.47,5.37,7.19,8.77,9.83,3.57,2.78,7.54,5.13,11.57,7.15,4.55,2.29,9.29,4.13,14.19,5.53.63.18,1.47-.05,2.03-.35.27-.15.98-.66.33-.85-8.59-2.46-16.73-6.31-24.01-11.5-3.56-2.54-6.53-6.01-9.16-9.49-2.58-3.41-4.81-7.11-6.62-10.98-1.07-2.29-1.86-4.67-2.87-6.98-1.05-2.41-2.3-4.72-3.69-6.95-.48-.77-3.19.31-2.9.78h0Z"/>
  <path class="cls-19" d="M628.17,991.57c-5.36-1.43-10.84-3.23-15.78-5.78-2.22-1.15-4.34-2.5-6.31-4.05-2.18-1.71-3.88-3.74-5.53-5.96-3.8-5.09-6.66-10.85-9.72-16.39-.47-.85-.94-1.69-1.45-2.51-1.69-2.72-2.96-5.64-3.86-8.71-.37-1.28-3.27-.49-2.9.78,1.15,3.95,3.12,7.31,5.09,10.87,1.36,2.46,2.72,4.92,4.08,7.38,1.66,3,3.32,5.98,5.32,8.77,1.54,2.15,3.15,4.33,5.14,6.08,1.98,1.74,4.14,3.27,6.43,4.58,5.48,3.13,11.73,5.22,17.81,6.84.69.18,1.57.02,2.05-.55.41-.48.31-1.16-.36-1.34h0Z"/>
  <path class="cls-19" d="M618.04,1005.61c.06-.11.9-.43,1.01-.49-.09.04.28.02-.02,0-.34-.03.1.03-.28-.03-.84-.14-1.67-.39-2.48-.66-3.09-1.03-6.09-2.37-9.05-3.71-2.22-1-4.43-2.01-6.61-3.09-2.08-1.03-3.57-2.52-4.96-4.34-1.16-1.52-2.35-3.11-3.14-4.86-.6-1.35-1.09-2.75-1.57-4.15-1.09-3.2-1.97-6.5-3.17-9.67-.39-1.03-3.26-.18-2.9.78,1.17,3.12,2.04,6.36,3.12,9.52.52,1.54,1.05,3.1,1.74,4.58.93,1.98,2.31,3.74,3.62,5.47,1.5,1.98,3.38,3.35,5.61,4.41,2.43,1.16,4.87,2.3,7.34,3.39,2.99,1.32,6.02,2.66,9.16,3.57,1.39.4,4.42,1.12,5.28-.63.62-1.26-2.27-.96-2.7-.08h0Z"/>
  <path class="cls-19" d="M618.45,1022.59c6.14,5.1,14.09,6.73,21.36,9.57,7.61,2.98,14.89,6.75,22.65,9.36,4.4,1.48,8.92,2.51,13.55,2.83.59.04,1.63-.21,1.91-.81s-.25-.89-.8-.92c-7.98-.54-15.48-3.48-22.74-6.65-3.68-1.6-7.33-3.27-11.05-4.78-3.49-1.41-7.07-2.56-10.62-3.81-4.1-1.44-8.19-3.16-11.56-5.96-.82-.68-3.53.46-2.68,1.16h0Z"/>
</svg>