<?xml version="1.0" encoding="UTF-8"?>
<svg id="Layer_9" xmlns="http://www.w3.org/2000/svg" xmlns:xlink="http://www.w3.org/1999/xlink" version="1.1" viewBox="0 0 1163.4 1166.3">
  <!-- Generator: Adobe Illustrator 29.0.0, SVG Export Plug-In . SVG Version: 2.1.0 Build 186)  -->
  <defs>
    <style>
      .st0 {
        fill: none;
      }

      .st1 {
        fill: #815639;
      }

      .st2 {
        stroke: #000;
        stroke-miterlimit: 10;
        stroke-width: .2px;
      }

      .st3 {
        fill: #b8e0ee;
      }

      .st4 {
        fill: #f7ad1a;
      }

      .st5 {
        fill: #542c23;
      }

      .st6 {
        fill: #18536d;
      }

      .st7 {
        fill: #24170e;
      }

      .st8 {
        fill: #1b1312;
      }

      .st9 {
        fill: #cd8c2a;
      }

      .st10 {
        fill: #0d3a59;
      }

      .st11 {
        fill: #6b3825;
      }

      .st12 {
        fill: #131429;
      }

      .st13 {
        fill: #fff;
      }

      .st14 {
        fill: #082f43;
      }

      .st15 {
        fill: #141211;
      }

      .st16 {
        fill: #a4a4a4;
      }

      .st17 {
        fill: #3f261b;
      }

      .st18 {
        fill: #f0edf6;
      }

      .st19 {
        clip-path: url(#clippath);
      }

      .st20 {
        fill: #af6b4e;
      }

      .st21 {
        fill: #efebf5;
      }

      .st22 {
        fill: #4f2e25;
      }
    </style>
    <clipPath id="clippath">
      <path class="st0" d="M1163.3,582c0,321.2-260.4,581.6-581.6,581.6S.1,903.2.1,582,260.5.4,581.7.4s581.6,260.4,581.6,581.6h0Z"/>
    </clipPath>
  </defs>
  <g class="st19">
    <g>
      <circle class="st3" cx="583.3" cy="582.7" r="581.6"/>
      <path class="st20" d="M509.4,660.9c9.7-6.7,18.7-14.5,26.3-23.4,6.2,29.3,11.8,56,16.3,70.5,3.8,11.9,7.6,25.9,11.4,41.1-14.3,2.3-28.6,4.6-42.8,7-7.5,1.2-13.2,18.5-20.7,19.8-22.5-12.3-24-77.8-32.2-93.3-.1-.3-.3-.6-.4-.9,15.1-4.8,29.4-11.8,42.2-20.7h0Z"/>
      <path class="st20" d="M775.2,746.2c-9.1-6.3-17.5-13.6-24.7-21.9-5.8,27.5-11.1,52.5-15.2,66-3.6,11.2-7.1,24.3-10.7,38.5,13.4,2.2,26.8,4.3,40.1,6.5,7,1.2-2.7,31.7,4.3,32.9,31.1-19.3,37.6-87.3,45.2-101.8.1-.3.3-.5.4-.8-14.1-4.5-27.5-11.1-39.5-19.4h0Z"/>
      <g>
        <path d="M970.9,500.8c2.7-7.7,16.6-11.1,18.6-19,.5-1.9-1-3.6-2.6-3.8,1-2.9,2.5-6.3,4.3-9.1,3.9-5.8,15.3-9.8,15.3-9.8,0,0-1.9-12.8,3.5-14.2,5.5-1.4,17.1-.4,17.1-.4,0,0,9.3-7.8,18.5,0,0,0,8.8,0,10.6,11.6.4,2.5.4,5.6,0,9.4,0,0,4.3.1,10.6,7.4,2.7,3.1,5.6,13.4,3.3,22l.2,1.9c-3,11.2-8.2,18.1-17.3,19,0,.1-5.9,22.3-27.3,20.8-18.6-1.3-23.9-10.8-23.9-10.8,0,0-8.6,4.5-13,3.3-4.7-1.3-8.2-5.2-10.2-9.7,1.3-4.7-9-13.9-7.7-18.6h0Z"/>
        <path d="M971.1,500.8c1.4-3.8,5.1-6.3,8.4-8.5,3.1-2.1,6.6-4.2,8.8-7.4.9-1.3,2-3.3,1.4-4.9-.4-1-1.1-1.3-1.9-1.9,0,0-.3,0-.3-.1-.3-.4.2-1,.3-1.4.3-.7.6-1.4.9-2.1,1.1-2.4,2.3-5,4.1-7,1.5-1.6,3.3-2.9,5.2-4,2.7-1.7,5.8-3.1,8.8-4.2,0,0,.2,0,.2-.2-.5-3.7-.8-8.5,1-11.9,1.5-2.7,4.8-2.7,7.6-2.8,3.2-.2,6.3,0,9.5.1,1,0,2.1.4,2.9-.1,2.2-1.5,4.6-2.7,7.3-3,2-.3,4.1-.1,6,.6,1.1.4,2.2.9,3.2,1.6.5.3,1.1,1,1.6,1.2.3.1.7,0,1,.1.8.1,1.6.4,2.3.7,7.6,3.3,7.9,13.1,7.2,20.1,0,0,0,.1.1.1,2.2,0,4.5,1.8,6.1,3,1.9,1.5,4,3.4,5.3,5.6,1.1,1.9,1.8,4.1,2.3,6.2.7,2.7,1,5.5.9,8.4,0,1.4-.1,2.7-.4,4.1-.2.9-.5,1.7-.4,2.6.2,2.3-.8,4.6-1.6,6.7-.8,2.1-1.8,4.2-3.1,6.1-2.9,4.2-7.1,6.9-12.3,7.4,0,0-.2,0-.2.1-1.6,5.9-5.3,11.7-10.1,15.5-4.6,3.7-10.3,5.4-16.2,5.1-6.5-.3-13.3-1.8-18.9-5.3-2.1-1.3-4.5-3.2-5.8-5.4,0,0-.2,0-.2,0-2,1.1-4.2,1.9-6.3,2.6-1.7.5-3.5,1-5.3.8-2-.1-4-1.2-5.6-2.4-1.7-1.3-3.2-3-4.3-4.8-.5-.9-1.3-1.9-1.3-2.9,0-.5,0-1,0-1.6-.5-2.8-2.5-5.3-4-7.7-1-1.6-2.1-3.1-2.9-4.8-.6-1.3-1.2-2.7-.8-4.1,0-.2-.3-.1-.4,0-.5,2,.8,4.2,1.8,5.9,1.4,2.5,3.2,4.8,4.5,7.3.6,1.1,1.2,2.2,1.4,3.5.1.5.1,1,0,1.5,0,.7.2,1.1.6,1.8,1.6,3,3.8,5.6,6.8,7.3,2.5,1.4,4.8,1.6,7.6,1,2.5-.5,5-1.5,7.3-2.6.3-.1.7-.2.9-.4.3-.2.2,0,0-.2.1.1.2.3.3.5.6.9,1.4,1.7,2.2,2.4,3.5,3.2,8,5.2,12.5,6.4,6.1,1.6,12.8,2.3,18.9.3,8-2.6,13.7-9.5,16.7-17.1.3-.7.4-1.8.9-2.4.3-.4.5-.2,1.1-.3,1.3-.2,2.6-.5,3.8-1,5.4-2.2,8.8-7.4,10.8-12.6.6-1.6,1.4-3.4,1.6-5.1.1-1-.2-1.9,0-2.9.8-3.8.8-7.7.1-11.5-.5-3-1.3-6.1-2.9-8.7s-4.3-5-6.9-6.6c-.9-.5-1.8-1-2.7-1.4-.4-.2-1.1-.2-1.5-.4,0,0-.2,0-.3,0,0,0,.2-1.2.2-1.3,0-.6,0-1.2.1-1.8,0-1.8,0-3.7-.2-5.5-.6-4.9-2.9-9.8-7.7-11.7-.6-.2-1.2-.4-1.9-.5-.3,0-.8,0-1.1-.1s-.5-.4-.8-.6c-.9-.7-1.9-1.3-3-1.8-1.4-.6-3-1-4.6-1.1-2.7-.1-5.3.6-7.7,1.8-.8.4-1.5.8-2.2,1.3-.2.1-.3.3-.5.4-.2.2.3,0,0,0-1.9,0-3.9-.3-5.8-.3-3,0-6,0-8.9.3-1.9.2-3.7.6-4.8,2.3-1.2,1.8-1.4,4.2-1.5,6.4,0,1.8,0,3.6.2,5.4,0,.2,0,.4,0,.6,0,.3.2-.1,0,0-.4.3-1,.4-1.5.6-4.8,1.9-10.1,4.5-13.4,8.6-2.2,2.8-3.6,6.4-4.9,9.8,0,0,0,0,0,0,2.3.5,3,2.6,2.3,4.6-.4,1.1-1.1,2.1-1.9,3-1.8,2-4,3.6-6.2,5.1-3.8,2.6-8.6,5.4-10.3,9.9,0,.1.3.1.4,0h0Z"/>
      </g>
      <path class="st2" d="M838,472.6c13.8-10.9,15.7-29.5,13.2-45.9-2.4-15.7,8.3-40.4-10.7-38.8-.2,0,1.6-3.9,2.5-7.4.6,1,1.3,2,2,2.9,1.4,1.8,4.5-.1,3.3-2.1-1.9-3.4-3.7-7-5.1-10.6-2.5-6.2-4.1-12.9-4-19.6,0-6.1,1.5-12,4.3-17.3,41.5-61.4,96.8-50.5,129.8-47.5,66,6.1,101.2,71.9,83.7,139.4-18,69.2-64,92.7-130.2,93.5-28.3.4-67-21.4-89.3-46.2.2-.1.4-.3.6-.4h0Z"/>
      <path class="st13" d="M785.7,766.3c17.6,1.7,2.1-3.5,18.2,3.8,4.4,2,8.9,3.7,13.4,5.2,27-56.8,48.7-203.6,48.7-203.6-5.5,1.3-68,15.3-84.8,55-9.9,23.3-31.4,66.3-40,108.8,2.5,3.1,21.5,28.5,44.5,30.8h0Z"/>
      <path class="st6" d="M1049,1845.9c-6.7-39.6,25.3-216.1,8.5-317.4-21.5-129.9,27.4-275.7,41.3-330,28.8-112.5,21.1-188.3-14.1-235.7l-294,22.9-1.1,52.4c-14.8,58.7,17.3,287.5,25,445.9l49.4,346.2s37.2,12.2,65.9,1.5c0,0-1.2,20.2,6.7,19.9,43.7-1.7,50.8,10.6,112.3-5.7h0Z"/>
      <path class="st13" d="M792.3,670c1.1-52.5,14.2-70.3,14.2-70.3,14.5-6.4,41.6-21.8,59.1-28.3,2.6-1,11.1-5.7,11.4-5.2,8.7,14.2,24.8,31.2,43.3,33.1,6.6.7,2.7-13.7,8.9-13.9,21.1-.7,47.1-12,59.8-28l16.3,7.2,63,24.3-9.8,312.1,1.1,2.4c-34.5,13.3-69.2,26.3-105,35.7-41.8,11-85.8,17.4-129,10.7-9.9-1.5-25,.4-34.5-2.5,2.3-10.5,11.9-54,11.7-65-1.1-61-4.2-63.2-6.3-65.7"/>
      <path class="st20" d="M984.3,468s-12.4,50.3.6,84.7c1.8,4.8,5.2,4.3,5.2,4.3l-19.2,22.4c-4.4,5-20.1,19.9-37.2,26.4-31.5,12-39,2.1-47.5-.2-7-1.9-11.3-15.7-11.3-26l1.6-13.1s4.8,0,6.1-5.9c1.3-5.9-3-50.6-3-50.6"/>
      <path class="st13" d="M809.4,882.1s-26.5,98.8-35,121.2c0,0,118.5,41,225.7,25.5,107.2-15.5,97.5-25.6,97.5-25.6l-38.5-104-3.2-45.8-233.4,18.5"/>
      <path class="st20" d="M1147.2,778.1c-4.2,2-8.4,3.8-12.7,5.5-6.3,2.5-12.7,4.7-19.1,6.8-3.8,1.2-7.5,2.5-11.3,3.4-6.4,1.5-12.9,2.4-19.4,2.9-8.1.6-16.1.6-24.2.5l14,65,7.8,247.9,58.4,8.5c14.8-159.2,20-204.3,19.4-253.1-.2-13.2-5.6-48.1-12.9-87.5h0Z"/>
      <path class="st16" d="M786.2,668.3c1.8,3.7,2.8,7.9,3.5,12,1,5.9,1,11.7-.3,17.6-1.3,5.8-3,11.6-4.4,17.4-2,7.9-3.7,15.8-4.9,23.8-1.3,8.5-2,17-2,25.5.8-.3,1.5-.7,2.3-1-2.3-.4-4.7-1-6.9-1.8-3.8-1.3-7.9-3-10.5-6.2-.7-.8-3.5.2-2.7,1.2,2.7,3.3,7,5.2,10.9,6.5,2.4.8,4.9,1.5,7.5,2,.6,0,2.3,0,2.3-1,0-15.9,2.5-31.5,6.2-46.8,1.5-6.2,3.2-12.3,4.7-18.4.5-2,1-3.9,1.2-5.9.5-3.5.3-7.1-.1-10.5-.6-5-1.7-10.4-3.9-15-.5-1.1-3.4-.2-2.9.8h0Z"/>
      <path class="st20" d="M249.5,317.8s11.1,61,.3,96.6c-1.7,5.7-30,21.1-30,21.1l8.4,8.8c7.2,7.6,20.9,13.6,30.8,17.2,48.9,18.1,117.3,20.8,138.4-9.6l-13.5-21.9-9.9-5.1c-1.7-6.8,4.8-67,4.8-67"/>
      <path class="st14" d="M110.5,992.5l-3.5,83.2c-1,55.4,11,93.4,26.3,146.7l32.5,244.9s-.2,97.9-10,178.8c-8.6,70.1,13.6,225.7,13.6,225.7l24.3,4.6c22,4.2,44.4,5,66.6,2.4l47.7-5.5,45-444.6,33-273.7,45.2-152.7-320.7-9.8h0Z"/>
      <path class="st14" d="M489.5,992.5l-31.1,469.4c0,19.6-7.9,37.4-16.9,131.9l-17.1,161-6.2,99.6-13.8,2.4c-19,3.8-38.4,5-57.8,3.6l-42.4-1.7,47-857,138.3-9.3h0Z"/>
      <path d="M393.1,1119.3c-20.6,15.8-29.2,42.2-32.2,67-1.9,15.8-1.3,31.6-2,47.4-.9,18.8-1.7,37.6-2.5,56.4-1.4,30.9-2.8,61.8-4.2,92.7-1.3,28.1-2.5,56.1-3.8,84.2-.5,10.6-.6,21.2-1.5,31.8-1.1,12.8-2.6,25.5-3.9,38.2-2.7,26.7-5.5,53.4-8.2,80.1-3.2,31.7-6.5,63.4-9.7,95.2-2.8,27.8-5.7,55.7-8.5,83.5-1.5,15-3.1,30-4.6,45,0,.7-.1,1.4-.2,2.1,0,.5,1,.3,1.1,0,1.1-10.5,2.1-21,3.2-31.4,2.6-25.3,5.2-50.6,7.8-75.8,3.2-31.6,6.5-63.2,9.7-94.8,2.9-28.6,5.9-57.3,8.8-85.9,1.8-17.2,3.5-34.5,5.3-51.8.7-6.9.9-13.9,1.2-20.9,1.1-24.6,2.2-49.2,3.3-73.9,1.4-31.5,2.8-63,4.3-94.5,1.1-23.6,2.1-47.1,3.2-70.7,1.4-31.2-1-63.4,11.5-92.8,5.1-11.9,12.4-22.8,22.8-30.8.6-.4-.3-.7-.7-.4h0Z"/>
      <path class="st13" d="M379.8,447.1c-2.3,8.7-7.7,21-24.6,23.6-25.3,3.8-50.8,2.9-81.7-20.7,0,0-21.7-19.2-25-33.4l-18.7,8.2c-11.8,5.2-34,14.2-56,24.4-23.4,8.4-63.7,29.2-79.6,66.1-14.6,40.5-23.2,110.1-30.9,178.4,19.2,7.2,31.1,14.7,51.7,15.9,1.1,0,3,2.9,4.4,3-5.4,40.6-13.9,120.4-16.3,140.7-6.2,52.9-17.3,128-13,161.9,4.3,33.8,198,51.4,269.5,43.7,71.5-7.7,130.2-11.5,136.7-31.7,1-3.2.3-63.5-2.2-71.3-3.3-37-.8-46.8-5-93.5l4.5-171.4c2.9,2.8,20.3,2.1,29.9.4,14.7-2.6,30.2-9.7,35.3-13.5-14.9-53.3-30.3-122.7-44.6-162.4-15.6-43.3-78.5-62.3-114.3-78.6l-20.6-9.7s-2.8-1.6-2.2.4"/>
      <path class="st1" d="M247.1,342.7c0,.1,0,.2,0,.4,0-.1,0-.3,0-.4Z"/>
      <path class="st20" d="M335.4,414.3l41.5-2.4,20.6-5.1c2.1,0,11.8-21.5,13.2-24.2,4.3-8.5,10.1-19.9,12.7-29,2.7-9.8,7.9-20.2,9.1-32,.9-8.6.4-12.5-4.5-26.4-1.2-3.5-1.4-7.1-.5-10.9,1.7-8.1,2.2-17.5,4.2-28.4.2-.9,1.1-5,.7-5.9,0,0-2-45.1-10.4-61-8.5-15.9-17.8-23.1-29.6-25.9-11.9-2.8-46.8,0-46.8,0l-48.4-6-40.6,21.1-19.9,50.3,4.1,57.8,7.2,51.6"/>
      <path class="st22" d="M356.3,399.5c-.3.2-22.2-2.1-22.7-2.2l-11.4-5.1s0,0,0,0c-1,.4-2.2.5-3.6,0-7.1-2.3-13.4-6.1-19.4-10.5-5.4-3.9-11.8-16.1-17.9-18.8-2.9-1.3-1.9-2.2-4.4-4,.2.6.2,4.5.4,5.1,11.3,14.1,26,41.5,49.4,51.2,1.1.3,4.7,1.2,14.3,1.9,12.5.8,20.8,1.2,33-.7,0-8.8-.7-19.3-.8-28.1-4.5,0-4.5,2.9-16.9,11.1h0Z"/>
      <path d="M327.6,275.5c-2.7-1.4-5.8-.2-7.5,1.4-.4.4-1.5,1.4-2,3.1-.6,2.2.2,4.8,1.6,6.3,1.9,2,5,2.4,7.4,1.3,3.2-1.5,4.3-5.4,3.5-8.3-.1-.5-.9-2.7-3-3.8"/>
      <path d="M407.1,276.9c2.6-1.4,5.8-.2,7.5,1.3.4.4,1.5,1.4,2,3.1.7,2.2-.2,4.8-1.6,6.3-1.9,2.1-5,2.4-7.4,1.3-3.2-1.5-4.3-5.4-3.5-8.3.1-.5.8-2.7,3-3.8"/>
      <path d="M391.6,287s10.7-10.7,18.5-11.4c11.4-1.1,14.4,1.5,18.4,6.7,0,0-7.5-5.5-15.5-4.5-7.7.9-21.4,9.2-21.4,9.2h0Z"/>
      <path d="M354.5,284.3s-16-10.1-23.9-10.3c-11.5-.3-25.1,6.5-28.8,12,0,0,18-10,26.1-9.6,7.7.4,26.6,7.8,26.6,7.8h0Z"/>
      <path d="M357,247.5c1.5.7,1,1.9.9,4.6,0,.9,0,2.2,0,3.6,0,2.6-2.5,4.6-5,3.7-4.5-1.5-8.5-3-11.6-3.6-8.4-1.5-17-3.6-25.5-2.3-4.1.6-7.6,1.7-11,3.8-1.1.7-4,3.5-5.6,2.8-.7-.3.4-3.7.5-4,2.2-6.8,7.9-9.6,15-11.2,14.3-3.3,27.8.6,42.3,2.5"/>
      <path d="M433.7,249.3s-4.3-1-4.3-1c-9.2-2.1-18.4-2.1-27.6-.8-4.7.6-8,4.8-7.8,9.5h0c0,1-.3,3.9.3,4.6.1.1.3.2.5.3,1.9.8,4,.7,5.9.3,2.4-.5,4.6-1.8,7-2.4,6.9-1.8,14.1-3.8,21.2-2.8.6,0,3.6.6,4.1.7,2.1-3.9,1.7-7.8.7-8.4h0Z"/>
      <g>
        <path d="M382.8,331.9c-3.4,1.8-8.5,1.4-11.9-.8-.8-.5-3.2,0-2.2.7,4.5,2.8,11.8,3.1,16.1.8.4-.2.4-.6-.2-.8-.6-.2-1.5-.1-1.9.1"/>
        <path d="M367.3,330.8c-2.3-1.1-4.8-1.7-7.3-1.9-.4,0-.9.1-1.1.4-.2.2-.3.5,0,.6,1.2.7,2.6,1,4,.9.4,0,1-.1,1.2-.5.2-.4-.2-.6-.5-.6-1.1,0-2.3-.2-3.2-.8-.4.3-.7.6-1.1,1,2.2.2,4.5.7,6.5,1.7.4.2,1,0,1.3-.1.3-.2.6-.5.1-.7"/>
        <path d="M357.3,331.1c-3,0-6.4-1.4-7.9-3.6-2.2-3.4-.2-8.8,3.5-10.9.4-.2.2-.5-.2-.6-.5-.1-1.2,0-1.6.3-3.2,1.9-5.3,6.3-4.8,9.5.5,3,3.3,5.1,6.8,6,1,.3,2.2.4,3.3.5.5,0,1.2-.1,1.5-.5s-.2-.5-.6-.5"/>
        <path d="M388.2,330.3c-.2-.4.1-.6.4-.6.8,0,1.6-.2,2.3-.8.3.3.5.6.8,1-1.6.2-3.2.7-4.6,1.7-.3.2-.7,0-1-.1-.2-.2-.4-.5-.1-.7"/>
        <path d="M386,330.8c1.6-1.1,3.4-1.7,5.2-1.9.3,0,.6.1.8.4.1.2.2.5,0,.6"/>
        <path d="M394.4,330.7c1.9,0,4.2-1.4,5.1-3.7,1.4-3.4,0-7.5-2.3-9.7-.3-.2-.1-.5.1-.6.3-.1.8,0,1,.3,2.1,1.9,3.5,5,3.1,8.2-.3,3-2.1,5.1-4.4,6-.7.3-1.4.4-2.1.5-.3,0-.8-.1-1-.5-.1-.4.1-.5.4-.5"/>
      </g>
      <path class="st11" d="M373.3,352.8c-13.2,0-34.5-1.6-34.5-1.6,0,0,4.1,33.9,34.7,34,30.5,0,28.2-33,28.2-33,0,0-15.2.7-28.4.7h0Z"/>
      <path class="st7" d="M373.4,352.8c-6.3,0-31.5-1.1-31.5-1.1,0,0,8.9,22.6,31.5,22.7,24.6,0,26.6-22.3,26.6-22.3l-26.6.7h0Z"/>
      <path class="st18" d="M371.6,352.1c-6.8,0-27.3-1.1-27.3-1.1,0,0,7.6,8.3,27.9,8.3s26.6-8,26.6-8l-27.1.8h0Z"/>
      <path class="st11" d="M402.5,349.8c-.6-.2-1.7,0-4.7-.3-5-.4-6.4-1-10-1.3-6.2-.5-10.1,2-12.8,2s-6.6-2.5-12.8-2c-3.6.3-12.6,1.6-17.6,2-3,.2-6.5-.9-7.2-.8-.9.2.8,6.8,34.7,6.9,33.9,0,31.4-6.2,30.5-6.5h0Z"/>
      <path class="st12" d="M481.2,1000.8c.2,0,.3-.3,0-.3s-.3.3,0,.3h0Z"/>
      <path class="st16" d="M500.7,566.1c0,13.6-.1,27.2-.6,40.8-.3,8.1-.7,16.3-1.5,24.3-.5,5.3-1.2,10.6-1.9,16-.7,5.3-1.4,10.7-1.9,16-.8,8.1-1.2,16.2-1.5,24.3,0,1.3,0,2.7-.1,4h0c3.2,1.3,6.9,1.7,10.3,2,9.4.7,18.9-.8,27.9-3.3,8.1-2.3,16.3-4.9,23.8-8.8,1.5-.8,3.1-1.7,4.5-2.8.3-.2,1.1-.7,1.3-1.1.2-.5-.4-1.6-.5-2-.4-1.5-.8-3-1.2-4.6-.6-2.3-1.2-4.7-1.8-7-.1-.5-2,.2-2.3.2-.3.1.3-.1-.1,0s-.9.3-1.3.5c-1.5.5-3,1.1-4.5,1.6-5,1.7-10.1,3.1-15.2,4.2-9.9,2.2-20.4,3.5-30.6,2.8-1.4,0-2.9-.2-4.2-.6-.6-.2-1.5.1-2,.4-.2.1-1,.5-.4.7,1.2.3,2.5.4,3.7.5,4,.3,8,.2,11.9,0,12.3-.7,24.4-3.2,36.2-7,2.8-.9,5.6-1.8,8.3-2.9-.8,0-1.5.2-2.3.2.6,2.4,1.3,4.8,1.9,7.2l1.2,4.7c0,.4.2,1,.3,1.3.1.2,0,.3.2,0-.3.7-1.6,1.3-2.1,1.7-2.4,1.6-4.9,2.8-7.5,3.9-4.9,2.1-9.9,3.8-15,5.3-6.2,1.8-12.4,3.2-18.8,3.6-4.2.3-8.4.2-12.6-.3-1.3-.2-2.5-.4-3.8-.7-.6-.1-1.5-.3-2-.5,0,0-.3,0-.3-.1,0,0,0-.7,0-.9,0-.6,0-1.2,0-1.9,0-2.1.1-4.2.2-6.4.2-3.5.3-7,.6-10.6.4-5.3.8-10.7,1.5-16,1.1-8.9,2.4-17.7,3.2-26.7,1.5-17.6,1.7-35.2,1.8-52.8,0-3.4,0-6.8,0-10.2s-2.9,0-2.9.8h0Z"/>
      <path d="M221.8,288.2s-11.4-23.3-13.6-72.8c-1.7-37.9,50.8-73.1,86.8-79.8,19.8-3.7,86.6,2.3,104,9.7s27.2,30,30.4,62.7c0,0-11.6-32.2-32.8-30.7-17.2,1.2-73.1-5.4-87.5,1.2s-35.9,13.8-35.5,65.2c.1,14-25.2,19.1-31.9,27.8-6.7,8.7-19.9,16.9-19.9,16.9h0Z"/>
      <path d="M261.9,281.3c.4,4.4.7,21.7,1.3,26h-22.9c-7.3-14.6-16.1-32.1-18.8-36-4.3-6.2-5.7-36.6-6.3-48v-2.5c-.7-11,9.5-28.7,27-47.4,19.3-20.6,54.3-32.9,89-31.4,3.3.1,6.6.4,9.8.8,30.2,3.6,55.7,17.8,75.6,42.3,14.4,17.6,15.8,38.1,15,50.6-1.5-24.7-10.8-41.8-11.1-42.6-8.8-16.6-19.5-21.1-26.9-22-6.5-.8-11.3,1.1-12.2,1.5-7.3,1.8-18,1.1-25.8.2-5.8-.7-10.4-1.6-11.6-1.8-4-2.6-9.8-4.4-17-5.2-16.7-2-40.7,1.5-45.5,8.9-5.3,8.1-16.9,37-16.8,43.7"/>
      <path class="st20" d="M253.2,343.6c-12.5,18.8-22.6-12.4-22.6-12.4-13.2-15.6-13.3-32.3-12.9-43.8.4-11.4,13-11.4,13-11.4,10.7,1.1,15.5,6.8,24.7,42.8"/>
      <path class="st5" d="M237.7,303.1c-4,1.2-5.1,5-4.9,8.8,0,1,.3,2,.4,3,.2,1.5.2,3,.6,4.6.4,1.5.9,3,1.6,4.4,1.1,2.1,4.4,7.7,7.6,5.3,1-.8.8-2.2.6-3.4-.3-1.9-.9-3.7-1.4-5.5-.3-1.3-1.3-4-.4-5.2.4-.5,1-.2,1.6-.1.9.1,1.7.2,2.6.3.2,0,1.3-.1,1.2-.5-1.9-5.3-3.6-10.5-6.1-15.6-1.6-3.1-3.4-6.3-5.9-8.8-.9-1-2.1-2-3.4-2.4s-1.9.5-2.6,1.5c-3,4.3-3.5,9.9-2.8,15,0,.4,1.5,0,1.4-.4-.5-4.1-.3-8.3,1.4-12.1.6-1.3,1.3-2.8,2.4-3.8l-1.1.4s.5.1.8.3c.9.4,1.6,1.1,2.4,1.8,3.6,3.5,6,8.4,7.9,13,1.6,3.8,2.9,7.7,4.3,11.5l1.2-.5c-1.8-.2-5.8-1.4-6.7,1.1-.5,1.3,0,2.9.3,4.1.4,1.7,1,3.4,1.4,5.2.3,1.1.8,2.8.1,3.8-.2.3,0,.2-.3,0-.4-.1-.7-.3-1-.5-.8-.6-1.5-1.3-2.1-2.1-1.6-2.1-2.7-4.6-3.4-7.2-.4-1.7-.4-3.5-.7-5.2-.6-3.3-.8-8.9,3.3-10.1.8-.2.7-.9-.2-.6h0Z"/>
      <path class="st20" d="M392.9,391.5c-.3,0-.6-.1-.8-.3-4.5-2.8-4.8-4.5-7-5-.5-.1-.8-.3-2.3-.5-6.2-.8-10-1.3-26.5,9.5-.3.2-22.2-2.1-22.7-2.2l-11.4-5.1c-1.9-1.1-44.8-36-44.8-36-.7-1.2-8.5-9.5-8.8-10.6-.1,0-.3-.1-.4-.2,0,0-.2,0-.3-.1,0,0,0,.2,0,.2,0,.5,0,1,0,1.5.1,2.1.6-11.7,1.3-9.7,1,3.1,1.8,7.3,2.7,10.4.3,1.1,4.1,16.6,4.5,17.6,4.9,2.9,31.1,44,52.7,50.4,1.1.3,2.3.7,11.9,1.3,17.9,1.2,37.2,1.8,54.8-3.6,4.6-1.4,8.2-4.8,10-9.1,5-12.3,14.2-40.5,16.7-58.8-4.7,10.6-14.6,33.4-21.4,48.9-.2.5-7,1-7.6,1.1"/>
      <path class="st17" d="M881.5,537.6c0-8.9-.6-7.6-.8-16.7,0-.8-.1-1.5-.3-2.2,26.7-.3,64.3-12.9,86.8-13.4-.8.6-2,18.6-14.4,29.8-20,18-34.9,21-54.2,22.3l-9.7-.2s-6,.2-6.1-.7v-19c.1,0-1.3,0-1.3,0h0Z"/>
      <g>
        <path class="st20" d="M989,473.5c.6-10.2-1.6-12.5,2-22.1,2.7-7.3,14.1-19.6,19.5-25.2,4.3-2.2,10,.2,13.2,3.7l.6,1.3c5,8.9.7,29.1-12.3,41.4-2.9,13.7-19,14.3-25.5,8.7,0-2.5,2.4-5.2,2.6-7.7h0Z"/>
        <path class="st20" d="M831.3,462.5c.6-5.9,5.9-15.5,5.5-21.1-.5-6.6-4.9-37,.8-57.1,2.4-8.5,4.9-15.5,7-21,.2-.2.5-.5.6-.8.5-1.2,1.1-2.7,1.7-3.7,6.2-11.2,18.9-17.4,30.8-21.2,6.7-2.2,11.8-14.9,18.7-15.9,4.1-.6,10.2,10.2,14.3,9.9-.2.4-.2.5.2.3,0,.2,1.1,0,2.3-.4,1.2,0,2.4-.1,3.6-.1,0,0,0,.1-.1.2,0,.5-.5,1.5-.9,1.5,2.7,1.2,5.8.3,8.5-1.4-.9.8-1.3,1.7-1.8,2.1,2.2,0,4,.4,6.2-1.3,0,.4-.9,1.7-1.3,1.7,2.2.8,4.9.3,7.1-.9,0,.4-.9,1.2-1.3,1.7,1.8.4,3.6.4,5.3-.9l-1.3,1.7c1.8,0,3.1.8,5.8,0,0,.4-.9.8-.9,1.2,1.3,0,3.1,0,4.5-.5,0,.4-1.3,1.2-.9,1.2,1.6,0,2.8.6,4.7.1.1,0,.2.1.4.2-.3.4-.7,1-1,1.3,1.2,0,2.5.1,3.7,0,.4.2.8.4,1.2.6-.1.2-.3.4-.5.6.7,0,1.3.1,2,.2.6.3,1.3.7,1.9,1,.1,0,.2.1.4.2,0,0-.1.1-.2.2h.5c13.3,7.6,24.5,18.3,33.9,30.3,7,9,13,18.6,18,28.8,0,2.3,0,4.4,0,5.9,0,1.5-.6,3.8-1.5,6.5-3.9,4.5-7.2,9.5-9.7,14.9-5.1,10.9-7.2,23-7.6,34.9-.3,8.5-3.5,8.3-2.5,16.8l-5.4,14.9-7.2,16.7c-20.2,23.4-45.1,37.9-65.2,40.9-6.6,1-20.3.8-28.6.5-5.6-.2-11.2-1.5-16-4.5-24.4-15.2-38.6-57.1-35.6-85.8h0Z"/>
      </g>
      <path class="st5" d="M1002.8,457.2c1.8-4.8,3.9-9.5,6.6-13.8,1.4-2.3,2.9-4.5,4.9-6.3.5-.5,1-.9,1.6-1.2.2-.1.5-.2.5-.3s.2,0,.2-.1c.2,0,0,0,0,0,.7-.2-.5.2-.4-.1,0,.1,1,1.4,1,1.6,2.2,4,2.3,8.9,1.5,13.3,0,.5,1.4.3,1.4-.2.8-4.4.7-9-1.3-13.1-.3-.6-.7-1.6-1.3-2.1-.3-.2-.6-.2-1-.1-3.4.7-6,4.4-7.7,7.1-3.2,4.8-5.6,10.2-7.7,15.6-.2.4,1.3.2,1.4-.2h0Z"/>
      <path class="st5" d="M1001.8,457.8c1.3,0,3.2,0,3.6,1.6.3,1.2-.3,2.6-.7,3.8-.8,2.5-2.2,5.9-.1,8.1,2.4,2.5,5.8-1.4,7-3.4,1.8-3.1,2.5-6.7,2.1-10.3-.5-3.5-1.5-8.5-5.2-9.8-.3-.1-.7,0-.9,0,0,0-.7.3-.4.4,3.3,1.2,4.4,5.3,4.9,8.4s.4,5.9-.7,8.9c-.7,1.9-1.7,4-3.3,5.3-.5.4-.9.7-1.5.4s-1.1-1-1.3-1.7c-1-2.6.7-5.6,1.4-8.1.3-1,.6-2.4,0-3.3-.9-1.2-2.8-1.1-4-1-.4,0-1.6.6-.6.6h0Z"/>
      <path class="st15" d="M855.9,427.4c-2.5-1.5-5.5-1.9-7.3-.5-.4.3-1.5,1.3-2.2,2.9-.8,2.1,0,4.7,1.2,6.3,1.7,2.1,4.6,2.7,7,1.8,3.2-1.3,4.5-5,3.9-7.8-.1-.5-.7-1.4-2.7-2.6"/>
      <path class="st15" d="M930.7,429.1c2.7-1.2,5.6.2,7.1,1.8.4.4,1.4,1.5,1.7,3.2.5,2.2-.5,4.6-2,6-1.9,1.9-5,2-7.2.8-3-1.7-3.8-5.6-2.8-8.3.2-.5,1-2.6,3.1-3.5"/>
      <path class="st15" d="M905.5,436.7s14.2-9,21.1-9.2c12.5-.4,23.6,7.6,26.8,12.5,0,0-17.3-10.7-24.4-10.3-6.8.3-23.5,7-23.5,7h0Z"/>
      <g>
        <path d="M874.4,476.9c2.8,1.6,7.2,1.4,10.1-.2.7-.4,2.8,0,1.8.6-3.9,2.1-10.1,2.1-13.7.1-.4-.2-.3-.5.2-.6.5-.1,1.2,0,1.6.1"/>
        <path d="M887.6,476.5c2-.8,4.1-1.2,6.3-1.3.3,0,.7.1.9.3.2.2.2.4,0,.5-1,.5-2.3.7-3.4.6-.4,0-.8-.1-1-.4-.2-.3.2-.5.5-.5,1,0,1.9,0,2.8-.5.3.3.6.5.9.8-1.9,0-3.8.4-5.6,1.2-.3.1-.8,0-1.1-.2-.2-.1-.5-.5-.1-.6"/>
        <path d="M896.1,477.1c2.5,0,5.5-.9,6.8-2.7,2-2.7.4-7.5-2.7-9.4-.3-.2-.1-.5.2-.5.5,0,1,.1,1.3.3,2.7,1.7,4.3,5.6,3.8,8.2-.5,2.4-2.9,4-6,4.6-.9.2-1.8.3-2.8.3-.4,0-1.1-.1-1.2-.4-.2-.3.2-.4.5-.4"/>
        <path d="M869.8,475.5c.1-.3,0-.5-.3-.5-.7,0-1.4-.2-1.9-.7-.2.3-.5.5-.7.8,1.3.2,2.7.7,3.9,1.5.2.2.6,0,.8,0,.2-.1.3-.4.1-.6"/>
        <path d="M871.7,475.9c-1.3-.9-2.8-1.5-4.3-1.7-.2,0-.5,0-.7.3-.1.1-.2.4,0,.5"/>
        <path d="M864.6,475.6c-1.6-.1-3.5-1.3-4.2-3.1-1.1-2.8.1-6.1,2.2-7.8.2-.2.1-.4,0-.5-.3-.1-.6,0-.9.2-1.8,1.5-3.1,4-2.9,6.6.2,2.5,1.7,4.2,3.6,5,.6.2,1.2.4,1.8.5.2,0,.7,0,.8-.4.1-.3,0-.4-.3-.4"/>
      </g>
      <path class="st15" d="M868.5,436.2s-11.9-10.4-18.2-11.4c-9.2-1.4-12.5,2-16,6.4,0,0,7.1-5.7,13.6-4.6,6.2,1.1,20.7,9.5,20.7,9.5h0Z"/>
      <path class="st11" d="M877.3,493.6c13.3,0,39.2-1.4,39.2-1.4,0,0,0,32.6-34.2,31.1-30.7-1.3-27.9-30.9-27.9-30.9,0,0,9.7,1.1,22.9,1.2h0Z"/>
      <path class="st8" d="M877.2,493.6c6.3,0,36.1-.9,36.1-.9,0,0-5.2,21.4-32.6,21.2-24-.2-22.2-21.1-22.2-21.1l18.7.8h0Z"/>
      <path class="st21" d="M876.9,494.6c6.3,0,6.3.4,29.9-.9,0,0-6.9,7.2-25.8,7.1s-25.7-7.1-25.7-7.1l21.6.9h0Z"/>
      <path class="st11" d="M853,492.7c.7-.2.8,0,4.6-2.1,1.3-.8,2.6-1.8,6.4-2.1,6.5-.5,10.5,2.2,13.3,2.2,2.8,0,6.9-2.6,13.4-2.1,3.8.3,14.5,1.9,19.7,2.4,3.1.3,6.8-1,7.5-.8.9.2-.9,7.4-36.2,7.3s-29.6-4.5-28.7-4.7h0Z"/>
      <ellipse class="st9" cx="999.1" cy="485.5" rx="7.7" ry="8" transform="translate(-63.9 163) rotate(-9)"/>
      <path d="M908,406.4c19.4-2.1,26.4-.9,39.9,3.2,5.2,1.6,8.9,4.2,11.1,9.2.3.8,1.7,5.1.4,5.6-1.5.5-3.7-3.4-4.5-4.2-3.2-3-7.1-3.6-11.2-4.2-7.4-1-15.6-1.3-23-1.1-3.7.1-8.1,1.3-13.9,2-1-.7-.6-4.6-.2-6.7.5-2.7,0-.4.6-3.1,0,0-.2-.7.9-.8h0Z"/>
      <path d="M833.9,408.2c-.1-1-.3-2.2-.3-3,0-.6,0-1.2,0-1.7,10.4-1.2,17.7-.7,33.4,3.6,1.1.3.8,1,.8,1,0,2.7,0,.4,0,3.1,0,2.1-.1,6-1.2,6.6-5.5-1.6-9.5-3.5-13.1-4.1-6.1-1.1-12.9-2-19.3-2.3-.2-1-.3-2-.5-3h0Z"/>
      <path d="M1053.8,390.1c-11.6-17.3-24.6-34.1-41.4-46.3-15.8-11.5-34.3-18.5-52.7-24.8-12.4-4.3-25-8.4-38-9.9s-26.7-.3-38.4,5.7c-9.8,5-18,13-28.4,16.3-1.2.4-2.6.7-3.8.2-1.4-.6-3.4,2.6-3.9,1.2-2.9-8.2,1-19.5,7.1-25.6,6.2-6,15.7-8.1,23.7-8.1,2-7.6,10.1-12.2,17.4-15.2s18.1-2.8,24.8,1.2c1.4.8-1.6.3,0,0,1-.2,1.9-.9,2.7-1.6,4.9-4.1,10.6-7.6,16.8-8.9,6.3-1.3,13.2-.2,18.2,3.9,1.7,1.4,3.1,3.1,5,4,4.2,1.9,9-.7,13.5-1.7,6.7-1.5,14.2.6,19,5.6,1.4,1.4,2.7,3.2,4.7,3.7,1.3.4,2.6.1,3.9-.1,4-.8,5.9,0,9.7,1.4,10.8,4.1,14.9,8.2,15.6,17.1,0,1,1.7,1.8,2.4,2.5.7.8,1.8.9,2.9,1,6,.3,8.6,4.5,13.3,8.2,4.8,3.7,9,19.7,8.9,25.8,0,5.5-.1-2.8-3.5,1.6,0,0,4.9-3.2,9.4,1.4s12.8,21.5,8.2,36.7c-4.6,15.2-6.9,14.4-6.9,14.4,0,0,.7,20.6.4,27.8-.4,7.1-10.9,20.7-24.2,21.6,0,0,7.2-.1,7.9,4.3.7,4.4,2,4.9-2.9,5.3s8.4-68.6,8.4-68.6h0Z"/>
      <path d="M1014.5,409.2c-5.2,9.6-10.4,19.1-15.6,28.7-2.8,5.1-3.7,14.4-7.6,10.1-2.2-2.4-3.2-10.4-2.2-13.5,3-9.4,5.9-26.4,9-35.8-9.4-.4-22.8-11.6-26.2-20.4s-1.4-12.6-1.1-22c-4.2,5.8-13.2,5.9-19.4,2.3-6.2-3.6-10.1-10-13.8-16.1-2.9,6.2-17.4,5.8-23.5,2.8s-7.1-3.6-9.8-9.9c-2.7-6.3-2.5-8-2.9-14-.9,9.2-8.8,17-12.5,18.5-8.5,3.5-19.9,5.2-27-.8,2,4.6-.3,10.1-4.1,13.3-3.8,3.2-8.8,4.6-13.6,5.8-1,.2-2.1.5-3,.1-2.6-1-1.9-4.8-.7-7.3,12.6-24.6,39.4-41.4,67.1-41.9,25.5-.5,49.5,11.6,71,25.1,14.7,9.2,29.8,20.5,34.7,37.2"/>
      <path d="M986,387.5c-3,3.1-3.4,8-2.3,12.1.7,2.7,2.1,5.4,4.1,7.4,2,2,4.8,3.3,7.6,3.3.5,0,1,0,1.3-.4.3-.2.4-.6.5-.9,1.8-5.6,2.8-11.5,2.9-17.4,0-.9,0-1.9-.5-2.7-1.4-2.5-5.5-1.6-7.6-3.6"/>
      <path class="st16" d="M245.6,418.2c2,4.9,5.1,9.5,8.2,13.8,7.7,10.4,17.5,19.1,28.6,25.7,16.6,9.8,35.8,14.4,55,15,14.4.5,33.4-1.7,40.3-16.6,4.1-8.8,2.9-18.7,1.1-27.9-.1-.8-.3-1.5-.5-2.3-.9.4-1.7.7-2.6,1.1,3.4,1.6,6.8,3.2,10.2,4.8l2.5,1.2c.2,0,.4.2.6.3.5.1-.2.2-.1-.2,0,.1.2.5.2.6,1.4,3.5,2.2,7.2,2.8,10.9.8,6.1.5,12.4-1.7,18.2-2.8,7.6-8.7,13.4-15.7,17.2-11.6,6.2-25.7,7.6-38.7,7.8-13.4.2-26.8-1.5-39.5-5.6-10.4-3.3-20.2-8.2-29.1-14.5-7.3-5.1-14-11.2-19.9-17.9-4.4-5-8.3-10.3-11.7-16-1.1-1.8-2.1-3.6-3.1-5.4-.5-1-.9-2.1-1.5-3.1,0-.1-.1-.3-.2-.4l-.9,1c5.8-2.5,11.7-5.1,17.5-7.6.4-.2,1.2-.7.8-1.2s-1.5-.2-1.9,0c-5.8,2.5-11.7,5.1-17.5,7.6-.3.1-1.1.6-.9,1,.9,2.2,2,4.2,3.2,6.3,3,5.3,6.4,10.4,10.3,15.2,5.4,6.8,11.7,13,18.5,18.4,8.4,6.6,17.8,12,27.8,15.9,12.2,4.7,25.1,7.3,38.1,7.9,7.7.4,15.5.1,23.1-.7,6.8-.8,13.6-2.1,20.1-4.5,8.6-3.1,16.8-8.4,21.5-16.4,3.5-5.9,4.8-12.6,4.5-19.4-.2-4.7-1.1-9.4-2.6-13.9-.2-.7-.4-1.6-.8-2.2-.2-.4-.7-.5-1.1-.7-.8-.4-1.6-.8-2.5-1.2-2.2-1.1-4.5-2.1-6.7-3.2-1.2-.6-2.4-1.1-3.6-1.7-.7-.3-2.8,0-2.6,1.1,1.6,8.5,3.3,17.2.9,25.8-1.5,5.1-4.6,9.7-9,12.7-6.6,4.5-15,5.7-22.9,5.9-19.2.5-39-3.6-56-12.7-11.6-6.2-21.9-14.7-30-25-2.6-3.3-5-6.8-7.1-10.4-1-1.7-1.8-3.5-2.7-5.2,0,0,0-.2-.1-.2-.4-1-3.3-.2-2.9.8h0Z"/>
      <path class="st16" d="M988.7,557.2c-3.7,5.3-7.9,10.2-12.2,15-9.2,10.2-19.6,19.6-31.3,26.9-6.2,3.9-12.9,7.2-19.9,9.2-7.5,2.2-15.4,2.7-23.1,1.7-6.2-.8-12.4-2.7-17.3-6.8-3.7-3.1-6.1-7.2-7.4-11.8-2.2-7.9-1.2-16.3.2-24.3.1-.7.2-1.4.3-2,0-.5-2.4.3-2.5.4-2.7,1.4-5.3,2.9-8,4.3-1.2.7-2.5,1.3-3.7,2-.3.2-.4.3-.6.6-.4.8-.7,1.8-.9,2.6-.5,1.7-.9,3.3-1.2,5.1-.9,4.8-1,9.8,0,14.5,1.3,6.1,4.5,11.6,9.2,15.8,6.9,6.2,16.1,9.5,25.1,11.3,5.6,1.2,11.3,1.9,17,1.7,5.2-.1,10.4-.9,15.5-2.1,10.2-2.5,19.8-6.8,28.8-12.2s16.7-11.2,24.2-17.8c6.1-5.3,11.9-11,17.3-16.9,2.8-3.1,5.7-6.3,8.3-9.6.1-.2.2-.3.3-.5,0,0,0-.2,0-.2-5.1-2.5-10.2-5.1-15.3-7.7-.5-.3-1.3,0-1.9.2-.1,0-1.3.6-.9.8,2.7,1.4,5.5,2.7,8.2,4.1l5.2,2.6c.5.2,1,.6,1.5.8.5.1.1.2.2,0-.4.9-1.4,1.8-2,2.5-1.7,2-3.3,3.9-5.1,5.8-5.7,6.3-11.8,12.3-18.2,18-8.1,7.1-16.8,13.6-26.2,19-9.6,5.5-20.1,9.8-31.1,11.4-5.5.8-11.2.8-16.7,0-6.2-.8-12.4-2.1-18.2-4.4-7.7-3-14.9-7.7-19.1-14.9-3-5.1-4.2-11.1-4-17,.1-4.1.9-8.1,2.2-12,.2-.5.3-.9.5-1.4.2-.6.3-.3-.1-.2.3,0,.7-.4,1-.5l2.3-1.2,5.6-3c1-.5,2-1.1,3-1.6-.8.1-1.7.2-2.5.4-1.3,7.9-2.7,15.9-1.1,23.9.9,4.7,2.9,9,6.2,12.5,4.1,4.4,9.8,6.8,15.6,8.1,15.7,3.4,31.7-.4,45.7-7.8,12.8-6.8,24.1-16.4,34.2-26.9,3.7-3.9,7.3-8,10.7-12.2,1.1-1.4,2.2-2.8,3.3-4.2.6-.7,1.2-1.5,1.7-2.3,0,0,.1-.2.2-.3.3-.4-1-.3-1.2-.2-.5,0-1.4.3-1.7.8h0Z"/>
      <path class="st20" d="M730,485.9l1,49.9,3,9.2s-3.3,26.5-4.7,32c-1.4,5.4-17.3,31.2-17.3,31.2l7.2,35.4-47.9-2.7s-4.4-26.5-6.9-30.1c-2.2-5.4-2.7-11.3-1.6-17,.8-5.2,3.8-36.8,3.8-36.8,0,0-8.6-38.6-.2-37.8,2,.5,4,1.1,6,2,0,0,4.7,25.1,7.6,26.5l5.2-1.1s1.5-35.7,3-41.9c1.5-6.3,4.1-10.2,9.1-9.4,0,0,3.1,2.6,2.9,4.2-.2,1.6-2.9,41.1-.6,41,2.2,0,2.3-3.7,2.3-3.7,0,0,2.2-48,3.6-50.5,1.6-3.4,5.5-5.1,9-3.8l1.4,27.3s2.2-21.9,6.9-24.4c2.3-1.5,5.3-1.3,7.3.5h0Z"/>
      <path class="st22" d="M732,535.3c-3.2-5.9-6.5-11.8-9.7-17.7-.5-.9-.9-1.7-1.4-2.6-.2-.4-.9-.3-1.2-.3-1.8.4-3.4,1.5-4.7,2.7-3,2.8-3.9,6.9-3.6,10.9.3,4.7.9,9.5,2.1,14,.2.7.4,1.3.6,2,0-.4,0,.2,0,.3v2c0,3-.1,6-.2,9.1l.6-.7c-2.5,1-4.8,2.3-7,3.8-5.1,3.3-9.6,7.4-13.2,12.2-2.5,3.5-4.6,7.3-6,11.4-.4,1.2,1.8,1.1,2.1.2,3.8-11,12.3-20,22.7-25.3.8-.4,1.5-.8,2.3-1.1.3,0,.6-.4.6-.7,0-2.5,0-5,.1-7.5,0-1.6.3-3.3-.1-4.9-1-3.1-1.5-6.4-1.9-9.7-.6-4.6-1.5-10,1.5-14.1.8-1.1,1.8-2,3-2.7.2-.1.5-.2.7-.3s.4-.2.3-.1c.2,0,.3-.1.5-.1l-1.2-.3c3.2,5.9,6.5,11.8,9.7,17.7.5.9.9,1.7,1.4,2.6s2.5,0,2-1h0Z"/>
      <path class="st22" d="M701.2,545.5c-3.6-.3-7.3,0-10.9.5-7.2,1.1-14.2,3.6-19.9,8.2-1.1.9.7,1.4,1.4.8,5.4-4.4,12-6.7,18.8-7.7,3.2-.5,6.5-.7,9.7-.4.9,0,2.3-1.2.8-1.4h0Z"/>
      <path class="st20" d="M753.7,736.3c6.4,15.8,13.4,31.5,16.3,48.2,1.3,7.3,1.5,14.6.7,22-2.3,20.3,22.5,52-5.5,63.6-9.3,3.9-20.2,2.1-29.2-2.4-42.4-21.2-42.3-84.9-51.5-125.7-4.5-20-14.6-104.3-15-124.8l2-12.8,35.4-1.4,34.8,98.9"/>
      <path class="st13" d="M1059.4,806l-13.9-70.9,5.3-152.7s52.8,11.9,70.7,55.6c9.2,26.7,23.7,86.7,34.6,139.3,0,0-9.6,11.2-38.8,20.3s-55.6,8.5-55.6,8.5"/>
      <path class="st16" d="M1063,618.6c-10.2,2.7-17,11.3-21.1,20.6-2.2,5-3.7,10.3-4.9,15.6-1.6,7.1-2.8,14.2-3.5,21.5-2.9,27.7.4,55.6,6.2,82.8,3.3,15.9,7.4,31.7,11.4,47.5,0,.4.6.6.9.6,13,.2,26.2-.9,39.1-2.8,11-1.6,21.8-4.1,32.3-7.8,7.6-2.7,15.7-5.3,22.7-9.5,4.1-2.4,7.2-6,10.8-9.1.3-.3.6-.6.5-1-1-4.6-1.9-9.2-2.9-13.8-.2-.8-1.6-.7-2.1-.4-9.6,5.4-19.6,10.2-29.7,14.5-8.1,3.5-16.4,6.6-25,8.7-9.6,2.4-19.3,3.8-29.1,4.7-5.2.5-10.3.8-15.5.8-1.6,0-2.2,2-.3,2,13.8,0,27.9-1.7,41.3-4.7,16.9-3.7,33-10.8,48.5-18.6,3.7-1.9,7.5-3.8,11.1-5.8l-2.1-.4c1,4.6,1.9,9.2,2.9,13.8l.5-1c-3.2,2.8-5.8,5.8-9.2,8.1-5.6,3.8-12.6,6.1-18.9,8.4-10.5,3.8-21.1,6.7-32.2,8.6-9.2,1.5-18.5,2.5-27.8,3-3.4.2-6.8.3-10.2.3-1,0-2,0-2.9,0h-.4c.5,0,0,0,0,0,0,0-.2,0-.3,0l.9.6c-6.8-26.8-13.9-53.8-17.1-81.4-1.5-13.5-2.1-27.2-1.1-40.8.5-7,1.3-13.9,2.5-20.8,1.1-6,2.3-12,4.2-17.8,3.5-10.3,9.7-21.5,20.9-24.5,1.8-.5,1.3-2.4-.5-1.9h0Z"/>
      <path class="st13" d="M796.5,816.5s-13.6-20.1-15.2-33.5-.5-28-.5-28l24.8,9.5-9.1,52.1h0Z"/>
      <path class="st22" d="M709.8,609.1c-6.3,5.9-16.4,6.8-23.7,2.2-.8-.5-2.7.6-1.7,1.2,8.4,5.3,20,4,27.2-2.8.4-.4.1-.9-.3-1-.5-.2-1.2,0-1.5.4h0Z"/>
      <path class="st22" d="M758.5,754.1c3.9,5.6,6.5,12.2,9,18.5,3.3,8.3,6.3,16.7,9.4,25,.2.5,1.6,0,1.5-.4-3.2-8.5-6.2-17-9.5-25.4-2.5-6.2-5.1-12.7-9-18.3-.3-.4-1.7,0-1.3.6h0Z"/>
      <path class="st20" d="M575.4,352.4l-7.1,58.1-4.5,10.4s.7,31.4,1.7,37.9c1,6.5,16.4,38.5,16.4,38.5l-16,73.6,54.8,14s8-74.3,16.3-78.9c3.2-6,4.5-12.8,3.8-19.6-.3-6.2,0-43.4,0-43.4,0,0,6.9-45.3-3-45.3-.6,0-1.2.2-1.8.3-3.1.5-5.4,3.2-5.5,6.3-.4,8.6-1.5,25.3-4.2,26.2l-5.9-1.9s2.6-41.8,1.5-49.3c-1-7.5-3.6-12.4-9.5-12.1,0,0-3.9,2.6-3.9,4.6s-1.6,48.3-4.2,48c-2.6-.3-2.3-4.6-2.3-4.6,0,0,3.2-56.3,1.9-59.4-1.4-4.2-5.8-6.6-10.1-5.5l-4.9,31.7s0-25.8-5.1-29.3c-2.5-2-6-2.1-8.6-.2h0Z"/>
      <path class="st22" d="M569.4,412c4.3-6.2,8.6-12.4,12.9-18.6.6-.9,1.2-1.8,1.8-2.7l-1.5.4c1.6.5,3.3,1.9,4.4,3.4,3.2,4.2,2.4,9.4,1.4,14.2-.9,4.3-1.9,8.7-3.6,12.8-.2.5-.5,1-.6,1.5-.2,1-.2,2.2-.3,3.3-.3,3.2-.5,6.4-.8,9.5,0,.2,0,.4.3.5,2.5,1.3,4.8,3,7,4.7,5.1,4,9.6,9,12.9,14.6,2.4,4.1,4.2,8.6,5.3,13.2.2,1,2.4.4,2.2-.6-3.1-13.1-11.8-24.4-23.1-31.6-.8-.5-1.7-1.1-2.6-1.5l.3.5c.2-2.9.5-5.8.7-8.6.1-1.4.2-2.7.3-4,0-.4-.1.2,0-.2.1-.3.3-.6.4-1,1.7-4.1,2.8-8.5,3.7-12.9,1-5,1.8-10.4-1.2-14.9-1.3-1.9-3.3-3.7-5.5-4.4-.5-.2-1.2,0-1.5.4-4.3,6.2-8.6,12.4-12.9,18.6-.6.9-1.2,1.8-1.8,2.7-.8,1.1,1.3,1.4,1.8.6h0Z"/>
      <path class="st22" d="M601.9,427c8.1.1,16.5,2.5,23.6,6.2,3.5,1.8,6.6,4.1,9.4,6.9.6.6,2.7-.2,2-.9-8.3-8.2-20-12.3-31.4-13.4-.9,0-1.9-.2-2.8-.2-.4,0-1.2.1-1.4.6-.2.5.2.8.6.8h0Z"/>
      <path class="st20" d="M517,677.6c-8.3,18.1-14.4,36.2-18.7,55.7-1.9,8.5,4.1,4.2,4.7,12.9.5,7.4-7,19.3-4.9,26.4,0,0-3.5-2.4-3.5-2.4,6.5,8.4,21.1,18.2,25.3,19.2,21,4.9,34.9,2,50.7-11.6,19.1-16.5,28.6-67,34.8-89.9,6.3-23.2,26.2-155,27.8-179l-10.1,18.1-42-18.6-45.4,129.3"/>
      <path class="st22" d="M582.2,499.5c7.5,8.7,20.7,11.2,30.9,6.1,1.3-.7.1-1.8-1-1.3-9.3,4.6-21.2,2-28-5.8-.6-.7-2.7.1-2,1h0Z"/>
      <path class="st16" d="M781.5,747.8c-6.9-.5-14.3-2.2-20.4-5.6-2.4-1.3-4.6-2.9-6.2-5.1-.5-.7-3,.6-2.9.8,2.9,3.9,7.5,6.2,12,7.8,4,1.4,8.2,2.3,12.4,2.9.9.1,1.8.2,2.7.3.7,0,1.4-.1,2-.4.2,0,1-.6.4-.7h0Z"/>
      <path class="st22" d="M509.4,693.1c-1,2.2-1.6,4.6-2.2,7-1.6,6.1-2.5,12.5-2.8,18.8,0,1,2.1.6,2.2-.2.3-6.2,1.2-12.5,2.8-18.5.6-2.3,1.3-4.7,2.2-6.9.4-1-1.7-.9-2-.1h0Z"/>
      <path class="st20" d="M76.6,700.9c5.4,1.8,12.8,3.2,18.3,4.5,8,2,16.1,3.6,24.2,5.1,4.8.9,9.5,1.7,14.3,2.2,8,.8,16,.8,23.9.3,9.9-.6,15.6-2,25.4-3.5l-12.6,139.9,7.2,41.8c2,8.2,15.7,144.5,16.7,152.9l19.3,66.8-69.2,20.1c-44.5-190.2-63.8-210.8-71.6-269.8-7.1-53.4,1.9-111.3,4.2-160.2h0Z"/>
      <path class="st13" d="M72.6,618.2l-12.2,101.9s71.6,21.3,151.8,9.4c79.2-11.7,64.7-85.9,64.7-85.9l-204.3-25.5h0Z"/>
      <path class="st16" d="M179.2,496.8c5.1,1.1,9.4,5.1,12.8,8.8,4.6,5.1,8.4,10.9,11.7,16.9s6.3,12.5,8.7,19.1c1.8,5,3.6,10.3,4.1,15.7.7,7.1.6,14.3.5,21.4,0,8.2-.2,16.5-.6,24.7-.8,18.3-2.3,36.6-4,54.9-2,21-4.3,42-6.7,63-.3,2.8-.6,5.6-.9,8.4l1.3-.9c-.3,0-.6.2-1,.2-.4,0-.8.2-1.2.3-.1,0-.2,0-.4,0-.4,0,.2,0,0,0-.3,0-.6.1-.9.2-3.7.7-7.4,1.2-11.1,1.7-13.9,1.7-27.9,2-41.8,1.5-19.9-.7-39.6-3.7-59.2-6.9-6.1-1-12.1-2.1-18.1-3.3-1.8-.4-3.7-.8-5.6-1.2-.7-.2-1.4-.3-2.1-.5-.3,0-.5-.1-.8-.2-.2,0-.8-.2-.6-.2-.7-.2-1.4-.4-2.1-.7-.2,0-.4-.2-.6-.3-.1,0-.6-.3-.2-.1,0,0-.2-.2-.2-.2,0,0,0,0,0,0,0,0-.3.5-.5.6,0,0-.4.2-.3.1.3-.1.8-.4.9-.7,1-6.8,2.1-13.5,3.2-20.3-.9.3-1.7.6-2.6.9,4.1,2,8.4,3.5,12.6,4.8,11.3,3.7,22.9,6.4,34.7,8.1,16.7,2.5,33.6,2.8,50.5,2.7,11.9-.1,23.9-.5,35.8-1.6,4.4-.4,8.8-.8,13.1-1.6,0,0,.1,0,.1,0,.4,0,1.6-.3,1.7-1s-.8-.6-1.2-.5c-3.4.6-6.8,1-10.2,1.3-10.6,1.1-21.4,1.5-32.1,1.7-16.8.3-33.8.3-50.5-1.8-12.4-1.6-24.7-4.1-36.7-7.8-3.5-1.1-7.1-2.3-10.5-3.7-1.6-.6-3.1-1.4-4.7-2,0,0-.1,0-.2,0-.6-.3-2.5,0-2.6.9-1,6.8-2.1,13.5-3.2,20.3l.9-.7c-.4.2-1.2.6-1,1.2.2.6,1.4,1,2,1.2,2.2.8,4.6,1.3,6.9,1.8,4.9,1.1,9.9,2,14.9,2.9,19.4,3.4,38.8,6.6,58.5,7.8,15.7,1,31.4.9,47.1-.6,6.6-.7,13.3-1.4,19.7-3.1,0,0,.2,0,.2,0,.4,0,1.2-.4,1.3-.9,2.5-21.6,4.9-43.2,7-64.8,1.9-18.8,3.5-37.7,4.4-56.5.8-16,1.2-32,.5-47.9-.2-5.4-1.4-10.6-3.1-15.7-2.1-6.5-4.9-12.9-8-19-3.2-6.3-6.9-12.4-11.3-17.9-3.5-4.4-7.7-8.8-12.9-11-1-.5-2.1-.8-3.2-1-.6-.1-1.6,0-2.1.5-.4.4-.4.8.2,1h0Z"/>
    </g>
  </g>
  <g>
    <path class="st10" d="M360.1,615.6c-17.5,0-31.8-14.3-31.8-32s14.3-31.9,31.8-31.9,31.8,14.3,31.8,32-14.2,32-31.8,32h0ZM360.1,559.5c-13.3,0-24,10.9-24,24.2s10.8,24.2,24,24.2,24-10.9,24-24.2-10.8-24.2-24-24.2Z"/>
    <path class="st4" d="M454.2,669.7c-4.8-.8-18.4-1-28.7.4-27.8,3.8-52.1,19.6-56,22.2h-1.6c-3.9-2.5-28.8-18-56.6-21.8-11.6-1.5-19.2-1.5-24.2-1.4h-4.3c-1,0-1.9.8-1.9,1.9,0,1,.8,2,1.9,2h4.4c5,0,12.4-.1,23.7,1.4,28.7,3.8,55.2,21.3,55.5,21.5l.5.3h3.9l.5-.3c.3-.2,26.2-18,54.9-21.9,10-1.4,23.1-1.1,27.6-.4,1,.2,2-.5,2.2-1.6s-.5-2-1.6-2.2h0l-.2-.2Z"/>
    <g>
      <path class="st4" d="M361.5,697.8c-7.9-4.4-25-12.7-46.6-15.8-30.2-4.3-39.3-1.3-39.3-1.3l13.4,45.4s35-7.5,72.5,12.2v-40.5h0Z"/>
      <path class="st4" d="M424,681.3c-22,2.3-39.2,11.6-46.8,16.5v40.7c34.1-18,72.8-12.3,72.8-12.3l13.4-45.4s-9.1-2.8-39.3.5h0Z"/>
      <path class="st4" d="M372.7,700.7h-6.4s-.1,0-.3-.2v39.1h6.7v-38.9h0Z"/>
    </g>
    <g>
      <path class="st10" d="M374.9,590.3c-.3-.3-.7-.4-1.4-.3-.5,0-1.1.5-1.6.9-.3.2-.5.4-.8.5-4.6,2.5-10.4,3.2-16.3,2-2.3-.5-4.4-1.5-6.4-2.6-.3-.2-.5-.3-.8-.5-.7-.5-1.5-1-2.1-.5-.7.7-.8,1.7-.3,2.9,0,.2.2.3.2.4,0,.1.2.2.2.3,2.4,4.9,8.9,6.7,14.3,6.7h0c6.2,0,10.8-2,13.8-6,.5-.7.9-1.5,1.1-2.3.1-.5.2-1.1-.1-1.5h.1Z"/>
      <path class="st10" d="M346.6,582.9c.8.2,1.5-.1,2-.8h0c.6-.7,1.1-1.4,1.7-1.9.8-.7,1.4-.7,2.2,0,.7.5,1.3,1.3,1.6,1.8.5.6,1.1.9,1.7.9s.8-.1,1.1-.4c.4-.3.8-.8.8-1.3.1-.5,0-1.1-.4-1.5-.7-.9-1.4-1.7-2.1-2.3-1.1-1-2.5-1.6-3.9-1.7h-.5c-.4,0-.8.1-1.1.3-1.9.7-3.3,2-4.5,4-.3.5-.2,1.2-.2,1.4.2.8.7,1.3,1.5,1.4h0Z"/>
      <path class="st10" d="M363.9,582.9c.2,0,.3,0,.5,0,.6,0,1.1-.3,1.6-.8l.2-.3c.4-.5.9-1.1,1.4-1.6.8-.7,1.5-.7,2.3,0,.6.5,1.1,1.1,1.6,1.7.2.3.5.5.9.7l-.3.2h1.1c.8,0,1.4-.3,1.7-1,.4-.7.4-1.4,0-2.1-.9-1.4-2-2.5-3.2-3.2-1.5-.9-2.9-1.1-4.3-.7-1.9.6-3.5,2-4.8,4.1-.2.3-.2.7-.2,1.1.1.8.6,1.4,1.5,1.6h-.1Z"/>
    </g>
    <path class="st10" d="M445.3,662.1h0c-4.5-10.7-12.7-19.3-22.7-24.1-4.6,6.4-12,10.5-20.4,10.5s-14.6-3.5-19.1-8.9c-12.1,6.9-20.8,19.5-23.1,34.4-23.2-13.6-49.3-16.2-56-16.7,2.6-15.1,11.4-29.7,24.6-40.2l3.9-3.2c1.8-1.4,2.1-4,.7-5.8-1.4-1.8-4-2.1-5.8-.7l-3.9,3.2c-16.8,13.5-27.4,33-28.4,52.6,6.9,0,34.4,1.5,64.3,18.4h0c3.2,1.8,6.4,3.8,9.5,6,21.9-17.7,49.1-23.1,64.5-24.7h.4c6.9-.8,11-.5,11.5-.5,0,0,0-.1,0-.2h0Z"/>
    <path class="st10" d="M402.1,603.1c-11.1,0-20.1,9.1-20.1,20.1s9,20.1,20.1,20.1,20-9.1,20-20.1-9-20.1-20-20.1h0ZM391.6,621.1c0-.3,0-.6.1-.8.7-1.2,1.6-2.1,2.9-2.6.3-.1.7-.2,1-.2,1,0,1.9.4,2.5,1.1.5.5,1,1,1.4,1.6s.3,1.3-.3,1.6-1.2.2-1.6-.3c-.3-.4-.7-.9-1.1-1.3-.6-.5-1.1-.5-1.7,0-.4.4-.8.8-1.2,1.3-.3.4-.7.5-1.1.4s-.8-.4-.9-.8h0ZM411.7,630.3c-.1.5-.4.9-.7,1.4-1.4,1.7-3.7,2.8-5.8,3.3-1.1.2-2.2.3-3.3.5-2.6-.1-5.1-.7-7.3-2.2-.7-.5-1.2-1.1-1.7-1.7-.1-.1-.2-.3-.3-.4-.3-.6-.2-1.2.2-1.5s1,.3,1.6.7c1.3.7,2.6,1.3,4.1,1.6,3.5.7,7.5.4,10.7-1.2.4-.2.9-.8,1.4-.9.8-.1,1.3,0,1.1.8h0v-.2ZM413.3,621.4c-.2.4-.5.5-1,.5s-.7-.2-1-.5c-.3-.4-.7-.8-1.1-1.2-.6-.5-1.1-.5-1.8,0-.4.4-.8.8-1.1,1.3-.3.4-.8.6-1.3.4-.5-.1-.8-.4-.9-1,0-.2,0-.4.1-.7.8-1.3,1.7-2.2,3.1-2.7,1-.3,1.9-.1,2.8.4s1.5,1.3,2.1,2.1c.3.4.3.8,0,1.2h0Z"/>
  </g>
  <g>
    <path class="st10" d="M888.4,725.2c-14.8,0-26.9-12.1-26.9-27s12.1-27,26.9-27,26.9,12.1,26.9,27-12,27-26.9,27h0ZM888.4,677.7c-11.2,0-20.4,9.2-20.4,20.4s9.1,20.4,20.4,20.4,20.4-9.2,20.4-20.4-9.1-20.4-20.4-20.4Z"/>
    <path class="st4" d="M968,771c-4.1-.6-15.6-.8-24.3.4-23.5,3.2-44.1,16.6-47.4,18.8h-1.3c-3.3-2.1-24.4-15.3-47.9-18.4-9.8-1.3-16.2-1.2-20.5-1.2h-3.6c-.9,0-1.6.7-1.6,1.6,0,.9.6,1.7,1.6,1.7h3.7c4.2,0,10.5,0,20.1,1.2,24.3,3.2,46.7,18,47,18.2l.4.3h3.3l.4-.3c.2-.1,22.2-15.2,46.4-18.5,8.4-1.2,19.5-1,23.4-.4.9.1,1.7-.5,1.8-1.3s-.5-1.7-1.3-1.8h-.1Z"/>
    <g>
      <path class="st4" d="M889.5,794.8c-6.7-3.7-21.1-10.7-39.4-13.3-25.5-3.6-33.3-1.1-33.3-1.1l11.3,38.4s29.6-6.4,61.4,10.3v-34.2h0Z"/>
      <path class="st4" d="M942.4,780.8c-18.6,2-33.1,9.8-39.6,14v34.4c28.8-15.2,61.6-10.4,61.6-10.4l11.3-38.4s-7.7-2.4-33.3.4h0Z"/>
      <path class="st4" d="M899,797.2h-5.4s0,0-.3-.2v33.1h5.7v-32.9h0Z"/>
    </g>
    <g>
      <path class="st10" d="M900.9,703.8c-.2-.2-.6-.3-1.2-.3-.5,0-.9.4-1.3.7-.2.2-.5.4-.6.5-3.9,2.1-8.8,2.7-13.8,1.7-1.9-.4-3.7-1.3-5.4-2.2-.2-.1-.5-.3-.7-.5-.6-.4-1.2-.9-1.8-.4-.6.6-.7,1.5-.3,2.4,0,.1.1.2.2.4,0,0,.1.2.2.3,2,4.2,7.6,5.6,12.1,5.6h0c5.2,0,9.1-1.7,11.7-5.1.5-.6.8-1.3,1-2,0-.4.2-1,0-1.3h0Z"/>
      <path class="st10" d="M877,697.5c.6.1,1.2,0,1.7-.6h0c.5-.6,1-1.2,1.4-1.6.6-.6,1.2-.6,1.8,0,.6.5,1.1,1.1,1.4,1.5.4.5.9.8,1.5.8s.6,0,.9-.3c.4-.3.6-.6.7-1.1,0-.5,0-.9-.3-1.3-.6-.8-1.2-1.4-1.8-2-1-.9-2.1-1.4-3.3-1.5h-.5c-.3,0-.6,0-.9.2-1.6.6-2.8,1.7-3.8,3.4-.2.4-.2,1-.1,1.2.1.6.6,1.1,1.3,1.2h0Z"/>
      <path class="st10" d="M891.6,697.5c.1,0,.3,0,.4,0,.5,0,1-.2,1.4-.7l.2-.2c.4-.5.8-.9,1.2-1.3.7-.6,1.2-.6,1.9,0,.5.4,1,1,1.3,1.5.2.2.4.5.7.6h-.3c0,.1,1,.1,1,.1.6,0,1.2-.3,1.5-.8.3-.6.3-1.2,0-1.8-.7-1.2-1.7-2.1-2.7-2.7-1.2-.8-2.5-1-3.6-.6-1.6.5-3,1.7-4.1,3.5-.1.2-.2.6-.1.9,0,.7.5,1.2,1.2,1.4h0Z"/>
    </g>
    <path class="st10" d="M960.5,764.6h0c-3.8-9-10.7-16.3-19.2-20.4-3.9,5.4-10.2,8.9-17.3,8.9s-12.3-3-16.2-7.6c-10.2,5.9-17.6,16.5-19.5,29.1-19.7-11.5-41.8-13.8-47.4-14.1,2.2-12.8,9.6-25.2,20.8-34.1l3.3-2.7c1.5-1.2,1.8-3.4.6-4.9-1.2-1.5-3.4-1.8-4.9-.6l-3.3,2.7c-14.3,11.4-23.2,27.9-24,44.5,5.9,0,29.1,1.3,54.5,15.6h0c2.7,1.5,5.4,3.2,8.1,5.1,18.5-15,41.6-19.6,54.6-20.9h.4c5.9-.6,9.3-.5,9.7-.5,0,0,0,0,0-.1h0Z"/>
    <path class="st10" d="M923.9,714.6c-9.4,0-17,7.7-17,17s7.6,17,17,17,16.9-7.7,16.9-17-7.6-17-16.9-17h0ZM915,729.9c0-.2,0-.5,0-.7.6-1,1.4-1.8,2.5-2.2.3,0,.6-.1.9-.2.8,0,1.6.4,2.1.9.4.4.8.8,1.2,1.3s.2,1.1-.2,1.4-1,.2-1.4-.3c-.3-.4-.6-.7-1-1.1-.5-.4-.9-.4-1.4,0-.4.3-.7.7-1,1.1-.3.3-.6.5-1,.4s-.6-.3-.7-.7h0ZM932.1,737.7c0,.4-.3.8-.6,1.2-1.2,1.4-3.1,2.4-4.9,2.8-.9.2-1.9.3-2.8.4-2.2,0-4.3-.6-6.1-1.8-.6-.4-1-1-1.5-1.5,0,0-.2-.2-.2-.4-.2-.5-.2-1,.1-1.3s.9.3,1.4.6c1.1.6,2.2,1.1,3.5,1.3,3,.6,6.3.3,9-1,.4-.2.8-.7,1.2-.7.7,0,1.1,0,.9.6h0ZM933.4,730.1c-.2.3-.5.5-.8.5s-.6-.2-.8-.5c-.3-.4-.6-.7-.9-1-.5-.5-1-.5-1.5,0-.4.3-.6.7-1,1.1-.3.3-.6.5-1.1.4-.4,0-.6-.4-.7-.8,0-.2,0-.4,0-.6.6-1.1,1.4-1.9,2.6-2.3.8-.3,1.6,0,2.4.4s1.3,1.1,1.8,1.8c.2.3.2.7,0,1h0Z"/>
  </g>
</svg>