<?xml version="1.0" encoding="UTF-8"?>
<svg id="Layer_2" data-name="Layer 2" xmlns="http://www.w3.org/2000/svg" viewBox="0 0 1359.5 1057.58">
  <defs>
    <style>
      .cls-1 {
        fill: #af6b4e;
      }

      .cls-1, .cls-2, .cls-3, .cls-4, .cls-5, .cls-6, .cls-7, .cls-8, .cls-9, .cls-10, .cls-11, .cls-12, .cls-13, .cls-14, .cls-15, .cls-16 {
        stroke-width: 0px;
      }

      .cls-2 {
        fill: #6b3825;
      }

      .cls-3 {
        fill: #d83b28;
      }

      .cls-4 {
        fill: #24180f;
      }

      .cls-5, .cls-9 {
        fill: none;
      }

      .cls-6 {
        fill: #888;
      }

      .cls-7 {
        fill: #000;
      }

      .cls-8 {
        fill: #f1eef7;
      }

      .cls-9 {
        fill-rule: evenodd;
      }

      .cls-10 {
        fill: #0d4060;
      }

      .cls-11 {
        fill: #174168;
      }

      .cls-12 {
        fill: #edb135;
      }

      .cls-13 {
        fill: #b8e0ee;
      }

      .cls-14 {
        fill: #f8ae1c;
      }

      .cls-15 {
        fill: #fff;
      }

      .cls-16 {
        fill: #4f2e25;
      }
    </style>
  </defs>
  <rect class="cls-13" width="1359.5" height="1057.58" rx="12" ry="12"/>
  <rect class="cls-15" x="711.39" y="86.81" width="573.72" height="537.54" rx="51.69" ry="51.69"/>
  <path class="cls-11" d="M763.08,81.64c-31.4,0-56.86,25.45-56.86,56.86h10.34c0-25.69,20.83-46.52,46.52-46.52v-10.34ZM1233.42,91.98c25.69,0,46.52,20.83,46.52,46.52h10.34c0-31.4-25.45-56.86-56.86-56.86v10.34ZM1279.94,572.66c0,25.69-20.83,46.52-46.52,46.52v10.34c31.4,0,56.86-25.45,56.86-56.86h-10.34ZM763.08,619.18c-25.69,0-46.52-20.83-46.52-46.52h-10.34c0,31.4,25.45,56.86,56.86,56.86v-10.34ZM716.56,572.66V138.5h-10.34v434.17h10.34ZM1233.42,619.18h-470.35v10.34h470.35v-10.34ZM1279.94,138.5v434.17h10.34V138.5h-10.34ZM763.08,91.98h470.35v-10.34h-470.35v10.34Z"/>
  <rect class="cls-5" x="711.39" y="86.81" width="573.72" height="537.54" rx="51.69" ry="51.69"/>
  <circle class="cls-12" cx="1243.76" cy="112.66" r="72.36"/>
  <path class="cls-15" d="M1243.2,76.69c.18.12.26.26.29.34l9.74-3.46c-.8-2.24-2.3-4.13-4.24-5.44l-5.79,8.56ZM1242.46,76.47c.3,0,.56.09.74.22l5.79-8.56c-1.93-1.31-4.22-1.99-6.53-1.99v10.34ZM1241.71,76.69c.19-.13.45-.22.74-.22v-10.34c-2.32,0-4.6.68-6.53,1.99l5.79,8.56ZM1241.42,77.03c.03-.08.11-.22.29-.34l-5.79-8.56c-1.94,1.31-3.44,3.2-4.24,5.44l9.74,3.46ZM1234.98,95.56l6.45-18.57-9.76-3.39-6.45,18.57,9.76,3.39ZM1230.77,101.06c1.95-1.33,3.45-3.26,4.22-5.53l-9.79-3.32c-.03.08-.1.2-.27.32l5.84,8.53ZM1224.18,103.07c2.34,0,4.64-.69,6.59-2.02l-5.84-8.53c-.18.12-.43.21-.72.21l-.03,10.34ZM1203.41,103.07h20.78v-10.34h-20.78v10.34ZM1202.72,103.29c.18-.13.44-.22.74-.22l-.09-10.34c-2.31.02-4.58.72-6.5,2.04l5.86,8.52ZM1202.43,103.63c.03-.08.11-.22.29-.34l-5.86-8.52c-1.92,1.32-3.41,3.22-4.19,5.46l9.76,3.4ZM1202.43,103.86c-.03-.08-.03-.15,0-.23l-9.76-3.4c-.78,2.25-.79,4.68-.03,6.93l9.79-3.31ZM1202.71,104.2c-.18-.12-.25-.26-.28-.34l-9.79,3.31c.76,2.25,2.23,4.16,4.14,5.5l5.93-8.47ZM1219.5,115.64l-16.85-11.47-5.82,8.54,16.85,11.47,5.82-8.54ZM1223.72,121.16c-.77-2.25-2.26-4.16-4.18-5.49l-5.89,8.49c.19.13.27.27.3.36l9.78-3.36ZM1223.73,128.11c.77-2.26.77-4.7,0-6.95l-9.78,3.36c.03.09.03.17,0,.26l9.78,3.34ZM1217.31,146.69l6.41-18.57-9.77-3.37-6.41,18.57,9.77,3.37ZM1217.28,146.97s-.02-.07-.02-.1c0-.03,0-.06.02-.1l-9.72-3.51c-.82,2.27-.85,4.73-.08,7.02l9.8-3.3ZM1217.56,147.29c-.17-.12-.25-.25-.27-.32l-9.8,3.3c.77,2.28,2.27,4.21,4.22,5.55l5.85-8.52ZM1218.28,147.5c-.29,0-.55-.09-.73-.21l-5.85,8.52c1.95,1.33,4.26,2.03,6.6,2.02l-.02-10.34ZM1219,147.29c-.18.12-.43.21-.72.21l.02,10.34c2.34,0,4.65-.71,6.59-2.05l-5.89-8.5ZM1235.88,135.79l-16.85,11.47,5.82,8.54,16.85-11.47-5.82-8.54ZM1242.43,133.77c-2.34,0-4.64.7-6.58,2.04l5.88,8.5c.17-.12.42-.2.7-.2v-10.34ZM1249.01,135.81c-1.94-1.34-4.24-2.04-6.58-2.04v10.34c.28,0,.53.09.7.2l5.88-8.5ZM1265.83,147.27l-16.85-11.47-5.82,8.54,16.85,11.47,5.82-8.54ZM1266.56,147.47c-.3,0-.56-.09-.75-.22l-5.8,8.56c1.94,1.31,4.24,2,6.56,1.99l-.02-10.34ZM1267.31,147.26c-.19.13-.45.22-.74.22l.02,10.34c2.32,0,4.62-.7,6.55-2.02l-5.83-8.54ZM1267.6,146.91c-.03.08-.11.22-.29.34l5.83,8.54c1.94-1.32,3.44-3.23,4.23-5.49l-9.77-3.39ZM1267.6,146.68c.03.08.03.15,0,.23l9.77,3.39c.79-2.26.79-4.71.01-6.98l-9.78,3.35ZM1261.15,128.14l6.45,18.57,9.76-3.39-6.45-18.57-9.76,3.39ZM1261.17,121.12c-.79,2.27-.8,4.73-.02,7l9.78-3.35c-.03-.08-.03-.15,0-.23l-9.76-3.42ZM1265.43,115.63c-1.95,1.32-3.47,3.23-4.26,5.49l9.76,3.42c.03-.08.11-.22.29-.34l-5.79-8.56ZM1282.21,104.17l-16.8,11.47,5.83,8.54,16.8-11.47-5.83-8.54ZM1282.53,103.81c-.03.08-.1.21-.28.33l5.74,8.6c1.97-1.31,3.5-3.23,4.29-5.5l-9.75-3.43ZM1282.53,103.6s.02.07.02.1c0,.03,0,.06-.02.1l9.75,3.43c.8-2.28.8-4.75.01-7.03l-9.76,3.4ZM1282.25,103.28c.18.12.25.25.28.32l9.76-3.4c-.79-2.27-2.31-4.19-4.28-5.51l-5.76,8.58ZM1281.52,103.07c.29,0,.55.08.73.21l5.76-8.58c-1.96-1.32-4.28-1.99-6.62-1.96l.13,10.34ZM1260.68,103.07h20.78v-10.34h-20.78v10.34ZM1254.1,101.06c1.94,1.33,4.25,2.02,6.59,2.02l-.03-10.34c-.29,0-.55-.09-.72-.21l-5.84,8.53ZM1249.88,95.53c.77,2.28,2.28,4.2,4.22,5.53l5.84-8.53c-.18-.12-.25-.25-.27-.32l-9.79,3.32ZM1243.48,76.99l6.41,18.57,9.77-3.37-6.41-18.57-9.77,3.37ZM1242.46,71.31v-5.17,5.17ZM1236.55,75.3l-4.87-1.73v.03s4.87,1.7,4.87,1.7ZM1230.1,93.87l-4.88-1.7v.04s4.88,1.66,4.88,1.66ZM1224.19,97.91v-5.17s0,0,0,0v5.17ZM1203.41,97.91v-5.17h-.05s.05,5.17.05,5.17ZM1199.74,108.43l-2.97,4.23.06.04,2.91-4.27ZM1216.59,119.91l2.95-4.25-.04-.03-2.91,4.27ZM1218.83,126.44l4.89,1.69v-.02s-4.89-1.67-4.89-1.67ZM1212.43,145.01l4.86,1.76v-.04s.02-.04.02-.04l-4.89-1.69ZM1221.95,151.54l-2.91-4.27-.03.02,2.94,4.25ZM1238.79,140.06l2.91,4.27.03-.02-2.94-4.25ZM1246.07,140.06l-2.94,4.25.03.02,2.91-4.27ZM1262.92,151.54l-2.91,4.27h.01s2.9-4.27,2.9-4.27ZM1272.49,145.01l4.89-1.68v-.02s-4.89,1.7-4.89,1.7ZM1266.03,126.44l-4.89,1.67v.02s4.89-1.7,4.89-1.7ZM1268.32,119.91l2.89,4.28h.02s-2.92-4.28-2.92-4.28ZM1285.12,108.43l-2.87-4.3-.04.03,2.91,4.27ZM1281.46,97.91v5.17h.06s-.06-5.17-.06-5.17ZM1260.68,97.91v-5.17h-.01v5.17ZM1254.77,93.87l4.89-1.66v-.02s-4.89,1.69-4.89,1.69ZM1248.36,75.3l4.89-1.69-.02-.05-4.87,1.73Z"/>
  <path class="cls-9" d="M1248.36,75.3l6.41,18.57c.4,1.18,1.19,2.2,2.25,2.93,1.06.73,2.34,1.12,3.66,1.11h20.78c1.32-.02,2.61.36,3.68,1.08,1.07.72,1.87,1.74,2.28,2.92.41,1.18.41,2.44,0,3.62-.41,1.17-1.21,2.19-2.29,2.91l-16.8,11.47c-1.07.72-1.86,1.74-2.28,2.92-.41,1.17-.42,2.44-.01,3.62l6.45,18.57c.4,1.17.4,2.43,0,3.6s-1.2,2.19-2.26,2.91-2.34,1.12-3.65,1.12c-1.31,0-2.59-.38-3.65-1.1l-16.85-11.47c-1.05-.73-2.33-1.12-3.64-1.12s-2.58.39-3.64,1.12l-16.85,11.47c-1.06.73-2.34,1.13-3.66,1.13-1.32,0-2.6-.39-3.66-1.12-1.06-.73-1.85-1.76-2.25-2.93-.4-1.18-.38-2.44.04-3.61l6.41-18.57c.4-1.17.4-2.43,0-3.6-.4-1.17-1.19-2.2-2.24-2.93l-16.85-11.47c-1.04-.73-1.82-1.75-2.21-2.92-.39-1.17-.39-2.42.02-3.58s1.19-2.18,2.24-2.9c1.05-.72,2.32-1.12,3.62-1.13h20.78c1.31,0,2.59-.39,3.66-1.11,1.06-.73,1.85-1.75,2.25-2.93l6.45-18.57c.41-1.16,1.21-2.17,2.27-2.89s2.33-1.1,3.64-1.1,2.58.39,3.64,1.1,1.85,1.73,2.27,2.89Z"/>
  <g>
    <path class="cls-1" d="M854.74,833.75c26.56-25.81,85.22-74.05,85.22-74.05l-30.43-52.26-110.23,78.03c11.06,21.74,43.17,27.2,55.45,48.28Z"/>
    <path class="cls-1" d="M900.41,765.96l44.43,3.06c14.94,4.35,30.64,5.47,46.05,3.28,14.53-3.71,28.48-9.43,41.43-16.99l33.15-6.56,13.15-2.6s22.08,7.44,24.89.68c2.81-6.75-4.7-11.68-12.01-16.45-7.31-4.77-125.24-33.82-125.24-33.82,10.62-6.73,21.8-12.54,33.41-17.35,17.87-7.26,18.78-19.9,12.32-28.22-6.47-8.32-28.39,4.69-39.02,13.65-8.53,7.19-31.95,6.07-48.93,15.89-16.98,9.82-25.27,35.36-25.27,35.36-27.64,21.26,1.63,50.05,1.63,50.05Z"/>
    <path class="cls-16" d="M1032.92,756.04c3.28-1.7,6.57-3.39,9.85-5.09,2.35-1.22,4.71-2.43,7.06-3.65l2.53-1.31c.39-.2.95-.38,1.29-.66.01-.01.07-.02.07-.04l-.74.2c.2-.02.4-.06.58-.14.24-.08.45-.19.64-.35.44-.37.58-.91.64-1.46.23-2.05-.59-4.08-1.67-5.79-2.24-3.56-6.31-5.65-10.45-5.97-3.78-.3-7.38,1.11-10.95,2.1-4.4,1.22-8.91,1.89-13.29,3.21-5.33,1.6-10.57,3.49-15.88,5.15-3.99,1.25-7.85,2.64-11.93,3.53-.5.11-1.39.61-1.22,1.25.18.67,1.19.58,1.68.47,3.82-.84,7.4-2.14,11.13-3.28,4.98-1.53,9.88-3.29,14.85-4.84,2.43-.76,4.88-1.48,7.37-2.06,2.33-.55,4.69-.89,7.01-1.5,3.67-.98,7.57-2.79,11.44-1.97,2.6.55,5,1.82,6.7,3.89.88,1.08,1.55,2.29,1.99,3.61.22.67.35,1.36.34,2.07,0,.19-.01.37-.04.56-.04.25-.28.67.05.27l1.35-.6c-.88.08-1.76.71-2.53,1.1-1.63.84-3.25,1.68-4.88,2.52-3.82,1.97-7.65,3.95-11.47,5.92-.91.47-1.82.94-2.73,1.41-1.77.91-.16,2.16,1.21,1.45h0Z"/>
    <path class="cls-16" d="M981.03,724.07c11.71.5,23.18,3.46,34.31,6.96.68.22,1.58.02,2.05-.55.41-.51.29-1.2-.38-1.41-11.33-3.57-23.05-6.6-34.97-7.11-.67-.03-1.6.19-1.89.89-.26.63.23,1.19.88,1.22h0Z"/>
    <path class="cls-16" d="M978.49,739.22c.58-3.07.59-6.21-.1-9.26s-2.27-5.82-3.88-8.61c-2.85-4.93-7.52-8.48-12.96-10.08-.62-.18-1.47.08-2.03.36-.27.14-.98.6-.35.78,5.34,1.57,9.92,5.17,12.63,10.04,1.44,2.59,2.88,4.96,3.6,7.88.76,3.08.82,6.27.23,9.39-.13.69,2.72.23,2.86-.5h0Z"/>
  </g>
  <path class="cls-1" d="M488.65,561.12c-1.58-4.34,0-55.34,0-55.34l-79.36,10.51-79.36-10.51s1.58,51,0,55.34c-1.58,4.34-67.66,24.45-67.66,24.45,0,0,44.83,40.25,147.89,40.25s145.76-39.46,145.76-39.46c0,0-65.7-20.9-67.28-25.24Z"/>
  <path class="cls-16" d="M330.4,526.38s16.22,22.71,29.2,22.94c17.36.31,80.61.94,104.57.39,11.62-.27,17.09-12.12,23.99-20.43v-9.04l-62.7,9.46-95.07-10.01v6.68Z"/>
  <path class="cls-15" d="M157.1,1080.54l44.18-221.44-42.78-243.77s-46.59,4.04-71.98,80.21c-21.66,81.6-62.11,349.05-59.47,401.23.85,15.53,6.13,53.26,13.04,98.3h121.82l-4.81-114.52Z"/>
  <path class="cls-15" d="M732.41,959.71c-2.72-3.21-14.79-9.71-16.53-13.46-7.96-17.16-27.77-8.31-26.57-26.8.28-4.31.71-8.63,1.38-12.91.83-5.28,2.35-10.55,3.94-15.66,3.15-10.07,17.8-6.25,22.41-15.8,8.24-17.06,25.04-18.99,32.97-36.18l-66.91-174.18c-6.06-21.09-22.68-48.61-44.57-55.83l-65.39-20.1-26,185.83,81.22,162.25c7.76,17.3,33.34,35,51.24,43.1,19.14,8.66,31.81,8.66,48.21,8.66-1.57-1.32,5.9-27.35,4.58-28.9Z"/>
  <path class="cls-15" d="M713.38,855.17c-8.15,6.62-15.91,13.73-22.81,21.63-3.24,3.7-6.26,7.54-8.92,11.68-2.43,3.78-4.69,7.67-6.79,11.65-4.38,8.32-8.1,17.06-10.72,26.18-2.5,8.72-4.09,17.9-3.64,27.18.19,3.93.78,7.71,2.17,11.47.6,1.63.52,4.77,1.31,6.32,17.75,14,34.42,22.22,57.59,20.08,14.11-3.45,29.58-13.75,41.4-21.82,22.66-15.62,56.46-59.28,77.74-82.43l94.37-110.17c-8.66-5.52-16.5-13.63-22.58-19.88-5.82-5.99-11.52-12.07-17.35-18.05-4.95-5.08-5.31-6.48-9.35-12.29-2.47-3.54-3.05-6.26-5.07-10.02l-141.39,104.9"/>
  <path class="cls-15" d="M631.25,1103.52c1.89-34.69.58-114.34,1.43-161.55,2.64-19.49,10.2-2.8,21.38-40.22,9.86-32.69-46.48-303.31-46.48-303.31l-84.43-28.23-24.69-5.05-1.07-1.09c-.21,1.47-.21,2.96,0,4.43l-.88,2.41c-6.1,27.53-38.51,48.91-65.92,51.33-9.51.66-32.66,2.83-42.17,2.18-29.66-1.74-53.54-18.94-66.46-43.47l-4.42-15.68-46.74,12.17-128.13,43.07,16.71,217.12c2.56,45.89-10.15,54.35,8.95,95.73l5.14,180.37,32.41-12.19"/>
  <path class="cls-6" d="M741.32,818.3c-7.1,6.5-13.79,13.51-20.23,20.66-5.89,6.54-11.54,13.32-16.76,20.41-5.12,6.96-9.89,14.26-13.54,22.1-3.3,7.11-6.05,15.17-4.85,23.11.17,1.11,3.08.42,2.9-.78-1.03-6.83,1.07-13.88,3.75-20.11,3.38-7.86,8-15.16,12.97-22.1,9.17-12.81,19.78-24.61,30.92-35.73,2.36-2.36,4.74-4.7,7.2-6.95.48-.44.25-.98-.31-1.16-.67-.21-1.55.09-2.05.55h0Z"/>
  <g>
    <path class="cls-15" d="M317.55,565.27s6.04,62.52,87.88,59.51c94.21-3.47,93.09-62.53,93.09-62.53l25.04,6.04s-13.72,81.46-118.67,80.41c-104.95-1.05-109.41-77.1-109.41-77.1l22.06-6.33Z"/>
    <path class="cls-6" d="M316.1,565.66c.22,2.3.78,4.59,1.37,6.81,1.48,5.55,3.68,10.91,6.49,15.91,3.91,6.97,9.03,13.25,15.13,18.42,7.96,6.75,17.46,11.51,27.44,14.45,13.95,4.12,28.63,4.81,43.07,3.96,14.43-.85,28.92-3.12,42.58-7.99,9.64-3.44,18.91-8.26,26.74-14.9,5.73-4.86,10.65-10.65,14.3-17.23,2.58-4.64,4.52-9.65,5.68-14.83.57-2.55,1.19-5.4,1.07-8.04,0-.12,0-.25,0-.37-.88.33-1.75.66-2.63.99,7.32,1.76,14.64,3.53,21.96,5.29,1.03.25,2.06.5,3.09.74l-.26-.38c-.45,2.65-1.24,5.27-2.06,7.83-2.11,6.56-4.95,12.88-8.36,18.86-4.82,8.44-10.87,16.17-17.91,22.87-8.89,8.45-19.38,15.15-30.68,19.89-14.96,6.27-31.11,9.19-47.27,9.9-18.02.79-36.47-.67-53.84-5.71-12.52-3.64-24.51-9.29-34.75-17.42-7.75-6.15-14.4-13.64-19.49-22.13-3.74-6.24-6.66-12.99-8.63-19.99-1-3.56-1.82-7.22-2.16-10.91-.02-.17-.03-.33-.04-.5l-1.3.93c6.44-1.85,12.87-3.69,19.31-5.54.92-.26,1.84-.53,2.76-.79.32-.09,1.44-.42,1.3-.93s-1.32-.23-1.59-.15c-6.44,1.85-12.87,3.69-19.31,5.54-.92.26-1.84.53-2.76.79-.39.11-1.34.39-1.3.93.16,2.64.7,5.29,1.29,7.86,1.5,6.52,3.85,12.85,6.91,18.81,4.33,8.43,10.11,16.09,17.02,22.57,9.08,8.51,20.01,14.85,31.62,19.23,16.14,6.08,33.51,8.5,50.68,8.86,17.66.38,35.51-1.4,52.39-6.78,12.76-4.07,24.89-10.14,35.42-18.46,8.3-6.56,15.54-14.4,21.41-23.2,4.35-6.53,7.98-13.54,10.73-20.89,1.38-3.7,2.61-7.5,3.38-11.38.04-.18.07-.36.1-.54.03-.19-.05-.33-.26-.38-7.32-1.76-14.64-3.53-21.96-5.29-1.03-.25-2.06-.5-3.09-.74-.61-.15-2.64.09-2.63.99.03,1.84-.2,3.48-.51,5.34-.75,4.59-2.16,9.07-4.07,13.31-2.77,6.14-6.63,11.74-11.31,16.58-6.37,6.59-14.13,11.67-22.45,15.46-11.8,5.39-24.68,8.2-37.52,9.67-14.95,1.72-30.38,1.97-45.16-1.16-10.64-2.25-20.94-6.3-29.82-12.64-6.76-4.83-12.61-10.9-17.12-17.87-3.35-5.17-6-10.8-7.87-16.67-.98-3.08-1.61-6.17-2.19-9.34-.03-.14-.04-.29-.05-.44-.07-.68-2.98-.11-2.9.78Z"/>
  </g>
  <g>
    <path class="cls-3" d="M379.96,941.97c-13.46-2.25-24.85-8.86-35.36-16.91-31.78-24.35-45.77-56.92-42.9-96.57,2.32-32.15,22.16-55.85,51.58-62.95,34.91-8.42,70.01,15.37,74.35,50.61.67,5.41,1.86,12.21-4.98,14.47-6.71,2.22-10.31-2.67-13.48-8.24-8.51-14.93-21.98-21.04-38.78-19.63-16.07,1.35-27.58,9.72-33.58,24.68-10.9,27.19-6.88,52.95,8.6,77.29,7.97,12.53,18.1,23.16,29.36,32.75,1.74,1.49,3.46,3,5.19,4.5Z"/>
    <path class="cls-14" d="M393.96,946.57c9.66-2.17,19.48-3.83,28.96-6.63,22.18-6.55,42.32-16.49,54.41-37.61,7.43-12.98,10.55-26.97,6.58-41.74-4.13-15.37-20.97-25.26-36.69-22.11-2.74.55-5.5,1.34-8.26,1.4-3.53.07-7.12-.48-8.91-4.27-1.83-3.89-.72-7.31,2.1-10.22,12.5-12.95,27.68-16.89,44.81-12.25,42.67,11.55,47.45,55.8,31.89,81.84-18.64,31.2-47.81,45.88-82.76,50.98-10.67,1.56-21.33,1.37-32.12.59Z"/>
    <path class="cls-3" d="M425.77,732.54c11.64.15,21.28,9.92,21.24,21.54-.04,11.87-10.24,21.78-22.02,21.41-11.58-.36-21.18-10.38-20.95-21.85.23-11.43,10.34-21.24,21.73-21.1Z"/>
    <path class="cls-14" d="M469.71,791.68c-.03-8.49,6.41-15.23,14.76-15.44,8.18-.21,15.13,6.59,15.28,14.97.16,8.82-6.61,15.87-15.16,15.78-8.35-.09-14.86-6.77-14.89-15.3Z"/>
  </g>
  <path class="cls-1" d="M307.67,390.06s-12.07-23.39-20.27-23.34c-4.99.03-17.02,13.34-16.88,26.05.18,17.01,12.03,36.32,14.98,46.24,2.95,9.92,2.46,24.17,15.68,24.08,5.23-.04,11.7-10.98,11.7-10.98,0,0-2.47-46.63-5.2-62.05Z"/>
  <path class="cls-16" d="M303.51,413.2c-3.01-6.37-6.33-12.67-10.48-18.38-2.18-3-4.62-5.92-7.62-8.14-1.19-.88-2.56-1.71-4.02-2.01-1.7-.35-2.46.95-3.14,2.3-2.93,5.77-2.71,12.64-1.16,18.77.22.86,2.39.29,2.17-.58-1.22-4.83-1.59-9.93-.22-14.77.36-1.27.83-2.51,1.47-3.67.18-.34.38-.66.59-.98.06-.1.42-.57.15-.22l-1.29.45c.06,0,.18,0,.23.02-.19-.11-.13-.04.08.02.14.04.27.07.41.11.72.22,1.76.81,2.59,1.37,4.15,2.86,7.28,7.28,9.99,11.45,3.07,4.73,5.69,9.75,8.1,14.84.39.83,2.53.17,2.17-.58h0Z"/>
  <path class="cls-16" d="M298.44,415.6c-1.68-.07-3.48.36-4.51,1.8-.96,1.35-.99,3.14-.93,4.72.08,2.02.43,4.02.71,6.01.22,1.56.65,3.47.17,5.03-.05.16-.31.52-.31.65.01.27.66-.09.66-.05,0,0-.22-.1-.24-.14-.43-.74-.99-1.33-1.35-2.14-1.24-2.8-1.94-5.87-2.53-8.86-.77-3.9-1.11-6.78-.68-10.71.45-4.12,1.52-10.16,5.81-12.02,1.38-.6.14-1.49-.9-1.04-4.21,1.82-5.93,6.48-6.71,10.68-.57,3.06-.86,6.29-.42,9.39.53,3.67,1.24,7.37,2.41,10.9.52,1.57,1.26,4.27,2.9,5.08,1.47.73,3.07-.42,3.5-1.84.5-1.61.13-3.54-.09-5.16-.31-2.27-2.58-11.13,1.69-10.95.44.02,1.24-.15,1.43-.62s-.16-.72-.62-.74h0Z"/>
  <path class="cls-1" d="M506.5,390.06s12.07-23.39,20.27-23.34c4.99.03,17.02,13.34,16.88,26.05-.18,17.01-12.03,36.32-14.98,46.24-2.95,9.92-2.46,24.17-15.68,24.08-5.23-.04-11.7-10.98-11.7-10.98,0,0,2.47-46.63,5.2-62.05Z"/>
  <path class="cls-16" d="M512.78,413.57c3.56-7.52,7.52-15.15,12.97-21.49,1.33-1.55,2.77-3.05,4.41-4.29,1.02-.76,1.68-1.19,2.8-1.63.24-.09-.26.08.06-.02.08-.02.16-.05.24-.07s.52-.13.26-.07.57,0-.08-.01l-.61-.27c1.13,1.4,1.8,3.25,2.29,4.95,1.4,4.87,1.02,10.02-.21,14.88-.24.95,1.97.67,2.19-.21,1.44-5.73,1.73-12.06-.64-17.59-.51-1.19-1.18-3.37-2.78-3.18-1.48.17-2.91.98-4.13,1.79-2.81,1.88-5.14,4.49-7.19,7.14-4.72,6.09-8.36,12.96-11.65,19.9-.5,1.06,1.69.96,2.06.17h0Z"/>
  <path class="cls-16" d="M515.68,416.76c4.53-.19,3.3,6.51,2.91,9.21-.25,1.75-2.11,8.83,1.21,8.94,1.89.07,2.99-1.43,3.72-2.96,1.37-2.88,2.08-6.1,2.69-9.21.42-2.14.94-4.36.94-6.56,0-1.64-.1-3.28-.3-4.9-.56-4.56-1.95-10.34-6.6-12.35-.51-.22-2.48.58-1.77.89,3.95,1.71,5.33,6.64,5.98,10.5.48,2.88.72,5.83.29,8.73-.5,3.43-1.17,6.87-2.22,10.18-.38,1.2-.8,2.4-1.39,3.52-.2.38-.46.7-.67,1.07-.03.05-.3.29-.3.31-.03-.1.89-.04.88-.18,0-.03-.15-.07-.16-.1-.06-.21-.4-.47-.5-.7-.13-.28-.19-.6-.23-.9-.11-.77-.07-1.56,0-2.32.17-2.02.56-4.01.8-6.02.22-1.9.51-4.1-.23-5.93s-2.37-2.25-4.14-2.17c-.35.01-1.3.16-1.45.54s.13.44.53.42h0Z"/>
  <path class="cls-1" d="M501.96,504.41c3.05-2.98,7.02-17.3,7.04-21.6.07-12.74.69-16.38,1.52-35.75.85-19.37,4.42-36.64,6.12-55.16,1.68-18.54,3.78-91.09-1.7-105.84-1.63-4.38-8.54-10.99-18.39-18.09-23.19-16.74-62.73-36.24-88.15-36.24-36.22,0-101.07,39.59-106.56,54.33-5.47,14.75-3.37,87.3-1.68,105.84,1.68,18.52,5.27,35.79,6.12,55.16.83,19.37-.18,41.7,2.84,48.9.67,1.58,4.21,5.83,5.35,7.46,7.63,11.17,16.82,14.12,27.77,25.4,0,0,8.39,9.84,15.82,13.89,7.43,4.05,104.97.68,109.78,0,4.82-.68,34.12-38.3,34.12-38.3"/>
  <path class="cls-7" d="M299.4,379.37s-3.61-3.72-9.66-21.94c-2.2-6.63-5.48-79.89-1.63-93.4,6.17-21.66,72.13-56.59,121.49-54.77,62.68,2.31,111.82,30.67,119.88,45.53,6.53,12.06.93,85.2-3.41,100.89-2.47,8.93-8.44,19.78-8.44,19.78,0,0,.1-32.69-8.22-49.18-8.32-16.49-7.04-49.24-11.16-53.75-4.12-4.51-46.57-15.17-88.64-15.44-50.34-.33-86.98,15.2-89.5,17.12-2.52,1.92-2.98,34.4-4.95,43.86-1.98,9.46-13.95,33.78-15.75,61.3Z"/>
  <path class="cls-7" d="M415,440.04c-4.94,2.01-8.56,2.09-11.8-.77-.72-.63-3.25.06-2.24.95,4.28,3.77,12.42,3.2,16.9-.08.44-.33.39-.79-.14-1.03-.55-.25-2.25.58-2.72.93"/>
  <path class="cls-7" d="M399.17,437.96c-3.14-.92-6.5-1.07-9.74-.72-.47.06-1.04.36-1.32.77-.22.32-.21.68.19.83,1.65.64,3.61.65,5.32.28.54-.12,1.23-.4,1.44-.97.19-.53-.39-.73-.82-.64-1.42.31-2.94.28-4.3-.24-.38.53-.76,1.06-1.14,1.6,2.9-.32,5.9-.15,8.71.67.56.16,1.26-.15,1.65-.53.3-.29.56-.87,0-1.04"/>
  <path class="cls-7" d="M419.65,438.7c3.13-.95,6.48-1.14,9.73-.83.48.05,1.05.35,1.33.75.22.31.21.68-.18.83-1.64.66-3.6.69-5.32.34-.54-.11-1.23-.39-1.45-.96-.2-.52.38-.73.81-.65,1.42.29,2.94.25,4.3-.29.39.53.77,1.05,1.16,1.58-2.9-.28-5.9-.08-8.7.77-.56.17-1.26-.13-1.66-.52-.3-.28-.57-.86-.01-1.04"/>
  <path class="cls-7" d="M386.37,439.45c-3.21-.1-6.99-1.92-8.57-5.04-2.38-4.73-.16-10.34,3.85-13.36.44-.33.2-.75-.24-.88-.58-.16-1.26.12-1.71.46-3.49,2.63-5.76,6.91-5.24,11.34.49,4.14,3.57,7.04,7.41,8.24,1.14.36,2.36.6,3.56.64.49.01,1.36-.17,1.6-.67.24-.5-.2-.72-.66-.73"/>
  <path class="cls-7" d="M432.77,439.57c3.21-.1,6.99-1.92,8.57-5.04,2.38-4.73.16-10.34-3.85-13.36-.44-.33-.2-.75.24-.88.58-.16,1.26.12,1.71.46,3.49,2.63,5.76,6.91,5.24,11.34-.49,4.14-3.57,7.04-7.41,8.24-1.14.36-2.36.6-3.56.64-.49.01-1.36-.17-1.6-.67-.24-.5.2-.72.66-.73"/>
  <path class="cls-7" d="M354.4,370.34c-3.26-1.69-7.07-.23-9.2,1.66-.5.44-1.85,1.71-2.48,3.85-.8,2.74.29,5.84,2.01,7.72,2.29,2.52,6.12,2.95,9.05,1.58,3.98-1.86,5.28-6.65,4.29-10.13-.18-.64-1.04-3.32-3.67-4.69"/>
  <path class="cls-7" d="M464.26,371.57c3.26-1.69,7.07-.23,9.2,1.66.5.44,1.85,1.71,2.48,3.85.8,2.74-.29,5.84-2.01,7.72-2.29,2.52-6.12,2.95-9.05,1.58-3.98-1.86-5.28-6.65-4.29-10.13.18-.64,1.04-3.32,3.67-4.69"/>
  <path class="cls-7" d="M436.46,384.68s18.78-13.65,28.37-14.53c14.01-1.29,31.27,5.89,36.23,12.31,0,0-22.84-10.73-32.69-9.55-9.41,1.12-31.92,11.78-31.92,11.78Z"/>
  <path class="cls-7" d="M383.28,382.61s-18.78-13.65-28.37-14.53c-14.01-1.29-31.27,5.89-36.23,12.31,0,0,22.84-10.73,32.69-9.55,9.41,1.12,31.92,11.78,31.92,11.78Z"/>
  <path class="cls-7" d="M384.37,333.32c-.02,3.34-.04,6.69-.07,10.05-.02,2.56-.05,5.11-.08,7.66-7.5-2.19-13.93-3.63-18.78-4.57-9.62-1.88-19.65-3.07-29.41-1.5-4.67.75-8.77,2.02-12.67,4.58-1.23.81-4.56,4.32-6.39,3.4-.75-.38.5-4.48.63-4.91,2.57-8.29,9.16-11.7,17.21-13.64,16.42-3.94,32.91-3.42,49.57-1.07"/>
  <path class="cls-7" d="M435.87,334.54c.02,3.34.04,6.69.07,10.05.02,2.56.05,5.11.08,7.66,7.39-2.19,13.71-3.63,18.49-4.57,9.47-1.88,19.34-3.07,28.95-1.5,4.6.75,8.63,2.02,12.47,4.58,1.21.81,4.49,4.32,6.29,3.4.74-.38-.49-4.48-.62-4.91-2.52-8.29-9.01-11.7-16.94-13.64-16.16-3.94-32.39-3.42-48.79-1.07"/>
  <path class="cls-2" d="M409.22,467.15c-19.08,0-50-2.18-50-2.18,0,0,5.77,45.92,50,45.92s50-45.92,50-45.92c0,0-30.92,2.18-50,2.18Z"/>
  <path class="cls-4" d="M409.4,467.15c-9.07,0-45.64-1.49-45.64-1.49,0,0,12.09,28.69,44.9,28.69,35.57,0,46.02-28.41,46.02-28.41l-45.29,1.21Z"/>
  <path class="cls-8" d="M409.8,468.47c-9.07,0-36.68-1.49-36.68-1.49,0,0,9.94,9.66,37.15,9.66s35.85-9.38,35.85-9.38l-36.33,1.21Z"/>
  <path class="cls-2" d="M461.23,462.26c-.96-.23-6.25,1.47-10.75,1.1-7.51-.63-16.59-2.55-22.03-2.96-9.29-.69-15.19,2.87-19.22,2.87s-9.94-3.56-19.23-2.87c-5.44.41-14.52,2.33-22.03,2.96-4.51.38-9.79-1.33-10.75-1.1-1.34.32,1.26,9.88,52.02,9.88s53.33-9.57,51.99-9.88Z"/>
  <path class="cls-6" d="M164.58,732.95c.79,25.2,1.48,50.4,2,75.6.42,20.08.72,40.16.93,60.24.18,17.94.29,35.88.38,53.82.09,18.48.18,36.96.34,55.44.18,21.99.45,43.97.82,65.96.05,3.07.1,6.14.16,9.22,0,.56,2.91.1,2.9-.78-.4-22.6-.7-45.2-.91-67.81-.17-18.75-.27-37.5-.37-56.24-.09-17.86-.18-35.72-.34-53.58-.18-19.66-.45-39.32-.83-58.97-.47-24.43-1.1-48.86-1.84-73.28-.1-3.46-.21-6.92-.32-10.38-.02-.57-2.93-.1-2.9.78h0Z"/>
  <path class="cls-6" d="M635.88,741.4c0,14.54-.05,29.09-.3,43.63-.16,9.44-.41,18.87-.79,28.3-.34,8.49-.75,16.98-1.13,25.47-.52,11.65-.97,23.31-1.33,34.97-.6,18.92-1.03,37.85-1.39,56.78-.06,3.07-.11,6.14-.17,9.21,0,.52,2.88.11,2.9-.78.36-20.17.78-40.35,1.39-60.51.37-12.32.81-24.64,1.35-36.95.38-8.66.8-17.31,1.17-25.97.38-9.1.66-18.2.84-27.3.27-13.65.34-27.3.36-40.95,0-2.22,0-4.45,0-6.67,0-.54-2.9-.11-2.9.78h0Z"/>
  <path class="cls-10" d="M1044.21,494.82l9.3,31.03,1.62,12.07-7.76.83-15.4-43.93h12.23ZM1048.96,532.82l11.36-37.99h12.23l-17.22,49.27c-.37,1.08-.87,2.24-1.5,3.48-.61,1.24-1.44,2.41-2.49,3.52-1.03,1.13-2.34,2.06-3.92,2.77-1.56.71-3.47,1.07-5.74,1.07-1.08,0-1.97-.07-2.65-.2s-1.5-.32-2.45-.55v-8.35h.91c.32.03.62.04.91.04,1.5,0,2.73-.17,3.68-.51s1.72-.87,2.3-1.58c.58-.69,1.04-1.58,1.39-2.69l3.21-8.27ZM1018.13,511.56l.08,6.45h-6.37c-1.5,0-2.81.17-3.92.51-1.11.34-2.02.83-2.73,1.46-.71.61-1.24,1.32-1.58,2.14-.32.82-.47,1.71-.47,2.69s.22,1.86.67,2.65c.45.77,1.09,1.37,1.94,1.82.84.42,1.83.63,2.97.63,1.72,0,3.21-.34,4.47-1.03,1.27-.69,2.24-1.53,2.93-2.53.71-1,1.08-1.95,1.11-2.85l3.01,4.83c-.42,1.08-1,2.2-1.74,3.36-.71,1.16-1.62,2.26-2.73,3.28-1.11,1-2.44,1.83-4,2.49-1.56.63-3.4.95-5.54.95-2.72,0-5.18-.54-7.4-1.62-2.19-1.11-3.93-2.63-5.22-4.55-1.27-1.95-1.9-4.17-1.9-6.65,0-2.24.42-4.23,1.27-5.98s2.08-3.21,3.72-4.39c1.66-1.21,3.73-2.12,6.21-2.73,2.48-.63,5.36-.95,8.63-.95h6.61ZM1016.63,527.99v-19.08c0-1.37-.22-2.55-.67-3.52-.45-1-1.15-1.78-2.1-2.34-.92-.55-2.12-.83-3.6-.83-1.27,0-2.36.22-3.28.67-.92.42-1.64,1.04-2.14,1.86-.5.79-.75,1.73-.75,2.81h-11.4c0-1.82.42-3.55,1.27-5.18s2.07-3.07,3.68-4.31c1.61-1.27,3.52-2.26,5.74-2.97,2.24-.71,4.75-1.07,7.52-1.07,3.32,0,6.28.55,8.87,1.66s4.62,2.77,6.09,4.99c1.5,2.22,2.26,4.99,2.26,8.31v18.32c0,2.35.15,4.27.44,5.78.29,1.48.71,2.77,1.27,3.88v.67h-11.52c-.55-1.16-.98-2.61-1.27-4.35-.26-1.77-.4-3.54-.4-5.3ZM984.09,476.85v60.79h-11.44v-60.79h11.44ZM942.97,517.1h-14.68v-9.26h14.68c2.27,0,4.12-.37,5.54-1.11,1.42-.77,2.47-1.82,3.13-3.17s.99-2.86.99-4.55-.33-3.31-.99-4.79c-.66-1.48-1.7-2.66-3.13-3.56s-3.27-1.35-5.54-1.35h-10.57v48.32h-11.87v-57.62h22.44c4.51,0,8.38.82,11.6,2.45,3.25,1.61,5.73,3.84,7.44,6.69,1.72,2.85,2.57,6.11,2.57,9.78s-.86,6.94-2.57,9.66c-1.72,2.72-4.2,4.82-7.44,6.29-3.22,1.48-7.08,2.22-11.6,2.22Z"/>
  <path class="cls-11" d="M1020.89,246.31c1.56.13,3.08.59,4.44,1.35,1.36.76,2.54,1.8,3.46,3.05,4.43,4.83,8.91,9.7,13.13,14.56,12.42,13.92,25.37,28.48,39.1,41.55.89.91,1.71,1.89,2.47,2.91,2.53-2.71,5.02-5.3,7.43-7.83,13.9-14.56,24.9-25.94,24.78-39.51.11-9.79-2.01-19.49-6.19-28.39-4.18-8.9-10.33-16.77-17.99-23.06-21.24-17.88-58.49-25.53-99.31,6.58-3.71,2.91-7.37,6.09-11.02,9.11-8.41,6.99-17.08,14.21-25.96,20.91-8.88,6.7-8.59,18.81-4.4,24.17,7.46,9.7,17.82,11.15,27.78,3.9,9.95-7.25,22.61-16.54,34.52-25.88,2.13-1.97,4.87-3.17,7.78-3.41ZM947.99,197.25c-24.24,0-49.02,18.84-56.8,43.41-7.93,25.16-3.68,47.63,12.33,64.96,15.3,16.54,32.11,32.43,48.39,47.81l13.07,12.4c4.99,4.77,9.89,9.61,14.85,14.56,4.96,4.95,10.31,10.16,15.54,15.14,1.07,1.17,2.43,2.06,3.95,2.57,1.52.51,3.15.63,4.73.34,1.26-.35,2.4-1.01,3.31-1.93.91-.91,1.56-2.05,1.89-3.29.98-2.91,0-5.27-3.48-8.73l-6.36-6.32-18.06-17.47c-1.1-.94-1.97-2.11-2.56-3.42-.59-1.31-.88-2.72-.86-4.15.12-1.26.51-2.48,1.16-3.58.65-1.1,1.53-2.04,2.58-2.77,5.94-4.63,10.43.23,12.33,2.3,5.94,6.67,12.77,13.04,19.28,19.22l4.16,3.93c.85.99,1.9,1.79,3.08,2.35,1.18.57,2.47.88,3.79.93,1.31.05,2.62-.17,3.85-.65,1.22-.48,2.33-1.2,3.25-2.12.62-.51,1.12-1.13,1.49-1.84s.57-1.48.62-2.27c-.35-3.1-1.91-5.94-4.34-7.95-4.52-4.54-9.09-9-13.67-13.45-2.76-2.71-5.53-5.39-8.26-8.09l-.71-.7c-1.37-1.01-2.5-2.28-3.34-3.74s-1.36-3.07-1.53-4.74c.06-1.21.39-2.4.94-3.48.56-1.08,1.34-2.04,2.29-2.81.87-.87,1.92-1.56,3.07-2.01,1.16-.45,2.4-.66,3.64-.61,1.72.34,3.35,1.04,4.78,2.04,1.43,1,2.62,2.29,3.51,3.78l.53.64c4.18,4.87,8.68,9.46,13.49,13.74,2.44,2.27,4.87,4.57,7.25,6.93,4.31,4.31,9.98,5.07,13.46,1.81.68-.58,1.24-1.3,1.63-2.1.39-.8.62-1.67.66-2.56-.32-3.09-1.84-5.93-4.25-7.95-2.23-2.24-4.52-4.43-6.77-6.64-4.07-3.9-8.26-7.95-12.21-12.17-.71-.68-1.45-1.32-2.23-1.92-2.53-2.1-5.7-4.69-5.94-8.47-.05-1.16.16-2.32.6-3.4s1.11-2.05,1.96-2.86c.84-.97,1.87-1.75,3.04-2.3,1.17-.55,2.44-.86,3.73-.9,4.75,0,8.56,3.9,11.59,7.02l.24.26c7.49,7.63,14.44,14.56,21.3,20.76,1.25,1.32,2.97,2.1,4.81,2.17,1.83.07,3.62-.57,4.97-1.79,2.05-1.48,4.49-4.11,1.96-9.49-.99-2.07-2.33-3.97-3.98-5.59-13.9-13.39-26.92-27.89-39.54-41.93-4.34-4.86-8.67-9.7-13.07-14.56q-2.23-2.62-5.38-.2c-11.88,9.43-24.3,18.46-34.73,26.2-13.28,9.64-28.22,7.51-38.11-5.39-6.77-8.73-5.73-25.8,5.76-34.47,8.91-6.58,17.38-13.74,25.7-20.67l8.23-6.81c-4.33-5.11-9.72-9.26-15.82-12.16-6.1-2.9-12.76-4.49-19.53-4.67l-1.25-.17ZM1002.32,405.87c-4.59-.13-8.96-2-12.18-5.21-5.29-5.01-10.55-10.22-15.63-15.23-5.08-5.01-9.77-9.64-14.85-14.38l-13.04-12.37c-16.22-15.43-33.12-31.45-48.6-48.19-17.62-19.04-22.7-44.61-13.78-72.06,8.91-28.42,37.08-49.26,65.36-48.51,15.98.41,29.41,6.81,40.91,19.54,43.14-32.17,82.82-23.44,105.85-4.19,8.48,6.96,15.27,15.68,19.9,25.53,4.62,9.85,6.96,20.58,6.84,31.42,0,16.45-11.88,28.82-26.74,44.52-2.97,3.06-5.94,6.2-8.91,9.55,1.28,2.92,1.49,6.2.58,9.25s-2.88,5.7-5.57,7.49c-2.74,2.25-6.24,3.4-9.81,3.23s-6.94-1.66-9.44-4.16c-6.95-6.43-14.02-13.31-21.57-21.02l-.24-.26c-1.75-1.78-4.66-4.78-6.24-4.78-.45,0-1.01.5-1.37.87-.27.23-.47.52-.59.84,0,.73,2.26,2.47,3.3,3.35,1.05.8,2.04,1.67,2.97,2.59,3.8,4.08,7.96,8.07,11.88,11.91,2.32,2.21,4.6,4.45,6.89,6.7,1.91,1.69,3.45,3.73,4.54,6.01,1.09,2.28,1.71,4.75,1.81,7.27-.05,1.85-.48,3.68-1.26,5.37-.79,1.69-1.91,3.2-3.31,4.45-6.48,6.03-16.73,5.18-23.77-1.98-2.32-2.3-4.72-4.54-7.1-6.75-5.03-4.55-9.75-9.41-14.14-14.56l-.59-.73c-.62-.79-2.32-2.91-2.97-2.91-.41.13-.78.38-1.07.7-.8.7-.86,1.05-.86,1.08,0,.61,1.78,2.33,2.64,3.14l.77.73c2.73,2.71,5.5,5.39,8.26,8.09,4.57,4.48,9.18,8.97,13.7,13.51,1.9,1.63,3.45,3.61,4.56,5.83,1.11,2.22,1.76,4.63,1.91,7.1-.06,1.74-.48,3.46-1.22,5.04-.74,1.58-1.8,3.01-3.12,4.19-1.61,1.58-3.52,2.83-5.64,3.67-2.11.84-4.38,1.24-6.66,1.19-2.28-.05-4.52-.55-6.6-1.48-2.07-.93-3.93-2.25-5.47-3.91l-4.1-3.9c-6.62-6.26-13.46-12.75-19.7-19.62-.51-.63-1.1-1.2-1.75-1.69-.16.09-.3.18-.45.29-.62.47-.89.87-.89,1.05s.21.96,1.28,2.01c5.94,5.82,11.88,11.65,18,17.67l6.33,6.14c3.74,3.67,7.72,8.73,5.29,16.13-.83,3-2.64,5.65-5.16,7.54-2.52,1.89-5.6,2.91-8.77,2.91h-.42Z"/>
</svg>