<?xml version="1.0" encoding="UTF-8"?>
<svg id="Layer_9" data-name="Layer 9" xmlns="http://www.w3.org/2000/svg" xmlns:xlink="http://www.w3.org/1999/xlink" viewBox="0 0 1163.45 1166.32">
  <defs>
    <style>
      .cls-1 {
        fill: #cd8c2a;
      }

      .cls-1, .cls-2, .cls-3, .cls-4, .cls-5, .cls-6, .cls-7, .cls-8, .cls-9, .cls-10, .cls-11, .cls-12, .cls-13, .cls-14, .cls-15, .cls-16, .cls-17, .cls-18, .cls-19, .cls-20, .cls-21, .cls-22 {
        stroke-width: 0px;
      }

      .cls-2 {
        fill: #af6b4e;
      }

      .cls-3 {
        fill: #6b3825;
      }

      .cls-4 {
        fill: #da3715;
      }

      .cls-23 {
        clip-path: url(#clippath);
      }

      .cls-5 {
        fill: none;
      }

      .cls-6 {
        fill: #1b1312;
      }

      .cls-7 {
        fill: #3f261b;
      }

      .cls-8 {
        fill: #082f43;
      }

      .cls-9 {
        fill: #f0edf6;
      }

      .cls-10 {
        fill: #efebf5;
      }

      .cls-11 {
        fill: #815639;
      }

      .cls-12 {
        fill: #542c23;
      }

      .cls-13, .cls-24 {
        fill: #000;
      }

      .cls-24 {
        stroke: #000;
        stroke-miterlimit: 10;
        stroke-width: .15px;
      }

      .cls-14 {
        fill: #a4a4a4;
      }

      .cls-15 {
        fill: #18536d;
      }

      .cls-16 {
        fill: #141211;
      }

      .cls-17 {
        fill: #b8e0ee;
      }

      .cls-18 {
        fill: #24170e;
      }

      .cls-19 {
        fill: #fff;
      }

      .cls-20 {
        fill: #4f2e25;
      }

      .cls-21 {
        fill: #f8ae01;
      }

      .cls-22 {
        fill: #131429;
      }
    </style>
    <clipPath id="clippath">
      <path class="cls-5" d="M1163.32,581.97c0,321.21-260.39,581.59-581.59,581.59S.13,903.18.13,581.97,260.52.38,581.72.38s581.59,260.39,581.59,581.59Z"/>
    </clipPath>
  </defs>
  <g class="cls-23">
    <circle class="cls-17" cx="583.3" cy="582.71" r="581.59"/>
    <path class="cls-2" d="M509.44,660.9c9.73-6.73,18.69-14.55,26.32-23.4,6.24,29.33,11.82,55.99,16.27,70.46,3.85,11.91,7.63,25.9,11.36,41.06-14.29,2.29-28.58,4.6-42.85,6.97-7.52,1.25-13.17,18.49-20.69,19.78-22.45-12.32-24.04-77.84-32.2-93.29-.15-.28-.3-.58-.44-.86,15.07-4.79,29.39-11.84,42.23-20.71Z"/>
    <path class="cls-2" d="M775.17,746.17c-9.11-6.3-17.51-13.63-24.66-21.92-5.85,27.48-11.07,52.45-15.24,66-3.6,11.16-7.14,24.26-10.65,38.46,13.39,2.15,26.77,4.31,40.14,6.53,7.05,1.17-2.73,31.73,4.31,32.93,31.06-19.28,37.59-87.33,45.23-101.8.14-.26.28-.54.42-.81-14.12-4.49-27.53-11.09-39.55-19.4Z"/>
    <g>
      <path class="cls-13" d="M970.94,500.8c2.68-7.69,16.6-11.08,18.64-18.99.5-1.92-1.05-3.59-2.64-3.8,1.04-2.87,2.51-6.31,4.35-9.06,3.88-5.78,15.3-9.81,15.3-9.81,0,0-1.9-12.77,3.54-14.2,5.45-1.44,17.07-.39,17.07-.39,0,0,9.26-7.8,18.52-.02,0,0,8.8-.05,10.59,11.64.39,2.53.45,5.61.03,9.36,0,0,4.31.1,10.58,7.39,2.71,3.15,5.6,13.43,3.35,21.97l.19,1.9c-2.96,11.25-8.2,18.15-17.33,19-.03.11-5.89,22.29-27.34,20.76-18.62-1.32-23.91-10.75-23.91-10.75,0,0-8.57,4.52-13.04,3.29-4.69-1.29-8.16-5.16-10.2-9.71,1.35-4.7-8.97-13.85-7.74-18.58Z"/>
      <path class="cls-13" d="M971.13,500.78c1.4-3.84,5.14-6.32,8.36-8.55,3.1-2.14,6.56-4.23,8.79-7.35.94-1.31,2.04-3.27,1.38-4.92-.4-1-1.12-1.34-1.94-1.9-.08-.05-.29-.04-.35-.11-.33-.41.15-1.01.3-1.41.28-.71.57-1.42.88-2.12,1.07-2.44,2.29-5,4.13-6.96,1.5-1.6,3.32-2.89,5.18-4.03,2.73-1.66,5.84-3.15,8.77-4.19.07-.02.17-.07.16-.16-.55-3.71-.85-8.48.95-11.89,1.45-2.74,4.85-2.68,7.58-2.82,3.15-.16,6.31-.07,9.46.12.97.06,2.11.42,2.88-.13,2.16-1.55,4.64-2.66,7.28-3.04,2.01-.29,4.06-.1,5.97.57,1.12.39,2.17.93,3.15,1.58.5.34,1.06.98,1.62,1.16.3.1.72.05,1.03.11.78.13,1.55.37,2.28.69,7.56,3.27,7.93,13.11,7.16,20.1,0,.07.06.1.12.1,2.18.07,4.46,1.75,6.07,3.03,1.95,1.55,4,3.41,5.28,5.57,1.12,1.91,1.82,4.09,2.33,6.22.65,2.73.98,5.55.93,8.35-.02,1.37-.14,2.74-.37,4.09-.15.9-.46,1.72-.37,2.63.23,2.27-.78,4.56-1.6,6.66-.83,2.12-1.84,4.18-3.13,6.06-2.9,4.23-7.14,6.89-12.26,7.41-.08,0-.19.05-.21.14-1.55,5.91-5.35,11.74-10.08,15.54-4.58,3.69-10.3,5.38-16.15,5.13-6.52-.28-13.34-1.82-18.9-5.35-2.13-1.35-4.49-3.15-5.76-5.4-.04-.07-.2-.04-.25-.02-2.02,1.06-4.17,1.94-6.35,2.61-1.7.52-3.53.97-5.32.84-2.02-.14-4.01-1.2-5.61-2.4-1.74-1.3-3.17-2.99-4.31-4.83-.53-.86-1.29-1.9-1.3-2.93,0-.54.05-1.02-.06-1.56-.55-2.8-2.5-5.34-4.02-7.68-1.02-1.57-2.07-3.15-2.88-4.84-.61-1.27-1.18-2.73-.85-4.15.04-.16-.34-.11-.38.04-.47,2.05.77,4.19,1.75,5.89,1.43,2.48,3.16,4.78,4.55,7.29.6,1.08,1.18,2.23,1.44,3.45.11.51.11.99.09,1.51-.02.71.21,1.14.57,1.81,1.56,2.95,3.81,5.63,6.76,7.26,2.47,1.36,4.85,1.63,7.58,1.05,2.53-.54,4.98-1.5,7.31-2.6.28-.13.65-.25.9-.44.33-.25.24.02.05-.16.12.12.21.33.3.46.63.9,1.39,1.7,2.2,2.44,3.49,3.22,7.99,5.24,12.55,6.44,6.08,1.6,12.85,2.29,18.92.3,7.96-2.62,13.66-9.46,16.69-17.06.29-.73.44-1.79.86-2.44.26-.4.48-.18,1.1-.28,1.3-.21,2.57-.55,3.78-1.05,5.44-2.24,8.79-7.35,10.84-12.65.62-1.6,1.39-3.39,1.64-5.09.14-.98-.17-1.89.05-2.89.84-3.76.77-7.71.12-11.5-.51-2.98-1.33-6.1-2.93-8.69s-4.34-4.99-6.93-6.65c-.86-.55-1.76-1.04-2.72-1.39-.45-.17-1.09-.19-1.5-.41-.04-.02-.23,0-.26-.03.02.03.24-1.2.25-1.33.05-.6.09-1.2.12-1.81.08-1.83.04-3.66-.19-5.48-.62-4.88-2.88-9.84-7.73-11.72-.62-.24-1.25-.42-1.9-.54-.32-.06-.75-.02-1.05-.13s-.53-.38-.8-.59c-.93-.71-1.95-1.31-3.02-1.77-1.45-.63-3.01-1-4.59-1.08-2.67-.13-5.33.58-7.7,1.79-.75.38-1.48.82-2.17,1.31-.16.12-.32.26-.48.36-.24.16.29,0,.02,0-1.92,0-3.87-.26-5.79-.32-2.96-.09-5.95-.09-8.89.28-1.94.25-3.73.59-4.85,2.34-1.18,1.84-1.44,4.22-1.53,6.35-.08,1.8,0,3.61.21,5.4.02.19.05.39.07.58.03.26.23-.1.08,0-.41.27-1.05.4-1.5.58-4.76,1.94-10.11,4.48-13.36,8.61-2.23,2.84-3.63,6.41-4.86,9.77-.02.05.04.09.08.09,2.31.45,3.05,2.61,2.26,4.63-.43,1.11-1.11,2.11-1.88,3.01-1.76,2.04-4.01,3.6-6.21,5.12-3.8,2.63-8.58,5.35-10.26,9.93-.05.15.32.1.38-.04Z"/>
    </g>
    <path class="cls-24" d="M838.05,472.62c13.75-10.91,15.66-29.51,13.19-45.9-2.37-15.69,8.34-40.4-10.72-38.76-.19.02,1.6-3.91,2.47-7.37.63.98,1.29,1.95,1.99,2.88,1.36,1.77,4.47-.11,3.35-2.09-1.94-3.43-3.69-6.98-5.13-10.65-2.45-6.22-4.08-12.93-4-19.65.07-6.06,1.5-11.97,4.26-17.33,41.48-61.37,96.77-50.55,129.85-47.5,65.97,6.09,101.23,71.92,83.67,139.45-18,69.21-63.97,92.67-130.21,93.5-28.3.36-67.01-21.41-89.3-46.17.19-.14.38-.28.57-.43Z"/>
    <path class="cls-19" d="M785.69,766.29c17.58,1.72,2.12-3.48,18.21,3.78,4.38,1.97,8.86,3.73,13.43,5.25,26.97-56.77,48.67-203.62,48.67-203.62-5.49,1.31-68.05,15.33-84.81,54.97-9.86,23.31-31.37,66.31-39.98,108.85,2.45,3.08,21.48,28.53,44.49,30.78Z"/>
    <path class="cls-15" d="M1049.02,1845.88c-6.67-39.64,25.31-216.13,8.52-317.44-21.53-129.93,27.4-275.66,41.3-329.98,28.79-112.48,21.07-188.26-14.08-235.69l-294,22.86-1.12,52.44c-14.81,58.65,17.26,287.52,25.03,445.9l49.43,346.18s37.24,12.17,65.93,1.53c0,0-1.17,20.18,6.68,19.87,43.72-1.7,50.75,10.59,112.31-5.67Z"/>
    <path class="cls-19" d="M792.34,670.02c1.08-52.55,14.19-70.31,14.19-70.31,14.52-6.38,41.56-21.77,59.11-28.31,2.59-.96,11.1-5.7,11.43-5.16,8.66,14.2,24.83,31.19,43.29,33.13,6.62.69,2.73-13.7,8.92-13.89,21.14-.65,47.14-12.01,59.78-28.01l16.34,7.16,63.02,24.32-9.82,312.08,1.05,2.42c-34.5,13.33-69.19,26.32-104.99,35.73-41.85,11-85.84,17.38-128.95,10.65-9.86-1.54-25.02.41-34.53-2.55,2.3-10.48,11.89-53.97,11.69-65.02-1.13-61.03-4.25-63.21-6.35-65.71"/>
    <path class="cls-2" d="M984.31,468.01s-12.38,50.35.57,84.71c1.8,4.79,5.22,4.27,5.22,4.27l-19.25,22.38c-4.41,4.97-20.08,19.91-37.21,26.42-31.49,11.98-39.01,2.1-47.48-.19-6.99-1.89-11.34-15.67-11.34-26.05l1.64-13.08s4.79-.03,6.07-5.92c1.28-5.89-3.02-50.61-3.02-50.61"/>
    <path class="cls-19" d="M809.39,882.09s-26.46,98.81-34.97,121.17c0,0,118.45,41.04,225.67,25.53,107.22-15.51,97.5-25.64,97.5-25.64l-38.46-103.97-3.22-45.8-233.41,18.47"/>
    <path class="cls-2" d="M1147.18,778.06c-4.16,2.05-8.43,3.85-12.69,5.54-6.29,2.5-12.67,4.71-19.07,6.84-3.75,1.25-7.5,2.47-11.33,3.38-6.37,1.52-12.86,2.41-19.37,2.9-8.06.6-16.13.59-24.2.49l13.97,65.04,7.82,247.9,58.39,8.49c14.75-159.22,20.03-204.35,19.43-253.07-.16-13.22-5.62-48.14-12.95-87.51Z"/>
    <path class="cls-14" d="M786.18,668.32c1.8,3.7,2.82,7.91,3.5,11.95.99,5.9,1.02,11.74-.32,17.56-1.35,5.83-2.99,11.59-4.43,17.39-1.96,7.88-3.68,15.82-4.91,23.85-1.3,8.46-1.96,16.96-1.96,25.52.77-.34,1.55-.67,2.32-1.01-2.34-.41-4.66-1.05-6.92-1.79-3.8-1.26-7.94-3-10.53-6.18-.7-.85-3.48.2-2.68,1.18,2.71,3.32,6.98,5.16,10.93,6.52,2.42.83,4.93,1.54,7.45,1.98.6.1,2.32-.09,2.32-1.01,0-15.86,2.54-31.45,6.25-46.84,1.49-6.16,3.2-12.27,4.7-18.43.47-1.95.95-3.92,1.21-5.92.45-3.45.26-7.09-.13-10.54-.56-5.05-1.68-10.4-3.92-15.01-.53-1.09-3.37-.19-2.9.78h0Z"/>
    <path class="cls-2" d="M249.54,317.77s11.09,60.98.34,96.55c-1.72,5.71-30,21.06-30,21.06l8.38,8.79c7.24,7.59,20.92,13.61,30.75,17.25,48.93,18.15,117.31,20.79,138.37-9.63l-13.49-21.92-9.92-5.07c-1.73-6.81,4.83-67.03,4.83-67.03"/>
    <path class="cls-8" d="M110.48,992.53l-3.48,83.18c-.99,55.45,10.97,93.43,26.3,146.73l32.54,244.88s-.17,97.9-9.99,178.8c-8.55,70.13,13.55,225.68,13.55,225.68l24.32,4.61c21.97,4.16,44.44,4.99,66.65,2.44l47.68-5.49,44.97-444.56,32.96-273.69,45.19-152.72-320.69-9.84Z"/>
    <path class="cls-8" d="M489.53,992.53l-31.14,469.43c-.02,19.63-7.89,37.45-16.9,131.94l-17.13,161-6.16,99.62-13.83,2.39c-19,3.82-38.44,5.04-57.77,3.62l-42.35-1.73,46.97-857,138.32-9.26Z"/>
    <path class="cls-13" d="M393.1,1119.28c-20.57,15.8-29.17,42.22-32.16,67.04-1.9,15.79-1.32,31.6-2.04,47.44-.85,18.81-1.7,37.61-2.54,56.42-1.39,30.91-2.79,61.83-4.18,92.74-1.27,28.06-2.53,56.12-3.8,84.19-.48,10.58-.58,21.25-1.46,31.8-1.06,12.76-2.6,25.5-3.91,38.24-2.73,26.7-5.45,53.4-8.18,80.1-3.24,31.73-6.48,63.45-9.72,95.18-2.84,27.83-5.69,55.66-8.53,83.49-1.53,15.01-3.07,30.02-4.6,45.03-.07.7-.14,1.41-.22,2.11-.05.51,1.04.34,1.08-.1,1.07-10.48,2.14-20.97,3.21-31.45,2.58-25.28,5.16-50.56,7.75-75.83,3.23-31.58,6.45-63.17,9.68-94.75,2.93-28.64,5.85-57.27,8.78-85.91,1.76-17.25,3.52-34.5,5.29-51.75.71-6.95.91-13.91,1.22-20.89,1.11-24.63,2.22-49.25,3.33-73.88,1.42-31.51,2.84-63.02,4.26-94.53,1.06-23.57,2.13-47.14,3.19-70.72,1.41-31.18-1.04-63.42,11.49-92.77,5.07-11.88,12.44-22.84,22.75-30.76.58-.44-.31-.72-.69-.42h0Z"/>
    <path class="cls-19" d="M379.82,447.14c-2.34,8.67-7.72,21.02-24.63,23.57-25.26,3.8-50.83,2.89-81.74-20.68,0,0-21.69-19.21-24.96-33.4l-18.66,8.18c-11.78,5.2-33.99,14.16-55.98,24.4-23.37,8.41-63.71,29.2-79.63,66.14-14.57,40.46-23.2,110.11-30.9,178.4,19.15,7.15,31.05,14.74,51.74,15.93,1.13.06,3.04,2.93,4.42,3.03-5.4,40.62-13.94,120.4-16.34,140.73-6.25,52.86-17.32,128.05-13.03,161.91,4.29,33.85,197.99,51.4,269.53,43.74,71.54-7.67,130.21-11.54,136.74-31.7,1.05-3.23.26-63.55-2.18-71.35-3.27-37.04-.75-46.76-5.01-93.53l4.51-171.38c2.92,2.84,20.26,2.13,29.93.43,14.74-2.6,30.19-9.66,35.35-13.45-14.92-53.34-30.27-122.68-44.56-162.41-15.57-43.27-78.53-62.26-114.29-78.64l-20.65-9.68s-2.81-1.59-2.24.38"/>
    <path class="cls-11" d="M247.08,342.71c0,.13.03.24.04.36-.05-.15-.08-.28-.04-.36Z"/>
    <path class="cls-2" d="M335.42,414.32l41.47-2.4,20.65-5.13c2.11,0,11.82-21.48,13.2-24.2,4.28-8.47,10.15-19.86,12.7-29.02,2.74-9.81,7.89-20.21,9.13-31.98.91-8.62.37-12.51-4.52-26.43-1.24-3.54-1.35-7.08-.55-10.92,1.71-8.09,2.19-17.53,4.24-28.37.16-.85,1.07-4.97.72-5.89,0,0-1.98-45.05-10.43-60.98-8.45-15.93-17.75-23.07-29.65-25.88-11.91-2.82-46.8,0-46.8,0l-48.42-5.97-40.64,21.11-19.86,50.26,4.13,57.8,7.19,51.57"/>
    <path class="cls-20" d="M356.28,399.55c-.33.22-22.24-2.15-22.67-2.18l-11.38-5.12s-.06-.04-.07-.05c-1.02.42-2.22.5-3.59.06-7.11-2.3-13.35-6.12-19.35-10.49-5.4-3.93-11.76-16.08-17.9-18.81-2.91-1.29-1.91-2.19-4.38-3.99.23.64.17,4.48.41,5.12,11.31,14.07,26,41.51,49.38,51.24,1.14.28,4.73,1.22,14.28,1.85,12.53.82,20.77,1.21,32.97-.67.07-8.83-.72-19.26-.78-28.09-4.49,0-4.46,2.93-16.91,11.15Z"/>
    <path class="cls-13" d="M329.57,275.51c-2.66-1.37-5.76-.18-7.5,1.37-.41.36-1.51,1.4-2.02,3.15-.65,2.23.24,4.76,1.65,6.3,1.87,2.05,4.99,2.4,7.39,1.28,3.24-1.52,4.29-5.43,3.48-8.27-.15-.52-.85-2.71-3-3.82"/>
    <path class="cls-13" d="M409.08,276.92c2.65-1.38,5.76-.19,7.51,1.34.41.36,1.51,1.39,2.03,3.14.66,2.23-.23,4.76-1.63,6.3-1.87,2.06-4.99,2.41-7.38,1.3-3.25-1.51-4.31-5.42-3.51-8.26.15-.52.84-2.71,2.98-3.83"/>
    <path class="cls-13" d="M391.62,287.01s10.68-10.71,18.51-11.44c11.42-1.07,14.36,1.5,18.41,6.73,0,0-7.49-5.46-15.51-4.49-7.67.93-21.4,9.2-21.4,9.2Z"/>
    <path class="cls-13" d="M354.51,284.28s-16.03-10.08-23.89-10.27c-11.47-.28-25.12,6.5-28.81,12,0,0,18-9.98,26.07-9.57,7.72.4,26.62,7.84,26.62,7.84Z"/>
    <path class="cls-13" d="M357.02,247.5c1.49.72.95,1.86.94,4.6,0,.87.02,2.22.04,3.63.05,2.64-2.53,4.57-5.04,3.74-4.5-1.48-8.51-3.04-11.62-3.59-8.41-1.49-17.02-3.6-25.53-2.27-4.07.64-7.65,1.69-11.05,3.79-1.07.66-3.96,3.54-5.57,2.8-.66-.3.42-3.66.53-4.01,2.2-6.77,7.94-9.59,14.97-11.2,14.32-3.29,27.76.65,42.32,2.49"/>
    <path class="cls-13" d="M433.74,249.26s-4.27-.96-4.31-.97c-9.23-2.11-18.41-2.06-27.6-.83-4.66.63-8.03,4.8-7.81,9.49,0,.03,0,.05,0,.08.04.93-.34,3.79.27,4.52.12.14.29.22.46.29,1.86.76,3.97.74,5.93.3,2.43-.54,4.6-1.78,7-2.41,6.88-1.81,14.12-3.81,21.2-2.81.56.08,3.59.57,4.13.67,2.06-3.87,1.73-7.8.72-8.35Z"/>
    <g>
      <path class="cls-13" d="M382.83,331.85c-3.35,1.8-8.47,1.39-11.85-.75-.75-.47-3.25-.01-2.2.66,4.47,2.82,11.81,3.07,16.13.75.43-.23.35-.57-.19-.75-.56-.19-1.45-.15-1.9.1"/>
      <path class="cls-13" d="M367.33,330.78c-2.26-1.09-4.79-1.66-7.31-1.85-.37-.03-.85.12-1.12.36-.21.2-.26.46.02.62,1.16.68,2.65.96,4.01.94.43,0,1-.12,1.24-.5.22-.35-.19-.57-.53-.57-1.13.02-2.28-.2-3.24-.76-.37.33-.73.65-1.1.98,2.25.17,4.51.71,6.53,1.68.4.19.98.07,1.34-.15.27-.16.56-.54.15-.74"/>
      <path class="cls-13" d="M357.32,331.11c-2.95-.07-6.42-1.38-7.88-3.65-2.2-3.43-.16-8.75,3.52-10.94.4-.24.19-.55-.22-.64-.53-.12-1.16.09-1.57.34-3.21,1.92-5.28,6.26-4.8,9.48.46,3.01,3.28,5.1,6.82,5.97,1.05.26,2.17.43,3.27.46.45,0,1.25-.13,1.47-.49.22-.36-.19-.52-.61-.53"/>
      <path class="cls-13" d="M388.24,330.31c-.16-.35.13-.57.37-.57.8.02,1.61-.21,2.29-.77.26.33.52.65.78.98-1.6.18-3.19.72-4.62,1.7-.28.2-.69.07-.95-.15-.19-.16-.39-.54-.11-.74"/>
      <path class="cls-13" d="M386,330.75c1.59-1.09,3.38-1.67,5.17-1.87.26-.03.6.11.79.36.15.19.18.45-.01.62"/>
      <path class="cls-13" d="M394.37,330.71c1.92-.08,4.17-1.4,5.12-3.67,1.42-3.43.09-7.51-2.31-9.7-.26-.24-.12-.55.14-.64.34-.12.75.08,1.02.33,2.09,1.91,3.45,5.01,3.14,8.23-.29,3.01-2.12,5.11-4.42,5.99-.68.26-1.41.44-2.13.47-.29.01-.81-.13-.96-.48-.14-.36.12-.52.39-.53"/>
    </g>
    <path class="cls-3" d="M373.26,352.83c-13.18-.02-34.53-1.56-34.53-1.56,0,0,4.11,33.9,34.67,33.95,30.55.05,28.24-33.05,28.24-33.05,0,0-15.19.68-28.37.66Z"/>
    <path class="cls-18" d="M373.39,352.83c-6.27-.01-31.52-1.08-31.52-1.08,0,0,8.86,22.64,31.53,22.67,24.57.04,26.58-22.26,26.58-22.26l-26.59.67Z"/>
    <path class="cls-9" d="M371.64,352.15c-6.76-.01-27.34-1.07-27.34-1.07,0,0,7.56,8.27,27.85,8.3,20.29.03,26.58-8.02,26.58-8.02l-27.08.79Z"/>
    <path class="cls-3" d="M402.5,349.82c-.64-.16-1.66-.05-4.67-.32-5.01-.44-6.42-1.03-10.05-1.32-6.2-.49-10.14,1.96-12.83,1.96-2.69,0-6.63-2.47-12.82-2-3.63.27-12.62,1.59-17.63,2.01-3.01.25-6.53-.93-7.17-.77-.89.22.83,6.83,34.69,6.88,33.87.05,31.36-6.23,30.47-6.45Z"/>
    <path class="cls-22" d="M481.18,1000.83c.24,0,.34-.31.04-.31-.24,0-.34.31-.04.31h0Z"/>
    <path class="cls-14" d="M500.7,566.14c0,13.61-.11,27.22-.58,40.82-.28,8.13-.71,16.26-1.46,24.35-.5,5.33-1.18,10.64-1.9,15.95-.72,5.34-1.41,10.68-1.91,16.05-.76,8.08-1.18,16.19-1.47,24.3-.05,1.34-.09,2.69-.13,4.03l.08.09c3.22,1.24,6.87,1.62,10.27,1.86,9.4.65,18.88-.8,27.92-3.32,8.11-2.26,16.31-4.87,23.77-8.83,1.55-.82,3.07-1.72,4.47-2.78.31-.23,1.14-.71,1.27-1.12.17-.49-.36-1.58-.48-2.05-.4-1.53-.8-3.05-1.21-4.58-.61-2.33-1.23-4.66-1.84-6.99-.14-.55-2,.15-2.27.25-.32.13.3-.11-.13.05s-.9.34-1.35.51c-1.5.55-3.01,1.08-4.53,1.58-4.99,1.66-10.06,3.09-15.19,4.22-9.91,2.18-20.42,3.48-30.59,2.77-1.4-.1-2.87-.19-4.24-.56-.61-.16-1.47.14-2.02.39-.25.12-.99.5-.38.67,1.19.32,2.47.41,3.69.52,3.97.33,7.96.25,11.93.02,12.34-.73,24.4-3.19,36.16-6.97,2.79-.89,5.57-1.84,8.29-2.93-.76.08-1.51.17-2.27.25.63,2.41,1.27,4.82,1.9,7.23l1.23,4.67c.1.37.15,1,.35,1.33.11.18.04.33.19.05-.35.67-1.56,1.3-2.12,1.67-2.36,1.56-4.94,2.8-7.53,3.92-4.86,2.11-9.9,3.78-14.98,5.27-6.16,1.8-12.42,3.16-18.84,3.64-4.19.31-8.43.25-12.6-.33-1.28-.18-2.55-.4-3.8-.7-.61-.14-1.52-.27-1.98-.54-.07-.04-.29-.05-.34-.12-.03-.05.07-.74.08-.88.02-.62.04-1.24.06-1.87.07-2.12.15-4.25.25-6.37.16-3.53.34-7.05.58-10.57.36-5.35.84-10.69,1.48-16.02,1.06-8.89,2.43-17.74,3.2-26.67,1.52-17.56,1.73-35.24,1.83-52.85.02-3.4.03-6.8.03-10.2,0-.36-2.9.02-2.9.78h0Z"/>
    <path class="cls-13" d="M221.78,288.22s-11.4-23.31-13.6-72.81c-1.68-37.86,50.79-73.06,86.76-79.83,19.78-3.72,86.57,2.3,104.03,9.69,17.46,7.39,27.23,29.96,30.39,62.67,0,0-11.63-32.2-32.75-30.73-17.23,1.2-73.14-5.39-87.5,1.19-14.36,6.58-35.9,13.75-35.55,65.21.1,14.03-25.25,19.08-31.93,27.76-6.67,8.68-19.85,16.86-19.85,16.86Z"/>
    <path class="cls-13" d="M261.93,281.32c.35,4.36.73,21.72,1.34,25.97l-22.87.15c-7.29-14.8-16.05-32.2-18.77-36.15-4.26-6.16-5.73-36.57-6.29-48.01l-.12-2.47c-.56-10.97,9.59-28.69,27.15-47.39,19.33-20.58,54.27-32.89,89.03-31.35,3.3.15,6.6.42,9.8.8,30.25,3.62,55.68,17.84,75.58,42.26,14.35,17.61,15.83,38.1,15.01,50.65-1.51-24.68-10.75-41.84-11.15-42.56-8.76-16.58-19.46-21.12-26.89-22.02-6.48-.78-11.29,1.06-12.24,1.46-7.28,1.82-18.03,1.09-25.79.17-5.78-.69-10.38-1.56-11.63-1.8-3.96-2.57-9.84-4.37-17.02-5.23-16.68-2-40.68,1.52-45.45,8.87-5.29,8.15-16.92,37.02-16.83,43.69"/>
    <path class="cls-2" d="M253.23,343.63c-12.54,18.75-22.64-12.38-22.64-12.38-13.17-15.6-13.29-32.32-12.89-43.75.39-11.44,12.97-11.35,12.97-11.35,10.69,1.09,15.5,6.79,24.69,42.75"/>
    <path class="cls-12" d="M237.67,303.15c-4.02,1.2-5.08,5.01-4.85,8.84.06,1,.29,1.96.41,2.95.2,1.55.2,3.05.58,4.58.37,1.51.91,2.97,1.61,4.36,1.08,2.15,4.44,7.72,7.59,5.33,1.03-.78.83-2.23.64-3.35-.33-1.87-.95-3.68-1.43-5.52-.34-1.28-1.31-3.95-.36-5.18.36-.46.99-.2,1.57-.14.87.1,1.74.19,2.61.29.22.02,1.32-.14,1.18-.54-1.87-5.27-3.63-10.55-6.15-15.56-1.58-3.13-3.4-6.3-5.87-8.82-.93-.95-2.07-1.99-3.37-2.4s-1.94.55-2.58,1.48c-2.97,4.34-3.47,9.89-2.84,14.98.05.39,1.51.09,1.45-.39-.5-4.06-.28-8.27,1.35-12.07.57-1.34,1.31-2.76,2.37-3.79l-1.12.37s.49.15.76.29c.88.43,1.65,1.1,2.35,1.78,3.63,3.53,5.96,8.41,7.94,12.98,1.63,3.78,2.91,7.67,4.28,11.54l1.18-.54c-1.84-.2-5.76-1.35-6.67,1.07-.47,1.27-.03,2.9.27,4.15.42,1.74.98,3.44,1.4,5.18.27,1.13.77,2.76.13,3.84-.16.28-.02.18-.33.09-.37-.11-.71-.3-1.02-.52-.81-.56-1.48-1.32-2.08-2.09-1.62-2.11-2.74-4.64-3.37-7.21-.43-1.74-.4-3.5-.72-5.24-.61-3.32-.75-8.93,3.29-10.13.84-.25.7-.86-.16-.6h0Z"/>
    <path class="cls-2" d="M392.93,391.5c-.28-.03-.56-.13-.79-.28-4.46-2.84-4.84-4.48-7.01-4.96-.5-.11-.76-.28-2.31-.47-6.24-.76-10.04-1.33-26.54,9.55-.33.22-22.24-2.15-22.67-2.18l-11.38-5.12c-1.91-1.13-44.84-35.96-44.84-35.96-.66-1.18-8.46-9.5-8.79-10.63-.13-.06-.26-.14-.4-.19-.05-.02-.16-.06-.27-.11-.02.07-.04.17-.06.23-.07.49-.05,1-.01,1.49.14,2.13.65-11.72,1.32-9.69,1.04,3.11,1.79,7.28,2.7,10.41.32,1.11,4.11,16.57,4.53,17.64,4.87,2.91,31.12,44.04,52.73,50.41,1.14.28,2.31.69,11.86,1.32,17.93,1.18,37.22,1.84,54.75-3.6,4.57-1.42,8.22-4.77,9.99-9.07,5.05-12.27,14.18-40.55,16.71-58.78-4.68,10.63-14.57,33.39-21.38,48.88-.21.47-7,.97-7.56,1.14"/>
    <path class="cls-7" d="M881.53,537.62c-.06-8.88-.62-7.57-.8-16.68-.01-.77-.12-1.47-.26-2.15,26.68-.26,64.27-12.86,86.77-13.41-.84.64-1.99,18.58-14.42,29.79-19.98,18-34.92,20.95-54.15,22.3l-9.67-.22s-6.01.19-6.13-.68l.11-18.96h-1.44Z"/>
    <g>
      <path class="cls-2" d="M989.03,473.45c.64-10.23-1.62-12.47,1.96-22.11,2.71-7.3,14.14-19.58,19.47-25.25,4.31-2.21,10.04.25,13.23,3.66l.58,1.28c5.02,8.92.7,29.12-12.27,41.37-2.89,13.69-19.04,14.29-25.52,8.72.05-2.49,2.4-5.18,2.56-7.67Z"/>
      <path class="cls-2" d="M831.28,462.53c.63-5.94,5.92-15.45,5.47-21.14-.52-6.57-4.92-37.04.83-57.11,2.43-8.47,4.88-15.47,7.04-21,.25-.2.46-.47.6-.84.47-1.25,1.13-2.7,1.7-3.73,6.21-11.18,18.92-17.37,30.75-21.2,6.67-2.16,11.8-14.9,18.73-15.92,4.1-.61,10.16,10.2,14.34,9.93-.18.39-.17.54.2.29,0,.19,1.12-.08,2.31-.43,1.21-.06,2.41-.1,3.58-.12-.03.08-.06.15-.11.22-.08.51-.46,1.48-.86,1.49,2.69,1.2,5.81.33,8.47-1.35-.88.84-1.32,1.67-1.76,2.08,2.23-.03,4.02.36,6.23-1.32,0,.41-.87,1.66-1.32,1.66,2.24.79,4.91.34,7.13-.92,0,.41-.88,1.25-1.32,1.66,1.78.39,3.57.36,5.34-.9l-1.32,1.66c1.78-.02,3.13.78,5.8-.08,0,.41-.89.83-.88,1.25,1.34-.02,3.13-.04,4.46-.47,0,.41-1.32,1.25-.88,1.25,1.59-.02,2.83.6,4.65.14.12.05.25.11.37.17-.33.43-.65.97-.99,1.28,1.24-.02,2.47.15,3.71-.02.41.2.81.4,1.22.61-.14.22-.29.43-.45.58.69,0,1.32.1,1.96.2.63.33,1.26.67,1.88,1.02.12.07.24.14.36.21-.06.06-.12.11-.17.16.15,0,.3,0,.46,0,13.28,7.6,24.51,18.3,33.86,30.26,7,8.95,13,18.65,18,28.84.1,2.32.06,4.35,0,5.92-.07,1.47-.63,3.75-1.5,6.47-3.93,4.47-7.18,9.45-9.73,14.86-5.11,10.86-7.2,22.96-7.61,34.88-.3,8.51-3.47,8.34-2.47,16.79l-5.44,14.87-7.2,16.67c-20.21,23.37-45.14,37.94-65.18,40.94-6.6.99-20.34.77-28.64.52-5.64-.17-11.24-1.52-16.02-4.51-24.41-15.21-38.62-57.09-35.59-85.82Z"/>
    </g>
    <path class="cls-12" d="M1002.78,457.2c1.84-4.76,3.9-9.48,6.56-13.84,1.38-2.26,2.93-4.51,4.9-6.3.5-.46,1.04-.89,1.62-1.24.22-.13.45-.25.52-.28s.15-.07.23-.1c.24-.09-.07.02.08-.03.69-.24-.45.2-.36-.13-.04.15.95,1.39,1.04,1.56,2.19,4.04,2.32,8.87,1.54,13.31-.09.5,1.36.26,1.44-.2.77-4.35.69-9.05-1.31-13.07-.31-.62-.73-1.64-1.31-2.08-.3-.23-.62-.17-.97-.1-3.36.73-5.97,4.43-7.73,7.06-3.24,4.83-5.6,10.24-7.69,15.64-.16.42,1.27.25,1.44-.2h0Z"/>
    <path class="cls-12" d="M1001.76,457.75c1.34-.08,3.22-.02,3.56,1.6.26,1.25-.31,2.64-.69,3.81-.8,2.46-2.25,5.94-.12,8.14,2.43,2.5,5.83-1.39,6.96-3.35,1.78-3.11,2.55-6.73,2.1-10.28-.45-3.47-1.5-8.45-5.22-9.82-.28-.1-.66-.02-.93.09-.05.02-.66.31-.44.4,3.27,1.2,4.38,5.27,4.93,8.35s.42,5.89-.68,8.92c-.7,1.93-1.74,3.99-3.35,5.31-.49.4-.86.69-1.45.36s-1.07-1.05-1.31-1.69c-.98-2.63.7-5.63,1.37-8.14.27-1.01.62-2.35-.06-3.28-.86-1.17-2.77-1.06-4.04-.99-.38.02-1.58.62-.63.56h0Z"/>
    <path class="cls-16" d="M854.9,427.41c-2.47-1.52-5.51-1.89-7.29-.5-.42.32-1.55,1.26-2.16,2.93-.78,2.14-.1,4.67,1.15,6.26,1.66,2.13,4.64,2.69,7.03,1.76,3.23-1.26,4.52-5,3.93-7.83-.11-.52-.66-1.39-2.65-2.62"/>
    <path class="cls-16" d="M928.65,429.08c2.65-1.16,5.57.21,7.14,1.83.37.38,1.36,1.46,1.73,3.21.48,2.22-.55,4.63-2.01,6.04-1.94,1.88-4.97,2.01-7.2.76-3.02-1.7-3.78-5.58-2.8-8.3.18-.5,1-2.59,3.14-3.53"/>
    <path class="cls-16" d="M905.52,436.67s14.19-8.96,21.13-9.16c12.52-.35,23.58,7.59,26.82,12.51,0,0-17.28-10.69-24.41-10.33-6.82.34-23.54,6.98-23.54,6.98Z"/>
    <g>
      <path class="cls-13" d="M874.38,476.89c2.79,1.57,7.15,1.4,10.08-.23.65-.36,2.76.09,1.84.6-3.87,2.15-10.11,2.12-13.72.1-.36-.2-.28-.47.18-.6.48-.14,1.23-.08,1.61.14"/>
      <path class="cls-13" d="M887.57,476.51c1.95-.81,4.11-1.19,6.26-1.27.31,0,.72.12.94.33.17.17.2.38-.04.5-1.01.52-2.28.7-3.43.63-.36-.02-.84-.13-1.04-.44-.18-.29.18-.46.46-.45.95.05,1.94-.09,2.77-.52.3.28.6.55.91.83-1.92.07-3.85.43-5.59,1.16-.35.14-.83.02-1.13-.17-.22-.14-.46-.46-.11-.61"/>
      <path class="cls-13" d="M896.06,477.1c2.51.04,5.49-.92,6.79-2.71,1.96-2.71.39-7.46-2.67-9.36-.33-.21-.14-.45.2-.51.45-.08.98.11,1.33.32,2.67,1.66,4.3,5.62,3.79,8.21-.47,2.43-2.93,4.04-5.96,4.63-.9.17-1.85.28-2.79.27-.38,0-1.06-.14-1.23-.44-.18-.3.17-.42.53-.41"/>
      <path class="cls-13" d="M869.84,475.46c.14-.28-.1-.47-.3-.47-.68,0-1.36-.22-1.92-.7-.23.26-.46.51-.69.77,1.35.2,2.69.68,3.87,1.52.23.17.59.08.81-.09.17-.13.35-.43.11-.6"/>
      <path class="cls-13" d="M871.72,475.89c-1.32-.94-2.82-1.46-4.33-1.68-.22-.03-.51.07-.68.27-.13.15-.17.36,0,.5"/>
      <path class="cls-13" d="M864.62,475.6c-1.63-.12-3.5-1.27-4.24-3.14-1.11-2.83.14-6.1,2.24-7.8.23-.19.12-.44-.1-.52-.29-.11-.64.04-.88.24-1.83,1.48-3.07,3.96-2.9,6.58.16,2.45,1.65,4.22,3.58,5,.57.23,1.18.4,1.79.45.25.02.69-.08.83-.36.13-.29-.09-.43-.32-.44"/>
    </g>
    <path class="cls-16" d="M868.52,436.2s-11.91-10.4-18.22-11.36c-9.21-1.39-12.49,1.99-16,6.42,0,0,7.1-5.74,13.56-4.57,6.18,1.12,20.66,9.51,20.66,9.51Z"/>
    <path class="cls-3" d="M877.29,493.57c13.26.06,39.17-1.38,39.17-1.38,0,0,0,32.62-34.21,31.13-30.71-1.33-27.87-30.92-27.87-30.92,0,0,9.65,1.1,22.91,1.16Z"/>
    <path class="cls-6" d="M877.17,493.57c6.3.03,36.13-.87,36.13-.87,0,0-5.19,21.43-32.63,21.19-23.95-.21-22.23-21.11-22.23-21.11l18.72.79Z"/>
    <path class="cls-10" d="M876.89,494.56c6.3.08,6.32.37,29.91-.9,0,0-6.94,7.22-25.85,7.14-18.91-.08-25.65-7.11-25.65-7.11l21.6.87Z"/>
    <path class="cls-3" d="M853.01,492.68c.67-.17.79,0,4.56-2.11,1.34-.75,2.61-1.84,6.39-2.13,6.46-.49,10.54,2.2,13.35,2.21,2.81.01,6.92-2.64,13.37-2.09,3.78.32,14.5,1.9,19.71,2.39,3.13.3,6.8-.97,7.47-.79.93.24-.91,7.42-36.18,7.26-35.27-.16-29.61-4.5-28.67-4.74Z"/>
    <ellipse class="cls-1" cx="999.06" cy="485.48" rx="7.69" ry="7.96" transform="translate(-63.86 162.98) rotate(-9.04)"/>
    <path class="cls-13" d="M907.97,406.35c19.43-2.11,26.42-.89,39.94,3.23,5.2,1.59,8.89,4.19,11.09,9.24.33.75,1.7,5.14.37,5.57-1.49.49-3.66-3.39-4.55-4.21-3.22-2.96-7.13-3.65-11.15-4.2-7.39-1.02-15.64-1.26-23.04-1.06-3.73.1-8.06,1.27-13.94,2.02-1.03-.73-.56-4.63-.2-6.68.47-2.69.09-.4.56-3.07,0,0-.23-.7.92-.83Z"/>
    <path class="cls-13" d="M833.9,408.21c-.14-.97-.28-2.24-.29-3.05,0-.58.03-1.16.1-1.74,10.36-1.22,17.68-.72,33.42,3.61,1.08.3.75.96.75.96.05,2.72.03.39.07,3.13.03,2.08-.11,6.01-1.21,6.57-5.53-1.63-9.51-3.45-13.07-4.11-6.12-1.15-12.89-2.04-19.3-2.34-.16-1.01-.33-2.01-.48-3.02Z"/>
    <path class="cls-13" d="M1053.8,390.14c-11.6-17.29-24.57-34.07-41.41-46.3-15.78-11.46-34.3-18.45-52.74-24.82-12.4-4.29-24.99-8.38-38.03-9.88-13.04-1.5-26.69-.26-38.39,5.68-9.77,4.95-17.96,13.02-28.4,16.33-1.23.39-2.59.71-3.79.22-1.41-.57-3.38,2.62-3.89,1.18-2.89-8.16.95-19.5,7.14-25.56,6.19-6.05,15.74-8.1,23.68-8.11,1.98-7.63,10.12-12.23,17.41-15.23,7.29-3,18.06-2.8,24.84,1.23,1.39.83-1.59.3,0,0,1.03-.2,1.86-.91,2.67-1.58,4.92-4.11,10.56-7.57,16.83-8.88,6.27-1.32,13.25-.25,18.18,3.85,1.65,1.37,3.09,3.08,5.05,3.95,4.22,1.89,8.95-.66,13.46-1.69,6.74-1.54,14.21.65,19.05,5.58,1.42,1.44,2.74,3.18,4.69,3.72,1.27.35,2.63.13,3.93-.13,4.04-.84,5.89-.05,9.74,1.41,10.85,4.1,14.93,8.22,15.58,17.09.07.97,1.73,1.79,2.37,2.51.7.79,1.85.94,2.9.99,5.96.29,8.63,4.52,13.33,8.19,4.8,3.74,9.01,19.67,8.95,25.76-.05,5.55-.11-2.81-3.47,1.61,0,0,4.92-3.22,9.41,1.4,4.49,4.62,12.83,21.49,8.2,36.68-4.64,15.2-6.89,14.41-6.89,14.41,0,0,.74,20.64.37,27.76-.38,7.11-10.95,20.68-24.2,21.62,0,0,7.21-.14,7.91,4.27.7,4.42,1.96,4.92-2.91,5.32-4.87.4,8.42-68.57,8.42-68.57Z"/>
    <path class="cls-13" d="M1014.51,409.24c-5.2,9.56-10.4,19.11-15.59,28.67-2.79,5.13-3.66,14.39-7.63,10.1-2.21-2.39-3.15-10.4-2.15-13.5,3.01-9.36,5.94-26.44,8.96-35.8-9.42-.35-22.78-11.64-26.15-20.44-3.37-8.8-1.44-12.56-1.13-21.98-4.21,5.77-13.24,5.93-19.38,2.3-6.15-3.63-10.1-9.97-13.81-16.07-2.88,6.2-17.39,5.81-23.53,2.8-6.14-3.01-7.1-3.6-9.84-9.87-2.73-6.27-2.55-8.05-2.94-14.01-.89,9.2-8.84,17.03-12.47,18.53-8.54,3.54-19.94,5.19-27.02-.76,1.98,4.56-.32,10.08-4.11,13.3-3.79,3.21-8.76,4.62-13.58,5.82-.99.25-2.06.49-3.01.12-2.59-.98-1.93-4.82-.67-7.28,12.64-24.65,39.44-41.38,67.14-41.9,25.48-.48,49.45,11.59,71.05,25.12,14.69,9.21,29.82,20.51,34.67,37.16"/>
    <path class="cls-13" d="M986.01,387.5c-3.03,3.07-3.44,7.96-2.33,12.12.73,2.74,2.07,5.37,4.1,7.35,2.03,1.98,4.79,3.29,7.63,3.28.46,0,.96-.05,1.3-.36.26-.24.38-.58.49-.91,1.83-5.6,2.82-11.46,2.92-17.35.02-.93,0-1.9-.45-2.72-1.39-2.5-5.45-1.64-7.56-3.58"/>
    <path class="cls-14" d="M245.63,418.23c2.02,4.92,5.11,9.54,8.25,13.78,7.68,10.37,17.5,19.12,28.61,25.68,16.61,9.82,35.8,14.41,54.99,15.03,14.43.47,33.37-1.72,40.29-16.57,4.08-8.76,2.91-18.74,1.09-27.92-.15-.77-.31-1.53-.45-2.3-.87.37-1.73.74-2.6,1.11,3.41,1.61,6.81,3.22,10.22,4.83l2.49,1.18c.19.09.42.25.62.29.46.1-.23.22-.1-.23-.03.11.21.52.25.62,1.36,3.49,2.25,7.2,2.75,10.91.83,6.1.47,12.42-1.67,18.24-2.8,7.61-8.66,13.43-15.74,17.2-11.65,6.22-25.68,7.6-38.67,7.8-13.37.2-26.78-1.5-39.54-5.57-10.37-3.31-20.22-8.2-29.14-14.45-7.31-5.12-13.97-11.17-19.85-17.88-4.35-4.97-8.29-10.3-11.71-15.95-1.08-1.78-2.1-3.59-3.05-5.44-.52-1.01-.93-2.1-1.49-3.09-.07-.13-.12-.27-.18-.41l-.87,1.02c5.84-2.55,11.68-5.1,17.52-7.65.42-.18,1.16-.68.76-1.21s-1.47-.25-1.92-.05c-5.84,2.55-11.68,5.1-17.52,7.65-.29.13-1.05.56-.87,1.02.89,2.17,2.03,4.25,3.17,6.29,2.99,5.33,6.44,10.4,10.27,15.16,5.45,6.79,11.67,12.98,18.53,18.35,8.43,6.6,17.79,11.98,27.78,15.86,12.18,4.74,25.11,7.27,38.15,7.9,7.71.37,15.48.13,23.15-.74,6.84-.78,13.64-2.14,20.11-4.5,8.6-3.14,16.78-8.41,21.52-16.44,3.46-5.87,4.77-12.65,4.51-19.4-.18-4.7-1.07-9.39-2.57-13.85-.23-.68-.42-1.57-.81-2.18-.25-.38-.66-.5-1.07-.69-.82-.39-1.63-.77-2.45-1.16-2.24-1.06-4.47-2.11-6.71-3.17-1.2-.57-2.41-1.14-3.61-1.71-.67-.32-2.8.03-2.6,1.11,1.62,8.49,3.31,17.23.87,25.75-1.47,5.15-4.58,9.67-9.04,12.69-6.63,4.48-15.04,5.7-22.88,5.91-19.22.5-38.99-3.63-55.99-12.72-11.58-6.19-21.87-14.73-30.03-25.02-2.61-3.29-5-6.75-7.1-10.38-.98-1.69-1.8-3.49-2.71-5.24-.04-.08-.07-.16-.1-.24-.43-1.04-3.29-.18-2.9.78Z"/>
    <path class="cls-14" d="M988.66,557.24c-3.66,5.27-7.87,10.21-12.17,14.96-9.23,10.19-19.57,19.61-31.26,26.9-6.21,3.87-12.87,7.16-19.92,9.19-7.52,2.17-15.36,2.7-23.13,1.69-6.18-.81-12.43-2.7-17.27-6.78-3.66-3.08-6.12-7.24-7.41-11.82-2.24-7.92-1.19-16.29.21-24.26.12-.68.24-1.37.35-2.05.09-.55-2.36.26-2.55.37-2.65,1.43-5.3,2.87-7.95,4.3-1.22.66-2.5,1.26-3.68,1.99-.28.17-.44.31-.59.58-.43.78-.66,1.78-.93,2.62-.52,1.66-.93,3.35-1.24,5.06-.88,4.8-1.01,9.76,0,14.55,1.3,6.13,4.54,11.61,9.18,15.81,6.89,6.25,16.1,9.48,25.07,11.33,5.59,1.15,11.29,1.88,17,1.74,5.22-.13,10.39-.88,15.46-2.1,10.18-2.45,19.84-6.82,28.81-12.16s16.69-11.21,24.24-17.8c6.08-5.31,11.86-10.97,17.32-16.92,2.85-3.11,5.65-6.3,8.26-9.61.12-.15.24-.3.35-.45.05-.09.03-.17-.06-.22-5.1-2.55-10.2-5.1-15.3-7.65-.53-.26-1.35,0-1.86.18-.12.04-1.3.57-.87.79,2.74,1.37,5.47,2.74,8.21,4.11,1.74.87,3.48,1.74,5.22,2.61.47.24,1.03.64,1.54.77.45.11.14.22.25-.03-.42.89-1.41,1.76-2.03,2.51-1.65,1.99-3.34,3.94-5.07,5.85-5.7,6.33-11.76,12.33-18.16,17.95-8.1,7.11-16.78,13.62-26.15,18.98-9.61,5.5-20.07,9.85-31.08,11.44-5.55.8-11.18.84-16.74.1-6.2-.83-12.39-2.14-18.24-4.4-7.66-2.96-14.92-7.71-19.14-14.93-3.01-5.14-4.22-11.11-4.02-17.03.14-4.06.9-8.11,2.2-11.96.16-.46.32-.91.5-1.36.24-.62.26-.27-.12-.2.32-.06.72-.39,1-.54l2.26-1.22,5.59-3.03c.99-.54,1.98-1.07,2.97-1.61-.85.12-1.7.24-2.55.37-1.32,7.91-2.72,15.92-1.14,23.91.92,4.66,2.91,9.05,6.18,12.54,4.1,4.38,9.78,6.83,15.56,8.08,15.71,3.39,31.73-.38,45.7-7.8,12.84-6.82,24.14-16.42,34.15-26.89,3.74-3.91,7.32-7.98,10.71-12.19,1.11-1.38,2.21-2.78,3.28-4.2.56-.74,1.23-1.49,1.69-2.3.06-.1.14-.2.21-.3.29-.42-1.05-.26-1.15-.25-.54.09-1.37.28-1.7.77Z"/>
    <g>
      <path class="cls-4" d="M383.47,584.43c-8.84-.02-16.08-7.27-16.17-16.18-.09-8.91,7.29-16.3,16.25-16.28,9.2.02,16.18,7.12,16.16,16.44-.02,8.87-7.29,16.04-16.24,16.02Z"/>
      <path class="cls-4" d="M352.09,711.69c-1.62-.27-3.11-.83-4.59-1.39-18.84-7.01-34.46-18.26-45.26-35.42-9.05-14.38-13.12-30.21-12.18-47.24.46-8.3,2.09-16.36,5.72-23.88,7.74-16.08,20.43-25.54,38.2-27.81,17.72-2.26,36.19,6.11,45.54,21.96,3.69,6.24,5.54,13.02,5.76,20.25.03,1.08-.08,2.19-.32,3.27-.94,4.17-3.68,5.77-7.77,4.47-2.42-.76-4.18-2.35-5.18-4.61-8.38-18.86-36.04-22.89-50.4-6.15-3.55,4.14-5.41,9.08-6.9,14.21-5.52,18.99-1.54,36.39,8.98,52.63,7.29,11.25,16.82,20.39,27.34,28.58.32.25.65.51.96.78.06.05.06.16.11.34Z"/>
      <path class="cls-21" d="M357.45,712.74c3.38-.54,6.78-1,10.14-1.62,13.2-2.41,25.92-6.2,37.32-13.53,10.39-6.69,18.08-15.56,21.63-27.62,1.9-6.45,2.68-13.05,1.31-19.68-2.11-10.2-9.37-16.86-19.7-18.42-3.7-.56-7.36-.65-11.02.44-2.11.63-4.34.74-6.52.17-3.77-.98-5.53-4.75-3.91-8.31.54-1.18,1.33-2.2,2.25-3.1,8.88-8.65,19.51-11.56,31.48-8.9,11.99,2.66,21.38,9.17,27.22,20.21,3.77,7.13,4.88,14.82,4.24,22.78-.49,6.12-1.8,12.08-4.88,17.45-6.5,11.35-15.31,20.52-26.52,27.33-10.4,6.32-21.71,10.05-33.67,12.01-6.53,1.07-13.1,1.55-19.71,1.5-3.24-.02-6.49-.14-9.69-.72Z"/>
      <path class="cls-21" d="M427.86,607.97c-6.27-.02-11.41-5.16-11.48-11.49-.06-6.33,5.17-11.57,11.54-11.56,6.53.01,11.48,5.06,11.47,11.67-.01,6.3-5.18,11.39-11.53,11.37Z"/>
    </g>
    <g>
      <path class="cls-4" d="M907.07,693.24c-8.21-.02-14.94-6.76-15.02-15.04-.08-8.28,6.77-15.15,15.1-15.13,8.55.02,15.04,6.62,15.02,15.28-.02,8.24-6.78,14.91-15.09,14.89Z"/>
      <path class="cls-4" d="M877.91,811.52c-1.51-.25-2.89-.78-4.27-1.29-17.51-6.52-32.03-16.98-42.06-32.92-8.41-13.36-12.2-28.08-11.32-43.91.43-7.72,1.95-15.2,5.31-22.2,7.2-14.95,18.99-23.74,35.51-25.84,16.46-2.1,33.63,5.68,42.33,20.41,3.43,5.8,5.15,12.1,5.35,18.82.03,1.01-.07,2.03-.3,3.04-.87,3.87-3.42,5.36-7.22,4.16-2.25-.71-3.88-2.18-4.82-4.29-7.79-17.53-33.5-21.28-46.84-5.71-3.3,3.85-5.03,8.44-6.41,13.21-5.13,17.65-1.43,33.82,8.34,48.92,6.77,10.46,15.64,18.95,25.41,26.56.3.24.6.48.89.73.05.05.05.15.1.32Z"/>
      <path class="cls-21" d="M882.89,812.49c3.14-.5,6.3-.93,9.43-1.51,12.27-2.24,24.09-5.76,34.69-12.58,9.66-6.22,16.81-14.46,20.1-25.67,1.76-5.99,2.49-12.13,1.21-18.29-1.96-9.48-8.71-15.67-18.31-17.12-3.44-.52-6.84-.6-10.24.41-1.96.59-4.03.69-6.06.16-3.51-.91-5.14-4.42-3.63-7.72.5-1.1,1.24-2.04,2.1-2.88,8.26-8.04,18.13-10.75,29.26-8.28,11.14,2.47,19.87,8.52,25.3,18.79,3.51,6.63,4.54,13.77,3.94,21.17-.46,5.69-1.68,11.22-4.54,16.22-6.04,10.55-14.23,19.07-24.64,25.4-9.66,5.87-20.18,9.34-31.29,11.16-6.07.99-12.18,1.44-18.32,1.39-3.01-.02-6.03-.13-9-.67Z"/>
      <path class="cls-21" d="M948.33,715.12c-5.83-.02-10.61-4.8-10.67-10.68-.06-5.88,4.81-10.75,10.72-10.74,6.07.01,10.67,4.7,10.66,10.85-.01,5.85-4.81,10.59-10.71,10.57Z"/>
    </g>
    <path class="cls-2" d="M730.04,485.86l.96,49.9,2.95,9.24s-3.32,26.53-4.7,31.97c-1.38,5.44-17.27,31.22-17.27,31.22l7.2,35.38-47.87-2.72s-4.43-26.47-6.87-30.07c-2.2-5.37-2.74-11.28-1.56-16.96.79-5.22,3.77-36.8,3.77-36.8,0,0-8.6-38.63-.23-37.78,2.05.45,4.04,1.13,5.95,2.01,0,0,4.66,25.12,7.64,26.45l5.18-1.12s1.46-35.66,2.98-41.94c1.52-6.28,4.13-10.21,9.1-9.4,0,0,3.07,2.56,2.9,4.22-.17,1.65-2.89,41.09-.64,41.04,2.25-.05,2.34-3.67,2.34-3.67,0,0,2.15-48,3.59-50.51,1.58-3.42,5.5-5.07,9.05-3.83l1.38,27.27s2.25-21.87,6.86-24.42c2.27-1.49,5.26-1.27,7.29.54Z"/>
    <path class="cls-20" d="M732,535.28c-3.25-5.89-6.49-11.79-9.74-17.68-.47-.86-.94-1.72-1.42-2.57-.2-.37-.86-.33-1.19-.26-1.76.41-3.44,1.49-4.73,2.72-3,2.83-3.9,6.93-3.64,10.92.3,4.71.88,9.47,2.09,14.04.17.66.43,1.31.59,1.98-.1-.4-.01.15-.02.33l-.03,1.97c-.05,3.02-.1,6.05-.16,9.07l.62-.71c-2.47.96-4.81,2.35-7.03,3.77-5.06,3.26-9.61,7.39-13.17,12.25-2.55,3.48-4.57,7.29-5.99,11.36-.41,1.17,1.76,1.13,2.07.23,3.85-11.04,12.34-20.05,22.73-25.29.77-.39,1.54-.77,2.34-1.08.26-.1.62-.41.62-.71.04-2.5.09-5,.13-7.5.03-1.57.34-3.34-.14-4.86-.99-3.13-1.52-6.43-1.93-9.69-.58-4.61-1.47-10.05,1.47-14.08.8-1.1,1.84-2.02,3.04-2.66.23-.12.46-.23.7-.33s.39-.16.35-.14c.15-.06.32-.11.47-.14l-1.19-.26c3.25,5.89,6.49,11.79,9.74,17.68.47.86.94,1.72,1.42,2.57s2.53.04,1.99-.95h0Z"/>
    <path class="cls-20" d="M701.21,545.49c-3.59-.3-7.32,0-10.87.53-7.16,1.08-14.22,3.56-19.9,8.15-1.14.92.65,1.39,1.39.79,5.39-4.36,12.03-6.71,18.84-7.66,3.19-.45,6.51-.7,9.74-.43.93.08,2.27-1.25.81-1.38h0Z"/>
    <path class="cls-2" d="M753.71,736.28c6.37,15.76,13.42,31.51,16.32,48.25,1.26,7.31,1.55,14.59.72,21.95-2.26,20.28,22.47,52-5.49,63.6-9.3,3.86-20.18,2.07-29.2-2.42-42.41-21.16-42.32-84.89-51.45-125.73-4.47-20.01-14.56-104.31-14.96-124.8l2.02-12.82,35.44-1.4,34.76,98.87"/>
    <path class="cls-19" d="M1059.41,806.04l-13.88-70.87,5.3-152.71s52.76,11.86,70.65,55.56c9.18,26.66,23.67,86.66,34.56,139.26,0,0-9.64,11.25-38.81,20.28-29.17,9.03-55.64,8.48-55.64,8.48"/>
    <path class="cls-14" d="M1063.04,618.57c-10.22,2.72-16.97,11.29-21.06,20.6-2.2,5.01-3.71,10.28-4.89,15.61-1.58,7.07-2.75,14.24-3.52,21.45-2.95,27.74.45,55.58,6.17,82.75,3.35,15.92,7.42,31.68,11.42,47.45.1.39.57.62.94.63,13.03.25,26.21-.87,39.08-2.79,10.98-1.64,21.85-4.06,32.32-7.79,7.64-2.73,15.68-5.29,22.69-9.46,4.09-2.44,7.24-6.02,10.82-9.11.31-.27.59-.57.5-1.01-.97-4.59-1.93-9.18-2.9-13.78-.17-.83-1.57-.71-2.08-.43-9.59,5.37-19.57,10.16-29.68,14.47-8.14,3.47-16.45,6.57-25.04,8.71-9.55,2.38-19.31,3.83-29.11,4.71-5.16.46-10.35.82-15.53.83-1.62,0-2.25,2.04-.28,2.04,13.81-.02,27.86-1.74,41.32-4.71,16.94-3.74,33.01-10.84,48.46-18.59,3.74-1.88,7.46-3.79,11.11-5.83l-2.08-.43c.97,4.59,1.93,9.18,2.9,13.78l.5-1.01c-3.2,2.77-5.85,5.81-9.25,8.12-5.55,3.77-12.58,6.06-18.93,8.39-10.49,3.84-21.14,6.74-32.17,8.56-9.2,1.52-18.5,2.47-27.82,2.96-3.38.18-6.77.3-10.15.35-.98.01-1.96.02-2.93.02-.15,0-.29,0-.44,0,.46,0,.06-.07,0,0-.03.03-.23,0-.28,0l.94.63c-6.81-26.85-13.94-53.79-17.08-81.37-1.54-13.53-2.06-27.19-1.13-40.79.47-6.97,1.31-13.91,2.54-20.79,1.07-5.98,2.29-12,4.25-17.77,3.48-10.27,9.68-21.47,20.93-24.46,1.78-.47,1.28-2.38-.51-1.9h0Z"/>
    <path class="cls-19" d="M796.52,816.55s-13.64-20.07-15.25-33.53-.45-28.01-.45-28.01l24.84,9.46-9.14,52.08Z"/>
    <path class="cls-20" d="M709.82,609.08c-6.3,5.93-16.44,6.76-23.72,2.18-.8-.5-2.71.6-1.68,1.25,8.44,5.3,20,3.99,27.22-2.8.39-.37.14-.87-.28-1.04-.53-.22-1.15.05-1.54.41h0Z"/>
    <path class="cls-20" d="M758.49,754.13c3.91,5.61,6.51,12.17,9.03,18.49,3.3,8.27,6.28,16.67,9.38,25.01.19.52,1.63.1,1.45-.39-3.15-8.48-6.18-17.02-9.55-25.42-2.51-6.25-5.1-12.72-8.97-18.27-.29-.41-1.69.08-1.34.57h0Z"/>
    <path class="cls-2" d="M575.41,352.43l-7.1,58.14-4.55,10.43s.69,31.37,1.66,37.89c.96,6.52,16.42,38.51,16.42,38.51l-15.95,73.57,54.84,14.01s7.99-74.34,16.3-78.85c3.21-6.01,4.55-12.84,3.85-19.62-.29-6.19,0-43.42,0-43.42,0,0,6.9-45.26-2.97-45.28-.62.07-1.24.16-1.85.27-3.09.53-5.37,3.18-5.51,6.32-.37,8.57-1.45,25.33-4.15,26.21l-5.91-1.93s2.57-41.8,1.55-49.32c-1.02-7.51-3.6-12.42-9.5-12.07,0,0-3.89,2.62-3.89,4.58,0,1.95-1.56,48.32-4.18,47.99-2.62-.33-2.29-4.56-2.29-4.56,0,0,3.24-56.3,1.87-59.41-1.43-4.18-5.81-6.58-10.1-5.55l-4.88,31.67s0-25.81-5.08-29.33c-2.47-2.02-5.99-2.12-8.57-.24Z"/>
    <path class="cls-20" d="M569.4,411.97c4.29-6.2,8.58-12.39,12.87-18.59.61-.89,1.23-1.77,1.84-2.66l-1.54.41c1.6.55,3.26,1.94,4.36,3.4,3.16,4.19,2.4,9.38,1.43,14.18-.87,4.32-1.94,8.67-3.6,12.77-.19.47-.48.96-.6,1.46-.24,1.04-.19,2.24-.28,3.3-.27,3.18-.54,6.36-.81,9.54-.02.19.08.44.26.53,2.48,1.27,4.79,2.95,6.96,4.67,5.11,4.05,9.56,8.99,12.9,14.61,2.44,4.1,4.22,8.56,5.32,13.2.23.99,2.41.42,2.17-.58-3.1-13.08-11.84-24.36-23.06-31.59-.85-.55-1.71-1.09-2.61-1.55l.26.53c.25-2.88.49-5.76.74-8.63.11-1.35.23-2.69.34-4.04.04-.44-.11.18.03-.16.13-.32.28-.63.41-.95,1.69-4.12,2.79-8.51,3.69-12.86,1.03-5.01,1.85-10.35-1.17-14.86-1.28-1.91-3.26-3.66-5.47-4.42-.47-.16-1.24-.02-1.54.41-4.29,6.2-8.58,12.39-12.87,18.59-.61.89-1.23,1.77-1.84,2.66-.78,1.13,1.26,1.43,1.81.62h0Z"/>
    <path class="cls-20" d="M601.9,427.05c8.06.14,16.54,2.49,23.62,6.24,3.45,1.83,6.64,4.11,9.41,6.87.6.6,2.66-.24,2.01-.9-8.26-8.23-20-12.28-31.43-13.4-.93-.09-1.87-.17-2.81-.19-.44,0-1.24.14-1.43.62-.18.45.15.75.62.75h0Z"/>
    <path class="cls-2" d="M517.03,677.56c-8.29,18.14-14.39,36.24-18.66,55.72-1.87,8.51,4.15,4.25,4.74,12.91.5,7.4-6.95,19.28-4.94,26.44,0,.03-3.51-2.44-3.49-2.41,6.5,8.42,21.09,18.24,25.27,19.22,21.04,4.94,34.92,1.95,50.67-11.59,19.14-16.47,28.62-66.98,34.81-89.86,6.29-23.22,26.24-154.95,27.78-178.96l-10.1,18.07-42.04-18.65-45.37,129.26"/>
    <path class="cls-20" d="M582.15,499.45c7.47,8.66,20.7,11.18,30.91,6.12,1.33-.66.14-1.81-.96-1.26-9.29,4.6-21.22,2.01-27.96-5.81-.64-.74-2.7.13-1.99.95h0Z"/>
    <path class="cls-14" d="M781.47,747.75c-6.93-.51-14.32-2.2-20.42-5.57-2.36-1.3-4.56-2.94-6.18-5.12-.48-.65-3.05.57-2.9.78,2.92,3.92,7.51,6.21,12.02,7.78,4.01,1.4,8.19,2.32,12.4,2.88.89.12,1.78.23,2.67.3.68.05,1.4-.11,2.02-.4.17-.08,1.04-.61.38-.66h0Z"/>
    <path class="cls-20" d="M509.41,693.13c-.95,2.25-1.63,4.63-2.24,6.98-1.6,6.14-2.49,12.46-2.82,18.8-.05,1,2.14.61,2.19-.22.32-6.24,1.19-12.47,2.75-18.53.59-2.31,1.26-4.72,2.17-6.89.44-1.05-1.73-.89-2.05-.14h0Z"/>
    <path class="cls-2" d="M76.58,700.86c5.38,1.78,12.84,3.17,18.29,4.5,8.03,1.97,16.13,3.58,24.23,5.09,4.75.88,9.48,1.73,14.28,2.19,7.97.77,15.97.76,23.92.26,9.85-.62,19.62-1.99,29.37-3.46l-12.62,139.9,10.17,41.77c1.99,8.19,3.52,16.49,4.57,24.85l24.46,194.85-69.25,20.06c-44.52-190.22-63.82-210.79-71.62-269.8-7.06-53.4,1.92-111.35,4.21-160.23Z"/>
    <path class="cls-19" d="M72.6,618.19l-12.19,101.93s71.57,21.34,151.8,9.44c79.16-11.74,64.72-85.91,64.72-85.91l-204.34-25.45Z"/>
    <path class="cls-14" d="M179.24,496.81c5.13,1.09,9.39,5.08,12.79,8.84,4.61,5.1,8.39,10.95,11.7,16.95s6.32,12.53,8.72,19.11c1.84,5.03,3.56,10.31,4.08,15.67.68,7.07.55,14.31.54,21.41-.01,8.25-.24,16.49-.61,24.73-.82,18.33-2.3,36.63-4.03,54.9-1.99,21.01-4.32,41.99-6.7,62.96-.32,2.79-.63,5.58-.95,8.37l1.27-.87c-.32.08-.65.16-.97.23-.4.09-.8.18-1.2.26-.12.02-.23.05-.35.07-.4.08.18-.04-.08.02-.32.06-.63.13-.95.19-3.68.7-7.4,1.25-11.12,1.71-13.85,1.69-27.85,2.05-41.78,1.54-19.92-.73-39.59-3.67-59.22-6.94-6.05-1.01-12.09-2.06-18.09-3.28-1.85-.38-3.71-.77-5.55-1.2-.68-.16-1.37-.33-2.05-.5-.27-.07-.54-.14-.81-.21-.16-.04-.78-.22-.63-.17-.72-.21-1.43-.42-2.13-.69-.21-.08-.41-.17-.61-.26-.11-.05-.59-.28-.23-.11-.02,0-.22-.16-.21-.17.01-.01,0,.05.03.03,0,0-.31.48-.48.62.1-.09-.4.18-.3.14.29-.11.83-.38.89-.74,1.05-6.76,2.1-13.52,3.15-20.28-.87.29-1.74.58-2.61.87,4.05,1.96,8.36,3.45,12.62,4.85,11.28,3.73,22.92,6.38,34.67,8.14,16.72,2.51,33.59,2.84,50.48,2.69,11.94-.11,23.88-.52,35.78-1.59,4.36-.39,8.76-.79,13.07-1.59.05,0,.1-.02.15-.03.43-.08,1.63-.34,1.66-.95s-.8-.64-1.23-.55c-3.36.64-6.79.98-10.18,1.33-10.65,1.08-21.37,1.54-32.07,1.74-16.84.32-33.77.29-50.5-1.82-12.41-1.57-24.74-4.1-36.69-7.83-3.54-1.1-7.05-2.31-10.5-3.67-1.59-.62-3.13-1.38-4.72-1.99-.07-.03-.13-.06-.2-.09-.61-.29-2.47.03-2.61.87-1.05,6.76-2.1,13.52-3.15,20.28l.89-.74c-.44.17-1.15.59-.98,1.16.2.64,1.43.96,1.96,1.15,2.23.8,4.57,1.32,6.88,1.84,4.93,1.11,9.9,2.03,14.88,2.91,19.36,3.43,38.85,6.59,58.49,7.85,15.66,1.01,31.43.94,47.05-.64,6.55-.66,13.3-1.39,19.69-3.07.08-.02.16-.04.24-.06.35-.09,1.21-.4,1.27-.87,2.47-21.6,4.91-43.2,7.03-64.83,1.85-18.81,3.46-37.66,4.43-56.54.81-15.95,1.19-31.95.5-47.92-.23-5.44-1.39-10.56-3.08-15.73-2.15-6.54-4.89-12.9-8.04-19.03-3.22-6.27-6.9-12.39-11.32-17.9-3.5-4.36-7.67-8.77-12.88-11.05-1.04-.46-2.14-.81-3.25-1.04-.63-.13-1.58.09-2.05.55-.43.41-.36.82.25.95h0Z"/>
  </g>
</svg>