<?xml version="1.0" encoding="UTF-8"?>
<svg id="Layer_1" data-name="Layer 1" xmlns="http://www.w3.org/2000/svg" viewBox="0 0 1334 1000">
  <defs>
    <style>
      .cls-1 {
        fill: #de8b26;
      }

      .cls-1, .cls-2, .cls-3, .cls-4, .cls-5, .cls-6, .cls-7, .cls-8, .cls-9, .cls-10, .cls-11, .cls-12, .cls-13, .cls-14, .cls-15, .cls-16, .cls-17, .cls-18, .cls-19, .cls-20, .cls-21, .cls-22, .cls-23, .cls-24, .cls-25, .cls-26, .cls-27, .cls-28 {
        stroke-width: 0px;
      }

      .cls-2 {
        fill: #af6b4e;
      }

      .cls-3 {
        fill: #6b3825;
      }

      .cls-4 {
        fill: #31150d;
      }

      .cls-29 {
        stroke: #181413;
        stroke-miterlimit: 10;
        stroke-width: .15px;
      }

      .cls-29, .cls-12 {
        fill: #000;
      }

      .cls-5 {
        fill: #ea2313;
      }

      .cls-6 {
        fill: #ffa900;
      }

      .cls-7 {
        fill: #123a43;
      }

      .cls-8 {
        fill: #f0edf6;
      }

      .cls-9 {
        fill: #ad6c4f;
      }

      .cls-10 {
        fill: #ac6c50;
      }

      .cls-11 {
        fill: #542c23;
      }

      .cls-13 {
        fill: #005570;
      }

      .cls-14 {
        fill: #432519;
      }

      .cls-15 {
        fill: #b05e27;
      }

      .cls-16 {
        fill: #1d1312;
      }

      .cls-17 {
        fill: #221e1f;
      }

      .cls-18 {
        fill: #efeaf5;
      }

      .cls-19 {
        fill: #ace0ef;
      }

      .cls-20 {
        fill: #003045;
      }

      .cls-21 {
        fill: #141211;
      }

      .cls-22 {
        fill: #b82d24;
      }

      .cls-23 {
        fill: #6f1303;
      }

      .cls-24 {
        fill: #999074;
      }

      .cls-25 {
        fill: #a3a3a3;
      }

      .cls-26 {
        fill: #fff;
      }

      .cls-27 {
        fill: #d78700;
      }

      .cls-28 {
        fill: #4f2e25;
      }
    </style>
  </defs>
  <rect class="cls-19" x="-34.38" y="-40.04" width="1405.56" height="1093.4" rx="12" ry="12"/>
  <path class="cls-2" d="M941.16,455.34c-5.97,2.29-53.44,2.35-66.68,50.12-13.24,47.76-20.89,184.98-27.55,227.1-8.42,49.07-12.44,126.94-18.57,190.22l.1,100.28,44.65.17s35.71-264.03,58.88-330.74c23.17-66.72,9.17-237.14,9.17-237.14Z"/>
  <path class="cls-22" d="M888.82,773.79s1.42-29.79-4.87-52.25c-6.29-22.46-23.1-33.9-22.55-56.19.55-22.28,8.93-59.19,8.93-59.19l44.7,19.73,15.05,64.09-41.26,83.81Z"/>
  <g>
    <path class="cls-12" d="M244.04,415.33c-3.33-8.13-18.53-10.96-21.2-19.36-.65-2.04.92-3.93,2.62-4.25-1.29-3.03-3.07-6.65-5.22-9.5-4.52-6-17.06-9.67-17.06-9.67,0,0,1.3-13.87-4.65-15.09-5.95-1.23-18.42.58-18.42.58,0,0-10.43-7.86-19.95,1.06,0,0-9.48.46-10.73,13.16-.27,2.75-.16,6.07.52,10.08,0,0-4.64.35-10.96,8.58-2.73,3.55-5.24,14.79-2.33,23.87l-.1,2.06c3.84,11.95,9.9,19.07,19.78,19.45.04.11,7.65,23.66,30.66,20.77,19.98-2.51,25.12-12.98,25.12-12.98,0,0,9.5,4.37,14.24,2.78,4.98-1.67,8.48-6.03,10.41-11.06-1.73-4.98,8.85-15.44,7.25-20.47Z"/>
    <path class="cls-12" d="M244.22,415.28c-2.07-4.84-7.42-7.49-11.67-10.1-2.4-1.47-4.84-3-6.82-5.02-2.07-2.11-4.98-7.15-.24-8.33.05-.01.19-.08.16-.16-1.57-3.66-3.36-7.65-6.12-10.57-2.12-2.25-4.87-3.87-7.61-5.23-2.29-1.14-4.67-2.11-7.09-2.93-.29-.1-1.31-.24-1.5-.49.11.14.11-.71.12-.92.1-2.03.07-4.08-.16-6.11-.26-2.25-.73-4.81-2.24-6.59-1.53-1.81-4.07-1.81-6.26-1.89-3.23-.12-6.48.1-9.7.41-1.18.11-2.36.24-3.54.39-.33.04-.67.07-1,.13-.14.03-.49,0-.28.07-.4-.13-.84-.56-1.2-.77-.9-.52-1.85-.96-2.82-1.33-2.71-1.02-5.68-1.41-8.54-.86-1.66.32-3.25.95-4.7,1.82-.8.48-1.59,1.02-2.28,1.65-.3.27-.38.45-.68.55-1.03.36-2.12.43-3.15.89-1.81.81-3.39,2.09-4.58,3.68-1.92,2.56-2.78,5.73-3.07,8.88-.18,1.88-.15,3.78,0,5.67.09,1.08.12,2.27.39,3.33.14.54.4.61.19.8-.22.21-1.06.28-1.37.4-.91.35-1.78.84-2.6,1.38-2.84,1.87-5.53,4.55-7.37,7.39-1.67,2.57-2.4,5.85-2.86,8.83-.62,4.03-.63,8.23.24,12.22.19.86.57,1.75.62,2.62.03.55-.12,1.11-.08,1.65.13,1.58,1.1,3.38,1.72,4.84,1.31,3.1,2.97,6.11,5.21,8.65,1.89,2.14,4.2,3.89,6.86,4.95,1.37.55,2.81.9,4.27,1.1.62.08,1.47-.12,1.81.31.5.64.72,1.85,1.07,2.59.7,1.51,1.5,2.98,2.39,4.39,2.52,4,5.8,7.58,9.84,10.08,5.01,3.11,10.92,4.24,16.76,3.63,6.67-.7,13.51-2.59,19.15-6.32,1.66-1.1,3.23-2.37,4.59-3.82.7-.75,1.6-1.66,2.04-2.61.25-.56.25-.14-.09-.31.49.26,1.03.45,1.54.65,2.62,1.05,5.37,1.94,8.17,2.33,3.09.43,5.74-.23,8.32-2.02,2.99-2.07,5.17-5.16,6.59-8.47.29-.68.35-.8.23-1.45-.11-.6-.05-1.22.06-1.82.26-1.36.85-2.65,1.47-3.88,1.36-2.73,3.05-5.28,4.42-8,.92-1.84,2.04-4.15,1.44-6.25-.04-.15-.42-.05-.37.1.82,2.84-1.37,6.16-2.7,8.52-1.59,2.82-3.55,5.65-4.44,8.8-.17.6-.3,1.23-.3,1.86,0,.71.17,1.22-.08,1.92-.78,2.2-2.21,4.34-3.76,6.06-1.62,1.8-3.62,3.26-5.91,4.09-1.92.7-4.01.48-5.98.1-2.88-.56-5.74-1.53-8.41-2.75-.1-.04-.27-.02-.32.09-.99,2-2.82,3.72-4.52,5.1-5.22,4.25-11.89,6.45-18.46,7.49s-13.24.4-19.03-3.16c-4.12-2.53-7.45-6.18-9.99-10.26-1.36-2.18-2.62-4.54-3.41-6.99-.02-.05-.07-.07-.12-.07-4.73-.22-9-2.11-12.26-5.56-1.6-1.69-2.91-3.63-4.02-5.67-.67-1.24-1.27-2.51-1.81-3.81s-1.25-2.75-1.52-4.15c-.13-.68.08-1.39.03-2.08-.09-1.23-.65-2.52-.86-3.75-.52-3.05-.55-6.17-.23-9.25.27-2.54.78-5.08,1.64-7.48.92-2.56,2.48-4.55,4.34-6.53,1.71-1.81,3.64-3.52,5.88-4.64.7-.35,1.51-.73,2.31-.8.08,0,.22-.07.21-.17-1.17-7.12-1.49-16.92,5.4-21.4,1.39-.9,2.8-1.24,4.36-1.64.84-.21,1.39-.99,2.1-1.51,2.06-1.5,4.46-2.48,7-2.72,3.28-.3,6.6.6,9.46,2.18.45.25,1,.78,1.49.93.32.1.75-.05,1.07-.09,3-.39,6.02-.68,9.05-.81,1.91-.09,3.84-.12,5.75.02,1.39.1,2.97.16,4.13,1.03,2.41,1.82,2.86,5.65,3.07,8.43.15,1.94.16,3.93-.02,5.87,0,.05.03.08.08.09,2.79.82,5.53,1.93,8.14,3.2,2.03.99,4.02,2.1,5.81,3.47,2.2,1.67,3.75,3.77,5.14,6.14.85,1.45,1.61,2.96,2.31,4.49.16.35.83,1.33.64,1.72-.05.11-1.14.57-1.3.71-1.73,1.44-1.43,3.48-.45,5.26,2.03,3.7,6.07,5.99,9.55,8.12,4.03,2.46,8.99,5.04,10.94,9.61.06.15.43.04.37-.1Z"/>
  </g>
  <path class="cls-29" d="M385.54,377.18c-15.45-10.94-18.6-30.87-16.9-48.67,1.63-17.04-11.35-43.03,9.27-42.38.21,0-1.95-4.12-3.09-7.79-.62,1.1-1.27,2.18-1.98,3.22-1.36,1.99-4.82.14-3.73-2.05,1.89-3.81,3.56-7.73,4.91-11.77,2.28-6.85,3.63-14.16,3.15-21.4-.43-6.52-2.32-12.8-5.6-18.41-48.28-63.68-107.2-48.79-142.65-43.56-70.71,10.43-104.84,83.4-81.97,155.11,23.44,73.5,74.34,96.07,145.74,93.09,30.51-1.27,70.93-26.99,93.49-54.96-.21-.14-.43-.28-.64-.43Z"/>
  <path class="cls-26" d="M373.12,494.23c5.61,2.38,71.25,18.94,81.97,64.12,10.72,45.18,9,165.33,13.66,204.96,6.07,46.2,6.78,119.14,10.09,178.53l-4.12,93.72-42.62-1.65s-23.48-248.2-42.92-311.49c-19.44-63.29-16.06-228.18-16.06-228.18Z"/>
  <path class="cls-13" d="M158.89,1397.77c64.02,2.1,128.02,4.86,191.99,8.22,23.36,1.23,46.71,2.54,70.06,3.92,11.9-163.43,37.21-362.43,23.1-418.28l-1.21-56.57-317.16-24.66c-37.91,51.17-46.24,132.92-15.18,254.26,10.67,41.68,40.45,133.27,48.39,233.12Z"/>
  <path class="cls-26" d="M441.14,594.59c-1.17-56.69-15.31-75.85-15.31-75.85-15.67-6.88-44.83-23.49-63.77-30.54-2.79-1.04-11.98-6.14-12.33-5.57-9.34,15.31-26.78,33.65-46.7,35.74-7.14.75-2.94-14.78-9.62-14.98-22.8-.7-50.85-12.96-64.49-30.22l-17.63,7.73-67.99,26.24,10.59,336.66-1.13,2.61c37.22,14.38,74.65,28.39,113.26,38.54,45.15,11.87,92.6,18.75,139.11,11.49,10.64-1.66,21.13-4.13,31.39-7.33-2.48-11.31-14-53.82-13.78-65.75,1.22-65.84,4.5-67.92,6.76-70.61"/>
  <path class="cls-2" d="M227.72,380.79s16.28,53.52,4.35,91.28c-1.63,5.15-2.31,4.48-2.31,4.48,2.52.21,6.32,6.84,8.02,8.67,4.09,4.39,8.92,10.54,13.61,14.3,2.81,2.26,3.44,4.17,6.25,6.42,5.14,4.1,9.67,7.01,15.1,10.72,10.57,7.22,23.47,12.07,36.09,13.06,11.07.86,18.38,1.34,28.57-3.17,2.04-.91,5.29-3.77,7-5.2,6.92-5.77,8.25-18.48,7.8-26.81l-2.47-11.89s-5.22-1.86-6.94-8.13c-1.72-6.27.29-54.69.29-54.69"/>
  <path class="cls-26" d="M422.74,823.36s28.55,106.59,37.73,130.72c0,0-127.78,44.27-243.45,27.54-115.67-16.73-121.39-32.53-121.39-32.53l41.49-112.17,19.69-44.55,251.8,19.92"/>
  <path class="cls-26" d="M88.06,560.84c-7.68,19.59-9.59,41.75-10.21,63.4-.46,16.06,1.42,31.31,4.92,47,2.43,10.92,4.96,21.81,7.66,32.67,5.58,22.41,11.91,44.66,19.7,66.42,6.78,18.94,14.7,37.52,24.25,55.23l.79-22.51,32.83-138.17s-5.71-164.7-5.71-164.75c0,.17-15.27,5.16-16.2,5.55-12.28,5.14-23.96,11.97-34.06,20.68-11.35,9.79-18.91,21.58-23.97,34.48Z"/>
  <path class="cls-25" d="M445.18,592.18c-2.13,4.38-3.29,9.41-4,14.2-.84,5.64-.98,11.39.22,16.97,2.15,9.97,5.15,19.75,7.34,29.71,6.24,28.31,9.23,60.32-4.78,86.89-1.91,3.63-4.14,7.09-6.64,10.34-.87,1.13-1.68,1.94-2,3.29-.87,3.64-1.61,7.3-2.29,10.98-2.77,14.96-4.48,30.22-4.35,45.46.08,8.54.74,17.12,2.5,25.49,1.21,5.76,2.53,11.49,3.6,17.28,2.57,13.87,4.65,27.83,6.6,41.79,2.88,20.62,5.45,41.29,7.73,61.98.04.35.08.71.12,1.06.12,1.07,2.29.53,2.17-.58-1.9-17.55-4.07-35.08-6.42-52.58-1.9-14.16-3.92-28.32-6.29-42.41-1.04-6.16-2.14-12.31-3.41-18.43-1.46-7.04-3.1-13.96-3.77-21.15-1.55-16.45-.22-33.17,2.28-49.46.81-5.31,1.77-10.61,2.91-15.86.27-1.27.56-2.54.86-3.81.05-.21.07-.49.17-.69.05-.11.64-.62.8-.83.74-.93,1.46-1.88,2.15-2.85,17.69-24.69,17.5-56.87,12.42-85.57-2.05-11.58-5.07-22.93-7.99-34.32-.85-3.32-1.82-6.69-2.2-10.11-.83-7.52.45-15.64,2.89-22.77.43-1.26.89-2.52,1.47-3.72.56-1.15-1.64-1.24-2.09-.31h0Z"/>
  <path class="cls-24" d="M358.68,234.62c-1.6-.06-2.55,1.44-3.32,2.63-.85,1.3-2.15,3.46-4.02,2.49-1.53-.8-1.94-2.95-2.87-4.28-.87-1.24-2.26-1.61-3.52-.65-.78.6-1.34,1.43-1.98,2.17s-1.42,1.5-2.47,1.16c-.12-.04-.18.15-.05.19,1.62.53,2.69-1.26,3.57-2.3.56-.66,1.23-1.42,2.13-1.57.99-.17,1.73.47,2.24,1.24.86,1.31,1.27,3.2,2.66,4.1s2.68.02,3.54-1.08c1.05-1.36,2.03-3.97,4.09-3.9.13,0,.13-.2,0-.2h0Z"/>
  <path class="cls-14" d="M342.5,449.75c-.46-9.57.22-8.2-.12-18.01-.03-.83.05-1.6.16-2.34-28.75,1.28-69.98-10.09-94.25-9.36.94.65,3.23,19.9,17.28,31.24,22.58,18.22,38.84,20.52,59.64,20.85l10.41-.8s6.48-.15,6.56-1.1l-1.23-20.41,1.55-.07Z"/>
  <g>
    <path class="cls-9" d="M222.95,386.93c-1.29-10.98,1.02-13.53-3.4-23.7-3.35-7.71-16.37-20.26-22.45-26.06-4.77-2.13-10.8.86-14.04,4.71l-.55,1.41c-4.88,9.9.95,31.41,15.64,43.84,3.92,14.58,21.35,14.28,28,7.9-.2-2.67-2.89-5.44-3.21-8.11Z"/>
    <path class="cls-9" d="M392.24,365.93c-1.02-6.36-7.28-16.29-7.13-22.45.17-7.11,3.13-40.19-4.24-61.47-3.11-8.98-6.16-16.38-8.82-22.21-.28-.2-.53-.48-.7-.87-.58-1.32-1.37-2.84-2.05-3.92-7.34-11.68-21.39-17.6-34.37-21.04-7.31-1.94-13.58-15.35-21.11-16.05-4.45-.41-10.35,11.58-14.86,11.53.22.41.21.58-.2.32,0,.21-1.21-.02-2.52-.32-1.31,0-2.6.03-3.86.08.03.08.08.16.13.24.11.54.59,1.57,1.01,1.55-2.83,1.45-6.24.7-9.2-.96,1,.85,1.52,1.72,2.02,2.14-2.41.1-4.31.62-6.79-1.06.02.44,1.04,1.73,1.52,1.71-2.37.98-5.27.66-7.73-.57.02.44,1.02,1.29,1.51,1.71-1.9.52-3.83.6-5.8-.65l1.52,1.72c-1.92.08-3.33,1.02-6.25.25.02.44,1,.85,1.02,1.29-1.45.06-3.37.14-4.83-.25.02.44,1.5,1.27,1.02,1.29-1.71.07-3.01.82-5,.43-.13.07-.26.13-.39.2.38.44.76,1,1.14,1.32-1.33.05-2.66.31-4,.2-.43.24-.85.48-1.27.72.16.23.34.45.52.6-.75.03-1.42.19-2.1.33-.66.4-1.32.8-1.97,1.21-.12.08-.25.16-.37.24.07.06.13.12.19.16-.16,0-.33.02-.49.03-13.86,8.97-25.33,21.15-34.7,34.58-7.01,10.05-12.91,20.86-17.7,32.12.03,2.51.19,4.69.36,6.37.16,1.58.9,4,1.99,6.88,4.49,4.59,8.29,9.76,11.35,15.43,6.13,11.39,9.1,24.31,10.24,37.13.82,9.15,4.23,8.78,3.64,17.94l6.73,15.7,8.74,17.54c23.14,23.99,50.85,38.22,72.61,40.28,7.17.68,21.96-.36,30.89-1.12,6.06-.51,12.01-2.3,16.99-5.79,25.41-17.81,38.25-63.75,33.31-94.53Z"/>
  </g>
  <path class="cls-11" d="M208.74,366.51c-1.93-4.43-4.06-8.83-6.78-12.84-1.38-2.04-2.95-4.06-4.9-5.59-.78-.61-1.71-1.23-2.71-1.41-1.09-.19-1.53.86-1.95,1.7-1.93,3.95-1.81,8.62-.87,12.82.16.7,1.61.32,1.45-.39-.75-3.31-.96-6.83,0-10.12.32-1.11.78-2.36,1.48-3.26l-.67.32c-.42,0-.07-.02-.02.01s.27.07.05,0c.09.03.19.05.28.09.64.26,1.11.54,1.69.98,2.71,2.04,4.69,5.09,6.41,7.96,1.94,3.24,3.58,6.65,5.08,10.12.29.67,1.73.26,1.45-.39h0Z"/>
  <path class="cls-11" d="M208.48,366.55c-2.1,0-4.95.48-4.56,3.17.37,2.51,2,4.7,2.08,7.28.02.56-.06,1.13-.28,1.65-.14.32-.33.62-.57.88-.07.08-.17.2-.25.25-.12.08-.08.07.12-.03-.09,0-.18-.03-.27-.05-.52-.31-1.02-.51-1.49-.93-.74-.67-1.33-1.49-1.84-2.35-1.53-2.6-2.32-5.61-2.14-8.62s.72-7.7,3.8-9.07c.23-.1.39-.25.17-.41s-.82.09-1.02.18c-2.98,1.33-3.86,4.98-4.23,7.93s-.16,5.53.97,8.33c.94,2.32,3.26,6.62,6.43,5.42,2.7-1.01,2.12-4.38,1.4-6.48-.47-1.39-1.16-2.76-1.41-4.22-.09-.54-.15-1.17.16-1.66.42-.67,1.29-.64,2-.64.28,0,.83-.03,1.02-.27.13-.16.27-.35-.09-.35h0Z"/>
  <path class="cls-21" d="M372.18,325.15c2.57-1.78,5.93-.94,7.93.45.47.33,1.74,1.27,2.5,3.03.97,2.25.38,5.02-.87,6.81-1.67,2.39-4.84,3.17-7.46,2.31-3.56-1.17-5.16-5.13-4.69-8.21.09-.56.52-2.95,2.59-4.39"/>
  <path class="cls-21" d="M294.2,335.12c-2.93-1.1-5.98.55-7.58,2.39-.38.43-1.38,1.66-1.68,3.55-.39,2.42.87,4.96,2.51,6.39,2.2,1.91,5.47,1.88,7.8.4,3.16-2.01,3.74-6.24,2.53-9.11-.22-.53-1.23-2.73-3.59-3.62"/>
  <path class="cls-21" d="M310.75,342.41s-15.81-8.82-23.3-8.63c-13.51.35-24.95,9.55-28.15,15.05,0,0,17.98-12.52,25.69-12.56,7.36-.03,25.76,6.14,25.76,6.14Z"/>
  <g>
    <path class="cls-12" d="M346.65,383.91c-2.92,1.85-7.62,1.92-10.87.34-.72-.35-2.96.26-1.95.76,4.3,2.09,11.02,1.69,14.78-.7.37-.24.28-.53-.23-.64-.53-.12-1.33-.01-1.73.24"/>
    <path class="cls-12" d="M332.42,384.28c-2.14-.76-4.5-1.05-6.81-1.01-.34,0-.76.17-.99.41-.18.19-.2.42.07.54,1.11.5,2.49.62,3.73.48.39-.04.9-.19,1.09-.54.18-.32-.22-.49-.52-.45-1.03.11-2.09.01-3.01-.4-.31.32-.62.63-.93.95,2.07-.04,4.17.24,6.09.92.38.14.9-.02,1.21-.25.23-.17.46-.52.08-.66"/>
    <path class="cls-12" d="M323.31,385.41c-2.7.19-5.97-.67-7.48-2.53-2.27-2.81-.86-8.01,2.33-10.24.35-.24.13-.49-.25-.54-.49-.06-1.05.17-1.41.43-2.78,1.94-4.3,6.3-3.61,9.07.65,2.59,3.4,4.18,6.69,4.64.98.14,2.01.19,3.02.13.41-.03,1.13-.22,1.3-.55.17-.34-.21-.44-.6-.41"/>
    <path class="cls-12" d="M351.46,382.11c-.17-.29.08-.51.29-.53.73-.05,1.45-.32,2.03-.87.26.26.53.53.79.79-1.44.29-2.86.89-4.08,1.87-.24.19-.63.12-.88-.05-.19-.13-.4-.44-.16-.64"/>
    <path class="cls-12" d="M349.45,382.69c1.37-1.09,2.96-1.74,4.57-2.07.24-.05.56.05.75.25.15.16.2.38.04.54"/>
    <path class="cls-12" d="M357.08,381.95c1.75-.23,3.7-1.57,4.38-3.63,1.03-3.11-.51-6.56-2.87-8.27-.26-.19-.16-.47.08-.57.31-.13.69.01.96.2,2.06,1.49,3.54,4.08,3.51,6.92-.03,2.65-1.53,4.64-3.56,5.59-.6.28-1.25.5-1.9.58-.26.03-.75-.04-.91-.34-.16-.3.07-.47.32-.5"/>
  </g>
  <path class="cls-21" d="M350.47,337.59s12.22-11.9,18.96-13.3c9.84-2.04,13.57,1.41,17.62,5.98,0,0-7.98-5.76-14.87-4.12-6.59,1.57-21.7,11.45-21.7,11.45Z"/>
  <path class="cls-3" d="M344.49,402.05c-14.28.84-42.27.81-42.27.81,0,0,5.57,33.48,38.67,31.53,33.11-1.95,28.21-34.94,28.21-34.94,0,0-10.33,1.76-24.61,2.6Z"/>
  <path class="cls-16" d="M344.63,402.04c-6.79.4-38.97,1.18-38.97,1.18,0,0,11.92,23.4,36.39,20.92,25.7-2.6,22.71-24.04,22.71-24.04l-20.12,1.94Z"/>
  <path class="cls-18" d="M344.99,403.1c-6.79.45-6.79.77-32.27.78,0,0,7.9,7.37,28.27,6.18,20.37-1.2,27.22-9.16,27.22-9.16l-23.21,2.21Z"/>
  <path class="cls-3" d="M370.59,399.68c-.73-.14-.85.06-5.03-2.01-1.49-.73-2.92-1.83-7.01-1.92-6.98-.15-11.23,2.99-14.25,3.17-3.02.18-7.61-2.44-14.53-1.47-4.05.57-15.51,2.9-21.1,3.73-3.35.5-7.39-.64-8.1-.41-.99.32,1.42,7.94,39.4,5.7,37.99-2.23,31.63-6.59,30.61-6.78Z"/>
  <ellipse class="cls-27" cx="212.85" cy="400.47" rx="8.58" ry="8.3" transform="translate(-207.46 570.83) rotate(-84.07)"/>
  <path class="cls-12" d="M306.33,309.9c-21.05-1.14-28.51.58-42.83,5.82-5.51,2.01-9.33,5.04-11.4,10.6-.31.83-1.53,5.63-.07,6.02,1.63.44,3.75-3.87,4.66-4.8,3.29-3.38,7.47-4.35,11.76-5.18,7.9-1.53,16.77-2.28,24.75-2.49,4.03-.11,8.76.9,15.13,1.36,1.06-.85.33-5.02-.18-7.21-.67-2.87-.12-.42-.78-3.28,0,0,.21-.77-1.04-.84Z"/>
  <path class="cls-12" d="M386.17,306.49c.09-1.05.17-2.43.14-3.3-.03-.62-.1-1.25-.21-1.87-11.24-.71-19.09.26-35.79,5.85-1.15.38-.76,1.08-.76,1.08.11,2.93,0,.42.11,3.37.09,2.24.47,6.46,1.68,7.01,5.86-2.08,10.04-4.27,13.84-5.2,6.52-1.6,13.76-2.95,20.65-3.65.12-1.09.24-2.19.34-3.28Z"/>
  <path class="cls-12" d="M142.29,253.23c-.42-6.55,3.19-23.96,8.13-28.27,4.85-4.23,7.48-8.95,13.88-9.6,1.13-.12,2.36-.35,3.07-1.23.65-.82,2.39-1.8,2.41-2.85.19-9.59,4.34-14.27,15.78-19.32,4.07-1.8,6.02-2.75,10.41-2.09,1.41.21,2.89.37,4.24-.08,2.07-.7,3.39-2.64,4.84-4.28,4.93-5.59,12.85-8.39,20.2-7.12,4.92.85,10.16,3.31,14.6,1.03,2.06-1.06,3.51-2.98,5.2-4.55,5.07-4.7,12.52-6.26,19.36-5.21,6.83,1.05,13.11,4.45,18.65,8.58.9.67,1.85,1.39,2.96,1.54,1.73.24-1.45.97,0,0,7.07-4.74,18.65-5.58,26.68-2.78,8.03,2.8,17.07,7.28,19.65,15.39,8.56-.46,18.96,1.19,25.99,7.35,7.02,6.16,11.83,18.15,9.18,27.11-.46,1.57-2.77-1.74-4.25-1.05-1.26.59-2.75.33-4.1-.02-11.44-2.95-20.74-11.17-31.55-15.93-12.96-5.71-27.73-6.24-41.69-3.87-13.96,2.38-27.27,7.52-40.38,12.87-19.48,7.94-39.03,16.56-55.35,29.83-17.43,14.16-30.41,33-41.89,52.3,0,0,18.36,73.51,13.09,73.37-5.27-.14-3.94-.77-3.45-5.56.5-4.8,8.27-5.07,8.27-5.07-14.33-.24-23.2-15.39-27.33-21.87-7.71-12.07-1.23-29.92-1.23-29.92,0,0-2.39.98-8.27-15.11-5.88-16.1,2.12-34.76,6.68-40l6.22-3.59Z"/>
  <path class="cls-12" d="M191.74,319.25c6.16,9.99,12.32,19.98,18.48,29.97,3.31,5.37,4.79,15.29,8.81,10.44,2.25-2.71,2.78-11.38,1.52-14.67-3.79-9.91-7.95-28.14-11.74-38.04,10.13-.93,23.86-13.87,26.97-23.55,3.12-9.68.81-13.62-.07-23.75,4.87,5.96,14.61,5.62,21.01,1.35,6.41-4.27,10.29-11.33,13.93-18.12,3.46,6.51,19.08,5.24,25.51,1.64,6.43-3.6,7.44-4.3,10.02-11.21,2.57-6.91,2.28-8.82,2.34-15.27,1.5,9.86,10.52,17.82,14.51,19.23,9.41,3.32,21.78,4.43,29.06-2.4-1.86,5.03.93,10.84,5.2,14.08s9.7,4.47,14.97,5.48c1.08.21,2.25.4,3.25-.04,2.73-1.21,1.8-5.3.29-7.88-15.06-25.81-44.91-42.26-74.78-41.2-27.48.98-52.59,15.38-75.06,31.22-15.29,10.78-30.92,23.84-35.17,42.06"/>
  <path class="cls-12" d="M221.17,294.16c3.44,3.13,4.17,8.37,3.22,12.92-.63,3-1.91,5.9-3.98,8.16-2.07,2.26-4.97,3.82-8.03,3.98-.5.03-1.04,0-1.42-.32-.29-.24-.44-.6-.58-.95-2.3-5.92-3.71-12.18-4.17-18.52-.07-1-.11-2.05.33-2.95,1.35-2.77,5.78-2.09,7.93-4.29"/>
  <path class="cls-25" d="M226.82,473.13c4.12,5.94,8.88,11.5,13.75,16.83,10.29,11.28,21.85,21.7,34.96,29.61,7.08,4.27,14.66,7.83,22.66,9.98,8.28,2.22,16.86,2.79,25.37,1.72,6.96-.87,14.05-2.94,19.58-7.43,4.11-3.34,7.03-7.87,8.57-12.92,2.69-8.86,1.56-18.24,0-27.19-.13-.74-.26-1.48-.38-2.22l-1.92.93c2.77,1.5,5.54,3,8.31,4.49,1.34.72,2.67,1.61,4.07,2.2.56.24.14.23.13-.13,0,.06.07.13.08.19.23.92.68,1.82.97,2.73.54,1.72.97,3.47,1.31,5.23.95,5,1.1,10.19.11,15.2-1.26,6.36-4.51,12.17-9.26,16.58-7.2,6.67-16.83,10.1-26.28,12.08-5.92,1.24-11.96,2.02-18.01,1.87-5.44-.14-10.88-.95-16.15-2.29-10.69-2.71-20.79-7.45-30.18-13.19-8.97-5.48-17.36-11.9-25.25-18.84-6.34-5.58-12.36-11.52-18.06-17.76-2.94-3.21-5.81-6.5-8.51-9.92-.12-.16-.25-.31-.37-.47l-.5,1.15c5.5-2.75,11.01-5.5,16.51-8.26,1.32-.66.14-1.89-.98-1.33-5.5,2.75-11.01,5.5-16.51,8.26-.39.19-.84.71-.5,1.15,1.92,2.5,3.99,4.9,6.08,7.27,5.23,5.94,10.76,11.61,16.54,17,7.67,7.14,15.82,13.78,24.53,19.61,9.31,6.23,19.32,11.58,29.99,15.1,10.6,3.49,21.89,5.09,33.02,3.68,11.02-1.4,22.39-4.2,31.68-10.54,5.93-4.05,10.73-9.71,13.14-16.53,1.9-5.37,2.32-11.1,1.71-16.74-.39-3.61-1.2-7.22-2.45-10.63-.24-.64-.39-1.3-.98-1.67-3.11-1.94-6.5-3.52-9.72-5.26-.92-.5-1.85-1-2.77-1.5-.67-.36-2.09-.06-1.92.93,1.38,8.25,2.83,16.55,1.34,24.9-.87,4.86-2.81,9.54-6.12,13.25-4.21,4.73-10.18,7.32-16.26,8.64-16.43,3.56-33.07-.61-47.52-8.64-13.31-7.4-25.05-17.5-35.48-28.53-5.77-6.1-11-12.58-16.07-19.26-.08-.1-.14-.2-.22-.31-.58-.84-2.65.02-1.99.97Z"/>
  <g>
    <path class="cls-5" d="M310.45,744.56c-9.44-1.58-17.42-6.21-24.78-11.85-22.28-17.07-32.08-39.9-30.07-67.69,1.63-22.54,15.53-39.15,36.15-44.12,24.47-5.9,49.07,10.78,52.11,35.47.47,3.79,1.31,8.56-3.49,10.14-4.71,1.55-7.22-1.87-9.45-5.78-5.96-10.47-15.4-14.75-27.18-13.76-11.26.95-19.33,6.82-23.54,17.3-7.64,19.06-4.82,37.12,6.03,54.18,5.58,8.78,12.68,16.23,20.58,22.96,1.22,1.04,2.43,2.1,3.64,3.16Z"/>
    <path class="cls-6" d="M320.27,747.79c6.77-1.52,13.65-2.68,20.3-4.64,15.54-4.59,29.66-11.56,38.14-26.36,5.21-9.09,7.39-18.91,4.61-29.25-2.9-10.77-14.7-17.7-25.72-15.5-1.92.38-3.85.94-5.79.98-2.48.05-4.99-.33-6.24-3-1.28-2.73-.5-5.12,1.47-7.17,8.76-9.08,19.4-11.84,31.41-8.58,29.91,8.1,33.26,39.11,22.35,57.37-13.07,21.87-33.51,32.16-58.01,35.74-7.48,1.09-14.95.96-22.52.42Z"/>
    <path class="cls-5" d="M342.56,597.77c8.16.1,14.92,6.95,14.89,15.09-.03,8.32-7.18,15.27-15.44,15.01-8.12-.26-14.85-7.27-14.68-15.32.16-8.01,7.25-14.89,15.23-14.79Z"/>
    <path class="cls-6" d="M373.36,639.22c-.02-5.95,4.49-10.67,10.35-10.83,5.73-.15,10.61,4.62,10.71,10.49.11,6.18-4.64,11.12-10.62,11.06-5.85-.06-10.41-4.75-10.43-10.73Z"/>
  </g>
  <ellipse class="cls-26" cx="667.72" cy="214.92" rx="171.75" ry="140"/>
  <polygon class="cls-26" points="806.27 245.85 877.11 329.46 768.89 310.26 806.27 245.85"/>
  <path class="cls-20" d="M632.57,176.73c1.66-4.82,4.12-8.91,7.39-12.29,3.27-3.38,7.23-6,11.88-7.89,4.65-1.88,9.97-2.82,15.95-2.82,4.65,0,9,.69,13.04,2.08,4.04,1.39,7.61,3.41,10.71,6.06,3.1,2.66,5.54,5.87,7.31,9.63,1.77,3.77,2.66,8.08,2.66,12.96,0,6.2-1.36,11.46-4.07,15.78-2.71,4.32-6.17,8.47-10.38,12.46-3.43,3.43-6.17,6.12-8.22,8.06-2.05,1.94-3.57,3.85-4.57,5.73-1,1.88-1.66,4.18-1.99,6.89-.33,2.71-.55,6.62-.66,11.71h-10.46c-.11-5.09.17-9.36.83-12.79.67-3.43,1.74-6.53,3.24-9.3,1.5-2.77,3.49-5.42,5.98-7.97,2.49-2.55,5.51-5.42,9.05-8.64,3.1-2.88,5.67-6.09,7.72-9.63,2.05-3.54,3.07-7.47,3.07-11.79,0-3.32-.64-6.37-1.91-9.13-1.27-2.77-2.99-5.12-5.15-7.06-2.16-1.94-4.68-3.46-7.56-4.57-2.88-1.11-5.92-1.66-9.13-1.66-4.43,0-8.36.78-11.79,2.33-3.43,1.55-6.26,3.68-8.47,6.4-2.22,2.71-3.88,5.9-4.98,9.55-1.11,3.65-1.61,7.64-1.49,11.96h-10.46c0-5.87.83-11.21,2.49-16.03ZM673.43,257.21v17.61h-13.95v-17.61h13.95Z"/>
  <path class="cls-26" d="M428.1,812.81l-23.07.44c-8.71.17-17.42-.45-26.02-1.84l-173.05-8.99s-4.46-168.92-35.45-241.68c-.29.26-.58.52-.88.78-9.54,8.27-19.57,15.96-29.69,23.5-11.08,8.25-21.56,17.35-31.99,26.4-8.44,7.32-19.35,14.21-27.72,21.6-.02,10.88,0,25.52,0,25.52,3.98,8.57,26.76,166.66,33.51,186.22,11.16,32.36,25.09,63.78,56.23,63.84,101.43.17,207.83-31.65,263.17-47.88l-5.03-47.9Z"/>
  <path class="cls-25" d="M149.93,544.37c8.53,1.41,14.22,10.05,18.06,17.04,3.4,6.18,6.08,12.81,8.16,19.55.83,2.7,1.27,5.52,1.82,8.28,1,5.01,1.92,10.04,2.8,15.07,1.92,11.01,3.6,22.05,5.14,33.12,3.23,23.09,5.87,46.25,8.23,69.44,1.95,19.19,3.68,38.4,5.24,57.63.5,6.22.99,12.44,1.45,18.66.14,1.94.28,3.87.42,5.81.07.96,0,2.05.21,2.99.03.12.02.26.03.39.03.5.99.38,1.25.32,8.8-2,17.59-4.01,26.39-6.01,19.27-4.39,38.54-8.78,57.82-13.17,18.98-4.32,37.96-8.65,56.95-12.97,8.32-1.89,16.67-3.69,24.96-5.69,15.48-3.73,30.88-7.78,46.32-11.67.49-.12.98-.25,1.47-.37-.42-.11-.83-.22-1.25-.32,4.87,15.97,9.75,31.94,14.62,47.91.68,2.24,1.37,4.47,2.05,6.71l.92-.91c-15.76,4.65-30.63,12.29-45.18,19.79-19.29,9.94-38.3,20.44-57.61,30.36-21.34,10.97-43.02,21.35-65.39,30.04-22.41,8.7-45.65,15.76-69.5,19.13-5.79.82-11.61,1.41-17.44,1.75-5.94.34-12.07.72-17.96-.27-11.43-1.91-21.35-8.54-28.65-17.38-1.84-2.23-3.51-4.59-5.04-7.03-.43-.68-2.53.05-2.01.89,6.09,9.7,14.65,18.01,25.41,22.28s22.46,3.41,33.71,2.44c23.88-2.06,47.26-8.16,69.81-16.11,23.19-8.18,45.61-18.42,67.58-29.43,20.14-10.09,39.9-20.91,59.84-31.38,15.51-8.15,31.23-16.54,47.84-22.26,1.63-.56,3.27-1.09,4.93-1.57.34-.1,1.07-.43.92-.91-4.87-15.97-9.75-31.94-14.62-47.91-.68-2.24-1.37-4.47-2.05-6.71-.15-.48-.9-.41-1.25-.32-15.19,3.83-30.38,7.65-45.57,11.48-7.23,1.82-14.54,3.37-21.81,5.03-18.24,4.16-36.48,8.31-54.72,12.47-19.81,4.51-39.63,9.03-59.44,13.54-7.13,1.62-14.26,3.25-21.39,4.87-2.27.52-4.54,1.03-6.8,1.55-1.2.27-2.53.43-3.7.84-.14.05-.31.07-.45.1l1.25.32c-.51-7.62-1.1-15.24-1.7-22.86-1.47-18.62-3.12-37.22-4.96-55.8-2.29-23.15-4.86-46.29-7.96-69.35-1.53-11.39-3.2-22.76-5.08-34.1-.87-5.24-1.79-10.47-2.78-15.69-.79-4.15-1.45-8.4-2.52-12.49-1.49-5.66-3.84-11.24-6.37-16.5-3.6-7.49-8.35-15.91-15.88-20.06-1.61-.89-3.36-1.53-5.18-1.83-.77-.13-2.56,1.07-1.3,1.28h0Z"/>
  <path class="cls-25" d="M202.28,792.09c-5.28,2.43-10.27,5.76-13.68,10.55-3.06,4.29-4.62,9.34-5.36,14.51-.47,3.29-.65,6.62-.72,9.95,0,.44,2.16.12,2.17-.58.23-10.44,1.76-21.36,10.1-28.57,2.62-2.27,5.64-4,8.78-5.45.36-.17.56-.4.24-.66s-1.23.12-1.53.25h0Z"/>
  <path class="cls-10" d="M429.36,786.8l20.34-6.2s39.03,3.24,57.31-.53c13.17-3.2,26.08-8.11,38.36-14.59l41.62-7.87s18.35,6.33,21.66.57c3.3-5.76-2.66-9.98-8.44-14.08-5.79-4.1-105.17-28.74-105.17-28.74,10.12-5.75,15.21-10.94,25.95-15.07,16.54-6.22,24.35-16.86,19.69-23.96-3.27-4.99-22.7,2.6-35.81,11.73-8.52,5.93-28.69,5.21-44.78,13.64-16.09,8.43-26.46,30.26-26.46,30.26-6.03,4.06-17.15,10.21-17.15,10.21-.3,1.34,12.89,44.63,12.89,44.63Z"/>
  <path class="cls-14" d="M587.99,756.8c-7.42-.76-14.85-1.52-22.27-2.28-11.73-1.2-23.46-2.4-35.19-3.61-2.7-.28-5.4-.55-8.1-.83-.75-.08-1.7.09-2.28.61-.45.4-.43.95.27,1.02,7.42.76,14.85,1.52,22.27,2.28,11.73,1.2,23.46,2.4,35.19,3.61,2.7.28,5.4.55,8.1.83.75.08,1.7-.09,2.28-.61.45-.4.43-.95-.27-1.02h0Z"/>
  <path class="cls-14" d="M545.36,765.42c-.18.04-.79.18-.33.08-.63.14-1.27.27-1.91.39-2.15.4-4.31.7-6.49.9-5.84.52-11.92.37-17.48-1.66-.65-.24-1.67.11-2.25.41-.34.17-1.06.62-.39.86,5.93,2.17,12.51,2.27,18.74,1.72,3.48-.31,6.99-.81,10.39-1.66.31-.08,1.61-.45,1.47-.95s-1.5-.15-1.75-.08h0Z"/>
  <path class="cls-22" d="M914.25,647.64c-14.28-1.1-28.51-2.81-42.61-5.3-6.55-1.16-26.25-4.83-37.33-15.9,17.23-49.87,29.36-93.57,37.19-124.08,12.33-48.01,60.91-48.98,66.84-51.38,0,0,13.97,137.89.77,214.38-7.72-.28-17.16-17.12-24.86-17.71Z"/>
  <path class="cls-7" d="M889.41,1578.49c-11.34-171.76-25.14-324.54-24.86-393.73l-3.56-250.03c.93-5.59,8.63-11.16,9.47-16.72,7.41,1.32,5.46,2.4,13.03,3.07,24.71,2.2,49.68.86,74.13-2.84,50.6-7.65,98.78-25.23,144.94-44.9,18.28-7.79,36.32-16,54.32-24.3l61.19,45.52c35.42,68.36,32.95,100.56,26.09,165.05-4.21,39.62-10.95,127.81-17.59,217-16.81,225.63-28.12,484.66-28.12,484.66,0,0-58.59,27.31-183.06,21.57-27.68-1.28-113.65-16.24-113.65-16.24-5.38-45.29-9.74-149.02-12.32-188.12Z"/>
  <path class="cls-22" d="M888.82,773.79c-.06,12.49-11.66,76.93-14.54,88.7,10.66,3.6,27.24-2.78,38.34-.77,48.49,8.75,98.33,2.72,145.88-8.58,40.67-9.67,80.18-23.4,119.5-37.53l-1.12-2.76,24.42-345.96-71.44-32.29-16.09-8.43-6.08,15.82c-14.7,17.73-33.17,27.72-57.05,27.89-6.99.05-14.34-.37-21.79-1.33-20.79-2.68-49.85-17.69-59.25-33.95-.35-.61-15.56,4.71-18.51,5.73-20,6.91-34.06,16.99-50.63,23.81,0,0-15.42,21.45-18.05,80.76"/>
  <path class="cls-2" d="M969.59,434.59c10.62-3.55,16.46-6.36,17.55-10.89,1.6-6.62-2.06-57.22-2.06-57.22l119.46-44.54s-15.32,56.52-1.62,95.65c1.91,5.46,17.7,11.73,17.7,11.73l-25.07,27.64c-24.88,21.2-56.99,29.28-84.97,25.4-15.86-2.2-19.53-3.1-32.06-8.02,0,0-24.43-11.4-8.93-39.75Z"/>
  <path class="cls-28" d="M987.95,412.09s12.07-3.76,20.17-5.46c8.1-1.7,21.69-.31,60.48-29.64,0,0-13.39,38.36-60.74,43.58,0,0-12.26,1.71-20.08-.75l.17-7.73Z"/>
  <path class="cls-2" d="M963.02,170.5c-.14.27-.33.55-.52.81.18-.13.36-.25.53-.37v-.44ZM942.01,175.81v.37c.34-.27.66-.55.95-.83,0-.44-.95.46-.95.46ZM1099.92,337.86l2.45-7.35c9.52,13.34,25.81,3.18,27.03-15.57,5.26-9.3,12.62-40.42,5.06-50.22l-.91-1.43c-5.37-4.29-15.02-6.28-19.18.86-1.37,3.11-.33,7.06-1.7,10.17-1.36,3.56-6.5,10.28-8.83,13.41,0,0-2.79-18.01-2.5-26.38.29-8.38-5.99-32.48-21.12-44.04,0,0-.16-29.52-7.07-38.18l-2.42-.83c-1.44.03-2.39.49-3.83.52,0-.44.46-.89.44-1.77-2.38.93-4.31.53-6.23.57.47-.45,1.42-.91,1.41-1.35-1.91.48-3.84.08-5.76.13.47-.45,1.41-1.35,1.4-1.79-2.38.93-3.84.08-5.76.13.47-.45.93-1.34.92-1.78-1.9.92-3.83.52-5.75.57.47-.45.93-1.34,1.4-1.79-2.38.93-3.84.08-5.75.13-.48.01.94-.9.93-1.34-1.43.47-3.35.51-4.79.55,0-.44.94-.9.93-1.34-2.86.94-4.32.09-6.24.14l1.4-1.79c-1.89,1.36-3.81,1.4-5.73,1.01.47-.45,1.41-1.35,1.4-1.79-2.37,1.37-5.24,1.87-7.66,1.05.48-.01,1.41-1.35,1.4-1.79-2.36,1.81-4.29,1.42-6.69,1.47.47-.45.93-1.34,1.87-2.25-2.84,1.83-6.18,2.78-9.09,1.52.48-.01.93-1.34.92-1.78-1.88,1.8,1.67-.48-.74-.87,0,0-5.48,1.89-5.49,1.44-1.89,1.36,4.9-7.58,2.5-7.53.46-.89-13.75,1.12-12.81.22-2.36,1.81-1.89.89-4.78.52,0,0-9.86,5.49-9.39,5.04-2.35,2.26-3.47.43-6.36.05.47-.45,1.77,1.81,2.24,1.36-1.88,1.8-1.3-.41-3.7-.36,0-.44-7.91-2.69-7.92-3.13-2.37,1.37-1.58,1.55-4.46,1.61,0-.44-1.7,4.89-1.23,4.44-1.88,1.8-1.82.36-4.23-.03l-2.34,1.69c-2.35,2.25.92,1.22-1.97.84,0-.31,10.86,1.14,11.29.55-1.79,1.23-3.95,2.41-6.12,2.86,0-.44.45-1.33.44-1.77-1.88,1.8-4.73,3.19-7.62,2.81.48-.01.94-.9.93-1.34-2.35,2.25-5.2,3.64-8.11,2.38v-.07c-1.82,1.5-4.22,2.88-6.65,3.3-.03-1.32.92-1.78.92-1.78l-1.92.04c-2.32,3.58-4.65,6.71-5.52,11.14,0,0-16.24,25.6-15.41,41.88.84,16.28,4.4,44.01,5.03,51.04.55,6.1.21,15.72-.39,22.09-1.35,14.24-1.34,18,2.5,32.18,3.71,13.72,7.31,21.03,15.42,32.74,8.45,12.22,20.39,22.73,31.69,33.05,7.45,6.8,8.28,12.57,28.49,12.48,29.77-.14,58.82-20.04,77.39-39.58"/>
  <path class="cls-15" d="M925.78,205.91c11.08-25.91,40.61-40.77,101.12-49.47,60.51-8.7,108.42,12.46,108.42,12.46-30.1-86.29-118.19-81.54-137.84-81.11-19.65.43-119.44,79.21-84.71,150.53l1.78,6.77s9.23-34.47,11.24-39.18Z"/>
  <path class="cls-15" d="M1150.52,150.51s6.1-54.6-34.04-72.02c-53.63-23.27-126.29-32.48-151.05,24.02l185.09,48Z"/>
  <path class="cls-1" d="M1147.91,282.73c4.3-4.53,2.85-17.1,6.52-22.15,19.19-26.49,12.34-51.88,4.47-66.88-3.43-6.53.95-18.21.51-23.99-2.3-30.3-5.8-31.16-51.58-61.33-37.26-24.55-77.03-22.55-100.04-20.83-36.85,2.77-53.06,5.42-65.4,31.86-1.61,3.45.26,6.16-1.05,10.3-1.87,5.85-10.97,6.68-12.33,14.08,0,0,47.75,18.03,88.83,39.09,41.07,21.06,115.03,104.45,112.63,129.97-.08.8,12.7-25.11,17.46-30.12Z"/>
  <path class="cls-15" d="M1166.82,224.76s-71.46-84.38-147.6-83.48c0,0,97.15-14.82,141.88,54.57l1.09,2.78c2.86,7.34,4.41,15.12,4.57,22.99l.06,3.13Z"/>
  <path class="cls-15" d="M940.3,130.73l5.12-2.04c11.9-4.74,24.43-7.73,37.18-8.88l21.38-1.93s-51.9-7.94-63.12,5.4l-.56,7.44Z"/>
  <path class="cls-12" d="M1095.96,252.71l3.48,42.79,14.65-19.24s-12.91-16.88-18.13-23.55Z"/>
  <path class="cls-17" d="M1110.07,294.54c1.46-.02,3.69.02,4.07,1.81.31,1.44-.49,3.11-.99,4.42-1.08,2.82-2.94,6.73-.59,9.42,2.79,3.19,6.87-1.46,8.27-3.77,2.11-3.48,3.12-7.47,2.78-11.51-.35-4.1-1.37-9.86-5.67-11.63-.42-.18-1.75.45-1.16.69,3.76,1.55,4.8,6.47,5.25,10.08s.04,6.91-1.52,10.38c-.92,2.06-2.32,4.45-4.33,5.62-1.43.83-2.55-.34-3.03-1.71-1.07-3.06,1.1-6.52,2.02-9.35.38-1.16.81-2.66.11-3.78-.91-1.47-3.15-1.49-4.65-1.47-.53,0-1.54.82-.57.81h0Z"/>
  <path class="cls-15" d="M1121.59,232.65s27.63,27.34,29.94,38.36l2.9-10.43s-8.55-19.83-32.83-27.93Z"/>
  <g>
    <path class="cls-12" d="M974.61,326.3c3.49,1.94,8.89,1.65,12.51-.45.8-.47,3.42.08,2.3.73-4.78,2.77-12.53,2.84-17.03.34-.45-.25-.36-.59.22-.77.59-.18,1.53-.12,2.01.15"/>
    <path class="cls-12" d="M990.99,325.61c2.41-1.06,5.09-1.57,7.75-1.71.39-.02.89.14,1.17.4.22.21.26.47-.04.63-1.24.67-2.82.92-4.25.85-.45-.02-1.05-.15-1.29-.54-.23-.36.22-.58.57-.57,1.19.05,2.4-.15,3.43-.7.38.34.76.69,1.14,1.03-2.38.12-4.78.6-6.93,1.55-.43.19-1.03.04-1.41-.19-.28-.17-.57-.57-.14-.76"/>
    <path class="cls-12" d="M1001.54,326.22c3.12,0,6.81-1.25,8.4-3.53,2.4-3.46.4-9.09-3.43-11.44-.42-.26-.18-.57.25-.65.56-.1,1.22.12,1.65.39,3.33,2.05,5.41,6.68,4.81,9.97-.56,3.07-3.59,5.15-7.34,5.94-1.11.24-2.3.38-3.46.38-.47,0-1.32-.16-1.54-.54-.22-.38.21-.53.65-.53"/>
    <path class="cls-12" d="M968.95,324.57c.18-.35-.13-.59-.38-.59-.84,0-1.69-.26-2.39-.85-.28.33-.57.65-.85.98,1.68.23,3.35.82,4.83,1.86.29.21.73.09,1-.13.2-.16.43-.55.13-.76"/>
    <path class="cls-12" d="M971.3,325.08c-1.65-1.16-3.53-1.8-5.4-2.06-.27-.03-.64.1-.84.35-.16.2-.2.46,0,.63"/>
    <path class="cls-12" d="M962.48,324.82c-2.02-.13-4.37-1.54-5.3-3.9-1.41-3.56.1-7.7,2.69-9.88.28-.24.14-.56-.13-.66-.36-.13-.79.07-1.09.31-2.25,1.9-3.77,5.05-3.52,8.36.23,3.09,2.11,5.3,4.51,6.26.71.28,1.48.48,2.23.53.31.02.86-.11,1.02-.47.16-.37-.11-.54-.4-.56"/>
  </g>
  <path class="cls-12" d="M935.36,268.32c-2.69-1.32-6.1-.12-7.81,1.46-.4.37-1.16,1.49-1.64,3.26-.61,2.25.34,4.77,1.78,6.28,1.92,2.02,5.05,2.3,7.43,1.13,3.22-1.59,4.19-5.53,3.32-8.36-.16-.52-.91-2.7-3.08-3.77"/>
  <path class="cls-12" d="M962.65,277.13s-13.19-9.92-19.83-10.44c-9.7-.75-21.5,4.87-24.82,9.75,0,0,15.6-8.36,22.42-7.64,6.52.7,22.24,8.33,22.24,8.33Z"/>
  <path class="cls-12" d="M1026.56,266.62c2.63-1.44,1.89-1.12,3.67.39.42.35,1.54,1.37,2.09,3.11.71,2.22-.13,4.78-1.5,6.35-1.83,2.1-4.95,2.52-7.37,1.46-3.29-1.45-4.43-5.34-3.68-8.21.14-.52-.41-1.52,1.71-2.68"/>
  <path class="cls-12" d="M1007.47,274.91s14.44-9.63,21.64-10c10.51-.54,23.19,5.35,26.7,10.29,0,0-16.74-8.71-24.13-8.13-7.06.55-24.21,7.83-24.21,7.83Z"/>
  <path class="cls-12" d="M959.14,243.59c.04,1.96.07,3.92.1,5.9.02,1.5.05,3,.06,4.49-4.82-1.17-8.95-1.9-12.06-2.38-6.58-1.01-9.95-1.5-13.74-.75-3.98.78-7.35,2.41-8.65,3.05-1.84.91-3.07,1.48-4.53,2.63-3.18,2.5-4.43,5.28-4.97,5.05-.49-.21.25-2.64.33-2.89,1.89-6.12,6.33-9.81,6.66-10.1,0,0,3.33-2.86,8.76-4.42,3.74-1.08,14.15-2.02,28.04-.57"/>
  <path class="cls-12" d="M1006.24,243.28c.24,1.94.49,3.89.74,5.85.19,1.49.39,2.97.59,4.45,5.66-1.96,10.53-3.38,14.22-4.38,7.8-2.1,11.8-3.15,16.49-3.05,4.93.1,9.23,1.15,10.9,1.57,2.35.59,3.93.95,5.86,1.84,4.21,1.94,6.14,4.48,6.75,4.16.56-.29-.7-2.57-.83-2.8-3.19-5.73-9.09-8.64-9.54-8.87,0,0-4.45-2.27-11.24-2.91-4.68-.44-17.4.38-33.97,4.13"/>
  <path class="cls-22" d="M889.4,784.9s-25.56,64.14-32.29,156.96c0,0,137.71,29.07,267.86,15.15,130.15-13.92,118.6-25.69,118.6-25.69l-44.3-118.73-2.9-51.84-283,13.02"/>
  <path class="cls-3" d="M985.8,348.27c13.91-.55,36.37-3.19,36.37-3.19,0,0-3.01,35.19-35.25,36.47-32.24,1.28-35.92-33.98-35.92-33.98,0,0,20.89,1.26,34.8.7Z"/>
  <path class="cls-4" d="M984.7,348.27c6.61-.26,33.21-2.52,33.21-2.52,0,0-8.43,23.04-32.34,23.99-25.93,1.03-30.38-21.17-30.38-21.17l29.5-.31Z"/>
  <path class="cls-8" d="M985.41,349.34c6.61-.26,26.68-2.26,26.68-2.26,0,0-6.93,8.02-26.77,8.8-19.83.79-26.43-6.46-26.43-6.46l26.51-.09Z"/>
  <path class="cls-3" d="M949.68,346.77c.7-.21,2.66.09,5.93-.34,5.45-.72,8.81-2.39,12.77-2.88,6.75-.82,11.16,1.85,14.1,1.74,2.94-.12,7.13-3.14,13.92-2.85,3.98.17,13.85,1.31,19.34,1.6,3.3.17,7.09-1.35,7.8-1.19.99.22-.6,7.94-37.59,9.42-36.99,1.47-37.24-5.19-36.27-5.49Z"/>
  <path class="cls-23" d="M875.9,542.74c1.99,4.35,3.04,9.28,3.68,13.99.77,5.62,1.03,11.53-.37,17.08-2.17,8.57-5.34,16.91-7.97,25.35-3.73,11.99-7.01,24.15-9.05,36.56-2.11,12.82-2.99,26.11-.78,38.98s7.55,24.27,16.85,33c1.21,1.14,2.48,2.22,3.79,3.25.69.54,2.98-.44,2.31-.97-10.18-7.98-16.71-19.2-19.62-31.73-2.96-12.74-2.49-26.08-.67-38.95s4.96-25.01,8.65-37.2c2.72-8.96,5.95-17.78,8.48-26.79,1.18-4.19,1.53-8.2,1.41-12.6-.19-6.65-1.37-13.45-3.82-19.65-.13-.33-.26-.65-.41-.97-.39-.85-2.83-.08-2.49.67h0Z"/>
  <path class="cls-23" d="M1030.02,498.76c11.13.33,22.2-1.73,32.79-5.07,10.93-3.45,21.44-8.22,31.33-13.99,4.65-2.71,9.18-5.65,13.52-8.84s8.64-6.93,12.8-10.6c5.96-5.25,11.91-10.51,17.64-16.01,1.3-1.25,2.88-2.51,3.92-4.01.36-.52.22-.96-.33-1.25-5.94-3.08-11.88-6.15-17.81-9.23-.85-.44-1.7-.88-2.54-1.32-.66-.34-1.56.14-1.91.7-.09.15-.28.43-.09.14-.22.34-.43.67-.66,1-.81,1.21-1.66,2.4-2.54,3.58-3.09,4.16-6.46,8.11-10.03,11.86-11.12,11.68-24.4,21.43-39.2,27.9-10.52,4.6-21.75,7.41-33.2,8.33-1.42.11-1.9,2.01-.21,1.88,19.89-1.6,38.82-8.88,55.09-20.34,10.9-7.68,20.7-17.11,28.79-27.71,1.56-2.04,3.09-4.12,4.43-6.31-.64.23-1.27.47-1.91.7,5.94,3.08,11.88,6.15,17.81,9.23.85.44,1.7.88,2.54,1.32l-.33-1.25c-.74,1.07-1.84,1.98-2.76,2.88-4.69,4.59-9.61,8.95-14.52,13.31-4.2,3.73-8.36,7.54-12.76,11.03-4.07,3.23-8.34,6.21-12.74,8.98-9.46,5.94-19.61,10.94-30.14,14.68-11.54,4.1-23.84,6.9-36.15,6.54-.59-.02-1.37.15-1.62.77-.21.53.2,1.07.77,1.09h0Z"/>
  <path class="cls-23" d="M1007.54,481.08c-9.56-1.24-19.43-3.25-28-7.85-4.8-2.58-9.25-6.09-11.94-10.92-1.71-3.08-2.55-6.65-2.42-10.16.05-1.24.2-2.48.47-3.7.1-.44.21-.87.33-1.3.08-.28.1-.34.09-.28.04-.12.08-.24.12-.36,1.44-3.92,2.77-7.87,4.15-11.81.38-1.08-1.08-1.07-1.72-.82-3.86,1.49-7.72,2.98-11.58,4.48-2.02.78-4.05,1.56-6.07,2.35-.51.2-1.04.34-1.35.84-.22.36-.33.85-.47,1.24-2.3,6.59-3.04,13.86-1.84,20.75,1.49,8.57,6.34,16.02,13.03,21.47,7.7,6.27,17.43,9.47,27.31,9.52,1.39,0,1.93-1.74.24-1.74-10.92-.05-21.75-4.58-29.26-12.55-3.72-3.94-6.55-8.64-8.04-13.86-1.51-5.28-1.66-10.86-.81-16.27.44-2.8,1.08-5.69,2.2-8.31l-.64.57c6.12-2.37,12.23-4.73,18.35-7.1l-1.72-.82c-1.36,3.88-2.69,7.77-4.08,11.64-.65,1.78-1.05,3.63-1.18,5.53-.68,9.47,5.19,17.21,13.02,21.93,9.27,5.59,20.34,7.89,30.95,9.27,1.18.15,2.55-1.52.88-1.74h0Z"/>
  <polygon class="cls-2" points="1017.75 478.39 1004.04 512.03 1003.52 476.94 1017.75 478.39"/>
  <path class="cls-23" d="M1032.44,482.81c-1.14,2.78-2.29,5.57-3.43,8.35-2.75,6.69-5.5,13.38-8.25,20.07-3.33,8.1-6.66,16.19-9.98,24.29-2.88,7.01-5.76,14.01-8.64,21.02-.95,2.32-1.91,4.64-2.86,6.97-.43,1.04-1.1,2.18-1.35,3.29-.01.05-.04.1-.06.15l1.63-.73c-5.23-.58-10.46-1.15-15.69-1.73l.72.92c1.08-2.73,2.17-5.45,3.25-8.18,2.62-6.59,5.24-13.17,7.86-19.76,3.16-7.94,6.31-15.87,9.47-23.81,2.74-6.89,5.48-13.79,8.23-20.68.9-2.26,1.8-4.52,2.7-6.78.41-1.02,1.06-2.15,1.28-3.23.01-.05.04-.1.06-.14l-1.63.73c5.81.06,11.62.12,17.43.18.54,0,1.38-.16,1.63-.73.22-.52-.2-.91-.72-.92-5.81-.06-11.62-.12-17.43-.18-.52,0-1.4.16-1.63.73-1.08,2.73-2.17,5.45-3.25,8.18-2.62,6.59-5.24,13.17-7.86,19.76-3.16,7.94-6.31,15.87-9.47,23.81-2.74,6.89-5.48,13.79-8.23,20.68-1.31,3.31-2.91,6.62-3.98,10.01-.02.05-.04.1-.06.14-.22.55.19.86.72.92,5.23.58,10.46,1.15,15.69,1.73.52.06,1.41-.19,1.63-.73,1.14-2.78,2.29-5.57,3.43-8.35,2.75-6.69,5.5-13.38,8.25-20.07,3.33-8.1,6.66-16.19,9.98-24.29,2.88-7.01,5.76-14.01,8.64-21.02l2.86-6.97c.45-1.08.99-2.17,1.35-3.29.02-.05.04-.1.06-.15.51-1.24-1.98-1.1-2.35-.19Z"/>
  <path class="cls-23" d="M986.85,477.47c-.16,2.9-.31,5.81-.47,8.71-.38,7.02-.76,14.03-1.14,21.05-.46,8.45-.91,16.9-1.37,25.36-.4,7.35-.79,14.69-1.19,22.04l-.39,7.23c-.06,1.13-.24,2.32-.19,3.45,0,.05,0,.11,0,.16-.06,1.19,2.2.45,2.5-.28,1.62-4.08,3.25-8.16,4.87-12.24,3.05-7.68,6.11-15.36,9.16-23.04,1.19-2.98,2.37-5.96,3.56-8.94.5-1.25,1.25-2.59,1.55-3.9.33-1.43.22-3.1.32-4.56.26-3.77.52-7.54.78-11.31.45-6.48.99-12.97,1.35-19.46,0-.13.02-.25.03-.38.02-.33-.19-.5-.5-.57-5.62-1.39-11.24-2.77-16.87-4.16-.54-.13-1.38.03-1.76.47-.34.39-.3.82.26.96,5.62,1.39,11.24,2.77,16.87,4.16l-.5-.57c-.38,5.53-.77,11.07-1.15,16.6-.28,4.03-.56,8.07-.84,12.1-.15,2.23-.11,4.58-.47,6.78-.14.87-.62,1.73-.95,2.55-1.06,2.67-2.12,5.33-3.18,8-3.02,7.6-6.05,15.21-9.07,22.81-1.29,3.24-2.57,6.47-3.86,9.71-.65,1.64-1.53,3.33-2,5.03-.02.08-.07.16-.1.25l2.5-.28c.16-2.9.31-5.81.47-8.71.38-7.02.76-14.03,1.14-21.05.46-8.45.91-16.9,1.37-25.36.4-7.35.79-14.69,1.19-22.04l.39-7.23c.06-1.13.24-2.32.19-3.45,0-.05,0-.11,0-.16.06-1.08-2.45-.62-2.5.28Z"/>
  <path class="cls-2" d="M1248.98,587.81c-1.67,13.36-3.61,26.65-5.31,39.73-5.65,43.56-10.75,87.18-20.56,130.08-6.52,28.5-13.06,67.71-34.46,89.43-2.42-10.73-7.06-25.93-12.36-35.4-10.67-19.08-20.88-11.9-39.7-23.21-5.38-3.23-10.72-.3-16.67-2.31,1.94-24.59,11.69-122.3,24.79-198.32h104.26Z"/>
  <path class="cls-22" d="M1148.6,445.77s89.39,21.76,100.69,75.37c11.98,56.82,4.12,146.87,4.12,146.87,0,0-93.39,3.29-139.53-16.79-46.14-20.08,34.72-205.45,34.72-205.45Z"/>
  <path class="cls-23" d="M1185.82,496.1c-7.64-1.23-15.58,1.49-22.28,4.97-7.77,4.03-14.85,9.62-20.69,16.15-2.61,2.92-5,6.07-6.92,9.49-1.27,2.26-2.4,4.62-3.54,6.95-1.76,3.59-3.44,7.22-4.91,10.94-2.49,6.27-4.18,12.75-5.35,19.39-1.62,9.23-2.71,18.55-4.03,27.83-2.45,17.14-5.33,34.21-8.5,51.22-.53,2.84-1.07,5.68-1.62,8.52-.03.17.05.26.22.31,5.03,1.44,10.06,3.17,15.19,4.24,7.31,1.53,14.65,2.89,22,4.17,13.09,2.27,26.25,4.23,39.45,5.71,14.41,1.62,28.92,2.75,43.43,2.56,7.93-.1,15.85-.05,23.78,0,.28,0,.57,0,.85,0,.48,0,1.73-.26,1.77-.89.37-5.31.73-10.63,1.1-15.94.02-.25-.61-.22-.72-.22-16.69.6-33.47.37-50.13-.59-12.46-.72-24.83-2.11-37.13-4.24-11.56-2.01-23.04-4.48-34.44-7.2-5.95-1.42-11.9-2.89-17.81-4.51-.54-.15-1.27.02-1.74.3-.22.13-.85.57-.28.73,15.83,4.36,31.92,7.99,48.06,10.96,12.46,2.29,24.98,3.96,37.61,4.81,11.87.8,23.77,1.1,35.67,1.11,6.38,0,12.77-.04,19.14-.26l-.72-.22-1.1,15.94,1.77-.89c-6.67-.04-13.36-.21-20.04-.11-6.79.1-13.55.12-20.34-.2-7.34-.35-14.68-.94-21.99-1.69-13.5-1.38-26.95-3.29-40.34-5.54-8.24-1.38-16.46-2.89-24.64-4.58-5.17-1.07-10.22-2.73-15.29-4.18-.36-.1-.72-.21-1.08-.31l.22.31c3.45-17.97,6.61-36,9.3-54.1,1.48-9.96,2.69-19.96,4.26-29.9,1.04-6.57,2.38-13.07,4.59-19.35,1.19-3.38,2.58-6.69,4.07-9.95,2.05-4.48,4.14-9.09,6.75-13.27,4.46-7.15,10.77-13.25,17.59-18.14,6.42-4.61,14.08-8.84,22.12-9.45,1.71-.13,3.42-.07,5.12.21.6.1,2.87-.9,1.59-1.1h0Z"/>
  <path class="cls-2" d="M1132.98,870.89s26.26,2.81,49.71-16.28c26.82-21.83,16.27-81.74,10.27-108.49-6.16-27.44-71.56,36.01-71.56,36.01l11.58,88.76Z"/>
  <path class="cls-2" d="M1128.28,873.58c9.6-1.44,20.54-2.3,28.74-6.71.23-1.37.21-1.37.37-2.75,2.35-20.15-1.39-41.15-9.35-59.73-5.5-12.83-5.95-24.47-16.63-33.72-1.22,2.47-4.28,9.25-4.28,9.25l-235.06,10.99s-17.43,42.08-17.42,42.08c81.84,24.22,162.06,37.2,247.39,40.39,2.08.08,4.16.15,6.25.2Z"/>
  <path class="cls-2" d="M906.16,840.48l-27.11-2.72s-54.45,25.78-71.76,27.11c-12.57.46-25.24-.99-37.62-4.29l-13.92,5.57c-6.41,2.57-13.56,2.62-20.24.14l-5.14-1.91s-15.45,12.08-19.56,6.93c-4.1-5.15.5-11.38,4.97-17.42,4.47-6.04,104.8-67.38,104.8-67.38-10.29-3.15-28.04.9-38.58-.34-16.21-1.78-22.07-8.77-15.91-15.32,3.8-4.04,16.48-7.78,25.51-4.32,9,3.44,48.96-10.22,65.18-5.97,16.23,4.25,29.82,24.4,29.82,24.4,8.38,3.42,20.92,5.52,20.92,5.52,6.85,15.93-1.37,49.99-1.37,49.99Z"/>
  <path class="cls-14" d="M1157.66,815.95c-1.83-7.9-4.03-15.9-8.17-22.94-3.43-5.83-8.36-10.43-14.12-13.93-3.93-2.39-8.13-4.3-12.37-6.04-.93-.38-2.04-.27-2.88.32-.51.36-1.25,1.42-.29,1.81,6.79,2.78,13.69,6.02,19.14,11.05,4.97,4.59,8.28,10.43,10.61,16.73,1.69,4.59,2.94,9.33,4.04,14.09.37,1.61,4.43.57,4.05-1.09h0Z"/>
  <path class="cls-23" d="M861.27,638.68c-4.42-.85-8.8-2.45-12.84-4.39-3.61-1.73-7.06-3.85-10.06-6.51-.63-.56-1.62-1.25-2.05-1.99-.26-.46-.1.16-.15-.15-.02-.11.1-.31.14-.42.34-1.05.68-2.11,1.03-3.16.73-2.24,1.46-4.49,2.19-6.73-.8.21-1.6.43-2.4.64,2.38,2.21,5.03,4.18,7.73,5.95,4.59,3.01,9.86,5.73,15.45,5.98.55.02,1.33-.1,1.76-.47.32-.28.39-.58-.16-.61-5.52-.24-10.73-3.1-15.22-6.11-2.52-1.69-4.99-3.54-7.22-5.61-.44-.4-2.22.09-2.4.64-1.13,3.48-2.26,6.95-3.38,10.43-.04.09-.02.17.06.23,4.41,4.77,10.17,8.06,16.17,10.43,3.01,1.19,6.15,2.24,9.33,2.86.56.11,1.25-.02,1.74-.3.19-.11.88-.59.29-.71h0Z"/>
  <path class="cls-27" d="M1110.34,325.46c4.35.32,6.52,3.78,7.11,7.44,1.05,6.59-5.73,11.92-11.58,8.7-.22-.12-.45-.26-.67-.41,0,0,7.1,8.02,13.74,3.13,6.64-4.89,3.65-12.98,1.32-15.15-5.17-4.82-9.92-3.71-9.92-3.71Z"/>
  <path class="cls-14" d="M773.83,862.14c3.62-.81,7.17-2.05,10.6-3.42,6.33-2.52,12.59-5.92,17.3-10.93.65-.7.33-1.57-.51-1.89-.94-.36-2.2.06-2.86.77-4.32,4.61-10.16,7.59-15.97,9.88-2.99,1.18-6.12,2.22-9.28,2.93-.79.18-1.9.94-1.67,1.88s1.64.96,2.38.8h0Z"/>
  <path class="cls-14" d="M790.27,831.3c-5.01,3.1-10.07,6.11-15.15,9.09-9.95,5.82-20,11.5-30.31,16.66-4.95,2.47-9.97,4.88-15.18,6.73-.45.16-1.65.73-1.15,1.36.48.6,2.12.07,2.64-.11,10.23-3.65,19.93-8.96,29.43-14.17,9.03-4.95,17.92-10.12,26.74-15.44,1.81-1.09,3.61-2.18,5.41-3.29.49-.3,1.25-.88.44-1.28-.73-.36-2.21.06-2.85.46h0Z"/>
  <path class="cls-14" d="M876.15,838.58c-5.43,1.16-10.87,3.12-15.65,5.94-5.43,3.19-11.09,5.96-16.83,8.53-3.02,1.35-6.07,2.66-9.19,3.78-.34.12-1.66.57-1.22,1.1.4.49,2.19-.11,2.6-.26,5.8-2.07,11.43-4.66,16.97-7.35,2.8-1.36,5.58-2.77,8.3-4.3,2.79-1.57,5.49-3.15,8.51-4.26,1.38-.51,2.77-.96,4.19-1.35.49-.13.98-.26,1.47-.38.1-.03.59-.14.15-.04-.38.09-.16.04-.06.02.51-.11,2.27-.42,2.38-1.08s-1.29-.41-1.61-.35h0Z"/>
  <path class="cls-14" d="M842.82,759.76c3.72.31,6.92,2.24,10.05,4.14,3.49,2.11,6.97,4.21,10.46,6.32,6.97,4.21,13.94,8.42,20.91,12.64.65.4,1.94-.07,2.59-.29.19-.07,1.78-.71,1.24-1.04-7.11-4.3-14.23-8.6-21.34-12.89-3.54-2.14-7.07-4.29-10.62-6.42-3.08-1.85-6.29-3.62-9.94-3.93-.95-.08-1.96.16-2.82.55-.25.11-1.45.85-.53.93h0Z"/>
</svg>