<?xml version="1.0" encoding="UTF-8"?>
<svg id="Layer_1" data-name="Layer 1" xmlns="http://www.w3.org/2000/svg" viewBox="0 0 82.2 82.2">
  <defs>
    <style>
      .cls-1 {
        fill: #000;
      }

      .cls-1, .cls-2 {
        stroke-width: 0px;
      }

      .cls-2 {
        fill: #d24103;
      }
    </style>
  </defs>
  <path class="cls-2" d="M54.16,79.18c20.7-7.4,31.51-30.28,24.15-51.09C70.95,7.27,48.21-3.6,27.51,3.8,6.82,11.2-4,34.07,3.36,54.89c7.36,20.82,30.1,31.69,50.8,24.29Z"/>
  <ellipse class="cls-1" cx="25.65" cy="39.43" rx="4.05" ry="5.76"/>
  <ellipse class="cls-1" cx="55.97" cy="39.43" rx="4.05" ry="5.76"/>
  <g>
    <path class="cls-1" d="M21.26,24.45c-.43-.05-.84.06-1.18.32-.34.27-.56.66-.62,1.1-.05.43.07.86.34,1.2.27.34.65.55,1.08.59,4.64.53,8.52,3.47,9.66,7.33.16.53.55.92,1.05,1.08v.09h.5c.17,0,.32-.03.47-.07.86-.27,1.34-1.15,1.09-2.01-1.51-5.09-6.49-8.96-12.39-9.63Z"/>
    <path class="cls-1" d="M62.15,25.85c-.11-.9-.89-1.52-1.78-1.41-5.91.67-10.89,4.54-12.39,9.62-.13.41-.08.85.12,1.23.21.38.55.66.95.78.15.05.3.07.48.07h.5v-.09c.49-.16.89-.55,1.05-1.08,1.14-3.86,5.02-6.8,9.67-7.33.43-.05.81-.26,1.08-.6.27-.34.39-.76.34-1.19Z"/>
  </g>
  <path class="cls-1" d="M48.76,58.05c-.44,0-.88-.16-1.22-.48-1.65-1.54-3.92-2.45-6.36-2.54-2.71-.12-5.29.81-7.08,2.52-.72.68-1.85.66-2.54-.05-.68-.72-.66-1.85.06-2.54,2.48-2.37,6.02-3.65,9.7-3.51,3.3.13,6.39,1.37,8.67,3.5.72.68.77,1.82.09,2.54-.36.38-.83.57-1.31.57h0Z"/>
</svg>