<?xml version="1.0" encoding="UTF-8"?>
<svg id="Layer_1" data-name="Layer 1" xmlns="http://www.w3.org/2000/svg" viewBox="0 0 82.2 82.2">
  <defs>
    <style>
      .cls-1 {
        fill: #010101;
      }

      .cls-1, .cls-2 {
        stroke-width: 0px;
      }

      .cls-2 {
        fill: #fcbd1c;
      }
    </style>
  </defs>
  <path class="cls-2" d="M54.16,79.18c20.7-7.4,31.51-30.28,24.15-51.09C70.95,7.27,48.21-3.6,27.51,3.8,6.82,11.2-4,34.07,3.36,54.89c7.36,20.82,30.1,31.69,50.8,24.29Z"/>
  <path class="cls-1" d="M41.51,62.09c-6.61,0-13.15-2.56-17.94-7.01-.78-.73-.83-1.94-.1-2.73.72-.78,1.94-.83,2.73-.1,4.09,3.8,9.67,5.98,15.31,5.98s10.88-2.04,14.92-5.62c.8-.7,2.02-.63,2.73.16.7.8.63,2.02-.16,2.73-4.8,4.25-11.02,6.59-17.48,6.59h0Z"/>
  <path class="cls-1" d="M65.31,40.42c.1.06.22.1.34.1.12,0,.24-.03.34-.08.1-.06.19-.14.25-.24s.09-.22.1-.34c.03-.76-.09-1.52-.36-2.23-.27-.71-.68-1.36-1.2-1.91s-1.16-.99-1.85-1.29c-.7-.3-1.45-.45-2.21-.45s-1.51.15-2.21.45c-.7.3-1.33.74-1.85,1.29s-.93,1.2-1.2,1.91c-.27.71-.39,1.47-.36,2.23,0,.12.04.23.1.34s.15.18.25.24c.1.06.22.09.34.08.12,0,.23-.04.33-.1,1.38-.86,2.98-1.31,4.6-1.31s3.22.45,4.6,1.31Z"/>
  <path class="cls-1" d="M25.58,40.42c.1.06.22.09.33.09.12,0,.23-.03.34-.08.1-.06.19-.14.25-.24.06-.1.1-.22.1-.33,0-1.5-.59-2.94-1.65-4-1.06-1.06-2.49-1.66-3.98-1.66s-2.92.6-3.98,1.66c-1.06,1.06-1.65,2.5-1.65,4,0,.12.03.24.1.34s.15.19.25.24c.1.06.22.09.34.08.12,0,.23-.04.34-.1,1.38-.86,2.98-1.31,4.6-1.31s3.22.45,4.6,1.31Z"/>
  <path class="cls-1" d="M14.25,32.71c-.34-.03-.68-.2-.89-.51-.39-.55-.26-1.31.29-1.71,3.01-2.14,6.7-3.31,10.4-3.31.67.01,1.22.54,1.22,1.22s-.54,1.22-1.23,1.22c-3.19,0-6.38,1.01-8.98,2.87-.25.17-.54.24-.82.22h0Z"/>
  <path class="cls-1" d="M66.59,32.04c-.27.06-.57.03-.84-.11-2.83-1.49-6.12-2.08-9.27-1.67-.67.09-1.28-.38-1.37-1.05s.39-1.28,1.06-1.37c3.66-.48,7.47.2,10.74,1.93.6.32.82,1.06.51,1.66-.17.33-.47.55-.82.63h-.01Z"/>
</svg>