<?xml version="1.0" encoding="UTF-8"?>
<svg id="Layer_1" data-name="Layer 1" xmlns="http://www.w3.org/2000/svg" viewBox="0 0 82.2 82.2">
  <defs>
    <style>
      .cls-1 {
        fill: #010101;
      }

      .cls-1, .cls-2, .cls-3 {
        stroke-width: 0px;
      }

      .cls-2 {
        fill: #61c0eb;
      }

      .cls-3 {
        fill: #fcbd1c;
      }
    </style>
  </defs>
  <path class="cls-3" d="M54.16,79.18c20.7-7.4,31.51-30.28,24.15-51.09C70.95,7.27,48.21-3.6,27.51,3.8,6.82,11.2-4,34.07,3.36,54.89c7.36,20.82,30.1,31.69,50.8,24.29Z"/>
  <path class="cls-1" d="M41.5,69.57c-4.45,0-8.07-3.61-8.07-8.08v-4.73c0-4.45,3.61-8.08,8.07-8.08s8.08,3.61,8.08,8.08v4.73c0,4.45-3.61,8.08-8.08,8.08Z"/>
  <path class="cls-1" d="M66.71,28.2c-.07,0-.13,0-.21-.02-6.58-1.02-9.89-6.35-10.02-6.59-.38-.63-.18-1.43.44-1.82.63-.38,1.43-.18,1.82.44.05.08,2.85,4.52,8.17,5.34.72.11,1.22.79,1.1,1.51-.1.66-.66,1.12-1.3,1.12h0Z"/>
  <path class="cls-1" d="M14.28,28.2c-.64,0-1.21-.47-1.3-1.12-.11-.72.38-1.39,1.1-1.51,5.34-.82,8.15-5.3,8.18-5.34.38-.62,1.19-.81,1.82-.44.62.38.82,1.19.44,1.81-.14.22-3.44,5.57-10.03,6.59-.07,0-.14.02-.21.02Z"/>
  <path class="cls-2" d="M27.06,79v-43.79l-6.67,1.88h.01s-6.67-1.89-6.67-1.89v35.58c3.87,3.61,8.41,6.4,13.32,8.23Z"/>
  <path class="cls-2" d="M54.71,79v-43.79s6.67,1.88,6.67,1.88h-.01s6.67-1.89,6.67-1.89v35.58c-3.87,3.61-8.41,6.4-13.32,8.23Z"/>
  <path class="cls-1" d="M14.47,33.84c-.57-.28-1.32.05-1.32.58,0,2.06,3.25,3.81,7.26,3.81s7.26-1.83,7.26-3.81c0-.54-.75-.87-1.32-.58-1.85.9-3.88,1.37-5.94,1.37s-4.09-.47-5.94-1.37h0Z"/>
  <path class="cls-1" d="M67.11,34.36c.57-.29,1.32,0,1.32.58,0,2.06-3.25,3.81-7.26,3.81s-7.26-1.83-7.26-3.81c0-.55.74-.91,1.32-.58,1.85.9,3.88,1.37,5.94,1.37s4.09-.47,5.94-1.37Z"/>
</svg>