<?xml version="1.0" encoding="UTF-8"?>
<svg id="Layer_1" data-name="Layer 1" xmlns="http://www.w3.org/2000/svg" viewBox="0 0 82.2 82.2">
  <defs>
    <style>
      .cls-1 {
        fill: #010101;
      }

      .cls-1, .cls-2 {
        stroke-width: 0px;
      }

      .cls-2 {
        fill: #fcbd1c;
      }
    </style>
  </defs>
  <path class="cls-2" d="M54.16,79.18c20.7-7.4,31.51-30.28,24.15-51.09C70.95,7.27,48.21-3.6,27.51,3.8,6.82,11.2-4,34.07,3.36,54.89c7.36,20.82,30.1,31.69,50.8,24.29Z"/>
  <path class="cls-1" d="M61.29,42.67c-.12,0-.24-.02-.37-.05l-8.39-2.45c-.5-.15-.87-.58-.92-1.11-.05-.52.22-1.02.68-1.27,0,0,6.53-3.38,8.48-4.42.63-.34,1.41-.1,1.74.53s.1,1.41-.53,1.74c-1.1.58-3.63,1.91-5.65,2.95l5.3,1.55c.68.2,1.08.91.88,1.6-.16.57-.68.93-1.23.93Z"/>
  <path class="cls-1" d="M20.39,42.67c-.56,0-1.07-.37-1.23-.93-.2-.68.19-1.4.88-1.6l5.3-1.55c-2.02-1.05-4.55-2.36-5.65-2.95-.63-.34-.87-1.11-.53-1.74s1.11-.87,1.74-.53c1.95,1.04,8.48,4.42,8.48,4.42.47.25.74.75.69,1.27-.05.53-.42.97-.92,1.11l-8.39,2.45c-.12.04-.24.05-.37.05h0Z"/>
  <path class="cls-1" d="M66.41,26.37c-.06,0-.13,0-.2-.02-6.43-.99-9.65-6.2-9.78-6.42-.37-.61-.17-1.4.43-1.77.61-.37,1.4-.17,1.76.43,0,0,2.77,4.41,7.98,5.21.7.11,1.19.77,1.08,1.47-.1.64-.65,1.1-1.27,1.1Z"/>
  <path class="cls-1" d="M15.26,26.37c-.62,0-1.18-.46-1.27-1.1-.11-.7.37-1.36,1.08-1.47,5.25-.81,7.95-5.17,7.98-5.21.37-.61,1.16-.8,1.77-.43.6.37.8,1.16.43,1.77-.14.22-3.36,5.43-9.78,6.42-.06,0-.14.02-.2.02Z"/>
  <path class="cls-1" d="M26.93,60.86c-.48,0-.96-.17-1.33-.54l-3.48-3.32c-.78-.74-.79-1.96-.06-2.73.74-.78,1.96-.79,2.73-.06l2.14,2.04,5.61-5.37c.75-.71,1.93-.71,2.67,0l5.61,5.37,5.61-5.37c.75-.71,1.93-.71,2.67,0l5.62,5.37,2.14-2.04c.78-.74,2-.71,2.73.06.74.77.71,2-.06,2.73l-3.48,3.32c-.75.71-1.93.71-2.67,0l-5.62-5.37-5.61,5.37c-.75.71-1.93.71-2.67,0l-5.61-5.37-5.61,5.37c-.37.36-.86.54-1.33.54h.02Z"/>
</svg>