<?xml version="1.0" encoding="UTF-8"?>
<svg id="Layer_1" data-name="Layer 1" xmlns="http://www.w3.org/2000/svg" viewBox="0 0 82.2 82.2">
  <defs>
    <style>
      .cls-1 {
        fill: #010101;
      }

      .cls-1, .cls-2, .cls-3, .cls-4 {
        stroke-width: 0px;
      }

      .cls-2 {
        fill: #fcbd1c;
      }

      .cls-3 {
        fill: #e45825;
      }

      .cls-4 {
        fill: #fff;
      }
    </style>
  </defs>
  <path class="cls-2" d="M54.16,79.18c20.7-7.4,31.51-30.28,24.15-51.09C70.95,7.27,48.21-3.6,27.51,3.8,6.82,11.2-4,34.07,3.36,54.89c7.36,20.82,30.1,31.69,50.8,24.29Z"/>
  <path class="cls-1" d="M21.07,44.64c-.27,0-.53.07-.77.19s-.44.3-.6.51c-.16.22-.27.47-.31.73-.05.26-.03.54.04.79,2.03,7.46,10.83,13.07,21.4,13.07s19.47-5.69,21.43-13.21c.06-.25.06-.51,0-.77-.06-.25-.17-.49-.33-.69-.16-.2-.37-.36-.6-.47-.23-.11-.49-.16-.74-.16H21.07Z"/>
  <path class="cls-4" d="M40.78,47.56c5.23.07,10.42-.93,15.25-2.92h-30.47c4.83,1.99,10,2.98,15.22,2.92Z"/>
  <path class="cls-3" d="M41.19,55.87c-2.89-.02-5.68,1.09-7.78,3.09,2.42.65,4.91.97,7.41.97,2.7,0,5.38-.38,7.97-1.14-2.08-1.9-4.8-2.94-7.6-2.92Z"/>
  <path class="cls-1" d="M64.7,36.52c.1.06.22.1.34.1.12,0,.24-.03.34-.08.1-.06.19-.14.25-.24s.09-.22.1-.34c.03-.76-.09-1.52-.36-2.23-.27-.71-.68-1.36-1.2-1.91s-1.16-.99-1.85-1.29c-.7-.3-1.45-.45-2.21-.45s-1.51.15-2.21.45c-.7.3-1.33.74-1.85,1.29s-.93,1.2-1.2,1.91c-.27.71-.39,1.47-.36,2.23,0,.12.04.23.1.34s.15.18.25.24c.1.06.22.09.34.08.12,0,.23-.04.33-.1,1.38-.86,2.98-1.31,4.6-1.31s3.22.45,4.6,1.31Z"/>
  <path class="cls-1" d="M25.96,36.52c.1.06.22.09.33.09.12,0,.23-.03.34-.08.1-.06.19-.14.25-.24.06-.1.1-.22.1-.33,0-1.5-.59-2.94-1.65-4-1.06-1.06-2.49-1.66-3.98-1.66s-2.92.6-3.98,1.66c-1.06,1.06-1.65,2.5-1.65,4,0,.12.03.24.1.34s.15.19.25.24c.1.06.22.09.34.08.12,0,.23-.04.34-.1,1.38-.86,2.98-1.31,4.6-1.31s3.22.45,4.6,1.31Z"/>
  <path class="cls-1" d="M14.13,29.16c-.34.05-.71-.03-.99-.28-.52-.44-.57-1.21-.14-1.73,2.4-2.8,5.7-4.84,9.29-5.73.66-.15,1.32.23,1.48.89s-.23,1.32-.9,1.48c-3.09.78-5.95,2.53-8.02,4.96-.2.22-.46.37-.74.41h.01Z"/>
  <path class="cls-1" d="M67.06,28.47c-.28,0-.56-.1-.79-.29-2.43-2.08-5.51-3.37-8.68-3.66-.67-.06-1.16-.65-1.1-1.33s.66-1.16,1.34-1.1c3.67.33,7.25,1.84,10.06,4.24.51.44.57,1.21.13,1.73-.24.28-.58.43-.93.43h-.01Z"/>
</svg>