<?xml version="1.0" encoding="UTF-8"?>
<svg id="Layer_1" data-name="Layer 1" xmlns="http://www.w3.org/2000/svg" viewBox="0 0 114.49 114.22">
  <defs>
    <style>
      .cls-1 {
        fill: #0d4061;
      }

      .cls-1, .cls-2 {
        stroke-width: 0px;
      }

      .cls-2 {
        fill: #14445f;
      }
    </style>
  </defs>
  <path class="cls-2" d="M59.97,104.18c.22-.39.4-.81.62-1.21.46-.84,1.1-1.58,1.82-2.22,1.43-1.26,3.24-2.06,5.07-2.55,2.17-.58,4.75-.98,7-.65h29.06c2.97-.27,5.21-2.83,5.07-5.81V16.04c.16-2.76-1.86-5.18-4.61-5.49-11.08-.62-22.19-.27-33.21,1.06-5.53,1.76-10.3,5.36-13.52,10.19-3.21-4.84-7.98-8.43-13.52-10.19-11.03-1.33-22.16-1.69-33.26-1.06-2.75.31-4.78,2.72-4.61,5.49v75.69c-.16,3.07,2.19,5.68,5.26,5.86h28.88c2.12,0,4.17.05,6.25.55,1.74.41,3.45,1.07,4.91,2.12.76.55,1.44,1.2,2.01,1.94.64.83.88,1.97,1.58,2.73,1,1.08,3.15,1.15,4.32.31.39-.28.66-.66.89-1.06ZM57.07,105.42,55.1,97.5c-3.89-2.96-8.67-4.52-13.56-4.43H10.54c-.31,0-.55-.25-.56-.55,0-.02,0-.03,0-.05V14.93c10.94-.59,21.91-.26,32.8.97,5.18,1.93,9.54,5.6,12.32,10.38v71.22ZM103.9,92.94h-29.15c-5.57-.39-11.09,1.24-15.54,4.61V26.6c2.81-4.86,7.23-8.58,12.5-10.52,10.82-1.23,21.73-1.56,32.61-.97.04.07.04.16,0,.23l.09,77.03c0,.29-.22.53-.51.55Z"/>
  <path class="cls-1" d="M44.03,61.8h-.92c-7.08-1.51-14.34-1.91-21.54-1.2-1.53.2-3.08-.27-4.24-1.29-1.29-1.18-2.01-2.86-1.98-4.61v-21.45c-.09-2.4,1.25-4.63,3.41-5.67,9.09-2.66,18.85-1.82,27.35,2.35,2.16,1.08,3.49,3.31,3.41,5.72v20.2c.03,1.76-.71,3.44-2.03,4.61-.95.85-2.18,1.32-3.46,1.34ZM27.29,55.76c5.49.08,10.97.62,16.37,1.61h0c.24.14.54.14.78,0,.36-.35.54-.84.51-1.34v-20.39c0-.67-.35-1.3-.92-1.66-13.84-5.86-22.42-3-23.99-2.35-.46.4-.71,1-.65,1.61v21.36c-.04.49.13.98.46,1.34.25.12.54.12.78,0,2.21-.19,4.43-.25,6.64-.18Z"/>
  <path class="cls-1" d="M46.98,79.56c-.2.05-.4.05-.6,0-8.6-3.34-18.06-3.78-26.94-1.25-.94.39-2.02-.05-2.42-.99-.01-.02-.02-.05-.03-.07-.4-.94.03-2.02.97-2.42.02,0,.03-.01.05-.02.46-.23,11.81-4.61,29.57,1.15.99.32,1.54,1.39,1.22,2.38-.25.79-.99,1.32-1.82,1.31v-.09Z"/>
  <path class="cls-1" d="M67.55,38.23c-1.04.03-1.91-.8-1.94-1.84-.02-.9.6-1.7,1.48-1.89,17.76-5.86,29.11-.97,29.57-.74.94.46,1.33,1.59.87,2.53-.43.89-1.48,1.29-2.39.93-8.79-2.76-18.26-2.44-26.85.92l-.74.09Z"/>
  <path class="cls-1" d="M67.55,59.45c-1.03.17-2-.54-2.17-1.57s.54-2,1.57-2.17c17.76-5.86,29.11-.97,29.57-.74.97.38,1.45,1.48,1.06,2.45s-1.48,1.45-2.45,1.06c-.05-.02-.09-.04-.13-.06-8.79-2.76-18.26-2.44-26.85.92l-.6.09Z"/>
  <path class="cls-1" d="M67.55,78.17c-.83,0-1.57-.51-1.85-1.29-.31-1,.25-2.06,1.25-2.36.04-.01.09-.03.13-.04,17.71-5.9,29.06-1.38,29.52-1.15.97.39,1.44,1.48,1.06,2.44-.4.97-1.51,1.44-2.49,1.06-8.86-2.54-18.31-2.1-26.89,1.25-.23.09-.49.12-.74.09Z"/>
</svg>