<?xml version="1.0" encoding="UTF-8"?>
<svg id="Layer_1" data-name="Layer 1" xmlns="http://www.w3.org/2000/svg" viewBox="0 0 82.2 82.2">
  <defs>
    <style>
      .cls-1 {
        fill: #010101;
      }

      .cls-1, .cls-2 {
        stroke-width: 0px;
      }

      .cls-2 {
        fill: #fcbd1c;
      }
    </style>
  </defs>
  <path class="cls-2" d="M54.16,79.18c20.7-7.4,31.51-30.28,24.15-51.09C70.95,7.27,48.21-3.6,27.51,3.8,6.82,11.2-4,34.07,3.36,54.89c7.36,20.82,30.1,31.69,50.8,24.29Z"/>
  <path class="cls-1" d="M58.58,51.46H23.07c-.26.02-.52-.02-.77-.11-.25-.09-.47-.23-.66-.41-.19-.18-.34-.4-.45-.64-.1-.24-.16-.5-.16-.76s.05-.52.16-.76c.1-.24.26-.46.45-.64.19-.18.42-.32.66-.41.25-.09.51-.12.77-.11h35.47c.26-.02.52.02.77.11.25.09.47.23.66.41.19.18.34.4.45.64.1.24.16.5.16.76s-.05.52-.16.76c-.1.24-.26.46-.45.64-.19.18-.42.32-.66.41-.25.09-.51.12-.77.11h.04Z"/>
  <path class="cls-1" d="M61.18,32.68c0,.82-.24,1.62-.69,2.3-.45.68-1.09,1.21-1.84,1.53-.75.31-1.58.4-2.38.24-.8-.16-1.53-.55-2.11-1.13-.58-.58-.97-1.32-1.13-2.12-.16-.8-.08-1.63.24-2.39s.84-1.4,1.52-1.86c.68-.45,1.47-.69,2.29-.69,1.09,0,2.13.43,2.9,1.21s1.2,1.82,1.2,2.92Z"/>
  <path class="cls-1" d="M28.71,32.68c0,.82-.24,1.62-.69,2.3-.45.68-1.09,1.21-1.84,1.53-.75.31-1.58.4-2.38.24-.8-.16-1.53-.55-2.11-1.13-.58-.58-.97-1.31-1.13-2.12-.16-.8-.08-1.63.23-2.39s.84-1.4,1.51-1.86c.68-.45,1.47-.7,2.28-.7.54,0,1.07.1,1.57.31.5.21.95.51,1.33.89.38.38.68.84.89,1.34.21.5.31,1.04.31,1.58Z"/>
</svg>