<?xml version="1.0" encoding="UTF-8"?>
<svg id="Layer_1" data-name="Layer 1" xmlns="http://www.w3.org/2000/svg" viewBox="0 0 1334 1000">
  <defs>
    <style>
      .cls-1 {
        fill: #cd8c2a;
      }

      .cls-1, .cls-2, .cls-3, .cls-4, .cls-5, .cls-6, .cls-7, .cls-8, .cls-9, .cls-10, .cls-11, .cls-12, .cls-13, .cls-14, .cls-15, .cls-16, .cls-17, .cls-18, .cls-19 {
        stroke-width: 0px;
      }

      .cls-20 {
        stroke: #000;
        stroke-miterlimit: 10;
        stroke-width: .14px;
      }

      .cls-20, .cls-8 {
        fill: #000;
      }

      .cls-2 {
        fill: #d83b28;
      }

      .cls-3 {
        fill: #a4704b;
      }

      .cls-4 {
        fill: #643b29;
      }

      .cls-5 {
        fill: #f0edf6;
      }

      .cls-6 {
        fill: #7c7c7c;
      }

      .cls-7 {
        fill: #888;
      }

      .cls-9 {
        fill: #f4de98;
      }

      .cls-10 {
        fill: #221e1f;
      }

      .cls-21 {
        opacity: .61;
      }

      .cls-11 {
        fill: #a66e53;
      }

      .cls-12 {
        fill: #12100e;
      }

      .cls-13 {
        fill: #b8e0ee;
      }

      .cls-14 {
        fill: #f8ae1c;
      }

      .cls-15 {
        fill: #24170e;
      }

      .cls-16 {
        fill: #fff;
      }

      .cls-17 {
        fill: #a3a30c;
      }

      .cls-18 {
        fill: #adadad;
      }

      .cls-19 {
        fill: #4f2e25;
      }
    </style>
  </defs>
  <rect class="cls-13" x="-11.35" y="-28.91" width="1359.5" height="1057.58" rx="12" ry="12"/>
  <path class="cls-11" d="M878.47,618.15l1.02-28.36s-12.95-30.72-12.71-46.28c.23-15.57,10.87-62.57,10.87-62.57l76.08-4.18s22.53,15.93,25.65,28.55c1.74,7.04-1.31,26-4.35,41.4-2.77,14.04-8.59,27.31-17,38.89-2.12,2.91-3.8,5.25-4.29,5.96-2.66,3.89-2.53,21.96-5.4,25.31-24.63,28.82-69.87,1.29-69.87,1.29Z"/>
  <path class="cls-16" d="M332.3,1027.55l43.6-218.55-42.22-248.59s-45.98,3.98-71.04,79.16c-21.38,80.54-61.3,352.5-58.7,404,.84,15.33,6.05,52.57,12.87,97.02h120.23l-4.75-113.03Z"/>
  <path class="cls-16" d="M898.9,923.64c-2.69-3.37-14.6-10.2-16.31-14.13-7.86-18.01-27.41-8.73-26.22-28.13.28-4.53.7-9.06,1.37-13.55.82-5.55,2.32-11.07,3.89-16.45,3.1-10.57,7.22-20.82,11.77-30.84,8.13-17.91,17.68-35.16,25.51-53.2l-48.65-159.4c-5.98-22.15-22.38-51.03-43.99-58.62l-53.64-15.1-36.55,195.1,80.16,170.34c7.66,18.16,32.91,36.74,50.58,45.25,18.89,9.09,31.39,9.09,47.58,9.09-1.55-1.39,5.82-28.72,4.52-30.34Z"/>
  <path class="cls-16" d="M956.7,611.78c-9.95,2.07-21.07,1.56-29.67,1.2-8.23-.35-16.45-.86-24.68-1.19-6.99-.29-14.01-1.1-20.85-2.59-4.17-.91-8.1-2.56-12.1-3.96l-7.12,166.62-1.25-1.89c-2.64,20.65-7.23,40.99-9.75,61.66-1.33,10.93-2.05,21.95-1.62,32.96.2,5.16.65,10.26,1.56,15.34.83,4.63,1.86,9.23,3.06,13.78,2.52,9.5,5.8,18.85,10.13,27.68,4.14,8.45,9.24,16.59,15.87,23.32,2.81,2.85,5.8,5.3,9.35,7.16,1.54.8,3.12,1.5,4.74,2.11,22.22-2.18,42.14-11.18,57.26-29.57,7.75-12.83,13.23-26.89,16.19-41.58,5.59-28.28,5.26-90.66-.42-118.95l-10.71-152.1Z"/>
  <path class="cls-16" d="M792.85,1108.63c-2.81-11.78-6.66-23.3-11.49-34.41-3.22-10.49-1.25-21.32-2.05-32.26-5.56-42.87-6.4-86.22-2.53-129.28,2.61-19.23,25.96-30.65,37-67.59,9.73-32.26-33.26-303.08-33.26-303.08l-95.94-24.14-24.37-4.98-1.92-1.07c-.21,1.45-.21,2.92,0,4.37v2.38c-13.33,23.66-37.47,39.22-64.52,41.61-9.39.65-18.81.65-28.2,0-29.27-1.71-55.97-17.28-71.88-41.92l-.46-9.81-57.7,16.55-107.67,37.09-2.3,219.7c2.53,45.29-1.38,53.64,17.47,94.49l26.59,26.74,1.84,139.24s-15.79,37.63-35.1,97.02h461.55c-1.92-10.12-2.99-21.07-5.06-30.65Z"/>
  <path class="cls-7" d="M863.55,663.73c-.3,1.56-.59,3.13-.88,4.69-.8,4.29-1.58,8.58-2.36,12.88-1.15,6.42-2.28,12.85-3.39,19.28-1.36,7.95-2.69,15.91-3.98,23.88-1.43,8.89-2.81,17.78-4.12,26.69-1.35,9.18-2.63,18.37-3.81,27.57-1.15,8.97-2.2,17.94-3.1,26.94-.81,8.11-1.49,16.24-1.92,24.38-.36,6.74-.56,13.5-.32,20.25.17,4.65.46,9.45,1.73,13.95.22.77.48,1.54.79,2.28.81,1.92,6.51.14,5.8-1.55-1.6-3.79-2.01-8.11-2.3-12.17-.45-6.14-.37-12.31-.14-18.45.29-7.86.88-15.7,1.59-23.53.8-8.81,1.77-17.6,2.85-26.38,1.13-9.24,2.38-18.47,3.7-27.69,1.29-9,2.65-17.98,4.07-26.96,1.3-8.24,2.66-16.48,4.05-24.7,1.15-6.82,2.34-13.63,3.55-20.44.87-4.86,1.75-9.72,2.64-14.58.42-2.27.93-4.53,1.28-6.81.02-.1.04-.2.06-.3.4-2.08-5.42-1.12-5.78.77h0Z"/>
  <path class="cls-7" d="M787.67,668.29c-4.32,7.42-7.24,15.6-8.53,24.1-.64,4.19-.89,8.46-.75,12.69s.82,8.82,1.51,13.2c1.15,7.27,2.6,14.49,4.55,21.58,1.51,5.51,3.34,10.92,5.22,16.31,4.79,13.78,9.39,27.82,11.56,42.29,1.41,9.43,1.99,18.98,1.74,28.51-.13,4.82-.48,9.62-1.04,14.41-.28,2.39-.49,4.87-1.01,7.22-.43,1.91-1.07,3.8-1.6,5.68-4.09,14.46-8.63,29.22-18.89,40.64-1.3,1.45-2.67,2.82-4.1,4.14-1.02.94.87,1.32,1.46,1.31,1.39-.03,2.83-.53,3.85-1.48,5.61-5.18,10.13-11.35,13.61-18.14s5.89-13.97,8.04-21.22c1.12-3.78,2.28-7.58,3.26-11.41.57-2.22.76-4.61,1.04-6.89.29-2.41.53-4.82.72-7.24.73-9.46.67-18.96-.23-28.41-1.51-15.88-5.84-31.28-11.01-46.32-1.83-5.32-3.74-10.62-5.39-16-1.95-6.37-3.52-12.85-4.75-19.4-1.6-8.48-3.12-17.13-2.7-25.79.42-8.64,2.59-17.21,6.24-25.04.9-1.92,1.89-3.8,2.95-5.63.61-1.05-2.04-.94-2.41-.88-1.21.18-2.7.65-3.35,1.77h0Z"/>
  <g>
    <path class="cls-8" d="M531.22,443.26c-4.79-8.64-9.2-17.49-13.26-26.51-.99-2.19.59-4.46,2.5-5.02-1.84-3.21-4.32-7.03-7.12-9.94-5.9-6.14-20.74-8.77-20.74-8.77,0,0-.16-15.54-7.13-16.22-6.98-.68-21.07,2.77-21.07,2.77,0,0-12.91-7.52-22.78,3.48,0,0-10.83,1.61-10.75,15.84.01,3.08.54,6.75,1.8,11.13,0,0-5.28.93-11.56,10.79-2.71,4.25-4.26,17.02.17,26.76l.13,2.3c5.84,12.82,13.64,20.02,25.03,19.31.05.12,11.6,25.38,37.67,19.51,22.64-5.09,27.29-17.3,27.29-17.3,0,0,11.42,3.75,16.68,1.44,5.51-2.43,9.02-7.67,10.64-13.48-2.58-5.33-5.06-10.7-7.5-16.09Z"/>
    <path class="cls-8" d="M531.37,443.22c-2.9-5.23-5.66-10.53-8.28-15.9-1.29-2.65-2.56-5.32-3.79-8-.53-1.15-1.36-2.43-1.48-3.71-.16-1.74,1.09-3.3,2.68-3.85.01,0,.12-.04.1-.07-2.19-3.8-4.67-7.87-8.01-10.78-2.59-2.26-5.84-3.74-9.03-4.93-2.7-1.01-5.49-1.82-8.3-2.47-.68-.16-1.63-.18-2.26-.48-.35-.17-.25,0-.27-.49-.23-4.4-.66-9.54-3.27-13.25-1.47-2.1-3.37-2.61-5.83-2.62-3.38-.01-6.76.46-10.08,1.02-2.7.45-5.39.98-8.06,1.59-.29.07-.58.16-.87.2-.27.04-.2.01-.13.03-.45-.12-.91-.46-1.34-.65-4.91-2.15-10.65-2.59-15.61-.35-1.69.76-3.25,1.82-4.61,3.07-.63.58-.97,1.23-1.71,1.5-1.24.46-2.43.78-3.59,1.47-5.16,3.06-7.03,8.98-6.93,14.71.04,2.14.3,4.27.72,6.37.23,1.19.4,2.61.88,3.73.27.63.46.39.17.65-.27.24-1.02.36-1.36.52-.88.42-1.7.94-2.48,1.52-3.1,2.3-5.69,5.5-7.69,8.78-1.56,2.56-2.11,5.76-2.41,8.7-.44,4.28-.2,8.68.81,12.87.25,1.02.54,2.03.89,3.01.28.8.77,1.62.89,2.45.08.58,0,1.18.1,1.75.14.85.67,1.68,1.06,2.45,3.28,6.56,7.96,13.13,15.05,15.86,1.55.59,3.17.99,4.82,1.18.74.09,1.48.14,2.22.15.4,0,1.61-.24,1.91-.04.4.25.79,1.53,1.03,1.94,1.99,3.47,4.49,6.67,7.39,9.44,4.15,3.96,9.21,6.95,14.82,8.25,7.33,1.7,14.82.26,21.82-2.18,5.86-2.04,11.58-5.04,15.99-9.48,1.62-1.63,3.38-3.62,4.21-5.82-.11.29-.38-.09-.08.12.24.18.74.23,1.03.31,1.24.36,2.49.67,3.75.94,3.1.66,6.42,1.2,9.58.73,3.07-.45,5.84-2.4,7.92-4.63,1.36-1.46,2.47-3.13,3.36-4.91.44-.87.82-1.77,1.15-2.69.18-.5.43-1.05.52-1.58.1-.6-.15-.9-.43-1.48-2.39-4.96-4.69-9.96-6.96-14.98-.03-.07-.33.04-.31.08,1.96,4.34,3.96,8.67,6.01,12.98.44.92,1.51,2.4,1.39,3.45-.09.8-.54,1.69-.84,2.43-.66,1.63-1.48,3.2-2.49,4.64-2.12,3.03-5.42,6-9.19,6.56-2.98.45-6.1-.04-9.03-.64-1.81-.37-3.62-.82-5.38-1.39-.06-.02-.26.02-.28.09-.87,2.25-2.66,4.28-4.34,5.95-5.18,5.16-12.09,8.34-19.05,10.32-7.89,2.24-16.02,2.64-23.62-.83-5.06-2.31-9.39-5.99-12.86-10.29-1.83-2.27-3.58-4.77-4.79-7.43-.01-.03-.07-.02-.09-.02-5.53.31-10.77-1.37-14.99-4.97-2.18-1.86-4.03-4.08-5.63-6.46-.9-1.33-1.71-2.71-2.47-4.13-.63-1.17-1.59-2.57-1.86-3.87-.16-.77.02-1.6-.21-2.35-.47-1.56-1.19-3.04-1.6-4.63-.81-3.16-1.15-6.45-1.11-9.71.03-2.84.34-5.7,1.08-8.45.7-2.58,2-4.65,3.61-6.78,1.81-2.4,3.92-4.7,6.45-6.35.84-.55,1.84-1.17,2.84-1.35.02,0,.2-.04.19-.09-2.24-7.92-3.66-18.89,3.83-24.59.94-.72,1.99-1.31,3.1-1.74.55-.22,1.16-.3,1.71-.52.08-.03.17-.02.25-.06.34-.16.67-.69.93-.95.52-.51,1.07-1,1.64-1.45,2.28-1.8,4.98-2.99,7.86-3.38,3.46-.47,7.03.16,10.25,1.47.55.22,1.25.75,1.83.86.29.05.64-.1.92-.16,3.39-.78,6.81-1.45,10.24-1.96,2.25-.33,4.51-.6,6.78-.68,1.68-.06,3.59-.19,5.08.7,2.92,1.74,3.93,5.88,4.51,8.98.41,2.16.66,4.39.69,6.59,0,.01.01.02.03.02,5.97,1.06,12.27,2.92,17.43,6.16,2.01,1.26,3.62,2.83,5.11,4.67.87,1.07,1.68,2.18,2.46,3.31.82,1.2,1.89,2.53,2.44,3.88.24.59.24.5-.18.87-.31.27-.7.43-1.01.72-.72.69-1.21,1.64-1.22,2.65-.02,1.4.92,2.82,1.49,4.07.67,1.45,1.34,2.89,2.02,4.33,3.15,6.62,6.49,13.15,10.05,19.56.04.07.33-.04.31-.08Z"/>
  </g>
  <g>
    <path class="cls-8" d="M603.27,443.26c4.79-8.64,9.2-17.49,13.26-26.51.99-2.19-.59-4.46-2.5-5.02,1.84-3.21,4.32-7.03,7.12-9.94,5.9-6.14,20.74-8.77,20.74-8.77,0,0,.16-15.54,7.13-16.22,6.98-.68,21.07,2.77,21.07,2.77,0,0,12.91-7.52,22.78,3.48,0,0,10.83,1.61,10.75,15.84-.01,3.08-.54,6.75-1.8,11.13,0,0,5.28.93,11.56,10.79,2.71,4.25,4.26,17.02-.17,26.76l-.13,2.3c-5.84,12.82-13.64,20.02-25.03,19.31-.05.12-11.6,25.38-37.67,19.51-22.64-5.09-27.29-17.3-27.29-17.3,0,0-11.42,3.75-16.68,1.44-5.51-2.43-9.02-7.67-10.64-13.48,2.58-5.33,5.06-10.7,7.5-16.09Z"/>
    <path class="cls-8" d="M603.43,443.23c3.01-5.44,5.88-10.95,8.6-16.54,1.39-2.87,2.75-5.75,4.07-8.66.46-1.01,1.01-1.98.87-3.13s-.82-2.1-1.72-2.71c-.62-.42-.93-.4-.66-1.16.2-.58.73-1.22,1.05-1.74.76-1.21,1.55-2.4,2.39-3.56,1.46-2,3.04-3.99,5.02-5.49,3.41-2.59,7.6-4.16,11.66-5.39,2.35-.71,4.74-1.34,7.16-1.77.04,0,.19-.04.19-.09.02-1.83.21-3.67.49-5.47.47-2.98,1.2-6.34,3.16-8.72,1.4-1.7,3.16-2.01,5.28-2.01,2.13,0,4.26.21,6.37.49,3.67.48,7.32,1.17,10.94,1.98.49.11,1.22.44,1.73.39.35-.04.74-.35,1.05-.5,2.94-1.38,6.25-2.13,9.5-2,2.33.1,4.64.67,6.73,1.73,1.03.52,2,1.15,2.9,1.86.52.41,1.02.85,1.49,1.31.3.29.69.9,1.05,1.07.3.14.74.16,1.07.26.94.29,1.84.69,2.69,1.19,8.84,5.16,7.54,17.11,5.17,25.49,0,.02,0,.03.02.03,2.55.47,4.97,2.75,6.68,4.51,2.07,2.13,4.23,4.7,5.47,7.42.99,2.19,1.46,4.64,1.74,7.02.36,3.03.35,6.12,0,9.15-.21,1.81-.55,3.6-1.05,5.36-.21.76-.45,1.51-.73,2.24-.22.6-.61,1.23-.75,1.84-.16.72.04,1.53-.13,2.25s-.7,1.53-1.04,2.2c-.38.75-.77,1.5-1.17,2.23-1.5,2.71-3.24,5.3-5.33,7.59-4.52,4.94-10.5,7.59-17.22,7.21-.06,0-.23.02-.26.09-.99,2.19-2.38,4.25-3.81,6.17-3.2,4.29-7.22,8.05-11.95,10.6-7.13,3.86-15.14,4.24-22.92,2.35-7.32-1.79-14.64-4.77-20.34-9.82-2.18-1.93-4.55-4.38-5.62-7.16-.02-.05-.18,0-.21.01-4.41,1.44-9.53,2.66-14.17,2.03-3.27-.45-6.19-2.66-8.29-5.1-1.18-1.37-2.16-2.9-2.95-4.51-.38-.77-.71-1.56-1.01-2.36-.17-.45-.37-.93-.47-1.4-.17-.78.1-1.33.43-2.03,2.35-4.89,4.62-9.82,6.86-14.76.02-.04-.27-.02-.31.06-2.34,5.17-4.72,10.32-7.18,15.42-.29.61-.35.59-.17,1.21.16.53.33,1.05.52,1.57.38,1.03.83,2.04,1.34,3.01.9,1.7,2.02,3.29,3.36,4.67,2.4,2.48,5.41,4.27,8.9,4.44,3.11.16,6.27-.41,9.29-1.12,1.12-.26,2.23-.56,3.33-.89.13-.04.45-.21.58-.18.12.03-.21-.1-.12.07.4.71.74,1.44,1.19,2.13,2.57,3.87,6.34,6.89,10.32,9.19,3.29,1.91,6.82,3.37,10.45,4.49,4,1.25,8.12,2.21,12.32,2.3,5.96.13,11.83-1.5,16.88-4.66,4.15-2.6,7.7-6.12,10.58-10.07.95-1.3,1.83-2.66,2.62-4.07.23-.4.41-.85.66-1.24.3-.46.03-.25.45-.32.77-.13,1.66.03,2.44-.02.83-.05,1.67-.15,2.49-.3,1.41-.25,2.79-.65,4.12-1.2,3.04-1.25,5.7-3.25,7.94-5.64,2.74-2.92,4.87-6.35,6.67-9.91.37-.73.96-1.61,1.13-2.4.12-.58.04-1.22.1-1.81.09-.79.49-1.5.77-2.25.41-1.11.75-2.24,1.03-3.38.98-4.03,1.24-8.25.87-12.37-.27-3.06-.8-6.44-2.41-9.12-2-3.31-4.61-6.54-7.74-8.85-.81-.6-1.68-1.16-2.61-1.57-.21-.1-1.08-.26-1.22-.44-.15-.2.4-1.67.5-2.04.28-1.13.52-2.26.72-3.41.36-2.07.56-4.16.53-6.26-.05-3.44-.79-6.97-2.75-9.85-1.22-1.79-2.87-3.27-4.79-4.27-1.01-.53-2.15-.67-3.15-1.14-.44-.21-.86-.86-1.24-1.22-.84-.8-1.74-1.52-2.71-2.15-1.51-.97-3.17-1.7-4.92-2.14-2.83-.71-5.8-.62-8.63,0-1.76.39-3.58.97-5.18,1.83-.12.06-.26.17-.39.21.26-.07.19.02-.04-.1-.67-.35-1.72-.4-2.46-.55-3.17-.68-6.36-1.28-9.58-1.71-2.94-.39-6.21-.9-9.17-.4-4.7.79-5.97,7.14-6.56,11.02-.26,1.7-.37,3.4-.46,5.12-.01.25.21-.03.11.05-.13.1-.51.1-.67.13-.88.18-1.77.38-2.64.59-5.8,1.42-12.33,3.36-16.85,7.45-3.23,2.92-5.65,6.86-7.81,10.61,0,0,0,.02,0,.02,1.2.41,2.2,1.3,2.61,2.52.48,1.44-.22,2.71-.81,4-1.29,2.83-2.61,5.64-3.97,8.44-2.72,5.59-5.58,11.11-8.6,16.54-.02.03.26.02.31-.06Z"/>
  </g>
  <path class="cls-11" d="M430.85,315.94s-14.69-22.28-22.95-21.34c-5.02.57-15.72,15.28-14.21,28.08,2.02,17.12,16.04,35.32,20.08,44.99,4.04,9.68,5.09,24.1,18.4,22.58,5.27-.6,10.61-12.33,10.61-12.33,0,0-7.52-46.74-11.93-61.99Z"/>
  <g>
    <path class="cls-3" d="M428.09,340.12c-16.54-27.15-25.3-26.07-25.3-26.07,0,0-4.9,7.57-.02,20.58"/>
    <path class="cls-10" d="M429.43,339.54c-3.71-6.08-7.72-12.05-12.52-17.34-2.47-2.72-5.21-5.37-8.38-7.26-1.41-.84-3.02-1.61-4.69-1.75-.29-.02-.58-.04-.87,0-1.49.19-1.89,1.34-2.38,2.55-2.48,6.15-1.5,13.22.73,19.28.4,1.09,3.28.25,2.9-.78-1.75-4.76-2.7-9.9-1.82-14.94.31-1.75.77-3.66,1.74-5.18l-1.54.8c.17-.02-.52.08-.09.01.08-.01.21.01.29.03-.28-.05-.09-.03.17.04,1.09.28,1.66.51,2.77,1.13,4.56,2.53,8.22,6.71,11.44,10.71,3.52,4.38,6.64,9.08,9.57,13.87.54.89,3.35-.07,2.68-1.17h0Z"/>
  </g>
  <g>
    <path class="cls-3" d="M423.96,343.41c-7.94.37.21,14.12-1.45,17.88-1.66,3.76-5.86-4.97-8.45-15.86,0,0-2.19-14.9,4.82-18.71"/>
    <path class="cls-10" d="M424.17,342.64c-1.79.12-3.78.84-4.65,2.52-.8,1.54-.59,3.45-.31,5.09.35,2.09.95,4.12,1.45,6.17.35,1.43.99,3.35.5,4.81-.04.12-.26.56-.27.53.02.03,1.41-.42,1.41-.36,0-.01-.06.01-.08-.04-.02-.05-.28-.22-.32-.25-.69-.59-1.18-1.48-1.6-2.27-1.48-2.74-2.5-5.75-3.4-8.73-1.07-3.53-1.7-6.64-1.69-10.31.02-4.17.5-10.37,4.58-12.68.46-.26.79-.74.27-1.09s-1.57,0-2.05.28c-4.1,2.32-5.3,7.26-5.61,11.63-.23,3.25-.13,6.53.69,9.69.91,3.52,2,7.04,3.51,10.35.71,1.56,1.7,4.06,3.42,4.8,1.6.69,3.6-.37,4.07-2s-.15-3.66-.54-5.26c-.51-2.09-3.78-11.08.23-11.34.48-.03,1.57-.37,1.65-.96.09-.65-.84-.61-1.24-.58h0Z"/>
  </g>
  <path class="cls-11" d="M704.88,316.97s14.69-22.28,22.95-21.34c5.02.57,15.72,15.28,14.21,28.08-2.02,17.12-16.04,35.32-20.08,44.99-4.04,9.68-5.09,24.1-18.4,22.58-5.27-.6-10.61-12.33-10.61-12.33,0,0,7.52-46.74,11.93-61.99Z"/>
  <g>
    <path class="cls-3" d="M707.65,341.16c16.54-27.15,25.3-26.07,25.3-26.07,0,0,4.9,7.57.02,20.58"/>
    <path class="cls-10" d="M709.01,341.24c4.38-7.17,9.17-14.37,15.32-20.16,1.51-1.42,3.11-2.75,4.89-3.81.56-.34.82-.48,1.59-.81.13-.05.25-.1.38-.15.39-.16-.09.02.05-.02.2-.06.4-.12.61-.18.1-.03.19-.04.29-.07.33-.09-.4.04-.09.02.12-.01.26-.02.39-.05.28-.05-.42-.04-.02,0l-.8-.32c.24.37.37.68.61,1.24.53,1.27.89,2.61,1.12,3.96.88,5.03-.08,10.19-1.83,14.93-.24.66.91.79,1.29.76.67-.06,1.38-.41,1.63-1.06,2.11-5.74,3.07-12.27,1.12-18.19-.27-.81-.62-2.17-1.25-2.81-.39-.39-1-.37-1.51-.33-1.62.12-3.19.8-4.59,1.57-3.06,1.67-5.71,4.07-8.11,6.57-5.37,5.61-9.76,12.14-13.8,18.75-.76,1.25,2.16,1.1,2.73.17h0Z"/>
  </g>
  <g>
    <path class="cls-3" d="M711.77,344.45c7.94.37-.21,14.12,1.45,17.88,1.66,3.76,5.86-4.97,8.45-15.86,0,0,2.19-14.9-4.82-18.71"/>
    <path class="cls-10" d="M711.29,345.55c4.37.28,2.09,6.88,1.43,9.42-.54,2.09-3.02,9.18,1.14,9.35,2.06.09,3.35-1.93,4.23-3.5,1.6-2.83,2.66-5.99,3.6-9.08.62-2.03,1.33-4.12,1.55-6.24.17-1.64.24-3.29.21-4.94-.08-4.78-.88-11.04-5.5-13.65-.65-.37-1.49-.32-2.08.16-.44.35-.79,1.2-.14,1.57,3.7,2.09,4.53,7.02,4.73,10.9.15,2.99.02,5.96-.73,8.86-.86,3.32-1.9,6.63-3.3,9.76-.45,1.02-.93,2.05-1.55,2.97-.22.34-.52.62-.74.95.05-.08-.21.21-.22.17-.05-.18.95-.12.86-.08.12-.05,0,.11-.12-.22-.1-.27-.18-.53-.2-.82-.07-.77.09-1.58.23-2.33.38-2.03.99-4.01,1.46-6.03.46-1.99.96-4.26.41-6.28-.55-2.01-2.3-3-4.3-3.13-.69-.04-1.6.19-1.88.91-.25.64.23,1.25.9,1.29h0Z"/>
  </g>
  <path class="cls-8" d="M728.24,197.15c1.59-19.44-4.64-33.15-15.01-42.27-10.37-8.72-14.88-9.16-28.02-12.44-11.85-30.52-28.98-33.83-59.83-31.82-14.96-17.66-39.85-17.29-55.85-11.85,0-.27,0-.53,0-.8-15.7-6.48-43-8.18-58.99,10.68-30.49-3.31-47.99,1.3-59.83,31.82-13.15,3.28-19.67,5.12-30.05,13.83-10.38,9.12-19.06,28.46-12.99,40.87-17.24,14.08-21.79,38.56-10.76,57.9,2.11,2.7,3.66,5.81,4.56,9.12.2,2.42-.02,4.86-.64,7.2-3.56,16.96-1.23,31.82,12.99,41.67,2.3,1.2,5.39,7.45,6.99,9.49,1.33,2.84,3.25,8.16,2.7,11.25-.06,18.94,14.88,30.25,32.74,36.53l111,4.01c.54-6.9-.89-14.42-.77-20.9.18-9.25.84-18.53,1.42-27.8.6,9.92,1.34,19.86,1.53,29.77.13,6.48-1.3,14-.77,20.9l111-4.01c17.86-6.29,32.81-17.6,32.74-36.53-.55-3.09,1.37-8.41,2.7-11.25,1.6-2.04,4.69-8.29,6.99-9.49,14.22-9.85,16.55-24.71,12.99-41.67-.62-2.35-.84-4.78-.64-7.2.9-3.31,2.45-6.41,4.56-9.12,11.03-19.34,6.48-43.81-10.76-57.9Z"/>
  <path class="cls-11" d="M645.23,500.43c-1.53-4.87-.18-56.7-.18-56.7l-76.66,11.79-76.66-11.79s1.53,57.23,0,62.1c-1.53,4.87-25.37,10.7-25.37,10.7,0,0,2.47,55.2,102.03,55.2s108.76-55.61,108.76-55.61c0,0-30.39-10.82-31.92-15.69Z"/>
  <path class="cls-19" d="M490.13,457.08s.03,15.72.3,15.97c16.73,16.03,49.63,24.68,75.99,25.75,26.36-1.07,52.7-3.1,80.04-23.87,0,0,.7-17.18.73-18.42-47.38-.13-109.62.22-157.06.56Z"/>
  <path class="cls-11" d="M703.83,306.79s-5.16,1.64-.87,4.44c-3.02,15.29-3.05,35.03-5.61,53.49-6.79,48.71-13.46,82.72-46.55,104.22-34.67,22.56-52.9,19.72-82.84,20.83-29.94-1.12-50.36-1.57-85.03-24.13-33.07-21.51-37.57-52.22-44.34-100.93-1.51-10.86-4.28-41.56-6.21-51.09-1.42-7.07.54-13.53-.78-20.19-.02-.11-2.59,20.12-2.61,20.03-.02-.07-.02-.09-.02-.09-4.77-24.44-7.67-47-1.12-74.25,6.75-28.19,30.05-63.16,65.51-85.24h.02s.04-.02.04-.02c20.92-13.01,46.06-21.53,74.53-21.53,76.85,0,129.39,61.96,140.13,106.79,6.66,27.77.68,42.69-4.25,67.65Z"/>
  <path class="cls-1" d="M433.31,380.16c-5.64.63-10.67,4.65-11.3,10.51-.29,2.69.46,5.42,2.05,7.6,1.26,1.74,2.74,2.77,4.73,3.51,4.05,1.5,8.37.93,11.94-1.48.53-.36.7-1.08.15-1.5-.59-.45-1.53-.2-2.08.17-3.63,2.46-9.02,1.86-11.76-1.54s-2.89-8.35-.15-11.8c1.53-1.92,3.72-3.08,6.16-3.35.63-.07,1.52-.44,1.6-1.17s-.76-1.02-1.34-.95h0Z"/>
  <path class="cls-8" d="M577.86,377.99c-4.07,2.59-10.18,2.16-14.16-.69-.88-.63-3.89.08-2.65.97,5.26,3.77,14.05,3.91,19.3.57.52-.33.44-.8-.2-1.03-.66-.25-1.73-.17-2.28.19"/>
  <path class="cls-8" d="M559.03,376.91c-3.21-1.51-6.82-2.31-10.41-2.59-.53-.04-1.21.16-1.59.5-.3.27-.37.63.03.85,1.66.95,3.77,1.34,5.71,1.31.61-.01,1.42-.16,1.76-.69.32-.48-.27-.8-.75-.79-1.61.03-3.24-.29-4.61-1.07-.53.45-1.05.9-1.57,1.36,3.21.25,6.43.99,9.31,2.34.57.27,1.39.09,1.91-.21.38-.23.79-.75.22-1.03"/>
  <path class="cls-8" d="M544.9,377.36c-3.55-.1-7.72-1.93-9.47-5.08-2.64-4.76-.18-10.4,4.25-13.44.48-.33.23-.76-.26-.88-.64-.16-1.39.12-1.89.46-3.86,2.65-6.36,6.95-5.78,11.41.54,4.17,3.94,7.08,8.19,8.29,1.26.36,2.61.6,3.94.64.54.01,1.5-.18,1.77-.67.27-.5-.23-.72-.73-.74"/>
  <path class="cls-8" d="M582.08,376.91c3.21-1.51,6.82-2.31,10.41-2.59.53-.04,1.21.16,1.59.5.3.27.37.63-.03.85-1.66.95-3.77,1.34-5.71,1.31-.61-.01-1.42-.16-1.76-.69-.32-.48.27-.8.75-.79,1.61.03,3.24-.29,4.61-1.07.53.45,1.05.9,1.57,1.36-3.21.25-6.43.99-9.31,2.34-.57.27-1.39.09-1.91-.21-.38-.23-.79-.75-.22-1.03"/>
  <path class="cls-8" d="M596.21,377.36c3.55-.1,7.72-1.93,9.47-5.08,2.64-4.76.18-10.4-4.25-13.44-.48-.33-.23-.76.26-.88.64-.16,1.39.12,1.89.46,3.86,2.65,6.36,6.95,5.78,11.41-.54,4.17-3.94,7.08-8.19,8.29-1.26.36-2.61.6-3.94.64-.54.01-1.5-.18-1.77-.67-.27-.5.23-.72.73-.74"/>
  <path class="cls-12" d="M604.3,269.6c.02,2.77.05,5.54.07,8.32.02,2.12.05,4.23.08,6.34,7.69-1.82,14.27-3.01,19.24-3.79,10.51-1.66,15.88-2.47,22-1.55,6.42.96,11.88,3.14,13.99,4,2.98,1.21,4.98,1.98,7.37,3.55,5.19,3.42,7.32,7.29,8.17,6.95.77-.31-.51-3.71-.65-4.06-3.28-8.57-10.54-13.61-11.09-14.02,0,0-5.46-3.91-14.22-5.93-6.04-1.39-22.77-2.35-44.97.19"/>
  <path class="cls-12" d="M630.96,303.03c3.6-1.86,7.81-.25,10.17,1.83.56.49,2.05,1.89,2.74,4.26.89,3.02-.32,6.45-2.22,8.54-2.53,2.78-6.76,3.26-10,1.75-4.4-2.05-5.83-7.35-4.74-11.2.2-.7,1.15-3.67,4.05-5.18"/>
  <path class="cls-12" d="M602.72,316.03s18.97-13.8,28.67-14.69c14.16-1.3,31.6,5.95,36.61,12.44,0,0-23.08-10.84-33.03-9.65-9.51,1.13-32.26,11.9-32.26,11.9Z"/>
  <path class="cls-12" d="M535.95,269.9c-.02,2.77-.05,5.54-.07,8.32-.02,2.12-.05,4.23-.08,6.34-7.69-1.82-14.27-3.01-19.24-3.79-10.51-1.66-15.88-2.47-22-1.55-6.42.96-11.88,3.14-13.99,4-2.98,1.21-4.98,1.98-7.37,3.55-5.19,3.42-7.32,7.29-8.17,6.95-.77-.31.51-3.71.65-4.06,3.28-8.57,10.54-13.61,11.09-14.02,0,0,5.46-3.91,14.22-5.93,6.04-1.39,22.77-2.35,44.97.19"/>
  <path class="cls-12" d="M509.29,303.33c-3.6-1.86-7.81-.25-10.17,1.83-.56.49-2.05,1.89-2.74,4.26-.89,3.02.32,6.45,2.22,8.54,2.53,2.78,6.76,3.26,10,1.75,4.4-2.05,5.83-7.35,4.74-11.2-.2-.7-1.15-3.67-4.05-5.18"/>
  <path class="cls-12" d="M537.53,316.33s-18.97-13.8-28.67-14.69c-14.16-1.3-31.6,5.95-36.61,12.44,0,0,23.08-10.84,33.03-9.65,9.51,1.13,32.26,11.9,32.26,11.9Z"/>
  <path class="cls-16" d="M605.76,413.12c0,4.09-18.76,7.4-35.21,7.4s-35.21-3.31-35.21-7.4,18.76-7.4,35.21-7.4,35.21,3.31,35.21,7.4Z"/>
  <path class="cls-1" d="M704.89,382.08c4.69,1.86,7.67,6.8,6.51,11.83-.54,2.35-1.92,4.43-3.92,5.79-.24.16-.48.31-.73.45-.13.07-.55.2-.34.19-.06,0,.49-.12.21-.07-.12.02-.24.07-.35.1-.13.03-.26.07-.4.09.37-.08-.13.02-.23.04-.48.08-.79.12-1.25.14-3.21.15-6.09-1.25-8.16-3.67-.54-.63-3.29.38-2.71,1.05,3.33,3.89,9.23,5.05,13.98,3.2,5.4-2.11,8.43-8.31,6.43-13.79-1.13-3.11-3.64-5.38-6.68-6.59-.6-.24-1.5.03-2.04.33-.33.18-.93.67-.31.91h0Z"/>
  <path class="cls-4" d="M571.36,405.83c-20.24,0-53.03-2.31-53.03-2.31,0,0,6.11,49.94,53.03,49.94s53.03-49.94,53.03-49.94c0,0-32.79,2.31-53.03,2.31Z"/>
  <path class="cls-15" d="M571.56,405.83c-9.62,0-48.4-1.58-48.4-1.58,0,0,12.82,31.67,47.62,31.67,37.73,0,48.81-31.37,48.81-31.37l-48.03,1.28Z"/>
  <path class="cls-5" d="M571.98,407.24c-9.62,0-38.9-1.58-38.9-1.58,0,0,10.54,10.25,39.4,10.25s38.03-9.95,38.03-9.95l-38.53,1.28Z"/>
  <path class="cls-4" d="M626.52,400.65c-1.02-.24-6.62,1.56-11.4,1.16-7.96-.67-17.59-2.7-23.36-3.14-9.85-.74-16.11,3.04-20.39,3.04s-10.54-3.78-20.39-3.04c-5.77.43-15.4,2.47-23.36,3.14-4.78.4-10.38-1.41-11.4-1.16-1.42.34,1.34,10.48,55.17,10.48s56.56-10.14,55.14-10.48Z"/>
  <path class="cls-20" d="M705.92,201.37s7.32-19.34-2.49-21.84l-9.15-3.58s-.47-1.25-1.29-3.13h0c2.01-4.37-1.43-12.03-4.35-15.84-4.57-5.94-19.93-7.32-22.06-6.7-2.14.63-3.96,3.76-3.96,3.76,0,0-.3-9.07-3.65-11.27-3.34-2.19-22.83-9.07-22.83-9.07l-4.56,3.12c.12-.23,1.73-3.19-.61-5-2.36-1.82-27.8-13.89-44.06-12.97-.55.02-1.09.07-1.61.13l-6.76,3.18-.24.11c.07-.04.16-.08.26-.13,1.2-.64,3.76-2.22,2.45-3.51-.46-.46-1.39-.88-3.01-1.22-2.39-.49-5.97-.76-9.86-.88,0-.02,0-.03,0-.05-.37,0-.74.01-1.1.02-.37,0-.73-.02-1.1-.02,0,.02,0,.03,0,.05-3.89.12-7.46.39-9.86.88-1.63.34-2.56.76-3.01,1.22-1.32,1.3,1.25,2.87,2.45,3.51.09.05.18.09.26.13l-.24-.11-6.76-3.18c-.52-.07-1.06-.11-1.61-.13-16.26-.92-41.71,11.15-44.06,12.97-2.34,1.8-.73,4.77-.61,5l-4.56-3.12s-19.49,6.88-22.83,9.07c-3.35,2.2-4.87,7.42-4.87,7.42,0,0-5.94,1.97-8.08,1.34-2.13-.62-13.19,4.59-17.76,10.53-2.92,3.81-1.87,7.41-3.32,10.76h0c-.82,1.89-1.29,3.14-1.29,3.14l-11.44,3.46c-9.17,4-6.88,21.12-6.88,21.12-18.03,20.06-18.93,37.14-10.84,55.54,3.12,7.09-4.88,8.34-3.69,21.28,1.31,14.23,23.52,47.33,23.52,47.33,0,0,3.54-30.13,4.15-37.58.61-7.46-1.19-29.21-1.19-29.21l-.17-5.83s10.79-1.54,15.91-9.98c5.13-8.45,4.63-18.57,4.63-18.57l-2.74-9.08,13.64.85c13.17-2.05,13.91-14.99,13.91-14.99l-2.28-21.54,7.91,7.23s3.05,3.42,7.61,3.1c20.43-1.4,22.84-12.93,22.84-12.93l2.74-10.85,5.18,3.13c5.48,4.08,13.52,6.4,22.67,6.21.09,0,.18,0,.27,0,7.43-.26,13.53-5.95,15.42-13.14,2.14-8.14,6.37-22.04,6.49-24.71.1,2.32,3.95,12.65,6.62,20.44,2.12,6.18,6.02,11.64,11.37,15.37.87.61,1.61,1.07,2.11,1.26,8.53,3.32,18.44-1.35,23.92-5.42l5.18-3.13,1.65,10.16s-1.35,11.64,19.08,13.04c4.57.32,10.62-1.98,10.62-1.98l9.75-7.77-1.92,18.17s-1.93,17.37,14.85,18.73l12.35-1.22-2.74,9.08s-1.01,12.91,4.12,21.36c5.12,8.44,9.27,12.13,9.27,12.13l5.65,2.67s-.47,19.97.14,27.43c.6,7.46,5.8,40.37,5.8,40.37,0,0,14.93-29.1,19.33-42.7,6.06-18.72-11.33-24.47-3.75-34.43,8.19-10.76.84-46.86-14.92-48.97Z"/>
  <path class="cls-7" d="M372.44,903.72c-11.53-10.63-18.38-24.58-23.22-39.29-1.23-3.74-2.67-7.61-3.44-11.47-.93-4.65-1.32-9.5-1.66-14.22-.69-9.55-.55-19.17.46-28.7,1.6-15.12,5.71-29.82,11.08-44.01,1.83-4.83,3.75-9.62,5.37-14.53,2.01-6.09,3.53-12.32,4.72-18.62,1.59-8.44,3-17.03,2.51-25.64s-2.61-16.97-6.23-24.73c-.9-1.92-1.89-3.8-2.95-5.63-.97-1.67-6.48.38-5.8,1.55,4.32,7.42,7.24,15.6,8.53,24.1.65,4.3.89,8.67.7,13.01s-.92,8.88-1.64,13.28c-1.13,6.86-2.57,13.68-4.58,20.34-1.51,5.01-3.37,9.89-5.24,14.77-5.18,13.48-9.57,27.35-11.57,41.69-1.3,9.39-1.8,18.9-1.48,28.37.16,4.77.53,9.52,1.11,14.26.28,2.27.46,4.67,1.04,6.89.52,1.97,1.13,3.92,1.72,5.86,4.48,14.72,10.43,29.24,21.01,40.69,1.33,1.44,2.72,2.81,4.15,4.14,1.29,1.19,6.65-.98,5.42-2.11h0Z"/>
  <g>
    <path class="cls-16" d="M481.65,513s5.96,61.71,86.73,58.73c92.98-3.43,91.88-61.71,91.88-61.71l24.71,5.96s-13.54,80.4-117.12,79.36c-103.58-1.04-107.98-76.1-107.98-76.1l21.78-6.24Z"/>
    <path class="cls-7" d="M478.75,513.78c.22,2.25.76,4.5,1.34,6.69,1.49,5.59,3.74,10.97,6.55,16.02,3.91,7.02,9.07,13.21,15.17,18.43,7.88,6.73,17.33,11.48,27.23,14.46,13.98,4.2,28.7,4.95,43.2,4.13,14.38-.81,28.87-3.03,42.47-7.89,9.75-3.49,19.12-8.29,27.05-15.02,5.83-4.95,10.85-10.8,14.57-17.49,2.62-4.71,4.59-9.82,5.78-15.08.57-2.54,1.11-5.27,1.06-7.89,0-.12,0-.24,0-.36l-4.63,2.1c7.2,1.74,14.4,3.47,21.6,5.21,1.04.25,2.08.5,3.12.75l-1.22-1.56c-.44,2.62-1.22,5.21-2.04,7.74-.09.29-.19.58-.29.87-.05.15-.1.3-.15.45-.2.6.13-.36-.05.16-.24.69-.49,1.37-.74,2.05-.55,1.48-1.15,2.95-1.77,4.4-1.52,3.54-3.25,6.99-5.17,10.33-1.06,1.85-2.18,3.67-3.36,5.45-.64.96-1.29,1.92-1.96,2.86-.07.1-.64.88-.3.42-.15.2-.3.41-.45.61-.38.51-.76,1.02-1.15,1.52-3.11,4.04-6.54,7.83-10.24,11.34-1.01.95-2.03,1.88-3.08,2.79-.54.47.26-.22-.08.07-.14.12-.28.24-.43.36-.23.19-.46.39-.69.58-.58.48-1.17.96-1.76,1.43-2.33,1.85-4.75,3.59-7.24,5.23-1.27.83-2.55,1.63-3.85,2.41-.32.19-.65.38-.97.57-.48.28-.11.06-.01,0-.18.1-.37.21-.55.31-.74.42-1.49.82-2.24,1.22-2.93,1.55-5.94,2.97-9.01,4.25-1.63.68-3.28,1.32-4.94,1.93-.57.21-.17.06-.05.02-.22.08-.45.16-.67.24-.41.14-.82.28-1.22.42-.92.31-1.85.61-2.78.9-3.65,1.13-7.34,2.1-11.07,2.91-4.03.87-7.47,1.45-11.72,1.99-4.49.57-9,.94-13.52,1.14-17.48.78-35.38-.64-52.19-5.49-12.33-3.55-23.87-8.96-34.02-16.98-2.2-1.74-3.82-3.15-5.86-5.12-1.8-1.74-3.52-3.56-5.15-5.45-2.98-3.46-5.67-7.18-8.02-11.1-.54-.9-1.07-1.82-1.58-2.74-.23-.43-.46-.85-.69-1.28-.1-.19-.2-.38-.3-.57.21.41-.18-.35-.23-.46-.84-1.68-1.62-3.39-2.34-5.12-1.24-2.99-2.31-6.05-3.19-9.17-.98-3.5-1.79-7.11-2.12-10.75-.02-.17-.03-.34-.04-.51-.8.86-1.61,1.73-2.41,2.59,6.36-1.82,12.71-3.64,19.07-5.47.9-.26,1.81-.52,2.71-.78,1.04-.3,2.77-1.24,2.41-2.59s-2.37-1.33-3.38-1.04c-6.36,1.82-12.71,3.64-19.07,5.47-.9.26-1.81.52-2.71.78-1.25.36-2.5,1.17-2.41,2.59.15,2.61.69,5.22,1.27,7.76,1.48,6.44,3.81,12.68,6.82,18.56,4.31,8.45,10.01,16.11,16.94,22.6,9.15,8.57,20.03,14.95,31.72,19.39,15.93,6.05,33.11,8.5,50.08,8.91s35.7-1.28,52.68-6.67c12.83-4.08,25.06-10.18,35.63-18.56,8.41-6.67,15.71-14.6,21.66-23.53,4.29-6.43,7.85-13.36,10.55-20.6,1.41-3.79,2.69-7.69,3.48-11.66.03-.17.07-.34.1-.52.13-.76-.52-1.4-1.22-1.56-7.2-1.74-14.4-3.47-21.6-5.21-1.04-.25-2.08-.5-3.12-.75s-2.01-.15-2.94.29c-.62.29-1.7.99-1.68,1.81.03,1.78-.22,3.6-.5,5.36-.32,1.96-.76,3.9-1.31,5.81-.17.58-.34,1.15-.52,1.72-.09.29-.19.57-.29.86.21-.61-.12.33-.2.54-.47,1.29-.99,2.56-1.55,3.81-1.26,2.79-2.75,5.48-4.45,8.04-.23.34-.46.68-.69,1.02-.11.16-.22.32-.33.48-.06.09-.13.18-.19.27-.26.36.18-.25,0-.01-.53.72-1.07,1.42-1.63,2.12-1.16,1.44-2.39,2.83-3.68,4.16-.69.71-1.4,1.41-2.12,2.09-.34.32-.68.63-1.02.94-.2.18-.4.36-.6.53-.1.09-.2.18-.3.27.15-.13.28-.24.05-.04-1.67,1.41-3.4,2.75-5.2,4.01-.92.64-1.86,1.27-2.8,1.87-.49.31-.98.61-1.48.91-.23.14-.47.28-.71.42-.14.08-.27.16-.41.24-.66.39.31-.17-.08.05-2.21,1.25-4.47,2.4-6.78,3.45-1.25.57-2.52,1.11-3.79,1.63-.64.26-1.28.51-1.92.75-.3.12-.61.23-.92.34-.18.07-.35.13-.53.19-.32.12.36-.12-.18.06-2.87.99-5.76,1.9-8.7,2.68-6.88,1.83-13.25,2.96-20.29,3.77-14.54,1.69-29.79,2.01-44.03-.96-10.55-2.2-20.31-6-29.09-12.21-6.53-4.62-12.19-10.49-16.7-17.41-.94-1.45-1.83-2.93-2.66-4.45-.19-.36-.39-.71-.58-1.07-.09-.17-.17-.33-.26-.5.22.42-.11-.23-.16-.32-.35-.71-.7-1.43-1.02-2.15-1.14-2.5-2.13-5.06-2.96-7.68-.97-3.04-1.59-6.09-2.16-9.22-.03-.14-.04-.29-.05-.43-.13-1.37-2.5-1.27-3.38-1.04-1.22.33-2.55,1.19-2.41,2.59Z"/>
  </g>
  <g>
    <path class="cls-2" d="M543.25,884.79c-13.29-2.22-24.53-8.75-34.9-16.69-31.37-24.03-45.17-56.18-42.34-95.31,2.29-31.73,21.87-55.12,50.91-62.13,34.45-8.31,69.09,15.17,73.38,49.95.66,5.33,1.84,12.05-4.91,14.28-6.63,2.19-10.17-2.64-13.3-8.13-8.4-14.74-21.69-20.77-38.28-19.37-15.86,1.34-27.22,9.6-33.14,24.36-10.76,26.84-6.79,52.26,8.49,76.28,7.86,12.36,17.86,22.86,28.98,32.33,1.72,1.47,3.42,2.96,5.13,4.45Z"/>
    <path class="cls-14" d="M557.07,889.33c9.54-2.15,19.22-3.78,28.58-6.54,21.89-6.46,41.76-16.27,53.7-37.12,7.33-12.81,10.41-26.62,6.49-41.19-4.08-15.17-20.7-24.93-36.22-21.82-2.71.54-5.42,1.33-8.15,1.38-3.49.07-7.03-.47-8.79-4.22-1.81-3.84-.71-7.21,2.07-10.09,12.34-12.78,27.32-16.67,44.23-12.09,42.11,11.4,46.83,55.08,31.47,80.78-18.4,30.8-47.19,45.28-81.68,50.32-10.53,1.54-21.06,1.35-31.7.59Z"/>
    <path class="cls-2" d="M588.46,678.09c11.49.14,21,9.79,20.96,21.25-.04,11.72-10.11,21.5-21.73,21.13-11.43-.36-20.91-10.24-20.67-21.57.23-11.28,10.21-20.97,21.45-20.82Z"/>
    <path class="cls-14" d="M631.83,736.46c-.03-8.38,6.33-15.03,14.57-15.24,8.07-.21,14.93,6.51,15.09,14.77.16,8.7-6.53,15.66-14.96,15.58-8.24-.09-14.66-6.69-14.69-15.1Z"/>
  </g>
  <path class="cls-11" d="M964.86,569.74l-76.59,18.66s-17.67-19.73-20.42-37.86c-1.06-7.02,2.86-35.87,5.38-48.79,2.52-12.93,7.74-37.2,7.74-37.2,0,0,6.92-32.49,6.3-51.05-.62-18.56,2.26-40.78,9.18-39.83,13.46-2.31,13.96,16.31,15.12,27.1.32,2.95,1.26,61.83,1.26,61.83,5.15-5.23,11.71-7.29,18.8-5.4,9.23,2.8,11.18,12.24,11.18,12.24,3.05-2.37,7.01-3.22,10.76-2.3,6.31,1.58,7.36,10.53,7.36,10.53,3.34-2.05,7.38-2.64,11.17-1.64,11.71,2.63,9.2,14.2,7.77,25.65-.64,5.78-1.63,11.53-2.94,17.19-1.31,5.84-12.05,50.86-12.05,50.86Z"/>
  <path class="cls-19" d="M929.56,524.85c-1.1,3.91,3.4,4.84,6.34,4.91,4.15.1,8.71-.71,12.29-2.91,1.96-1.2,3.12-2.91,4.23-4.88,1-1.76,1.82-3.62,2.27-5.6.4-1.78.54-3.61.72-5.42.28-2.9.7-5.78,1.13-8.66,1.06-7.12,2.34-14.22,4.43-21.12.15-.48-1.97-.21-2.15.37-3.04,10.06-4.67,20.65-5.69,31.09-.36,3.65-1.19,6.85-3.04,10.04-1.13,1.95-2.32,3.49-4.38,4.51-1.84.91-3.91,1.35-5.95,1.55-2.81.27-9.32.25-8.05-4.24.14-.49-1.99-.21-2.15.37h0Z"/>
  <path class="cls-19" d="M941.72,469.61c-.48,1.75-.97,3.5-1.45,5.26s-1.12,3.47-1.33,5.24c-.31,2.72-1.21,5.33-1.66,8.02-.36,2.18-.56,4.37-.96,6.54l-1.36,7.4c-.41,2.24-.58,4.44-.88,6.69s-.77,4.51-1.28,6.74c-.51,2.22-.97,4.4-2.06,6.43-2.19,4.1-6.28,7.7-11.22,6.79-4.43-.81-7.96-4.26-9.67-8.32-.39-.91-.69-1.87-.88-2.84-.08-.38-.08-.97-.29-1.31-.41-.65-1.81-.34-2.23.22-.36.49-.47,2.36,0,2.81.57.55,1.97-.13,2.27-.71.68-1.32.5-3.34.62-4.78.28-3.41.42-6.82.45-10.25.01-1.62.02-3.24.04-4.86s.26-3.46-.05-5.1c-.14-.73-.5-.92-1.25-.81-.15.02-.98.18-1.02.35.05-.25,1.29.06,1.38-.24.03-.1-.08-.42-.1-.53-.13-1.1.19-2.22.37-3.3.79-4.83,1.59-9.66,2.38-14.49.29-1.76.58-3.52.87-5.27.23-1.41.79-2.68,1.34-4,.38-.92.91-1.88,1.13-2.85.14-.61-2.02-.27-2.15.34-.43,1.94-1.62,3.72-2.22,5.62-.21.66-.28,1.43-.42,2.25-.67,4.09-1.34,8.18-2.01,12.27-.49,2.97-1.22,6-1.48,9-.13,1.49.28,2.39,1.9,1.77,1.11-.43-1.05.04-1.03-.02-.05.09.17.82.19.95.15,1.65.02,3.33,0,4.99-.04,3.1-.02,6.2-.14,9.3-.08,2.03-.22,4.05-.39,6.07-.09,1.03-.13,2.09-.34,3.11-.04.19-.15.44-.15.63.01.38-.51.28.49-.13l1.09-.18c.53.09.2.12.23-.24.02-.23-.04-.51-.05-.75s.03-.5.02-.74c0-.3.26-.5-.11-.19l-1.03.39c-1.76.31-.66-.43-.72.12-.02.15.11.43.14.59.18.9.37,1.77.68,2.64.7,1.95,1.8,3.75,3.2,5.29,2.7,2.97,6.63,4.71,10.67,4.31,4.07-.4,7.58-2.53,10.05-5.76,2.75-3.6,3.55-8.01,4.39-12.37.54-2.82.63-5.69,1.15-8.51.44-2.37.87-4.73,1.31-7.1.32-1.72.69-3.44.87-5.18.33-3.14,1.14-6.11,1.76-9.19.2-1.01.24-2.05.49-3.04.27-1.08.59-2.14.89-3.21.57-2.06,1.14-4.13,1.71-6.19.16-.58-1.98-.28-2.15.34h0Z"/>
  <path class="cls-19" d="M878.91,587.28c5.23,2.38,11.05,5.36,16.93,5.52,4.1.12,8.06-1.38,12.03-2.2.25-.05,1.25-.24,1.27-.59.02-.37-.65-.26-.87-.21-3.59.74-7.31,2.22-11.02,2.11-2.1-.06-4.16-.6-6.15-1.25-3.47-1.13-6.82-2.62-10.14-4.13-.42-.19-.99-.03-1.4.12-.09.03-.99.46-.65.62h0Z"/>
  <path class="cls-11" d="M877.6,508.73c7.38-4.69,11.61-13.41,19.26-17.65,4.54-2.52,9.87-3.2,15.06-3.4,11.79-.45,23.66,1.36,34.78,5.3,2.15.76,4.4,1.69,5.75,3.54,2.78,3.79.19,9.52-3.87,11.89-4.06,2.38-20.57.54-25.24,1.11-12.95,1.58-13.79,9.27-23.39,18.12"/>
  <path class="cls-19" d="M878.44,508.8c4.41-2.85,7.68-6.97,11.19-10.8,1.8-1.97,3.69-3.89,5.86-5.45,2.53-1.82,5.41-2.97,8.46-3.59,6.22-1.25,12.85-1.06,19.13-.5,6.51.58,12.95,1.86,19.19,3.79,2.73.85,5.92,1.63,8.13,3.55,1.92,1.67,2.49,4.18,1.84,6.6-.61,2.28-2.17,4.56-4.23,5.78-1.14.67-2.62.75-3.91.85-4.07.33-8.18.13-12.25,0-3.56-.11-7.12-.3-10.63.41-4.66.94-8.67,3.09-11.91,6.57-3.56,3.82-6.49,8.11-10.34,11.68-.38.35.33.42.53.42.48,0,1.09-.2,1.45-.54,3.64-3.38,6.49-7.36,9.77-11.06s6.87-5.75,11.64-6.45c3.64-.54,7.47-.1,11.13,0,4.08.11,8.31.3,12.35-.41s7.27-3.39,8.48-7.31c.65-2.11.5-4.41-.84-6.22-1.65-2.21-4.48-3.13-6.98-3.98-12.37-4.22-26.12-6.14-39.15-4.56-3.43.41-6.84,1.23-9.97,2.72-2.66,1.27-5,3.07-7.11,5.11-4.55,4.38-8.14,9.78-13.5,13.25-.4.26-.21.45.15.54.46.12,1.16-.17,1.54-.41h0Z"/>
  <path class="cls-19" d="M950.98,524.54c1.5,3.19,4.26,5.67,7.67,6.65,4.14,1.19,7.79-.9,10.63-3.8,5.27-5.37,6.8-13.11,9.38-19.91.25-.65-1.91-.39-2.17.29-2.2,5.78-3.56,12.14-7.23,17.24-.92,1.28-1.99,2.45-3.21,3.45-1.69,1.38-3.38,2.3-5.62,1.73-3.22-.82-5.9-3.25-7.29-6.23-.33-.71-2.45-.01-2.17.58h0Z"/>
  <path class="cls-19" d="M922.42,538.26c4.59,11.8,2.06,25.77-6.4,35.19-.36.4.31.6.58.62.52.04,1.09-.21,1.44-.59,8.59-9.56,11.22-23.83,6.56-35.81-.29-.74-2.44-.09-2.17.58h0Z"/>
  <path class="cls-19" d="M938.79,491.65c-.64,1.36-1.62,2.58-2.14,4-.25.69-.4,1.39-.4,2.13,0,.43,0,.93.11,1.35s.52.7.83.99c2.7,2.4,6.38,3.51,9.96,3.23.4-.03,1.21-.34,1.2-.86-.04-2.06.58-5.31,3.2-5.38.46-.01,1.15-.34,1.2-.86.06-.55-.59-.68-.99-.67-1.66.04-3.26.91-4.26,2.23-1.05,1.39-1.38,3.14-1.35,4.85l1.2-.86c-3.02.24-6.03-.8-8.32-2.78-.35-.3-.53-.5-.57-.98-.03-.36-.03-.72,0-1.07.06-.59.22-1.14.47-1.68.56-1.19,1.35-2.25,1.91-3.44.51-1.09-1.68-1.05-2.07-.22h0Z"/>
  <ellipse class="cls-16" cx="1013.25" cy="203.26" rx="201.99" ry="164.65"/>
  <polygon class="cls-16" points="850.3 239.63 766.99 337.97 894.27 315.39 850.3 239.63"/>
  <g>
    <path class="cls-17" d="M964.84,112.95c-3.79-7.28-6.89-13.17-9.07-17.22-1.09-2.02-1.94-3.59-2.54-4.64-.27-.56-.59-1.09-.97-1.58.19.59.44,1.16.74,1.7.52,1.09,1.31,2.69,2.34,4.74,2.02,4.12,5.06,10.04,8.81,17.34,4.04,7.79,8.93,17.14,14.37,27.53.2-.1.41-.19.61-.29-5.37-10.44-10.22-19.81-14.29-27.59Z"/>
    <path class="cls-17" d="M911.57,186.84c-8.13-1.21-14.71-2.16-19.26-2.78-2.28-.31-4.05-.54-5.25-.68-.61-.11-1.23-.15-1.85-.14.59.19,1.19.33,1.8.41,1.19.22,2.95.52,5.21.9,4.54.75,11.1,1.79,19.23,3.03,7.67,1.18,16.73,2.54,26.77,4.03.05-.23.1-.46.15-.7-10.04-1.55-19.12-2.93-26.81-4.07Z"/>
    <path class="cls-17" d="M921.18,156.84c-7.34-3.63-13.3-6.58-17.44-8.58-2.07-1-3.68-1.77-4.78-2.27-.54-.29-1.11-.53-1.71-.71.5.36,1.03.68,1.59.94,1.05.65,2.65,1.45,4.69,2.5,4.08,2.12,10,5.14,17.33,8.84,7.26,3.66,15.9,7.98,25.5,12.76.12-.2.24-.4.35-.6-9.59-4.85-18.24-9.22-25.53-12.89Z"/>
    <path class="cls-17" d="M939.5,131.53c-5.87-5.75-10.64-10.38-13.96-13.56-1.67-1.58-2.97-2.81-3.85-3.63-.43-.45-.9-.85-1.41-1.2.37.5.78.96,1.23,1.39.83.88,2.07,2.16,3.69,3.79,3.27,3.27,7.94,7.97,13.72,13.79,6.04,5.95,13.29,13.05,21.35,20.93.18-.17.37-.33.55-.5-8.02-7.95-15.25-15.08-21.31-21.02Z"/>
    <path class="cls-17" d="M994.63,103.15c-1.4-8.09-2.54-14.64-3.33-19.17-.41-2.27-.77-4.01-.98-5.2-.09-.61-.23-1.21-.43-1.8,0,.62.05,1.24.17,1.84.16,1.19.41,2.96.76,5.23.69,4.55,1.74,11.11,3.07,19.22,1.45,8.85,3.25,19.54,5.28,31.44.23-.03.46-.07.69-.1-1.95-11.92-3.72-22.63-5.23-31.47Z"/>
    <path class="cls-17" d="M1100.03,156.24c7.28-3.8,13.16-6.91,17.21-9.09,2.02-1.09,3.59-1.94,4.64-2.54.56-.27,1.08-.6,1.58-.97-.59.19-1.16.44-1.7.73-1.09.52-2.7,1.31-4.75,2.34-4.11,2.06-10.02,5.1-17.33,8.86-7.84,4.05-17.28,8.98-27.77,14.47.11.19.23.39.34.58,10.5-5.41,19.95-10.3,27.77-14.4Z"/>
    <path class="cls-17" d="M1056.04,112.66c3.64-7.35,6.58-13.32,8.58-17.45,1-2.07,1.77-3.68,2.27-4.78.3-.57.53-1.16.69-1.78-.36.52-.66,1.07-.92,1.65-.65,1.05-1.44,2.65-2.5,4.69-2.11,4.07-5.13,10-8.83,17.34-4.1,8.11-9.01,17.97-14.47,28.95.21.1.41.2.61.3,5.54-10.95,10.5-20.79,14.57-28.92Z"/>
    <path class="cls-17" d="M1081.39,130.92c5.75-5.85,10.37-10.63,13.55-13.96,1.59-1.66,2.81-2.96,3.63-3.85.45-.43.85-.91,1.19-1.43-.5.36-.97.77-1.39,1.22-.88.83-2.15,2.08-3.78,3.7-3.27,3.23-7.96,7.94-13.73,13.79-6.33,6.41-13.95,14.2-22.43,22.89.16.15.32.3.48.45,8.53-8.62,16.18-16.38,22.48-22.81Z"/>
    <path class="cls-17" d="M1056.53,291.54c3.78,7.29,6.88,13.18,9.05,17.23,1.09,2.02,1.94,3.59,2.53,4.64.27.56.59,1.09.97,1.58-.19-.59-.44-1.16-.73-1.7-.51-1.1-1.31-2.7-2.32-4.75-2.04-4.11-5.06-10.04-8.81-17.34-3.28-6.38-7.13-13.8-11.39-21.98-.21.12-.41.24-.62.36,4.21,8.19,8.03,15.61,11.33,21.96Z"/>
    <path class="cls-17" d="M911.67,218.23c-8.09,1.4-14.64,2.54-19.17,3.33-2.27.4-4.01.76-5.2.97-.61.09-1.21.23-1.8.43.62,0,1.23-.05,1.84-.17,1.2-.16,2.97-.42,5.24-.75,4.55-.69,11.11-1.74,19.22-3.06,7.31-1.19,15.87-2.62,25.33-4.21-.03-.23-.06-.46-.08-.69-9.48,1.54-18.07,2.95-25.38,4.17Z"/>
    <path class="cls-17" d="M1100.25,247.62c7.35,3.68,13.31,6.63,17.44,8.64,2.07,1,3.68,1.77,4.78,2.28.54.29,1.11.53,1.71.71-.5-.36-1.03-.68-1.59-.94-1.03-.61-2.64-1.44-4.68-2.5-4.07-2.13-10-5.16-17.33-8.86-6.99-3.53-15.27-7.69-24.45-12.28-.09.22-.19.45-.29.67,9.15,4.63,17.42,8.8,24.41,12.3Z"/>
    <path class="cls-17" d="M1109.84,186.24c8.1-1.36,14.65-2.49,19.18-3.28,2.26-.4,4.01-.76,5.2-.97.61-.08,1.22-.22,1.8-.43-.62,0-1.24.06-1.84.17-1.19.16-2.96.41-5.23.75-4.55.68-11.12,1.72-19.23,3.04-8.43,1.36-18.54,3.04-29.76,4.92.05.23.1.47.15.71,11.22-1.82,21.31-3.48,29.72-4.91Z"/>
    <path class="cls-17" d="M1081.95,272.98c5.88,5.75,10.65,10.39,13.96,13.57,1.66,1.59,2.96,2.82,3.85,3.63.43.45.9.85,1.41,1.21-.37-.5-.78-.96-1.23-1.39-.83-.88-2.07-2.16-3.68-3.8-3.23-3.28-7.93-7.97-13.77-13.76-5.32-5.27-11.59-11.45-18.54-18.26-.16.19-.33.37-.49.55,6.89,6.84,13.14,13.01,18.49,18.25Z"/>
    <path class="cls-17" d="M940.07,273.42c-5.75,5.87-10.39,10.64-13.57,13.96-1.59,1.66-2.81,2.96-3.63,3.85-.45.43-.85.9-1.2,1.41.49-.38.94-.81,1.35-1.27.88-.83,2.16-2.07,3.8-3.68,3.27-3.23,7.96-7.94,13.75-13.77,4.83-4.89,10.43-10.57,16.58-16.84-.16-.16-.32-.32-.47-.48-6.18,6.25-11.79,11.94-16.6,16.84Z"/>
    <path class="cls-17" d="M921.45,248c-7.28,3.79-13.17,6.89-17.22,9.06-2.02,1.09-3.59,1.94-4.64,2.54-.56.27-1.09.59-1.58.96.59-.18,1.16-.43,1.7-.73,1.09-.52,2.7-1.31,4.75-2.33,4.12-2.03,10.04-5.06,17.34-8.81,6.31-3.25,13.65-7.06,21.74-11.28-.1-.21-.2-.42-.3-.63-8.13,4.17-15.49,7.96-21.8,11.22Z"/>
    <path class="cls-17" d="M965.36,291.73c-3.63,7.34-6.58,13.3-8.58,17.44-1,2.07-1.77,3.68-2.28,4.78-.29.54-.53,1.11-.71,1.71.36-.5.68-1.03.94-1.59.61-1.03,1.44-2.65,2.5-4.68,2.12-4.08,5.14-10,8.85-17.33,3.05-6.03,6.56-13.02,10.4-20.72-.22-.11-.44-.22-.66-.34-3.89,7.69-7.43,14.69-10.47,20.73Z"/>
    <path class="cls-17" d="M1026.06,103.02c1.21-8.13,2.16-14.71,2.78-19.26.3-2.27.53-4.05.67-5.25.11-.61.15-1.23.14-1.85-.2.58-.34,1.19-.41,1.8-.22,1.19-.52,2.95-.9,5.22-.75,4.53-1.78,11.1-3.02,19.22-1.37,8.98-2.99,19.87-4.77,32,.22.03.44.07.67.11,1.87-12.12,3.52-23.01,4.84-32Z"/>
    <path class="cls-17" d="M1134.48,220.97c-1.19-.22-2.95-.53-5.21-.91-4.53-.76-11.1-1.8-19.22-3.06-8.12-1.26-17.79-2.72-28.54-4.32-.02.23-.04.45-.06.68,10.72,1.67,20.37,3.16,28.48,4.39,8.13,1.22,14.7,2.18,19.25,2.8,2.28.32,4.05.55,5.25.69.61.11,1.23.15,1.85.14-.59-.19-1.19-.32-1.8-.41Z"/>
  </g>
  <path class="cls-9" d="M1059.78,204.98c-.44-26.99-22.68-48.51-49.67-48.07-26.99.44-48.51,22.68-48.07,49.67.31,18.95,11.55,36.01,28.83,43.78.1,5.79.21,12.32.21,12.32l42.81-.73s.14-6.92.13-13.1c16.12-8.65,26.05-25.58,25.75-43.87Z"/>
  <g id="freepik--2ggvdetif--inject-39">
    <path class="cls-6" d="M1002.77,299.87c1.17.75,2.23,1.66,3.15,2.7.62.76,1.56,1.18,2.54,1.16l9.56-.17c1.07-.02,2.07-.57,2.65-1.47.68-1.05,1.92-2.3,3.23-2.6l-21.14.38Z"/>
  </g>
  <path class="cls-18" d="M991.95,273.43c.03.19,2.48,15.09,3.44,20.78.36,2.35,1.89,4.36,4.05,5.34.86.38,1.79.57,2.73.55l20.91-.38s5.46-.1,6.63-4.45c1.22-4.59,3.37-22.55,3.37-22.55l-41.13.71Z"/>
  <path class="cls-6" d="M992.72,289.49v-.11c-.01-.57.44-1.04,1.01-1.06l37.97-.81c.57-.01,1.05.44,1.06,1.02v.11c.01.57-.44,1.04-1.01,1.06h0l-37.97.81c-.57.01-1.05-.44-1.06-1.02Z"/>
  <path class="cls-6" d="M992.08,284.27v-.11c-.01-.57.44-1.05,1.02-1.06h0s38.96-.83,38.96-.83c.57-.01,1.04.44,1.06,1.01h0v.11c.01.57-.44,1.04-1.01,1.06h0l-38.96.83c-.57.02-1.05-.43-1.06-1h0Z"/>
  <path class="cls-6" d="M991.22,278.72v-.11c-.01-.57.44-1.04,1.01-1.06l40.54-.86c.57-.01,1.04.44,1.06,1.01h0v.11c.01.57-.44,1.05-1.02,1.06l-40.53.86c-.57.01-1.04-.44-1.06-1.01h0Z"/>
  <path class="cls-18" d="M985.77,255.66c0,.39,1.03,9.52,1.56,14.21.19,1.72,1.17,3.26,2.64,4.17l2.16,1.34,40.44-.72,2.08-1.4c1.45-.98,2.37-2.57,2.49-4.32l.94-14.21-52.3.93Z"/>
  <g class="cls-21">
    <path class="cls-16" d="M1006.94,173.41c-.74-1.7-2.65-2.91-4.91-3.54-3.24-.86-6.68-.41-9.6,1.24-8.63,4.76-13.5,10.41-16.38,20.32-.98,3.35-1.41,8.89.3,12.13.81,1.66,2.28,2.91,4.06,3.43,4.62,1.25,8.19-3.28,9.55-7.56,1.26-4,1.66-8.5,4.43-11.65,2.29-2.59,5.75-3.74,8.62-5.67,2.87-1.92,5.3-5.54,3.93-8.7Z"/>
  </g>
  <g>
    <path class="cls-6" d="M1013.25,218.28c2.51-1.6,4.49-4.05,4.8-7.1.23-2.28-.04-5.08-2.17-6.42-1.82-1.14-4.4-1.15-6.32-.27-2.26,1.03-3.22,3.29-3.24,5.67-.01,1.75.32,3.41,1.23,4.92.84,1.4,2.1,2.52,3.46,3.38.59.38,1.55.25,2.08-.18l.09-.07c-.69.06-1.38.12-2.08.18l.09.07c.97.8,3.51-.6,2.24-1.65l-.09-.07c-.53-.44-1.6-.21-2.08.18l-.09.07,2.08-.18c-2.01-1.28-3.56-3.1-3.91-5.52-.16-1.1-.16-2.33.16-3.41.05-.18.12-.36.2-.53.04-.08.08-.16.12-.24,0,0,.21-.35.09-.17.09-.13.19-.25.3-.37,0,0,.27-.25.12-.13-.12.1.2-.14.23-.17.05-.05.24-.13-.03.01.07-.03.13-.07.2-.1.07-.04.42-.17.04-.03.07-.02.14-.05.22-.07.11-.03.68-.12.28-.08.2-.02.39-.04.59-.06.38-.03-.18-.02.05,0,.1,0,.2.01.3.02.16.01.32.04.47.06.38.06-.24-.08.12.02.07.02.15.04.22.06s.14.05.21.07c.07.03.14.05.21.08-.09-.05-.1-.06-.03-.02.63.33,1.03.74,1.32,1.38.41.91.49,1.94.46,2.92-.05,1.39-.33,2.7-1.1,3.87-.69,1.06-1.68,1.87-2.74,2.55-.52.33-.72,1.08-.16,1.47.62.43,1.5.19,2.08-.18Z"/>
    <path class="cls-6" d="M994.41,217.2c.44,1.39,1.67,2.3,2.98,2.82,1.77.71,3.7.93,5.59.91.71,0,2.04-.31,2-1.24-.09-2.39-.2-4.79-.46-7.17-.13-1.17-.17-2.63-.94-3.59-1.09-1.37-3.1-1.21-4.57-.68s-2.86,1.7-3.73,3.08c-1.1,1.75-1.44,3.88-.88,5.87.3,1.05,3.19.27,2.9-.78-.41-1.45-.33-3.04.35-4.39.15-.31.33-.61.53-.9.25-.36.29-.4.56-.68.11-.11.23-.22.35-.33.07-.06.36-.28.14-.12.12-.09.25-.17.37-.25.07-.04.14-.08.21-.12-.18.1-.16.08.01,0,.06-.02.12-.04.17-.07.25-.12-.11.06-.12.04-.02-.05.62-.06.07-.03.07,0,.14-.01.21-.03-.03,0-.34-.02-.12,0,.05,0,.11,0,.16,0,.21,0-.17-.11-.02,0,0,0,.27.07.09.02-.15-.05,0,0,.05.02.1.06.21.1.3.17-.16-.11.1.1.14.14.1.11.19.22.27.34.09.13-.06-.13,0,0,.01.03.03.06.04.09.03.08.06.16.09.25.07.23.13.47.18.71.13.65.21,1.32.29,1.98.26,2.38.36,4.78.46,7.17l2-1.24c-1.48.02-3.02-.09-4.41-.64-1.03-.41-2.03-1.05-2.37-2.16-.19-.61-1.19-.5-1.65-.37-.41.11-1.44.54-1.25,1.15Z"/>
    <path class="cls-6" d="M1005.19,254.52c.13-8.4.15-16.81.03-25.21-.04-3.21-.11-6.41-.23-9.62-.67.42-1.33.83-2,1.25,3.42-.06,7.24-.78,10.04-2.83-.69.08-1.37.17-2.06.25l.09.06c.55.36,1.57.06,2.06-.25l.09-.06c-.69.08-1.37.17-2.06.25,2.54,1.86,6.07,2.52,9.17,2.57l-.9-.69c-.41,10.64-.35,21.31-.23,31.95.01.96.02,1.92.04,2.88s2.92.4,2.9-.78c0,.08,0,.16,0-.09s0-.5-.01-.75c-.01-.9-.02-1.79-.03-2.69-.03-2.91-.05-5.82-.05-8.73-.02-7.38.01-14.76.3-22.14.02-.5-.46-.69-.9-.69-2.75-.05-5.74-.66-7.99-2.3-.52-.38-1.59-.05-2.06.25l-.09.06,2.06-.25-.09-.06c-.53-.35-1.59-.09-2.06.25-1.98,1.45-4.69,2-7.12,2.05-.72.01-2.04.31-2,1.25.44,11.45.37,22.93.19,34.39-.02,1.26,2.89.68,2.9-.34h0Z"/>
    <path class="cls-6" d="M1020.58,209.64c-.59,1.06-.63,2.54-.75,3.71-.23,2.27-.33,4.56-.43,6.84-.03.75.73.91,1.33.92,2.18.03,4.55-.27,6.5-1.32.83-.45,1.61-1.01,2.16-1.79s.79-1.7.87-2.65c.25-3.08-1.68-6.6-4.78-7.49-1.88-.53-3.87.08-4.9,1.78-.38.62.33,1.12.87,1.18.73.09,1.51-.25,1.89-.88.12-.19,0,0-.02.03.04-.04.07-.09.11-.14.21-.27-.11.06.04-.06.29-.22-.2.08,0-.02.35-.17-.33.06.05-.02.25-.06-.37.07-.05.01.05,0,.11,0,.16,0,.17-.04-.3-.04-.13,0,.09.02.23.04.33.04.17.01-.23-.09-.08-.02.06.03.14.04.21.06.12.04.23.09.34.13.2.08.01,0-.02-.01.06.03.11.06.17.09.26.15.51.32.74.51.26.21.23.18.49.47.2.22.39.45.56.7.7.99,1.14,2.29,1.1,3.54-.02.67-.11,1.37-.38,1.9-.03.06-.07.13-.11.19.02-.04.13-.17,0,.01-.09.12-.19.23-.29.34-.03.04-.18.16,0,0-.06.05-.12.1-.18.15s-.13.1-.19.14c-.03.02-.31.2-.15.11s-.08.04-.12.06c-.1.05-.2.1-.3.15-.08.04-.16.07-.25.11-.03.01-.44.16-.15.06-.43.14-.86.25-1.29.35-.03,0-.29.06-.07.02-.13.02-.26.04-.4.06-.24.03-.49.06-.74.08-.57.05-1.14.06-1.72.06l1.33.92c.09-2.23.19-4.47.41-6.7.07-.75.16-1.49.29-2.23.05-.26.12-.52.17-.77.04-.19-.06.16-.02.05.02-.04.03-.09.05-.14.03-.07.06-.15.1-.22.35-.63-.31-1.12-.87-1.18-.71-.08-1.53.24-1.89.88Z"/>
  </g>
</svg>