<?xml version="1.0" encoding="UTF-8"?>
<svg id="Layer_1" data-name="Layer 1" xmlns="http://www.w3.org/2000/svg" viewBox="0 0 1334 1000">
  <defs>
    <style>
      .cls-1 {
        fill: #cd8c2a;
      }

      .cls-1, .cls-2, .cls-3, .cls-4, .cls-5, .cls-6, .cls-7, .cls-8, .cls-9, .cls-10, .cls-11, .cls-12, .cls-13, .cls-14, .cls-15, .cls-16, .cls-17, .cls-18 {
        stroke-width: 0px;
      }

      .cls-19 {
        stroke: #000;
        stroke-width: .14px;
      }

      .cls-19, .cls-20 {
        stroke-miterlimit: 10;
      }

      .cls-19, .cls-10 {
        fill: #000;
      }

      .cls-2 {
        fill: #d83b28;
      }

      .cls-3 {
        fill: #a4704b;
      }

      .cls-20 {
        stroke: #0d3f60;
        stroke-width: .75px;
      }

      .cls-20, .cls-5 {
        fill: #0d3f60;
      }

      .cls-4 {
        fill: #643b29;
      }

      .cls-6 {
        fill: #13435e;
      }

      .cls-7 {
        fill: #f0edf6;
      }

      .cls-8 {
        fill: #a56e54;
      }

      .cls-9 {
        fill: #888;
      }

      .cls-11 {
        fill: #221e1f;
      }

      .cls-12 {
        fill: #a66e53;
      }

      .cls-13 {
        fill: #12100e;
      }

      .cls-14 {
        fill: #b8e0ee;
      }

      .cls-15 {
        fill: #f8ae1c;
      }

      .cls-16 {
        fill: #24170e;
      }

      .cls-17 {
        fill: #fff;
      }

      .cls-18 {
        fill: #4f2e25;
      }
    </style>
  </defs>
  <rect class="cls-14" x="-11.35" y="-28.91" width="1359.5" height="1057.58" rx="12" ry="12"/>
  <g>
    <path class="cls-8" d="M1022.61,707.71c4.66-41.72,21.26-126.17,21.26-126.17l-64.26-23.82-40.29,147.66c25.34,11.07,57.37-7.28,83.29,2.33Z"/>
    <path class="cls-8" d="M1013.77,615.51l41.09-29.31c16.21-6.96,30.75-17.28,42.66-30.29,10.05-13.71,18.14-28.75,24.02-44.7l24.29-29.61,9.63-11.74s24.68-9.39,22.28-17.33c-2.4-7.94-12.52-6.84-22.35-5.75-9.83,1.09-133.96,60.57-133.96,60.57,4.45-13.54,10.05-26.66,16.74-39.24,10.41-19.22,2.11-30.94-9.54-33.56-11.65-2.62-21.47,24.55-24.32,40.04-2.28,12.43-23.59,28.32-31.38,49.14-7.79,20.82,3.35,49.14,3.35,49.14-8.88,38.51,37.46,42.63,37.46,42.63Z"/>
    <path class="cls-18" d="M1122.91,511.31c3.49-8.11,6.86-16.29,10.46-24.34,0-.01.01-.03.02-.04-.51,1.12.14-.63.03-.03.06-.29.11-.38.04-.7-.19-.92-1.19-1.86-1.84-2.44-1.86-1.66-4.46-2.58-6.89-2.94-4.31-.64-9.1.81-12.5,3.53-2.93,2.35-4.82,5.65-6.93,8.7-2.83,4.08-6.18,7.74-8.98,11.85-3.57,5.24-6.81,10.7-10.25,16.02-1.5,2.32-3.05,4.58-4.44,6.97-1.08,1.86-2.43,3.52-3.76,5.21-1.1,1.4,1.66,1.57,2.37.66,1.2-1.53,2.47-3.04,3.52-4.68s1.9-3.26,2.97-4.84c2.98-4.39,5.72-8.93,8.57-13.4,2.73-4.29,5.5-8.6,8.79-12.49,2.64-3.12,4.77-6.55,7.19-9.83,2.15-2.91,4.8-4.84,8.35-5.7,2.53-.61,5.23-.14,7.54,1.04,1.1.56,2.1,1.26,2.86,2.25,0,0,.55.93.55.93.05,0,.48-1.06.07-.29-.65,1.19-1.09,2.54-1.63,3.79-1.1,2.57-2.21,5.13-3.31,7.7-1.85,4.29-3.69,8.59-5.54,12.88-.61,1.41,2.29,1.22,2.73.2h0Z"/>
    <path class="cls-18" d="M1054.8,520.18c10.6-7.99,22.81-13.64,35.06-18.59.56-.22,1.08-.92.68-1.5-.42-.62-1.4-.45-1.97-.22-12.49,5.04-24.9,10.84-35.7,18.98-1.57,1.18.77,2.19,1.92,1.33h0Z"/>
    <path class="cls-18" d="M1063.22,536.74c-3.21-5.89-8.44-10.09-14.79-12.18-1.85-.61-3.61-1.35-5.54-1.73-1.78-.35-3.59-.52-5.41-.49-3.83.05-7.55.93-11.06,2.42-.4.17-.84.5-.35.78.5.28,1.58-.17,2.03-.36,3.19-1.36,6.65-1.84,10.1-1.53,3.23.28,6.28,1.41,9.29,2.55,5.49,2.08,10.04,6.19,12.83,11.32.4.73,3.15-.31,2.9-.78h0Z"/>
    <path class="cls-17" d="M342.3,997.55l43.6-218.55-42.22-248.59s-45.98,3.98-71.04,79.16c-21.38,80.54-61.3,352.5-58.7,404,.84,15.33,6.05,52.57,12.87,97.02h120.23l-4.75-113.03Z"/>
    <path class="cls-17" d="M965.54,582.21l-55.1,160.16-50.19-164.45c-5.98-22.15-22.38-51.03-43.99-58.62l-53.64-15.1-36.55,195.1,80.16,170.34c7.66,18.16,32.87,36.82,50.58,45.25,32.57,15.86,66.38,19.09,95.89-.84,11.08-10.09,20.33-22.01,27.36-35.25,13.41-25.52,30.85-85.42,33.45-114.15l33.98-153.13-81.93-29.31Z"/>
    <path class="cls-17" d="M802.85,1078.63c-2.81-11.78-6.66-23.3-11.49-34.41-3.22-10.49-1.25-21.32-2.05-32.26-5.56-42.87-6.4-86.22-2.53-129.28,2.61-19.23,25.96-30.65,37-67.59,9.73-32.26-33.26-303.08-33.26-303.08l-95.94-24.14-24.37-4.98-1.92-1.07c-.21,1.45-.21,2.92,0,4.37v2.38c-13.33,23.66-37.47,39.22-64.52,41.61-9.39.65-18.81.65-28.2,0-29.27-1.71-55.97-17.28-71.88-41.92l-.46-9.81-57.7,16.55-107.67,37.09-2.3,219.7c2.53,45.29-1.38,53.64,17.47,94.49l26.59,26.74,1.84,139.24s-15.79,37.63-35.1,97.02h461.55c-1.92-10.12-2.99-21.07-5.06-30.65Z"/>
    <path class="cls-9" d="M909.52,739.98c-5.04,8.07-9.55,16.5-13.81,25-3.83,7.65-7.38,15.44-10.46,23.42-3.1,8.03-5.78,16.31-7.26,24.81-1.32,7.59-1.91,16.05,1.14,23.31.81,1.92,6.51.14,5.8-1.55-2.64-6.28-2.48-13.4-1.55-20.02,1.17-8.34,3.65-16.49,6.55-24.38,5.35-14.58,12.31-28.58,19.97-42.07,1.62-2.85,3.26-5.7,5-8.48.7-1.12-.61-1.58-1.54-1.59-1.19-.02-3.14.44-3.83,1.55h0Z"/>
    <path class="cls-9" d="M797.89,648.17c-4.21,6.39-7.25,13.47-8.64,21.02-.67,3.65-.96,7.39-.88,11.1.09,3.94.74,7.8,1.39,11.67,2.51,14.95,5.98,29.7,9.89,44.35,1.91,7.15,3.9,14.28,5.83,21.43,2.15,7.95,4.52,15.91,5.85,24.05s1.91,16.91,1.59,25.4c-.16,4.3-.56,8.58-1.16,12.84-.29,2.06-.52,4.2-1.16,6.19-.52,1.61-1.03,3.22-1.55,4.84-4.09,12.69-8.8,25.31-18.48,34.88-1.23,1.22-2.53,2.36-3.87,3.46-.87.71-.71,1.49.44,1.64,1.29.17,3.08-.27,4.1-1.1,5.44-4.43,9.99-9.69,13.59-15.71,3.36-5.62,5.8-11.72,7.93-17.89,1.11-3.21,2.14-6.45,3.17-9.69,1.27-3.96,1.74-8.15,2.17-12.28.87-8.4.94-16.88.16-25.29-.4-4.32-1.02-8.62-1.86-12.88-.81-4.11-1.97-8.17-3.04-12.22-1.95-7.38-3.99-14.73-5.99-22.1-3.9-14.31-7.59-28.67-10.35-43.24-1.48-7.79-3.21-15.74-2.81-23.71.38-7.57,2.51-15.04,5.98-21.77.91-1.77,1.92-3.48,3.01-5.14.7-1.06-.61-1.33-1.46-1.31-1.11.03-3.17.44-3.85,1.48h0Z"/>
  </g>
  <g>
    <path class="cls-10" d="M541.22,413.26c-4.79-8.64-9.2-17.49-13.26-26.51-.99-2.19.59-4.46,2.5-5.02-1.84-3.21-4.32-7.03-7.12-9.94-5.9-6.14-20.74-8.77-20.74-8.77,0,0-.16-15.54-7.13-16.22-6.98-.68-21.07,2.77-21.07,2.77,0,0-12.91-7.52-22.78,3.48,0,0-10.83,1.61-10.75,15.84.01,3.08.54,6.75,1.8,11.13,0,0-5.28.93-11.56,10.79-2.71,4.25-4.26,17.02.17,26.76l.13,2.3c5.84,12.82,13.64,20.02,25.03,19.31.05.12,11.6,25.38,37.67,19.51,22.64-5.09,27.29-17.3,27.29-17.3,0,0,11.42,3.75,16.68,1.44,5.51-2.43,9.02-7.67,10.64-13.48-2.58-5.33-5.06-10.7-7.5-16.09Z"/>
    <path class="cls-10" d="M541.37,413.22c-2.9-5.23-5.66-10.53-8.28-15.9-1.29-2.65-2.56-5.32-3.79-8-.53-1.15-1.36-2.43-1.48-3.71-.16-1.74,1.09-3.3,2.68-3.85.01,0,.12-.04.1-.07-2.19-3.8-4.67-7.87-8.01-10.78-2.59-2.26-5.84-3.74-9.03-4.93-2.7-1.01-5.49-1.82-8.3-2.47-.68-.16-1.63-.18-2.26-.48-.35-.17-.25,0-.27-.49-.23-4.4-.66-9.54-3.27-13.25-1.47-2.1-3.37-2.61-5.83-2.62-3.38-.01-6.76.46-10.08,1.02-2.7.45-5.39.98-8.06,1.59-.29.07-.58.16-.87.2-.27.04-.2.01-.13.03-.45-.12-.91-.46-1.34-.65-4.91-2.15-10.65-2.59-15.61-.35-1.69.76-3.25,1.82-4.61,3.07-.63.58-.97,1.23-1.71,1.5-1.24.46-2.43.78-3.59,1.47-5.16,3.06-7.03,8.98-6.93,14.71.04,2.14.3,4.27.72,6.37.23,1.19.4,2.61.88,3.73.27.63.46.39.17.65-.27.24-1.02.36-1.36.52-.88.42-1.7.94-2.48,1.52-3.1,2.3-5.69,5.5-7.69,8.78-1.56,2.56-2.11,5.76-2.41,8.7-.44,4.28-.2,8.68.81,12.87.25,1.02.54,2.03.89,3.01.28.8.77,1.62.89,2.45.08.58,0,1.18.1,1.75.14.85.67,1.68,1.06,2.45,3.28,6.56,7.96,13.13,15.05,15.86,1.55.59,3.17.99,4.82,1.18.74.09,1.48.14,2.22.15.4,0,1.61-.24,1.91-.04.4.25.79,1.53,1.03,1.94,1.99,3.47,4.49,6.67,7.39,9.44,4.15,3.96,9.21,6.95,14.82,8.25,7.33,1.7,14.82.26,21.82-2.18,5.86-2.04,11.58-5.04,15.99-9.48,1.62-1.63,3.38-3.62,4.21-5.82-.11.29-.38-.09-.08.12.24.18.74.23,1.03.31,1.24.36,2.49.67,3.75.94,3.1.66,6.42,1.2,9.58.73,3.07-.45,5.84-2.4,7.92-4.63,1.36-1.46,2.47-3.13,3.36-4.91.44-.87.82-1.77,1.15-2.69.18-.5.43-1.05.52-1.58.1-.6-.15-.9-.43-1.48-2.39-4.96-4.69-9.96-6.96-14.98-.03-.07-.33.04-.31.08,1.96,4.34,3.96,8.67,6.01,12.98.44.92,1.51,2.4,1.39,3.45-.09.8-.54,1.69-.84,2.43-.66,1.63-1.48,3.2-2.49,4.64-2.12,3.03-5.42,6-9.19,6.56-2.98.45-6.1-.04-9.03-.64-1.81-.37-3.62-.82-5.38-1.39-.06-.02-.26.02-.28.09-.87,2.25-2.66,4.28-4.34,5.95-5.18,5.16-12.09,8.34-19.05,10.32-7.89,2.24-16.02,2.64-23.62-.83-5.06-2.31-9.39-5.99-12.86-10.29-1.83-2.27-3.58-4.77-4.79-7.43-.01-.03-.07-.02-.09-.02-5.53.31-10.77-1.37-14.99-4.97-2.18-1.86-4.03-4.08-5.63-6.46-.9-1.33-1.71-2.71-2.47-4.13-.63-1.17-1.59-2.57-1.86-3.87-.16-.77.02-1.6-.21-2.35-.47-1.56-1.19-3.04-1.6-4.63-.81-3.16-1.15-6.45-1.11-9.71.03-2.84.34-5.7,1.08-8.45.7-2.58,2-4.65,3.61-6.78,1.81-2.4,3.92-4.7,6.45-6.35.84-.55,1.84-1.17,2.84-1.35.02,0,.2-.04.19-.09-2.24-7.92-3.66-18.89,3.83-24.59.94-.72,1.99-1.31,3.1-1.74.55-.22,1.16-.3,1.71-.52.08-.03.17-.02.25-.06.34-.16.67-.69.93-.95.52-.51,1.07-1,1.64-1.45,2.28-1.8,4.98-2.99,7.86-3.38,3.46-.47,7.03.16,10.25,1.47.55.22,1.25.75,1.83.86.29.05.64-.1.92-.16,3.39-.78,6.81-1.45,10.24-1.96,2.25-.33,4.51-.6,6.78-.68,1.68-.06,3.59-.19,5.08.7,2.92,1.74,3.93,5.88,4.51,8.98.41,2.16.66,4.39.69,6.59,0,.01.01.02.03.02,5.97,1.06,12.27,2.92,17.43,6.16,2.01,1.26,3.62,2.83,5.11,4.67.87,1.07,1.68,2.18,2.46,3.31.82,1.2,1.89,2.53,2.44,3.88.24.59.24.5-.18.87-.31.27-.7.43-1.01.72-.72.69-1.21,1.64-1.22,2.65-.02,1.4.92,2.82,1.49,4.07.67,1.45,1.34,2.89,2.02,4.33,3.15,6.62,6.49,13.15,10.05,19.56.04.07.33-.04.31-.08Z"/>
  </g>
  <g>
    <path class="cls-10" d="M613.27,413.26c4.79-8.64,9.2-17.49,13.26-26.51.99-2.19-.59-4.46-2.5-5.02,1.84-3.21,4.32-7.03,7.12-9.94,5.9-6.14,20.74-8.77,20.74-8.77,0,0,.16-15.54,7.13-16.22,6.98-.68,21.07,2.77,21.07,2.77,0,0,12.91-7.52,22.78,3.48,0,0,10.83,1.61,10.75,15.84-.01,3.08-.54,6.75-1.8,11.13,0,0,5.28.93,11.56,10.79,2.71,4.25,4.26,17.02-.17,26.76l-.13,2.3c-5.84,12.82-13.64,20.02-25.03,19.31-.05.12-11.6,25.38-37.67,19.51-22.64-5.09-27.29-17.3-27.29-17.3,0,0-11.42,3.75-16.68,1.44-5.51-2.43-9.02-7.67-10.64-13.48,2.58-5.33,5.06-10.7,7.5-16.09Z"/>
    <path class="cls-10" d="M613.43,413.23c3.01-5.44,5.88-10.95,8.6-16.54,1.39-2.87,2.75-5.75,4.07-8.66.46-1.01,1.01-1.98.87-3.13s-.82-2.1-1.72-2.71c-.62-.42-.93-.4-.66-1.16.2-.58.73-1.22,1.05-1.74.76-1.21,1.55-2.4,2.39-3.56,1.46-2,3.04-3.99,5.02-5.49,3.41-2.59,7.6-4.16,11.66-5.39,2.35-.71,4.74-1.34,7.16-1.77.04,0,.19-.04.19-.09.02-1.83.21-3.67.49-5.47.47-2.98,1.2-6.34,3.16-8.72,1.4-1.7,3.16-2.01,5.28-2.01,2.13,0,4.26.21,6.37.49,3.67.48,7.32,1.17,10.94,1.98.49.11,1.22.44,1.73.39.35-.04.74-.35,1.05-.5,2.94-1.38,6.25-2.13,9.5-2,2.33.1,4.64.67,6.73,1.73,1.03.52,2,1.15,2.9,1.86.52.41,1.02.85,1.49,1.31.3.29.69.9,1.05,1.07.3.14.74.16,1.07.26.94.29,1.84.69,2.69,1.19,8.84,5.16,7.54,17.11,5.17,25.49,0,.02,0,.03.02.03,2.55.47,4.97,2.75,6.68,4.51,2.07,2.13,4.23,4.7,5.47,7.42.99,2.19,1.46,4.64,1.74,7.02.36,3.03.35,6.12,0,9.15-.21,1.81-.55,3.6-1.05,5.36-.21.76-.45,1.51-.73,2.24-.22.6-.61,1.23-.75,1.84-.16.72.04,1.53-.13,2.25s-.7,1.53-1.04,2.2c-.38.75-.77,1.5-1.17,2.23-1.5,2.71-3.24,5.3-5.33,7.59-4.52,4.94-10.5,7.59-17.22,7.21-.06,0-.23.02-.26.09-.99,2.19-2.38,4.25-3.81,6.17-3.2,4.29-7.22,8.05-11.95,10.6-7.13,3.86-15.14,4.24-22.92,2.35-7.32-1.79-14.64-4.77-20.34-9.82-2.18-1.93-4.55-4.38-5.62-7.16-.02-.05-.18,0-.21.01-4.41,1.44-9.53,2.66-14.17,2.03-3.27-.45-6.19-2.66-8.29-5.1-1.18-1.37-2.16-2.9-2.95-4.51-.38-.77-.71-1.56-1.01-2.36-.17-.45-.37-.93-.47-1.4-.17-.78.1-1.33.43-2.03,2.35-4.89,4.62-9.82,6.86-14.76.02-.04-.27-.02-.31.06-2.34,5.17-4.72,10.32-7.18,15.42-.29.61-.35.59-.17,1.21.16.53.33,1.05.52,1.57.38,1.03.83,2.04,1.34,3.01.9,1.7,2.02,3.29,3.36,4.67,2.4,2.48,5.41,4.27,8.9,4.44,3.11.16,6.27-.41,9.29-1.12,1.12-.26,2.23-.56,3.33-.89.13-.04.45-.21.58-.18.12.03-.21-.1-.12.07.4.71.74,1.44,1.19,2.13,2.57,3.87,6.34,6.89,10.32,9.19,3.29,1.91,6.82,3.37,10.45,4.49,4,1.25,8.12,2.21,12.32,2.3,5.96.13,11.83-1.5,16.88-4.66,4.15-2.6,7.7-6.12,10.58-10.07.95-1.3,1.83-2.66,2.62-4.07.23-.4.41-.85.66-1.24.3-.46.03-.25.45-.32.77-.13,1.66.03,2.44-.02.83-.05,1.67-.15,2.49-.3,1.41-.25,2.79-.65,4.12-1.2,3.04-1.25,5.7-3.25,7.94-5.64,2.74-2.92,4.87-6.35,6.67-9.91.37-.73.96-1.61,1.13-2.4.12-.58.04-1.22.1-1.81.09-.79.49-1.5.77-2.25.41-1.11.75-2.24,1.03-3.38.98-4.03,1.24-8.25.87-12.37-.27-3.06-.8-6.44-2.41-9.12-2-3.31-4.61-6.54-7.74-8.85-.81-.6-1.68-1.16-2.61-1.57-.21-.1-1.08-.26-1.22-.44-.15-.2.4-1.67.5-2.04.28-1.13.52-2.26.72-3.41.36-2.07.56-4.16.53-6.26-.05-3.44-.79-6.97-2.75-9.85-1.22-1.79-2.87-3.27-4.79-4.27-1.01-.53-2.15-.67-3.15-1.14-.44-.21-.86-.86-1.24-1.22-.84-.8-1.74-1.52-2.71-2.15-1.51-.97-3.17-1.7-4.92-2.14-2.83-.71-5.8-.62-8.63,0-1.76.39-3.58.97-5.18,1.83-.12.06-.26.17-.39.21.26-.07.19.02-.04-.1-.67-.35-1.72-.4-2.46-.55-3.17-.68-6.36-1.28-9.58-1.71-2.94-.39-6.21-.9-9.17-.4-4.7.79-5.97,7.14-6.56,11.02-.26,1.7-.37,3.4-.46,5.12-.01.25.21-.03.11.05-.13.1-.51.1-.67.13-.88.18-1.77.38-2.64.59-5.8,1.42-12.33,3.36-16.85,7.45-3.23,2.92-5.65,6.86-7.81,10.61,0,0,0,.02,0,.02,1.2.41,2.2,1.3,2.61,2.52.48,1.44-.22,2.71-.81,4-1.29,2.83-2.61,5.64-3.97,8.44-2.72,5.59-5.58,11.11-8.6,16.54-.02.03.26.02.31-.06Z"/>
  </g>
  <path class="cls-12" d="M440.85,285.94s-14.69-22.28-22.95-21.34c-5.02.57-15.72,15.28-14.21,28.08,2.02,17.12,16.04,35.32,20.08,44.99,4.04,9.68,5.09,24.1,18.4,22.58,5.27-.6,10.61-12.33,10.61-12.33,0,0-7.52-46.74-11.93-61.99Z"/>
  <g>
    <path class="cls-3" d="M438.09,310.12c-16.54-27.15-25.3-26.07-25.3-26.07,0,0-4.9,7.57-.02,20.58"/>
    <path class="cls-11" d="M439.43,309.54c-3.71-6.08-7.72-12.05-12.52-17.34-2.47-2.72-5.21-5.37-8.38-7.26-1.41-.84-3.02-1.61-4.69-1.75-.29-.02-.58-.04-.87,0-1.49.19-1.89,1.34-2.38,2.55-2.48,6.15-1.5,13.22.73,19.28.4,1.09,3.28.25,2.9-.78-1.75-4.76-2.7-9.9-1.82-14.94.31-1.75.77-3.66,1.74-5.18l-1.54.8c.17-.02-.52.08-.09.01.08-.01.21.01.29.03-.28-.05-.09-.03.17.04,1.09.28,1.66.51,2.77,1.13,4.56,2.53,8.22,6.71,11.44,10.71,3.52,4.38,6.64,9.08,9.57,13.87.54.89,3.35-.07,2.68-1.17h0Z"/>
  </g>
  <g>
    <path class="cls-3" d="M433.96,313.41c-7.94.37.21,14.12-1.45,17.88-1.66,3.76-5.86-4.97-8.45-15.86,0,0-2.19-14.9,4.82-18.71"/>
    <path class="cls-11" d="M434.17,312.64c-1.79.12-3.78.84-4.65,2.52-.8,1.54-.59,3.45-.31,5.09.35,2.09.95,4.12,1.45,6.17.35,1.43.99,3.35.5,4.81-.04.12-.26.56-.27.53.02.03,1.41-.42,1.41-.36,0-.01-.06.01-.08-.04-.02-.05-.28-.22-.32-.25-.69-.59-1.18-1.48-1.6-2.27-1.48-2.74-2.5-5.75-3.4-8.73-1.07-3.53-1.7-6.64-1.69-10.31.02-4.17.5-10.37,4.58-12.68.46-.26.79-.74.27-1.09s-1.57,0-2.05.28c-4.1,2.32-5.3,7.26-5.61,11.63-.23,3.25-.13,6.53.69,9.69.91,3.52,2,7.04,3.51,10.35.71,1.56,1.7,4.06,3.42,4.8,1.6.69,3.6-.37,4.07-2s-.15-3.66-.54-5.26c-.51-2.09-3.78-11.08.23-11.34.48-.03,1.57-.37,1.65-.96.09-.65-.84-.61-1.24-.58h0Z"/>
  </g>
  <path class="cls-12" d="M714.88,286.97s14.69-22.28,22.95-21.34c5.02.57,15.72,15.28,14.21,28.08-2.02,17.12-16.04,35.32-20.08,44.99-4.04,9.68-5.09,24.1-18.4,22.58-5.27-.6-10.61-12.33-10.61-12.33,0,0,7.52-46.74,11.93-61.99Z"/>
  <g>
    <path class="cls-3" d="M717.65,311.16c16.54-27.15,25.3-26.07,25.3-26.07,0,0,4.9,7.57.02,20.58"/>
    <path class="cls-11" d="M719.01,311.24c4.38-7.17,9.17-14.37,15.32-20.16,1.51-1.42,3.11-2.75,4.89-3.81.56-.34.82-.48,1.59-.81.13-.05.25-.1.38-.15.39-.16-.09.02.05-.02.2-.06.4-.12.61-.18.1-.03.19-.04.29-.07.33-.09-.4.04-.09.02.12-.01.26-.02.39-.05.28-.05-.42-.04-.02,0l-.8-.32c.24.37.37.68.61,1.24.53,1.27.89,2.61,1.12,3.96.88,5.03-.08,10.19-1.83,14.93-.24.66.91.79,1.29.76.67-.06,1.38-.41,1.63-1.06,2.11-5.74,3.07-12.27,1.12-18.19-.27-.81-.62-2.17-1.25-2.81-.39-.39-1-.37-1.51-.33-1.62.12-3.19.8-4.59,1.57-3.06,1.67-5.71,4.07-8.11,6.57-5.37,5.61-9.76,12.14-13.8,18.75-.76,1.25,2.16,1.1,2.73.17h0Z"/>
  </g>
  <g>
    <path class="cls-3" d="M721.77,314.45c7.94.37-.21,14.12,1.45,17.88,1.66,3.76,5.86-4.97,8.45-15.86,0,0,2.19-14.9-4.82-18.71"/>
    <path class="cls-11" d="M721.29,315.55c4.37.28,2.09,6.88,1.43,9.42-.54,2.09-3.02,9.18,1.14,9.35,2.06.09,3.35-1.93,4.23-3.5,1.6-2.83,2.66-5.99,3.6-9.08.62-2.03,1.33-4.12,1.55-6.24.17-1.64.24-3.29.21-4.94-.08-4.78-.88-11.04-5.5-13.65-.65-.37-1.49-.32-2.08.16-.44.35-.79,1.2-.14,1.57,3.7,2.09,4.53,7.02,4.73,10.9.15,2.99.02,5.96-.73,8.86-.86,3.32-1.9,6.63-3.3,9.76-.45,1.02-.93,2.05-1.55,2.97-.22.34-.52.62-.74.95.05-.08-.21.21-.22.17-.05-.18.95-.12.86-.08.12-.05,0,.11-.12-.22-.1-.27-.18-.53-.2-.82-.07-.77.09-1.58.23-2.33.38-2.03.99-4.01,1.46-6.03.46-1.99.96-4.26.41-6.28-.55-2.01-2.3-3-4.3-3.13-.69-.04-1.6.19-1.88.91-.25.64.23,1.25.9,1.29h0Z"/>
  </g>
  <path class="cls-10" d="M738.24,167.15c1.59-19.44-4.64-33.15-15.01-42.27-10.37-8.72-14.88-9.16-28.02-12.44-11.85-30.52-28.98-33.83-59.83-31.82-14.96-17.66-39.85-17.29-55.85-11.85,0-.27,0-.53,0-.8-15.7-6.48-43-8.18-58.99,10.68-30.49-3.31-47.99,1.3-59.83,31.82-13.15,3.28-19.67,5.12-30.05,13.83-10.38,9.12-19.06,28.46-12.99,40.87-17.24,14.08-21.79,38.56-10.76,57.9,2.11,2.7,3.66,5.81,4.56,9.12.2,2.42-.02,4.86-.64,7.2-3.56,16.96-1.23,31.82,12.99,41.67,2.3,1.2,5.39,7.45,6.99,9.49,1.33,2.84,3.25,8.16,2.7,11.25-.06,18.94,14.88,30.25,32.74,36.53l111,4.01c.54-6.9-.89-14.42-.77-20.9.18-9.25.84-18.53,1.42-27.8.6,9.92,1.34,19.86,1.53,29.77.13,6.48-1.3,14-.77,20.9l111-4.01c17.86-6.29,32.81-17.6,32.74-36.53-.55-3.09,1.37-8.41,2.7-11.25,1.6-2.04,4.69-8.29,6.99-9.49,14.22-9.85,16.55-24.71,12.99-41.67-.62-2.35-.84-4.78-.64-7.2.9-3.31,2.45-6.41,4.56-9.12,11.03-19.34,6.48-43.81-10.76-57.9Z"/>
  <path class="cls-12" d="M655.23,470.43c-1.53-4.87-.18-56.7-.18-56.7l-76.66,11.79-76.66-11.79s1.53,57.23,0,62.1c-1.53,4.87-25.37,10.7-25.37,10.7,0,0,2.47,55.2,102.03,55.2s108.76-55.61,108.76-55.61c0,0-30.39-10.82-31.92-15.69Z"/>
  <path class="cls-18" d="M500.13,427.08s.03,15.72.3,15.97c16.73,16.03,49.63,24.68,75.99,25.75,26.36-1.07,52.7-3.1,80.04-23.87,0,0,.7-17.18.73-18.42-47.38-.13-109.62.22-157.06.56Z"/>
  <path class="cls-12" d="M713.83,276.79s-5.16,1.64-.87,4.44c-3.02,15.29-3.05,35.03-5.61,53.49-6.79,48.71-13.46,82.72-46.55,104.22-34.67,22.56-52.9,19.72-82.84,20.83-29.94-1.12-50.36-1.57-85.03-24.13-33.07-21.51-37.57-52.22-44.34-100.93-1.51-10.86-4.28-41.56-6.21-51.09-1.42-7.07.54-13.53-.78-20.19-.02-.11-2.59,20.12-2.61,20.03-.02-.07-.02-.09-.02-.09-4.77-24.44-7.67-47-1.12-74.25,6.75-28.19,30.05-63.16,65.51-85.24h.02s.04-.02.04-.02c20.92-13.01,46.06-21.53,74.53-21.53,76.85,0,129.39,61.96,140.13,106.79,6.66,27.77.68,42.69-4.25,67.65Z"/>
  <path class="cls-1" d="M443.31,350.16c-5.64.63-10.67,4.65-11.3,10.51-.29,2.69.46,5.42,2.05,7.6,1.26,1.74,2.74,2.77,4.73,3.51,4.05,1.5,8.37.93,11.94-1.48.53-.36.7-1.08.15-1.5-.59-.45-1.53-.2-2.08.17-3.63,2.46-9.02,1.86-11.76-1.54s-2.89-8.35-.15-11.8c1.53-1.92,3.72-3.08,6.16-3.35.63-.07,1.52-.44,1.6-1.17s-.76-1.02-1.34-.95h0Z"/>
  <path class="cls-10" d="M587.86,347.99c-4.07,2.59-10.18,2.16-14.16-.69-.88-.63-3.89.08-2.65.97,5.26,3.77,14.05,3.91,19.3.57.52-.33.44-.8-.2-1.03-.66-.25-1.73-.17-2.28.19"/>
  <path class="cls-10" d="M569.03,346.91c-3.21-1.51-6.82-2.31-10.41-2.59-.53-.04-1.21.16-1.59.5-.3.27-.37.63.03.85,1.66.95,3.77,1.34,5.71,1.31.61-.01,1.42-.16,1.76-.69.32-.48-.27-.8-.75-.79-1.61.03-3.24-.29-4.61-1.07-.53.45-1.05.9-1.57,1.36,3.21.25,6.43.99,9.31,2.34.57.27,1.39.09,1.91-.21.38-.23.79-.75.22-1.03"/>
  <path class="cls-10" d="M554.9,347.36c-3.55-.1-7.72-1.93-9.47-5.08-2.64-4.76-.18-10.4,4.25-13.44.48-.33.23-.76-.26-.88-.64-.16-1.39.12-1.89.46-3.86,2.65-6.36,6.95-5.78,11.41.54,4.17,3.94,7.08,8.19,8.29,1.26.36,2.61.6,3.94.64.54.01,1.5-.18,1.77-.67.27-.5-.23-.72-.73-.74"/>
  <path class="cls-10" d="M592.08,346.91c3.21-1.51,6.82-2.31,10.41-2.59.53-.04,1.21.16,1.59.5.3.27.37.63-.03.85-1.66.95-3.77,1.34-5.71,1.31-.61-.01-1.42-.16-1.76-.69-.32-.48.27-.8.75-.79,1.61.03,3.24-.29,4.61-1.07.53.45,1.05.9,1.57,1.36-3.21.25-6.43.99-9.31,2.34-.57.27-1.39.09-1.91-.21-.38-.23-.79-.75-.22-1.03"/>
  <path class="cls-10" d="M606.21,347.36c3.55-.1,7.72-1.93,9.47-5.08,2.64-4.76.18-10.4-4.25-13.44-.48-.33-.23-.76.26-.88.64-.16,1.39.12,1.89.46,3.86,2.65,6.36,6.95,5.78,11.41-.54,4.17-3.94,7.08-8.19,8.29-1.26.36-2.61.6-3.94.64-.54.01-1.5-.18-1.77-.67-.27-.5.23-.72.73-.74"/>
  <path class="cls-13" d="M614.3,239.6c.02,2.77.05,5.54.07,8.32.02,2.12.05,4.23.08,6.34,7.69-1.82,14.27-3.01,19.24-3.79,10.51-1.66,15.88-2.47,22-1.55,6.42.96,11.88,3.14,13.99,4,2.98,1.21,4.98,1.98,7.37,3.55,5.19,3.42,7.32,7.29,8.17,6.95.77-.31-.51-3.71-.65-4.06-3.28-8.57-10.54-13.61-11.09-14.02,0,0-5.46-3.91-14.22-5.93-6.04-1.39-22.77-2.35-44.97.19"/>
  <path class="cls-13" d="M640.96,273.03c3.6-1.86,7.81-.25,10.17,1.83.56.49,2.05,1.89,2.74,4.26.89,3.02-.32,6.45-2.22,8.54-2.53,2.78-6.76,3.26-10,1.75-4.4-2.05-5.83-7.35-4.74-11.2.2-.7,1.15-3.67,4.05-5.18"/>
  <path class="cls-13" d="M612.72,286.03s18.97-13.8,28.67-14.69c14.16-1.3,31.6,5.95,36.61,12.44,0,0-23.08-10.84-33.03-9.65-9.51,1.13-32.26,11.9-32.26,11.9Z"/>
  <path class="cls-13" d="M545.95,239.9c-.02,2.77-.05,5.54-.07,8.32-.02,2.12-.05,4.23-.08,6.34-7.69-1.82-14.27-3.01-19.24-3.79-10.51-1.66-15.88-2.47-22-1.55-6.42.96-11.88,3.14-13.99,4-2.98,1.21-4.98,1.98-7.37,3.55-5.19,3.42-7.32,7.29-8.17,6.95-.77-.31.51-3.71.65-4.06,3.28-8.57,10.54-13.61,11.09-14.02,0,0,5.46-3.91,14.22-5.93,6.04-1.39,22.77-2.35,44.97.19"/>
  <path class="cls-13" d="M519.29,273.33c-3.6-1.86-7.81-.25-10.17,1.83-.56.49-2.05,1.89-2.74,4.26-.89,3.02.32,6.45,2.22,8.54,2.53,2.78,6.76,3.26,10,1.75,4.4-2.05,5.83-7.35,4.74-11.2-.2-.7-1.15-3.67-4.05-5.18"/>
  <path class="cls-13" d="M547.53,286.33s-18.97-13.8-28.67-14.69c-14.16-1.3-31.6,5.95-36.61,12.44,0,0,23.08-10.84,33.03-9.65,9.51,1.13,32.26,11.9,32.26,11.9Z"/>
  <path class="cls-17" d="M615.76,383.12c0,4.09-18.76,7.4-35.21,7.4s-35.21-3.31-35.21-7.4,18.76-7.4,35.21-7.4,35.21,3.31,35.21,7.4Z"/>
  <path class="cls-1" d="M714.89,352.08c4.69,1.86,7.67,6.8,6.51,11.83-.54,2.35-1.92,4.43-3.92,5.79-.24.16-.48.31-.73.45-.13.07-.55.2-.34.19-.06,0,.49-.12.21-.07-.12.02-.24.07-.35.1-.13.03-.26.07-.4.09.37-.08-.13.02-.23.04-.48.08-.79.12-1.25.14-3.21.15-6.09-1.25-8.16-3.67-.54-.63-3.29.38-2.71,1.05,3.33,3.89,9.23,5.05,13.98,3.2,5.4-2.11,8.43-8.31,6.43-13.79-1.13-3.11-3.64-5.38-6.68-6.59-.6-.24-1.5.03-2.04.33-.33.18-.93.67-.31.91h0Z"/>
  <path class="cls-4" d="M581.36,375.83c-20.24,0-53.03-2.31-53.03-2.31,0,0,6.11,48.94,53.03,48.94s53.03-48.94,53.03-48.94c0,0-32.79,2.31-53.03,2.31Z"/>
  <path class="cls-16" d="M581.56,375.83c-9.62,0-48.4-1.58-48.4-1.58,0,0,12.82,30.67,47.62,30.67,37.73,0,48.81-30.37,48.81-30.37l-48.03,1.28Z"/>
  <path class="cls-7" d="M581.98,377.24c-9.62,0-38.9-1.58-38.9-1.58,0,0,10.54,10.25,39.4,10.25s38.03-9.95,38.03-9.95l-38.53,1.28Z"/>
  <path class="cls-4" d="M636.52,370.65c-1.02-.24-6.62,1.56-11.4,1.16-7.96-.67-17.59-2.7-23.36-3.14-9.85-.74-16.11,3.04-20.39,3.04s-10.54-3.78-20.39-3.04c-5.77.43-15.4,2.47-23.36,3.14-4.78.4-10.38-1.41-11.4-1.16-1.42.34,1.34,10.48,55.17,10.48s56.56-10.14,55.14-10.48Z"/>
  <path class="cls-19" d="M715.92,171.37s7.32-19.34-2.49-21.84l-9.15-3.58s-.47-1.25-1.29-3.13h0c2.01-4.37-1.43-12.03-4.35-15.84-4.57-5.94-19.93-7.32-22.06-6.7-2.14.63-3.96,3.76-3.96,3.76,0,0-.3-9.07-3.65-11.27-3.34-2.19-22.83-9.07-22.83-9.07l-4.56,3.12c.12-.23,1.73-3.19-.61-5-2.36-1.82-27.8-13.89-44.06-12.97-.55.02-1.09.07-1.61.13l-6.76,3.18-.24.11c.07-.04.16-.08.26-.13,1.2-.64,3.76-2.22,2.45-3.51-.46-.46-1.39-.88-3.01-1.22-2.39-.49-5.97-.76-9.86-.88,0-.02,0-.03,0-.05-.37,0-.74.01-1.1.02-.37,0-.73-.02-1.1-.02,0,.02,0,.03,0,.05-3.89.12-7.46.39-9.86.88-1.63.34-2.56.76-3.01,1.22-1.32,1.3,1.25,2.87,2.45,3.51.09.05.18.09.26.13l-.24-.11-6.76-3.18c-.52-.07-1.06-.11-1.61-.13-16.26-.92-41.71,11.15-44.06,12.97-2.34,1.8-.73,4.77-.61,5l-4.56-3.12s-19.49,6.88-22.83,9.07c-3.35,2.2-4.87,7.42-4.87,7.42,0,0-5.94,1.97-8.08,1.34-2.13-.62-13.19,4.59-17.76,10.53-2.92,3.81-1.87,7.41-3.32,10.76h0c-.82,1.89-1.29,3.14-1.29,3.14l-11.44,3.46c-9.17,4-6.88,21.12-6.88,21.12-18.03,20.06-18.93,37.14-10.84,55.54,3.12,7.09-4.88,8.34-3.69,21.28,1.31,14.23,23.52,47.33,23.52,47.33,0,0,3.54-30.13,4.15-37.58.61-7.46-1.19-29.21-1.19-29.21l-.17-5.83s10.79-1.54,15.91-9.98c5.13-8.45,4.63-18.57,4.63-18.57l-2.74-9.08,13.64.85c13.17-2.05,13.91-14.99,13.91-14.99l-2.28-21.54,7.91,7.23s3.05,3.42,7.61,3.1c20.43-1.4,22.84-12.93,22.84-12.93l2.74-10.85,5.18,3.13c5.48,4.08,13.52,6.4,22.67,6.21.09,0,.18,0,.27,0,7.43-.26,13.53-5.95,15.42-13.14,2.14-8.14,6.37-22.04,6.49-24.71.1,2.32,3.95,12.65,6.62,20.44,2.12,6.18,6.02,11.64,11.37,15.37.87.61,1.61,1.07,2.11,1.26,8.53,3.32,18.44-1.35,23.92-5.42l5.18-3.13,1.65,10.16s-1.35,11.64,19.08,13.04c4.57.32,10.62-1.98,10.62-1.98l9.75-7.77-1.92,18.17s-1.93,17.37,14.85,18.73l12.35-1.22-2.74,9.08s-1.01,12.91,4.12,21.36c5.12,8.44,9.27,12.13,9.27,12.13l5.65,2.67s-.47,19.97.14,27.43c.6,7.46,5.8,40.37,5.8,40.37,0,0,14.93-29.1,19.33-42.7,6.06-18.72-11.33-24.47-3.75-34.43,8.19-10.76.84-46.86-14.92-48.97Z"/>
  <path class="cls-9" d="M382.44,873.72c-5.42-4.41-10.16-9.63-13.95-15.51s-6.45-11.74-8.84-17.99c-1.23-3.21-2.34-6.46-3.41-9.73-1.27-3.89-1.58-8.24-1.97-12.3-.83-8.58-.79-17.24.16-25.81.47-4.23,1.12-8.46,2.03-12.62s2.05-8.07,3.12-12.09c1.95-7.32,3.97-14.62,5.96-21.92,3.89-14.29,7.51-28.65,10.21-43.22,1.43-7.7,3.01-15.46,2.49-23.33s-2.68-15.09-6.25-21.84c-.89-1.69-1.88-3.32-2.93-4.92s-6.49.49-5.8,1.55c4.24,6.44,7.23,13.67,8.53,21.29.63,3.69.87,7.45.71,11.2-.17,4-.94,7.97-1.62,11.91-2.56,14.87-6.07,29.53-9.98,44.09-1.95,7.26-3.97,14.49-5.92,21.75-2.16,8.02-4.47,16.02-5.69,24.26s-1.67,17-1.24,25.51c.22,4.25.65,8.49,1.28,12.69.31,2.03.65,3.98,1.29,5.93.53,1.61,1.07,3.22,1.63,4.82,4.51,12.85,10.62,25.22,20.58,34.74,1.34,1.28,2.74,2.5,4.18,3.67.94.77,2.78.25,3.78-.15.47-.18,2.57-1.22,1.64-1.97h0Z"/>
  <g>
    <path class="cls-17" d="M491.65,483s5.96,61.71,86.73,58.73c92.98-3.43,91.88-61.71,91.88-61.71l24.71,5.96s-13.54,80.4-117.12,79.36c-103.58-1.04-107.98-76.1-107.98-76.1l21.78-6.24Z"/>
    <path class="cls-9" d="M488.75,483.78c.22,2.25.76,4.5,1.34,6.69,1.49,5.59,3.74,10.97,6.55,16.02,3.91,7.02,9.07,13.21,15.17,18.43,7.88,6.73,17.33,11.48,27.23,14.46,13.98,4.2,28.7,4.95,43.2,4.13,14.38-.81,28.87-3.03,42.47-7.89,9.75-3.49,19.12-8.29,27.05-15.02,5.83-4.95,10.85-10.8,14.57-17.49,2.62-4.71,4.59-9.82,5.78-15.08.57-2.54,1.11-5.27,1.06-7.89,0-.12,0-.24,0-.36l-4.63,2.1c7.2,1.74,14.4,3.47,21.6,5.21,1.04.25,2.08.5,3.12.75l-1.22-1.56c-.44,2.62-1.22,5.21-2.04,7.74-.09.29-.19.58-.29.87-.05.15-.1.3-.15.45-.2.6.13-.36-.05.16-.24.69-.49,1.37-.74,2.05-.55,1.48-1.15,2.95-1.77,4.4-1.52,3.54-3.25,6.99-5.17,10.33-1.06,1.85-2.18,3.67-3.36,5.45-.64.96-1.29,1.92-1.96,2.86-.07.1-.64.88-.3.42-.15.2-.3.41-.45.61-.38.51-.76,1.02-1.15,1.52-3.11,4.04-6.54,7.83-10.24,11.34-1.01.95-2.03,1.88-3.08,2.79-.54.47.26-.22-.08.07-.14.12-.28.24-.43.36-.23.19-.46.39-.69.58-.58.48-1.17.96-1.76,1.43-2.33,1.85-4.75,3.59-7.24,5.23-1.27.83-2.55,1.63-3.85,2.41-.32.19-.65.38-.97.57-.48.28-.11.06-.01,0-.18.1-.37.21-.55.31-.74.42-1.49.82-2.24,1.22-2.93,1.55-5.94,2.97-9.01,4.25-1.63.68-3.28,1.32-4.94,1.93-.57.21-.17.06-.05.02-.22.08-.45.16-.67.24-.41.14-.82.28-1.22.42-.92.31-1.85.61-2.78.9-3.65,1.13-7.34,2.1-11.07,2.91-4.03.87-7.47,1.45-11.72,1.99-4.49.57-9,.94-13.52,1.14-17.48.78-35.38-.64-52.19-5.49-12.33-3.55-23.87-8.96-34.02-16.98-2.2-1.74-3.82-3.15-5.86-5.12-1.8-1.74-3.52-3.56-5.15-5.45-2.98-3.46-5.67-7.18-8.02-11.1-.54-.9-1.07-1.82-1.58-2.74-.23-.43-.46-.85-.69-1.28-.1-.19-.2-.38-.3-.57.21.41-.18-.35-.23-.46-.84-1.68-1.62-3.39-2.34-5.12-1.24-2.99-2.31-6.05-3.19-9.17-.98-3.5-1.79-7.11-2.12-10.75-.02-.17-.03-.34-.04-.51l-2.41,2.59c6.36-1.82,12.71-3.64,19.07-5.47.9-.26,1.81-.52,2.71-.78,1.04-.3,2.77-1.24,2.41-2.59s-2.37-1.33-3.38-1.04c-6.36,1.82-12.71,3.64-19.07,5.47-.9.26-1.81.52-2.71.78-1.25.36-2.5,1.17-2.41,2.59.15,2.61.69,5.22,1.27,7.76,1.48,6.44,3.81,12.68,6.82,18.56,4.31,8.45,10.01,16.11,16.94,22.6,9.15,8.57,20.03,14.95,31.72,19.39,15.93,6.05,33.11,8.5,50.08,8.91s35.7-1.28,52.68-6.67c12.83-4.08,25.06-10.18,35.63-18.56,8.41-6.67,15.71-14.6,21.66-23.53,4.29-6.43,7.85-13.36,10.55-20.6,1.41-3.79,2.69-7.69,3.48-11.66.03-.17.07-.34.1-.52.13-.76-.52-1.4-1.22-1.56-7.2-1.74-14.4-3.47-21.6-5.21-1.04-.25-2.08-.5-3.12-.75s-2.01-.15-2.94.29c-.62.29-1.7.99-1.68,1.81.03,1.78-.22,3.6-.5,5.36-.32,1.96-.76,3.9-1.31,5.81-.17.58-.34,1.15-.52,1.72-.09.29-.19.57-.29.86.21-.61-.12.33-.2.54-.47,1.29-.99,2.56-1.55,3.81-1.26,2.79-2.75,5.48-4.45,8.04-.23.34-.46.68-.69,1.02-.11.16-.22.32-.33.48-.06.09-.13.18-.19.27-.26.36.18-.25,0-.01-.53.72-1.07,1.42-1.63,2.12-1.16,1.44-2.39,2.83-3.68,4.16-.69.71-1.4,1.41-2.12,2.09-.34.32-.68.63-1.02.94-.2.18-.4.36-.6.53-.1.09-.2.18-.3.27.15-.13.28-.24.05-.04-1.67,1.41-3.4,2.75-5.2,4.01-.92.64-1.86,1.27-2.8,1.87-.49.31-.98.61-1.48.91-.23.14-.47.28-.71.42-.14.08-.27.16-.41.24-.66.39.31-.17-.08.05-2.21,1.25-4.47,2.4-6.78,3.45-1.25.57-2.52,1.11-3.79,1.63-.64.26-1.28.51-1.92.75-.3.12-.61.23-.92.34-.18.07-.35.13-.53.19-.32.12.36-.12-.18.06-2.87.99-5.76,1.9-8.7,2.68-6.88,1.83-13.25,2.96-20.29,3.77-14.54,1.69-29.79,2.01-44.03-.96-10.55-2.2-20.31-6-29.09-12.21-6.53-4.62-12.19-10.49-16.7-17.41-.94-1.45-1.83-2.93-2.66-4.45-.19-.36-.39-.71-.58-1.07-.09-.17-.17-.33-.26-.5.22.42-.11-.23-.16-.32-.35-.71-.7-1.43-1.02-2.15-1.14-2.5-2.13-5.06-2.96-7.68-.97-3.04-1.59-6.09-2.16-9.22-.03-.14-.04-.29-.05-.43-.13-1.37-2.5-1.27-3.38-1.04-1.22.33-2.55,1.19-2.41,2.59Z"/>
  </g>
  <g>
    <path class="cls-2" d="M553.25,854.79c-13.29-2.22-24.53-8.75-34.9-16.69-31.37-24.03-45.17-56.18-42.34-95.31,2.29-31.73,21.87-55.12,50.91-62.13,34.45-8.31,69.09,15.17,73.38,49.95.66,5.33,1.84,12.05-4.91,14.28-6.63,2.19-10.17-2.64-13.3-8.13-8.4-14.74-21.69-20.77-38.28-19.37-15.86,1.34-27.22,9.6-33.14,24.36-10.76,26.84-6.79,52.26,8.49,76.28,7.86,12.36,17.86,22.86,28.98,32.33,1.72,1.47,3.42,2.96,5.13,4.45Z"/>
    <path class="cls-15" d="M567.07,859.33c9.54-2.15,19.22-3.78,28.58-6.54,21.89-6.46,41.76-16.27,53.7-37.12,7.33-12.81,10.41-26.62,6.49-41.19-4.08-15.17-20.7-24.93-36.22-21.82-2.71.54-5.42,1.33-8.15,1.38-3.49.07-7.03-.47-8.79-4.22-1.81-3.84-.71-7.21,2.07-10.09,12.34-12.78,27.32-16.67,44.23-12.09,42.11,11.4,46.83,55.08,31.47,80.78-18.4,30.8-47.19,45.28-81.68,50.32-10.53,1.54-21.06,1.35-31.7.59Z"/>
    <path class="cls-2" d="M598.46,648.09c11.49.14,21,9.79,20.96,21.25-.04,11.72-10.11,21.5-21.73,21.13-11.43-.36-20.91-10.24-20.67-21.57.23-11.28,10.21-20.97,21.45-20.82Z"/>
    <path class="cls-15" d="M641.83,706.46c-.03-8.38,6.33-15.03,14.57-15.24,8.07-.21,14.93,6.51,15.09,14.77.16,8.7-6.53,15.66-14.96,15.58-8.24-.09-14.66-6.69-14.69-15.1Z"/>
  </g>
  <ellipse class="cls-17" cx="1042.31" cy="230.08" rx="216.42" ry="176.42"/>
  <polygon class="cls-17" points="867.72 269.05 778.45 374.41 914.83 350.22 867.72 269.05"/>
  <path class="cls-20" d="M1015.54,191.71c7.98-8.54,14.33-15.29,14.27-24.28.09-11.93-5.14-23.28-14.27-30.97-12.31-10.57-33.72-15.29-56.54,2.3-5.4-6.55-13.38-10.42-21.86-10.62-16.1.37-30.14,11.01-34.84,26.41-4.96,13.48-2.11,28.59,7.42,39.34,8.26,9.1,17.25,17.82,26.02,26.25l6.91,6.58c2.7,2.53,5.28,5.17,7.87,7.81s5.62,5.62,8.37,8.26c1.69,1.77,4.02,2.8,6.46,2.87.62.05,1.24.05,1.85,0,2.75-.72,4.9-2.87,5.62-5.62.95-3.24-.16-6.73-2.81-8.82l-3.37-3.32-9.61-9.61c-.35-.28-.59-.68-.67-1.12,0,0,0-.28.51-.56h0c.35.26.66.59.9.96,3.37,3.71,7.02,7.25,10.51,10.68l2.25,2.08c3.29,3.72,8.97,4.06,12.69.77.16-.14.31-.28.46-.43,1.39-1.32,2.22-3.14,2.3-5.06-.1-2.79-1.34-5.41-3.43-7.25-2.42-2.47-4.83-4.95-7.31-7.36l-4.38-4.38-.39-.39c-.57-.5-1.07-1.09-1.46-1.74l.51-.56c.51-.56.51-.39.56-.39h0c.39,0,1.29,1.18,1.63,1.57v.45c2.35,2.75,4.87,5.36,7.53,7.81,1.29,1.24,2.59,2.42,3.82,3.71,3.15,3.8,8.79,4.32,12.58,1.17.04-.03.08-.07.12-.1,1.52-1.36,2.42-3.29,2.47-5.34-.11-2.77-1.32-5.38-3.37-7.25l-3.71-3.65c-2.14-2.08-4.33-4.21-6.35-6.46-.48-.51-1.01-.98-1.57-1.4-.56-.45-1.69-1.4-1.74-1.8s0,0,.28-.51.79-.39.79-.39h0c.84,0,2.42,1.63,3.37,2.59h0c4.05,4.21,7.81,7.92,11.24,11.24,2.82,3.39,7.85,3.85,11.24,1.03,2.7-2.25,3.61-6,2.25-9.24h0l4.89-5.23ZM1005.65,202.95c-1.45,1.44-3.78,1.44-5.23,0-3.65-3.43-7.36-7.14-11.24-11.24h0c-1.45-2.37-3.88-3.98-6.63-4.38h0c-1.41.02-2.75.66-3.65,1.74-.9.89-1.39,2.11-1.35,3.37.4,1.91,1.56,3.57,3.2,4.61.42.33.81.69,1.18,1.07,2.08,2.3,4.33,4.5,6.52,6.63,1.18,1.18,2.42,2.36,3.6,3.6,1.31,1.11,2.14,2.68,2.3,4.38-.08.97-.52,1.87-1.24,2.53-2.25,1.71-5.46,1.27-7.17-.98,0-.01-.02-.02-.03-.04l-3.88-3.77c-2.55-2.34-4.96-4.83-7.19-7.47l-.11-.45c-.96-1.61-2.55-2.73-4.38-3.09-1.35-.1-2.67.42-3.6,1.4-1.05.84-1.68,2.09-1.74,3.43.17,1.83,1.11,3.51,2.59,4.61l.39.39,4.38,4.38c2.47,2.42,4.89,4.83,7.31,7.31,1.28,1.06,2.1,2.57,2.3,4.21-.02.88-.44,1.7-1.12,2.25-1.93,1.98-5.09,2.02-7.07.09-.12-.12-.24-.24-.35-.37l-2.14-2.14c-3.43-3.37-7.02-6.86-10.28-10.45-1.24-2.08-3.93-2.76-6.01-1.53-.2.12-.39.25-.57.4-1.13.79-1.85,2.05-1.97,3.43-.04,1.57.62,3.07,1.8,4.1l9.55,9.67,3.32,3.32c1.91,1.91,2.42,3.15,1.85,4.78-.32,1.38-1.38,2.47-2.75,2.81-1.71.34-3.47-.26-4.61-1.57-2.81-2.7-5.62-5.62-8.32-8.26s-5.23-5.28-7.87-7.87l-6.97-6.74c-8.71-8.37-17.76-17.03-25.85-25.8-8.66-9.7-11.19-23.42-6.58-35.57,4.18-13.45,16.28-22.89,30.35-23.66h.62c7.33.2,14.21,3.56,18.88,9.22l-4.38,3.71c-4.44,3.77-9.05,7.64-13.71,11.24-5.63,4.57-6.96,12.63-3.09,18.77,4.16,6.33,12.66,8.09,18.99,3.94.47-.31.93-.65,1.36-1.01,5.62-4.16,12.14-9.05,18.55-14.16q1.63-1.35,2.87,0l6.97,7.87c6.74,7.64,13.71,15.57,21.13,22.87.89.86,1.6,1.89,2.08,3.03,1.02,1.68.58,3.85-1.01,5v.39ZM1008.68,193.39l-1.35-1.52c-7.31-7.14-14.22-15.01-20.91-22.48l-6.97-8.21c-1-1.37-2.53-2.25-4.21-2.42-1.55.14-3,.82-4.1,1.91-6.35,5.06-12.87,9.95-18.43,14.05-4.02,3.6-10.21,3.26-13.81-.76-.38-.43-.73-.89-1.03-1.37-2.54-4.39-1.54-9.97,2.36-13.21,4.72-3.65,9.39-7.59,13.83-11.24l6.01-5.11c21.69-17.48,41.53-13.54,52.88-3.6,8.28,6.97,13,17.28,12.87,28.1,0,7.36-5.62,13.6-13.21,21.47l-3.93,4.38Z"/>
  <path class="cls-5" d="M1044.97,317.27c-25.88,0-30.84-13.39-31.59-16.05-.36-1.34.44-2.71,1.78-3.07.06-.02.12-.03.18-.04,1.34-.35,2.72.42,3.11,1.76.55,2.06,4.51,12.39,26.28,12.39s26.18-10.33,26.78-12.39c.37-1.38,1.8-2.2,3.18-1.83s2.2,1.8,1.83,3.18c-1,2.66-6.02,16.05-31.54,16.05Z"/>
  <path class="cls-5" d="M1044.77,350.37c-30.83,0-55.81-24.99-55.81-55.81s24.99-55.81,55.81-55.81,55.81,24.99,55.81,55.81c-.03,30.81-25,55.79-55.81,55.81ZM1044.77,243.95c-27.97.08-50.58,22.83-50.5,50.8.08,27.97,22.83,50.58,50.8,50.5,27.93-.08,50.53-22.77,50.5-50.7-.03-28-22.75-50.68-50.75-50.65-.02,0-.03,0-.05,0v.05Z"/>
  <path class="cls-5" d="M1028.78,286.48c-4.74.41-9.12-2.56-10.48-7.12-.27-1.36.62-2.68,1.98-2.94.03,0,.05-.01.08-.01,1.32-.3,2.64.53,2.94,1.86,0,.03.01.07.02.1,0,.3.9,3.11,5.57,3.11h0c4.41,0,5.32-2.86,5.42-3.16.32-1.32,1.64-2.13,2.96-1.82.02,0,.03,0,.05.01,1.32.3,2.16,1.61,1.86,2.93,0,0,0,.02,0,.02-1.38,4.44-5.64,7.35-10.28,7.02h-.1Z"/>
  <path class="cls-5" d="M1060.87,286.48c-4.72.39-9.07-2.58-10.43-7.12-.28-1.36.6-2.68,1.95-2.96,0,0,0,0,0,0,1.35-.25,2.66.61,2.96,1.96,0,.3.9,3.11,5.52,3.11h0c4.41,0,5.32-2.86,5.42-3.16.32-1.32,1.64-2.13,2.96-1.82.02,0,.03,0,.05.01,1.32.3,2.16,1.61,1.86,2.93,0,0,0,.02,0,.02-1.38,4.44-5.64,7.35-10.28,7.02Z"/>
  <path class="cls-6" d="M1177.66,138.29c-12.73-.66-25.49-.29-38.15,1.13-6.36,1.87-11.83,5.69-15.53,10.83-3.69-5.14-9.17-8.96-15.53-10.83-12.67-1.41-25.46-1.79-38.2-1.13-3.16.33-5.49,2.9-5.3,5.83v80.45c-.18,3.26,2.52,6.04,6.04,6.23h33.17s14.25-1.03,16.85,8.24l.42,1.18c.05.47.21.92.48,1.32h0c.62,1.14,2.11,1.6,3.34,1.03.82-.38,1.35-1.15,1.37-2.01h0v-1.52c2.6-9.36,16.74-8.33,17.11-8.28h33.38c3.42-.29,5.98-3.01,5.83-6.18v-80.45c.19-2.94-2.14-5.5-5.3-5.83ZM1105.91,226h-35.61c-.35,0-.64-.26-.64-.59,0-.02,0-.03,0-.05v-82.41c12.57-.62,25.17-.28,37.67,1.03,5.96,2.05,10.96,5.95,14.15,11.03v75.69c-4.47-3.15-9.96-4.81-15.58-4.71ZM1178.13,225.26c0,.31-.25.56-.58.59h-33.49c-6.4-.42-12.74,1.32-17.86,4.9v-75.4c3.23-5.17,8.31-9.12,14.36-11.18,12.43-1.31,24.97-1.65,37.46-1.03.05.08.05.17,0,.25l.11,81.87Z"/>
</svg>