<?xml version="1.0" encoding="UTF-8"?>
<svg id="Layer_1" data-name="Layer 1" xmlns="http://www.w3.org/2000/svg" viewBox="0 0 82.2 82.2">
  <defs>
    <style>
      .cls-1 {
        fill: #010101;
      }

      .cls-1, .cls-2 {
        stroke-width: 0px;
      }

      .cls-2 {
        fill: #fcbd1c;
      }
    </style>
  </defs>
  <path class="cls-2" d="M54.16,79.18c20.7-7.4,31.51-30.28,24.15-51.09C70.95,7.27,48.21-3.6,27.51,3.8,6.82,11.2-4,34.07,3.36,54.89c7.36,20.82,30.1,31.69,50.8,24.29Z"/>
  <path class="cls-1" d="M15.27,33.51c-.57-.28-1.32.05-1.32.58,0,2.06,3.25,3.81,7.26,3.81s7.26-1.83,7.26-3.81c0-.54-.75-.87-1.32-.58-1.85.9-3.88,1.37-5.94,1.37s-4.09-.47-5.94-1.37h0Z"/>
  <path class="cls-1" d="M67.08,28.12h-.23c-2.22-.4-4.34-1.24-6.23-2.49-1.89-1.25-3.5-2.87-4.74-4.76-.2-.33-.26-.72-.17-1.1.09-.37.32-.7.65-.9.33-.2.72-.26,1.09-.17.37.09.69.33.89.66,1.03,1.53,2.35,2.83,3.89,3.84,1.54,1.01,3.26,1.7,5.06,2.04.37.04.72.22.96.51.24.29.36.66.33,1.04s-.2.73-.49.98c-.28.25-.65.38-1.03.36v-.02Z"/>
  <path class="cls-1" d="M15.12,28.12c-.38.02-.74-.11-1.03-.36-.28-.25-.46-.6-.49-.98s.09-.75.33-1.04c.24-.29.59-.47.96-.51,1.81-.34,3.53-1.03,5.06-2.04,1.54-1.01,2.86-2.32,3.89-3.84.2-.33.52-.57.9-.66.38-.09.77-.03,1.1.17.33.2.57.53.66.91.09.38.03.78-.17,1.11-1.25,1.9-2.87,3.52-4.76,4.77s-4.01,2.09-6.24,2.49h-.23Z"/>
  <path class="cls-1" d="M66.91,34.03c.57-.29,1.32,0,1.32.58,0,2.06-3.25,3.81-7.26,3.81s-7.26-1.83-7.26-3.81c0-.55.74-.91,1.32-.58,1.85.9,3.88,1.37,5.94,1.37s4.09-.47,5.94-1.37Z"/>
  <path class="cls-1" d="M60.83,59.01c.27,0,.53-.07.77-.19.24-.12.44-.3.6-.51.16-.22.26-.47.31-.73s.03-.54-.05-.79c-2.03-7.46-10.83-13.07-21.39-13.07s-19.47,5.69-21.43,13.22c-.06.25-.06.51,0,.76.06.25.17.49.33.69.16.2.37.36.6.47.23.11.49.16.74.16h39.51Z"/>
</svg>