<?xml version="1.0" encoding="UTF-8"?>
<svg id="Layer_1" data-name="Layer 1" xmlns="http://www.w3.org/2000/svg" viewBox="0 0 82.2 82.2">
  <defs>
    <style>
      .cls-1 {
        fill: #cc342f;
      }

      .cls-1, .cls-2, .cls-3, .cls-4 {
        stroke-width: 0px;
      }

      .cls-2 {
        fill: #010101;
      }

      .cls-3 {
        fill: #fcbd1c;
      }

      .cls-4 {
        fill: #fff;
      }
    </style>
  </defs>
  <path class="cls-3" d="M54.16,79.18c20.7-7.4,31.51-30.28,24.15-51.09C70.95,7.27,48.21-3.6,27.51,3.8,6.82,11.2-4,34.07,3.36,54.89c7.36,20.82,30.1,31.69,50.8,24.29Z"/>
  <path class="cls-4" d="M41.75,47.5c-2.86,0-5.42,1.22-7.18,3.15h14.37c-1.77-1.93-4.32-3.15-7.18-3.15Z"/>
  <path class="cls-2" d="M47.56,64.49c2.32-1.73,3.83-4.45,3.83-7.53,0-2.43-.94-4.63-2.46-6.3h-14.37c-1.52,1.67-2.46,3.87-2.46,6.3,0,3.08,1.51,5.81,3.83,7.53,1.67-.96,3.67-1.52,5.81-1.52s4.14.56,5.81,1.52Z"/>
  <path class="cls-1" d="M47.56,64.49c-1.67-.96-3.67-1.52-5.81-1.52s-4.15.56-5.81,1.52c1.62,1.2,3.63,1.92,5.81,1.92s4.19-.72,5.81-1.92Z"/>
  <path class="cls-2" d="M17.09,25.86c-.34,0-.69-.14-.93-.43-.44-.51-.38-1.28.13-1.73,2.8-2.4,6.37-3.91,10.06-4.24.67-.05,1.26.43,1.32,1.1s-.43,1.26-1.11,1.33c-3.17.29-6.26,1.59-8.68,3.66-.23.19-.51.29-.79.29h.01Z"/>
  <path class="cls-2" d="M64.57,25.86c-.28,0-.56-.1-.79-.29-2.43-2.08-5.51-3.37-8.68-3.66-.67-.06-1.16-.65-1.1-1.33s.66-1.16,1.34-1.1c3.67.33,7.25,1.84,10.06,4.24.51.44.57,1.21.13,1.73-.24.28-.58.43-.93.43h-.01Z"/>
  <path class="cls-4" d="M65.23,35.24c0,4.53-3.54,8.2-7.92,8.2s-7.92-3.67-7.92-8.2,3.54-8.2,7.92-8.2,7.92,3.67,7.92,8.2Z"/>
  <path class="cls-2" d="M60.69,35.24c0,1.93-1.52,3.5-3.38,3.5s-3.39-1.57-3.39-3.5,1.52-3.5,3.39-3.5,3.38,1.57,3.38,3.5Z"/>
  <path class="cls-4" d="M33.27,35.24c0,4.53-3.54,8.2-7.92,8.2s-7.92-3.67-7.92-8.2,3.54-8.2,7.92-8.2,7.92,3.67,7.92,8.2Z"/>
  <ellipse class="cls-2" cx="25.35" cy="35.24" rx="3.38" ry="3.5"/>
</svg>