<?xml version="1.0" encoding="UTF-8"?>
<svg id="Layer_1" data-name="Layer 1" xmlns="http://www.w3.org/2000/svg" viewBox="0 0 82.2 82.2">
  <defs>
    <style>
      .cls-1 {
        fill: #000;
      }

      .cls-1, .cls-2, .cls-3 {
        stroke-width: 0px;
      }

      .cls-2 {
        fill: #010101;
      }

      .cls-3 {
        fill: #fcbd1c;
      }
    </style>
  </defs>
  <path class="cls-3" d="M54.16,79.18c20.7-7.4,31.51-30.28,24.15-51.09C70.95,7.27,48.21-3.6,27.51,3.8,6.82,11.2-4,34.07,3.36,54.89c7.36,20.82,30.1,31.69,50.8,24.29Z"/>
  <path class="cls-1" d="M59.17,19.48v.98h-4.84v-.98h4.84ZM59.68,20.18l-4.32,5.38h-1.03v-.72l4.35-5.36h1v.7ZM59.75,24.58v.98h-5.04v-.98h5.04Z"/>
  <path class="cls-1" d="M68.21,10.14v1.18h-5.81v-1.18h5.81ZM68.82,10.98l-5.18,6.45h-1.24v-.86l5.22-6.43h1.2v.84ZM68.9,16.26v1.17h-6.05v-1.17h6.05Z"/>
  <path class="cls-1" d="M79.29,1.74v1.57h-7.74v-1.57h7.74ZM80.1,2.85l-6.91,8.6h-1.65v-1.15l6.96-8.57h1.59v1.11ZM80.21,9.89v1.56h-8.06v-1.56h8.06Z"/>
  <path class="cls-2" d="M15.34,34.52c-.57-.28-1.32.05-1.32.58,0,2.06,3.25,3.81,7.26,3.81s7.26-1.83,7.26-3.81c0-.54-.75-.87-1.32-.58-1.85.9-3.88,1.37-5.94,1.37s-4.09-.47-5.94-1.37h0Z"/>
  <path class="cls-2" d="M66.99,35.04c.57-.29,1.32,0,1.32.58,0,2.06-3.25,3.81-7.26,3.81s-7.26-1.83-7.26-3.81c0-.55.74-.91,1.32-.58,1.85.9,3.88,1.37,5.94,1.37s4.09-.47,5.94-1.37Z"/>
  <path class="cls-2" d="M41.76,64.6c-3.6,0-6.53-2.92-6.53-6.54v-3.83c0-3.6,2.92-6.54,6.53-6.54s6.54,2.92,6.54,6.54v3.83c0,3.6-2.92,6.54-6.54,6.54Z"/>
</svg>