<?xml version="1.0" encoding="UTF-8"?>
<svg id="Layer_1" data-name="Layer 1" xmlns="http://www.w3.org/2000/svg" version="1.1" viewBox="0 0 1334 1000">
  <defs>
    <style>
      .cls-1 {
        fill: #de8b26;
      }

      .cls-1, .cls-2, .cls-3, .cls-4, .cls-5, .cls-6, .cls-7, .cls-8, .cls-9, .cls-10, .cls-11, .cls-12, .cls-13, .cls-14, .cls-15, .cls-16, .cls-17, .cls-18, .cls-19, .cls-20, .cls-21, .cls-22, .cls-23, .cls-24, .cls-25, .cls-26, .cls-27, .cls-28 {
        stroke-width: 0px;
      }

      .cls-2 {
        fill: #af6b4e;
      }

      .cls-3 {
        fill: #6b3825;
      }

      .cls-4 {
        fill: #31150d;
      }

      .cls-5 {
        fill: #ea2313;
      }

      .cls-6 {
        fill: #ffa900;
      }

      .cls-29 {
        stroke: #181413;
        stroke-miterlimit: 10;
        stroke-width: .2px;
      }

      .cls-29, .cls-12 {
        fill: #000;
      }

      .cls-7 {
        fill: #123a43;
      }

      .cls-8 {
        fill: #f0edf6;
      }

      .cls-9 {
        fill: #ad6c4f;
      }

      .cls-10 {
        fill: #ac6c50;
      }

      .cls-11 {
        fill: #542c23;
      }

      .cls-13 {
        fill: #005570;
      }

      .cls-14 {
        fill: #432519;
      }

      .cls-15 {
        fill: #b05e27;
      }

      .cls-16 {
        fill: #1d1312;
      }

      .cls-17 {
        fill: #221e1f;
      }

      .cls-18 {
        fill: #efeaf5;
      }

      .cls-19 {
        fill: #ace0ef;
      }

      .cls-20 {
        fill: #003045;
      }

      .cls-21 {
        fill: #141211;
      }

      .cls-22 {
        fill: #b82d24;
      }

      .cls-30 {
        isolation: isolate;
      }

      .cls-23 {
        fill: #6f1303;
      }

      .cls-24 {
        fill: #999074;
      }

      .cls-25 {
        fill: #a3a3a3;
      }

      .cls-26 {
        fill: #fff;
      }

      .cls-27 {
        fill: #d78700;
      }

      .cls-28 {
        fill: #4f2e25;
      }
    </style>
  </defs>
  <rect class="cls-19" x="-34.4" y="-40" width="1405.6" height="1093.4" rx="12" ry="12"/>
  <path class="cls-2" d="M941.2,455.3c-6,2.3-53.4,2.4-66.7,50.1-13.2,47.8-20.9,185-27.5,227.1-8.4,49.1-12.4,126.9-18.6,190.2v100.3l44.8.2s35.7-264,58.9-330.7,9.2-237.1,9.2-237.1h-.1Z"/>
  <path class="cls-22" d="M888.8,773.8s1.4-29.8-4.9-52.2-23.1-33.9-22.5-56.2c.5-22.3,8.9-59.2,8.9-59.2l44.7,19.7,15,64.1-41.3,83.8h0Z"/>
  <g>
    <path class="cls-12" d="M244,415.3c-3.3-8.1-18.5-11-21.2-19.4-.6-2,.9-3.9,2.6-4.2-1.3-3-3.1-6.6-5.2-9.5-4.5-6-17.1-9.7-17.1-9.7,0,0,1.3-13.9-4.6-15.1-5.9-1.2-18.4.6-18.4.6,0,0-10.4-7.9-19.9,1.1,0,0-9.5.5-10.7,13.2-.3,2.8-.2,6.1.5,10.1,0,0-4.6.4-11,8.6-2.7,3.5-5.2,14.8-2.3,23.9v2.1c3.7,12,9.8,19.1,19.7,19.5,0,.1,7.6,23.7,30.7,20.8,20-2.5,25.1-13,25.1-13,0,0,9.5,4.4,14.2,2.8,5-1.7,8.5-6,10.4-11.1-1.7-5,8.9-15.4,7.2-20.5h0v-.2Z"/>
    <path class="cls-12" d="M244.2,415.3c-2.1-4.8-7.4-7.5-11.7-10.1-2.4-1.5-4.8-3-6.8-5s-5-7.1-.2-8.3c0,0,.2,0,.2-.2-1.6-3.7-3.4-7.6-6.1-10.6-2.1-2.2-4.9-3.9-7.6-5.2-2.3-1.1-4.7-2.1-7.1-2.9-.3-.1-1.3-.2-1.5-.5.1.1.1-.7.1-.9.1-2,0-4.1-.2-6.1-.3-2.2-.7-4.8-2.2-6.6-1.5-1.8-4.1-1.8-6.3-1.9-3.2-.1-6.5.1-9.7.4-1.2.1-2.4.2-3.5.4-.3,0-.7,0-1,.1-.1,0-.5,0-.3,0-.4-.1-.8-.6-1.2-.8-.9-.5-1.9-1-2.8-1.3-2.7-1-5.7-1.4-8.5-.9-1.7.3-3.2,1-4.7,1.8-.8.5-1.6,1-2.3,1.6-.3.3-.4.5-.7.5-1,.4-2.1.4-3.1.9-1.8.8-3.4,2.1-4.6,3.7-1.9,2.6-2.8,5.7-3.1,8.9-.2,1.9-.1,3.8,0,5.7,0,1.1.1,2.3.4,3.3.1.5.4.6.2.8-.2.2-1.1.3-1.4.4-.9.4-1.8.8-2.6,1.4-2.8,1.9-5.5,4.5-7.4,7.4-1.7,2.6-2.4,5.9-2.9,8.8-.6,4-.6,8.2.2,12.2.2.9.6,1.8.6,2.6s-.1,1.1,0,1.6c.1,1.6,1.1,3.4,1.7,4.8,1.3,3.1,3,6.1,5.2,8.6,1.9,2.1,4.2,3.9,6.9,5,1.4.5,2.8.9,4.3,1.1.6,0,1.5-.1,1.8.3.5.6.7,1.9,1.1,2.6.7,1.5,1.5,3,2.4,4.4,2.5,4,5.8,7.6,9.8,10.1,5,3.1,10.9,4.2,16.8,3.6,6.7-.7,13.5-2.6,19.1-6.3,1.7-1.1,3.2-2.4,4.6-3.8.7-.8,1.6-1.7,2-2.6.2-.6.2-.1,0-.3.5.3,1,.5,1.5.6,2.6,1,5.4,1.9,8.2,2.3,3.1.4,5.7-.2,8.3-2,3-2.1,5.2-5.2,6.6-8.5.3-.7.4-.8.2-1.5-.1-.6,0-1.2,0-1.8.3-1.4.9-2.6,1.5-3.9,1.4-2.7,3.1-5.3,4.4-8,.9-1.8,2-4.1,1.4-6.2,0-.1-.4,0-.4.1.8,2.8-1.4,6.2-2.7,8.5-1.6,2.8-3.6,5.6-4.4,8.8-.2.6-.3,1.2-.3,1.9s.2,1.2,0,1.9c-.8,2.2-2.2,4.3-3.8,6.1-1.6,1.8-3.6,3.3-5.9,4.1-1.9.7-4,.5-6,.1-2.9-.6-5.7-1.5-8.4-2.8h-.3c-1,2-2.8,3.7-4.5,5.1-5.2,4.2-11.9,6.5-18.5,7.5s-13.2.4-19-3.2c-4.1-2.5-7.4-6.2-10-10.3-1.4-2.2-2.6-4.5-3.4-7h-.1c-4.7-.2-9-2.1-12.3-5.6-1.6-1.7-2.9-3.6-4-5.7-.7-1.2-1.3-2.5-1.8-3.8s-1.2-2.8-1.5-4.1c-.1-.7,0-1.4,0-2.1,0-1.2-.6-2.5-.9-3.8-.5-3-.6-6.2-.2-9.2.3-2.5.8-5.1,1.6-7.5.9-2.6,2.5-4.5,4.3-6.5,1.7-1.8,3.6-3.5,5.9-4.6.7-.4,1.5-.7,2.3-.8,0,0,.2,0,.2-.2-1.2-7.1-1.5-16.9,5.4-21.4,1.4-.9,2.8-1.2,4.4-1.6.8-.2,1.4-1,2.1-1.5,2.1-1.5,4.5-2.5,7-2.7,3.3-.3,6.6.6,9.5,2.2.4.2,1,.8,1.5.9.3.1.8,0,1.1,0,3-.4,6-.7,9.1-.8,1.9,0,3.8-.1,5.8,0,1.4.1,3,.2,4.1,1,2.4,1.8,2.9,5.6,3.1,8.4.1,1.9.2,3.9,0,5.9h0c2.8.8,5.5,1.9,8.1,3.2,2,1,4,2.1,5.8,3.5,2.2,1.7,3.8,3.8,5.1,6.1.9,1.5,1.6,3,2.3,4.5.2.4.8,1.3.6,1.7,0,.1-1.1.6-1.3.7-1.7,1.4-1.4,3.5-.4,5.3,2,3.7,6.1,6,9.6,8.1,4,2.5,9,5,10.9,9.6,0,.1.4,0,.4-.1h0v.4Z"/>
  </g>
  <path class="cls-29" d="M385.5,377.2c-15.5-10.9-18.6-30.9-16.9-48.7,1.6-17-11.4-43,9.3-42.4.2,0-2-4.1-3.1-7.8-.6,1.1-1.3,2.2-2,3.2-1.4,2-4.8.1-3.7-2,1.9-3.8,3.6-7.7,4.9-11.8,2.3-6.9,3.6-14.2,3.1-21.4-.4-6.5-2.3-12.8-5.6-18.4-48.3-63.7-107.2-48.8-142.6-43.6-70.7,10.4-104.8,83.4-82,155.1,23.4,73.5,74.3,96.1,145.7,93.1,30.5-1.3,70.9-27,93.5-55-.2-.1-.4-.3-.6-.4h0Z"/>
  <path class="cls-26" d="M373.1,494.2c5.6,2.4,71.2,18.9,82,64.1,10.7,45.2,9,165.3,13.7,205,6.1,46.2,6.8,119.1,10.1,178.5l-4.1,93.7-42.6-1.7s-23.5-248.2-42.9-311.5-16.1-228.2-16.1-228.2h-.1Z"/>
  <path class="cls-13" d="M158.9,1397.8c64,2.1,128,4.9,192,8.2,23.4,1.2,46.7,2.5,70.1,3.9,11.9-163.4,37.2-362.4,23.1-418.3l-1.2-56.6-317.2-24.7c-37.9,51.2-46.2,132.9-15.2,254.3,10.7,41.7,40.5,133.3,48.4,233.1h0Z"/>
  <path class="cls-26" d="M441.1,594.6c-1.2-56.7-15.3-75.8-15.3-75.8-15.7-6.9-44.8-23.5-63.8-30.5-2.8-1-12-6.1-12.3-5.6-9.3,15.3-26.8,33.6-46.7,35.7-7.1.8-2.9-14.8-9.6-15-22.8-.7-50.9-13-64.5-30.2l-17.6,7.7-68,26.2,10.6,336.7-1.1,2.6c37.2,14.4,74.6,28.4,113.3,38.5,45.1,11.9,92.6,18.8,139.1,11.5,10.6-1.7,21.1-4.1,31.4-7.3-2.5-11.3-14-53.8-13.8-65.8,1.2-65.8,4.5-67.9,6.8-70.6"/>
  <path class="cls-2" d="M227.7,380.8s16.3,53.5,4.4,91.3c-1.6,5.1-2.3,4.5-2.3,4.5,2.5.2,6.3,6.8,8,8.7,4.1,4.4,8.9,10.5,13.6,14.3,2.8,2.3,3.4,4.2,6.2,6.4,5.1,4.1,9.7,7,15.1,10.7,10.6,7.2,23.5,12.1,36.1,13.1,11.1.9,18.4,1.3,28.6-3.2,2-.9,5.3-3.8,7-5.2,6.9-5.8,8.2-18.5,7.8-26.8l-2.5-11.9s-5.2-1.9-6.9-8.1c-1.7-6.3.3-54.7.3-54.7"/>
  <path class="cls-26" d="M422.7,823.4s28.5,106.6,37.7,130.7c0,0-127.8,44.3-243.4,27.5-115.7-16.7-121.4-32.5-121.4-32.5l41.5-112.2,19.7-44.5,251.8,19.9"/>
  <path class="cls-26" d="M88.1,560.8c-7.7,19.6-9.6,41.8-10.2,63.4-.5,16.1,1.4,31.3,4.9,47,2.4,10.9,5,21.8,7.7,32.7,5.6,22.4,11.9,44.7,19.7,66.4,6.8,18.9,14.7,37.5,24.2,55.2l.8-22.5,32.8-138.2s-5.7-164.7-5.7-164.8c0,.2-15.3,5.2-16.2,5.5-12.3,5.1-24,12-34.1,20.7-11.3,9.8-18.9,21.6-24,34.5h0Z"/>
  <path class="cls-25" d="M445.2,592.2c-2.1,4.4-3.3,9.4-4,14.2-.8,5.6-1,11.4.2,17,2.1,10,5.1,19.8,7.3,29.7,6.2,28.3,9.2,60.3-4.8,86.9-1.9,3.6-4.1,7.1-6.6,10.3-.9,1.1-1.7,1.9-2,3.3-.9,3.6-1.6,7.3-2.3,11-2.8,15-4.5,30.2-4.4,45.5,0,8.5.7,17.1,2.5,25.5,1.2,5.8,2.5,11.5,3.6,17.3,2.6,13.9,4.6,27.8,6.6,41.8,2.9,20.6,5.5,41.3,7.7,62,0,.3,0,.7.1,1.1.1,1.1,2.3.5,2.2-.6-1.9-17.5-4.1-35.1-6.4-52.6-1.9-14.2-3.9-28.3-6.3-42.4-1-6.2-2.1-12.3-3.4-18.4-1.5-7-3.1-14-3.8-21.2-1.5-16.5-.2-33.2,2.3-49.5.8-5.3,1.8-10.6,2.9-15.9.3-1.3.6-2.5.9-3.8,0-.2,0-.5.2-.7,0,0,.6-.6.8-.8.7-.9,1.5-1.9,2.1-2.8,17.7-24.7,17.5-56.9,12.4-85.6-2-11.6-5.1-22.9-8-34.3-.9-3.3-1.8-6.7-2.2-10.1-.8-7.5.5-15.6,2.9-22.8.4-1.3.9-2.5,1.5-3.7s-1.6-1.2-2.1-.3h0Z"/>
  <path class="cls-24" d="M358.7,234.6c-1.6,0-2.5,1.4-3.3,2.6-.9,1.3-2.1,3.5-4,2.5-1.5-.8-1.9-2.9-2.9-4.3-.9-1.2-2.3-1.6-3.5-.6-.8.6-1.3,1.4-2,2.2s-1.4,1.5-2.5,1.2c-.1,0-.2.1,0,.2,1.6.5,2.7-1.3,3.6-2.3.6-.7,1.2-1.4,2.1-1.6,1-.2,1.7.5,2.2,1.2.9,1.3,1.3,3.2,2.7,4.1s2.7,0,3.5-1.1c1-1.4,2-4,4.1-3.9.1,0,.1-.2,0-.2h0Z"/>
  <path class="cls-14" d="M342.5,449.8c-.5-9.6.2-8.2-.1-18,0-.8,0-1.6.2-2.3-28.8,1.3-70-10.1-94.2-9.4.9.6,3.2,19.9,17.3,31.2,22.6,18.2,38.8,20.5,59.6,20.9l10.4-.8s6.5-.1,6.6-1.1l-1.2-20.4h1.5-.1Z"/>
  <g>
    <path class="cls-9" d="M222.9,386.9c-1.3-11,1-13.5-3.4-23.7-3.4-7.7-16.4-20.3-22.4-26.1-4.8-2.1-10.8.9-14,4.7l-.6,1.4c-4.9,9.9.9,31.4,15.6,43.8,3.9,14.6,21.4,14.3,28,7.9-.2-2.7-2.9-5.4-3.2-8.1h0Z"/>
    <path class="cls-9" d="M392.2,365.9c-1-6.4-7.3-16.3-7.1-22.5.2-7.1,3.1-40.2-4.2-61.5-3.1-9-6.2-16.4-8.8-22.2-.3-.2-.5-.5-.7-.9-.6-1.3-1.4-2.8-2-3.9-7.3-11.7-21.4-17.6-34.4-21-7.3-1.9-13.6-15.4-21.1-16.1-4.5-.4-10.4,11.6-14.9,11.5.2.4.2.6-.2.3,0,.2-1.2,0-2.5-.3h-3.9s0,.2.1.2c.1.5.6,1.6,1,1.6-2.8,1.4-6.2.7-9.2-1,1,.9,1.5,1.7,2,2.1-2.4.1-4.3.6-6.8-1.1,0,.4,1,1.7,1.5,1.7-2.4,1-5.3.7-7.7-.6,0,.4,1,1.3,1.5,1.7-1.9.5-3.8.6-5.8-.6l1.5,1.7c-1.9,0-3.3,1-6.2.2,0,.4,1,.9,1,1.3-1.5,0-3.4.1-4.8-.2,0,.4,1.5,1.3,1,1.3-1.7,0-3,.8-5,.4-.1,0-.3.1-.4.2.4.4.8,1,1.1,1.3-1.3,0-2.7.3-4,.2-.4.2-.9.5-1.3.7.2.2.3.4.5.6-.8,0-1.4.2-2.1.3-.7.4-1.3.8-2,1.2-.1,0-.2.2-.4.2l.2.2h-.5c-13.9,9-25.3,21.2-34.7,34.6-7,10-12.9,20.9-17.7,32.1,0,2.5.2,4.7.4,6.4.2,1.6.9,4,2,6.9,4.5,4.6,8.3,9.8,11.4,15.4,6.1,11.4,9.1,24.3,10.2,37.1.8,9.1,4.2,8.8,3.6,17.9l6.7,15.7,8.7,17.5c23.1,24,50.8,38.2,72.6,40.3,7.2.7,22-.4,30.9-1.1,6.1-.5,12-2.3,17-5.8,25.4-17.8,38.2-63.8,33.3-94.5h0l.2.5Z"/>
  </g>
  <path class="cls-11" d="M208.7,366.5c-1.9-4.4-4.1-8.8-6.8-12.8-1.4-2-2.9-4.1-4.9-5.6-.8-.6-1.7-1.2-2.7-1.4-1.1-.2-1.5.9-1.9,1.7-1.9,4-1.8,8.6-.9,12.8.2.7,1.6.3,1.4-.4-.8-3.3-1-6.8,0-10.1.3-1.1.8-2.4,1.5-3.3l-.7.3c-.4,0,0,0,0,0,0,0,.3,0,0,0h.3c.6.3,1.1.5,1.7,1,2.7,2,4.7,5.1,6.4,8,1.9,3.2,3.6,6.6,5.1,10.1.3.7,1.7.3,1.4-.4h0Z"/>
  <path class="cls-11" d="M208.5,366.5c-2.1,0-4.9.5-4.6,3.2.4,2.5,2,4.7,2.1,7.3,0,.6,0,1.1-.3,1.6-.1.3-.3.6-.6.9l-.2.2c-.1,0,0,0,.1,0h-.3c-.5-.3-1-.5-1.5-.9-.7-.7-1.3-1.5-1.8-2.4-1.5-2.6-2.3-5.6-2.1-8.6s.7-7.7,3.8-9.1c.2-.1.4-.2.2-.4s-.8,0-1,.2c-3,1.3-3.9,5-4.2,7.9s-.2,5.5,1,8.3c.9,2.3,3.3,6.6,6.4,5.4,2.7-1,2.1-4.4,1.4-6.5-.5-1.4-1.2-2.8-1.4-4.2,0-.5-.1-1.2.2-1.7.4-.7,1.3-.6,2-.6s.8,0,1-.3c.1-.2.3-.4,0-.4h-.2Z"/>
  <path class="cls-21" d="M372.2,325.1c2.6-1.8,5.9-.9,7.9.5.5.3,1.7,1.3,2.5,3,1,2.2.4,5-.9,6.8-1.7,2.4-4.8,3.2-7.5,2.3-3.6-1.2-5.2-5.1-4.7-8.2,0-.6.5-3,2.6-4.4"/>
  <path class="cls-21" d="M294.2,335.1c-2.9-1.1-6,.5-7.6,2.4-.4.4-1.4,1.7-1.7,3.5-.4,2.4.9,5,2.5,6.4,2.2,1.9,5.5,1.9,7.8.4,3.2-2,3.7-6.2,2.5-9.1-.2-.5-1.2-2.7-3.6-3.6"/>
  <path class="cls-21" d="M310.8,342.4s-15.8-8.8-23.3-8.6c-13.5.4-25,9.5-28.1,15,0,0,18-12.5,25.7-12.6,7.4,0,25.8,6.1,25.8,6.1h-.1Z"/>
  <g>
    <path class="cls-12" d="M346.6,383.9c-2.9,1.9-7.6,1.9-10.9.3-.7-.4-3,.3-2,.8,4.3,2.1,11,1.7,14.8-.7.4-.2.3-.5-.2-.6s-1.3,0-1.7.2"/>
    <path class="cls-12" d="M332.4,384.3c-2.1-.8-4.5-1-6.8-1s-.8.2-1,.4c-.2.2-.2.4,0,.5,1.1.5,2.5.6,3.7.5.4,0,.9-.2,1.1-.5s-.2-.5-.5-.5c-1,.1-2.1,0-3-.4-.3.3-.6.6-.9,1,2.1,0,4.2.2,6.1.9.4.1.9,0,1.2-.2.2-.2.5-.5,0-.7"/>
    <path class="cls-12" d="M323.3,385.4c-2.7.2-6-.7-7.5-2.5-2.3-2.8-.9-8,2.3-10.2.4-.2.1-.5-.2-.5-.5,0-1,.2-1.4.4-2.8,1.9-4.3,6.3-3.6,9.1.6,2.6,3.4,4.2,6.7,4.6,1,.1,2,.2,3,.1.4,0,1.1-.2,1.3-.5.2-.3-.2-.4-.6-.4"/>
    <path class="cls-12" d="M351.5,382.1c-.2-.3,0-.5.3-.5.7,0,1.5-.3,2-.9l.8.8c-1.4.3-2.9.9-4.1,1.9-.2.2-.6.1-.9,0-.2-.1-.4-.4-.2-.6"/>
    <path class="cls-12" d="M349.5,382.7c1.4-1.1,3-1.7,4.6-2.1.2,0,.6,0,.8.2.1.2.2.4,0,.5"/>
    <path class="cls-12" d="M357.1,382c1.8-.2,3.7-1.6,4.4-3.6,1-3.1-.5-6.6-2.9-8.3-.3-.2-.2-.5,0-.6.3-.1.7,0,1,.2,2.1,1.5,3.5,4.1,3.5,6.9s-1.5,4.6-3.6,5.6c-.6.3-1.2.5-1.9.6-.3,0-.8,0-.9-.3s0-.5.3-.5"/>
  </g>
  <path class="cls-21" d="M350.5,337.6s12.2-11.9,19-13.3c9.8-2,13.6,1.4,17.6,6,0,0-8-5.8-14.9-4.1-6.6,1.6-21.7,11.5-21.7,11.5h0Z"/>
  <path class="cls-3" d="M344.5,402c-14.3.8-42.3.8-42.3.8,0,0,5.6,33.5,38.7,31.5s28.2-34.9,28.2-34.9c0,0-10.3,1.8-24.6,2.6h0Z"/>
  <path class="cls-16" d="M344.6,402c-6.8.4-39,1.2-39,1.2,0,0,11.9,23.4,36.4,20.9,25.7-2.6,22.7-24,22.7-24l-20.1,1.9h0Z"/>
  <path class="cls-18" d="M345,403.1c-6.8.5-6.8.8-32.3.8,0,0,7.9,7.4,28.3,6.2,20.4-1.2,27.2-9.2,27.2-9.2l-23.2,2.2h0Z"/>
  <path class="cls-3" d="M370.6,399.7c-.7-.1-.9,0-5-2-1.5-.7-2.9-1.8-7-1.9-7-.1-11.2,3-14.2,3.2s-7.6-2.4-14.5-1.5c-4,.6-15.5,2.9-21.1,3.7-3.4.5-7.4-.6-8.1-.4-1,.3,1.4,7.9,39.4,5.7,38-2.2,31.6-6.6,30.6-6.8h0Z"/>
  <ellipse class="cls-27" cx="212.8" cy="400.2" rx="8.6" ry="8.3" transform="translate(-207.2 570.7) rotate(-84.1)"/>
  <path class="cls-12" d="M306.3,309.9c-21-1.1-28.5.6-42.8,5.8-5.5,2-9.3,5-11.4,10.6-.3.8-1.5,5.6,0,6,1.6.4,3.8-3.9,4.7-4.8,3.3-3.4,7.5-4.4,11.8-5.2,7.9-1.5,16.8-2.3,24.8-2.5s8.8.9,15.1,1.4c1.1-.9.3-5-.2-7.2-.7-2.9-.1-.4-.8-3.3,0,0,.2-.8-1-.8h-.2Z"/>
  <path class="cls-12" d="M386.2,306.5c0-1,.2-2.4.1-3.3,0-.6-.1-1.2-.2-1.9-11.2-.7-19.1.3-35.8,5.9-1.1.4-.8,1.1-.8,1.1.1,2.9,0,.4.1,3.4,0,2.2.5,6.5,1.7,7,5.9-2.1,10-4.3,13.8-5.2,6.5-1.6,13.8-3,20.6-3.6.1-1.1.2-2.2.3-3.3h.2Z"/>
  <path class="cls-12" d="M142.3,253.2c-.4-6.6,3.2-24,8.1-28.3,4.9-4.2,7.5-8.9,13.9-9.6,1.1-.1,2.4-.4,3.1-1.2.6-.8,2.4-1.8,2.4-2.9.2-9.6,4.3-14.3,15.8-19.3,4.1-1.8,6-2.8,10.4-2.1,1.4.2,2.9.4,4.2,0,2.1-.7,3.4-2.6,4.8-4.3,4.9-5.6,12.9-8.4,20.2-7.1,4.9.9,10.2,3.3,14.6,1,2.1-1.1,3.5-3,5.2-4.6,5.1-4.7,12.5-6.3,19.4-5.2,6.8,1.1,13.1,4.4,18.6,8.6.9.7,1.9,1.4,3,1.5,1.7.2-1.5,1,0,0,7.1-4.7,18.6-5.6,26.7-2.8s17.1,7.3,19.6,15.4c8.6-.5,19,1.2,26,7.4s11.8,18.1,9.2,27.1c-.5,1.6-2.8-1.7-4.2-1.1-1.3.6-2.8.3-4.1,0-11.4-2.9-20.7-11.2-31.5-15.9-13-5.7-27.7-6.2-41.7-3.9-14,2.4-27.3,7.5-40.4,12.9-19.5,7.9-39,16.6-55.4,29.8-17.4,14.2-30.4,33-41.9,52.3,0,0,18.4,73.5,13.1,73.4s-3.9-.8-3.4-5.6c.5-4.8,8.3-5.1,8.3-5.1-14.3-.2-23.2-15.4-27.3-21.9-7.7-12.1-1.2-29.9-1.2-29.9,0,0-2.4,1-8.3-15.1-5.9-16.1,2.1-34.8,6.7-40l6.2-3.6h-.1Z"/>
  <path class="cls-12" d="M191.7,319.3c6.2,10,12.3,20,18.5,30,3.3,5.4,4.8,15.3,8.8,10.4,2.2-2.7,2.8-11.4,1.5-14.7-3.8-9.9-7.9-28.1-11.7-38,10.1-.9,23.9-13.9,27-23.5,3.1-9.7.8-13.6,0-23.8,4.9,6,14.6,5.6,21,1.4,6.4-4.3,10.3-11.3,13.9-18.1,3.5,6.5,19.1,5.2,25.5,1.6,6.4-3.6,7.4-4.3,10-11.2s2.3-8.8,2.3-15.3c1.5,9.9,10.5,17.8,14.5,19.2,9.4,3.3,21.8,4.4,29.1-2.4-1.9,5,.9,10.8,5.2,14.1s9.7,4.5,15,5.5c1.1.2,2.2.4,3.2,0,2.7-1.2,1.8-5.3.3-7.9-15.1-25.8-44.9-42.3-74.8-41.2-27.5,1-52.6,15.4-75.1,31.2-15.3,10.8-30.9,23.8-35.2,42.1"/>
  <path class="cls-12" d="M221.2,294.2c3.4,3.1,4.2,8.4,3.2,12.9-.6,3-1.9,5.9-4,8.2-2.1,2.3-5,3.8-8,4-.5,0-1,0-1.4-.3-.3-.2-.4-.6-.6-1-2.3-5.9-3.7-12.2-4.2-18.5,0-1-.1-2,.3-3,1.4-2.8,5.8-2.1,7.9-4.3"/>
  <path class="cls-25" d="M226.8,473.1c4.1,5.9,8.9,11.5,13.8,16.8,10.3,11.3,21.9,21.7,35,29.6,7.1,4.3,14.7,7.8,22.7,10,8.3,2.2,16.9,2.8,25.4,1.7,7-.9,14-2.9,19.6-7.4,4.1-3.3,7-7.9,8.6-12.9,2.7-8.9,1.6-18.2,0-27.2-.1-.7-.3-1.5-.4-2.2l-1.9.9c2.8,1.5,5.5,3,8.3,4.5,1.3.7,2.7,1.6,4.1,2.2.6.2.1.2.1-.1v.2c.2.9.7,1.8,1,2.7.5,1.7,1,3.5,1.3,5.2,1,5,1.1,10.2.1,15.2-1.3,6.4-4.5,12.2-9.3,16.6-7.2,6.7-16.8,10.1-26.3,12.1-5.9,1.2-12,2-18,1.9-5.4,0-10.9-1-16.1-2.3-10.7-2.7-20.8-7.5-30.2-13.2-9-5.5-17.4-11.9-25.2-18.8-6.3-5.6-12.4-11.5-18.1-17.8-2.9-3.2-5.8-6.5-8.5-9.9-.1-.2-.2-.3-.4-.5l-.5,1.1c5.5-2.8,11-5.5,16.5-8.3,1.3-.7.1-1.9-1-1.3-5.5,2.8-11,5.5-16.5,8.3-.4.2-.8.7-.5,1.1,1.9,2.5,4,4.9,6.1,7.3,5.2,5.9,10.8,11.6,16.5,17,7.7,7.1,15.8,13.8,24.5,19.6,9.3,6.2,19.3,11.6,30,15.1,10.6,3.5,21.9,5.1,33,3.7,11-1.4,22.4-4.2,31.7-10.5,5.9-4,10.7-9.7,13.1-16.5,1.9-5.4,2.3-11.1,1.7-16.7-.4-3.6-1.2-7.2-2.5-10.6-.2-.6-.4-1.3-1-1.7-3.1-1.9-6.5-3.5-9.7-5.3-.9-.5-1.9-1-2.8-1.5-.7-.4-2.1,0-1.9.9,1.4,8.2,2.8,16.5,1.3,24.9-.9,4.9-2.8,9.5-6.1,13.2-4.2,4.7-10.2,7.3-16.3,8.6-16.4,3.6-33.1-.6-47.5-8.6-13.3-7.4-25.1-17.5-35.5-28.5-5.8-6.1-11-12.6-16.1-19.3,0-.1-.1-.2-.2-.3-.6-.8-2.6,0-2,1h0Z"/>
  <g>
    <path class="cls-5" d="M310.5,744.6c-9.4-1.6-17.4-6.2-24.8-11.8-22.3-17.1-32.1-39.9-30.1-67.7,1.6-22.5,15.5-39.2,36.1-44.1,24.5-5.9,49.1,10.8,52.1,35.5.5,3.8,1.3,8.6-3.5,10.1-4.7,1.5-7.2-1.9-9.5-5.8-6-10.5-15.4-14.8-27.2-13.8-11.3,1-19.3,6.8-23.5,17.3-7.6,19.1-4.8,37.1,6,54.2,5.6,8.8,12.7,16.2,20.6,23,1.2,1,2.4,2.1,3.6,3.2h.2Z"/>
    <path class="cls-6" d="M320.3,747.8c6.8-1.5,13.6-2.7,20.3-4.6,15.5-4.6,29.7-11.6,38.1-26.4,5.2-9.1,7.4-18.9,4.6-29.2-2.9-10.8-14.7-17.7-25.7-15.5-1.9.4-3.9.9-5.8,1-2.5,0-5-.3-6.2-3-1.3-2.7-.5-5.1,1.5-7.2,8.8-9.1,19.4-11.8,31.4-8.6,29.9,8.1,33.3,39.1,22.4,57.4-13.1,21.9-33.5,32.2-58,35.7-7.5,1.1-15,1-22.5.4h0Z"/>
    <path class="cls-5" d="M342.6,597.8c8.2,0,14.9,7,14.9,15.1s-7.2,15.3-15.4,15c-8.1-.3-14.9-7.3-14.7-15.3.2-8,7.2-14.9,15.2-14.8h0Z"/>
    <path class="cls-6" d="M373.4,639.2c0-6,4.5-10.7,10.4-10.8,5.7-.2,10.6,4.6,10.7,10.5.1,6.2-4.6,11.1-10.6,11.1s-10.4-4.8-10.4-10.7h-.1Z"/>
  </g>
  <ellipse class="cls-26" cx="667.7" cy="214.9" rx="171.8" ry="140"/>
  <polygon class="cls-26" points="806.3 245.9 877.1 329.5 768.9 310.3 806.3 245.9"/>
  <g class="cls-30">
    <g class="cls-30">
      <g class="cls-30">
        <path class="cls-20" d="M632.6,176.7c1.7-4.8,4.1-8.9,7.4-12.3,3.3-3.4,7.2-6,11.9-7.9,4.7-1.9,10-2.8,15.9-2.8s9,.7,13,2.1c4,1.4,7.6,3.4,10.7,6.1,3.1,2.7,5.5,5.9,7.3,9.6,1.8,3.8,2.7,8.1,2.7,13s-1.4,11.5-4.1,15.8c-2.7,4.3-6.2,8.5-10.4,12.5-3.4,3.4-6.2,6.1-8.2,8.1-2,1.9-3.6,3.8-4.6,5.7-1,1.9-1.7,4.2-2,6.9-.3,2.7-.6,6.6-.7,11.7h-10.5c-.1-5.1.2-9.4.8-12.8.7-3.4,1.7-6.5,3.2-9.3,1.5-2.8,3.5-5.4,6-8,2.5-2.5,5.5-5.4,9.1-8.6,3.1-2.9,5.7-6.1,7.7-9.6,2-3.5,3.1-7.5,3.1-11.8s-.6-6.4-1.9-9.1c-1.3-2.8-3-5.1-5.1-7.1-2.2-1.9-4.7-3.5-7.6-4.6-2.9-1.1-5.9-1.7-9.1-1.7s-8.4.8-11.8,2.3c-3.4,1.6-6.3,3.7-8.5,6.4-2.2,2.7-3.9,5.9-5,9.6-1.1,3.7-1.6,7.6-1.5,12h-10.5c0-5.9.8-11.2,2.5-16ZM673.4,257.2v17.6h-14v-17.6h14Z"/>
      </g>
    </g>
  </g>
  <path class="cls-26" d="M428.1,812.8l-23.1.4c-8.7.2-17.4-.5-26-1.8l-173.1-9s-4.5-168.9-35.4-241.7c-.3.3-.6.5-.9.8-9.5,8.3-19.6,16-29.7,23.5-11.1,8.2-21.6,17.3-32,26.4-8.4,7.3-19.3,14.2-27.7,21.6v25.5c4,8.6,26.8,166.7,33.5,186.2,11.2,32.4,25.1,63.8,56.2,63.8,101.4.2,207.8-31.7,263.2-47.9l-5-47.9h0Z"/>
  <path class="cls-25" d="M149.9,544.4c8.5,1.4,14.2,10,18.1,17,3.4,6.2,6.1,12.8,8.2,19.5.8,2.7,1.3,5.5,1.8,8.3,1,5,1.9,10,2.8,15.1,1.9,11,3.6,22,5.1,33.1,3.2,23.1,5.9,46.2,8.2,69.4,1.9,19.2,3.7,38.4,5.2,57.6.5,6.2,1,12.4,1.4,18.7.1,1.9.3,3.9.4,5.8,0,1,0,2,.2,3v.4c0,.5,1,.4,1.2.3,8.8-2,17.6-4,26.4-6,19.3-4.4,38.5-8.8,57.8-13.2,19-4.3,38-8.7,57-13,8.3-1.9,16.7-3.7,25-5.7,15.5-3.7,30.9-7.8,46.3-11.7.5,0,1-.2,1.5-.4-.4,0-.8-.2-1.2-.3,4.9,16,9.8,31.9,14.6,47.9.7,2.2,1.4,4.5,2,6.7l.9-.9c-15.8,4.7-30.6,12.3-45.2,19.8-19.3,9.9-38.3,20.4-57.6,30.4-21.3,11-43,21.3-65.4,30s-45.6,15.8-69.5,19.1c-5.8.8-11.6,1.4-17.4,1.8-5.9.3-12.1.7-18-.3-11.4-1.9-21.4-8.5-28.6-17.4-1.8-2.2-3.5-4.6-5-7-.4-.7-2.5,0-2,.9,6.1,9.7,14.6,18,25.4,22.3s22.5,3.4,33.7,2.4c23.9-2.1,47.3-8.2,69.8-16.1,23.2-8.2,45.6-18.4,67.6-29.4,20.1-10.1,39.9-20.9,59.8-31.4,15.5-8.2,31.2-16.5,47.8-22.3,1.6-.6,3.3-1.1,4.9-1.6.3,0,1.1-.4.9-.9-4.9-16-9.8-31.9-14.6-47.9-.7-2.2-1.4-4.5-2-6.7-.1-.5-.9-.4-1.2-.3-15.2,3.8-30.4,7.7-45.6,11.5-7.2,1.8-14.5,3.4-21.8,5-18.2,4.2-36.5,8.3-54.7,12.5-19.8,4.5-39.6,9-59.4,13.5-7.1,1.6-14.3,3.2-21.4,4.9-2.3.5-4.5,1-6.8,1.5-1.2.3-2.5.4-3.7.8h-.4l1.2.3c-.5-7.6-1.1-15.2-1.7-22.9-1.5-18.6-3.1-37.2-5-55.8-2.3-23.2-4.9-46.3-8-69.3-1.5-11.4-3.2-22.8-5.1-34.1-.9-5.2-1.8-10.5-2.8-15.7-.8-4.2-1.4-8.4-2.5-12.5-1.5-5.7-3.8-11.2-6.4-16.5-3.6-7.5-8.4-15.9-15.9-20.1-1.6-.9-3.4-1.5-5.2-1.8-.8,0-2.6,1.1-1.3,1.3h0l.2.4Z"/>
  <path class="cls-25" d="M202.3,792.1c-5.3,2.4-10.3,5.8-13.7,10.5-3.1,4.3-4.6,9.3-5.4,14.5-.5,3.3-.6,6.6-.7,10,0,.4,2.2,0,2.2-.6.2-10.4,1.8-21.4,10.1-28.6,2.6-2.3,5.6-4,8.8-5.5.4-.2.6-.4.2-.7s-1.2,0-1.5.2h0v.2Z"/>
  <path class="cls-10" d="M429.4,786.8l20.3-6.2s39,3.2,57.3-.5c13.2-3.2,26.1-8.1,38.4-14.6l41.6-7.9s18.3,6.3,21.7.6c3.3-5.8-2.7-10-8.4-14.1-5.8-4.1-105.2-28.7-105.2-28.7,10.1-5.8,15.2-10.9,26-15.1,16.5-6.2,24.3-16.9,19.7-24-3.3-5-22.7,2.6-35.8,11.7-8.5,5.9-28.7,5.2-44.8,13.6s-26.5,30.3-26.5,30.3c-6,4.1-17.1,10.2-17.1,10.2-.3,1.3,12.9,44.6,12.9,44.6h0Z"/>
  <path class="cls-14" d="M588,756.8c-7.4-.8-14.8-1.5-22.3-2.3-11.7-1.2-23.5-2.4-35.2-3.6-2.7-.3-5.4-.5-8.1-.8-.8,0-1.7,0-2.3.6-.5.4-.4,1,.3,1,7.4.8,14.8,1.5,22.3,2.3,11.7,1.2,23.5,2.4,35.2,3.6,2.7.3,5.4.5,8.1.8.8,0,1.7,0,2.3-.6.5-.4.4-1-.3-1h0Z"/>
  <path class="cls-14" d="M545.4,765.4c-.2,0-.8.2-.3,0-.6,0-1.3.3-1.9.4-2.2.4-4.3.7-6.5.9-5.8.5-11.9.4-17.5-1.7-.7-.2-1.7,0-2.2.4-.3.2-1.1.6-.4.9,5.9,2.2,12.5,2.3,18.7,1.7,3.5-.3,7-.8,10.4-1.7.3,0,1.6-.5,1.5-1s-1.5-.2-1.8,0h0Z"/>
  <path class="cls-22" d="M914.2,647.6c-14.3-1.1-28.5-2.8-42.6-5.3-6.5-1.2-26.2-4.8-37.3-15.9,17.2-49.9,29.4-93.6,37.2-124.1,12.3-48,60.9-49,66.8-51.4,0,0,14,137.9.8,214.4-7.7-.3-17.2-17.1-24.9-17.7h0Z"/>
  <path class="cls-7" d="M889.4,1578.5c-11.3-171.8-25.1-324.5-24.9-393.7l-3.6-250c.9-5.6,8.6-11.2,9.5-16.7,7.4,1.3,5.5,2.4,13,3.1,24.7,2.2,49.7.9,74.1-2.8,50.6-7.7,98.8-25.2,144.9-44.9,18.3-7.8,36.3-16,54.3-24.3l61.2,45.5c35.4,68.4,32.9,100.6,26.1,165-4.2,39.6-10.9,127.8-17.6,217-16.8,225.6-28.1,484.7-28.1,484.7,0,0-58.6,27.3-183.1,21.6-27.7-1.3-113.7-16.2-113.7-16.2-5.4-45.3-9.7-149-12.3-188.1h0l.2-.2Z"/>
  <path class="cls-22" d="M888.8,773.8c0,12.5-11.7,76.9-14.5,88.7,10.7,3.6,27.2-2.8,38.3-.8,48.5,8.8,98.3,2.7,145.9-8.6,40.7-9.7,80.2-23.4,119.5-37.5l-1.1-2.8,24.4-346-71.4-32.3-16.1-8.4-6.1,15.8c-14.7,17.7-33.2,27.7-57.1,27.9-7,0-14.3-.4-21.8-1.3-20.8-2.7-49.8-17.7-59.2-34-.3-.6-15.6,4.7-18.5,5.7-20,6.9-34.1,17-50.6,23.8,0,0-15.4,21.5-18,80.8"/>
  <path class="cls-2" d="M969.6,434.6c10.6-3.5,16.5-6.4,17.5-10.9,1.6-6.6-2.1-57.2-2.1-57.2l119.5-44.5s-15.3,56.5-1.6,95.6c1.9,5.5,17.7,11.7,17.7,11.7l-25.1,27.6c-24.9,21.2-57,29.3-85,25.4-15.9-2.2-19.5-3.1-32.1-8,0,0-24.4-11.4-8.9-39.8h0Z"/>
  <path class="cls-28" d="M988,412.1s12.1-3.8,20.2-5.5c8.1-1.7,21.7-.3,60.5-29.6,0,0-13.4,38.4-60.7,43.6,0,0-12.3,1.7-20.1-.8l.2-7.7h0Z"/>
  <path class="cls-2" d="M963,170.5c0,.3-.3.6-.5.8.2-.1.4-.2.5-.4v-.4h0ZM942,175.8v.4c.3-.3.7-.6,1-.8,0-.4-1,.5-1,.5h0ZM1099.9,337.9l2.4-7.4c9.5,13.3,25.8,3.2,27-15.6,5.3-9.3,12.6-40.4,5.1-50.2l-.9-1.4c-5.4-4.3-15-6.3-19.2.9-1.4,3.1-.3,7.1-1.7,10.2-1.4,3.6-6.5,10.3-8.8,13.4,0,0-2.8-18-2.5-26.4s-6-32.5-21.1-44c0,0-.2-29.5-7.1-38.2l-2.4-.8c-1.4,0-2.4.5-3.8.5,0-.4.5-.9.4-1.8-2.4.9-4.3.5-6.2.6.5-.4,1.4-.9,1.4-1.4-1.9.5-3.8,0-5.8.1.5-.4,1.4-1.4,1.4-1.8-2.4.9-3.8,0-5.8.1.5-.4.9-1.3.9-1.8-1.9.9-3.8.5-5.8.6.5-.4.9-1.3,1.4-1.8-2.4.9-3.8,0-5.8.1-.5,0,.9-.9.9-1.3-1.4.5-3.3.5-4.8.6,0-.4.9-.9.9-1.3-2.9.9-4.3,0-6.2.1l1.4-1.8c-1.9,1.4-3.8,1.4-5.7,1,.5-.4,1.4-1.4,1.4-1.8-2.4,1.4-5.2,1.9-7.7,1.1.5,0,1.4-1.4,1.4-1.8-2.4,1.8-4.3,1.4-6.7,1.5.5-.4.9-1.3,1.9-2.2-2.8,1.8-6.2,2.8-9.1,1.5.5,0,.9-1.3.9-1.8-1.9,1.8,1.7-.5-.7-.9,0,0-5.5,1.9-5.5,1.4-1.9,1.4,4.9-7.6,2.5-7.5.5-.9-13.8,1.1-12.8.2-2.4,1.8-1.9.9-4.8.5,0,0-9.9,5.5-9.4,5-2.3,2.3-3.5.4-6.4,0,.5-.4,1.8,1.8,2.2,1.4-1.9,1.8-1.3-.4-3.7-.4,0-.4-7.9-2.7-7.9-3.1-2.4,1.4-1.6,1.6-4.5,1.6,0-.4-1.7,4.9-1.2,4.4-1.9,1.8-1.8.4-4.2,0l-2.3,1.7c-2.3,2.2.9,1.2-2,.8,0-.3,10.9,1.1,11.3.6-1.8,1.2-4,2.4-6.1,2.9,0-.4.5-1.3.4-1.8-1.9,1.8-4.7,3.2-7.6,2.8.5,0,.9-.9.9-1.3-2.3,2.2-5.2,3.6-8.1,2.4h0c-1.8,1.4-4.2,2.8-6.7,3.2,0-1.3.9-1.8.9-1.8h-1.9c-2.3,3.6-4.7,6.8-5.5,11.2,0,0-16.2,25.6-15.4,41.9.8,16.3,4.4,44,5,51,.5,6.1.2,15.7-.4,22.1-1.3,14.2-1.3,18,2.5,32.2,3.7,13.7,7.3,21,15.4,32.7,8.5,12.2,20.4,22.7,31.7,33,7.5,6.8,8.3,12.6,28.5,12.5,29.8-.1,58.8-20,77.4-39.6"/>
  <path class="cls-15" d="M925.8,205.9c11.1-25.9,40.6-40.8,101.1-49.5,60.5-8.7,108.4,12.5,108.4,12.5-30.1-86.3-118.2-81.5-137.8-81.1-19.7.4-119.4,79.2-84.7,150.5l1.8,6.8s9.2-34.5,11.2-39.2h0Z"/>
  <path class="cls-15" d="M1150.5,150.5s6.1-54.6-34-72c-53.6-23.3-126.3-32.5-151,24l185.1,48h0Z"/>
  <path class="cls-1" d="M1147.9,282.7c4.3-4.5,2.8-17.1,6.5-22.1,19.2-26.5,12.3-51.9,4.5-66.9-3.4-6.5.9-18.2.5-24-2.3-30.3-5.8-31.2-51.6-61.3-37.3-24.6-77-22.6-100-20.8-36.8,2.8-53.1,5.4-65.4,31.9-1.6,3.4.3,6.2-1,10.3-1.9,5.9-11,6.7-12.3,14.1,0,0,47.8,18,88.8,39.1,41.1,21.1,115,104.5,112.6,130,0,.8,12.7-25.1,17.5-30.1h0v-.2Z"/>
  <path class="cls-15" d="M1166.8,224.8s-71.5-84.4-147.6-83.5c0,0,97.2-14.8,141.9,54.6l1.1,2.8c2.9,7.3,4.4,15.1,4.6,23v3.1h0Z"/>
  <path class="cls-15" d="M940.3,130.7l5.1-2c11.9-4.7,24.4-7.7,37.2-8.9l21.4-1.9s-51.9-7.9-63.1,5.4l-.6,7.4h0Z"/>
  <path class="cls-12" d="M1096,252.7l3.5,42.8,14.7-19.2s-12.9-16.9-18.1-23.6h0Z"/>
  <path class="cls-17" d="M1110.1,294.5c1.5,0,3.7,0,4.1,1.8.3,1.4-.5,3.1-1,4.4-1.1,2.8-2.9,6.7-.6,9.4,2.8,3.2,6.9-1.5,8.3-3.8,2.1-3.5,3.1-7.5,2.8-11.5-.3-4.1-1.4-9.9-5.7-11.6-.4-.2-1.8.5-1.2.7,3.8,1.5,4.8,6.5,5.2,10.1s0,6.9-1.5,10.4c-.9,2.1-2.3,4.5-4.3,5.6-1.4.8-2.6-.3-3-1.7-1.1-3.1,1.1-6.5,2-9.4.4-1.2.8-2.7,0-3.8-.9-1.5-3.2-1.5-4.7-1.5s-1.5.8-.6.8h0Z"/>
  <path class="cls-15" d="M1121.6,232.6s27.6,27.3,29.9,38.4l2.9-10.4s-8.6-19.8-32.8-27.9h0Z"/>
  <g>
    <path class="cls-12" d="M974.6,326.3c3.5,1.9,8.9,1.6,12.5-.5.8-.5,3.4,0,2.3.7-4.8,2.8-12.5,2.8-17,.3-.5-.2-.4-.6.2-.8.6-.2,1.5-.1,2,.1"/>
    <path class="cls-12" d="M991,325.6c2.4-1.1,5.1-1.6,7.8-1.7.4,0,.9.1,1.2.4s.3.5,0,.6c-1.2.7-2.8.9-4.2.9s-1-.1-1.3-.5c-.2-.4.2-.6.6-.6,1.2,0,2.4-.1,3.4-.7.4.3.8.7,1.1,1-2.4.1-4.8.6-6.9,1.5-.4.2-1,0-1.4-.2-.3-.2-.6-.6,0-.8"/>
    <path class="cls-12" d="M1001.5,326.2c3.1,0,6.8-1.2,8.4-3.5,2.4-3.5.4-9.1-3.4-11.4-.4-.3-.2-.6.2-.6.6-.1,1.2.1,1.7.4,3.3,2,5.4,6.7,4.8,10-.6,3.1-3.6,5.1-7.3,5.9-1.1.2-2.3.4-3.5.4s-1.3-.2-1.5-.5.2-.5.7-.5"/>
    <path class="cls-12" d="M969,324.6c.2-.4,0-.6-.4-.6-.8,0-1.7-.3-2.4-.9-.3.3-.6.6-.8,1,1.7.2,3.3.8,4.8,1.9.3.2.7,0,1-.1.2-.2.4-.5,0-.8"/>
    <path class="cls-12" d="M971.3,325.1c-1.7-1.2-3.5-1.8-5.4-2.1-.3,0-.6.1-.8.4-.2.2-.2.5,0,.6"/>
    <path class="cls-12" d="M962.5,324.8c-2-.1-4.4-1.5-5.3-3.9-1.4-3.6,0-7.7,2.7-9.9.3-.2,0-.6,0-.7-.4-.1-.8,0-1.1.3-2.2,1.9-3.8,5-3.5,8.4.2,3.1,2.1,5.3,4.5,6.3.7.3,1.5.5,2.2.5s.9-.1,1-.5c.2-.4,0-.5-.4-.6"/>
  </g>
  <path class="cls-12" d="M935.4,268.3c-2.7-1.3-6.1-.1-7.8,1.5-.4.4-1.2,1.5-1.6,3.3-.6,2.2.3,4.8,1.8,6.3,1.9,2,5,2.3,7.4,1.1,3.2-1.6,4.2-5.5,3.3-8.4-.2-.5-.9-2.7-3.1-3.8"/>
  <path class="cls-12" d="M962.7,277.1s-13.2-9.9-19.8-10.4c-9.7-.8-21.5,4.9-24.8,9.8,0,0,15.6-8.4,22.4-7.6,6.5.7,22.2,8.3,22.2,8.3h0Z"/>
  <path class="cls-12" d="M1026.6,266.6c2.6-1.4,1.9-1.1,3.7.4.4.4,1.5,1.4,2.1,3.1.7,2.2,0,4.8-1.5,6.4-1.8,2.1-4.9,2.5-7.4,1.5-3.3-1.5-4.4-5.3-3.7-8.2,0-.5-.4-1.5,1.7-2.7"/>
  <path class="cls-12" d="M1007.5,274.9s14.4-9.6,21.6-10c10.5-.5,23.2,5.4,26.7,10.3,0,0-16.7-8.7-24.1-8.1-7.1.5-24.2,7.8-24.2,7.8h0Z"/>
  <path class="cls-12" d="M959.1,243.6v10.4c-4.8-1.2-9-1.9-12.1-2.4-6.6-1-10-1.5-13.7-.8-4,.8-7.3,2.4-8.7,3.1s-3.1,1.5-4.5,2.6c-3.2,2.5-4.4,5.3-5,5-.5-.2.2-2.6.3-2.9,1.9-6.1,6.3-9.8,6.7-10.1,0,0,3.3-2.9,8.8-4.4,3.7-1.1,14.2-2,28-.6"/>
  <path class="cls-12" d="M1006.2,243.3c.2,1.9.5,3.9.7,5.9.2,1.5.4,3,.6,4.4,5.7-2,10.5-3.4,14.2-4.4,7.8-2.1,11.8-3.1,16.5-3.1,4.9.1,9.2,1.1,10.9,1.6,2.3.6,3.9.9,5.9,1.8,4.2,1.9,6.1,4.5,6.8,4.2.6-.3-.7-2.6-.8-2.8-3.2-5.7-9.1-8.6-9.5-8.9,0,0-4.4-2.3-11.2-2.9-4.7-.4-17.4.4-34,4.1"/>
  <path class="cls-22" d="M889.4,784.9s-25.6,64.1-32.3,157c0,0,137.7,29.1,267.9,15.2,130.2-13.9,118.6-25.7,118.6-25.7l-44.3-118.7-2.9-51.8-283,13"/>
  <path class="cls-3" d="M985.8,348.3c13.9-.5,36.4-3.2,36.4-3.2,0,0-3,35.2-35.2,36.5s-35.9-34-35.9-34c0,0,20.9,1.3,34.8.7h0Z"/>
  <path class="cls-4" d="M984.7,348.3c6.6-.3,33.2-2.5,33.2-2.5,0,0-8.4,23-32.3,24-25.9,1-30.4-21.2-30.4-21.2l29.5-.3h0Z"/>
  <path class="cls-8" d="M985.4,349.3c6.6-.3,26.7-2.3,26.7-2.3,0,0-6.9,8-26.8,8.8-19.8.8-26.4-6.5-26.4-6.5h26.5Z"/>
  <path class="cls-3" d="M949.7,346.8c.7-.2,2.7,0,5.9-.3,5.5-.7,8.8-2.4,12.8-2.9,6.8-.8,11.2,1.9,14.1,1.7,2.9-.1,7.1-3.1,13.9-2.9,4,.2,13.8,1.3,19.3,1.6,3.3.2,7.1-1.4,7.8-1.2,1,.2-.6,7.9-37.6,9.4s-37.2-5.2-36.3-5.5h0Z"/>
  <path class="cls-23" d="M875.9,542.7c2,4.3,3,9.3,3.7,14,.8,5.6,1,11.5-.4,17.1-2.2,8.6-5.3,16.9-8,25.3-3.7,12-7,24.2-9,36.6-2.1,12.8-3,26.1-.8,39s7.5,24.3,16.8,33c1.2,1.1,2.5,2.2,3.8,3.2.7.5,3-.4,2.3-1-10.2-8-16.7-19.2-19.6-31.7-3-12.7-2.5-26.1-.7-39s5-25,8.7-37.2c2.7-9,6-17.8,8.5-26.8,1.2-4.2,1.5-8.2,1.4-12.6-.2-6.7-1.4-13.5-3.8-19.7,0-.3-.3-.7-.4-1-.4-.8-2.8,0-2.5.7h0Z"/>
  <path class="cls-23" d="M1030,498.8c11.1.3,22.2-1.7,32.8-5.1,10.9-3.5,21.4-8.2,31.3-14,4.7-2.7,9.2-5.6,13.5-8.8s8.6-6.9,12.8-10.6c6-5.2,11.9-10.5,17.6-16,1.3-1.2,2.9-2.5,3.9-4,.4-.5.2-1-.3-1.2-5.9-3.1-11.9-6.1-17.8-9.2-.8-.4-1.7-.9-2.5-1.3-.7-.3-1.6.1-1.9.7,0,.1-.3.4,0,.1-.2.3-.4.7-.7,1-.8,1.2-1.7,2.4-2.5,3.6-3.1,4.2-6.5,8.1-10,11.9-11.1,11.7-24.4,21.4-39.2,27.9-10.5,4.6-21.8,7.4-33.2,8.3-1.4.1-1.9,2-.2,1.9,19.9-1.6,38.8-8.9,55.1-20.3,10.9-7.7,20.7-17.1,28.8-27.7,1.6-2,3.1-4.1,4.4-6.3-.6.2-1.3.5-1.9.7,5.9,3.1,11.9,6.1,17.8,9.2.8.4,1.7.9,2.5,1.3l-.3-1.2c-.7,1.1-1.8,2-2.8,2.9-4.7,4.6-9.6,9-14.5,13.3-4.2,3.7-8.4,7.5-12.8,11-4.1,3.2-8.3,6.2-12.7,9-9.5,5.9-19.6,10.9-30.1,14.7-11.5,4.1-23.8,6.9-36.2,6.5-.6,0-1.4.1-1.6.8-.2.5.2,1.1.8,1.1h0v-.2Z"/>
  <path class="cls-23" d="M1007.5,481.1c-9.6-1.2-19.4-3.2-28-7.9-4.8-2.6-9.2-6.1-11.9-10.9-1.7-3.1-2.5-6.6-2.4-10.2,0-1.2.2-2.5.5-3.7,0-.4.2-.9.3-1.3v-.3c0-.1,0-.2,0-.4,1.4-3.9,2.8-7.9,4.2-11.8.4-1.1-1.1-1.1-1.7-.8-3.9,1.5-7.7,3-11.6,4.5-2,.8-4,1.6-6.1,2.4-.5.2-1,.3-1.3.8-.2.4-.3.9-.5,1.2-2.3,6.6-3,13.9-1.8,20.8,1.5,8.6,6.3,16,13,21.5,7.7,6.3,17.4,9.5,27.3,9.5s1.9-1.7.2-1.7c-10.9,0-21.8-4.6-29.3-12.5-3.7-3.9-6.5-8.6-8-13.9s-1.7-10.9-.8-16.3c.4-2.8,1.1-5.7,2.2-8.3l-.6.6c6.1-2.4,12.2-4.7,18.3-7.1l-1.7-.8c-1.4,3.9-2.7,7.8-4.1,11.6-.7,1.8-1,3.6-1.2,5.5-.7,9.5,5.2,17.2,13,21.9,9.3,5.6,20.3,7.9,31,9.3,1.2.1,2.5-1.5.9-1.7h0Z"/>
  <polygon class="cls-2" points="1017.8 478.4 1004 512 1003.5 476.9 1017.8 478.4"/>
  <path class="cls-23" d="M1032.4,482.8c-1.1,2.8-2.3,5.6-3.4,8.4l-8.2,20.1c-3.3,8.1-6.7,16.2-10,24.3-2.9,7-5.8,14-8.6,21-1,2.3-1.9,4.6-2.9,7-.4,1-1.1,2.2-1.3,3.3v.2l1.6-.7c-5.2-.6-10.5-1.2-15.7-1.7l.7.9c1.1-2.7,2.2-5.5,3.2-8.2,2.6-6.6,5.2-13.2,7.9-19.8,3.2-7.9,6.3-15.9,9.5-23.8,2.7-6.9,5.5-13.8,8.2-20.7.9-2.3,1.8-4.5,2.7-6.8.4-1,1.1-2.1,1.3-3.2h0c0-.1-1.6.6-1.6.6,5.8,0,11.6.1,17.4.2.5,0,1.4-.2,1.6-.7s-.2-.9-.7-.9c-5.8,0-11.6-.1-17.4-.2-.5,0-1.4.2-1.6.7-1.1,2.7-2.2,5.5-3.2,8.2-2.6,6.6-5.2,13.2-7.9,19.8-3.2,7.9-6.3,15.9-9.5,23.8-2.7,6.9-5.5,13.8-8.2,20.7-1.3,3.3-2.9,6.6-4,10h0c-.2.6.2,1,.7,1,5.2.6,10.5,1.2,15.7,1.7.5,0,1.4-.2,1.6-.7,1.1-2.8,2.3-5.6,3.4-8.3l8.2-20.1c3.3-8.1,6.7-16.2,10-24.3,2.9-7,5.8-14,8.6-21l2.9-7c.4-1.1,1-2.2,1.3-3.3h0c.5-1.3-2-1.2-2.3-.3h0v-.2Z"/>
  <path class="cls-23" d="M986.8,477.5c-.2,2.9-.3,5.8-.5,8.7-.4,7-.8,14-1.1,21-.5,8.5-.9,16.9-1.4,25.4-.4,7.3-.8,14.7-1.2,22l-.4,7.2c0,1.1-.2,2.3-.2,3.5v.2c0,1.2,2.2.5,2.5-.3,1.6-4.1,3.2-8.2,4.9-12.2,3-7.7,6.1-15.4,9.2-23,1.2-3,2.4-6,3.6-8.9.5-1.2,1.2-2.6,1.5-3.9.3-1.4.2-3.1.3-4.6.3-3.8.5-7.5.8-11.3.5-6.5,1-13,1.3-19.5v-.4c0-.3-.2-.5-.5-.6-5.6-1.4-11.2-2.8-16.9-4.2-.5-.1-1.4,0-1.8.5-.3.4-.3.8.3,1,5.6,1.4,11.2,2.8,16.9,4.2l-.5-.6c-.4,5.5-.8,11.1-1.2,16.6-.3,4-.6,8.1-.8,12.1-.2,2.2,0,4.6-.5,6.8,0,.9-.6,1.7-1,2.5-1.1,2.7-2.1,5.3-3.2,8-3,7.6-6,15.2-9.1,22.8-1.3,3.2-2.6,6.5-3.9,9.7-.7,1.6-1.5,3.3-2,5v.2l2.5-.3c.2-2.9.3-5.8.5-8.7.4-7,.8-14,1.1-21,.5-8.5.9-16.9,1.4-25.4.4-7.4.8-14.7,1.2-22l.4-7.2c0-1.1.2-2.3.2-3.5v-.2c0-1.1-2.5-.6-2.5.3h.1Z"/>
  <path class="cls-2" d="M1249,587.8c-1.7,13.4-3.6,26.7-5.3,39.7-5.7,43.6-10.8,87.2-20.6,130.1-6.5,28.5-13.1,67.7-34.5,89.4-2.4-10.7-7.1-25.9-12.4-35.4-10.7-19.1-20.9-11.9-39.7-23.2-5.4-3.2-10.7-.3-16.7-2.3,1.9-24.6,11.7-122.3,24.8-198.3h104.4Z"/>
  <path class="cls-22" d="M1148.6,445.8s89.4,21.8,100.7,75.4c12,56.8,4.1,146.9,4.1,146.9,0,0-93.4,3.3-139.5-16.8s34.7-205.5,34.7-205.5h0Z"/>
  <path class="cls-23" d="M1185.8,496.1c-7.6-1.2-15.6,1.5-22.3,5-7.8,4-14.8,9.6-20.7,16.2-2.6,2.9-5,6.1-6.9,9.5-1.3,2.3-2.4,4.6-3.5,7-1.8,3.6-3.4,7.2-4.9,10.9-2.5,6.3-4.2,12.8-5.3,19.4-1.6,9.2-2.7,18.5-4,27.8-2.4,17.1-5.3,34.2-8.5,51.2-.5,2.8-1.1,5.7-1.6,8.5,0,.2,0,.3.2.3,5,1.4,10.1,3.2,15.2,4.2,7.3,1.5,14.7,2.9,22,4.2,13.1,2.3,26.2,4.2,39.4,5.7,14.4,1.6,28.9,2.8,43.4,2.6h24.6c.5,0,1.7-.3,1.8-.9.4-5.3.7-10.6,1.1-15.9,0-.2-.6-.2-.7-.2-16.7.6-33.5.4-50.1-.6-12.5-.7-24.8-2.1-37.1-4.2-11.6-2-23-4.5-34.4-7.2-5.9-1.4-11.9-2.9-17.8-4.5-.5-.2-1.3,0-1.7.3-.2,0-.8.6-.3.7,15.8,4.4,31.9,8,48.1,11,12.5,2.3,25,4,37.6,4.8,11.9.8,23.8,1.1,35.7,1.1s12.8,0,19.1-.3l-.7-.2-1.1,15.9,1.8-.9c-6.7,0-13.4-.2-20,0-6.8,0-13.6,0-20.3-.2-7.3-.3-14.7-.9-22-1.7-13.5-1.4-26.9-3.3-40.3-5.5-8.2-1.4-16.5-2.9-24.6-4.6-5.2-1.1-10.2-2.7-15.3-4.2-.4,0-.7-.2-1.1-.3l.2.3c3.4-18,6.6-36,9.3-54.1,1.5-10,2.7-20,4.3-29.9,1-6.6,2.4-13.1,4.6-19.3,1.2-3.4,2.6-6.7,4.1-10,2.1-4.5,4.1-9.1,6.8-13.3,4.5-7.2,10.8-13.2,17.6-18.1,6.4-4.6,14.1-8.8,22.1-9.5,1.7-.1,3.4,0,5.1.2.6.1,2.9-.9,1.6-1.1h-.5Z"/>
  <path class="cls-2" d="M1133,870.9s26.3,2.8,49.7-16.3c26.8-21.8,16.3-81.7,10.3-108.5-6.2-27.4-71.6,36-71.6,36l11.6,88.8h0Z"/>
  <path class="cls-2" d="M1128.3,873.6c9.6-1.4,20.5-2.3,28.7-6.7q.2-1.4.4-2.8c2.3-20.2-1.4-41.2-9.3-59.7-5.5-12.8-5.9-24.5-16.6-33.7-1.2,2.5-4.3,9.2-4.3,9.2l-235.1,11-17.4,42.1c81.8,24.2,162.1,37.2,247.4,40.4,2.1,0,4.2.2,6.2.2h0Z"/>
  <path class="cls-2" d="M906.2,840.5l-27.1-2.7s-54.5,25.8-71.8,27.1c-12.6.5-25.2-1-37.6-4.3l-13.9,5.6c-6.4,2.6-13.6,2.6-20.2,0l-5.1-1.9s-15.5,12.1-19.6,6.9c-4.1-5.2.5-11.4,5-17.4s104.8-67.4,104.8-67.4c-10.3-3.2-28,.9-38.6-.3-16.2-1.8-22.1-8.8-15.9-15.3,3.8-4,16.5-7.8,25.5-4.3,9,3.4,49-10.2,65.2-6s29.8,24.4,29.8,24.4c8.4,3.4,20.9,5.5,20.9,5.5,6.8,15.9-1.4,50-1.4,50h0Z"/>
  <path class="cls-14" d="M1156.7,820c-1.8-7.9-4-15.9-8.2-22.9-3.4-5.8-8.4-10.4-14.1-13.9-3.9-2.4-8.1-4.3-12.4-6-.9-.4-2-.3-2.9.3-.5.4-1.2,1.4-.3,1.8,6.8,2.8,13.7,6,19.1,11,5,4.6,8.3,10.4,10.6,16.7,1.7,4.6,2.9,9.3,4,14.1.4,1.6,4.4.6,4.1-1.1h.1Z"/>
  <path class="cls-23" d="M861.3,638.7c-4.4-.8-8.8-2.5-12.8-4.4-3.6-1.7-7.1-3.8-10.1-6.5-.6-.6-1.6-1.2-2-2-.3-.5,0,.2-.2-.2,0,0,0-.3,0-.4.3-1,.7-2.1,1-3.2.7-2.2,1.5-4.5,2.2-6.7-.8.2-1.6.4-2.4.6,2.4,2.2,5,4.2,7.7,6,4.6,3,9.9,5.7,15.5,6,.5,0,1.3,0,1.8-.5s.4-.6-.2-.6c-5.5-.2-10.7-3.1-15.2-6.1-2.5-1.7-5-3.5-7.2-5.6-.4-.4-2.2,0-2.4.6-1.1,3.5-2.3,7-3.4,10.4v.2c4.4,4.8,10.2,8.1,16.2,10.4,3,1.2,6.2,2.2,9.3,2.9.6,0,1.2,0,1.7-.3.2,0,.9-.6.3-.7h.1Z"/>
  <path class="cls-27" d="M1110.3,325.5c4.3.3,6.5,3.8,7.1,7.4,1.1,6.6-5.7,11.9-11.6,8.7-.2-.1-.4-.3-.7-.4,0,0,7.1,8,13.7,3.1s3.7-13,1.3-15.1c-5.2-4.8-9.9-3.7-9.9-3.7h0Z"/>
  <path class="cls-14" d="M773.8,862.1c3.6-.8,7.2-2,10.6-3.4,6.3-2.5,12.6-5.9,17.3-10.9.7-.7.3-1.6-.5-1.9-.9-.4-2.2,0-2.9.8-4.3,4.6-10.2,7.6-16,9.9-3,1.2-6.1,2.2-9.3,2.9-.8.2-1.9.9-1.7,1.9s1.6,1,2.4.8h.1Z"/>
  <path class="cls-14" d="M790.3,831.3c-5,3.1-10.1,6.1-15.2,9.1-10,5.8-20,11.5-30.3,16.7-5,2.5-10,4.9-15.2,6.7-.5.2-1.7.7-1.2,1.4.5.6,2.1,0,2.6,0,10.2-3.7,19.9-9,29.4-14.2,9-5,17.9-10.1,26.7-15.4,1.8-1.1,3.6-2.2,5.4-3.3.5-.3,1.2-.9.4-1.3-.7-.4-2.2,0-2.8.5h.2Z"/>
  <path class="cls-14" d="M876.2,838.6c-5.4,1.2-10.9,3.1-15.7,5.9-5.4,3.2-11.1,6-16.8,8.5-3,1.3-6.1,2.7-9.2,3.8-.3,0-1.7.6-1.2,1.1.4.5,2.2,0,2.6-.3,5.8-2.1,11.4-4.7,17-7.3,2.8-1.4,5.6-2.8,8.3-4.3,2.8-1.6,5.5-3.2,8.5-4.3,1.4-.5,2.8-1,4.2-1.3.5,0,1-.3,1.5-.4,0,0,.6,0,.2,0-.4,0-.2,0,0,0,.5,0,2.3-.4,2.4-1.1s-1.3-.4-1.6-.3h-.2Z"/>
  <path class="cls-14" d="M842.8,759.8c3.7.3,6.9,2.2,10,4.1,3.5,2.1,7,4.2,10.5,6.3,7,4.2,13.9,8.4,20.9,12.6.7.4,1.9,0,2.6-.3.2,0,1.8-.7,1.2-1-7.1-4.3-14.2-8.6-21.3-12.9-3.5-2.1-7.1-4.3-10.6-6.4-3.1-1.8-6.3-3.6-9.9-3.9-1,0-2,.2-2.8.5-.2,0-1.5.8-.5.9h-.1Z"/>
</svg>