<?xml version="1.0" encoding="UTF-8"?>
<svg id="Layer_2" data-name="Layer 2" xmlns="http://www.w3.org/2000/svg" xmlns:xlink="http://www.w3.org/1999/xlink" viewBox="0 0 1163.45 1166.32">
  <defs>
    <style>
      .cls-1 {
        fill: #af6b4e;
      }

      .cls-1, .cls-2, .cls-3, .cls-4, .cls-5, .cls-6, .cls-7, .cls-8, .cls-9, .cls-10, .cls-11, .cls-12, .cls-13, .cls-14, .cls-15, .cls-16, .cls-17, .cls-18, .cls-19, .cls-20, .cls-21, .cls-22 {
        stroke-width: 0px;
      }

      .cls-2 {
        fill: #6b3825;
      }

      .cls-3 {
        fill: #bc580f;
      }

      .cls-4 {
        fill: #523e87;
      }

      .cls-23 {
        clip-path: url(#clippath);
      }

      .cls-5 {
        fill: none;
      }

      .cls-6 {
        fill: #123a43;
      }

      .cls-7 {
        fill: #f0edf6;
      }

      .cls-8 {
        fill: #eb8500;
      }

      .cls-9 {
        fill: #372461;
      }

      .cls-24 {
        clip-path: url(#clippath-1);
      }

      .cls-10 {
        fill: #542c23;
      }

      .cls-11, .cls-25 {
        fill: #000;
      }

      .cls-12 {
        fill: #231e1f;
      }

      .cls-13 {
        fill: #0b1314;
      }

      .cls-14 {
        fill: #ede3c8;
      }

      .cls-15 {
        fill: #b82d24;
      }

      .cls-25 {
        stroke: #000;
        stroke-miterlimit: 10;
        stroke-width: .17px;
      }

      .cls-16 {
        fill: #f0ecf6;
      }

      .cls-17 {
        fill: #6f1303;
      }

      .cls-18 {
        fill: #d78700;
      }

      .cls-19 {
        fill: #4f2e25;
      }

      .cls-20 {
        fill: #729890;
      }

      .cls-21 {
        fill: #26160c;
      }

      .cls-22 {
        fill: #866aac;
      }
    </style>
    <clipPath id="clippath">
      <circle class="cls-5" cx="580.33" cy="582.82" r="581.59"/>
    </clipPath>
    <clipPath id="clippath-1">
      <path class="cls-5" d="M438.86,584.54c-.19.09-.37.16-.56.25.49-11.5.96-23.16,1.42-35.05-.02,0-.04.01-.06.02.33-2.14.57-4.46.55-7.2.98-12.91-.73-42.39.16-55.67-3.23-17.6-5.37-55-14.22-84.12-.66-2.18-1.57-4.27-2.73-6.24-1.01-1.71-2.17-3.7-2.28-3.77-2.08-1.33-10.87-3.19-16.9-6.11,2.42,5.84,11.55,23.24,8.78,40.4-1.15,7.16-2.4,13.45-9.22,15.21-20.47,5.29-47.58,2.64-56.73-19.07-6.26-14.85-14.93-28.02-21.33-42.65-3.01-6.87-3.3-5.99-7.3-12.49-6.94,1.2-24.15,6.96-31.49,8.74,11.28,4.54,12.94,13.71,15.57,23.46,3.47,12.86,8.55,35.47,3.13,50.06-2.96,7.95-3.6,13.42-8.91,20.1-2.58,3.24-5.86,5.88-9.53,7.82-7.41,3.91-14.23,6.05-22.82,6.13-4.2.04-3.67-.79-5.38,2.59-.22.43-.4.88-.55,1.35-4.64,15.02-6.93,30.72-9.96,46.14-1.64,6.13-3.73,14.05-6.15,23.27-2.26,2.72-7.6,8.23-12.59,25.09-.92,3.11-1.78,6.24-2.3,9.44-7.06,43.26-9.04,87.05-11.1,130.77-1.56,33.03-.71,67.03-5.14,99.84,15.45,9.15,23.15-2.81,43.7,11.21,18.12,12.36,29,6.1,44.24,0,15.24-6.1,27.94-4.07,47.62,2.03,19.69,6.1,31.44-5.13,42.87-5.64,11.43-.51,11.89,3.19,35.73,1.68,20.27-1.29,27.02-5.34,27.02-8.95-4.34-83.3-8.03-157.11-13.52-238.63ZM373.67,597.46c15.42-.17,30.75-1.89,45.83-5.59-14.98,4.34-30.33,5.91-45.83,5.59Z"/>
    </clipPath>
  </defs>
  <g class="cls-23">
    <circle class="cls-14" cx="581.59" cy="584.21" r="581.59"/>
    <path class="cls-20" d="M45.33,930.25c88.08,138.69,295.01,236.07,536.27,236.07s448.19-97.37,536.27-236.07H45.33Z"/>
    <circle class="cls-5" cx="581.85" cy="581.59" r="581.59"/>
    <path class="cls-1" d="M601.96,405.1l-107.07,56.75s-47.33-34.59-76.67-56.95c-15.77,11.76-31.33,23.75-45.89,36.89l3.2,5.6c30.46,22.15,83.4,72.11,118.87,71.15,43.87-1.19,122.96-90.65,122.96-90.65l-15.4-22.78Z"/>
    <path class="cls-1" d="M349.15,977.63c-1.37,5.98-2.41,7.54-3.84,13.25-1.65,6.58,1.12,11.65,8.21,14.6,5.97,2.48,14.02,3.81,20.55,3.61,8.54-.26,17.67-1.64,26.21-1.91,7.32-.23,30.34-1.68,37.49-.23,11.13,2.26,18.04.77,23.02-.91,1.38-.46,2.23-.37,2.89-1.41,1.71-2.7,1.56-5.73-2.06-8.13-4.57-3.02-10.21.88-14.45-2.65-.76-.63-1.46-1.33-2.33-1.79-1.72-.9-3.82-.74-5.79-.77-9.84-.11-9.01-4.41-21.83-8.05-3.76-1.07-33.24-20.03-36.71-21.75"/>
    <path class="cls-1" d="M340.17,990.47s53.59,12.38,68.96,12.9c15.36.52,16.95-4.15,16.95-4.15,0,0-17.07-10.43-36.4-19.86-4.07-1.98,9.43-127.55,17.93-186.4,5.91-40.88,2.59-73.56,2.59-73.56l-70.82,4.58,1.24,62.49-3.3,11.36c-1.72,5.93-5.56,20.93-6.16,27.08-1.62,16.63-.31,35.14.2,43.67.87,14.45,5.68,34.14,6.14,39.22l9.77,60.77-7.11,21.9Z"/>
    <path class="cls-1" d="M282.7,991.57s63.13,33.28,77.6,33.3c14.47.02,9.5-7.66,9.5-7.66,0,0-38.37-37.54-42.09-44.44-2.04-3.79,8.17-118.85,14.55-177.94,4.43-41.05,4.72-73.72,4.72-73.72l-66.51,6.85-6.71,59.94-2.79,11.46c-1.46,5.99-3.5,16.61-3.9,22.78-1.07,16.67-2.15,44.71-1.43,53.23,1.22,14.42,10.5,49.84,11.07,54.91l7.18,44.99-1.17,16.31Z"/>
    <path class="cls-1" d="M283.6,966.8c.54,6.22-1.58,15.06-2.99,28.15-.62,5.76-5.25,14.01.82,18.18,10.74,7.38,23.47,4.36,28.31,5.5,10.2,2.39,18.35,2.34,28.15,5.53,9.93,3.23,11.98,4.02,22.88,4.68,1.51.09,3.1.04,4.41-.64.88-.46,1.56-1.17,2.44-1.62,3.1-1.6,7.01.51,10.56.04,1.56-.21,2.98-.91,4.43-1.47,3.84-1.47,8.04-1.96,12.1-2.83,4.06-.86,8.19-2.22,11.01-4.98,2.82-2.77,3.88-7.27,1.44-10.31-3.68-4.6-8.43-1.89-13.42-2.32-4.97-.43-6.85-1.21-11.25-3.21-11.24-5.1-12.97-6.14-22.44-10.12-7.35-3.09-28.96-13.01-39.33-20.07v-24.68"/>
    <g>
      <path class="cls-19" d="M367.54,1027.3c2.35-.67,3.18-3.47,2.19-5.56s-3.34-3.38-5.4-4.32c-1.22-.56-2.48-1.04-3.72-1.56-.32-.13-.74-.06-1.03.13-.18.12-.45.44-.12.58,2.49,1.05,5.24,1.92,7.33,3.71.94.81,1.72,1.85,1.88,3.12.13.99-.17,2.83-1.32,3.16-.22.06-.71.26-.62.57s.62.24.83.18h0Z"/>
      <path class="cls-19" d="M378.3,1027.48c3.2-.06,3.65-3.66,3.28-6.13-.22-1.45-.76-2.64-1.83-3.68-1.52-1.47-3.46-2.24-5.42-2.92-2.19-.76-4.24-2.11-6.64-2.05-.81.02-1.13,1.04-.14,1.01,1.78-.04,3.52,1.01,5.12,1.67,1.66.68,3.36,1.14,4.85,2.18,1.13.79,2.05,1.83,2.41,3.17.3,1.11.4,2.29.25,3.43-.14,1.03-.52,2.28-1.73,2.3-.81.02-1.13,1.03-.14,1.01h0Z"/>
      <path class="cls-19" d="M386.44,1024.7c2.95-1.08,3.8-4.9,2.45-7.53s-4.34-4.34-7.04-5.46c-1.71-.72-3.57-1.38-5.39-1.75-.4-.08-1.69.55-.91.71,1.85.37,3.75,1.08,5.48,1.83,1.65.72,3.26,1.6,4.6,2.81,1.22,1.09,2.18,2.48,2.4,4.13s-.4,4.12-2.14,4.76c-.2.07-.56.27-.4.52.15.23.78.04.95-.02h0Z"/>
      <path class="cls-19" d="M394.31,1023.4c3.3-1.47,5.85-6.02,3.89-9.46-.83-1.45-2.31-2.48-3.73-3.28-1.61-.91-3.33-1.6-5.06-2.22-.86-.3-1.74-.56-2.59-.87-1.05-.38-2.12-.86-3.25-.8-.83.05-1.11,1.13-.12,1.08,1.09-.06,2.27.63,3.28.96.83.27,1.66.55,2.48.85,1.91.7,3.82,1.51,5.49,2.68,1.57,1.11,2.74,2.49,2.68,4.5-.07,2.4-1.48,4.7-3.69,5.69-.9.4-.1,1.21.65.87h0Z"/>
    </g>
    <path class="cls-19" d="M417.06,988.57c1.89.31,3.75,1.06,5.51,1.79.94.39,1.88.81,2.77,1.3.51.28,1.17.6,1.48,1.12.19.31.93.07,1.12-.06,1.8-1.2,3.99-1.44,6.09-1.03.32.06.8-.02,1.02-.27.19-.21.19-.46-.14-.52-2.68-.52-5.57-.14-7.87,1.39l1.12-.06c-.32-.53-1.01-.88-1.53-1.18-.93-.53-1.92-.97-2.91-1.38-1.84-.77-3.8-1.56-5.78-1.88-.32-.05-.79.02-1.02.27-.19.21-.19.47.14.52h0Z"/>
    <path class="cls-19" d="M341.7,983.97c6.93,3.67,13.98,7.14,21.09,10.46,5.48,2.56,11.01,5.03,16.65,7.19,4.04,1.55,8.45,3.34,12.82,3.59.4.02.79.02,1.19,0,.23,0,.45-.05.31-.03.18-.03.37-.06.55-.09,1.61-.25,3.25-.42,4.88-.46,2.06-.05,4.13.09,5.83,1.39,1.06.81,2.02,2,2.47,3.28.22.62,1.66.21,1.45-.39-2.2-6.19-9.51-5.63-14.76-4.77-1.17.19-2.79-.04-4.18-.35-2.31-.51-4.57-1.25-6.79-2.03-11.13-3.94-21.84-9.2-32.38-14.49-2.68-1.35-5.35-2.7-8-4.11-.52-.27-1.81.44-1.13.8h0Z"/>
    <path class="cls-1" d="M520.6,423.29c19.17-37.64-62.46,127.98-62.46,127.98l-164.81-25.34c2.36,11.8-8.05,21.14-13.68,36.26,0,0,99.35,33.82,115.76,39.8,102.93,37.53,122.36,7.84,144.9-32.49,7.53-13.47,46.77-84.34,37.4-95.15-2.14-2.47-57.69-50.71-57.11-51.06Z"/>
    <path class="cls-1" d="M586.92,530.23c-4.69,2.62-10.32,7.57-14.16,11.18-4.48,4.75-12.29,21.98-12.29,21.98l-16.7,10.98,12.67,27.67,18.03-10.52,20.85-2.33s36.57-12.03,39.79-16.35c3.22-4.32,4.06-15.84,4.06-15.84,5.21-4.99,2.16-14.03,2.16-14.03,5.7-10.8-2.46-9.65-2.46-9.65.29-.32.47-.71.53-1.13.68-4.48-5.95-6.61-8.84-3.14-4.9,5.77-11.61,13.42-12.94,13.6-1.33.18-10.03,2.74-17.62,5.01-3.82,1.32-8.04-.45-9.42-3.95-.13-.33-1.81-2.02.54-4.15"/>
    <path class="cls-3" d="M656.05,223.77s-95.49-57.94-154.01-37.13c0,0,88.21-33.89,141.06,7.85l1.57,1.86c4.15,4.91,7.4,10.51,9.6,16.54l1.79,10.88Z"/>
    <path class="cls-1" d="M805.75,928.41c4.3-8.07,15.21-16.03,22.74-19.47,7.53-3.44,15.83,1.23,18.05,2.43,16.55,8.98,24.11,24.13,36.5,37.73,9.5,10.43,20.3,19.69,32.04,27.51,11.94,7.96,21.83,12.7,34,20.02.09.05,1.34.1,1.43.16,6.04,3.63,9.44,9.26,11.8,15.9.86,2.42,1.75,4.81,2.75,7.08,1.39,3.15,3,5.55.9,8.91-3.87,6.19-14.02-2.3-17.07-3.96-.57-.31-1.2-.46-1.84-.46-2.58-.02-6.65-.48-19.09-4.48-1.2-.39-2.39-.68-3.56-.92-.04.07.04-.07,0,0-6.65-1.73-36.95-6.07-42.36-7.13-10.67-2.09-42.95-12.27-42.95-12.27-3.71-.89-67.75-41.78-87.22-32.26l16.74-24.79s32.84-5.94,37.14-14.02Z"/>
    <path class="cls-1" d="M807.45,868.4c5.46-7.34,17.44-13.56,25.41-15.83,7.97-2.27,15.47,3.59,17.48,5.12,15.01,11.36,20.21,27.47,30.43,42.78,7.83,11.74,17.11,22.51,27.55,32.01,10.61,9.66,23.13,16.36,34.07,25.42.08.06.16.13.23.19,5.42,4.49,9.09,10.75,10.43,17.67.49,2.53,1.01,5.02,1.66,7.42.9,3.32,2.13,5.94-.45,8.94-4.75,5.54-13.51-4.38-16.28-6.48-.51-.39-1.11-.63-1.75-.73-2.54-.41-9.95-2-21.66-7.81-1.13-.56-2.26-1.03-3.38-1.44-.05.06.05-.06,0,0-6.32-2.7-35.62-11.55-40.81-13.41-10.24-3.67-40.62-18.58-40.62-18.58-3.54-1.43-46-24.72-66.68-18.23l5.57-48.74s33.36-.95,38.82-8.28Z"/>
    <path class="cls-1" d="M871.14,861.52c-10.63,37.37,29.88,77.99-19.61,92.45l-11.65,17.04c12.27,32.34,25.61-4.81,13.68,27.66l-16.25-4.88s-278.98,52.5-327.18,30.43c-19.55-5.22-56.86-50.64-49.07-111.39,7.79-60.75,33.68-45.26,51.12-52.29,17.44-7.03,193.79-17.32,258.45-10.79l77.75-40.38,22.76,52.15Z"/>
    <path class="cls-6" d="M851.14,637.73c-1.04-.85-14.26-2.34-14.53-3.82-2.78-1.88,6.19,4.57,0,0-9.65,3.41-18.72,7.67-28.68,9.94-24.3,5.55-.96,35.68-25.8,35.12-27.18-.61-54.25-3.39-81.29-6-23.41-2.26-46.87-4.42-70.39-4.96l-3.91,49.47-150.52,108.88s-97.01,81.87-39.88,132.31c42.89,37.87,167.2,15.32,167.2,15.32,1.15,2.1,30.25-6.04,47.33-8.4,21.18-4.73,155.38-16.68,167.72-19.11,60.97-12.03,112.2-47.37,117.75-110.75,3.04-34.68-1.1-78.51-17.29-109.49-21.83-41.77-43.99-69.01-67.7-88.52Z"/>
    <path class="cls-10" d="M919.9,978.8c-6.72-5.1-13.43-10.2-20.15-15.29-4.39-3.33-8.77-6.66-13.16-9.99-2.88-2.18-5.9-4.28-8.46-6.84-2.85-2.86-4.78-6.3-7.19-9.48-1.57-2.08-3.14-4.15-4.7-6.23-.42-.55-2.21.11-1.72.75,1.39,1.84,2.77,3.67,4.16,5.51,1.83,2.42,3.32,5.06,5.22,7.42,2.81,3.47,6.28,6.09,9.8,8.76,8.93,6.78,17.87,13.56,26.8,20.34,2.64,2,5.28,4.01,7.92,6.01.53.4,2.23-.37,1.47-.95h0Z"/>
    <path class="cls-6" d="M686.29,951.8s38.86,43.55,23.72,76.61c-2.8,6.11-111.96,6.58-111.96,6.58,0,0-103.84,14.17-143.98-25.38-69.49-68.46-56.53-123.45,23.11-183.24,81.41-61.12,0,0,0,0l161.28,138.39"/>
    <path class="cls-13" d="M692.22,957.7c-16.17.6-32.28,3.37-48.21,6.03-17.42,2.9-34.78,6.17-52.26,8.74-7.26,1.07-14.57,2.1-21.91,2.36-.57.02-1.62.19-1.92.77s.24.8.77.78c6.44-.23,12.86-1.04,19.24-1.92,8.24-1.15,16.45-2.52,24.65-3.91,17.79-3.03,35.56-6.31,53.44-8.79,8.31-1.15,16.67-2.19,25.06-2.5.57-.02,1.62-.19,1.92-.77s-.24-.8-.77-.78h0Z"/>
    <path class="cls-1" d="M674.62,303.85c.69.88,8.04,5.88,11.88,6.23-2.05,8.89,3.02,32.94-3.23,39.91-11.8,13.17-39.85,51.55-57.22,54.56-15.45,2.68-55.32-7.21-43.48-48.97,2.66-11.19,5.02-13.39,4.89-15.21-.41-5.49-16.73-36.19-16.73-36.19l78.8-64.17s4.37,37.53,25.09,63.84Z"/>
    <path class="cls-10" d="M585.33,335.59s5.73-7.66,11.54-11.12c5.8-3.45,16.66-5.97,38.85-38.85-.19.29.18,1.93.18,2.29.03,2.16-.26,4.32-.73,6.42-1.84,8.22-6.52,15.61-12.01,21.89-4.14,4.74-8.79,9.03-13.81,12.84-4.66,3.54-9.47,6.77-14.97,8.76-1.6.58-3.24,1.1-4.9,1.5-.42.1-2.44,1.22-2.54.87l-1.62-4.61Z"/>
    <path class="cls-1" d="M498.42,156.7c-.03.25-.11.51-.19.76.11-.14.21-.29.31-.43l-.12-.34ZM483.6,166.35l.1.28c.18-.3.36-.6.51-.89-.12-.34-.61.61-.61.61ZM648.28,249.71l-.05-6.32c10.87,7.78,20.76-4.36,16.74-19.16,1.6-8.57-.93-34.53-9.36-40.1l-1.08-.86c-5.28-1.89-13.25-.88-14.58,5.73-.24,2.77,1.61,5.53,1.37,8.3-.11,3.1-2.3,9.65-3.27,12.68,0,0-6.91-13.16-8.9-19.7-1.99-6.54-13.2-23.48-27.94-28.41,0,0-7.92-22.74-15.54-27.6h-2.09c-1.1.41-1.71,1.01-2.82,1.42-.12-.34.12-.81-.13-1.48-1.59,1.35-3.19,1.55-4.66,2.09.24-.47.86-1.08.73-1.42-1.35.88-2.94,1.08-4.41,1.62.25-.47.73-1.42.61-1.75-1.59,1.35-2.94,1.08-4.41,1.62.24-.48.36-1.28.24-1.62-1.22,1.21-2.82,1.42-4.29,1.96.24-.47.37-1.28.61-1.75-1.59,1.35-2.94,1.08-4.41,1.62-.37.14.49-.94.36-1.28-.98.74-2.45,1.28-3.55,1.69-.12-.34.49-.95.37-1.28-1.96,1.48-3.31,1.21-4.78,1.75l.61-1.75c-1.1,1.55-2.57,2.09-4.16,2.29.24-.47.73-1.42.6-1.75-1.47,1.69-3.55,2.83-5.63,2.83.37-.14.73-1.42.61-1.75-1.34,2.02-2.93,2.22-4.77,2.9.24-.47.36-1.28.85-2.23-1.71,2.16-4.04,3.78-6.61,3.57.37-.14.37-1.28.24-1.62-.98,1.89,1.17-.81-.8-.48,0,0-3.73,2.9-3.86,2.56-1.1,1.55,1.78-7.15-.06-6.47.12-.81-10.32,4.5-9.83,3.55-1.34,2.02-1.22,1.19-3.55,1.66,0,0-6.16,6.84-5.91,6.37-1.22,2.36-2.57,1.25-4.9,1.72.24-.47,1.84.93,2.09.46-.98,1.89-1.11.03-2.95.7-.12-.34-6.82.01-6.94-.33-1.47,1.69-.81,1.61-3.02,2.42-.12-.34-.02,4.22.23,3.75-.98,1.89-1.31.76-3.28,1.09l-1.36,1.92c-1.22,2.36,1.03.7-1.29,1.17-.09-.23,8.68-1.99,8.86-2.55-1.06,1.43-2.41,2.9-3.97,3.82-.12-.34,0-1.15-.12-1.49-.98,1.89-2.81,3.71-5.14,4.18.37-.14.49-.94.36-1.28-1.22,2.36-3.05,4.18-5.63,3.98-1.03,1.59-2.52,3.28-4.28,4.25-.37-1.01.24-1.62.24-1.62l-1.47.54c-.85,3.37-1.82,6.41-1.32,10.05,0,0-4.78,22.75.17,35.09,4.95,12.35,14.02,34.1,16.36,39.37,2.04,4.56,3.23,11.07,3.95,16.23,3.26,23.39,14.5,30.54,26.2,41.57,5.23,4.93,11.18,8.78,16.75,13.22,6.15,4.91,11.96,10.05,19.27,13.22,7.54,3.28,17.57.72,25.87-1.89,23.17-7.28,43.04-31.6,52.21-51.59"/>
    <path class="cls-18" d="M653.39,237.08c3.67-.94,6.42,1.31,7.91,4.16,2.68,5.14-1.43,11.4-7.13,10.37-.22-.04-.44-.09-.67-.15,0,0,8.06,4.64,12.19-1.22,4.12-5.86-.58-11.7-3.1-12.84-5.59-2.54-9.2-.32-9.2-.32Z"/>
    <path class="cls-11" d="M622.73,185.04l13.99,32.1,6.23-18.72s-14.42-9.62-20.21-13.39Z"/>
    <path class="cls-12" d="M644.88,213.6c1.03-.37,2.71-.99,3.39.25.55.99.4,2.36.36,3.43-.08,2.38-.49,5.63,1.6,7.33,3.04,2.47,5.23-1.69,5.85-4.19.86-3.47.52-7.06-.95-10.29s-3.72-7.08-7.52-7.32c-.56-.04-1.19.79-.4.84,3.3.21,5.39,3.88,6.64,6.54,1.4,2.98,1.84,6.11,1.25,9.4-.26,1.41-.87,4.15-2.39,4.83-1.11.5-2.22-1.04-2.55-1.93-.84-2.31-.18-4.89-.35-7.28-.07-.96-.27-2.02-1.14-2.58-1.17-.74-2.81-.25-4,.17-.69.25-.5,1.04.21.79h0Z"/>
    <g>
      <path class="cls-11" d="M546.25,277.49c3.05.49,6.8-1.26,8.73-3.87.43-.58,2.45-.91,1.85-.09-2.56,3.45-8.03,5.68-11.97,5.06-.39-.06-.43-.35-.08-.64.37-.31,1.05-.52,1.47-.45"/>
      <path class="cls-11" d="M557.65,272.35c1.39-1.48,3.13-2.63,4.98-3.48.27-.12.67-.14.95-.02.22.09.33.29.16.49-.68.86-1.72,1.49-2.76,1.85-.33.11-.79.18-1.08-.05-.27-.21-.02-.5.23-.59.86-.29,1.66-.79,2.22-1.5.37.15.74.31,1.12.46-1.65.76-3.2,1.81-4.44,3.13-.25.26-.72.32-1.05.25-.25-.05-.58-.27-.33-.54"/>
      <path class="cls-11" d="M565.31,269.84c2.21-.87,4.45-2.86,4.89-5.05.66-3.3-2.45-7-5.87-7.71-.37-.08-.3-.38-.02-.56.37-.24.9-.25,1.29-.17,2.98.61,5.84,3.54,6.41,6.2.53,2.49-1,4.91-3.41,6.57-.72.49-1.51.94-2.34,1.27-.33.13-.98.25-1.25.03-.27-.22,0-.46.31-.58"/>
      <path class="cls-11" d="M541.72,277.78c.02-.32-.27-.41-.45-.34-.6.24-1.28.28-1.95.03-.1.33-.2.66-.31.98,1.26-.3,2.62-.32,3.98.05.27.07.54-.14.67-.38.1-.18.14-.53-.13-.61"/>
      <path class="cls-11" d="M543.53,277.5c-1.52-.42-3.04-.37-4.45-.04-.21.05-.42.26-.49.5-.06.19,0,.41.19.48"/>
      <path class="cls-11" d="M537.2,279.79c-1.47.47-3.56.06-4.93-1.46-2.07-2.3-2.24-5.87-1.07-8.25.13-.26-.07-.46-.29-.46-.29,0-.54.27-.68.54-1.03,2.08-1.15,4.89.02,7.33,1.09,2.28,3.09,3.42,5.07,3.47.59.01,1.19-.05,1.74-.22.22-.07.58-.32.58-.64,0-.32-.24-.38-.45-.31"/>
    </g>
    <path class="cls-11" d="M503.06,240.73c-2.43-.31-4.74,1.52-5.65,3.19-.21.39-.5,1.46-.4,2.95.12,1.9,1.52,3.59,3.03,4.38,2.02,1.05,4.51.44,6.03-1.09,2.07-2.08,1.78-5.37.36-7.33-.26-.36-1.41-1.84-3.37-2.09"/>
    <path class="cls-11" d="M525.65,239.44s-12.8-4.18-18.06-2.82c-7.68,1.98-15.31,9.44-16.58,14.08,0,0,9.83-10.57,15.29-11.81,5.21-1.18,19.36.55,19.36.55Z"/>
    <path class="cls-11" d="M564.51,218.12c1.65-1.8,5.04-2.72,6.81-2.02.42.16,1.55.65,2.44,1.84,1.13,1.53,1.16,3.72.52,5.3-.86,2.1-3.15,3.25-5.3,3.07-2.92-.25-4.83-2.95-5.01-5.36-.03-.44-.72-1.07.61-2.52"/>
    <path class="cls-11" d="M556.94,226.72s8.6-11.25,14.06-13.43c7.97-3.19,19.31-2,23.32.89,0,0-15.22-2.3-20.77.1-5.31,2.29-16.61,12.44-16.61,12.44Z"/>
    <path class="cls-11" d="M486.31,237.25c-.26-.06-.55-.05-.85,0-.26-.38-.52-.77-.76-1.17-.14-.27-.25-.56-.35-.85-.01-.08-.02-.15-.02-.23.89-3.15,2.4-5.3,2.55-5.53,0,0,2.09-3.03,6.18-5.53,2.82-1.73,11.13-4.92,22.82-7.06.47,1.53.94,3.06,1.41,4.6.36,1.17.71,2.34,1.06,3.51-4.21.22-7.75.62-10.41.98-5.61.76-8.48,1.17-11.42,2.65-3.09,1.55-5.47,3.62-6.4,4.43-1.3,1.14-2.18,1.88-3.12,3.13-.28.37-.47.72-.69,1.07Z"/>
    <path class="cls-11" d="M544.88,203.6c.7,1.44,1.4,2.88,2.1,4.33.54,1.1,1.07,2.2,1.61,3.29,3.95-3.03,7.42-5.44,10.07-7.19,5.6-3.71,8.48-5.59,12.2-6.77,3.91-1.24,7.57-1.58,9-1.7,2-.17,3.34-.32,5.1-.14,3.82.38,5.99,1.82,6.39,1.41.36-.37-1.21-1.8-1.37-1.95-3.99-3.58-9.4-4.25-9.81-4.32,0,0-4.09-.57-9.61.76-3.8.91-13.61,4.94-25.69,12.28"/>
    <path class="cls-2" d="M560.47,289.14c11.59-4.57,27.94-16.53,27.94-16.53,0,0,10.48,31.28-16.4,41.88-26.88,10.59-35.88-16.27-35.88-16.27,0,0,12.74-4.5,24.34-9.07Z"/>
    <path class="cls-21" d="M560.35,289.19c5.51-2.17,24.76-13.33,24.76-13.33,0,0,2.3,21.73-17.64,29.58-21.62,8.52-27.49-8.07-27.49-8.07l20.37-8.19Z"/>
    <path class="cls-16" d="M560.45,290.14c5.51-2.17,21.9-9.75,21.9-9.75,0,0-3.56,8.66-20.1,15.17-16.54,6.52-24.19,2.49-24.19,2.49l22.38-7.91Z"/>
    <path class="cls-2" d="M534.29,296.99c.53-.38,2.34-1.47,2.34-1.47,4.4-2.21,4.57-3.55,7.77-5.12,5.47-2.68,9.96-1.77,12.42-2.74,2.45-.97,5.13-4.69,10.95-6.47,3.41-1.04,8.15-2.51,12.55-4.71,6.44-3.22,7.45-3.8,8.1-3.88.9-.11,4.18,7.63-26.67,19.78-30.84,12.15-28.18,5.13-27.45,4.6Z"/>
    <path class="cls-15" d="M591.38,507.6c2.61-21.16-9.49-48.07-7.94-69.34,1-13.67-21.61-16.71-23.52-30.29-1.66-11.83-5.21-25.74-12-35.91-15.75,15.46-30.66,17.03-44.27,62.87-15.98,53.8-35.23,65.2-37.73,78.12-2.36,12.13,64.62,55.66,99.05,48.03.66-9.89,25.19-43.64,26.41-53.48Z"/>
    <path class="cls-15" d="M836.13,602.5l-8.03-105.19-5.22-78.37c-6-55.37-42.15-85.07-76.78-92.94l-60.11-18.2s-15.16,71.88-68.03,76.69c-.91.08-.16,13.47-1.03,13.52-1.04.06-3.69-13.22-4.66-13.2-45.5.92-24.56-43.5-24.56-43.5,0,0-48.86,33.54-58.8,46.07-1.27,1.6-2.55,3.42-3.83,5.43,8.42,8.9,13.05,21.13,16.5,32.67,4.11,13.75,6.63,28.12,7.74,42.43,1.59,20.33-17.49,45.17-17.7,65.54-.21,20.9-1.9,33.23,4.15,53.5.33,1.1,18.13,7.44,17.67,8.17,3.36,9.11,22.21-3.01,27.6,1.34,14.9,12.04,2.4,28.74,10.89,39.29,16.79,20.88,6.76,62.71,5.05,98.86,0,0,99.13,3.54,161.42-5.91,62.28-9.45,136.14-49.43,136.14-49.43-35.82-49.55-58.41-76.77-58.41-76.77Z"/>
    <path class="cls-17" d="M530.89,478.59c3.7,5.66,4.14,12.66,3.01,19.17-.75,4.32-1.89,8.54-2.57,12.88-1.66,10.62-2.64,21.45-2.53,32.21.05,5.2.29,10.55,1.59,15.62.65-.4,1.29-.8,1.94-1.2-5.68-1.68-11.23-3.98-16.62-6.41-11.69-5.27-22.94-11.85-32.7-20.2-6.15-5.26-11.66-11.29-15.97-18.17l.06.73c1.98-4.47,3.96-8.93,5.94-13.4l-2.43.16c.12,1.09.61,2.19,1.06,3.17,1.44,3.15,3.54,5.97,5.84,8.53,4.29,4.77,9.36,8.81,14.65,12.42,6.96,4.74,14.33,8.75,22.15,11.88,4.91,1.96,9.93,3.74,15.03,5.15.6.17,1.35.06,1.75-.47.32-.43.26-1.11-.34-1.28-11.94-3.3-23.44-8.21-33.87-14.9-5.66-3.63-11.17-7.7-15.85-12.56-2.56-2.67-4.95-5.61-6.64-8.92-.54-1.07-1.17-2.42-1.31-3.69-.13-1.14-2.12-.54-2.43.16-.92,2.08-1.84,4.16-2.77,6.24l-2.01,4.53c-.37.83-.87,1.68-1.13,2.55-.2.67.2,1.09.56,1.65.66,1.02,1.34,2.02,2.05,3,1.35,1.87,2.8,3.68,4.32,5.42,3.01,3.44,6.31,6.63,9.8,9.59,11.84,10.03,25.8,17.58,40.19,23.27,3.03,1.2,6.11,2.36,9.24,3.29.72.21,2.2-.18,1.94-1.2-1.16-4.49-1.44-9.18-1.53-13.8-.12-5.62.13-11.25.57-16.85.42-5.28,1.01-10.55,1.8-15.79.66-4.38,1.72-8.63,2.56-12.97,1.37-7.08.92-14.76-3.12-20.93-.65-.99-2.99,0-2.26,1.12h0Z"/>
    <path class="cls-17" d="M628.38,392.11c9.13-1.72,17.65-6.14,25.19-11.46,7.28-5.14,14-11.41,19.15-18.71,9.39-13.32,17.82-27.57,23.91-42.71,1-2.48,1.99-5,2.72-7.58.12-.43,0-.88-.48-1.03-4.06-1.23-8.11-2.46-12.17-3.68-.75-.23-1.82.08-1.97.95-1.28,7.04-3.67,13.99-6.32,20.62-5.64,14.09-13.69,27.6-24.94,37.94-7.38,6.78-16.05,12.03-25.61,15.1-1.51.48-1.06,2.27.48,1.78,17.03-5.46,30.85-17.31,40.71-32.03,7.33-10.93,12.72-23.17,16.3-35.82.72-2.55,1.42-5.14,1.9-7.75-.66.32-1.32.63-1.97.95,4.06,1.23,8.11,2.46,12.17,3.68l-.48-1.03c-2.09,7.45-5.61,14.65-9.11,21.51-4.19,8.19-8.92,16.09-14.05,23.72-2.57,3.81-5.19,7.56-8.28,10.96-3.05,3.36-6.41,6.43-9.97,9.23-8.07,6.35-17.46,11.67-27.64,13.59-.52.1-1.16.64-1.01,1.22.17.64.97.65,1.48.56h0Z"/>
    <path class="cls-17" d="M610.66,384.86c-5.18.42-10.68.24-15.43-2.11-3.16-1.57-5.62-4.03-7.66-6.87-3.49-4.85-5-10.57-3.97-16.51.46-2.64,1.24-5.25,1.89-7.84l2.14-8.61c.24-.97-1.69-.51-2.03-.28-3.06,2.02-6.17,3.99-9.19,6.06-.72.49-.82,1-1.04,1.8-.43,1.59-.8,3.19-1.12,4.81-1.04,5.25-1.59,10.66-1.2,16.02.41,5.65,2.05,11.59,6.25,15.63,6.52,6.28,15.51,9.67,24.5,7.82.4-.08,1.2-.49,1.06-1.01-.15-.55-1.04-.43-1.43-.35-6.26,1.3-12.5-.65-17.7-4.16-3.98-2.68-7.03-5.98-8.62-10.55-2.64-7.58-1.88-16.15-.32-23.88.38-1.9.81-3.81,1.39-5.67l-.46.56c3.16-2.08,6.31-4.16,9.47-6.24-.68-.09-1.36-.19-2.03-.28-1.32,5.33-2.92,10.65-3.95,16.04-1.81,9.44,3.05,19.98,11.63,24.54,5.34,2.84,11.65,3.06,17.54,2.57,1.27-.1,2.03-1.63.31-1.49h0Z"/>
    <path class="cls-17" d="M627.01,382.67c-.1,7.3-.2,14.61-.3,21.91-.16,11.65-.32,23.31-.47,34.96-.04,2.69-.07,5.39-.11,8.08l1.05-.88c-2.96.64-5.93,1.29-8.89,1.93l1.46.64c-.03-7.35-.06-14.7-.08-22.04-.04-11.71-.09-23.41-.13-35.12-.01-2.68-.02-5.36-.03-8.04l-1.39.94c3.34-.56,6.68-1.13,10.02-1.69.47-.08,1.36-.33,1.39-.94.03-.57-.64-.78-1.12-.7-3.34.56-6.68,1.13-10.02,1.69-.43.07-1.39.34-1.39.94.03,7.35.06,14.7.08,22.04.04,11.71.09,23.41.13,35.12.01,2.68.02,5.36.03,8.04,0,.76.91.76,1.46.64,2.96-.64,5.93-1.29,8.89-1.93.35-.08,1.04-.43,1.05-.88.1-7.3.2-14.61.3-21.91.16-11.65.32-23.31.47-34.96.04-2.69.07-5.39.11-8.08.02-1.19-2.49-.76-2.51.24Z"/>
    <path class="cls-17" d="M600.57,386.4c1.88,7.16,3.77,14.32,5.65,21.48,2.99,11.36,5.97,22.71,8.96,34.07.69,2.61,1.37,5.21,2.06,7.82.23.87,2.49.33,2.49-.47-.04-9.33-.07-18.67-.11-28-.01-3.3.24-6.71-.04-10-.1-1.17-.55-2.39-.84-3.53-.68-2.71-1.36-5.42-2.04-8.12-1.2-4.79-2.4-9.57-3.6-14.36-.11-.44-.76-.42-1.09-.41-3.35.15-6.71.3-10.06.45-1.28.06-2.03,1.56-.31,1.48,3.35-.15,6.71-.3,10.06-.45l-1.09-.41c2.13,8.52,4.03,17.14,6.41,25.6.11.4.04-.21.05.3s0,1.01,0,1.51l.02,6.28c.02,6.04.05,12.08.07,18.12.01,3.94.03,7.88.04,11.82.83-.16,1.66-.32,2.49-.47-1.88-7.16-3.77-14.32-5.65-21.48-2.99-11.36-5.97-22.71-8.96-34.07-.69-2.61-1.37-5.21-2.06-7.82-.25-.93-2.74-.27-2.49.67Z"/>
    <path class="cls-3" d="M477.02,193.42c1.68-22.56,22.44-41.7,66.15-64.05,43.71-22.34,85.6-18.72,85.6-18.72-45.3-57.73-110.98-31.22-125.8-25.78-14.82,5.44-70.15,91.23-25.22,136.38l3.86,3.45s-4.89-27.17-4.58-31.27Z"/>
    <path class="cls-3" d="M635.53,92.73s-9.56-43.07-44.59-45.86c-46.79-3.74-104.39,8.16-108.51,57.52l153.09-11.65Z"/>
    <path class="cls-8" d="M667.92,193.86c2.09-4.56-2.28-13.73-.81-18.52,7.69-25.11-4.11-42.62-13.99-51.97-4.3-4.07-4.01-14.08-5.85-18.36-9.63-22.42-12.51-22.16-55.13-33.18-34.69-8.96-64.38,2.89-81.42,10.19-27.28,11.68-38.9,17.91-41.4,41.21-.33,3.04,1.14,3.56,1.22,7.05.1,4.93-5.94,8.98-5.05,14.95,0,0,40.96,1.28,77.64,6.6,36.68,5.32,117.35,50.89,122.16,70.9.15.63.31-23.82,2.62-28.86Z"/>
    <path class="cls-3" d="M668.11,153.25s-94-57.03-151.6-36.55c0,0,86.83-33.36,138.85,7.73l1.55,1.83c4.08,4.83,7.28,10.34,9.45,16.28l1.76,10.71Z"/>
    <path class="cls-11" d="M299.05,305.7c-4.64,2.25-8.09,6.38-8.65,11.62-.25,2.35.02,4.77,1.07,6.9.53,1.07,1.71,2.37,1.47,3.63-.17.89-.79,1-1.65,1.46-2.38,1.27-4.46,2.91-4.4,5.85.07,3.1,2.33,5.35,3.12,8.22s-1.01,5.22-2.89,7.26-4.13,4.3-4.57,7.21c-.24,1.57.15,2.71.86,4.08.32.61.58,1.15.52,1.86-.07.74-.43,1.43-.5,2.18-.27,3.29,3.88,3.31,6.1,2.67,1.42-.41,2.97-1.17,3.8-2.45s.85-2.9.53-4.37c-.57-2.62-2.61-5.63-.42-8.02,1.46-1.59,3.49-2.53,4.92-4.19,1.6-1.85,1.72-4.14.87-6.36-.77-2-2.51-4.21-2.33-6.45.19-2.4,3.16-3.39,4.39-5.21,1.76-2.61.57-5.41-.2-8.14-.38-1.33-.67-2.71-.21-4.06.51-1.48,1.78-2.65,2.55-4,3.44-5.97,2.5-13.11,1.44-19.6-.29-1.78-6.12-.44-5.8,1.55.88,5.39,1.78,11.24-.27,16.49-.94,2.4-3.15,4.21-3.81,6.72-.61,2.33.41,4.64,1.02,6.85.29,1.04.56,2.16.3,3.24s-1.08,1.76-1.94,2.46c-1.87,1.5-3.51,3.19-3.28,5.76.32,3.53,4.98,7.72,1.67,11-1.46,1.45-3.34,2.39-4.7,3.96-1.9,2.18-1.6,4.73-.71,7.3.43,1.23.99,2.61.88,3.94-.01.13-.32,1.41-.41,1.36-.05-.03,1.49-.43,1.54-.46.65-.35.15.38.11-.13-.04-.48-.27-.79-.15-1.37s.33-1.08.4-1.64c.19-1.57-.77-2.49-1.23-3.88-.86-2.63,1.11-5.19,2.78-7.01,1.76-1.91,3.78-3.84,4.52-6.42.84-2.92-.68-5.35-1.95-7.86-.85-1.67-1.97-4.79-.31-6.1,1.77-1.39,4.64-1.91,5.18-4.48.33-1.58-.61-2.79-1.31-4.1-.55-1.04-.92-2.16-1.12-3.31-.73-4.21,1.2-9.98,4.99-11.82.7-.34,2.39-1.17,1.59-2.17-.72-.89-3.02-.35-3.81.03h0Z"/>
    <path class="cls-11" d="M315.21,308.27c-4.65,2.25-8.03,6.68-8.59,11.88-.26,2.37.05,4.84,1.09,7,.48.99,1.73,2.38,1.45,3.54-.07.28-.34.47-.22.38-.58.44-.56.36-1.11.65-2.59,1.39-4.83,3.17-4.7,6.38s2.33,5.33,3.12,8.22-1.05,4.97-2.85,6.9c-1.98,2.12-4.19,4.48-4.64,7.47-.24,1.61.19,2.84.91,4.24.3.58.53,1.03.47,1.7-.08.74-.44,1.43-.5,2.18-.24,3.38,3.77,3.85,6.22,3.14,3.37-.98,4.96-3.78,4.23-7.18-.53-2.43-2.53-5.44-.54-7.58,1.38-1.49,3.48-2.46,4.91-4.19,1.67-2.02,1.94-4.36,1-6.79-.76-1.96-2.5-4.16-2.3-6.36.09-1.01.73-1.62,1.46-2.24,1.07-.9,2.17-1.7,2.95-2.89,1.75-2.64.53-5.59-.25-8.32-.35-1.23-.68-2.57-.23-3.83.53-1.48,1.84-2.69,2.62-4.04,3.45-5.99,2.45-13.29,1.39-19.78-.37-2.28-6.19-.87-5.8,1.55.86,5.26,1.83,11.17-.26,16.27-1,2.44-3.18,4.26-3.85,6.83-.61,2.36.43,4.71,1.05,6.94.28,1,.57,2.1.28,3.14-.26.93-1.01,1.51-1.74,2.09-2.02,1.62-3.74,3.45-3.45,6.22.36,3.49,4.89,7.66,1.6,10.74-1.26,1.18-3.24,2.27-4.5,3.79-1.97,2.37-1.81,4.95-.84,7.74.42,1.21.97,2.54.85,3.85-.01.13-.31,1-.29,1.05-.02-.04.26-.06.14-.11-.37-.18,1.49-.29,1.39-.17,0,0-.16-.18-.15-.22.04-.29-.02-.63.05-.96.12-.55.34-1.08.4-1.64.17-1.62-.78-2.55-1.25-3.98-.83-2.51,1.14-4.94,2.74-6.64,1.86-1.98,3.82-4.01,4.59-6.69.84-2.94-.69-5.44-1.98-7.95-.52-1.02-.99-2.13-1.11-3.28-.11-1.08.23-2.08.88-2.5.7-.45,1.79-.9,2.78-1.59,1.07-.75,2.09-1.78,2.34-3.11.32-1.68-.67-2.94-1.4-4.34-.52-.99-.86-2.07-1.05-3.17-.4-2.27-.04-4.77.94-6.86.92-1.97,2.51-3.81,4.15-4.61.89-.43,2.32-1.52,1.47-2.62-.81-1.04-2.89-.7-3.88-.22h0Z"/>
    <path class="cls-11" d="M331.26,309.92c-4.67,2.26-8,6.79-8.56,11.99-.26,2.38.06,4.88,1.11,7.04.48.99,1.69,2.35,1.44,3.49-.04.16-.03.16.03.03-.16.39.08,0-.27.26-.15.11-.31.21-.47.3.39-.23-.56.28-.64.33-2.56,1.38-4.78,3.22-4.67,6.39s2.32,5.42,3.13,8.37c.76,2.78-1.11,4.89-2.88,6.79-2,2.14-4.16,4.52-4.62,7.54-.25,1.63.2,2.91.93,4.32.29.56.51.97.44,1.61-.08.74-.44,1.43-.5,2.18-.23,3.43,3.73,4.05,6.28,3.33,3.42-.96,4.92-3.97,4.18-7.34-.53-2.45-2.48-5.4-.51-7.47,1.26-1.33,3.55-2.52,4.91-4.19,1.66-2.05,1.91-4.46.97-6.9-.75-1.94-2.49-4.14-2.29-6.32.08-.87.6-1.41,1.24-1.94,1.16-.98,2.36-1.85,3.19-3.15,1.73-2.68.51-5.64-.27-8.4-.34-1.21-.66-2.52-.2-3.75.55-1.48,1.84-2.68,2.62-4.04,3.46-6,2.43-13.36,1.37-19.86-.4-2.48-6.22-1.05-5.8,1.55.85,5.21,1.84,11.15-.28,16.19-1.03,2.43-3.2,4.28-3.84,6.87-.59,2.38.43,4.73,1.06,6.98.27.98.57,2.08.27,3.1-.27.9-1.07,1.44-1.76,2-2.05,1.65-3.73,3.56-3.42,6.36.38,3.5,4.85,7.63,1.57,10.63-.35.32-1.44,1.1-2.07,1.58-.86.66-1.74,1.37-2.43,2.21-1.96,2.39-1.78,5.05-.81,7.85.42,1.2.97,2.51.84,3.8,0,0-.19,1.11-.3,1.01-.04-.03.21-.18.13-.17.16-.03.35-.21.53-.25.25-.08.5-.07.76.02.16.12.13.1-.11-.06.19-.42.48-1.88.55-2.53.17-1.63-.78-2.59-1.27-4.02-.83-2.47,1.21-4.87,2.76-6.53,1.87-2,3.82-4.05,4.58-6.76.83-2.98-.72-5.53-2.03-8.08-.51-.99-.97-2.08-1.07-3.2-.04-.47-.04-1.02.12-1.47.21-.59.35-.6.79-.9.49-.33,1.92-.98,2.78-1.59,1.08-.78,2.07-1.84,2.31-3.2.31-1.7-.67-3.01-1.42-4.42-.52-.98-.85-2.04-1.04-3.13-.39-2.26-.01-4.7.96-6.78s2.48-3.72,4.16-4.53c.96-.46,2.28-1.68,1.42-2.81s-2.84-.85-3.91-.33h0Z"/>
    <path class="cls-25" d="M294.84,309.45c3.63,9.88,15.52,20.43,23.21,27.67,7.86,7.41,11.52,9.26,21.8,10.99,20.02,3.37,41.09,1.83,59.85-6.58,19.35-8.67,34.66-24.38,43.34-44.09,6.06-13.77,4.52-28.04,5.32-42.49-.15-1.52-1.48-10.76-1.63-12.29-10.35-24.98-9.06-30.79-35.56-39.19-16.25-5.34-29-17.4-56.17-10.75-5.86,1.43-12.68,7.02-20.29,9.64-11.45,3.95-24.37,11.66-30.09,20.27-8.35,12.59-10.97,30.74-13.56,47.9-1.96,13-.83,26.33,3.69,38.68.03.08.06.16.09.23Z"/>
    <path class="cls-1" d="M441.53,333.41c2.19-8.66,2.28-22.93.79-27.72.68-4.06,1.45-8.78,2.34-14.47.26-1.65.46-3.24.65-4.82.02-.82.11-1.64.27-2.44,2.88-27.96-4.34-43.79-4.34-43.79-9.26-20.06-28.47-33.7-50.47-35.81-25.82-3.03-51.17,9.37-65.43,23.41-7.08,6.94-11.34,16.26-11.96,26.15-.55,8.46,5.71,18.75,6.73,28.15-8.94-1.65-20.7-.69-19.68,16.29,1.41,23.42,18.14,27.72,26.43,23.89,4.22,11.18,4.04,17.44,3.75,23.82-.3,6.62-3.74,18.72-5.34,21.3l-17.45,4.46c15.16,33.88,72.76,63.6,99.69,18.37l-12.78-8.59.72-6.41c.61.04-.6-.05,9.3-1.77,29.96-6.93,34.19-29.8,36.77-40.01Z"/>
    <path class="cls-19" d="M395.08,379.78l.54-4.85s-29.91-.77-46.98-18.41c0,0,11.33,15.97,25.86,20.09,14.53,4.12,20.59,3.17,20.59,3.17Z"/>
    <path class="cls-22" d="M267.71,384.94s15.96-8.81,27.76-11.12c16.77-3.28,30.48-7.81,30.48-7.81,0,0,12.83,36.36,43.6,38.71,38.39,2.93,26.62-23.32,26.62-23.32,0,0,31.19,15.18,44.21,29.06,10.72,11.43,21.2,41.84-.15,64.97-21.35,23.13-158.84,8.39-158.84,8.39,0,0-13.94-37.17-16.7-56.9-2.76-19.73,3.02-41.97,3.02-41.97Z"/>
    <path class="cls-1" d="M398.95,680.05c0,.34-.07.67-.25.97-1.47,2.52-8.68,12.91-10,23.43-1.19,9.46-2.94,23.21-3.54,27.97-.14,1.13.77,2.14,1.94,2.11,1.62-.05,3.84-.89,5.5-4.53,1.61-4.01,2.85-8.14,3.71-12.36.3-1.48,2.17-2.02,3.26-.94h0c.43.43.63,1.04.52,1.63l-2.33,13.17c-.13.71-.66,1.29-1.38,1.48-2.64.7-9.02,2.75-11.22,6.67-.66,1.18.22,2.63,1.6,2.73l8.78.61c.12,0,.24,0,.35,0l8.83-.98c.35-.04.68-.17.96-.38l8.59-6.51c.27-.2.48-.47.6-.78l9.15-22.6c.83-2.05,1.14-4.29.83-6.48-.87-6.29-1.4-12.62-1.58-18.96-.05-12.38.05-20.35.11-24.03.02-1.22-1.14-2.13-2.35-1.87l-20.97,4.52c-.89.19-1.52.97-1.49,1.87l.38,13.27Z"/>
    <path class="cls-22" d="M429.33,488.94s30.49-8.7,42.3-55.92c0,0-26.9-36.84-53.18-41.74-26.28-4.9-22.82,25.39-22.82,25.39,0,0-19.19,21.27,33.7,72.27Z"/>
    <path class="cls-9" d="M439.01,585.5c.51-11.94,1-24.07,1.47-36.42-.02,0-.04.01-.06.02.33-2.14.57-4.46.55-7.2.98-12.91-.73-42.39.16-55.67-3.23-17.6-5.37-55-14.22-84.12-.66-2.18-1.57-4.28-2.73-6.24-1.01-1.71-2.17-3.7-2.28-3.77-2.08-1.33-10.87-3.19-16.9-6.11,2.42,5.84,11.55,23.24,8.78,40.4-1.15,7.16-2.4,13.45-9.22,15.21-20.47,5.29-47.58,2.64-56.73-19.07-6.26-14.85-14.92-28.02-21.33-42.65-3.01-6.87-3.3-5.99-7.3-12.49-6.94,1.2-24.15,6.96-31.49,8.74,11.28,4.54,12.94,13.71,15.57,23.46,3.47,12.86,8.55,35.47,3.13,50.06-2.96,7.95-3.6,13.42-8.91,20.1-2.58,3.24-5.86,5.88-9.53,7.82-7.41,3.91-14.23,6.05-22.82,6.13-4.2.04-3.67-.79-5.38,2.59-.22.43-.4.88-.55,1.35-4.64,15.02-6.93,30.72-9.96,46.14-2.28,8.54-5.44,20.54-9.16,34.69,62.94,23.44,134.12,40.74,198.91,17.04Z"/>
    <path class="cls-9" d="M439.63,583.88c-55.86,26.61-119.06,6.42-175.03-8.94-6.81-1.87-6.29-23.45-13.31-24.22-4.3-.47-5.25,2.79-8.18,6.32-2.26,2.72-7.6,8.23-12.59,25.09-.92,3.11-1.78,6.24-2.3,9.44-7.06,43.26-9.04,87.05-11.1,130.77-1.56,33.03-.71,67.03-5.14,99.84,15.45,9.15,23.15-2.81,43.7,11.21,18.12,12.36,29,6.1,44.24,0,15.24-6.1,27.94-4.07,47.62,2.03,19.69,6.1,31.44-5.13,42.87-5.64,11.43-.51,11.89,3.19,35.73,1.68,20.27-1.29,27.02-5.34,27.02-8.95-4.34-83.3-8.03-157.11-13.52-238.63Z"/>
    <g>
      <path class="cls-11" d="M325.37,292.36c-.03-.14,1.11-5.52.97,1.2-.07,3.37-3.36-7.95-5.95-10.49-1.18-1.16-2.6-2.46-4.13-3.29-1.54-.83-3.19-1.78-4.93-2.17-2.41-.82-8.84,2.13-11.31,2.55-.42.13,2.63,4.37,2.21,4.5-5.05-19.8-6.84-35.87,9.55-57.93,4.73-6.36,16.51-12.73,20.11-14.79,21.86-12.33,40.66-11.53,63.57-7.13,26.55,5.1,48.17,17.82,52.68,43.86,1.09,6.28-.49,7.51-1.53,13.7,0,0,5.23-11.78-7.18-20.29-12.41-8.51-14.86-8.84-33.13-10.24-21.14-1.71-27.28-5.63-44.75,1.03-15.96,6.12-19.65,12.24-19.65,12.24-1.23,3.57-3.76,6.48-5.58,9.76-1.79,3.23-2.62,6.74-3.12,10.38-1.01,7.44-1.76,4.69-1.66,12.26.07,4.7.59,13.88-4.35,16.52-2.2,1.18.36-.71-1.85-1.67Z"/>
      <path class="cls-11" d="M325.64,292.34c-.01-.69.46-1.31.53-1.96l-.24.03c.02.07.04.14.05.22-.01.07.04.28.04.33.07.57.06,1.16.06,1.73,0,.31-.12.89-.03,1.2.1.36-.02-.35.25.12-.04-.06-.13-.09-.15-.17-.15-.46-.52-.95-.72-1.4-.31-.69-.6-1.39-.9-2.09-.66-1.55-1.31-3.1-2.08-4.6-1.96-3.82-5.68-6.47-9.67-7.92-3.63-1.32-7.33.52-10.8,1.62-.48.15-1.78.25-2.13.6-.24.25-.07.49.06.77.2.45,2.24,3.66,2.15,3.73l.44.04c-1.85-7.27-3.47-14.68-3.54-22.21s1.64-15.17,4.87-22.12c2.04-4.39,4.6-8.54,7.44-12.46,2.23-3.08,5.01-5.56,8.07-7.8,5.71-4.19,12.05-7.89,18.45-10.9,8.15-3.83,16.88-6.19,25.86-6.84,8.81-.63,17.64.29,26.32,1.76,14.56,2.46,29.43,6.53,41.12,15.98,5.25,4.24,9.62,9.53,12.6,15.6,1.54,3.15,2.71,6.48,3.52,9.9.88,3.71,1.38,7.34.46,11.09-.48,1.93-.99,3.84-1.33,5.81-.04.26.45.17.52,0,1.27-2.89,1.4-6.45.74-9.49-1.53-7.01-7.59-10.95-13.3-14.49-4.39-2.72-8.94-4.57-14.05-5.39-7.81-1.25-15.77-1.41-23.62-2.39-6.4-.8-12.86-1.98-19.33-1.63-7.49.41-14.78,2.96-21.53,6.11-4.66,2.17-9.53,4.82-13.06,8.65-.65.7-1,1.24-1.36,2.11-1.7,4.19-4.94,7.52-6.57,11.75-1.49,3.84-1.64,7.91-2.6,11.87-.22.89-.51,1.76-.67,2.67-.26,1.46-.25,2.97-.24,4.44.02,3.17.19,6.35-.23,9.5-.21,1.6-.55,3.21-1.24,4.68-.32.67-.7,1.32-1.2,1.88-.24.27-1.73,1.73-2.08,1.51-.04-.02.09-.68.05-.88-.11-.55-.54-.84-1.01-1.08-.2-.1-.67.17-.41.3.83.42.82.77.85,1.57,0,.22-.1.34.12.48.55.35,1.97-.84,2.34-1.16,2.07-1.8,2.79-4.73,3.13-7.34.4-3.08.25-6.18.23-9.28-.02-2.51.25-4.7.86-7.12,1.02-4.07,1.13-8.25,2.7-12.19s4.72-7.33,6.41-11.36c1.14-2.72,3.79-4.58,6.18-6.21,6.48-4.42,14.2-7.63,21.82-9.44,6.24-1.47,12.47-1.26,18.79-.48,3.68.45,7.34.98,11.02,1.39,4.36.49,8.73.78,13.09,1.17,5.52.49,11.1,1.08,16.19,3.42,2.66,1.22,5.16,2.8,7.6,4.41,3.25,2.15,6.45,4.35,8.56,7.71,2.5,3.98,3.07,9.02,1.61,13.48-.09.26-.17.52-.29.77h.52c.62-3.6,2.05-7.1,1.87-10.8-.2-3.93-1.3-7.96-2.64-11.64-2.34-6.41-6.11-12.21-10.98-16.98-10.34-10.12-24.57-15.29-38.51-18.09-8.88-1.78-17.92-3.14-26.99-3.15-8.72-.01-17.37,1.4-25.57,4.4-7.17,2.62-13.93,6.39-20.36,10.48-3.2,2.04-6.34,4.23-9.13,6.82-3.16,2.93-5.56,6.67-7.77,10.34-4.28,7.09-7.32,14.9-8.13,23.18-.72,7.39.3,14.78,1.9,21.99.43,1.95.91,3.9,1.4,5.84.04.18.34.12.44.04.56-.45-1.05-2.5-1.28-2.89-.17-.29-.97-1.45-.88-1.62,0-.01.92-.19,1.06-.24.53-.15,1.05-.33,1.58-.5,2.2-.73,4.5-1.67,6.83-1.85,1.26-.1,2.44.33,3.58.83,1.68.74,3.36,1.65,4.79,2.81,1.69,1.36,2.89,2.74,3.87,4.66s1.7,3.74,2.51,5.63c.25.59.73,2.4,1.42,2.71.93.42.74-1.3.74-1.67,0-.3.25-3.24-.81-2.51-.46.32-.72,1.73-.71,2.26,0,.27.54.18.54-.05Z"/>
    </g>
    <path class="cls-1" d="M322.39,281.34c1.16.58,11.26-3.27,12.21-1.79,24.02-32.17,82.86-44.82,110.24-13.18-.7-5.42-.18-15.52-.84-17.43-8.4-24.33-29.28-35.69-53.15-40.52-23.87-4.83-54.57-.6-72.1,22.39-17,22.29-21.72,43.8,3.64,50.53Z"/>
    <g>
      <path class="cls-11" d="M349.15,251.68l-.34-.97c-1.43,1.98-3.61,3.41-6,3.94-1.41.31-3.24.63-3.5,2.05-.08.42.02.85-.06,1.26-.49,2.65-5.27.45-7.13,2.4-1.57,1.64.3,4.76-1.14,6.51-1.29,1.56-4.17.75-5.45,2.3-1.59,1.93.82,5.53-1.12,7.12-1.4,1.14-3.81-.04-5.16,1.15-.64.57-.81,1.47-1.03,2.34,4.11,1.92,8.17,4.14,12.52,6.11.16-.98.2-2,.1-2.95-.09-.85-.18-1.79.33-2.47,1.12-1.52,3.69-.26,5.35-1.15,2.91-1.56-.14-6.87,2.27-9.14,1.44-1.36,4.17-.81,5.29-2.45,1.47-2.14-1.27-5.98.95-7.32.68-.41,1.54-.31,2.31-.52,1.52-.41,2.47-2.01,2.62-3.58.15-1.57-.33-3.12-.8-4.62Z"/>
      <path class="cls-11" d="M349.27,251.65l-.34-.97c-.03-.09-.18-.06-.23,0-1.48,1.97-3.52,3.32-5.92,3.89-1.13.27-2.74.45-3.4,1.57-.43.75-.01,1.67-.5,2.4-.54.8-1.69.78-2.55.8-1.18.03-2.5-.08-3.6.47-3.42,1.69.84,6.81-3.6,7.95-1.26.32-2.83.29-3.73,1.38s-.59,2.53-.45,3.76c.11.96.34,2.41-.47,3.17-1.07,1-2.54.57-3.83.73-1.72.22-2.2,1.46-2.58,2.99,0,.04.03.06.05.07,4.2,1.98,8.29,4.19,12.52,6.11.06.03.19-.02.2-.09.12-.85.18-1.7.13-2.57-.09-1.61-.29-3.27,1.83-3.55,1.26-.17,2.59.24,3.77-.4,2.22-1.2,1.21-4.56,1.31-6.56s1.24-3.09,3.21-3.58c1.09-.27,2.36-.49,3.06-1.48.64-.92.5-2.11.35-3.15-.1-.7-.26-1.4-.28-2.11-.05-1.51.78-2.08,2.28-2.39,1.4-.29,2.42-.79,3.08-2.15.98-2.02.3-4.29-.34-6.3-.03-.11-.28-.04-.25.07.75,2.39,1.7,5.99-.89,7.69-1.24.82-3.33.21-3.99,1.88-.5,1.27.11,2.83.22,4.11.09,1.07-.04,2.2-.98,2.88-.84.6-1.95.68-2.91.96-3.27.95-2.78,3.87-2.72,6.66.01.76,0,1.58-.31,2.28-.62,1.37-2.12,1.43-3.43,1.41-1.15-.01-2.58-.03-3.15,1.19-.33.69-.21,1.48-.15,2.21.05.63.06,1.25.02,1.87-.07,1.03-.46.73-1.22.37-2.53-1.19-5.01-2.46-7.51-3.71-.92-.46-2.05-.83-2.9-1.42-.74-.51-.77-.88-.35-1.75.49-1.03,1.34-1.33,2.37-1.4,1.29-.09,2.87.2,3.75-1.02.78-1.09.37-2.65.25-3.87-.1-1.07-.14-2.24.7-3.04.81-.77,2.02-.81,3.06-1.03,1.27-.27,2.4-.83,2.71-2.2.38-1.69-.73-4,.62-5.39s3.71-.68,5.4-.98c.44-.08.9-.21,1.24-.51.62-.56.45-1.25.56-2,.23-1.59,1.96-1.83,3.26-2.13,1.07-.25,2.09-.61,3.05-1.16.8-.46,1.54-1.03,2.19-1.68.17-.17.38-.37.52-.57.23-.32.22-.52.32-.42.14.15.2.57.27.78.04.11.28.04.25-.07Z"/>
    </g>
    <g>
      <path class="cls-11" d="M345.81,237.26c1.13,1.39,1.24,3.53.25,5.02-.99,1.5-2.99,2.24-4.72,1.75.56,2.26-1.09,4.81-3.37,5.24-.98.18-2.06.04-2.91.56-2.09,1.27-.96,5.16-3.08,6.4-.8.47-1.83.37-2.62.86-1.61.99-1.17,3.59-2.44,5-1.55,1.73-4.81.86-6.25,2.67-1.01,1.27-.79,3.52-2.29,4.16-.78.34-1.78.05-2.47.55-.83.61-.62,1.87-.73,2.89-.27,2.54-3.51,4.22-5.75,2.99-.24,1.7-1.22,3.28-2.64,4.25-.89-1.76-1.79-3.59-1.9-5.56-.11-1.97.8-4.14,2.63-4.89.71-.29,1.52-.36,2.13-.82,1.56-1.15.98-4.01,2.62-5.04,1.1-.7,2.8-.24,3.63-1.24.4-.48.45-1.16.61-1.76.59-2.15,3.02-3.59,5.19-3.08.61.14,1.25.42,1.85.24,1.74-.54.59-3.37,1.56-4.92.95-1.52,3.62-1.22,4.41-2.82.26-.53.24-1.16.45-1.72.33-.88,1.17-1.45,1.97-1.96,4.09-2.59,8.27-5.05,12.53-7.36"/>
      <path class="cls-11" d="M345.69,237.3c2.29,3.1-.22,7.64-4.25,6.67-.04-.01-.24,0-.22.09.53,2.66-1.33,4.89-3.94,5.24-1.13.15-2.24.14-2.99,1.14-.79,1.05-.79,2.51-1.12,3.73-.29,1.08-.78,1.91-1.93,2.28-.66.22-1.37.22-1.97.61-1.16.74-1.29,2.23-1.66,3.43-.33,1.07-.87,1.91-1.94,2.36-.85.36-1.8.43-2.69.64-1.07.25-2.08.65-2.67,1.64-.36.6-.5,1.3-.72,1.96-.11.31-.21.64-.37.93-.46.81-1.58.95-2.44,1.1-1.36.23-1.6,1.22-1.66,2.48-.05,1.12-.26,2.05-1.08,2.88-1.18,1.19-2.98,1.57-4.49.83-.05-.02-.21,0-.22.07-.21,1.21-.7,2.34-1.53,3.26-.1.11-.63.74-.79.74-.32-.02-.44-.53-.55-.76-.31-.64-.6-1.28-.84-1.95-.83-2.29-.97-5.36,1.18-7.02.88-.68,2.09-.64,2.97-1.3.61-.46.89-1.15,1.11-1.86.27-.87.37-1.87.93-2.62.93-1.26,2.5-.74,3.68-1.38.52-.28.78-.73.95-1.29.4-1.33.7-2.41,1.92-3.25.99-.69,2.14-.89,3.3-.66.49.1.97.3,1.47.28.35-.01.71-.12.99-.34,1.2-.98.4-3.2,1.01-4.47.84-1.74,3.34-1.3,4.39-2.81.3-.44.35-.95.46-1.46.2-.87.64-1.42,1.34-1.94,1.38-1.05,2.95-1.89,4.42-2.78,2.9-1.76,5.84-3.44,8.82-5.06.14-.08-.08-.09-.15-.05-2.7,1.47-5.36,2.98-7.99,4.56-1.05.63-2.09,1.26-3.12,1.91-.95.59-2.1,1.15-2.86,2-.71.79-.57,1.73-1.02,2.61-.56,1.12-2.03,1.29-3.06,1.77-1.45.67-1.74,1.8-1.81,3.31-.02.5,0,1.04-.14,1.53-.29,1.05-1.26,1.14-2.21.92-.72-.17-1.39-.27-2.12-.13-1.45.27-2.8,1.22-3.43,2.56-.23.5-.29,1.03-.45,1.55-.37,1.14-1.25,1.38-2.3,1.55-.63.1-1.28.19-1.81.59-1.46,1.08-1.02,3.26-2.11,4.58-.85,1.02-2.47.94-3.48,1.79-.72.61-1.2,1.46-1.47,2.35-.77,2.63.51,5.25,1.67,7.55.03.07.18,0,.22-.02.91-.67,1.65-1.5,2.13-2.53.16-.34.25-.68.38-1.03.22-.6-.02-.37.48-.41.38-.02.82.18,1.22.18,1.64-.03,3.35-1.05,3.97-2.61.41-1.04-.12-2.76.72-3.55.53-.5,1.56-.41,2.24-.59.33-.09.63-.21.89-.44.67-.57.85-1.51,1.11-2.31.24-.74.5-1.48,1.13-1.99.76-.61,1.79-.75,2.71-.94,1.93-.38,3.34-.94,3.96-2.95.15-.49.25-1,.4-1.5.45-1.45.94-1.77,2.58-2.3.71-.23,1.33-.34,1.84-.94,1.59-1.88.32-5.53,3.39-6.19,1.01-.22,1.95-.08,2.9-.54s1.66-1.2,2.11-2.1c.25-.49.41-1.03.46-1.58.01-.15-.09-.89-.02-.98.18-.26.04-.06.39-.11,1-.14,1.81-.05,2.74-.57,2.35-1.29,2.82-4.33,1.26-6.43-.04-.05-.28.03-.23.09h0Z"/>
    </g>
    <g>
      <path class="cls-11" d="M342.98,231.95c.3,2.78-2.11,5.55-4.91,5.64-.55.02-1.13-.05-1.62.18-1.04.48-1.16,1.87-1.65,2.91-1.1,2.35-4.21,2.89-6.79,2.63-1.65-.16-3.77-.29-4.48,1.21-.28.59-.24,1.32-.62,1.85-1,1.42-3.9.38-4.58,1.98-.31.73.11,1.61-.16,2.36-.58,1.59-3.12.84-4.5,1.82-.64.45-.94,1.23-1.21,1.97-.83,2.24-1.66,4.48-2.48,6.73-.2.55-.49,1.18-1.05,1.32-.96.25-1.56-1.01-1.7-2-.81-5.52-.17-11.24,1.82-16.45.5-1.3,1.48-2.81,2.86-2.58.46.08.91.35,1.35.21.72-.23.7-1.22.71-1.98.02-3.12,3.53-5.67,6.5-4.74.8.25,1.72.69,2.41.21.46-.32.6-.92.89-1.4.75-1.22,2.43-1.47,3.85-1.32,1.43.14,2.89.55,4.27.16,1.73-.48,3.05-2.15,4.85-2.24,2.17-.11,4.31,2.14,6.25,1.15"/>
      <path class="cls-11" d="M342.86,231.96c.16,2.29-1.27,4.54-3.47,5.28-1.38.47-3.02-.14-3.88,1.33-.38.65-.5,1.42-.82,2.1-.54,1.13-1.57,1.84-2.74,2.22-1.74.57-3.43.28-5.21.24-1.09-.02-2.48.09-3.15,1.09-.6.89-.31,2.02-1.41,2.6-.72.38-1.58.32-2.37.49-1.14.24-1.73.8-1.69,2.02.02.58.14,1.26-.28,1.77s-1.15.59-1.73.68c-.66.1-1.35.15-1.97.41-1.3.55-1.66,1.98-2.11,3.19-.39,1.05-.77,2.09-1.16,3.14-.22.6-.44,1.2-.66,1.79-.16.44-.27,1.08-.57,1.45-1.3,1.6-2.04-.17-2.22-.94-.11-.46-.15-.95-.2-1.42-.15-1.34-.21-2.69-.19-4.04.03-2.26.3-4.52.79-6.72.28-1.24.63-2.47,1.05-3.67.34-.97.77-2.43,1.72-2.99.76-.45,1.37-.23,2.13-.15.21.02.33.06.57-.01.41-.13.6-.47.71-.87.17-.6.05-1.24.14-1.85.18-1.12.82-2.15,1.67-2.88s1.85-1.19,2.92-1.29,1.92.37,2.93.54c.58.1,1.11.03,1.53-.42.81-.86.82-1.83,2.13-2.27,2.22-.74,4.52.62,6.75-.1.78-.25,1.45-.71,2.13-1.14,1.42-.89,2.68-1.28,4.32-.68,1.48.54,2.92,1.45,4.5.78.15-.07.02-.21-.11-.15-2.11.9-4.06-1.27-6.18-1.16-2.14.11-3.54,2.19-5.68,2.39-1.96.18-3.9-.76-5.83-.09-.64.22-1.19.59-1.57,1.16-.45.69-.43,1.52-1.73,1.54-.56,0-1.17-.36-1.72-.49-2.83-.65-5.98,1.57-6.34,4.44-.05.41-.01.82-.06,1.22-.08.75-.04.66-.82.85-1.58.39-.24.15-.88.12-.56-.03-.94-.08-1.45.22-1.61.93-2.13,3.35-2.6,4.97-.67,2.33-1.09,4.72-1.24,7.14-.14,2.29-.19,4.84.34,7.09.2.88.86,2.14,1.95,1.68.55-.23.78-.81.99-1.33.51-1.25.94-2.54,1.41-3.81.42-1.13.8-2.28,1.26-3.39.63-1.52,1.69-1.83,3.17-2.06.9-.14,2.02-.29,2.36-1.28.45-1.29-.51-2.72,1.41-3.19.8-.2,1.66-.13,2.43-.45.35-.14.67-.35.89-.67.24-.35.28-.73.39-1.12.34-1.21,1.06-1.78,2.3-1.92,2.01-.22,3.94.36,5.95-.19,1.65-.45,2.89-1.43,3.48-3.05.18-.49.3-1.02.58-1.47.7-1.1,1.65-.86,2.67-.97.78-.09,1.52-.37,2.18-.8,1.66-1.08,2.65-2.95,2.51-4.92,0-.13-.26-.1-.25.02h0Z"/>
    </g>
    <g>
      <path class="cls-11" d="M339.09,228.38c-3.54,1.23-6.93-4.18-10.44-2.86-1.7.64-2.99,2.77-4.74,2.3-.8-.22-1.44-.98-2.27-.97-1.73.01-1.66,2.76-2.9,3.97-1.54,1.51-4.53.07-6.11,1.54-.44.41-.69,1-1.1,1.44-.77.84-1.98,1.06-3.05,1.44-1.07.38-2.21,1.16-2.24,2.29-2.01-4.15-.53-9.66,3.29-12.24.41-.28.86-.54,1.14-.95.27-.4.36-.89.49-1.36.64-2.35,2.63-4.29,5-4.87.83-.2,1.74-.27,2.38-.84.9-.79.86-2.19,1.39-3.27,1.25-2.51,4.88-2.38,7.18-3.98.96-.66,1.67-1.63,2.57-2.35.97-.78,2.16-1.28,3.4-1.42.98-.11,2.16.1,2.61.98.31.6.19,1.34.35,2,.43,1.67,2.45,2.26,4.16,2.47,1.71.21,3.71.48,4.53,2,1.16,2.14-1.09,4.62-.99,7.06.04,1.07.55,2.09.5,3.15-.05.98-.55,1.86-1.05,2.71-.87,1.49-1.75,2.99-2.62,4.48"/>
      <path class="cls-11" d="M339.08,228.33c-2.91.88-5.32-2.08-7.9-2.87-.75-.23-1.54-.29-2.3-.07-1.23.35-1.96,1.43-3.07,1.96-.55.27-1.53.45-2.09.27-.29-.09-.53-.27-.79-.42-.21-.12-.42-.24-.65-.32-.29-.09-.58-.13-.88-.07-.71.14-1.11.72-1.4,1.34-.26.55-.43,1.14-.7,1.68-.65,1.3-1.8,1.65-3.2,1.7-.97.03-2.01-.04-2.91.39-.55.26-.88.66-1.23,1.15-.8,1.14-1.86,1.56-3.16,2-1.22.41-2.51,1.06-2.68,2.47l.27-.06c-1.04-2.26-1.16-4.81-.4-7.18.37-1.16.95-2.27,1.72-3.22.82-1.01,1.98-1.56,2.85-2.47.71-.75.74-1.9,1.18-2.8.68-1.39,1.82-2.53,3.21-3.21,1.06-.52,2.39-.46,3.4-1.1.9-.57,1.09-1.55,1.37-2.5.84-2.86,3.51-3.18,5.92-4.15,2.69-1.08,4.06-3.97,7.04-4.49,1-.18,2.35-.12,2.91.9.33.61.17,1.35.35,2,.27.96,1.04,1.56,1.92,1.94,2.01.85,4.85.26,6.41,2.03,1.98,2.25-.9,5.42-.6,7.96.09.8.41,1.55.46,2.36.06,1.01-.36,1.87-.83,2.73-.9,1.63-1.89,3.23-2.83,4.84-.03.05.22.03.26-.04.94-1.61,1.92-3.21,2.83-4.84s.9-2.63.53-4.32c-.33-1.55,0-2.83.52-4.3.4-1.15.89-2.44.42-3.64-.91-2.35-4.02-2.05-6-2.56-1.41-.36-2.64-1.08-2.9-2.61-.23-1.39-.33-2.34-1.9-2.59-2.07-.33-4.09.87-5.5,2.26-1.21,1.18-2.34,2.04-3.94,2.6-1.1.39-2.25.68-3.27,1.26-.71.41-1.32.95-1.69,1.69-.33.66-.41,1.4-.67,2.08-.55,1.43-1.85,1.64-3.16,2-2.12.58-3.93,2.18-4.73,4.23-.36.93-.37,1.79-1.2,2.51-.53.46-1.17.79-1.69,1.27-.99.92-1.76,2.05-2.3,3.29-1.12,2.6-1.15,5.57.04,8.15.03.06.26,0,.27-.06.31-2.49,3.44-2.15,4.99-3.44,1.25-1.04,1.13-2.12,3.16-2.37.74-.09,1.5,0,2.25-.08.98-.09,1.86-.39,2.44-1.23.43-.61.64-1.35.93-2.03.15-.35.33-.81.62-1.07.98-.86,1.78,0,2.53.36.85.42,1.63.32,2.44-.13s1.4-1.08,2.15-1.55c1.24-.78,2.47-.69,3.73-.16,2.39,1.01,4.68,3.45,7.48,2.61.15-.05.13-.15-.03-.1h0Z"/>
    </g>
    <g>
      <path class="cls-11" d="M349.11,229.12c2.1-.78,3.13-3.61,2.02-5.55-.37-.65-.95-1.38-.6-2.04.15-.29.44-.46.69-.66,1.6-1.27,1.78-3.97.35-5.43-.3-.31-.66-.57-.86-.96-.8-1.59,1.75-3.67.61-5.04-.96-1.15-2.99.16-4.29-.58-1.26-.72-.96-2.83-2.13-3.7-1.74-1.29-5.04,1.22-6.05-.69-.53-1,.42-2.22,1.5-2.55,1.08-.33,2.25-.13,3.37-.27,2.9-.36,5-2.9,7.65-4.16,2.76-1.31,5.95-1.16,9-.99,1.31.08,2.66.16,3.83.75,1.8.9,2.91,3.03,2.62,5.02-.06.39-.15.82.07,1.14.13.19.35.3.55.4,1.03.5,2.06,1.01,3.09,1.51.39.19.81.42.97.82.36.93-.92,1.65-1.92,1.66-1,.01-2.24-.09-2.75.77-.94,1.61,2.28,3.18,1.78,4.98-.51,1.86-3.99,1.04-4.73,2.82-.44,1.06.48,2.25.28,3.38-.21,1.16-1.49,1.78-2.64,2.02-1.16.23-2.43.3-3.33,1.05-.69.57-1.04,1.44-1.54,2.19-1.5,2.28-4.24,3.33-6.81,4.25"/>
      <path class="cls-11" d="M349.15,229.16c1.27-.54,2.17-1.62,2.46-2.98.15-.69.12-1.43-.11-2.1-.18-.5-.51-.91-.73-1.39-.39-.84.21-1.46.78-2.03,1.08-1.06,1.4-2.8.83-4.2-.31-.75-.93-1.13-1.38-1.77-.65-.92-.12-1.94.27-2.84.44-1.02.9-2.49-.56-2.91-.6-.17-1.27-.01-1.86.05-1.75.17-2.34-.62-2.84-2.11-.43-1.31-1.05-2.19-2.52-2.17-1.24.02-5.14,1.41-4.62-1.19.24-1.22,2.08-1.65,3.11-1.75.43-.04.87,0,1.31-.03.89-.07,1.73-.3,2.54-.68,1.79-.85,3.25-2.24,4.98-3.21,2.64-1.48,5.71-1.49,8.65-1.34,2.77.14,5.78.4,6.95,3.35.4,1.01.19,1.8.25,2.83.07,1.12.86,1.25,1.81,1.71.66.32,1.34.63,1.98.97,1.33.71,1.57,2.04-.8,2.37-.64.09-1.29-.05-1.93.14-3.62,1.13,2.78,4.76.07,6.54-1.13.74-2.97.43-3.83,1.64-.51.73-.23,1.55-.04,2.34.52,2.16-.97,3.04-2.95,3.4-.86.16-1.77.27-2.53.75-.86.55-1.26,1.46-1.79,2.29-1.53,2.4-4.28,3.45-6.84,4.37-.16.06-.01.12.09.09,1.88-.68,3.82-1.39,5.38-2.67.79-.65,1.37-1.42,1.89-2.29.48-.81.88-1.4,1.77-1.83s1.68-.49,2.58-.69c1.26-.28,2.75-.95,2.8-2.44.03-1-.74-2.04-.31-3.03.49-1.14,2.06-1.18,3.1-1.51.95-.3,1.85-.88,1.66-2.02-.23-1.42-2.41-2.53-1.9-4.06.55-1.68,3.84-.23,4.7-1.88,1.01-1.94-4.26-2.49-4.67-3.87-.11-.37.12-1.21.1-1.67-.03-.53-.14-1.06-.34-1.55-.37-.94-1.02-1.77-1.87-2.33-1.78-1.18-4.27-1.06-6.32-1.13-2.26-.07-4.61.03-6.72.92-1.98.83-3.53,2.35-5.38,3.39-1.46.82-2.83.93-4.47.99-.76.03-1.55.1-2.2.53-1,.66-1.64,2.31-.26,2.95,1.36.64,3.07-.5,4.49-.27,2.22.35,1.41,3.12,3.05,4.05.72.41,1.58.21,2.35.14,1.86-.17,2.55.82,1.91,2.44-.31.79-.87,1.64-.75,2.52.14,1.03,1.3,1.58,1.69,2.51.48,1.14.35,2.62-.38,3.64-.52.72-1.56,1.05-1.43,2.07.08.59.58,1.1.82,1.63.2.46.31.96.32,1.46.02,1.6-.92,3.12-2.4,3.75-.16.07-.01.13.09.09h0Z"/>
    </g>
    <g>
      <path class="cls-11" d="M350.42,234.52c.5-2.74,4.58-2.38,6.97-3.81,1.83-1.09,2.79-3.42,4.8-4.11,1.45-.5,3.31-.11,4.31-1.27.58-.68.62-1.66,1.02-2.45,1.51-3.05,7.01-2.07,8.42-5.17,1.26-2.79-2.03-6.58.02-8.86.64-.71,1.66-1.02,2.2-1.8,1.08-1.58-.48-3.6-1.92-4.87-2.01-1.77-4.02-3.54-6.03-5.31,5.06-2.08,10.72-2.66,16.09-1.65,1.97.37,4,1.01,5.4,2.45,1.4,1.44,1.93,3.88.72,5.48-.36.47-.84.84-1.11,1.36-1.22,2.28,2.05,5.7.05,7.35-.46.38-1.1.51-1.55.9-1.32,1.16-.19,3.6-1.31,4.94-.98,1.17-2.92.71-4.22,1.5-.79.48-1.23,1.35-1.84,2.03-.85.95-2.02,1.55-3.17,2.13-3.25,1.63-6.49,3.27-9.74,4.9-2.3,1.16-4.79,2.34-7.32,1.94-2.05,4.4-7.92,6.55-12.33,4.5"/>
      <path class="cls-11" d="M350.54,234.51c.51-2.18,3.19-2.41,4.99-2.94,1.6-.48,2.73-1.27,3.84-2.51.75-.84,1.51-1.79,2.56-2.26s2.18-.34,3.24-.62c2.08-.55,1.7-2.51,2.87-3.92,1.98-2.39,6.29-1.43,7.89-4.3.82-1.48.27-3.24-.12-4.75-.23-.89-.5-1.83-.41-2.75.15-1.55,1.33-1.93,2.35-2.83,1.3-1.14.93-2.7,0-3.97-1.4-1.93-3.56-3.41-5.33-4.98-.47-.41-1.27-.89-1.6-1.4-.45-.71.67-.8,1.27-1,1.46-.48,2.96-.85,4.48-1.09,2.69-.42,5.44-.46,8.14-.11,2.55.33,5.72.94,7.32,3.2.78,1.11,1.19,2.62.74,3.95-.35,1.01-1.33,1.55-1.71,2.52-.55,1.38.23,2.95.59,4.27.26.96.47,2.06-.38,2.8-.65.56-1.5.61-1.96,1.4s-.32,1.87-.39,2.78c-.15,1.95-1.43,2.32-3.11,2.63-.83.15-1.56.37-2.18.97-1.07,1.04-1.73,2.19-3.06,2.98-2.7,1.6-5.64,2.88-8.45,4.29-3.04,1.53-6.34,3.7-9.88,3.26-.06,0-.13.02-.16.08-2.14,4.37-7.68,6.39-12.14,4.43-.11-.05-.29.11-.14.17,2.27,1,4.82,1.01,7.14.17,1.13-.41,2.19-1.02,3.11-1.8.41-.35.8-.74,1.14-1.16.3-.37.62-1.21.99-1.49.46-.35,1.68-.15,2.24-.23.77-.12,1.52-.34,2.24-.61,1.85-.69,3.6-1.67,5.36-2.56,1.92-.97,3.84-1.93,5.76-2.9,1.42-.71,2.98-1.35,4.2-2.39.51-.44.9-.98,1.32-1.51.78-1,1.66-1.36,2.88-1.57.93-.16,1.93-.31,2.52-1.12.72-.98.41-2.3.58-3.42.18-1.19.94-1.49,1.87-2.07.33-.21.63-.47.81-.82,1.14-2.26-1.92-4.79-.34-7.06.77-1.11,1.61-1.75,1.62-3.21,0-1.27-.54-2.52-1.41-3.44-2.38-2.49-6.67-2.86-9.89-2.95-4.03-.11-8.02.64-11.75,2.14-.06.03-.09.1-.04.15,2.05,1.81,4.16,3.57,6.16,5.43.88.82,1.89,1.89,2.08,3.13.26,1.66-1.24,2.16-2.24,3.05-2.78,2.47,1.21,6.49-.42,9.37-1.65,2.91-6.24,1.81-8.09,4.57-.57.85-.53,2.02-1.22,2.79-.88,1-2.4.82-3.59,1.06-1.67.34-2.67,1.57-3.76,2.77-1.69,1.86-3.6,2.2-5.88,2.92-1.33.42-2.54,1.04-2.88,2.49-.03.12.22.1.25-.02h0Z"/>
    </g>
    <g>
      <path class="cls-11" d="M354.38,241.64c2.92,2.42,7.61,2.35,10.46-.16.95-.84,1.7-1.9,2.74-2.63,3.01-2.13,7.54-.93,10.43-3.21,1.58-1.24,2.34-3.29,3.87-4.59,3.05-2.59,8.17-1.51,11.03-4.3.73-.72,1.26-1.65,2.13-2.2,1.38-.88,3.24-.56,4.69-1.31,1.92-.99,2.65-3.56,4.63-4.42,1.17-.52,2.64-.35,3.63-1.16,1.73-1.42.76-4.7,2.59-5.99.71-.5,1.68-.53,2.4-1.03,1.74-1.19.92-3.99-.56-5.5-1.87-1.91-4.4-3.01-6.86-4.07-.58-.25-1.15-.5-1.73-.74-2.93-1.26-6.51-2.46-9.1-.61-.51.36-.98.98-.77,1.57.11.31.38.52.63.72,1.88,1.48,3.75,2.96,5.63,4.43-1.91.32-2.46,2.79-2.39,4.73.07,1.94.13,4.29-1.51,5.31-.83.51-2,.58-2.53,1.41-.4.64-.24,1.48-.46,2.21-.64,2.16-3.71,1.99-5.8,2.84-1.47.6-2.56,1.83-3.77,2.85-1.4,1.18-2.99,2.09-4.58,3-1.43.82-2.87,1.64-4.3,2.46-4.01,2.29-8.02,4.59-12.16,6.62-2.91,1.43-5.89,2.72-8.92,3.88"/>
      <path class="cls-11" d="M354.29,241.71c1.92,1.51,4.39,2.09,6.79,1.65,1.06-.19,2.1-.59,3-1.18,1.37-.9,2.24-2.34,3.58-3.28,2.5-1.75,5.79-1.23,8.57-2.21,2.83-1.01,3.6-3.77,5.73-5.59,2.25-1.92,5.47-1.81,8.16-2.68.95-.31,1.87-.74,2.63-1.4.43-.37.79-.82,1.16-1.26.92-1.08,1.87-1.57,3.25-1.81,1.01-.17,2.04-.27,2.93-.83,1.08-.67,1.74-1.81,2.54-2.76.5-.6,1.05-1.16,1.78-1.49s1.59-.36,2.37-.57c.88-.24,1.59-.7,2.01-1.54.45-.91.5-1.96.72-2.93s.52-1.8,1.44-2.3c.66-.36,1.44-.41,2.08-.84,1.77-1.19.99-3.75-.08-5.14-1.68-2.19-4.5-3.36-6.95-4.43-2.64-1.14-5.55-2.66-8.52-2.46-1.35.09-4.93,1.37-3.26,3.17,1.01,1.1,2.47,1.96,3.65,2.89.24.19,2.11,1.42,2.03,1.68,0,0-.95.55-1.03.63-1.67,1.69-.98,4.37-1.19,6.47-.08.81-.26,1.66-.78,2.31s-1.17.82-1.86,1.1c-1.13.46-1.55,1.01-1.69,2.23-.24,2.21-1.85,2.66-3.75,3.1-1.27.29-2.43.62-3.5,1.39-1.48,1.07-2.71,2.41-4.24,3.43-1.84,1.22-3.81,2.26-5.73,3.35-7.27,4.16-14.54,8.23-22.38,11.24-.16.06-.02.2.11.15,9.12-3.51,17.54-8.43,25.99-13.31,1.88-1.09,3.58-2.29,5.2-3.73.85-.76,1.73-1.47,2.82-1.87.83-.3,1.7-.44,2.55-.66,1.05-.27,2.24-.63,2.82-1.63.38-.65.24-1.36.43-2.05.42-1.49,1.67-1.37,2.73-2.04,1.36-.86,1.57-2.58,1.58-4.04.02-2.02-.34-5.36,2.26-5.97.07-.02.15-.1.07-.16-1.69-1.33-3.38-2.66-5.06-3.99-.19-.15-.38-.29-.56-.44-.59-.51-.49-.34-.16-1.3.28-.83.23-.9.91-1.24.31-.16.65-.28.99-.37,1.07-.28,2.2-.2,3.27,0,1.87.37,3.63,1.17,5.37,1.92,1.8.77,3.62,1.53,5.26,2.61,1.51,1,2.99,2.3,3.4,4.15.19.82.18,1.79-.4,2.47-.72.85-1.93.79-2.79,1.39-2.53,1.75-.39,5.78-4.13,6.64-1.19.27-2.25.41-3.19,1.25-1.2,1.07-1.87,2.68-3.27,3.53-1.51.92-3.44.53-4.95,1.47-1.39.88-2.07,2.45-3.58,3.23-2.65,1.38-5.85,1.09-8.49,2.53-1.27.69-2.12,1.77-2.94,2.94-1.15,1.64-2.34,2.94-4.32,3.52-3.29.97-6.68.47-9.28,3.09-1.74,1.76-3.27,3.16-5.83,3.48-2.17.27-4.35-.34-6.06-1.69-.09-.07-.3.06-.19.14h0Z"/>
    </g>
    <g>
      <path class="cls-11" d="M393.71,231.38c-.97-1.09.15-2.88,1.51-3.41,1.36-.53,2.93-.43,4.24-1.1,1.69-.87,2.53-2.82,4.03-3.99,1.59-1.24,3.72-1.45,5.63-2.12,1.9-.67,3.85-2.24,3.65-4.25-.11-1.08-.78-2.33-.03-3.11.77-.79,2.33-.21,3.05-1.05.8-.94-.41-2.4-.05-3.59.24-.79,1.12-1.22,1.94-1.31,2.84-.31,5.15,2.12,6.96,4.33,2.11,2.57,4.21,5.14,6.32,7.72.15.18.29.36.38.57.41.97-.65,2.02-1.7,2.08-1.05.06-2.01-.49-2.97-.91-.96-.42-2.12-.7-3.01-.14-.89.56-1.16,1.74-1.88,2.5-1.77,1.87-5.01.41-7.41,1.33-1.49.57-2.51,2.02-4,2.58-1.52.56-3.23.09-4.84.33-2.25.33-4.04,1.97-5.94,3.24-1.89,1.26-4.44,2.18-6.38.99"/>
      <path class="cls-11" d="M393.82,231.33c-.64-.88-.28-1.89.43-2.62.88-.89,2.14-.97,3.29-1.2s2.23-.59,3.14-1.44c1.14-1.07,1.89-2.5,3.2-3.38,1.58-1.06,3.53-1.23,5.27-1.87,2.26-.83,4.11-2.53,3.58-5.08-.27-1.34-.53-2.36,1.35-2.75.43-.09.86-.05,1.26-.24.9-.43.87-1.27.67-2.13-.25-1.13-.57-2.19.76-2.85,1.09-.54,2.5-.21,3.54.3,1.58.78,2.82,2.15,3.93,3.48s2.27,2.76,3.4,4.15c.63.77,1.26,1.54,1.89,2.32.81.99,2.69,2.56.98,3.74s-3.68-.88-5.38-1.03c-1-.08-1.78.29-2.36,1.09-.54.74-.81,1.62-1.61,2.15-.88.59-2.01.58-3.03.57-1.17-.01-2.38-.13-3.52.21-1.57.47-2.56,1.88-4.01,2.55-1.95.91-4.25.04-6.29.75-3.54,1.22-6.94,6.19-11.05,3.94-.08-.04-.3.07-.19.13,2.91,1.59,5.88-.53,8.21-2.18.86-.61,1.75-1.22,2.73-1.62,1.42-.58,2.83-.43,4.32-.45,1.58-.02,2.7-.52,3.92-1.49.84-.66,1.66-1.33,2.73-1.58s2.17-.13,3.23-.12c1.16.01,2.43-.05,3.36-.83.47-.39.75-.92,1.06-1.44.53-.9,1.78-1.58,2.79-1.47.77.08,1.49.54,2.19.83.98.4,2.11.69,3.06.05,1.45-.98.57-2.13-.28-3.17-1.53-1.86-3.05-3.73-4.58-5.59-1.93-2.36-4.33-5.83-7.78-5.73-.95.03-2.13.4-2.45,1.4-.17.53-.02,1.09.1,1.61.09.39.26.81.2,1.21-.15,1-1.11,1.14-1.93,1.27-.9.15-1.67.45-1.72,1.5-.05.98.52,1.88.37,2.87-.19,1.2-1.11,2.17-2.11,2.79-1.91,1.18-4.27,1.22-6.24,2.28-1.64.88-2.47,2.5-3.79,3.74-1.71,1.61-4.09.98-5.91,2.21-1.04.7-1.81,2.08-.98,3.21.06.08.29-.01.23-.1h0Z"/>
    </g>
    <g>
      <path class="cls-11" d="M410.79,229.71c1.62-1.82,4.76-.27,7-1.21,1.38-.58,2.36-2.09,3.86-2.19,1.79-.12,3.49,1.87,5.11,1.11,1.09-.51,1.45-2.05,2.58-2.46,1.04-.38,2.12.39,2.92,1.14,2.75,2.57,5.06,5.61,6.81,8.95.2.37.39.77.36,1.19-.08.95-1.32,1.42-2.2,1.08-.89-.34-1.46-1.2-1.93-2.02-.48-.82-.95-1.7-1.77-2.19-2.4-1.44-5.66,1.46-8.15.19-.76-.39-1.33-1.13-2.14-1.39-1.88-.61-3.84,1.64-5.71.98-.69-.25-1.18-.84-1.77-1.27-.97-.7-2.25-.95-3.41-.66-.54.14-1.08.39-1.64.33-.56-.06-1.1-.65-.86-1.15"/>
      <path class="cls-11" d="M410.91,229.71c1.73-1.7,4.53-.38,6.63-1.05.81-.26,1.44-.8,2.11-1.31.88-.66,2.06-1.15,3.16-.78.53.17,1.01.44,1.52.66,1.05.45,2.12.67,3.05-.14,1.23-1.06,1.49-2.92,3.78-1.71,1.2.64,2.23,1.94,3.13,2.95,1.8,2.02,3.52,4.31,4.68,6.76.43.91.82,2.96-1.63,2.19-.54-.17-.99-.66-1.33-1.1-.69-.9-1.06-2.03-1.93-2.78-1.13-.99-2.61-.79-3.96-.46-1.05.26-2.13.66-3.22.64-1.47-.02-2.14-1.15-3.37-1.64-2.33-.94-4.35,2.13-6.63.46-.89-.65-1.54-1.31-2.66-1.53-.42-.08-.82-.1-1.25-.06-.95.1-3.31,1.03-2.98-.69.01-.08-.23-.04-.24.04-.16.86.59,1.24,1.35,1.19.56-.04,1.1-.32,1.65-.4,1.48-.21,2.56.42,3.63,1.31,2.1,1.74,3.63-.11,5.9-.3,1.54-.13,2.24,1.26,3.61,1.63.94.25,1.92.05,2.84-.17,1.33-.32,2.81-.95,4.17-.49,1.54.52,1.98,2.17,2.88,3.34.78,1.01,2.69,1.95,3.6.49.58-.92-.35-2.09-.8-2.88-.8-1.39-1.69-2.72-2.67-3.98-.94-1.2-1.95-2.33-3.04-3.39-.8-.78-1.84-1.82-3.07-1.7-.57.06-.99.35-1.38.75s-.64.94-1.05,1.32c-1.21,1.13-2.3.47-3.44-.04-.83-.37-1.68-.73-2.61-.53-1.3.28-2.13,1.43-3.27,2.02-2.31,1.18-5.35-.58-7.36,1.39-.06.06.18.05.23,0h0Z"/>
    </g>
    <path class="cls-11" d="M308.43,278.98c-2.37.97,13.72,4.91,13.96,2.37.24-2.55,2.9-5.9,4.94-7.44,2.04-1.54-12.7,6.57-10.43-5.59-2.09-1.66-5.81,6.14-8.32,5.21-3.26-1.21,1.89-6.01,3.63-9.02,1.74-3.01,1.8-4.19,3.7-7.1.72-1.09-1.33-3.64-2.41-4.38-.41-.28-.92-.32-1.4-.43-2.11-.48-3.67-2.43-4.15-4.54-.48-2.11,6.21-4.78,7.01-6.78,1.37-3.42.91-6.21,3.96-8.27,1.23-.83-.76-1.32.05-2.56.81-1.24.73-3.22-.59-3.89-.78-.4-1.72-.22-2.57-.03-3.88.89-7.8,2.05-10.97,4.44-3.18,2.39-5.51,6.23-5.15,10.19.14,1.56.69,3.15.31,4.67-.48,1.9-2.3,3.18-3.08,4.98-1.57,3.64,1.47,8.19-.42,11.67-.59,1.09-1.59,1.9-2.26,2.94-1.19,1.86-1.13,4.43.14,6.24.76,1.08,1.89,1.87,2.65,2.96,2.83,4.07-.64,9.85.93,14.55"/>
    <ellipse class="cls-11" cx="435.37" cy="297.18" rx="5.52" ry="5.5" transform="translate(9.77 608.19) rotate(-70.47)"/>
    <path class="cls-11" d="M440.3,293.76c-2.44-1.92-5.92-3.39-11.27-3.47-8.56-.13-13.51,10.11-13.51,10.11,0,0,5.36-7.65,13.81-7.74,4.07-.04,10.45,3.01,13.36,4.89,0-.82-.94-2.55-2.39-3.8Z"/>
    <path class="cls-10" d="M308.9,300.56c-.5-2.19-.64-4.47,0-6.65.17-.58.39-1.14.69-1.66.08-.15.2-.29.27-.45.03-.06.23-.29.04-.07l-.86.3c.17,0-.1-.07.03,0,.2.11.28.08.44.15.73.33,1.36.85,1.93,1.4,3.15,3.03,5.17,7.25,6.95,11.17.46-.16.93-.33,1.39-.49-.86-.77-2.04-1.45-3.23-1.31-1.44.16-2.2,1.39-2.43,2.71-.62,3.57,2.42,5.79,5.56,6.44.51.11,1.71-.67.87-.85-2.48-.52-4.92-2-5.04-4.79-.03-.68.08-2.06.7-2.51s1.77.48,2.24.9c.3.27,1.64.06,1.39-.49-1.35-2.98-2.84-5.94-4.75-8.62-.97-1.37-2.07-2.71-3.44-3.7-.53-.39-1.14-.76-1.79-.88-.92-.17-1.38.48-1.76,1.21-1.37,2.63-1.31,5.74-.66,8.56.13.56,1.58.18,1.45-.39h0Z"/>
    <ellipse class="cls-11" cx="379.06" cy="291.89" rx="5.52" ry="5.5" transform="translate(-22.74 551.59) rotate(-70.47)"/>
    <path class="cls-11" d="M391.36,297.59s-5.88-12.3-15.29-12.51c-13.24-.3-17.31,5.25-20.29,9.2,0,0,8.89-7.09,19.12-6.61,9.28.44,16.46,9.92,16.46,9.92Z"/>
    <path class="cls-11" d="M402.32,338.28c-3.74-.39-17.67-2.01-17.67-2.01,0,0,2.23,9.99,15.77,11.41,14.68,1.55,17.82-6.91,17.82-6.91l-15.92-2.5Z"/>
    <path class="cls-7" d="M402.29,340.02c-3.74-.39-15.07-2.2-15.07-2.2,0,0,4.15,3.56,15.39,4.74,11.23,1.18,14.73-1.45,14.73-1.45l-15.05-1.08Z"/>
    <path class="cls-11" d="M392.65,275.54c.04-.19-.6-.31-.56-.51-9.84-4.08-17.6-5.46-20.53-5.35-2.23.09-4.47.64-6.64,1.54,0,0-6,2.37-6.87,3.54-.87,1.18,3.45-.13,3.45-.13.9-.14,1.54-.38,2.45-.39,4.97-.07,9.84-.86,14.61.55,4.09,1.18,9.33,4.57,13.07,6.81.46-2.07.43-4.05,1.03-6.06Z"/>
    <path class="cls-11" d="M416.33,279.58c0-.2.58-.18.58-.37,9.18-1.88,16.05-1.58,18.52-.84,1.88.56,3.67,1.58,5.34,2.92,0,0,4.63,3.59,5.14,4.92.51,1.33-2.91-.86-2.91-.86-.74-.33-1.24-.7-2-.9-4.21-1.13-8.19-2.94-12.53-2.58-3.71.28-8.84,2.48-12.47,3.86.02-2.12.44-4.04.33-6.14Z"/>
    <g>
      <path class="cls-11" d="M406.99,328.6c-1.92.84-4.73.41-6.51-.88-.4-.29-1.79-.14-1.24.27,2.35,1.7,6.4,2.14,8.88,1.05.25-.11.22-.29-.07-.41-.3-.13-.79-.14-1.06-.02"/>
      <path class="cls-11" d="M398.47,327.39c-1.2-.68-2.58-1.09-3.96-1.3-.2-.03-.47.03-.63.15-.13.1-.16.24-.01.33.61.42,1.42.63,2.18.67.24.01.55-.02.7-.22.14-.18-.08-.32-.27-.33-.62-.03-1.25-.2-1.76-.54-.22.16-.43.32-.65.49,1.24.18,2.46.56,3.54,1.17.21.12.54.08.74-.03.15-.08.33-.27.11-.39"/>
      <path class="cls-11" d="M392.92,327.17c-1.63-.16-3.49-1-4.2-2.29-1.07-1.94.29-4.98,2.41-6.02.23-.11.13-.29-.1-.35-.29-.08-.64,0-.88.12-1.85.91-3.19,3.42-3.06,5.18.13,1.65,1.61,2.89,3.52,3.5.57.18,1.18.32,1.79.38.25.02.7-.02.83-.2.14-.19-.08-.29-.31-.31"/>
      <path class="cls-11" d="M410.03,327.98c-.07-.19.1-.31.23-.29.44.04.9-.05,1.3-.33.13.19.26.37.39.56-.89.03-1.79.26-2.62.73-.16.09-.39,0-.52-.12-.1-.1-.2-.31-.03-.4"/>
      <path class="cls-11" d="M408.78,328.13c.92-.53,1.94-.77,2.93-.81.15,0,.33.09.42.23.08.11.08.25-.03.33"/>
      <path class="cls-11" d="M413.4,328.44c1.06.03,2.36-.59,2.97-1.78.92-1.8.35-4.06-.89-5.34-.13-.14-.05-.3.1-.34.19-.05.41.08.55.22,1.08,1.12,1.7,2.85,1.4,4.58-.28,1.62-1.38,2.68-2.68,3.06-.39.11-.8.18-1.19.17-.16,0-.44-.1-.51-.3-.07-.2.09-.28.24-.27"/>
    </g>
    <path class="cls-19" d="M334.94,884.44c.93-13.11,3.3-26.09,4.88-39.13.42-3.45.79-6.9,1.03-10.36.04-.58-1.41-.3-1.45.18-.93,13.11-3.3,26.09-4.88,39.13-.42,3.45-.79,6.9-1.03,10.36-.04.58,1.41.3,1.45-.18h0Z"/>
    <path class="cls-2" d="M402.65,338.03c-7.92-.38-21.97-4.32-21.97-4.32,0,0,1.86,21.07,20.21,21.95,18.36.87,18.27-17.15,18.27-17.15,0,0-8.59-.1-16.51-.48Z"/>
    <path class="cls-21" d="M402.73,338.04c-3.76-.18-17.64-2.96-17.64-2.96,0,0,3.06,13.56,16.68,14.2,14.76.7,14.9-10.49,14.9-10.49l-13.94-.76Z"/>
    <path class="cls-16" d="M402.87,338.63c-3.76-.18-15.19-1.39-15.19-1.39,0,0,3.92,4.48,15.21,5.02,11.29.54,13.78-3.47,13.78-3.47l-13.81-.17Z"/>
    <path class="cls-2" d="M420.02,337.4c-.4-.12-1.71-.4-1.71-.4-3.1-.43-3.48-1.2-5.73-1.49-3.84-.49-6.36.97-8.04.89-1.68-.08-4.05-1.78-7.92-1.65-2.27.07-5.42.15-8.52-.27-4.54-.62-8.08-1.89-8.49-1.81-.56.12,1.87,6.58,22.93,7.58,21.06,1,18.02-2.68,17.47-2.85Z"/>
    <g class="cls-24">
      <circle class="cls-4" cx="188.63" cy="835.2" r="6.2"/>
      <circle class="cls-4" cx="260.31" cy="835.2" r="6.2"/>
      <circle class="cls-4" cx="224.47" cy="799.36" r="6.2"/>
      <circle class="cls-4" cx="224.47" cy="871.04" r="6.2"/>
      <circle class="cls-4" cx="224.47" cy="835.2" r="13.17"/>
      <circle class="cls-4" cx="188.63" cy="763.52" r="6.2"/>
      <circle class="cls-4" cx="260.31" cy="763.52" r="6.2"/>
      <circle class="cls-4" cx="224.47" cy="727.68" r="6.2"/>
      <circle class="cls-4" cx="224.47" cy="799.36" r="6.2"/>
      <circle class="cls-4" cx="224.47" cy="763.52" r="13.17"/>
      <circle class="cls-4" cx="331.99" cy="835.2" r="6.2"/>
      <circle class="cls-4" cx="296.15" cy="799.36" r="6.2"/>
      <circle class="cls-4" cx="296.15" cy="871.04" r="6.2"/>
      <circle class="cls-4" cx="296.15" cy="835.2" r="13.17"/>
      <circle class="cls-4" cx="331.99" cy="763.52" r="6.2"/>
      <circle class="cls-4" cx="296.15" cy="727.68" r="6.2"/>
      <circle class="cls-4" cx="296.15" cy="799.36" r="6.2"/>
      <circle class="cls-4" cx="296.15" cy="763.52" r="13.17"/>
      <circle class="cls-4" cx="260.31" cy="799.36" r="13.17"/>
      <circle class="cls-4" cx="403.67" cy="835.2" r="6.2"/>
      <circle class="cls-4" cx="367.83" cy="799.36" r="6.2"/>
      <circle class="cls-4" cx="367.83" cy="871.04" r="6.2"/>
      <circle class="cls-4" cx="367.83" cy="835.2" r="13.17"/>
      <circle class="cls-4" cx="403.67" cy="763.52" r="6.2"/>
      <circle class="cls-4" cx="367.83" cy="727.68" r="6.2"/>
      <circle class="cls-4" cx="367.83" cy="799.36" r="6.2"/>
      <circle class="cls-4" cx="367.83" cy="763.52" r="13.17"/>
      <circle class="cls-4" cx="331.99" cy="799.36" r="13.17"/>
      <circle class="cls-4" cx="475.35" cy="835.2" r="6.2"/>
      <circle class="cls-4" cx="439.51" cy="799.36" r="6.2"/>
      <circle class="cls-4" cx="439.51" cy="871.04" r="6.2"/>
      <circle class="cls-4" cx="439.51" cy="835.2" r="13.17"/>
      <circle class="cls-4" cx="475.35" cy="763.52" r="6.2"/>
      <circle class="cls-4" cx="439.51" cy="727.68" r="6.2"/>
      <circle class="cls-4" cx="439.51" cy="799.36" r="6.2"/>
      <circle class="cls-4" cx="439.51" cy="763.52" r="13.17"/>
      <circle class="cls-4" cx="403.67" cy="799.36" r="13.17"/>
      <circle class="cls-4" cx="513.17" cy="799.36" r="6.2"/>
      <circle class="cls-4" cx="477.33" cy="799.36" r="13.17"/>
      <circle class="cls-4" cx="260.31" cy="691.84" r="6.2"/>
      <circle class="cls-4" cx="260.31" cy="727.68" r="13.17"/>
      <circle class="cls-4" cx="224.47" cy="656" r="6.2"/>
      <circle class="cls-4" cx="296.15" cy="656" r="6.2"/>
      <circle class="cls-4" cx="260.31" cy="620.16" r="6.2"/>
      <circle class="cls-4" cx="260.31" cy="691.84" r="6.2"/>
      <circle class="cls-4" cx="260.31" cy="656" r="13.17"/>
      <circle class="cls-4" cx="188.63" cy="691.84" r="6.2"/>
      <circle class="cls-4" cx="224.47" cy="691.84" r="13.17"/>
      <circle class="cls-4" cx="331.99" cy="691.84" r="6.2"/>
      <circle class="cls-4" cx="331.99" cy="727.68" r="13.17"/>
      <circle class="cls-4" cx="367.83" cy="656" r="6.2"/>
      <circle class="cls-4" cx="331.99" cy="620.16" r="6.2"/>
      <circle class="cls-4" cx="331.99" cy="691.84" r="6.2"/>
      <circle class="cls-4" cx="331.99" cy="656" r="13.17"/>
      <circle class="cls-4" cx="296.15" cy="691.84" r="13.17"/>
      <circle class="cls-4" cx="403.67" cy="691.84" r="6.2"/>
      <circle class="cls-4" cx="403.67" cy="727.68" r="13.17"/>
      <circle class="cls-4" cx="439.51" cy="656" r="6.2"/>
      <circle class="cls-4" cx="403.67" cy="620.16" r="6.2"/>
      <circle class="cls-4" cx="403.67" cy="691.84" r="6.2"/>
      <circle class="cls-4" cx="403.67" cy="656" r="13.17"/>
      <circle class="cls-4" cx="367.83" cy="691.84" r="13.17"/>
      <circle class="cls-4" cx="511.19" cy="727.68" r="6.2"/>
      <circle class="cls-4" cx="475.35" cy="691.84" r="6.2"/>
      <circle class="cls-4" cx="475.35" cy="727.68" r="13.17"/>
      <circle class="cls-4" cx="475.35" cy="620.16" r="6.2"/>
      <circle class="cls-4" cx="475.35" cy="691.84" r="6.2"/>
      <circle class="cls-4" cx="475.35" cy="656" r="13.17"/>
      <circle class="cls-4" cx="439.51" cy="691.84" r="13.17"/>
      <circle class="cls-4" cx="186.98" cy="620.16" r="6.2"/>
      <circle class="cls-4" cx="258.67" cy="620.16" r="6.2"/>
      <circle class="cls-4" cx="222.83" cy="584.32" r="6.2"/>
      <circle class="cls-4" cx="222.83" cy="620.16" r="13.17"/>
      <circle class="cls-4" cx="186.98" cy="548.48" r="6.2"/>
      <circle class="cls-4" cx="258.67" cy="548.48" r="6.2"/>
      <circle class="cls-4" cx="222.83" cy="512.64" r="6.2"/>
      <ellipse class="cls-4" cx="222.83" cy="581.22" rx="6.2" ry="3.1"/>
      <circle class="cls-4" cx="222.83" cy="548.48" r="13.17"/>
      <circle class="cls-4" cx="330.35" cy="620.16" r="6.2"/>
      <circle class="cls-4" cx="294.51" cy="584.32" r="6.2"/>
      <circle class="cls-4" cx="294.51" cy="620.16" r="13.17"/>
      <circle class="cls-4" cx="330.35" cy="548.48" r="6.2"/>
      <circle class="cls-4" cx="294.51" cy="512.64" r="6.2"/>
      <circle class="cls-4" cx="294.51" cy="584.32" r="6.2"/>
      <circle class="cls-4" cx="294.51" cy="548.48" r="13.17"/>
      <circle class="cls-4" cx="258.67" cy="584.32" r="13.17"/>
      <circle class="cls-4" cx="402.03" cy="620.16" r="6.2"/>
      <circle class="cls-4" cx="366.19" cy="584.32" r="6.2"/>
      <circle class="cls-4" cx="366.19" cy="620.16" r="13.17"/>
      <circle class="cls-4" cx="402.03" cy="548.48" r="6.2"/>
      <circle class="cls-4" cx="366.19" cy="512.64" r="6.2"/>
      <circle class="cls-4" cx="366.19" cy="584.32" r="6.2"/>
      <circle class="cls-4" cx="366.19" cy="548.48" r="13.17"/>
      <circle class="cls-4" cx="330.35" cy="584.32" r="13.17"/>
      <circle class="cls-4" cx="473.71" cy="620.16" r="6.2"/>
      <circle class="cls-4" cx="437.87" cy="584.32" r="6.2"/>
      <circle class="cls-4" cx="437.87" cy="620.16" r="13.17"/>
      <circle class="cls-4" cx="473.71" cy="548.48" r="6.2"/>
      <circle class="cls-4" cx="437.87" cy="512.64" r="6.2"/>
      <circle class="cls-4" cx="437.87" cy="584.32" r="6.2"/>
      <circle class="cls-4" cx="437.87" cy="548.48" r="13.17"/>
      <circle class="cls-4" cx="402.03" cy="584.32" r="13.17"/>
      <circle class="cls-4" cx="511.53" cy="584.32" r="6.2"/>
      <circle class="cls-4" cx="475.69" cy="584.32" r="13.17"/>
      <circle class="cls-4" cx="258.67" cy="476.8" r="6.2"/>
      <circle class="cls-4" cx="258.67" cy="512.64" r="13.17"/>
      <circle class="cls-4" cx="222.83" cy="440.95" r="6.2"/>
      <circle class="cls-4" cx="294.51" cy="440.95" r="6.2"/>
      <circle class="cls-4" cx="258.67" cy="405.11" r="6.2"/>
      <circle class="cls-4" cx="258.67" cy="476.8" r="6.2"/>
      <circle class="cls-4" cx="258.67" cy="440.95" r="13.17"/>
      <circle class="cls-4" cx="186.98" cy="476.8" r="6.2"/>
      <circle class="cls-4" cx="222.83" cy="476.8" r="13.17"/>
      <circle class="cls-4" cx="330.35" cy="476.8" r="6.2"/>
      <circle class="cls-4" cx="330.35" cy="512.64" r="13.17"/>
      <circle class="cls-4" cx="366.19" cy="440.95" r="6.2"/>
      <circle class="cls-4" cx="330.35" cy="405.11" r="6.2"/>
      <circle class="cls-4" cx="330.35" cy="476.8" r="6.2"/>
      <circle class="cls-4" cx="330.35" cy="440.95" r="13.17"/>
      <circle class="cls-4" cx="294.51" cy="476.8" r="13.17"/>
      <circle class="cls-4" cx="289.95" cy="388.84" r="13.17"/>
      <circle class="cls-4" cx="402.03" cy="476.8" r="6.2"/>
      <circle class="cls-4" cx="402.03" cy="512.64" r="13.17"/>
      <circle class="cls-4" cx="437.87" cy="440.95" r="6.2"/>
      <circle class="cls-4" cx="402.03" cy="405.11" r="6.2"/>
      <circle class="cls-4" cx="402.03" cy="476.8" r="6.2"/>
      <circle class="cls-4" cx="402.03" cy="440.95" r="13.17"/>
      <circle class="cls-4" cx="366.19" cy="476.8" r="13.17"/>
      <circle class="cls-4" cx="509.55" cy="512.64" r="6.2"/>
      <circle class="cls-4" cx="473.71" cy="476.8" r="6.2"/>
      <circle class="cls-4" cx="473.71" cy="512.64" r="13.17"/>
      <circle class="cls-4" cx="509.55" cy="440.95" r="6.2"/>
      <circle class="cls-4" cx="473.71" cy="405.11" r="6.2"/>
      <circle class="cls-4" cx="473.71" cy="476.8" r="6.2"/>
      <circle class="cls-4" cx="473.71" cy="440.95" r="13.17"/>
      <circle class="cls-4" cx="437.87" cy="476.8" r="13.17"/>
    </g>
    <path class="cls-1" d="M797.26,416.83c15.52-38.36-13.93-63.81-44.1-66.85-15.27-1.54-25.31,26.88-25.31,26.88-38.96,42.42-115,173.76-129.28,199.72,3.99,3.71,9.27,3.3,12.37,7.78,10.86,15.68,21.51,13.64,23.14,32.56.81,9.39-.95,23.09-2.86,32.44,24.71-9.55,43.9-38.25,59.24-58.49,23.09-30.46,42.72-63.17,62.76-95.65,15.53-25.18,32.88-50.86,44.03-78.39Z"/>
    <path class="cls-15" d="M742.88,342.29s69.87,19.48,66.53,60.74c-3.35,41.26-51.11,115-51.11,115,0,0-74.95-31.13-105.34-61.24-30.39-30.11,89.92-114.51,89.92-114.51Z"/>
    <path class="cls-17" d="M792.43,440.04c-2.43,9.18-6.7,17.69-11.29,25.95s-9.41,16.78-14.17,25.14c-2.39,4.2-4.73,8.43-6.86,12.77-1.07,2.17-2.08,4.37-3.01,6.6-.44,1.05-.87,2.11-1.27,3.17-.06.16-1.2,3.18-1.38,3.05l.25-.08c.48-.1.34-.22-.41-.38-.26-.14-.52-.32-.77-.48-.45-.28-.89-.57-1.33-.86-.65-.42-1.29-.85-1.94-1.28-1-.65-2.02-1.25-3.1-1.77-3.27-1.57-6.69-2.86-10-4.36-14.42-6.54-28.27-14.35-41.83-22.51-10.15-6.11-20.15-12.48-29.99-19.08-4.79-3.22-9.27-6.73-13.82-10.29l-1.13-.88-.03.38c8.66-11.53,16.9-23.38,24.62-35.56,5.59-8.82,10.87-17.82,16.19-26.8,4.02-6.78,8.08-13.58,12.85-19.87,4.25-5.6,9.12-10.68,14.75-14.9,6.96-5.21,15.65-8.83,24.39-9.09,1.83-.05,3.66.08,5.47.36.6.09,2.87-.9,1.59-1.1-10.54-1.62-22,2.05-30.8,7.83-5.64,3.7-10.66,8.47-14.98,13.64-4.95,5.92-9.09,12.48-13.07,19.07-5.21,8.63-10.23,17.38-15.54,25.96-7.51,12.14-15.5,23.97-23.95,35.48-1.25,1.71-2.52,3.41-3.79,5.1-.08.11-.18.26-.03.38,4.39,3.43,8.69,6.94,13.31,10.07,9.45,6.39,19.06,12.54,28.8,18.47,13.65,8.31,27.59,16.25,42.07,23.03,3.55,1.66,7.15,3.19,10.76,4.73,2.83,1.21,5.26,2.83,7.84,4.49,1.71,1.1,3.49,1.82,5.37.58,1.6-1.06,2.01-3.56,2.67-5.23,1.85-4.63,4.05-9.12,6.39-13.52,4.67-8.76,9.7-17.36,14.58-26,4.74-8.39,9.61-16.78,12.93-25.86.81-2.22,1.52-4.48,2.13-6.77.16-.62-2.28-.28-2.46.41h0Z"/>
    <path class="cls-1" d="M573.81,652.69s24.61,7.28,50.01.54c29.04-7.7,42.09-58.91,46.89-82.23s-69.52,2.94-69.52,2.94l-27.38,78.74Z"/>
    <path class="cls-1" d="M590.63,655.75c8.43-.08,17.94.5,25.53-2.3.36-1.15.35-1.15.65-2.32,4.45-17.05,3.76-35.57-.85-52.51-3.18-11.7-2.17-21.77-10.24-31.02-1.35,1.98-4.8,7.44-4.8,7.44l-208.98-19.56s-14.35,32.87-14.35,32.87c67.49,30.7,134.67,53.44,207.69,66.47,1.78.32,3.56.63,5.35.92Z"/>
    <path class="cls-1" d="M399.51,596.38l-21-6.54s-47.24,11.56-61.15,9.81c-10.02-1.68-19.8-4.87-29.06-9.49l-11.91,2.15c-5.48.99-11.15-.13-16.03-3.17l-3.76-2.34s-14.18,7.05-16.59,2.31c-2.41-4.74,2.24-8.92,6.75-12.97,4.51-4.06,93.8-36.3,93.8-36.3-7.63-4.16-22.32-3.83-30.46-6.52-12.53-4.03-16.03-10.51-10.1-14.69,3.66-2.58,14.29-3.48,20.88.71,6.56,4.18,40.37-.15,52.52,5.84,12.15,5.99,20.45,29.57,20.45,29.57,6.07,4.06,14.83,2.31,14.83,2.31,2.83,13.71-9.19,39.31-9.19,39.31Z"/>
    <path class="cls-10" d="M419.55,558.34c1.12.58,2.71.61,3.93.79,2.84.41,5.7.72,8.55,1.03,8.92.97,17.86,1.79,26.79,2.6,10.64.96,21.27,1.88,31.92,2.77,9.09.76,18.17,1.51,27.26,2.24,4.39.35,8.82.91,13.22,1.06.06,0,.13.01.19.02.33.03,1.66-.56.93-.62-3.57-.28-7.14-.57-10.7-.85-8.62-.69-17.24-1.4-25.85-2.11-10.54-.88-21.08-1.78-31.61-2.72-9.33-.83-18.67-1.68-27.99-2.66-3.23-.34-6.45-.68-9.67-1.09-1.73-.22-3.53-.38-5.22-.83-.14-.04-.4-.13-.39-.12-.38-.2-1.57.4-1.36.5h0Z"/>
    <path class="cls-10" d="M258.2,587.15c5.56-2.14,11.48-3.45,17.24-4.92,7.03-1.81,14.1-3.53,21.07-5.56,2.74-.8,5.5-1.61,8.12-2.74.92-.4.09-.97-.59-.67-5.46,2.34-11.42,3.67-17.15,5.17-7.03,1.83-14.09,3.54-21.1,5.49-2.75.76-5.52,1.54-8.19,2.56-.94.36-.09.94.59.67h0Z"/>
    <path class="cls-10" d="M290.3,590.26c9.42-1.68,18.85-3.35,28.27-5.03,1.36-.24,2.72-.48,4.08-.73.71-.13,1.17-1.05.18-.87-9.42,1.68-18.85,3.35-28.27,5.03-1.36.24-2.72.48-4.08.73-.71.13-1.17,1.05-.18.87h0Z"/>
    <path class="cls-10" d="M623.87,616.54c1.38-6.99,1.96-14.52-.5-21.35-2.16-5.99-6.57-10.65-11.79-14.15-3.69-2.46-7.7-4.39-11.79-6.09-.56-.23-1.69.57-.85.92,6.57,2.73,13.26,6.16,18.07,11.55,4.08,4.57,6.18,10.3,6.52,16.38.25,4.32-.29,8.65-1.12,12.87-.13.67,1.34.47,1.46-.13h0Z"/>
    <path class="cls-17" d="M653.61,446.04c12.18,9.18,24.77,17.89,37.56,26.19,10,6.5,20.2,12.76,30.81,18.22,9.64,4.96,19.51,9.72,29.62,13.64,2.01.78,4.05,1.56,6.14,2.09.64.16,1.31.34,1.98.33.54-.01,1.63-.21,1.93-.74s-.26-.65-.73-.64c.55-.01.22.04.04-.02-.11-.04-.25-.04-.36-.06-.29-.05.21.05-.03,0-.12-.03-.24-.05-.36-.09-1.64-.42-3.25-.98-4.84-1.58-9.57-3.56-18.81-8.11-27.95-12.63-10.52-5.2-20.59-11.29-30.47-17.61-9.19-5.88-18.21-12.03-27.1-18.34-4.54-3.22-9.07-6.48-13.52-9.83-.71-.54-3.31.6-2.71,1.05h0Z"/>
    <path class="cls-1" d="M270.16,474.23c14.53,34.75,33.85,104.92,64.67,122.52,38.11,21.76,152.15-13.66,152.15-13.66l-1.33-27.46-120.97-7.07s-41.21-99.16-45.47-114.22c0,0-13.18-51.47-47.07-31.89"/>
    <path class="cls-10" d="M361.82,548.43c-6.9,1.55-12.99,6-16.44,12.19-.14.26,1.22.16,1.44-.23,3.18-5.72,8.74-9.99,15.14-11.42.14-.03.74-.22.65-.46-.09-.25-.64-.11-.8-.07h0Z"/>
    <path class="cls-22" d="M347.23,453.68c-6.44-13.89-15.8-38.05-25.18-52.56-9.24-8.6-18.18-23.72-31.9-23.86-15.66-.16-15.83,1.27-31.31,14.45-8.47,6.29-11.01,26.26-11.79,32.08-3.4,25.22,5.06,47.43,18.77,71.97l3.25,1.88c28.51,3.6,55.54-11.96,80.07-26.93,3.92-5.47.92-10.93-1.91-17.04Z"/>
    <path class="cls-1" d="M463.21,555.46l4.51,15.09,4.5,15.06s22.2,1.23,28.46-.31c6.26-1.54,21.38-3.34,21.38-3.34-.54,1.92-.4,3.97.41,5.79,1.07,2.03,2.93,3.53,5.14,4.16l5.28-10.84c2.43,4.37,6.12.36,6.12.36l3.63-9.4c2.77,5.55,7.68.46,7.68.46l1.13-12.65c1.8,1.81,3.94,3.24,6.3,4.23,3.01.96,3.31-4.03,3.31-4.03l-13.25-17.73-30.02-4.83-44.89,17.33-9.68.67Z"/>
    <path class="cls-10" d="M301.51,554.79c4.69,8.65,9.4,17.31,15.01,25.4,4.94,7.11,10.68,14.32,18.67,18.12,6.06,2.88,12.78,4.27,19.4,5.05,8.04.95,16.17,1,24.24.63,17.9-.82,35.7-3.63,53.24-7.17,14.12-2.85,28.13-6.22,42.01-10.06.56-.16,1.13-.35,1.7-.47.81-.18,1.66-.06,2.5-.03,2.28.08,4.57.14,6.86.17,4.4.06,8.87.12,13.25-.4,3.5-.41,6.96-1.36,10.45-1.91,3.69-.58,7.38-1.08,11.09-1.55.67-.08,1.34-.17,2.02-.25l-.62-.28c-1.15,4.54,1.21,8.81,5.69,10.19.42.13,1.09,0,1.3-.43,1.76-3.61,3.52-7.23,5.28-10.84l-1.45.29c1.25,2.08,3.17,2.76,5.4,1.72.91-.43,1.92-1.06,2.31-2.01,1.21-2.99,2.33-6.03,3.49-9.04l-1.45.29c1.42,2.68,3.87,3.42,6.58,2.08,1.09-.54,2.49-1.26,2.6-2.55.36-4.01.71-8.01,1.07-12.02l-1.4.37c1.54,1.52,3.29,2.79,5.23,3.76,1.19.59,2.37.99,3.64.36.95-.48,1.48-1.43,1.78-2.42.15-.49.5-1.44.35-1.97-.07-.26-.39-.54-.55-.75l-1.38-1.84-4.37-5.85c-1.52-2.03-3.04-4.06-4.55-6.09l-1.64-2.2c-.23-.3-.48-.81-.78-1.04-.47-.36-1.39-.33-1.95-.42-1.88-.3-3.76-.61-5.65-.91-5.12-.82-10.24-1.65-15.35-2.47-1.88-.3-3.76-.61-5.65-.91-.79-.13-1.64-.4-2.43-.17-2.09.62-4.14,1.6-6.17,2.38l-13.5,5.21c-8.07,3.11-16.13,6.23-24.2,9.34-.29.11-.59.22-.88.34-.04.02-.09.04-.13.05.67-.2.21-.07.02-.08-.32-.02-.65.07-.98.07.32,0-.51-.05-.63-.05l-5.77-.34c-7.98-.47-15.95-.93-23.93-1.4-10.59-.62-21.17-1.24-31.76-1.86-9.72-.57-19.43-1.14-29.15-1.7-5.37-.31-10.73-.63-16.1-.94-.25-.01-.51-.03-.76-.04l.44.19c-2.54-9.17-5.66-18.23-9.26-27.03-.19-.47-1.62-.03-1.45.39,3.61,8.8,6.72,17.86,9.26,27.03.05.18.3.19.44.19,3.63.21,7.25.42,10.88.64,8.69.51,17.39,1.02,26.08,1.52,10.49.61,20.97,1.23,31.46,1.84,9,.53,18,1.05,27,1.58,4.22.25,8.48.71,12.71.74,1.64.01,2.84-.5,4.33-1.08l10.9-4.21c9.03-3.49,18.07-6.97,27.1-10.46,1.21-.47,2.43-.94,3.64-1.41.26-.1.6-.17.84-.32.39-.25-.84-.1-.45.07.93.43,2.42.39,3.42.55l6.57,1.06c4.92.79,9.84,1.58,14.77,2.37,1.49.24,2.98.48,4.48.72.16.03.32.04.47.08.27.06.06.04-.05-.07.23.22.4.54.59.79,2.69,3.6,5.39,7.21,8.08,10.81,1.24,1.66,2.48,3.32,3.72,4.98.25.33.63.7.81,1.08.08.18-.01-.28-.02.08,0,.39-.11.82-.2,1.2-.12.5-.28,1.02-.53,1.47-.49.86-.95.88-1.84.49-2.1-.93-3.98-2.3-5.62-3.91-.27-.26-1.36-.06-1.4.37-.31,3.42-.61,6.85-.92,10.27-.06.64-.25,1.42-.18,2.06,0,.09,0,.23-.03.31.09-.33.04-.05-.21.15-.7.55-1.41,1.15-2.29,1.39-1.75.49-2.98-.86-3.73-2.28-.24-.46-1.29-.1-1.45.29-.94,2.44-1.88,4.87-2.82,7.31-.21.54-.42,1.08-.63,1.62-.11.28-.21.45-.18.42-.39.46-1.04.89-1.6,1.1-1.38.51-2.42-.61-3.08-1.7-.28-.46-1.26-.1-1.45.29-1.76,3.61-3.52,7.23-5.28,10.84l1.3-.43c-4.28-1.31-6.51-5.36-5.41-9.71.08-.31-.46-.3-.62-.28-6.34.75-12.7,1.57-18.96,2.81-1.49.29-2.96.69-4.47.88-2.03.25-4.07.32-6.11.37-4.63.11-9.28,0-13.91-.15-.81-.03-1.71-.17-2.51-.03-.59.11-1.17.33-1.75.49-1.29.36-2.58.71-3.87,1.06-2.95.8-5.91,1.57-8.87,2.33-7.37,1.88-14.78,3.63-22.21,5.24-17.25,3.73-34.73,6.76-52.33,8.16-8.41.67-16.89.95-25.32.44-7.07-.42-14.23-1.38-20.95-3.69-3.09-1.06-6.15-2.42-8.83-4.3-3.66-2.57-6.76-5.9-9.57-9.36-6.46-7.95-11.61-16.92-16.52-25.88-1.01-1.84-2.01-3.68-3.01-5.53-.25-.46-1.65.02-1.45.39h0Z"/>
    <path class="cls-19" d="M529.68,543.27c1.93.29,3.84.71,5.71,1.26,2.1.59,4.43,1.23,6.81,2.15,2.26.82,4.43,1.89,6.46,3.18,1.03.59,1.77,1.57,2.08,2.72.22.89.39,1.8.49,2.72.43,1.75.48,3.58.13,5.35-.18,0-.36-1.92-1.05-5.12-.18-.79-.36-1.72-.61-2.56-.28-.86-.89-1.58-1.69-2-2-1.18-4.1-2.17-6.28-2.97-2.31-.87-4.56-1.54-6.66-2.18-2.1-.64-3.95-1.23-5.51-1.54-1.7-.28-3.43-.28-5.12,0,1.54-1.03,3.44-1.4,5.25-1Z"/>
    <path class="cls-19" d="M526.18,554.66c3.02.69,7.3,1.2,11.94,2.56,1.24.27,2.4.81,3.41,1.59.7.92,1.26,1.94,1.67,3.02.85,1.73,1.24,3.64,1.15,5.56-.21,1.24-.53,2.45-.95,3.64-.26.82-.49,1.28-.49,1.28,0,0-.1-.51,0-1.38.1-.87.51-2.13.51-3.59-.03-1.79-.49-3.55-1.33-5.12-.38-.91-.87-1.77-1.46-2.56-.87-.59-1.84-1.01-2.87-1.23-4.48-1.31-8.79-2-11.78-2.95-1.68-.35-3.27-1.03-4.69-2,1.65.29,3.29.68,4.89,1.18Z"/>
    <path class="cls-19" d="M533.68,577.68c.42-1.17.49-2.43.18-3.64-.46-1.39-1.57-2.47-2.97-2.89-1.5-.46-3.07-.68-4.64-.64l-4.05-.15c-1.02-.05-1.97-.18-2.56-.18s-.82.18-.92.15.13-.49.85-.67c.91-.16,1.82-.24,2.74-.26l4.05-.13c1.73-.13,3.47.08,5.12.61,1.81.58,3.2,2.02,3.71,3.84.3,1.44.13,2.94-.49,4.28-1.05,2.18-2.05,3.13-2.18,3.13-.2-.1.56-1.36,1.15-3.46Z"/>
  </g>
</svg>