<svg xmlns="http://www.w3.org/2000/svg" viewBox="0 0 660.99 660.99"><defs><style>.cls-1{fill:#a86e57;}.cls-2{fill:#a77051;}.cls-3{fill:#231f20;}.cls-4{fill:#010101;}.cls-5{fill:#13110f;}.cls-6{fill:#fff;}.cls-7{fill:#663b2c;}.cls-8{fill:#251710;}.cls-9{fill:#f1eef6;}.cls-10,.cls-11{stroke:#000;stroke-miterlimit:10;}.cls-10{stroke-width:1.26px;}.cls-11{stroke-width:1.68px;}.cls-12{fill:#d08c3e;}</style></defs><g id="Layer_1" data-name="Layer 1"><path d="M239.23,497.47c-6-11.14-11.47-22.57-16.54-34.2a4.92,4.92,0,0,1,3.12-6.47A67.73,67.73,0,0,0,216.92,444c-7.36-7.92-25.86-11.31-25.86-11.31s-.19-20-8.9-20.91-26.27,3.57-26.27,3.57-16.11-9.7-28.41,4.48c0,0-13.51,2.07-13.41,20.43a55.35,55.35,0,0,0,2.24,14.36s-6.59,1.2-14.41,13.92c-3.39,5.48-5.32,21.95.21,34.51l.17,3c7.28,16.53,17,25.83,31.21,24.91.07.15,14.47,32.74,47,25.17,28.23-6.57,34-22.31,34-22.31s14.24,4.84,20.8,1.86c6.88-3.13,11.25-9.9,13.27-17.39C245.37,511.35,242.27,504.42,239.23,497.47Z"/><path d="M240.68,497.08q-5.51-10.27-10.48-20.82-2.46-5.22-4.8-10.51c-.67-1.51-1.72-3.17-1.63-4.88a4.37,4.37,0,0,1,2.53-3.78c.11,0,1.11-.41,1-.68-2.62-4.69-5.54-9.47-9.34-13.31a31,31,0,0,0-9.94-6.2,76.32,76.32,0,0,0-10.5-3.56c-1.23-.33-2.47-.63-3.71-.9a5.72,5.72,0,0,1-1.5-.31c.45.29.22-.61.2-1-.05-1-.12-2.08-.23-3.11a42.83,42.83,0,0,0-1.72-8.9c-.82-2.54-2.06-5.33-4.34-6.89-2.62-1.79-6.54-1.24-9.51-1a126.56,126.56,0,0,0-20.89,3.67l1.47-.07a25.46,25.46,0,0,0-22.25-1.4,24.58,24.58,0,0,0-8.94,6.63l1.7-.76a17.82,17.82,0,0,0-7.81,3.54c-5,3.85-7.06,10.07-7.3,16.21A52.76,52.76,0,0,0,114.87,455l1.72-.88c-3.8.71-7.18,3.56-9.76,6.27a36.37,36.37,0,0,0-7.1,9.84,31.71,31.71,0,0,0-2.24,9.41,52.21,52.21,0,0,0,.18,12.8,44.17,44.17,0,0,0,1.44,6.74c.49,1.64,1.5,3.31,1.6,5,0,.6,0,1.22.1,1.82a7.83,7.83,0,0,0,.87,2.23q1.42,3.07,3.13,6a46.07,46.07,0,0,0,6.94,9.24,26.8,26.8,0,0,0,21.11,8l-.81-.15a44.62,44.62,0,0,0,5.17,8.52A46.34,46.34,0,0,0,153,553.69c8.46,4.35,18,4.95,27.22,2.86,10-2.28,20-6.23,27.85-13,3-2.66,6.4-6.12,7.85-10l-2.79.75c5.8,2,12.46,3.54,18.59,2.72a19.48,19.48,0,0,0,11.51-6.31,27,27,0,0,0,4.07-5.76,34.08,34.08,0,0,0,1.53-3.37c.22-.58.43-1.16.63-1.76a6.7,6.7,0,0,0,.55-1.91,9.07,9.07,0,0,0-1.15-2.47c-.38-.82-.76-1.65-1.13-2.47q-1.25-2.7-2.46-5.41-2.34-5.19-4.61-10.41c-.28-.65-3.09.32-2.89.78q3.66,8.38,7.48,16.71c.54,1.18,1.57,2.65,1.73,3.94.13,1.09-.6,2.51-1,3.54a30,30,0,0,1-3.13,6,23,23,0,0,1-4.58,5,12.36,12.36,0,0,1-4.84,2.68c-3.43.73-7.27,0-10.65-.69-1.65-.34-3.28-.75-4.9-1.21-.5-.14-1-.29-1.49-.45-.14,0-.74-.24-.53-.16-.6-.2-2.52,0-2.79.75a23.27,23.27,0,0,1-5.42,7.68c-6.36,6.49-14.86,10.55-23.51,13a42.78,42.78,0,0,1-15.45,1.82,34.87,34.87,0,0,1-11.79-3.21,44.92,44.92,0,0,1-16-13.21,46.35,46.35,0,0,1-6-9.59c-.11-.25-.61-.17-.81-.15A24.89,24.89,0,0,1,116.07,524a39.71,39.71,0,0,1-7-8.37c-1.11-1.72-2.13-3.51-3.07-5.33-.46-.88-.89-1.77-1.31-2.66a9.45,9.45,0,0,1-1-2.26,16,16,0,0,0-.31-3.11,60.84,60.84,0,0,1-2-6.17,50.27,50.27,0,0,1-1.3-12.46,44,44,0,0,1,1.39-10.78,26.36,26.36,0,0,1,4.64-8.79,32.2,32.2,0,0,1,7.7-7.75,15.12,15.12,0,0,1,1.33-.8l.81-.38s.58-.14.2-.08l-.13,0c.21,0,1.86-.4,1.73-.88-2.73-9.94-4.67-23.9,4.43-31.32a14.61,14.61,0,0,1,3.39-2.07,4,4,0,0,1,.52-.2l.49-.17.33-.09c.47-.14-.23,0,0,0a6.75,6.75,0,0,0,1.17-.32,5.19,5.19,0,0,0,1.65-1.45,26.61,26.61,0,0,1,2.06-1.91,17.19,17.19,0,0,1,7.59-3.73,22.49,22.49,0,0,1,12.41,1.59c.88.36,1.7.87,2.57,1.22a4.26,4.26,0,0,0,2.5-.25c4.1-1,8.39-1.83,12.63-2.47a64.28,64.28,0,0,1,8.08-.81c1.94-.06,4.05-.17,5.74,1,3.19,2.11,4.39,6.59,5.14,10.11a53.1,53.1,0,0,1,1.09,9.24c0,.18,0,.36,0,.54a.26.26,0,0,0,.25.15A76.39,76.39,0,0,1,200.28,436c5.66,1.9,11.63,4.43,15.7,8.95a66.21,66.21,0,0,1,8.38,12.27l1-.68c-2.8,1-5.25,3.64-4.21,6.78a57.78,57.78,0,0,0,2.48,5.66q1.32,3,2.7,5.91,5.42,11.65,11.5,23C238.14,498.52,240.88,497.46,240.68,497.08Z"/><path d="M409.64,502.12q9-16.71,16.54-34.19a4.91,4.91,0,0,0-3.12-6.48A67.66,67.66,0,0,1,432,448.63c7.36-7.93,25.86-11.31,25.86-11.31s.2-20.05,8.9-20.92S493,420,493,420s16.1-9.7,28.4,4.48c0,0,13.51,2.07,13.41,20.44a54.49,54.49,0,0,1-2.24,14.35s6.59,1.2,14.42,13.92c3.38,5.48,5.31,21.95-.22,34.51l-.17,3c-7.28,16.53-17,25.83-31.21,24.9-.07.16-14.47,32.75-47,25.18-28.23-6.57-34-22.32-34-22.32s-14.25,4.84-20.81,1.86c-6.87-3.13-11.25-9.89-13.26-17.38Q405.11,512.56,409.64,502.12Z"/><path d="M411.06,501.85q5.69-10.59,10.79-21.47,2.55-5.44,5-10.95c.63-1.43,1.38-2.82,1.11-4.43a5.37,5.37,0,0,0-2.32-3.47c-.81-.53-1.11-.39-.56-1.37.41-.71.82-1.41,1.24-2.11,1-1.59,2-3.15,3.05-4.67a32.18,32.18,0,0,1,5.94-6.76c3.92-3.13,8.79-5,13.52-6.56a71.76,71.76,0,0,1,8.72-2.25c.34-.06,1.72-.34,1.73-.88a50.49,50.49,0,0,1,.58-6.83c.56-3.84,1.46-8.13,3.89-11.28a6.12,6.12,0,0,1,1.83-1.68,4.2,4.2,0,0,1,1.85-.28,49.67,49.67,0,0,1,7.71.48,143.46,143.46,0,0,1,14.4,2.63,11.71,11.71,0,0,0,2.68.55,4.68,4.68,0,0,0,2.05-.63c.48-.25.33-.19.81-.42a21.57,21.57,0,0,1,10.38-2.15,19.13,19.13,0,0,1,7.76,2.12,21.66,21.66,0,0,1,3.91,2.61c.61.52,1.2,1.06,1.76,1.63.4.41.83,1.08,1.34,1.31a14,14,0,0,0,1.45.38,15.63,15.63,0,0,1,3.07,1.44c9,5.47,9.51,17.32,7.81,26.64-.37,2-.86,4.06-1.4,6.06,0,.17.05.24.22.27,3.09.58,6.25,3.68,8.35,6a34.52,34.52,0,0,1,6.7,9.56,32.71,32.71,0,0,1,2.1,9.16,52.7,52.7,0,0,1-.12,12,43.94,43.94,0,0,1-1.28,6.44c-.28,1-.6,2-1,3a15.26,15.26,0,0,0-.83,2.22c-.2,1,.06,2.14-.31,3.12a46,46,0,0,1-2.88,5.85,49.2,49.2,0,0,1-6.57,9.48,27.22,27.22,0,0,1-8.64,6.61A21.83,21.83,0,0,1,516.32,535c-.56,0-2.1.22-2.37.83a43.5,43.5,0,0,1-4.73,7.93,46.14,46.14,0,0,1-14.71,13.51c-7.84,4.37-16.73,4.87-25.36,2.82-9.46-2.24-18.9-6.12-26.2-12.71-2.79-2.53-5.81-5.73-7.15-9.34-.18-.49-1.69,0-1.93.1-.72.24-.75.24-1.45.45-1.34.39-2.69.74-4,1-3.49.78-7.25,1.43-10.82.89-4.14-.61-7.82-3.64-10.36-6.82a27.59,27.59,0,0,1-3.43-5.59c-.47-1-.89-2-1.26-3.1a11.91,11.91,0,0,1-.57-1.78,3.68,3.68,0,0,1,.61-2.39q4.36-9.44,8.51-19c.17-.38-2.53-.18-2.84.54-2.68,6.12-5.4,12.22-8.21,18.29a13.76,13.76,0,0,0-1,2.24,2.47,2.47,0,0,0,.18,1.43,34.63,34.63,0,0,0,1.42,3.84,28.13,28.13,0,0,0,3.74,6.26c2.6,3.25,6.25,6.32,10.46,7.07,3.87.69,8,.1,11.79-.66a67.18,67.18,0,0,0,8.28-2.17l-1.93.1c1.15,3.11,3.61,5.91,5.91,8.2,6.79,6.78,15.86,10.88,25,13.41a48.17,48.17,0,0,0,16,1.92A40.5,40.5,0,0,0,493,559.13a45.6,45.6,0,0,0,17.27-13.5,46.67,46.67,0,0,0,6.58-10.35l-2.37.82a29.11,29.11,0,0,0,19.75-6,37.54,37.54,0,0,0,7.44-8.07,56.44,56.44,0,0,0,3.25-5.24,37.67,37.67,0,0,0,3.06-6.21c.33-1,.06-2.14.27-3.17a22.59,22.59,0,0,1,1-2.54c.39-1.12.73-2.26,1-3.41a50.17,50.17,0,0,0,1.47-13.15,43.74,43.74,0,0,0-1.49-11.16,27.7,27.7,0,0,0-5.31-9.5,31,31,0,0,0-7.83-7.45,10.23,10.23,0,0,0-3.3-1.48l.23.28c3-10.86,4.74-26.57-6.72-33.25a16.36,16.36,0,0,0-3.57-1.55,4.9,4.9,0,0,1-1-.24s-.11,0-.15,0a11.7,11.7,0,0,1-.84-1.05c-.38-.39-.77-.77-1.17-1.13A21.77,21.77,0,0,0,503,416.38,28.89,28.89,0,0,0,491.89,420l2.29-.53c-7.58-1.91-15.53-3.56-23.36-3.7-3.91-.07-7.7.52-10.13,3.87-2.18,3-3,6.91-3.62,10.5a51,51,0,0,0-.71,7.6l1.73-.88a82.57,82.57,0,0,0-11.35,3c-6,2-12.35,4.71-16.66,9.53a67.52,67.52,0,0,0-8.44,12.34.14.14,0,0,0,.06.21,5,5,0,0,1,3.18,3.16c.58,1.77-.19,3.27-.9,4.87q-2.42,5.51-5,11-5.12,10.88-10.78,21.48c-.24.43,1,.25,1.14.22C409.83,502.53,410.81,502.34,411.06,501.85Z"/><path class="cls-1" d="M156.16,363.17s-18.33-28.74-28.62-27.53c-6.27.74-19.61,19.71-17.73,36.22,2.52,22.08,20,45.55,25.05,58S141.21,461,157.8,459c6.58-.78,13.24-15.9,13.24-15.9S161.66,382.84,156.16,363.17Z"/><path class="cls-2" d="M152.71,397.46c-20.63-35-31.56-33.63-31.56-33.63s-6.11,9.76,0,26.55"/><path class="cls-3" d="M154.05,397.1A148.58,148.58,0,0,0,138.64,375a47.25,47.25,0,0,0-10.47-9.49,13.72,13.72,0,0,0-5.52-2.19,5.31,5.31,0,0,0-1.26,0c-1.63.28-2,1.45-2.53,2.83-3.07,7.87-1.84,16.87.93,24.62.24.68,2.9-.12,2.69-.72-2.23-6.22-3.41-13-2.27-19.56a19.56,19.56,0,0,1,2.27-6.85l-1.57.76c-1.19.15-.24,0-.24,0s-.33,0,0,0a2.51,2.51,0,0,1,.76.12A13.64,13.64,0,0,1,125,366c5.68,3.25,10.22,8.53,14.2,13.6a168.14,168.14,0,0,1,12.17,18.2c.42.7,2.95-.29,2.69-.72Z"/><path class="cls-2" d="M147.56,401.71c-9.89.47.27,18.21-1.8,23.06s-7.31-6.41-10.53-20.46c0,0-2.74-19.23,6-24.14"/><path class="cls-3" d="M147.73,400.88c-2.27.14-4.54,1.14-5.43,3.35s-.5,4.58-.11,6.74c.49,2.72,1.27,5.37,1.87,8.06.39,1.7,1.13,4.12.37,5.82a4.09,4.09,0,0,0-.22.39c0,.45-.13-.11,0,0,0,0,.89-.32.8-.21.1-.11,0,.1-.07-.07s-.29-.21-.38-.29a10.46,10.46,0,0,1-2.07-3.06,62.58,62.58,0,0,1-4.27-11.4,42.47,42.47,0,0,1-1.75-7.37,51.84,51.84,0,0,1-.27-5.85c0-5.43.63-13.32,5.91-16.38.47-.27.69-.82.2-1.17s-1.43-.06-1.91.22c-5.09,2.95-6.44,9.49-6.81,14.91a40.14,40.14,0,0,0,.87,12.37,83.71,83.71,0,0,0,4.35,13.3c.88,2,2.07,5.21,4.23,6.22,2,.95,4-.72,4.31-2.67.38-2.27-.38-4.78-.92-7a52.43,52.43,0,0,1-1.88-9.44c-.12-2.24.25-4.73,2.87-4.89,1.4-.09,2.18-1.78.33-1.66Z"/><path class="cls-1" d="M497.94,364.5s18.33-28.74,28.62-27.53c6.27.74,19.61,19.71,17.73,36.22-2.52,22.09-20,45.56-25,58s-6.35,31.08-22.94,29.13c-6.58-.78-13.24-15.9-13.24-15.9S492.44,384.17,497.94,364.5Z"/><path class="cls-2" d="M500.39,401.9C521,366.88,532,368.27,532,368.27s6.11,9.76,0,26.54"/><path class="cls-3" d="M501.68,402.07c5.47-9.26,11.5-18.66,19.3-26.17a38.63,38.63,0,0,1,5.93-4.77,18.49,18.49,0,0,1,2.29-1.2l.45-.19c.35-.14-.26.08.18-.07.26-.08.52-.17.78-.23s1-.16.35-.09a3.93,3.93,0,0,0,.48-.06c.44-.12-.05,0,0,0l-.77-.41a20,20,0,0,1,2.16,6.61c1.11,6.43,0,13.07-2.2,19.16-.53,1.48,2.16,1.53,2.58.35,2.65-7.41,3.88-15.72,1.56-23.39a11.73,11.73,0,0,0-1.61-3.88,1.68,1.68,0,0,0-1.55-.48,12.82,12.82,0,0,0-5.32,1.85,42.94,42.94,0,0,0-10.14,8.53c-6.68,7.25-12.1,15.64-17.1,24.1-.35.6.31,1.11.83,1.19a1.75,1.75,0,0,0,1.75-.84Z"/><path class="cls-2" d="M505.54,406.14c9.89.48-.27,18.22,1.8,23.06s7.31-6.41,10.53-20.46c0,0,2.74-19.22-6-24.13"/><path class="cls-3" d="M505,407c5.73.36,3.12,8.87,2.3,12.22-.55,2.24-3.92,11.59.64,12,2.48.21,4.07-2.42,5.08-4.29a61.25,61.25,0,0,0,4.42-11.56,44,44,0,0,0,1.89-7.91,55.31,55.31,0,0,0,.26-6.43c-.11-5.94-1-13.77-6.7-17.08-.84-.49-3.29.71-2.11,1.39,4.76,2.77,5.75,9.34,6,14.34A38.35,38.35,0,0,1,516,411.2,85.28,85.28,0,0,1,511.84,424a28.23,28.23,0,0,1-2.09,4.1,6.9,6.9,0,0,1-.93,1.22,3.49,3.49,0,0,0-.27.26c-.05.1-.17,0-.12.08a4.38,4.38,0,0,1,.59-.12c.23-.15.1.2.1,0s-.28-.34-.32-.42a2.88,2.88,0,0,1-.33-1,8.87,8.87,0,0,1,.13-2.86c.42-2.63,1.19-5.19,1.79-7.79s1.29-5.51.73-8.17-2.58-3.76-5.08-3.92c-.56,0-1.51.2-1.77.77s.23.88.76.91Z"/><path d="M527.07,209.93c2-25.09-5.78-42.77-18.72-54.53-12.94-11.25-18.56-11.81-35-16.05-14.78-39.37-36.15-43.63-74.63-41C380.11,75.53,349.06,76,329.12,83c0-.35,0-.69,0-1-19.58-8.36-53.64-10.55-73.57,13.77-38-4.27-59.85,1.68-74.62,41.05-16.4,4.23-24.54,6.6-37.48,17.84-12.94,11.77-23.77,36.72-16.2,52.73-21.51,18.17-27.18,49.74-13.42,74.69a33.63,33.63,0,0,1,5.69,11.76,28.22,28.22,0,0,1-.8,9.29c-4.44,21.88-1.53,41.05,16.21,53.75,2.87,1.55,6.72,9.61,8.71,12.24,1.66,3.67,4.06,10.53,3.37,14.52-.08,24.43,18.56,39,40.83,47.12l138.44,5.18c.67-8.9-1.11-18.6-.95-27,.22-11.94,1-23.9,1.76-35.86.75,12.8,1.68,25.62,1.91,38.4.16,8.37-1.62,18.06-.95,27l138.44-5.18c22.28-8.11,40.91-22.7,40.83-47.13-.69-4,1.71-10.84,3.37-14.51,2-2.64,5.84-10.69,8.71-12.24,17.75-12.71,20.65-31.88,16.21-53.75a28.53,28.53,0,0,1-.79-9.3,33.61,33.61,0,0,1,5.68-11.76C554.25,259.67,548.58,228.09,527.07,209.93Z"/><path class="cls-1" d="M496.62,351.36c0,.06-6.43,2.11-1.08,5.73-3.77,19.72-3.8,45.18-7,69-8.47,62.83-14.21,111-58.06,134.45-46.65,24.94-66,32.43-103.33,33.87-37.34-1.44-61.88-13-106-38.12-43.22-24.56-46.86-67.37-55.3-130.2-1.89-14-5.34-53.62-7.74-65.9-1.78-9.13.66-17.46-1-26,0-.15-3.23,25.94-3.26,25.83a.38.38,0,0,1,0-.11c-6-31.53-9.56-60.63-1.39-95.78,8.41-36.36,37.48-81.48,81.7-110h0l.06,0c26.08-16.79,57.44-27.78,92.95-27.78,95.86,0,161.39,79.93,174.77,137.76C510.23,299.92,502.77,319.16,496.62,351.36Z"/><path class="cls-4" d="M339.51,443.21c-5.08,3.33-12.7,2.79-17.67-.9-1.1-.81-4.85.1-3.3,1.25,6.56,4.86,17.52,5.05,24.07.74.65-.43.54-1-.25-1.33a3.56,3.56,0,0,0-2.85.24"/><path class="cls-4" d="M316,441.82a36.5,36.5,0,0,0-13-3.34,2.91,2.91,0,0,0-2,.65c-.38.35-.45.81,0,1.1a13.84,13.84,0,0,0,7.13,1.69,2.69,2.69,0,0,0,2.2-.89c.4-.62-.34-1-.93-1a11,11,0,0,1-5.76-1.37l-2,1.75a32.43,32.43,0,0,1,11.61,3,2.71,2.71,0,0,0,2.38-.27c.47-.29,1-1,.27-1.32"/><path class="cls-4" d="M298.41,442.39c-4.43-.14-9.64-2.49-11.81-6.55-3.29-6.13-.23-13.42,5.3-17.34.6-.43.28-1-.33-1.14a3.12,3.12,0,0,0-2.36.6c-4.82,3.42-7.94,9-7.22,14.73.68,5.37,4.92,9.13,10.21,10.69a19.94,19.94,0,0,0,4.91.82c.67,0,1.88-.22,2.21-.86s-.28-.93-.91-.95"/><path class="cls-4" d="M344.77,441.82a36.5,36.5,0,0,1,13-3.34,2.9,2.9,0,0,1,2,.65c.38.35.46.81,0,1.1a13.82,13.82,0,0,1-7.13,1.69,2.69,2.69,0,0,1-2.2-.89c-.39-.62.34-1,.94-1a11,11,0,0,0,5.75-1.37l2,1.75a32.43,32.43,0,0,0-11.61,3,2.71,2.71,0,0,1-2.38-.27c-.47-.29-1-1-.27-1.32"/><path class="cls-4" d="M362.39,442.39c4.43-.14,9.64-2.49,11.81-6.55,3.29-6.13.23-13.42-5.3-17.34-.6-.43-.28-1,.33-1.14a3.11,3.11,0,0,1,2.36.6c4.82,3.42,7.94,9,7.22,14.73-.68,5.37-4.92,9.13-10.21,10.69a19.94,19.94,0,0,1-4.91.82c-.67,0-1.88-.22-2.21-.86s.29-.93.91-.95"/><path class="cls-5" d="M405.74,346.51c4.49-2.4,9.74-.32,12.68,2.37a11.85,11.85,0,0,1,3.42,5.49,12.38,12.38,0,0,1-2.77,11,10.6,10.6,0,0,1-12.47,2.26c-5.49-2.65-7.28-9.48-5.91-14.44a11,11,0,0,1,5.05-6.69"/><path class="cls-5" d="M370.51,363.28s23.67-17.8,35.77-18.95c17.65-1.68,39.41,7.67,45.66,16,0,0-28.79-14-41.19-12.45C398.89,349.38,370.51,363.28,370.51,363.28Z"/><path class="cls-5" d="M254,346.9c-4.49-2.41-9.74-.33-12.68,2.36a11.81,11.81,0,0,0-3.42,5.5,12.39,12.39,0,0,0,2.77,11A10.59,10.59,0,0,0,253.13,368c5.49-2.64,7.27-9.47,5.91-14.44A11,11,0,0,0,254,346.9"/><path class="cls-5" d="M289.21,363.66s-23.66-17.8-35.76-19c-17.66-1.68-39.41,7.68-45.67,16.05,0,0,28.79-14,41.2-12.46C260.84,349.76,289.21,363.66,289.21,363.66Z"/><ellipse class="cls-6" cx="330.4" cy="488.52" rx="43.91" ry="9.55"/><path class="cls-7" d="M331.41,479.12c-25.24,0-66.14-3-66.14-3s7.62,50.24,66.14,50.24,66.13-50.24,66.13-50.24S356.64,479.12,331.41,479.12Z"/><path class="cls-8" d="M331.65,479.12c-12,0-60.37-2-60.37-2s16,26.66,59.4,26.66c47.05,0,60.88-26.28,60.88-26.28Z"/><path class="cls-9" d="M332.18,480.93c-12,0-48.52-2-48.52-2s13.15,13.22,49.14,13.22,47.43-12.83,47.43-12.83Z"/><path class="cls-7" d="M400.2,472.43c-1.28-.31-8.26,2-14.22,1.5-9.93-.86-22-3.49-29.14-4-12.29-.95-20.09,3.92-25.43,3.92s-13.15-4.87-25.43-3.92c-7.2.55-19.21,3.18-29.14,4-6,.52-12.95-1.81-14.23-1.5-1.77.44,1.67,13.52,68.81,13.52S402,472.87,400.2,472.43Z"/><path class="cls-10" d="M499.23,215.38s9.13-24.95-3.11-28.17l-11.41-4.61s-.58-1.62-1.61-4h0c2.52-5.62-1.78-15.51-5.42-20.42-5.7-7.67-24.87-9.45-27.52-8.65s-5,4.85-5,4.85-.37-11.7-4.55-14.54-28.48-11.7-28.48-11.7l-5.69,4c.15-.29,2.16-4.12-.76-6.44s-34.68-17.91-55-16.73c-.68,0-1.35.09-2,.17l-8.43,4.11-.3.14.32-.17c1.49-.82,4.7-2.85,3.05-4.53a7.55,7.55,0,0,0-3.75-1.57,78.68,78.68,0,0,0-12.3-1.14v-.06l-1.37,0-1.37,0V106a78.68,78.68,0,0,0-12.3,1.14,7.6,7.6,0,0,0-3.75,1.57c-1.65,1.68,1.56,3.71,3.05,4.53l.32.17-.3-.14-8.43-4.11c-.65-.08-1.32-.14-2-.17-20.28-1.18-52,14.38-55,16.73s-.91,6.15-.76,6.44l-5.69-4s-24.31,8.88-28.48,11.7-6.07,9.57-6.07,9.57-7.41,2.54-10.08,1.72S178.72,157,173,164.67c-3.64,4.92-2.33,9.56-4.14,13.88h0c-1,2.42-1.61,4-1.61,4L153,187.06c-11.44,5.15-8.58,27.24-8.58,27.24-22.49,25.88-23.61,47.92-13.52,71.65,3.88,9.15-6.09,10.76-4.6,27.45,1.63,18.35,29.34,61.05,29.34,61.05s4.42-38.86,5.17-48.48-1.49-37.67-1.49-37.67l-.21-7.53s13.46-2,19.85-12.87,5.77-24,5.77-24l-3.41-11.71,17,1.09c16.42-2.64,17.35-19.34,17.35-19.34l-2.84-27.78,9.87,9.33s3.8,4.41,9.49,4c25.49-1.8,28.49-16.68,28.49-16.68l3.41-14,6.46,4c6.84,5.25,16.86,8.25,28.28,8h.34c9.27-.34,16.88-7.67,19.23-17,2.67-10.5,7.95-28.44,8.1-31.88.13,3,4.93,16.32,8.26,26.38A39.66,39.66,0,0,0,349,178.25a15.15,15.15,0,0,0,2.64,1.62c10.64,4.29,23-1.74,29.83-7l6.46-4L389.94,182s-1.69,15,23.79,16.82c5.7.41,13.25-2.55,13.25-2.55l12.16-10-2.4,23.44s-2.4,22.41,18.53,24.16l15.39-1.57-3.41,11.71s-1.26,16.65,5.14,27.56S484,287.14,484,287.14l7,3.45s-.58,25.77.18,35.38S498.4,378,498.4,378,517,340.5,522.51,323c7.57-24.15-14.12-31.56-4.67-44.41C528.05,264.66,518.89,218.1,499.23,215.38Z"/><path class="cls-11" d="M293.49,304.47c-34.68-10.82-47.83-10.94-73.82-7.77-10,1.22-17.58,4.93-23.27,13.82-.84,1.32-4.8,9.24-2.52,10.53,2.55,1.46,7.79-5.21,9.69-6.47,6.84-4.54,14.2-4.5,21.7-4.15a256.2,256.2,0,0,1,42.32,6c6.76,1.49,14.25,5.25,24.71,8.73,2.11-1.05,2.55-8.67,2.59-12.72,0-5.32,0-.79,0-6.08C294.89,306.38,295.54,305.11,293.49,304.47Z"/><path class="cls-11" d="M366.48,304.47c34.68-10.82,47.83-10.94,73.82-7.77,10,1.22,17.59,4.93,23.27,13.82.85,1.32,4.8,9.24,2.53,10.53-2.56,1.46-7.8-5.21-9.69-6.47-6.85-4.54-14.21-4.5-21.71-4.15a256.08,256.08,0,0,0-42.31,6c-6.77,1.49-14.26,5.25-24.72,8.73-2.11-1.05-2.55-8.67-2.58-12.72,0-5.32,0-.79,0-6.08C365.09,306.38,364.43,305.11,366.48,304.47Z"/><ellipse class="cls-12" cx="155.71" cy="458.93" rx="10.47" ry="10.83"/><ellipse class="cls-12" cx="497.06" cy="458.21" rx="10.47" ry="10.83"/></g></svg>