<svg xmlns="http://www.w3.org/2000/svg" viewBox="0 0 660.99 660.99"><defs><style>.cls-1{fill:#a86e57;}.cls-2{fill:#010101;}.cls-3{fill:#663b2c;}.cls-4{fill:#251710;}.cls-5{fill:#f1eef6;}.cls-6{fill:#502e27;}.cls-7{fill:#070808;}</style></defs><g id="Layer_1" data-name="Layer 1"><path class="cls-1" d="M489.4,328.43s19.77-38.3,33.19-38.21c8.16.06,27.87,21.84,27.64,42.65-.29,27.84-19.69,59.47-24.52,75.7s-4,39.57-25.66,39.43c-8.57-.06-19.16-18-19.16-18S484.93,353.68,489.4,328.43Z"/><path class="cls-2" d="M500.78,366.3c5.81-12.3,12.31-24.81,21.23-35.19a56.18,56.18,0,0,1,4-4.28c.57-.55,1.16-1.09,1.76-1.61l.8-.67c.15-.11.95-.73.53-.42.91-.68,1.85-1.26,2.81-1.86.38-.24-.49.24-.17.09l.28-.15.56-.28.49-.22c-.16.08-.69.26-.08,0,.14-.05.3-.09.45-.15.31-.13-.93.36-.3.09.11,0,.24,0,.35-.09-.07,0-1,.2-.44.11s-.84.07-.29,0c.39,0-.53,0-.46,0l-.84-.2c-.26-.33,0,0,.1.14.23.33.45.66.65,1a25.37,25.37,0,0,1,1.86,3.77,38.6,38.6,0,0,1,2.6,14.81,54,54,0,0,1-1.77,12.83c-.31,1.23,5.2.46,5.57-1,2.38-9.38,2.88-19.74-1-28.8a16.07,16.07,0,0,0-2.45-4.42c-.68-.74-1.93-.5-2.85-.35-8.47,1.42-15.07,8.91-20,15.3-7.68,9.89-13.61,21.13-18.95,32.42-.44.94,1.94.63,2.27.57.93-.16,2.83-.55,3.3-1.55Z"/><path class="cls-2" d="M504,372.73a5.46,5.46,0,0,1,.7,0c-.51,0,.17,0,.23,0a1.31,1.31,0,0,1,.62.13,3,3,0,0,1,1.38.77,5.69,5.69,0,0,1,1.59,3.16c.68,3.17.18,6.56-.26,9.73a89.78,89.78,0,0,0-1.19,10.07c0,2.25.35,5.43,3.12,5.82,4.14.58,6.77-2.58,8.28-5.92a68.39,68.39,0,0,0,4.35-15.32,55.68,55.68,0,0,0,1.42-10.35,66.18,66.18,0,0,0-.49-8c-.93-7.54-3.29-17.11-11-20.4-1.16-.5-2.92.06-4,.63-.68.37-1.78,1.31-.59,1.82,6.35,2.7,8.54,10.8,9.57,17a65.17,65.17,0,0,1,.83,8.7,32.3,32.3,0,0,1-.43,6.05,103.25,103.25,0,0,1-3.73,16.67,32.28,32.28,0,0,1-2.19,5.38,8.87,8.87,0,0,1-1,1.46c-.09.12-.22.22-.32.35.07-.09.33-.21.07-.07a6,6,0,0,0,.65-.32,4.89,4.89,0,0,1,2.11-.35c.3,0,.41.19.18,0a2.73,2.73,0,0,1-.46-.5A3.9,3.9,0,0,1,513,398a12.56,12.56,0,0,1-.2-3.67c.2-3.18.82-6.33,1.23-9.48.44-3.34,1-7.14,0-10.42s-4.23-4.54-7.6-4.37c-1.19.06-3,.4-3.75,1.44s.65,1.31,1.42,1.28Z"/><path class="cls-1" d="M162.32,328.43s-19.76-38.3-33.18-38.21c-8.16.06-27.87,21.84-27.65,42.65.3,27.84,19.7,59.47,24.53,75.7s4,39.57,25.66,39.43c8.57-.06,19.16-18,19.16-18S166.79,353.68,162.32,328.43Z"/><path class="cls-2" d="M156.55,366c-4.94-10.46-10.41-20.81-17.22-30.19-3.48-4.79-7.38-9.51-12.16-13.06a18.47,18.47,0,0,0-7.12-3.6,5.87,5.87,0,0,0-3.58.29c-1.67.7-2.52,2.48-3.3,4-4.82,9.51-4.55,20.77-2,30.89.48,1.88,6.14.41,5.65-1.52a49,49,0,0,1-1.24-20.26,35.59,35.59,0,0,1,1.76-6.59,21.7,21.7,0,0,1,1.78-3.79,13.15,13.15,0,0,1,1.06-1.61l-3.73,1.53c.52,0-.8-.16-.21,0,.16,0,.33.05.49.09l.31.08c.51.11-.45-.17-.09,0,.64.26,1.27.49,1.89.8.42.21.83.43,1.23.67l.63.39.38.25c-.33-.22,0,0,.11.08,6.88,4.92,12.08,12,16.62,19.05a207.67,207.67,0,0,1,13.08,24c.89,1.89,6.41.11,5.64-1.51Z"/><path class="cls-2" d="M147.57,369.52c-3.53-.18-7.43,1-9.18,4.29-1.43,2.73-1.27,6-1,9,.27,3.36.9,6.69,1.32,10a28.61,28.61,0,0,1,.29,4,10.48,10.48,0,0,1-.14,1.68c-.05.24-.11.48-.17.72-.11.45.2-.37,0,0l-.17.34c-.24.55.21-.06-.19.28s.5-.37.12-.1a3.18,3.18,0,0,1,1-.45,3.3,3.3,0,0,1,1.53,0c-.13,0-.45,0,.22.11a.75.75,0,0,1-.31-.18c-.26-.29.28.31,0,0a11.71,11.71,0,0,1-2.14-3.53,71.41,71.41,0,0,1-4.14-14.84,51.89,51.89,0,0,1-1.38-9.54,64.78,64.78,0,0,1,.44-7.5,41.6,41.6,0,0,1,2.63-11.18,24.6,24.6,0,0,1,1.26-2.58,14.44,14.44,0,0,1,1.34-2c.3-.36.62-.71.95-1.05l.42-.4c.42-.41-.06,0,.29-.26a12.9,12.9,0,0,1,1.15-.78h0l.86-.4c.92-.39,2.21-1.56,1.41-2.62s-2.78-.69-3.79-.26c-7.35,3.13-10.35,11.23-11.66,18.54a49.05,49.05,0,0,0-.54,15.71,102,102,0,0,0,4,17.6,31.85,31.85,0,0,0,2.42,5.63,6.49,6.49,0,0,0,2.57,2.77c3.48,1.75,7.17-1.23,7.72-4.66.47-3-.16-6.22-.59-9.19-.55-3.74-1.31-7.57-1-11.32a13.74,13.74,0,0,1,.41-2.29s.22-.6.05-.19c.07-.16.13-.31.21-.47s.62-1,.26-.51c.12-.15.8-1,.29-.38.07-.08.37-.18.4-.27-.11.3-.48.23,0,0s-.41.42-.06,0c.19-.21.55-.06,0,0l.61-.07H145l.47,0c1.3.06,3-.41,3.7-1.65s-.55-2-1.64-2.05Z"/><path class="cls-1" d="M152.23,346.64c2.78,30.33,3.62,58.6,5,90.32s0,73.31,5,85.11c2.54,6.08,19.36,11.49,24.11,16,25.86,24.53,57.94,49.6,91.17,63.26,14.47,5.95,52,5.95,52,5.95s37.5,0,52-5.95c20.33-8.36,38.7-23.22,56.72-35.64,17.63-12.15,39.56-27.13,51.09-45.61,3.55-5.68,3.16-13.33,3.86-19.76,2.27-21,2.65-42.24,3.56-63.35,1.39-31.72,7.26-60,10-90.32s6.2-156.34-2.76-180.5-115.56-99-174.87-99c-41.62,0-106.36,31.93-144.33,59.34-16.13,11.62-27,32.51-29.7,39.69C146,190.3,149.47,316.29,152.23,346.64Z"/><path d="M318.66,425.46c8.09,3.3,14,3.42,19.32-1.26,1.18-1,5.32.09,3.67,1.55-7,6.17-20.34,5.25-27.67-.13-.73-.54-.64-1.29.22-1.68s3.69.95,4.46,1.52"/><path d="M344.57,422.05a41.49,41.49,0,0,1,16-1.17,3.34,3.34,0,0,1,2.16,1.26c.35.52.33,1.11-.31,1.36a15.78,15.78,0,0,1-8.72.46,3.06,3.06,0,0,1-2.35-1.6c-.32-.86.64-1.19,1.33-1.05a12.32,12.32,0,0,0,7-.39l1.86,2.61a36.89,36.89,0,0,0-14.26,1.1,3.05,3.05,0,0,1-2.71-.87c-.48-.47-.92-1.43,0-1.71"/><path d="M311,423.28a41.17,41.17,0,0,0-15.93-1.35,3.28,3.28,0,0,0-2.18,1.23c-.36.51-.35,1.1.29,1.35a15.7,15.7,0,0,0,8.72.57,3.11,3.11,0,0,0,2.37-1.57c.32-.86-.63-1.2-1.33-1.06a12.47,12.47,0,0,1-7-.48l-1.89,2.59a36.88,36.88,0,0,1,14.25,1.27A3,3,0,0,0,311,425c.49-.46.94-1.41,0-1.7"/><path d="M365.54,424.49c5.26-.17,11.44-3.13,14-8.25,3.9-7.74.27-16.94-6.3-21.88-.71-.54-.34-1.23.39-1.43a3.47,3.47,0,0,1,2.81.75c5.72,4.31,9.42,11.31,8.57,18.57-.81,6.79-5.84,11.53-12.13,13.49a22.76,22.76,0,0,1-5.84,1.05c-.79,0-2.22-.29-2.61-1.1s.33-1.17,1.08-1.2"/><path d="M289.56,424.7c-5.26-.17-11.44-3.14-14-8.26-3.9-7.74-.27-16.93,6.3-21.87.71-.54.34-1.24-.39-1.44a3.52,3.52,0,0,0-2.81.76c-5.72,4.31-9.42,11.31-8.57,18.57.81,6.78,5.84,11.52,12.13,13.49a22.75,22.75,0,0,0,5.84,1c.79,0,2.23-.29,2.61-1.09s-.33-1.18-1.08-1.2"/><path d="M415.07,313.35c5.33-2.76,11.57-.37,15.06,2.72a13.51,13.51,0,0,1,4.06,6.31c1.32,4.48-.47,9.56-3.29,12.65-3.75,4.12-10,4.83-14.82,2.59-6.52-3-8.64-10.89-7-16.59a12.74,12.74,0,0,1,6-7.68"/><path d="M247.77,313.35c-5.33-2.76-11.57-.37-15.06,2.72a13.41,13.41,0,0,0-4.06,6.31c-1.32,4.48.47,9.56,3.28,12.65,3.76,4.12,10,4.83,14.82,2.59,6.52-3,8.64-10.88,7-16.59a12.69,12.69,0,0,0-6-7.68"/><path d="M293.29,334.83s-30.75-22.36-46.46-23.8c-22.94-2.11-51.2,9.64-59.32,20.15,0,0,37.4-17.56,53.51-15.64C256.43,317.37,293.29,334.83,293.29,334.83Z"/><path d="M367.78,333.44s30.75-22.36,46.46-23.8c22.94-2.11,51.2,9.64,59.32,20.15,0,0-37.4-17.56-53.51-15.64C404.64,316,367.78,333.44,367.78,333.44Z"/><path d="M364.81,255.86q.06,8.2.13,16.46c0,4.19-.18,13.73-.13,17.9,13.13-3.59,24.95-8.93,33.44-10.47,16.83-3.08,34.05-7.41,51.12-4.84,8.16,1.23,15.33,3.31,22.16,7.5,2.16,1.32,8,7.07,11.19,5.57,1.31-.62-.88-7.35-1.11-8-4.48-13.57-16-19.16-30.1-22.33-28.71-6.46-57.56-5.6-86.7-1.75"/><path d="M293.06,255.86q0,8.2-.13,16.46c0,4.19.19,11.73.13,15.9-13.39-3.59-24.94-7.83-33.59-9.37-17.17-3.08-35.24-6.51-52.65-3.94-8.33,1.23-15.64,3.31-22.6,7.5-2.2,1.32-8.14,7.07-11.41,5.57-1.34-.62.89-7.35,1.13-8,4.57-13.57,16.33-19.16,30.7-22.33,29.28-6.46,58.7-5.6,88.42-1.75"/><path d="M493,501.76s-6.85,13.43-15.45,19c-24.56,16-72.48,38.53-86.63,49.1C377.38,580,370,581.78,370,581.78s-22.61-6.51-45.46-7.41-43.61,8.43-43.61,8.43-80.6-50.38-105.61-62.89C173.53,519,162,505,160.86,504.7c0,0-9.5,19.18,46.07,56.41,38.65,25.89,48.78,38.27,79.72,44.63s73.66,4.21,92.53-4.42c29.19-13.35,96.07-61.71,106.55-74.43C492.44,518.74,493,501.76,493,501.76Z"/><path d="M352.66,508.65l-56.13-2.16c1.23,3.16,5.59,26.5,29.51,24C347.2,528.29,342.64,518,352.66,508.65Z"/><path class="cls-3" d="M325.18,465.18c27.56,0,72.21-3.14,72.21-3.14s-8.32,53-72.21,53S253,462,253,462,297.63,465.18,325.18,465.18Z"/><path class="cls-4" d="M324.92,465.18c13.1,0,65.9-2.15,65.9-2.15S373.36,491.18,326,491.18c-51.38,0-66.47-27.74-66.47-27.74Z"/><path class="cls-5" d="M324.34,467.09c13.1,0,53-2.15,53-2.15S363,478.89,323.66,478.89s-51.78-13.54-51.78-13.54Z"/><path class="cls-3" d="M250.08,458.12c1.39-.33,9,2.13,15.52,1.58,10.84-.9,24-3.68,31.82-4.27,13.41-1,21.93,4.15,27.76,4.15s14.35-5.15,27.77-4.15c7.85.59,21,3.37,31.81,4.27,6.51.55,14.13-1.91,15.53-1.58,1.93.46-1.82,14.27-75.12,14.27S248.14,458.58,250.08,458.12Z"/><path d="M334.19,437.37l2,12.62a4.4,4.4,0,0,0,3.71,3.53c12.86,1.78,61.75,8.45,73.4,8.29a4.26,4.26,0,0,0,.8-.08l3.66,3.21c4.35-.86-.86-13.07-5-14.68-12.59-4.91-24.29-9.28-31.26-10.91-8.71-2-32.48-7.39-43-7.27A4.41,4.41,0,0,0,334.19,437.37Z"/><path d="M322,437.39l-3.66,13a4.41,4.41,0,0,1-3.75,3.5c-12.87,1.67-61.81,7.9-73.47,7.64a4.38,4.38,0,0,1-.8-.1l-3.72-.77c-4.35-.9-1.33-9.47,2.82-11.05a279.53,279.53,0,0,1,33.69-10.26c8.73-2,34.14-7.5,44.66-7.29A4.42,4.42,0,0,1,322,437.39Z"/><path d="M152.23,346.64s3.84-136.16,3.31-158.33S223.36,97.59,259.1,85s-40.84-8.47-59.6-5-20.07,15.2-20.07,15.2-12.13,1.17-17.11,7l-5,5.85s-15.21,3.5-15.79,10.52-2.68,22.21-2.68,22.21-11.66,6-11.66,23.55-.74,8.94-.74,8.94-10.27,11.5-5.28,20.86,3.41,8.19,3.41,8.19A52.31,52.31,0,0,0,120.16,213c-2.16,6.9-6.28,34,1,50.36a85.15,85.15,0,0,1,7,32.44Z"/><path d="M507.49,346.64s-3.85-136.16-3.32-158.33S435.54,97.59,399.8,85c-37-13,39.88-8.65,59.6-5,18.77,3.51,20.07,15.2,20.07,15.2s12.13,1.17,17.11,7l5,5.85s15.21,3.5,15.79,10.52S520,140.81,520,140.81s12.47,6,12.47,23.55.75,8.94.75,8.94,10.26,11.5,5.28,20.86-3.42,8.19-3.42,8.19A51.61,51.61,0,0,1,539.55,213c2.17,6.9,6.29,34-1,50.36a85.05,85.05,0,0,0-7.06,32.44Z"/><path d="M201.13,80.42s24.27-13.34,31.61-12.31a16,16,0,0,1,10.72,6.13s2.48-9.62,11.4-8.49,12.31,2.36,12.31,2.36,6.2-7.44,10.16-7.44,9.59,5.08,9.59,5.08,2.82-6.21,9.6-5.08S305,65.19,305,65.19s3.39-6.49,10.73-4.66a32,32,0,0,1,11.52,5.22s7.1-8.26,11.62-5.54l4.51,2.72s5.08-7.11,9-3.27a42.32,42.32,0,0,0,6.78,5.53s1.69-3.39,7.33-2.26,7.91,2.94,7.91,2.94,5.64-1.83,10.16-1.37,5.08,5.55,5.08,5.55,3.24-8.36,10.93-4.18l7.69,4.18s10.15,2.47,15.24,5.86S426.33,90,426.33,90l30.36,30.63S408.72,85.59,332,85.44c-76.22-.15-134.51,32.66-134.51,32.66Z"/><path class="cls-6" d="M235.8,204S345,188.67,419.72,204"/><path d="M389.56,84.69c-3-2.53-7.78-3.39-12.21-4.12l-4.77-1.5q-21.12-.13-42.22,1c-3.53.19-7.2.43-10.27,1.76a10.56,10.56,0,0,0-.95.48c-10.43-.34-20.86-.54-31.3-.48l-4.76,1.29c-4.44.64-9.17,1.38-12.22,3.58s-3.09,6.34,1,7.61c4.27,1.33,10.59-1,13.55,1.45,3.25,2.65-2.93,6.63-1,9.78,1.22,2,5,2.61,7.45,4,2.94,1.67,3.92,4.42,6.67,6.23a14.51,14.51,0,0,0,11.06,1.4c3.95.3,9.23-1.32,10.49,1.38a4.66,4.66,0,0,1,.11,2.29c-.15,3,2.35,6,6,7.19a12.89,12.89,0,0,0,11.11-1.61c2.74-2.08,3.73-5.24,6.66-7.17a21,21,0,0,1,3.11-1.57,10,10,0,0,0,3.68,2.13,12.89,12.89,0,0,0,11.11-1.61c2.74-2.08,3.72-5.24,6.66-7.17,2.46-1.62,6.23-2.34,7.45-4.62,1.94-3.63-4.24-8.22-1-11.27,3-2.77,9.28-.13,13.55-1.66C392.66,92,392.6,87.21,389.56,84.69Z"/><path d="M271.85,586c2.65,1.91,6.78,2.57,10.65,3.12l4.16,1.13q18.43.11,36.83-.73a30.23,30.23,0,0,0,9-1.33c.29-.11.56-.24.83-.37,9.1.26,18.2.41,27.3.37l4.16-1c3.87-.49,8-1.05,10.66-2.72s2.7-4.81-.88-5.78-9.23.74-11.81-1.09c-2.84-2,2.55-5,.86-7.42-1.07-1.5-4.35-2-6.5-3.05-2.56-1.27-3.42-3.35-5.81-4.72a14.43,14.43,0,0,0-9.65-1.07c-3.45-.22-8.06,1-9.16-1a3,3,0,0,1-.09-1.73c.13-2.28-2.05-4.55-5.26-5.46a12.69,12.69,0,0,0-9.69,1.23c-2.39,1.58-3.25,4-5.81,5.44a20.47,20.47,0,0,1-2.71,1.19,9,9,0,0,0-3.21-1.62A12.69,12.69,0,0,0,296,560.6c-2.39,1.58-3.25,4-5.81,5.44-2.15,1.23-5.44,1.78-6.5,3.51-1.69,2.76,3.7,6.23.86,8.55-2.58,2.1-8.09.1-11.82,1.26C269.15,580.47,269.19,584.1,271.85,586Z"/><path d="M238.4,454.48c-3.69,3.28-7.65,7.08-8,12a19.2,19.2,0,0,0,.65,5.32l1.76,8.12a3.18,3.18,0,0,0,.62,1.51,3.13,3.13,0,0,0,1.62.76,13,13,0,0,0,5.69.56c1.89-.37,3.7-1.86,3.8-3.78a6.3,6.3,0,0,1,.11-2.34c.62-1.41,2.61-1.24,4.09-1.63,3.74-1,4.5-5.8,6.13-9.3,2.2-4.74,7-7.83,11.91-9.54,2.5-.86,5.13-1.45,7.4-2.81s4.18-3.71,4.07-6.36"/><path d="M413.32,457.1c3.69,3.27,7.65,7.07,8,12a18.75,18.75,0,0,1-.64,5.31l-1.76,8.13a2.36,2.36,0,0,1-2.24,2.27,13.3,13.3,0,0,1-5.69.56c-1.89-.38-3.7-1.86-3.8-3.78a6.36,6.36,0,0,0-.11-2.35c-.62-1.4-2.61-1.24-4.1-1.63-3.73-1-4.49-5.79-6.12-9.29-2.2-4.74-7-7.84-11.91-9.54-2.5-.87-5.13-1.46-7.4-2.81s-4.18-3.72-4.07-6.36"/><path class="cls-2" d="M156.71,513.26c5.37,7.73,10.43,15.91,11.49,25.17,3.46-2.38,8.07,1,10.26,4.54s4.44,7.92,8.66,8.34c2.48.25,5.33-1,7.3.51s1.28,4.79,2,7.28c2.2,7.94,17.42,5.28,20.21,13,.85,2.37.19,5.2,1.61,7.31,3.58,5.35,14.08-.76,18.27,4.16,1.65,1.93,1.53,4.91,3.33,6.7,3.48,3.49,10.18-.48,14.39,2.14,3,1.85,3.34,6.2,6.24,8.15,3.78,2.54,9.33-.41,13.44,1.58,4.57,2.22,5.61,9.69,10.71,9.95,3.85.2,6.36-4.17,10.12-5,6.83-1.51,12.05,9,18.8,7.2,2.34-.63,4-2.67,6.32-3.46,5.77-2,11.76,4.62,17.67,3.06,4.08-1.08,6.75-5.81,11-5.74,2.36,0,4.36,1.63,6.63,2.26,0,0,8,4.45,11.74-1l3.77-5.49s6.3,1.94,11,.41,9.39-9.85,9.39-9.85,11.68-.88,13.79-3.94,5.58-7.71,5.58-7.71,8.66-.47,11.83-2.51,5.16-8.62,5.16-8.62,12.24-.06,14.35-3.13,3.69-9.19,3.69-9.19,5.8,2.55,11.08,0,7.61-14,7.61-14,7.15-1.31,9.79-2.84,6.57-11.46,6.57-11.46,16.29-5.92,12.45-8.46.14-22.3.14-22.3-10.52,17.22-15.78,20.5-13.34.88-15,5.38S452,535.47,452,535.47s-5.82-.09-12.25,6.55-8.54,10.73-8.54,10.73-.43-9.71-8.92-1.54-12.7,10.22-12.7,10.22-9.81-5.62-11.95-.51-10.13,12.26-10.13,12.26-6.4-7.66-11.67-2a50.79,50.79,0,0,1-12.67,9.27l-77-.51a7.83,7.83,0,0,0-5.79-2.64c-3.7,0-11.73-.4-11.73-.4s-1.59-10.25-6-8.28-10.76,0-10.76,0a32.69,32.69,0,0,0-6.75-6c-3.52-2.13-9.63-5.14-9.63-5.14s1.93-9.64-4.22-8.26-11.89-2-11.89-2-.37-8.63-5-7.15a59.2,59.2,0,0,1-10.54,2s-5.22-7.07-6.38-7.74l-5.21-3s-6.87-12.64-10-12.7-8.44,0-8.44,0-5.81-14.17-9.5-12.1-7.74-13-7.74-13S150.07,503.68,156.71,513.26Z"/><path class="cls-7" d="M512.2,318.75l-17.56-20.22,1.22-4.4c-50.17-19.52-113.14-14.3-152.14,11.48l-1.84-.23-16.74-.57-6.5.57-1.84.23c-39-25.78-102-31-152.14-11.48l1.29,4.63a2.7,2.7,0,0,0,.16.57l-22.79,21.45,1.43,9.4,24.16-21.33c6.93,24.41,14.89,49.12,22.58,55.95,5.47,4.87,23.57,7.37,38.5,8.57,5.64.5,10.81.77,14.51,1,4.46.19,44,1.88,50.71-3.45s18.42-45.46,21.79-58.14l13.26-.4,13.25.4c3.37,12.68,15.13,52.82,21.8,58.14s46.25,3.64,50.71,3.45c3.7-.2,8.87-.47,14.5-1,14.94-1.2,33-3.7,38.51-8.57,7.78-6.91,15.83-32.1,22.82-56.78l18.91,20.13Zm-221,47.95v.12c-7.29,5.09-86.09,2.47-95.55-5.9-7.8-6.94-17.76-42-21.83-56.45l.21-.18-.51-1.46c44.8-15.25,103.49-11.23,137.41,10.56C304.65,335.28,295.42,363.38,291.25,366.7ZM487,303.4c-3.87,13.77-14.14,50.42-22.13,57.52-9.47,8.37-88.26,11-95.55,5.9v-.12c-4.17-3.32-13.4-31.42-19.73-53.31,33.92-21.79,92.62-25.81,137.42-10.56Z"/></g></svg>