<svg xmlns="http://www.w3.org/2000/svg" viewBox="0 0 114.49 114.22"><defs><style>.cls-1{fill:#fff;}.cls-2{fill:#0d4060;}</style></defs><g id="Layer_5" data-name="Layer 5"><circle class="cls-1" cx="57.48" cy="57.11" r="55.09"/><path class="cls-2" d="M57.48,113.45a56.34,56.34,0,1,1,56.33-56.34A56.41,56.41,0,0,1,57.48,113.45Zm0-110.18a53.84,53.84,0,1,0,53.83,53.84A53.9,53.9,0,0,0,57.48,3.27Z"/><path class="cls-2" d="M57.75,99.51a6,6,0,0,1-4.1-1.79c-1.78-1.72-3.55-3.51-5.26-5.23s-3.29-3.31-5-4.94L39,83.3C33.54,78,27.85,72.5,22.64,66.75,16.71,60.21,15,51.43,18,42c3-9.76,12.48-16.92,22-16.66,5.38.14,9.9,2.34,13.77,6.71C68.29,21,81.65,24,89.4,30.61a25.17,25.17,0,0,1,9,19.56c0,5.65-4,9.9-9,15.29-1,1.05-2,2.13-3,3.28l0,0a4.7,4.7,0,0,1-1.68,5.75,4.78,4.78,0,0,1-6.48-.32c-2.34-2.21-4.72-4.57-7.26-7.22l-.08-.09c-.59-.61-1.57-1.64-2.1-1.64h0c-.15,0-.34.17-.46.3a.73.73,0,0,0-.2.29c0,.25.76.85,1.11,1.15a10.47,10.47,0,0,1,1,.89c1.28,1.4,2.68,2.77,4,4.09.78.76,1.55,1.53,2.32,2.3a6.5,6.5,0,0,1,2.14,4.56,4.71,4.71,0,0,1-1.54,3.37c-2.18,2.07-5.63,1.78-8-.68-.78-.79-1.59-1.56-2.39-2.32a53.42,53.42,0,0,1-4.76-5l-.2-.25c-.21-.27-.78-1-1-1h0a.82.82,0,0,0-.36.24c-.27.24-.29.36-.29.37,0,.21.6.8.89,1.08l.26.25c.92.93,1.85,1.85,2.78,2.78,1.54,1.54,3.09,3.08,4.61,4.64a6.4,6.4,0,0,1,2.18,4.44,4.51,4.51,0,0,1-1.46,3.17,5.66,5.66,0,0,1-8.2-.18l-1.38-1.34c-2.23-2.15-4.53-4.38-6.63-6.74a3.41,3.41,0,0,0-.59-.58,1.26,1.26,0,0,0-.15.1c-.21.16-.3.3-.3.36s.07.33.43.69c2,2,4,4,6.06,6.07l2.13,2.11c1.26,1.26,2.6,3,1.78,5.54a4.86,4.86,0,0,1-4.69,3.59ZM39.46,27.86c-8.16,0-16.5,6.47-19.12,14.91-2.67,8.64-1.24,16.36,4.15,22.31C29.64,70.76,35.3,76.22,40.78,81.5l4.4,4.26c1.68,1.64,3.33,3.3,5,5s3.47,3.49,5.23,5.2a3.15,3.15,0,0,0,2.92,1,2.51,2.51,0,0,0,1.75-1.79c.33-1,0-1.81-1.17-3L56.77,90,50.69,84a3.38,3.38,0,0,1-1.15-2.6,3,3,0,0,1,1.26-2.18c2-1.59,3.51.08,4.15.79,2,2.29,4.3,4.48,6.49,6.6l1.4,1.35a3.18,3.18,0,0,0,4.7.18,2,2,0,0,0,.71-1.41A4.18,4.18,0,0,0,66.79,84c-1.52-1.56-3.06-3.09-4.6-4.62-.93-.93-1.86-1.85-2.78-2.78l-.24-.24a4.16,4.16,0,0,1-1.64-2.91,3,3,0,0,1,1.09-2.16,3,3,0,0,1,2.26-.9,4.2,4.2,0,0,1,2.79,2l.18.22a49,49,0,0,0,4.54,4.72c.82.78,1.64,1.57,2.44,2.38,1.45,1.48,3.36,1.74,4.53.62a2.25,2.25,0,0,0,.77-1.6A4.15,4.15,0,0,0,74.7,76c-.75-.77-1.52-1.52-2.28-2.28-1.37-1.34-2.78-2.73-4.11-4.18a9.4,9.4,0,0,0-.75-.66c-.85-.72-1.92-1.61-2-2.91a2.84,2.84,0,0,1,.86-2.15,3.12,3.12,0,0,1,2.28-1.1h0c1.6,0,2.88,1.34,3.9,2.41l.08.09c2.52,2.62,4.86,5,7.17,7.13a2.33,2.33,0,0,0,3.29.13c.69-.51,1.51-1.41.66-3.26a6.81,6.81,0,0,0-1.34-1.92c-4.68-4.6-9.06-9.58-13.31-14.4-1.46-1.67-2.92-3.33-4.4-5C64,47,64,47,62.94,47.83c-4,3.24-8.18,6.34-11.69,9-4.47,3.31-9.5,2.58-12.83-1.85-2.28-3-1.93-8.86,1.94-11.84,3-2.26,5.85-4.72,8.65-7.1l2.77-2.34a16,16,0,0,0-11.9-5.78ZM64,44.71a3.65,3.65,0,0,1,2.66,1.51c1.49,1.66,3,3.33,4.42,5C75.26,56,79.62,61,84.24,65.49a9.57,9.57,0,0,1,.83,1c.85-.93,1.69-1.82,2.5-2.69,4.68-5,8.38-8.91,8.34-13.57a22.73,22.73,0,0,0-8.14-17.67c-7.15-6.14-19.69-8.77-33.43,2.26-1.25,1-2.48,2.09-3.71,3.13-2.83,2.4-5.75,4.88-8.74,7.18S39,51.59,40.41,53.43c2.51,3.33,6,3.83,9.35,1.34s7.61-5.68,11.62-8.89A4.34,4.34,0,0,1,64,44.71Z"/></g></svg>