<svg xmlns="http://www.w3.org/2000/svg" viewBox="0 0 1334 1000"><defs><style>.cls-1{fill:#ded6c2;}.cls-2,.cls-21,.cls-22,.cls-74{fill:#fff;}.cls-3{fill:#f9e7be;}.cls-4{fill:#ab2c28;}.cls-5{fill:#264f9b;}.cls-6{fill:#231f20;}.cls-103,.cls-104,.cls-110,.cls-115,.cls-117,.cls-120,.cls-121,.cls-14,.cls-18,.cls-27,.cls-30,.cls-62,.cls-7,.cls-70,.cls-73,.cls-76,.cls-79,.cls-80,.cls-84,.cls-85,.cls-96{fill:none;}.cls-7{stroke:#10163b;}.cls-103,.cls-104,.cls-107,.cls-110,.cls-111,.cls-115,.cls-117,.cls-120,.cls-121,.cls-14,.cls-18,.cls-21,.cls-27,.cls-30,.cls-54,.cls-62,.cls-63,.cls-7,.cls-70,.cls-73,.cls-74,.cls-75,.cls-76,.cls-79,.cls-80,.cls-82,.cls-84,.cls-85,.cls-96,.cls-99{stroke-miterlimit:10;}.cls-7,.cls-70,.cls-73{stroke-width:0.62px;}.cls-8{fill:#eae9e8;}.cls-9{fill:#b7b7b8;}.cls-10{fill:#0f8e4e;}.cls-11{fill:#e78e3d;}.cls-12{fill:#791218;}.cls-13{fill:#a91b27;}.cls-14,.cls-18{stroke:#b7b7b8;}.cls-14{stroke-width:1.41px;}.cls-15{fill:#144c92;}.cls-16{fill:#b38867;}.cls-17{fill:#cdb096;}.cls-18{stroke-width:1.64px;}.cls-19{fill:#568948;}.cls-20{fill:#a86e57;}.cls-21{stroke:#a5a4a4;stroke-width:1.87px;}.cls-22{opacity:0.15;}.cls-23{fill:#896550;}.cls-24{fill:#a58069;}.cls-25{fill:#654738;}.cls-26{fill:#282b2b;}.cls-27,.cls-30{stroke:#282b2b;}.cls-27{stroke-width:6.05px;}.cls-28{fill:#f87736;}.cls-29{fill:#b0342a;}.cls-30{stroke-width:5.77px;}.cls-31{fill:#61686c;}.cls-32{fill:#50666b;}.cls-33{fill:#6d6d6d;opacity:0.34;}.cls-34{fill:#a4a39a;opacity:0.6;}.cls-35{fill:#a4372d;}.cls-35,.cls-37{opacity:0.67;}.cls-36{fill:#000106;}.cls-37{fill:#f98145;}.cls-38{fill:#8c8c8c;}.cls-39{fill:#142b30;}.cls-40{fill:#502e27;}.cls-41{fill:#b45d32;}.cls-42{fill:#e28a3d;}.cls-43{fill:#d08c3e;}.cls-44{fill:#13110f;}.cls-45{fill:#010101;}.cls-46{fill:#ae3831;}.cls-47{fill:#681b12;}.cls-48{fill:#251710;}.cls-49{fill:#663b2c;}.cls-50{fill:#777;}.cls-51{fill:#383838;}.cls-52{fill:#512a5f;}.cls-53{fill:#523835;}.cls-54,.cls-55{fill:#151210;}.cls-54,.cls-74,.cls-79,.cls-80{stroke:#231f20;}.cls-54{stroke-width:0.68px;}.cls-56{fill:#1d1710;}.cls-57{fill:#f1eef6;}.cls-58{fill:#c3a5cb;}.cls-59{fill:#331741;}.cls-60{fill:#5b9d50;}.cls-61,.cls-63{fill:#704735;}.cls-62{stroke:#4f2b1b;stroke-width:0.64px;stroke-dasharray:2.55 2.55;}.cls-63{stroke:#442f26;stroke-width:1.28px;}.cls-64{fill:#dda243;}.cls-65{fill:#f2ead4;}.cls-66{fill:#4e685c;}.cls-67{fill:#a23c28;}.cls-68{fill:#cb6535;}.cls-69{fill:#913f26;}.cls-70{stroke:#7c251b;}.cls-71{fill:#32493e;}.cls-72{fill:#7c251b;}.cls-73{stroke:#32493e;}.cls-74{stroke-width:0.4px;}.cls-75{fill:#f9f6e8;stroke:#cebc9f;}.cls-75,.cls-79{stroke-width:1.26px;}.cls-76{stroke:#d39c48;stroke-width:1.1px;}.cls-77{fill:#a32125;}.cls-78{fill:#d39c48;}.cls-80{stroke-width:0.63px;}.cls-81{fill:#10163b;}.cls-82,.cls-89,.cls-99{fill:#40261d;}.cls-82,.cls-99{stroke:#40261d;}.cls-82{stroke-width:0.05px;}.cls-83{fill:#787878;}.cls-103,.cls-104,.cls-84,.cls-85,.cls-96{stroke:#565454;}.cls-84{stroke-width:0.59px;}.cls-85{stroke-width:0.78px;}.cls-86{fill:#595655;}.cls-87{fill:#e57638;}.cls-88{fill:#f6f3f3;}.cls-90{fill:#45423e;}.cls-91{fill:#100f0f;}.cls-92{fill:#a5a3a4;}.cls-93{fill:#f5af43;}.cls-94{fill:#976248;}.cls-95{fill:#969695;}.cls-96{stroke-width:0.75px;}.cls-97{fill:#3d3d3d;}.cls-98{fill:#78513b;}.cls-99{stroke-width:0.05px;}.cls-100{fill:#d87639;}.cls-101{fill:#6b3a6a;}.cls-102{fill:#a3592f;}.cls-103{stroke-width:0.78px;}.cls-104{stroke-width:0.59px;}.cls-105{fill:#656464;}.cls-106{fill:#282828;}.cls-107,.cls-111{fill:#e5e5e5;stroke:#787878;}.cls-107{stroke-width:1.01px;}.cls-108{fill:#a71a25;}.cls-109{fill:#fae2bc;}.cls-110{stroke:#40403f;stroke-width:1.05px;}.cls-112{fill:#0d1819;}.cls-113{fill:#e6d3ab;}.cls-114{fill:#922120;}.cls-115{stroke:#741b16;stroke-width:1.13px;}.cls-116{fill:#3c1411;}.cls-117{stroke:#c8b28b;stroke-width:2.29px;}.cls-118{fill:#5e934d;}.cls-119{fill:#6ca35a;}.cls-120,.cls-121{stroke:#517c42;}.cls-120{stroke-width:0.46px;}.cls-121{stroke-width:0.57px;}.cls-122{fill:#e2e9bc;}.cls-123{fill:#d6dca7;}.cls-124{fill:#5f605f;}.cls-125{fill:#787876;}</style></defs><g id="Layer_1" data-name="Layer 1"><polyline class="cls-1" points="1486.44 1111.2 1486.44 -56.22 -140.13 -56.22 -140.13 1111.2"/><path class="cls-2" d="M356.27,317.36c-2.46-19.5-15.85-34.84-31.76-45.55-3.07-20.36-10-46.75-27.65-57.73-25-15.56-65.42-24.14-93.32-4.48a72.72,72.72,0,0,0-109.3,23.08c-2.42.07-4.87.25-7.33.56-39.84,5-67.34,41.36-62.32,81.17,3.51,27.77,24.93,56.5,49.7,57.66C70.56,403,107.83,427,140.74,422.83a63.43,63.43,0,0,0,22.58-7.29,79.16,79.16,0,0,0,60.52,17.59c24.13-3,44.88-10.87,57.29-28.53,5.27-.22,10.86-.91,15.22-1.46C336.18,398.12,361.29,357.17,356.27,317.36Z"/><polygon class="cls-3" points="309 356.83 73.64 356.83 73.64 294.96 119.53 250.49 263.12 250.49 309 305.87 309 356.83"/><polygon class="cls-4" points="121.95 320.19 45.65 320.19 52.53 312.33 124.65 312.33 121.95 320.19"/><path class="cls-2" d="M1304.29,342.71c-3.17-26.59-22.51-54.11-44.88-55.21,3.36-29.59-30.3-52.58-60-48.61a54.92,54.92,0,0,0-20.4,7A68.75,68.75,0,0,0,1124.34,229c-24.44,3.26-44.45,19.21-54.89,40.82a62.23,62.23,0,0,0-19.25-.44c-36,4.81-65.78,40.7-61.25,78.82,2.95,24.77,15.74,35,35.68,44.67,0,.28-.05,5.16,0,5.44,2.77,14.94,8.32,24.88,25,37.18,18.17,13.38,72.55,17.27,93-4.41,13.33,11.15,32.86,20.1,51,17.68,22-3,38-8.47,47.67-27.82a62.09,62.09,0,0,0,6.63-.53C1284,415.63,1308.82,380.83,1304.29,342.71Z"/><path class="cls-5" d="M1015.88,355.8l-.54,15.21a1,1,0,0,0,1,1.06l122.58,4.34a.9.9,0,0,0,.51-.12l30.86-16.05a1,1,0,0,0-.47-1.92l-1.5.65a1.13,1.13,0,0,0-.48.11l-27.38,14.42a1,1,0,0,1-1.49-1l.44-8.56a1,1,0,0,1,.58-.87l30.69-14.65a1,1,0,0,0-.39-1.93l-118-4.58a.89.89,0,0,0-.4.06l-35.35,12.87A1,1,0,0,0,1015.88,355.8Z"/><line class="cls-2" x1="1140.63" y1="367.19" x2="1167.13" y2="354"/><path class="cls-6" d="M1140.81,367.43l23.24-11.57,3.26-1.62c.46-.23,0-.68-.35-.48l-23.24,11.57-3.26,1.62c-.47.23,0,.68.35.48Z"/><line class="cls-2" x1="1140.17" y1="369.92" x2="1168.15" y2="355.99"/><path class="cls-6" d="M1140.32,370.07l24.49-12.19,3.49-1.74c.48-.23,0-.47-.3-.3L1143.5,368l-3.49,1.74c-.47.23,0,.47.31.3Z"/><line class="cls-2" x1="1147.82" y1="361.35" x2="1168.32" y2="351.29"/><path class="cls-6" d="M1148,361.41l18-8.81,2.54-1.24c.46-.23-.25-.23-.45-.14L1150.14,360l-2.55,1.25c-.45.23.26.23.45.13Z"/><line class="cls-7" x1="1017.32" y1="356.99" x2="1137.28" y2="362.36"/><path class="cls-2" d="M610.32,147.15c-2.51-19.9-16.17-35.54-32.39-46.46-3.13-20.76-10.2-47.69-28.2-58.88C524.2,25.93,483,17.18,454.55,37.23A74.16,74.16,0,0,0,343.07,60.78a73.24,73.24,0,0,0-7.49.57C295,66.46,266.91,103.53,272,144.13c3.57,28.33,25.42,57.64,50.68,58.81-3.8,31.52,34.21,56,67.77,51.78a64.67,64.67,0,0,0,23-7.43,80.77,80.77,0,0,0,61.73,17.93c24.61-3.1,45.77-11.09,58.43-29.09,5.37-.23,11.08-.93,15.52-1.49C589.83,229.52,615.44,187.75,610.32,147.15Z"/><path class="cls-8" d="M422.28,149.76S407.56,101.2,400.89,74a59.44,59.44,0,0,1-9.67,1.2c1.4,10.71,5.5,25,5.52,25.66.16,6.83-20.33,14.92-33.31,3.26-8.24-7.41,5.14-36.47,10.7-47.59,1.36-2.71,2.25-4.36,2.25-4.36s.88-3.21,5.95-1.57c1.45-1.36,7-2.26,8.49-3.53-7.17-3-9.56-3.24-9.56-3.24C363.56,53,343.63,105,336.85,120.08s-19.2,62.09,5.48,68.67c1.57.42-.33.43,47.51,1.54C427.9,191.19,422.28,149.76,422.28,149.76Z"/><path class="cls-9" d="M372.07,60.74S353.4,99.69,355,113.85s40,10.06,42.84,4.41-6.61-43-6.61-43,1.55,27-1.59,29.93-5.25,6.52-17.73,2.75-9.86-7.23-7.53-16.47S372.07,60.74,372.07,60.74Z"/><path class="cls-10" d="M375.6,94.89c1.34,0,3.22,3,4.25,4.85.06-.13.13-.26.2-.38-.91-3.06-2.52-9-1.19-8.24,1.17.63,2.18,3.51,2.73,5.42l.47-.81c-.75-4.49,1.74-10.29,1.74-10.29l.51,2a16.47,16.47,0,0,1,0,4.65c1.43-2.13,2.78-3.69,3.85-4.2,4.93-2.32,6.72-.24,6.72-.24S388,91,386.8,93.1l-1.17,2.11s8.51-1.92,8.52-.35-9.61,3.84-9.61,3.84,7.74.15,8.11,2.82-10-.9-10-.9L382.2,102a6.74,6.74,0,0,1,3,.38c3.69,1.23-1.78,3.17-4.47,4l-5.14,15.57-5.79-.9,3-6.37s2.46-5.76,5.56-12C376.89,100.13,374.13,94.86,375.6,94.89Z"/><path class="cls-11" d="M374.13,123.51s2.2-20.94,23.91-15.26c0,0,2.38,8.17-.19,10S387.8,124.69,374.13,123.51Z"/><path class="cls-12" d="M362.6,120.7a7.61,7.61,0,1,0-7.68-7.53A7.59,7.59,0,0,0,362.6,120.7Z"/><path class="cls-13" d="M375.24,119a7.6,7.6,0,1,0-15.19.17l0,1.31c3.76,2,8.93,2.51,14.06,3.08A8.51,8.51,0,0,0,375.24,119Z"/><path class="cls-8" d="M401.45,75.41s-8.74-28.67-11.72-30.11-8.47-1.43-8.47-1.43l11,35.76Z"/><path class="cls-14" d="M381.39,44.23c-17.7,9.1-37.63,61.1-44.41,76.2s-19.2,62.09,5.48,68.68c1.57.42-.33.42,47.51,1.53,38.06.9,32.44-40.53,32.44-40.53S407.69,101.55,401,74.4c0,0-8.56-27.63-11.29-29.1S381.39,44.23,381.39,44.23Z"/><path class="cls-14" d="M365.78,77.33s6.37-16.44,11.38-25.26a3.45,3.45,0,0,1,6.31.72l9,30.11"/><path class="cls-8" d="M426.83,78.06s12.65-30.76,16-32.19.42,6.15.42,6.15l-9,31.76Z"/><path class="cls-8" d="M399.31,155.1c5-12.85,20.39-52.95,27.63-77.43a45,45,0,0,0,8.7,1.35c-2.08,11.68-7.33,27.14-7.38,27.88-.53,7.49,21.54,17.42,36.39,5.29,9.42-7.69-3.76-40.29-9.29-52.77-1.35-3.05-2.24-4.9-2.24-4.9s-5.88-5.37-10.67,1.53c-1.52-1.57,0,.83-.45-9.5,8-2.92,6.2-1.44,6.2-1.44,18.95,10.91,38.14,69,44.8,85.94s13.41,58.94-4.67,73.21c-5.14,4.06-4.55,2.35-57.12,1.09-31.63-.73-34.58-26.77-34.14-39.41A33.08,33.08,0,0,1,399.31,155.1Z"/><path class="cls-9" d="M457.4,64.1s18.49,43.71,16,59.16-44.38,9-47.23,2.63S435.63,79,435.63,79s-3.11,29.5.18,32.93,5.43,7.43,19.32,3.93,11.2-7.42,9.12-17.68S457.4,64.1,457.4,64.1Z"/><path class="cls-15" d="M454.51,110.29c-1.45-1.74-6.49-4.53-6.49-4.53l.48-4.68-9.38-1-.84,4.69a73.2,73.2,0,0,0-8.37,1.34c-2.13.65-4.19,18.89-4.19,18.89,3.13,8.17,27.33,7.86,27.33,7.86S456,112,454.51,110.29Z"/><path class="cls-16" d="M473.63,116.07c-25.15-7-29.13,16.24-29.13,16.24,15.95,2,23.59-3.44,26.48-6C474.08,124.55,473.63,116.07,473.63,116.07Z"/><path class="cls-17" d="M446.85,132.55s1.6-22.39,26.75-15.34c0,0,.62,7.33-2.15,11.18C468.56,131,462.8,134.51,446.85,132.55Z"/><path class="cls-18" d="M431.45,205.87c52.57,1.26,51.74,2.45,56.88-1.61,18.08-14.27,11.57-55.77,4.91-72.7-.71-1.81-1.4-3.64-2.08-5.46l-2.7-7.27q-1.59-4.27-3.21-8.53-1.81-4.71-3.68-9.4-2-5-4.07-9.85c-1.42-3.32-2.88-6.62-4.41-9.89s-3-6.39-4.68-9.52q-2.32-4.45-4.91-8.75c-1.58-2.59-3.25-5.13-5.07-7.56a50.55,50.55,0,0,0-5.17-6,29.56,29.56,0,0,0-2.61-2.26c-.42-.32-.85-.64-1.3-.92a4.88,4.88,0,0,0-1.05-.63,3.66,3.66,0,0,0-1.24-.1,8.85,8.85,0,0,0-2.8.43c-1.79.62-2.74,2-3.68,3.55-1.09,1.78-2,3.65-2.94,5.51-1.54,3.08-3,6.2-4.4,9.34q-2,4.36-3.84,8.77c-.73,1.71-1.46,3.42-2.17,5.14l0,0c-6.88,23.25-21.11,60.57-26.8,75.28a44.72,44.72,0,0,0-3,19.25C398.34,186.14,404.42,205.24,431.45,205.87Z"/><path class="cls-18" d="M433.83,87.91c2.8-18.41,6.82-28.27,10-33.48a5.08,5.08,0,0,1,8.67,0,67.93,67.93,0,0,1,8.17,18.92"/><polygon class="cls-19" points="565.93 175.05 469.65 204.09 457 145.66 553.28 116.62 565.93 175.05"/><path class="cls-20" d="M951.66,628.91c-5,6.68-36.53,40-51,55.27l-56.13-48.33-14,13.11c.7,1.27,1.42,2.53,2.14,3.79q2.88,5,5.9,9.94,4.3,7,8.87,13.9,5.32,8,11,15.71c3.94,5.27,8.06,10.42,12.45,15.34,2.74,3.07,5.61,6.06,8.63,8.88,4.68,2.32,9,5.58,14,7.15a33.4,33.4,0,0,0,17.69.41c10.86-2.71,18.3-10.9,26.43-18,13.61-13.39,26.48-29.1,35.88-38.91l28.22-48.87C984.63,597.05,951.66,628.91,951.66,628.91Z"/><rect class="cls-21" x="491.5" y="651.58" width="75.7" height="78.46"/><rect class="cls-21" x="491.5" y="569.55" width="75.7" height="78.46"/><rect class="cls-21" x="-61.39" y="651.43" width="75.7" height="78.46"/><rect class="cls-21" x="-61.39" y="569.4" width="75.7" height="78.46"/><rect class="cls-21" x="-61.39" y="487.32" width="75.7" height="78.46"/><rect class="cls-21" x="18.19" y="651.41" width="75.7" height="78.46"/><rect class="cls-21" x="96.99" y="651.45" width="75.7" height="78.46"/><rect class="cls-21" x="18.19" y="569.38" width="75.7" height="78.46"/><rect class="cls-21" x="96.99" y="569.42" width="75.7" height="78.46"/><rect class="cls-21" x="18.19" y="487.3" width="75.7" height="78.46"/><rect class="cls-21" x="96.99" y="487.35" width="75.7" height="78.46"/><rect class="cls-21" x="175.72" y="651.45" width="75.7" height="78.46"/><rect class="cls-21" x="254.53" y="651.5" width="75.7" height="78.46"/><rect class="cls-21" x="175.72" y="569.42" width="75.7" height="78.46"/><rect class="cls-21" x="254.53" y="569.47" width="75.7" height="78.46"/><rect class="cls-21" x="175.72" y="487.35" width="75.7" height="78.46"/><rect class="cls-21" x="254.53" y="487.4" width="75.7" height="78.46"/><rect class="cls-21" x="333.97" y="651.53" width="75.7" height="78.46"/><rect class="cls-21" x="412.78" y="651.58" width="75.7" height="78.46"/><rect class="cls-21" x="333.97" y="569.5" width="75.7" height="78.46"/><rect class="cls-21" x="412.78" y="569.55" width="75.7" height="78.46"/><rect class="cls-21" x="333.97" y="487.43" width="75.7" height="78.46"/><rect class="cls-21" x="412.78" y="487.47" width="75.7" height="78.46"/><rect class="cls-21" x="570.31" y="651.63" width="75.7" height="78.46"/><rect class="cls-21" x="570.31" y="569.6" width="75.7" height="78.46"/><rect class="cls-21" x="491.5" y="487.47" width="75.7" height="78.46"/><rect class="cls-21" x="570.31" y="487.52" width="75.7" height="78.46"/><rect class="cls-21" x="648.67" y="651.56" width="75.7" height="78.46"/><rect class="cls-21" x="648.67" y="569.53" width="75.7" height="78.46"/><rect class="cls-21" x="648.67" y="487.45" width="75.7" height="78.46"/><rect class="cls-21" x="491.58" y="898.93" width="75.7" height="78.46"/><rect class="cls-21" x="491.58" y="816.9" width="75.7" height="78.46"/><rect class="cls-21" x="-61.32" y="898.78" width="75.7" height="78.46"/><rect class="cls-21" x="-61.32" y="816.75" width="75.7" height="78.46"/><rect class="cls-21" x="-61.32" y="734.67" width="75.7" height="78.46"/><rect class="cls-21" x="18.26" y="898.75" width="75.7" height="78.46"/><rect class="cls-21" x="97.06" y="898.8" width="75.7" height="78.46"/><rect class="cls-21" x="18.26" y="816.72" width="75.7" height="78.46"/><rect class="cls-21" x="97.06" y="816.77" width="75.7" height="78.46"/><rect class="cls-21" x="18.26" y="734.65" width="75.7" height="78.46"/><rect class="cls-21" x="97.06" y="734.69" width="75.7" height="78.46"/><rect class="cls-21" x="175.79" y="898.8" width="75.7" height="78.46"/><rect class="cls-21" x="254.6" y="898.85" width="75.7" height="78.46"/><rect class="cls-21" x="175.79" y="816.77" width="75.7" height="78.46"/><rect class="cls-21" x="254.6" y="816.82" width="75.7" height="78.46"/><rect class="cls-21" x="175.79" y="734.69" width="75.7" height="78.46"/><rect class="cls-21" x="254.6" y="734.74" width="75.7" height="78.46"/><rect class="cls-21" x="334.04" y="898.88" width="75.7" height="78.46"/><rect class="cls-21" x="412.85" y="898.93" width="75.7" height="78.46"/><rect class="cls-21" x="334.04" y="816.85" width="75.7" height="78.46"/><rect class="cls-21" x="412.85" y="816.9" width="75.7" height="78.46"/><rect class="cls-21" x="334.04" y="734.77" width="75.7" height="78.46"/><rect class="cls-21" x="412.85" y="734.82" width="75.7" height="78.46"/><rect class="cls-21" x="570.38" y="898.98" width="75.7" height="78.46"/><rect class="cls-21" x="570.38" y="816.95" width="75.7" height="78.46"/><rect class="cls-21" x="491.58" y="734.82" width="75.7" height="78.46"/><rect class="cls-21" x="570.38" y="734.87" width="75.7" height="78.46"/><rect class="cls-21" x="648.74" y="898.9" width="75.7" height="78.46"/><rect class="cls-21" x="648.74" y="816.88" width="75.7" height="78.46"/><rect class="cls-21" x="648.74" y="734.8" width="75.7" height="78.46"/><path class="cls-22" d="M533.64,843.9a7,7,0,0,1-3.53-4c-.29-.85-.36-1.78-.65-2.63-1.18-3.41,1-10,4.15-11.6a1.77,1.77,0,0,0,1.22-1.84q0-9.42,0-18.86c0-1.12-.26-1.64-1.49-1.63-7.76.08-15.52.08-23.28.11l-24.33-.09c-.12.24-.34.48-.35.72q-.06,10.07-.09,20.14c0,.59.08,1.16.73,1.35,3.32,1,4.17,3.83,4.75,6.73.87,4.31-.06,9.19-3.9,11.37a2.78,2.78,0,0,0-1.6,2.9c0,20,.1,40,0,60a21.68,21.68,0,0,0,2.67,11c.87,1.54,1.36,3.82,3.83,3.81l18.34-.06,0,.13c6,0,12-.06,17.93-.05a2.77,2.77,0,0,0,2.52-1c2.29-3.13,4.27-6.52,4.29-10.5.11-21.27.06-42.53.07-63.8A1.87,1.87,0,0,0,533.64,843.9Z"/><path class="cls-20" d="M686,510a69.05,69.05,0,0,0,1.1-20.48,62.57,62.57,0,0,0-4.1-14.92,96.05,96.05,0,0,0-7.33-15.6,45.85,45.85,0,0,0-3.77-5.53l-2.54,3.11L563.6,414.51c-.23,8.21-.91,8-7,17.2,0,0,62.66,61.06,72.67,67.56,26.25,17,43.87,17.92,55.71,15.48C685.37,513.18,685.71,511.6,686,510Z"/><path class="cls-20" d="M714.48,397.3c-1.77-1.21-39.94-20.76-42.89-22.67C668.51,390.25,657.41,444,653.48,463c2.86,1.16,2.14,1.65,4.57,3.22a105.51,105.51,0,0,1,14.06,11.05A60.38,60.38,0,0,1,683,489.74c4.06,6.5,0,17.61,2,25,21.09-6.36,22.09-31.31,26.43-47.89C714.11,456.66,722.52,402.84,714.48,397.3Z"/><rect class="cls-23" x="-399.26" y="686.34" width="1221.56" height="474.46"/><rect class="cls-24" x="-407.6" y="649.34" width="1250.07" height="55.36"/><path class="cls-25" d="M776.79,1102.34H519c-3.46,0-7.06-.3-10.51,0H508l2.21,1.67V759.15c0-4.64.22-9.34,0-14,0-.2,0-.4,0-.61l-5,2.53H763.07c3.46,0,7.06.29,10.51,0H774l-2.21-1.67v344.85c0,4.66,0,9.32,0,14v.62c0,1.6,1.84,1.78,3.11,1.63,1.06-.13,4.06-1,4.06-2.49V744.56c0-1.21-1.1-1.67-2.21-1.67H519c-3.5,0-7,0-10.51,0H508c-1.17,0-5,.67-5,2.53v359.45c0,1.21,1.1,1.67,2.21,1.67H763.07c3.5,0,7,0,10.51,0H774c1.55,0,3.88-.49,4.72-2S778.07,1102.34,776.79,1102.34Z"/><path class="cls-20" d="M826.57,1098.94s-50,17.13-65.78,17.63-20.42,4-20.42,4,30.16-14.17,50-23.34c4.18-1.93-14.17-133.17-22.86-190.41-6-39.77-7.3-71.52-7.3-71.52L833,839.72,831.7,900.5l3.39,11c1.76,5.77,4.3,16,4.92,22,1.65,16.17-1.88,40.57-2.41,48.88-.91,14-2.53,31.13-3,36.07l-8.51,66.61Z"/><path class="cls-20" d="M875.19,1100.54s-64.33,31.41-80.12,31.2-10.16-7.62-10.16-7.62,48.18-30.57,52.42-37.22c2.32-3.65-11.09-121.05-16.49-178.63-3.75-40-3.2-71.79-3.2-71.79l72.4,7.76-4.72,57.67,2.74,11.19c1.44,5.85,3.39,16.22,3.65,22.23.73,16.23-4.27,43.44-5.28,51.71-1.71,14-4.31,31-5.07,35.91l-7,61.71Z"/><rect class="cls-26" x="410.72" y="638.7" width="21.29" height="8.36"/><rect class="cls-26" x="600.74" y="638.7" width="21.29" height="8.36"/><line class="cls-27" x1="514.35" y1="588.11" x2="514.35" y2="601.33"/><path class="cls-28" d="M477.27,596.69c0,6-3.31,4.87-7.39,4.87s-7.4,1.16-7.4-4.87,7.4-17,7.4-17S477.27,590.65,477.27,596.69Z"/><path class="cls-28" d="M493.41,596.69c0,6-3.31,4.87-7.39,4.87s-7.4,1.16-7.4-4.87,7.4-17,7.4-17S493.41,590.65,493.41,596.69Z"/><path class="cls-28" d="M510.05,596.69c0,6-3.31,4.87-7.4,4.87s-7.39,1.16-7.39-4.87,7.39-17,7.39-17S510.05,590.65,510.05,596.69Z"/><path class="cls-28" d="M534.1,596.69c0,6-3.31,4.87-7.39,4.87s-7.4,1.16-7.4-4.87,7.4-17,7.4-17S534.1,590.65,534.1,596.69Z"/><path class="cls-28" d="M551.23,596.69c0,6-3.31,4.87-7.39,4.87s-7.39,1.16-7.39-4.87,7.39-17,7.39-17S551.23,590.65,551.23,596.69Z"/><path class="cls-28" d="M568.12,596.69c0,6-3.31,4.87-7.39,4.87s-7.4,1.16-7.4-4.87,7.4-17,7.4-17S568.12,590.65,568.12,596.69Z"/><path class="cls-29" d="M474.72,598.66c0,4-2.17,3.19-4.84,3.19s-4.85.76-4.85-3.19,4.85-11.13,4.85-11.13S474.72,594.7,474.72,598.66Z"/><path class="cls-29" d="M490.86,599.24c0,4-2.17,3.19-4.84,3.19s-4.85.77-4.85-3.19S486,588.11,486,588.11,490.86,595.29,490.86,599.24Z"/><path class="cls-29" d="M507.5,598.66c0,4-2.17,3.19-4.85,3.19s-4.84.76-4.84-3.19,4.84-11.13,4.84-11.13S507.5,594.7,507.5,598.66Z"/><path class="cls-29" d="M531.82,598.66c0,4-2.17,3.19-4.85,3.19s-4.85.76-4.85-3.19S527,587.53,527,587.53,531.82,594.7,531.82,598.66Z"/><path class="cls-29" d="M548.56,598.66c0,4-2.17,3.19-4.84,3.19s-4.85.76-4.85-3.19,4.85-11.13,4.85-11.13S548.56,594.7,548.56,598.66Z"/><path class="cls-29" d="M565.57,598.66c0,4-2.17,3.19-4.84,3.19s-4.85.76-4.85-3.19,4.85-11.13,4.85-11.13S565.57,594.7,565.57,598.66Z"/><polyline class="cls-30" points="456.86 601.33 456.86 588.41 572.89 588.41 572.89 601.33"/><rect class="cls-31" x="410.72" y="601.33" width="211.31" height="37.37"/><circle class="cls-26" cx="516.37" cy="620.02" r="12.62"/><path class="cls-32" d="M207.91,493.7a.47.47,0,0,1,.81,0Z"/><path class="cls-33" d="M481.53,450.41c-5.43-9.27-12.66-19.05-13.22-30.18-.48-9.66,5.21-17.7,11.35-24.57,7-7.88,12.67-16.42,10.87-27.55-1.24-7.67-6.35-18.13-15.27-18.65a10.9,10.9,0,0,0-8.84,3.88,11.72,11.72,0,0,0-2.46,9.39c.65,3.69,3.53,7.07,7.53,6.44a6.26,6.26,0,0,0,3.57-2,.86.86,0,0,1,1.47.74c-.47,2.28-1.67,4.29-4.13,4.81a8.2,8.2,0,0,1-3.55-.19c-10.59-2.58-15.67-15.45-8-23.74,6.3-6.81,15.19-9.43,23.08-3.94,11.14,7.76,14,20.85,11,33.48-2.42,10.07-9,17.3-15.91,24.61C466.78,416,473.62,436.92,481.53,450.41Z"/><path class="cls-33" d="M491.8,434.94c-1.47-7.37-3.05-13.11-.34-20.72A33.81,33.81,0,0,1,506.88,396c5.23-2.87,15.41-5.08,19.13,1.38,1.44,2.5,2.25,7.15.9,9.69-2,3.79-5,5.65-9.33,6.9a18.62,18.62,0,0,1-4.78.76,1.62,1.62,0,0,1-.34-3.16,41.29,41.29,0,0,0,5.46-1.75c2.31-1.34,4.19-2.8,4.33-5.6.2-3.95-4.88-6-8.11-5.78C498,399.8,488.89,420.33,491.8,434.94Z"/><path class="cls-33" d="M451.66,381.34c-2.77-1.69-5.25-2-7.69,1.11-1.74,2.2-1.56,5.39-.7,7.91.78,2.31,3.44,3.47,6.12-1.39a.73.73,0,0,1,1.38.38c-.35,10-8.77,7-10.4,4.5a15.22,15.22,0,0,1-2.05-9.29,8.49,8.49,0,0,1,5.63-7.51c7-2.43,13.52,3.53,15.59,9.14,0,0,2.69,7.27,1.91,13.13s-.45,26-.45,26-2.5-21-2.58-26.65S457.22,384.73,451.66,381.34Z"/><rect class="cls-34" x="242.14" y="584.63" width="64.84" height="64.84" rx="8.72"/><path class="cls-35" d="M295.41,612.93c-2.68-.88-5.1-.15-7.75.38-6,1.2-12.05,2.07-18.14.78a30.49,30.49,0,0,1-8.81-3.59c-.8-.46-1.57-1-2.34-1.49a73.91,73.91,0,0,1-7.92,2.12,9.24,9.24,0,0,1-2.82.1s-.07.1-.1.16v25.92a6.93,6.93,0,0,0,6.91,6.91h41a6.94,6.94,0,0,0,6.92-6.91V615.4C300,614.88,297.87,613.73,295.41,612.93Z"/><rect class="cls-36" x="249.74" y="571.15" width="49.24" height="13.48" rx="3.59"/><rect class="cls-34" x="313.88" y="585.11" width="64.84" height="64.84" rx="8.72"/><path class="cls-37" d="M367,624c-2.5-.94-4.93-2.34-7.56-2.91-4.83-1.06-9.63,2.93-14.52,3.34a19.91,19.91,0,0,1-9.76-2c-2.1-.92-4.2-2.39-6.45-2.85a6.1,6.1,0,0,0-4.39.58c-.85.46-.59-.05-.9.86.37-1.08.2,1.48.22,1.63.31,2.89-1.79,5.46-4.36,6.66v8.56a6.93,6.93,0,0,0,6.92,6.91h41a6.93,6.93,0,0,0,6.92-6.91V625.5A25.39,25.39,0,0,1,367,624Z"/><rect class="cls-36" x="321.48" y="571.63" width="49.24" height="13.48" rx="3.59"/><ellipse class="cls-38" cx="557.1" cy="892.63" rx="12.21" ry="13.76"/><path class="cls-25" d="M211.21,1105.39H469c3.5,0,7,0,10.5,0H480c1.18,0,5-.67,5-2.53V758c0-4.66,0-9.32,0-14v-.61c0-1.21-1.09-1.67-2.21-1.67H224.92c-3.5,0-7,0-10.5,0H214c-1.18,0-5,.67-5,2.53v344.86c0,4.66,0,9.32,0,14v.61c0,1.6,1.84,1.78,3.12,1.63,1-.12,4-1,4-2.49V758c0-4.64.21-9.34,0-14,0-.2,0-.4,0-.61l-5,2.53H469c3.46,0,7.06.29,10.5,0,.16,0,.31,0,.46,0l-2.21-1.67v344.86c0,4.64-.21,9.34,0,14,0,.2,0,.4,0,.61l5-2.53H224.92c-3.5,0-7,0-10.5,0H214c-1.55,0-3.89.49-4.72,2S209.92,1105.39,211.21,1105.39Z"/><ellipse class="cls-38" cx="430.9" cy="891.49" rx="12.21" ry="13.76"/><path class="cls-25" d="M188.57,1100.19H-69.21c-3.45,0-7.06-.29-10.5,0h-.46l2.21,1.67V757c0-4.64.21-9.34,0-14,0-.2,0-.4,0-.61l-5,2.53H174.86c3.46,0,7.06.29,10.51,0,.15,0,.3,0,.45,0l-2.21-1.67v359.45c0,1.6,1.84,1.78,3.12,1.63,1.06-.13,4.05-1,4.05-2.49V757c0-4.66,0-9.32,0-14v-.61c0-1.21-1.09-1.67-2.21-1.67H-69.21c-3.5,0-7,0-10.5,0h-.46c-1.17,0-5,.67-5,2.53v344.85c0,4.66,0,9.32,0,14v.62c0,1.21,1.1,1.67,2.21,1.67H174.86c3.5,0,7,0,10.51,0h.45c1.56,0,3.89-.49,4.72-2S189.86,1100.19,188.57,1100.19Z"/><path class="cls-39" d="M730.77,830.43c-2.6-43.63-2.47-134.5-2.47-178.08l1.59-118.48c9.53-2.33.85-11.61,1.34-14,4.29.59-5.39,5.45-1,5.75a236.59,236.59,0,0,0,42.92-1.13c29.3-3.29,57.23-10.94,84-19.52,10.59-3.39,21.06-7,31.49-10.6l-6.47,2.81c11-4.78,24.93,6.22,31.31,13.68,19.16,22.42,26.24,55.17,28.17,83.9,2,29.68-10.5,58.35-13.5,87.63C918,781.47,910.36,895.27,910.36,895.27s-33.43,11.94-105.47,9.23c-16-.6-69-7.31-69-7.31C734.57,881.33,732.05,851.74,730.77,830.43Z"/><path class="cls-20" d="M673.72,376.79s0,.06.17.14C674.92,371.7,675.05,370.73,673.72,376.79Z"/><path class="cls-20" d="M795.94,249.55c.42.64,5.08,4.52,7.67,5-2,5.91-.11,22.58-4.82,26.91-8.88,8.17-30.46,32.41-42.46,33.32-10.67.81-37.11-8.53-26.33-36.13,2.54-7.43,4.29-8.77,4.32-10,.08-3.75-9-25.69-9-25.69l57.76-38.43S783.59,230.31,795.94,249.55Z"/><path class="cls-40" d="M733.19,265.25s4.4-4.83,8.57-6.79,11.71-3,29-23.85c-.15.18,0,1.33,0,1.57a18.8,18.8,0,0,1-.92,4.32c-1.79,5.46-5.45,10.18-9.59,14.08a63.69,63.69,0,0,1-10.23,7.82,39,39,0,0,1-10.74,5,30.65,30.65,0,0,1-3.43.7c-.29,0-1.74.67-1.78.42Z"/><path class="cls-20" d="M685.87,138a3.45,3.45,0,0,1-.18.51l.24-.27Zm-10.7,5.58.05.2a6.75,6.75,0,0,0,.41-.57C675.56,143,675.17,143.57,675.17,143.57ZM781.6,211l.38-4.3c6.88,6,14.39-1.6,12.63-11.91,1.65-5.72,1.64-23.53-3.72-27.86l-.68-.66c-3.46-1.63-8.94-1.47-10.28,2.94-.34,1.86.73,3.86.39,5.73-.28,2.1-2.2,6.4-3.06,8.4,0,0-3.83-9.4-4.75-14s-7.43-16.83-17.12-21.14c0,0-3.89-16-8.75-19.78l-1.41-.14c-.78.21-1.24.58-2,.78-.06-.24.13-.54,0-1a8.56,8.56,0,0,1-3.3,1.12c.19-.31.65-.68.59-.92a13.82,13.82,0,0,1-3.11.81c.2-.3.6-.91.53-1.15-1.17.81-2.07.54-3.1.81a1.79,1.79,0,0,0,.27-1.08,7.21,7.21,0,0,1-3,1c.19-.3.33-.84.53-1.15-1.17.81-2.07.54-3.11.81-.26.07.4-.61.33-.84a9.64,9.64,0,0,1-2.52.91c-.06-.24.39-.61.33-.85-1.43.88-2.33.61-3.36.88l.53-1.15a3.8,3.8,0,0,1-3,1.28c.19-.3.59-.91.52-1.15a5.26,5.26,0,0,1-4,1.55c.26-.06.59-.91.53-1.15-1.05,1.29-2.14,1.32-3.44,1.66.2-.31.34-.85.73-1.46a5.48,5.48,0,0,1-4.73,2c.26-.07.33-.85.27-1.09-.79,1.22.85-.47-.51-.37,0,0-2.73,1.72-2.79,1.48-.85,1,1.68-4.73.39-4.4.13-.54-7.31,2.38-6.92,1.77-1,1.29-.91.73-2.52.9,0,0-4.63,4.24-4.44,3.94-1,1.52-1.82.68-3.44.84.2-.3,1.2.75,1.39.45-.78,1.22-.75-.06-2,.28-.07-.24-4.64-.44-4.7-.68-1.11,1-.66,1-2.21,1.45-.06-.24-.29,2.87-.09,2.57-.79,1.22-.94.42-2.3.52l-1,1.22c-1,1.52.66.54-1,.71,0-.16,6-.78,6.19-1.15a9.88,9.88,0,0,1-3,2.34c-.06-.24.08-.78,0-1a5.34,5.34,0,0,1-3.76,2.5c.26-.07.39-.61.33-.85-1,1.53-2.35,2.65-4.09,2.34a8.92,8.92,0,0,1-3.18,2.61,1.06,1.06,0,0,1,.26-1.09l-1,.27c-.8,2.24-1.66,4.24-1.55,6.74,0,0-4.74,15.15-2.19,23.86s7.28,24.1,8.53,27.83a44.54,44.54,0,0,1,1.62,11.29c.69,16.11,7.85,21.7,15.08,30,3.23,3.69,7,6.7,10.51,10.08,3.86,3.74,7.47,7.61,12.23,10.25s11.89,1.64,17.7.42c16.22-3.43,31.32-18.65,38.87-31.63"/><path class="cls-41" d="M668.73,161.94c2.67-15.46,18.27-27.29,49.94-39.8S779,114.93,779,114.93c-27.42-42.88-74.53-29-85.13-26.19s-54.51,58.3-26.5,92.46l2.43,2.64S668.25,164.76,668.73,161.94Z"/><path class="cls-41" d="M784.87,103s-3.72-30.37-27.72-34.64c-32-5.7-72.61-1.33-78.74,32.47Z"/><path class="cls-42" d="M800.49,175c1.75-3-.65-9.64.68-12.85,7-16.82,0-29.69-6.19-36.81-2.7-3.09-1.84-10-2.82-13.06C787,96.14,785,96.13,756.32,85.68c-23.35-8.5-44.64-2.3-56.89,1.6-19.61,6.25-28,9.78-31.33,25.69-.42,2.08.56,2.53.37,5-.25,3.41-4.69,5.8-4.48,10,0,0,28.2,3.62,53.16,9.74s75.78,41.77,77.76,55.9C795,194,798.56,178.3,800.49,175Z"/><path class="cls-41" d="M803.33,147s-61.08-45.63-102.21-35.33c0,0,62.16-17.24,95.33,14.59l.95,1.36a37.5,37.5,0,0,1,5.43,11.87Z"/><path class="cls-43" d="M785.9,202.78c2.55-.4,4.27,1.31,5.1,3.35,1.48,3.67-1.72,7.65-5.53,6.57a3.73,3.73,0,0,1-.44-.14s5.17,3.68,8.36,0,.37-8-1.27-8.93C788.49,201.51,785.9,202.78,785.9,202.78Z"/><path class="cls-44" d="M768.48,165.4l7.4,22.74,5.46-12.31S772.17,168.35,768.48,165.4Z"/><path class="cls-6" d="M788.37,186.46A10.24,10.24,0,0,1,787.2,193c-.22.36-.68,1.09-1.18,1s-.93-.74-1.09-1.13a7,7,0,0,1,0-3.56,5.83,5.83,0,0,0,0-3c-.57-1.29-2.28-1-3.37-.74l.64.45,3.41-6.7c.29-.56-.85-.56-1.07-.12l-3.41,6.69c-.21.4.37.51.64.44.51-.12,1.31-.36,1.79,0a1.44,1.44,0,0,1,.42,1.16c0,1.29-.34,2.56-.37,3.85a3.47,3.47,0,0,0,1.28,3.16c1.23.81,2.5,0,3.24-1.08a10.78,10.78,0,0,0,1.41-7.31c-.06-.51-1.19-.23-1.12.31Z"/><path class="cls-45" d="M710.44,223.21a6.74,6.74,0,0,0,6.19-2.06c.33-.37,1.72-.46,1.26.06a9.52,9.52,0,0,1-8.46,2.65c-.26-.07-.27-.27,0-.44a1.41,1.41,0,0,1,1-.21"/><path class="cls-45" d="M718.53,220.46a11,11,0,0,1,3.61-2,.91.91,0,0,1,.65.05c.14.08.2.22.07.34a4.18,4.18,0,0,1-2,1.08.85.85,0,0,1-.73-.1c-.17-.17,0-.35.2-.39a3.23,3.23,0,0,0,1.6-.87l.73.39a9.71,9.71,0,0,0-3.22,1.83.84.84,0,0,1-.74.1c-.16,0-.37-.22-.18-.39"/><path class="cls-45" d="M723.9,219.26a5.45,5.45,0,0,0,3.65-3.11c.67-2.2-1.2-4.92-3.48-5.62-.25-.08-.18-.28,0-.38a1.3,1.3,0,0,1,.89,0,6.18,6.18,0,0,1,3.95,4.64c.19,1.72-1,3.27-2.76,4.24a8.22,8.22,0,0,1-1.67.71,1.08,1.08,0,0,1-.85-.06c-.17-.17,0-.32.25-.38"/><path class="cls-45" d="M707.35,223.1a.23.23,0,0,0-.28-.26,1.82,1.82,0,0,1-1.33-.11c-.09.22-.18.43-.28.65a5.41,5.41,0,0,1,2.71.3.45.45,0,0,0,.48-.22c.07-.11.13-.35,0-.42"/><path class="cls-45" d="M708.6,223a6.19,6.19,0,0,0-3-.32.52.52,0,0,0-.37.31.25.25,0,0,0,.1.34"/><path class="cls-45" d="M704.15,224.18a3.36,3.36,0,0,1-3.26-1.32,5.29,5.29,0,0,1-.18-5.68.21.21,0,0,0-.17-.33.58.58,0,0,0-.49.33,5.8,5.8,0,0,0-.47,5,3.94,3.94,0,0,0,3.22,2.69,3.45,3.45,0,0,0,1.2,0c.15,0,.41-.18.43-.39s-.14-.28-.28-.24"/><path class="cls-44" d="M683.51,195.39a3.69,3.69,0,0,0-4.51,3.77,3.89,3.89,0,0,0,1.77,3.18,3.6,3.6,0,0,0,4.17-.35,4,4,0,0,0,.72-5,3.53,3.53,0,0,0-2.15-1.65"/><path class="cls-44" d="M699,196s-8.43-3.68-12.09-3.1c-5.35.84-11,5.41-12.2,8.48,0,0,7.38-6.54,11.17-7C689.44,193.89,699,196,699,196Z"/><path class="cls-44" d="M726.75,184.06a5,5,0,0,1,4.76-.93,3.77,3.77,0,0,1,1.53,1.41,3.88,3.88,0,0,1,0,3.64,3.61,3.61,0,0,1-3.81,1.74,4,4,0,0,1-3-4c0-.3-.42-.77.58-1.67"/><path class="cls-44" d="M721,189.41s6.58-7.08,10.44-8.21c5.62-1.64,13.25-.09,15.79,2.14,0,0-10.2-2.56-14.13-1.29C729.39,183.25,721,189.41,721,189.41Z"/><path class="cls-44" d="M672.9,194.52a1.72,1.72,0,0,0-.56.17c-.25-.19-.49-.4-.73-.6a3.72,3.72,0,0,1-.4-.49l-.06-.14a13.41,13.41,0,0,1,.53-4.12,15.1,15.1,0,0,1,2.91-4.87c1.48-1.7,6.25-5.47,13.44-9.24l1.85,2.71,1.4,2.08c-2.7,1-4.93,2-6.58,2.75-3.51,1.63-5.29,2.48-6.91,4a20.7,20.7,0,0,0-3.26,4.19,13.46,13.46,0,0,0-1.4,2.67A8.24,8.24,0,0,0,672.9,194.52Z"/><path class="cls-44" d="M714.53,169.29c.13,1.09.27,2.17.42,3.26l.33,2.48c3.21-1.11,6-1.91,8.08-2.47,4.43-1.19,6.7-1.79,9.37-1.74a28.28,28.28,0,0,1,6.19.85,16.91,16.91,0,0,1,3.33,1c2.39,1.07,3.48,2.48,3.83,2.3s-.39-1.43-.47-1.56a13.3,13.3,0,0,0-5.41-4.92,19.59,19.59,0,0,0-6.38-1.59c-2.66-.24-9.89.25-19.29,2.38"/><path class="cls-46" d="M693.17,403.56c-1,14.55-3.52,30.33,7.85,41.49a83,83,0,0,0,12.55,10.53c2.15,1.37,6.92,1.63,8.48,3.61,11.32,14.37,5,55.73,4.44,93.06,0,0,53.41,10.84,96.35,8.51s99.06-44,99.06-44c-21.09-36-35.8-53.71-35.8-53.71l1.44-72-3-53.59c-.44-38-9.33-59.18-32.34-66.8L803.41,253s-15,47.85-51.26,47.65-17.72-31.32-17.72-31.32-35.4,19.58-43,27.44a80.47,80.47,0,0,0-21.79,47.77c-2.5,24.09-10.17,55.6-11.68,59.75s32.71,5.59,32.71,5.59"/><path class="cls-47" d="M687.22,365.23c5.1,5.51,4.39,13,3.72,19.9-.8,8.25-1.63,16.5-1.45,24.79,0,1.31,2.45,1,2.42-.15-.18-8.57.72-17.09,1.53-25.61.67-7,1.06-14.49-4-20-.78-.84-3,.16-2.18,1.08Z"/><path class="cls-46" d="M801.1,273.41s43.78-16,64.9,4.29,39.31,71.6,39.31,71.6-43.3,28.45-72.24,32.36S801.1,273.41,801.1,273.41Z"/><path class="cls-47" d="M833.62,279.5c-7.44,2.78-13.25,9.33-16.88,16.23a32.17,32.17,0,0,0-3.42,11.16,139.35,139.35,0,0,0-1.16,14,78.1,78.1,0,0,0,2.16,21.33,117.93,117.93,0,0,0,6.79,18.45c3.92,8.87,7.95,17.68,11.45,26.73.1.27.79.15,1,.11l7.18-1.51c.27-.05,1.39-.26,1.41-.65s-.72-.27-1-.22L834,386.63l1,.12c-3.09-8-6.56-15.83-10.07-23.64a154.33,154.33,0,0,1-7.26-18.27,73.78,73.78,0,0,1-3.08-19.63,109.63,109.63,0,0,1,.46-12.42c.38-4.33.65-8.84,2.11-13a37.67,37.67,0,0,1,6.79-11.67c2.84-3.37,6.35-6.57,10.54-8.13.24-.1.94-.33.72-.68s-1.34.07-1.55.15Z"/><path class="cls-40" d="M834.71,1029.1c-1.3-15.49-3.5-30.9-5.67-46.28-2.43-17.22-5-34.43-7.2-51.69-1.05-8.3-2-16.61-2.74-25-.06-.74-1.72-.34-1.66.45,1.32,15.74,3.53,31.4,5.73,47,2.41,17.15,5,34.29,7.18,51.47,1,8.12,2,16.25,2.7,24.41.07.74,1.73.35,1.66-.44Z"/><path class="cls-48" d="M717.72,231.52c6.08-1.86,20.69-2,24.16-.34,0,0-5.38,7.22-19.47,11.53s-16.63-1.29-16.63-1.29S710,233.89,717.72,231.52Z"/><path class="cls-2" d="M735.3,230.16s-7.42,1.59-13.18,3.35-12.81,4.59-12.81,4.59-2.32-4.29,8.13-7.49S735.3,230.16,735.3,230.16Z"/><path class="cls-49" d="M721.78,243c6.29-3,12.25-10,20.1-11.8,0,0,.7,12.32-15.87,17.38s-20.23-7.14-20.23-7.14C713.32,238.56,714.88,244,721.78,243Z"/><path class="cls-49" d="M709.46,230.23c3.39-1.33,6-.61,7.54-1.07s3.29-2.54,6.85-3.33c3.34-.74,19.71,3.51,18.51,5.08s-13.8-1.38-24.27,1.82-10.43,9.32-12.31,8.69S706.27,231.48,709.46,230.23Z"/><path class="cls-40" d="M696.14,169.16s9,6.43,1.17,10.23C697.31,179.39,702.16,176.77,696.14,169.16Z"/><path class="cls-40" d="M700.92,167s-2,12.39,8.17,8.59c0,0-7,2.94-8.22-8.22"/><path class="cls-20" d="M855.69,368.48c-.48.46-5.63,1.73-7,3.24-1.07,1.18,22.34,29.78,21.36,28.85-18.25-17.35-37.4-41.05-56.84-57.65-.56,32.83,25.82,118,70.33,111,21.77-3.45,21.36-36.8,10-98.79C883.54,357.41,871,363.81,855.69,368.48Z"/><path class="cls-20" d="M881.73,402.4c-4.49-3.79-42.94-51.46-42.94-51.46l-44-62.77-22.1,9s34.13,98,47.23,117.88c43,65.31,76.7,28.49,76.7,28.49"/><path class="cls-20" d="M749.59,236.45c0,5.42,8.67,17.59,8.67,17.59s-.86,34.44.92,41.36c.44,1.71,14.54,7.93,16.9,12.49,7.19,13.9,10.7,20.89,10.7,20.89l19.05-19.68L798,294.81l.55-35.26-3.09-33.4-21-19.63a3.23,3.23,0,0,0-.74,4.94l-8.16-6.7c-5.66,4.37,2.82,15.78,2.82,15.78l-9.9-9.53c-4.86,5,1.1,13.14,1.1,13.14l10.22,14.76s.89,10.4.21,13.88-1.09,7.14-1.09,7.14l-2.76-11.46-14-19.71S749.61,231,749.59,236.45Z"/><path class="cls-40" d="M765.13,299.71c-2.55-1.17-5.54-2.22-6.1-5.25a50.14,50.14,0,0,1-.62-6.37c-.33-6.17-.34-12.35-.32-18.53q0-7.08.17-14.16a3,3,0,0,0-.27-2c-1.3-2-2.63-3.92-3.83-6-1.8-3-3.79-6.38-4.42-9.9-.48-2.62.17-6.57,2.23-8.49l-1.45.12,8.57,12.06,4.72,6.63.54.77c.12.17.18.32.11.14a24,24,0,0,1,.7,2.9l2.05,8.53c.17.74,1.6.35,1.67-.29.28-2.51.77-5,1.15-7.49a37.06,37.06,0,0,0,.14-6.58c-.07-2-.19-4-.33-5.94a3,3,0,0,0-.46-1.74c-3.31-4.78-6.64-9.55-9.93-14.34-2.43-3.54-4.52-8.9-1.16-12.53l-1.34.24,10.71,9.11c.47.4,1.93-.22,1.4-.85a31.39,31.39,0,0,1-3.65-5.47c-1.37-2.63-3-6.86-.18-9.14l-1.19.1,8.45,6.25c.47.35,1.93-.19,1.4-.85-1-1.25-1.26-2.73.23-3.74l-1.19.1,14.61,13.64,4.07,3.8a26.43,26.43,0,0,0,2.19,2c.34.25,0-.12,0,0a4.15,4.15,0,0,0,.07.79l.35,3.71,2.26,24.49.33,3.57c0,.23.05.47.07.7,0-.1,0-.11,0,.15-.06,2.78-.09,5.57-.14,8.36-.11,7.39-.29,14.78-.35,22.17v.46c0,.87,1.67.62,1.68-.13l.31-19.69a130,130,0,0,0,0-14L796.08,233l-.44-4.74a9.49,9.49,0,0,0-.2-2.2c-.16-.43-.72-.8-1.05-1.1l-3.25-3L774.6,206.49l-.39-.37c-.3-.28-.9-.09-1.19.1a3.34,3.34,0,0,0-.65,5.24l1.4-.85-8.45-6.25a1.1,1.1,0,0,0-1.19.1c-5.19,4.2.23,12.32,3.41,16.11l1.4-.85-10.71-9.11c-.37-.32-1.05-.07-1.33.23-5.1,5.51.2,12.55,3.56,17.4L767,237.7c.3.43.59.87.9,1.3a1.57,1.57,0,0,1,.2.3c.08.17-.07-.21,0,0a32.13,32.13,0,0,1,.32,4.81,55.83,55.83,0,0,1,0,7.76c-.26,2.74-.93,5.45-1.24,8.2l1.68-.29-1.81-7.52c-.35-1.45-.45-3.29-1.33-4.53l-10.15-14.27-3.54-5c-.35-.49-1.12-.2-1.46.12-1.88,1.75-2.52,4.9-2.63,7.33-.13,3,1.28,5.94,2.64,8.59a82.1,82.1,0,0,0,4.9,8.22c.39.57.77,1.15,1.17,1.71.09.11,0-.45,0-.17s0,.33,0,.49c-.25,10.87-.43,21.78.09,32.64a55.3,55.3,0,0,0,.68,7.5c.63,3.39,4,4.61,6.81,5.92.69.32,1.91-.68,1-1.12Z"/><path class="cls-40" d="M782.68,254.81c.51-.34.44-1,.45-1.53,0-1.41,0-2.83-.06-4.24-.11-3.35-.29-6.71-.5-10-.1-1.6-.21-3.2-.31-4.8a6.9,6.9,0,0,0-.07-1.11c-.14-.5-.71-.91-1.07-1.29-2.4-2.55-4.82-5.09-7.31-7.57-1.21-1.21-2.42-2.42-3.69-3.57-.57-.51-1.1-1.11-1.93-.87-1,.28-.77,1.13.23.84-.86.24-.66-.14-.28.3a4.69,4.69,0,0,0,.53.47c.62.56,1.21,1.14,1.8,1.71q1.9,1.85,3.75,3.74c1.42,1.45,2.82,2.92,4.22,4.39a11.88,11.88,0,0,1,2.06,2.2,3.57,3.57,0,0,1,.09,1.08c.25,3.77.49,7.53.67,11.3.08,1.8.16,3.6.2,5.41,0,.75,0,1.51,0,2.27a5.39,5.39,0,0,0,0,.69c0,.34-.27.44.2.13-.93.62.5.86,1,.5Z"/><path class="cls-40" d="M790.37,244.18c.55-.37.45-1,.47-1.64,0-1.53,0-3.07-.08-4.59-.11-3.41-.29-6.82-.5-10.23-.06-1.1.17-2.18-.64-2.95l-3-2.88c-2.53-2.37-5.07-4.72-7.65-7-1.32-1.18-2.63-2.36-4-3.45-.57-.44-1.12-.95-1.89-.71-1,.3-.78,1.09.21.78-.91.29-.65-.15-.29.25a7.31,7.31,0,0,0,.62.48c.62.49,1.21,1,1.81,1.51,1.42,1.23,2.81,2.49,4.2,3.75q4.13,3.76,8.17,7.63c.23.21.61.47.73.76a11.59,11.59,0,0,1,.17,3q.18,3,.32,6.08c.08,1.77.15,3.54.19,5.3,0,.88.05,1.76,0,2.64a4.19,4.19,0,0,0,0,.79c.05.35-.32.4.21,0-.93.63.51.8,1,.46Z"/><path class="cls-40" d="M855.11,370.93c10.94,14.56,22,30.92,21.61,49.91,0,.74,1.66.42,1.67-.18.41-19.2-10.68-35.68-21.74-50.41-.37-.49-2,.1-1.54.68Z"/><path class="cls-40" d="M655.38,451.74a7.07,7.07,0,0,1,2.48,1.21,19.14,19.14,0,0,1,4.1,3.57,50.74,50.74,0,0,1,6.32,9.2,53.84,53.84,0,0,1,6.22,21.15c0,.58,1.71.22,1.66-.45a53.78,53.78,0,0,0-6.68-22,44.47,44.47,0,0,0-6.86-9.53,19.72,19.72,0,0,0-3.84-3,7.37,7.37,0,0,0-2.39-1.08,1.36,1.36,0,0,0-1.18.32c-.18.24-.24.56.17.63Z"/><path class="cls-20" d="M489.7,415.67c.25-3.56,5.85-12.31,8.82-17.37s7.74-7.07,12.74-6.27,17-1.15,22.64-1.6,15.63,7.27,23.28,13.78S591.57,425,591.57,425l-13.09,26.2a102.31,102.31,0,0,0-8.61-5.81h0s-11,1.45-17.72-1.12-17-9.34-17-9.34,1.85,4.18-1.37,5.36-11.81-1-11.81-1-.85,1.95-6,1.21-12.32-5-13.62-7.74a106.64,106.64,0,0,1-3.37-11.14,19.1,19.1,0,0,1-5.47,5.13c-3.81,2.42-4.42,1.69-6.1.12S489.44,419.22,489.7,415.67Z"/><path class="cls-40" d="M522.6,440.39a13.48,13.48,0,0,0-4.41-10.09,8.21,8.21,0,0,0-5.36-1.92,34.06,34.06,0,0,0-6.77.28c-.27,0-.92.22-.94.58s.44.41.72.37a31.38,31.38,0,0,1,6.05-.28,10.07,10.07,0,0,1,2.89.44A6.48,6.48,0,0,1,517,431.3a13,13,0,0,1,3.92,9.29c0,.71,1.66.37,1.66-.2Z"/><path class="cls-40" d="M514.13,428.49l-1-4.15c0-.22-.76,0-.89,0a2.49,2.49,0,0,0-.57.22c-.06,0-.22.12-.2.22l1,4.14c.06.22.77,0,.89,0a2.2,2.2,0,0,0,.57-.23c.07,0,.23-.12.2-.21Z"/><path class="cls-40" d="M536.69,436.09a5.81,5.81,0,0,0-2.86-3.88c-1.53-1-3.19-2.07-5.1-2a15.77,15.77,0,0,0-3,.53c-.53.12-1.52.44-2,.13s-.51-.88-.72-1.23a6.28,6.28,0,0,0-4-2.87,1.78,1.78,0,0,0-1.17.21c-.13.07-.58.38-.19.46a5.84,5.84,0,0,1,4,3.2,1.55,1.55,0,0,0,1.55,1.05,11.2,11.2,0,0,0,2.87-.43,5.62,5.62,0,0,1,3.37-.08,13.9,13.9,0,0,1,2.53,1.4c1.45.94,2.86,2.14,3.08,4,0,.36,1.72,0,1.66-.45Z"/><path class="cls-40" d="M534.11,409.7a28.65,28.65,0,0,0-2.22-3.32,1.6,1.6,0,0,0-1.75-.46,9.17,9.17,0,0,1-4,0c-1.11-.26-2.13-1.07-3.27-1.16a10.16,10.16,0,0,0-3.16.68c-1.31.34-2.62.68-3.93,1q-4.06,1-8.15,1.88c-1.05.22-.72,1.44.32,1.22q3.51-.75,7-1.6c1.24-.3,2.48-.61,3.71-.93a27.35,27.35,0,0,1,3.39-.9c1-.11,2.24.76,3.26,1a10.36,10.36,0,0,0,2.66.32c.65,0,2.07-.39,2.47-.2s.84,1.25,1.07,1.6l1.07,1.6c.44.66,2,0,1.51-.75Z"/><path class="cls-23" d="M506.23,501.69c3.22-35.89,22.32-68.55,28.33-104.08.55-3.26,1-6.68,0-9.84s-3.85-6-7.16-5.86c-2.87.08-5.31,2.3-6.55,4.88s-1.49,5.51-1.77,8.37c-3.56,36.22-13.18,71.54-23.14,106.55"/><path class="cls-20" d="M540,410.9c-11.5,1.83-23.29-2.61-34.8-.87a12.42,12.42,0,0,0-5.76,2.09A5.68,5.68,0,0,0,497,417.5c.48,2.34,2.73,3.85,4.92,4.8a26.46,26.46,0,0,0,9.47,2.16c5.93.23,12.3-1.47,17.56,1.28a35.09,35.09,0,0,1,5.65,4.32,33.06,33.06,0,0,0,13.16,6.54"/><path class="cls-40" d="M540.11,410.57c-7.74,1.17-15.45-.38-23.16-1a51,51,0,0,0-11.19.09c-2.9.4-6.08,1.18-8.05,3.53a5.43,5.43,0,0,0-.07,7.37c2.13,2.29,5.57,3.4,8.53,4.07a35.38,35.38,0,0,0,10,.58c3.62-.2,7.42-.58,10.9.67,3.78,1.36,6.45,4.75,9.75,6.93a34.12,34.12,0,0,0,10.59,4.6c.67.17,2-.83,1-1.08a33,33,0,0,1-9.2-3.77c-2.8-1.69-5-4-7.68-5.9-5.34-3.87-11.83-2.6-18-2.49a26.4,26.4,0,0,1-10.17-1.79c-2.66-1.05-6.07-3.07-5.37-6.46.77-3.7,4.88-4.76,8.1-5.16a49.51,49.51,0,0,1,10.54,0c7.77.66,15.55,2.19,23.35,1,.89-.13,1.3-1.32.17-1.15Z"/><path class="cls-50" d="M425.36,473.44a5.71,5.71,0,0,0-1.65-3.9,13,13,0,0,0,2.91-.9h0c-.62-5.11-1.1-9.5,6.58-9.45,51.73.29,103.46.3,155.2.4,12.24-.76,12.24-.76,13,10.23h0l-.15,21.32c-.05,23.16,0,46.31-.2,69.47-.12,12.39-6.21,18.95-18.11,20.32l-139.37,0c-10.55-1.7-14.53-5.63-16.46-16.28-2.48-21.31-.42-52.92-1.11-74.25"/><path class="cls-50" d="M582.08,580.5a4.76,4.76,0,0,1,.84.43C582.65,580.77,582.36,580.64,582.08,580.5Z"/><path class="cls-51" d="M426.36,468.61a15.69,15.69,0,0,0-2.59-.22H407.36c-6.77,0-12.3,4.31-12.3,9.57s5.53,9.57,12.3,9.57h16.41a15.69,15.69,0,0,0,2.59-.22Z"/><path class="cls-51" d="M601.37,468.61a15.82,15.82,0,0,1,2.6-.22h16.41c6.76,0,12.3,4.31,12.3,9.57s-5.54,9.57-12.3,9.57H604a15.82,15.82,0,0,1-2.6-.22Z"/><path class="cls-20" d="M1013.85,1112.09s-36.77,12.66-47.26,13S953,1128,953,1128s12-16.9,25.2-23.69c2.77-1.43-4.94-92.89-10.88-135.58a257.68,257.68,0,0,1-1.94-53.34l48.36,3.48-.7,45.31,2.28,8.24c1.19,4.3,4.62,12.55,5,17,1.15,12.06,3,28.12,2.66,34.31-.56,10.47-3.8,24.74-4.11,28.42l-7.88,45.35Z"/><path class="cls-20" d="M1051.22,1108.5s-45.78,24.14-56.28,24.15-6.89-5.55-6.89-5.55,27.83-27.23,30.53-32.23c1.48-2.75-5.93-86.19-10.55-129-3.22-29.77-3.42-53.46-3.42-53.46l48.23,5,4.87,43.47,2,8.31a119.78,119.78,0,0,1,2.82,16.52c.78,12.09,1.56,32.42,1,38.6-.88,10.45-7.61,36.14-8,39.81l-5.2,32.63Z"/><path class="cls-52" d="M1086.11,891.32c6.1,57.42,8.84,53.44,10.83,73.87-9.3,7.63-10.44-3-23.82,1.7s-17.45,5.08-26.62,0-16.82-3.4-28.67,1.69-21.4-.42-28.28-.85-16,4.24-28.28,4.67-15.84-5.66-23.1-5.23c.27-7,4.26-118.21,9.88-181.15-.16-.09.43-3.75.28-3.84,1.71-17.32,3.47-39.42,5.06-51.13,16.21,2.36,36.24.77,52.49.58,13.43-.16,44.34-3.89,57.54-6.58,11-2.24.38,17.5,11.56,16.6.56,4.58,16.93,17.16,16.15,63.19C1091.13,804.84,1084.77,878.8,1086.11,891.32Z"/><path class="cls-53" d="M976.39,682.92a.83.83,0,0,1-.14.22l-.42-.46Z"/><path class="cls-6" d="M1043.34,572.55c.91-6.71,6.79-13.71,13.9-12.15a19.23,19.23,0,0,1,4.87,2.08l6.89,3.74a24.81,24.81,0,0,1,5.87,4c3,3,4,7.37,3.73,11.41s-1.8,7.85-3.28,11.61c-1.36,3.45-3.31,7.38-7.19,8-2.28.37-4.62-.56-7-.67a44.5,44.5,0,0,0-6.19.65c-7.07.65-14.52-3.49-17.46-9.68"/><path class="cls-6" d="M1063.46,559.92c.91-6.72,6.8-13.72,13.91-12.15a19.18,19.18,0,0,1,4.87,2.08l6.89,3.74a24.22,24.22,0,0,1,5.86,3.95c3,3,4,7.38,3.74,11.41s-1.8,7.86-3.29,11.62c-1.35,3.45-3.3,7.38-7.18,8-2.29.37-9,2.06-10.94,3.38-5.8,4-.15-3.6-2.22-3.41-7.06.65-14.51-3.48-17.45-9.68"/><path class="cls-6" d="M1072.26,542c.91-6.72,6.79-13.72,13.9-12.16a19.45,19.45,0,0,1,4.88,2.08l6.89,3.74a24.75,24.75,0,0,1,5.86,4c3,3,4,7.37,3.74,11.41s-1.81,7.85-3.29,11.61c-1.36,3.45-3.31,7.38-7.19,8-2.28.37-4.62-.56-7-.67a44.5,44.5,0,0,0-6.19.65c-7.06.65-14.52-3.49-17.45-9.68"/><path class="cls-6" d="M1071.16,517.81c.91-6.72,6.79-13.72,13.9-12.15a18.88,18.88,0,0,1,4.87,2.08l6.9,3.74a24.42,24.42,0,0,1,5.86,3.95,14.59,14.59,0,0,1,3.74,11.41c-.31,4-1.81,7.86-3.29,11.62-1.36,3.45-3.31,7.38-7.19,8-2.28.37-4.62-.56-7-.68a44.5,44.5,0,0,0-6.19.65c-7.06.65-14.52-3.48-17.45-9.68"/><path class="cls-6" d="M1063.92,501c.91-6.72,6.79-13.72,13.9-12.15a18.88,18.88,0,0,1,4.87,2.08l6.9,3.74a24.42,24.42,0,0,1,5.86,3.95,14.59,14.59,0,0,1,3.74,11.41c-.31,4-1.81,7.86-3.29,11.62-1.36,3.45-3.31,7.38-7.19,8-2.28.37-4.62-.56-7-.68a44.5,44.5,0,0,0-6.19.65c-7.06.65-14.52-3.48-17.45-9.68"/><path class="cls-6" d="M1045.92,486.7c.91-6.72,6.8-13.72,13.91-12.15a18.68,18.68,0,0,1,4.87,2.08l6.89,3.74a24.47,24.47,0,0,1,5.87,3.95c3,3,4,7.38,3.73,11.41s-1.8,7.86-3.28,11.62c-1.36,3.44-3.31,7.37-7.19,8-2.29.37-4.63-.57-7-.68a44.5,44.5,0,0,0-6.19.65c-7.07.65-14.52-3.48-17.46-9.68"/><path class="cls-6" d="M1005,484.79c1.93-10,21.86-14.21,29-12.65,1.74.39,3.64-3.23,10.54-1.26,2.51.72,4.59,2.49,6.89,3.74a24.22,24.22,0,0,1,5.87,4c3,3,4,7.37,3.73,11.41s-1.8,7.85-3.28,11.61c-1.36,3.45-3.31,7.38-7.19,8-2.29.37-4.63-.56-7-.67a44.63,44.63,0,0,0-6.2.64c-7.06.65-14.51-3.48-17.45-9.68"/><path class="cls-54" d="M1083.36,581.19c-5.07,5.7-11,11.24-18.16,14.11-7.35,2.93-15.43,1.66-23,.13-14.72-3-28.89-9.54-39.68-20.13A62.31,62.31,0,0,1,984,534.23a85.94,85.94,0,0,1,4.56-33c.41-.63.81-1.29,1.23-1.89,12.44-17.65,20.11-21.37,40.61-20.08,12.62.67,24.56-4.12,41.62,7.49,3.67,2.5,7,8.06,11.52,11.82,6.9,5.66,13.83,14.25,15.55,21.55,3.27,13.9-2.64,31.62-5.25,46.68A77.71,77.71,0,0,1,1083.36,581.19Z"/><path class="cls-20" d="M973.49,550c1-6,4.35-8.08,6.1-11.4.68-2.73,1.49-5.9,2.48-9.72.29-1.1.6-2.16.91-3.2a10,10,0,0,0,.49-1.61c5.81-18.32,14.64-26.27,14.64-26.27a42.23,42.23,0,0,1,41.29-8.68c16.95,5.15,29.42,19.85,34.51,32.55a27.56,27.56,0,0,1,.35,19.67c-2,5.45-4.33,8.95-7.53,14.57,6,1.4,11.27,5.19,6,15.56-7.26,14.31-17.67,16.43-21.82,10.55-3,.81-5.45,7.07-6.59,10.16-2.18,5.92-4.66,16.18-3.17,22.31l-.65,1.68c-18.69,17.11-29.64,27-70.16,2.32l20.33-15.19,1.42-7.76a40.12,40.12,0,0,1-7.13-3.15C972.24,585,972.33,557.11,973.49,550Z"/><path class="cls-40" d="M992.18,595.59s15.88,5.88,33.2.37c0,0-3.14,4.38-14.58,5.13s-19.11-2.91-19.11-2.91Z"/><path class="cls-55" d="M1057.8,563c.06-.08.63-3.91-.87.55-.75,2.23,3.93-4.39,6.11-5.42a12.11,12.11,0,0,1,3.31-1.13,11.87,11.87,0,0,1,3.52-.2c1.67.07,4.91,3.61,6.32,4.5.23.19-1.24-2.69-1-2.5,7.76-11.75,12.64-21.87,7.81-40.46-1.4-5.36-7.11-12.49-8.83-14.74C1063.68,490,1052,485.85,1036.93,483c-17.44-3.27-36.2-.7-45.09,15.3a26.81,26.81,0,0,0-3.74,9.84s3.55-9.1,13.15-11.6,9.32,2.84,20.83,6.47c13.34,4.15,19.87-1.84,29,6.9,8.32,8,9.14,12.94,9.14,12.94-.09,2.66.77,5.21,1.11,7.81a21.86,21.86,0,0,1-.54,7.6c-1.13,5.14-2.07,10.34-3.92,15.29-1.15,3.07-3,7.06-.58,10C1057.35,564.93,1056.23,563.05,1057.8,563Z"/><path class="cls-6" d="M1058.74,563.08c.33-1,.45-3-1.2-2.34-1,.37-1.28,1.79-1.55,2.66-.21.71-.08,1.34.84,1.29a2.78,2.78,0,0,0,1.7-1.09c.77-.79,1.47-1.63,2.22-2.43a14.48,14.48,0,0,1,2.36-2.27,10.33,10.33,0,0,1,5.35-1.47c1.7-.06,2.8.9,4,2,.62.53,1.23,1.08,1.86,1.61a4.08,4.08,0,0,0,1.29.94c.46.13,1.58,0,1.56-.73a3.7,3.7,0,0,0-.45-1.24c-.15-.31-.61-1.21-.62-1.27l-1.55.74h0a1.31,1.31,0,0,0,1.5-.55,68.42,68.42,0,0,0,7.45-13.84,39.25,39.25,0,0,0,2.25-15.9c-.37-6-1.54-12-4.59-17.18a75.58,75.58,0,0,0-9.3-12.56,48.46,48.46,0,0,0-13-10.23,63.62,63.62,0,0,0-15.32-5.52c-10.73-2.54-22.15-3.89-32.92-.77a32.5,32.5,0,0,0-23.57,25.37c-.19.95,1.67.69,1.93,0a18.87,18.87,0,0,1,15.12-11.56c3.75-.4,6.37,1.62,9.43,3.43a37.26,37.26,0,0,0,14.65,5c4.09.49,8.21.05,12.29.51,5,.57,8.58,3.46,11.92,7,2.53,2.71,5.1,5.8,6.42,9.31a5,5,0,0,1,.35,1.91c.1,3.3,1.36,6.42,1.23,9.75-.14,3.57-1.16,7.15-1.94,10.63a79,79,0,0,1-3.1,10.57c-1,2.51-2,5.45-.74,8,.36.77,1,2,2,1.91a1.32,1.32,0,0,0,1.06-.63,1.44,1.44,0,0,0,.08-.26c.06-.32.14-.25-.1-.21,1.08-.15,1.5-1.62.17-1.44a2.4,2.4,0,0,0-1.62.72,1.63,1.63,0,0,0-.31.52c-.17.46-.24.43.15.14l1.22-.22c-.24-.07-.72-1.07-.85-1.39a5.12,5.12,0,0,1-.38-2,12.56,12.56,0,0,1,.91-4.27c1-2.82,2-5.59,2.74-8.49.8-3.16,1.47-6.36,2.12-9.55a23.52,23.52,0,0,0,0-9.6,29.51,29.51,0,0,1-.71-4.86,4.3,4.3,0,0,0-.06-.9,10.45,10.45,0,0,0-.92-2.34,38.55,38.55,0,0,0-8.39-10.67,18.24,18.24,0,0,0-10.88-5.17c-4.23-.43-8.5,0-12.73-.57a36.9,36.9,0,0,1-14.52-5.47c-3-1.86-5.75-3.26-9.36-2.88a21.23,21.23,0,0,0-17.16,12.78l1.92,0A31,31,0,0,1,1009,484.88c10.13-3.58,21.13-2.59,31.44-.38,10.54,2.27,20.42,6.32,28.13,14.08a76.71,76.71,0,0,1,9.15,11.48,35,35,0,0,1,3.83,7,41.78,41.78,0,0,1,2,9.27,39.17,39.17,0,0,1-1.53,17.57,65,65,0,0,1-7.76,14.75l1.5-.55h0c-.47-.13-1.58,0-1.56.73a3.31,3.31,0,0,0,.45,1.24c.14.31.61,1.21.61,1.27l1.56-.74c-.27-.07-.79-.64-1-.84-.51-.43-1-.88-1.51-1.31a13.23,13.23,0,0,0-2.83-2,7.4,7.4,0,0,0-4.12-.29,13.46,13.46,0,0,0-4.76,1.43,17.61,17.61,0,0,0-4.31,4,16.07,16.07,0,0,0-1.64,1.77l-.12.1c-.43.3,0,.41,1.37.32.09-.09.13-.43.17-.55.12-.33.23-.66.36-1,.36-.85.38-.25-.57-.15l-.67-.15c-.33-.28-.16-.07-.2.38,0,.13-.15.81-.06.55C1056.51,563.93,1058.46,563.91,1058.74,563.08Z"/><ellipse class="cls-6" cx="986.43" cy="535.4" rx="3.78" ry="3.76" transform="translate(416.45 1502.27) rotate(-87.97)"/><path class="cls-55" d="M983.69,531.59a10.22,10.22,0,0,1,7.49.22c5.49,2.07,6.89,9.47,6.89,9.47a16.76,16.76,0,0,0-7.9-7.24,19.36,19.36,0,0,0-9.19-.91C981.18,532.6,982.45,532,983.69,531.59Z"/><path class="cls-6" d="M1069,571.22a8.46,8.46,0,0,0,1.72-5.7,1,1,0,0,0-.52-.95c-1.62-1.1-3.71-.54-5.2.48a17.4,17.4,0,0,0-4.79,5.78c-.22.38.46.33.62.27l.06,0,.36-.09a1.64,1.64,0,0,1,.93,0c.66.25.57,1.18.44,1.74-.47,1.93-2.37,2.44-4.13,2.13a.72.72,0,0,0-.65.17c-.11.14-.12.35.1.39,2.27.39,5-.24,5.6-2.78.2-.84.13-1.9-.82-2.21a3.55,3.55,0,0,0-2.27.2l.62.26a18.48,18.48,0,0,1,4-5.08,4.71,4.71,0,0,1,2.81-1.26,2.83,2.83,0,0,1,1.56.44,1.65,1.65,0,0,1,.3.22c0,.07,0,0,0,0a1.63,1.63,0,0,1,.07.3,7.84,7.84,0,0,1-1.63,5.66c-.26.38.66.35.86.06Z"/><path class="cls-56" d="M1027.81,546.71a3.77,3.77,0,1,1-2.25-3.8A3.77,3.77,0,0,1,1027.81,546.71Z"/><path class="cls-55" d="M1014.79,546.37s5.34-6.72,13.49-4.24c6.93,2.11,8.52,6.33,9.4,8.92a21.28,21.28,0,0,0-9.91-6.86C1021.75,542.13,1014.79,546.37,1014.79,546.37Z"/><path class="cls-57" d="M997.37,570.46c2.49.69,10.18,2.4,10.18,2.4s-3.46,1.86-10.93-.22-9.13-5.28-9.13-5.28Z"/><path class="cls-44" d="M1021.49,528.3c.07-.11.45.12.52,0,6.88,2.44,11.46,5.28,12.9,6.69a13.26,13.26,0,0,1,2.68,3.82s2,4,1.88,5-1.7-1.64-1.7-1.64a10.63,10.63,0,0,0-1.07-1.32c-2.49-2.32-4.61-4.95-7.68-6.41-2.62-1.28-6.85-1.95-9.78-2.53C1020,530.6,1020.88,529.61,1021.49,528.3Z"/><path class="cls-44" d="M1000.51,523.61c0-.13-.4-.11-.4-.25-6.3-1.2-11-.93-12.69-.4a11.14,11.14,0,0,0-3.64,2s-1.51.68-1.84,1.6.36,1.21.36,1.21a8.39,8.39,0,0,1,1.36-.64c2.87-.82,5.58-2.09,8.55-1.89,2.55.16,6.08,1.61,8.58,2.52C1000.76,526.37,1000.45,525.05,1000.51,523.61Z"/><path class="cls-44" d="M1000.52,561a11.07,11.07,0,0,1-5-.64,7.3,7.3,0,0,1-3.49-2,2.9,2.9,0,0,1-.35-3.44,16.09,16.09,0,0,1,1.24-1.38,13.57,13.57,0,0,0,1.5-2c.19-.29-.51-.25-.65,0a27.74,27.74,0,0,1-2.49,3,2.72,2.72,0,0,0-.65,2.47c.5,2.43,3.14,3.42,5.26,4a11.44,11.44,0,0,0,4.54.42c.35,0,.57-.49.09-.43Z"/><path class="cls-44" d="M1007.81,558.88c1.1.26.72,2,.47,2.72a2,2,0,0,1-.93,1.25,3.53,3.53,0,0,1-2.27,0,13.23,13.23,0,0,1-2.44-1.48.61.61,0,0,0-.44,0s-.31.13-.21.18a14.18,14.18,0,0,0,2.48,1.49,5.16,5.16,0,0,0,2.73,0,2.36,2.36,0,0,0,1.6-1.23,4.67,4.67,0,0,0,.43-1.81c0-.63-.16-1.3-.85-1.46a.8.8,0,0,0-.48.09c-.06,0-.24.13-.09.17Z"/><path class="cls-58" d="M1052.75,612.15l-10.69-6.2c-16,12.81-38.26,21.86-54.16,14.83,0,0-10.25-5.13,1.86-17.48,0,0-26.61,0-39,21.57-2.65,4.61-8.48,9.52-13.85,13.4-.07,1.62-2.21,9.91-2.6,11.42-1.45,6-3,13.19-3,13.19,2,2.76,3,2.49,6.26,6s8.34,6.46,13.21,6.53l1.12,28.67c.6,8.53,3.17,12.84,3.55,19.82a152.54,152.54,0,0,0,15.06,3.29c9.6,1.65,19.31,2.65,29,3.64a110.93,110.93,0,0,0,13.39.73c4.45-.08,8.89-.42,13.32-.84,9.2-.89,18.36-2.18,27.58-2.81,7.21-.49,13-.84,20.22.26-1.36-34.75,2.11-45.91,2.7-53.58C1077.62,662.65,1087.28,627.32,1052.75,612.15Z"/><path class="cls-52" d="M951,675.25a88.72,88.72,0,0,0-1-10,78.64,78.64,0,0,1-.17-15.11c0-.15-1.4,0-1.43.39a78.65,78.65,0,0,0,.17,15.11,88.55,88.55,0,0,1,1,10c0,.19,1.43,0,1.43-.38Z"/><path class="cls-59" d="M1073.74,720s-1.11,15,2.57,22.86c0,0-34,10.16-59.72,10.13s-64.72-5.49-64.72-5.49v-22.6s34.53,5.84,67.68,4.43S1073.74,720,1073.74,720Z"/><path class="cls-20" d="M900.06,625.78c2.3,2.9,6.75,8.83,8.34,12.24,1.73,4.35,1.4,13.48,1.4,13.48l9.4,11.38-6.31,21.5L898,668.12l-16.45-4.5s-16.33-13.78-17.39-17.55.79-12.06.79-12.06c-2.13-4.69,1.58-10.36,1.58-10.36-1.24-8.89,3.48-6.24,3.48-6.24a1.8,1.8,0,0,1-.09-.92c.51-3.3,5-3.3,6-.21,1.78,5.16,4.28,12.06,5.05,12.49s5.52,4.19,9.66,7.5c2,1.79,5.36,2.08,6.93-.07a3.64,3.64,0,0,0,.5-3.84"/><path class="cls-40" d="M881.24,639.33a21.06,21.06,0,0,1-8.25-9.21,23.91,23.91,0,0,1-1.65-6,25.22,25.22,0,0,1-.21-6.83c.09-.68-1.56-.4-1.64.19a26.42,26.42,0,0,0,.18,6.88,24.33,24.33,0,0,0,1.84,6.58,21.77,21.77,0,0,0,8.43,9.23c.48.3,2-.39,1.3-.82Z"/><path class="cls-40" d="M877.86,644.34a25.39,25.39,0,0,1-6-5.09,17.82,17.82,0,0,1-3-7.27c-.62-2.8-1.54-5.71-1.63-8.59,0-.56-1.66-.23-1.64.44.1,3,1.06,6,1.72,9a17.41,17.41,0,0,0,3.11,7.24,26.9,26.9,0,0,0,6.09,5.11c.48.33,2-.36,1.3-.82Z"/><path class="cls-40" d="M873.53,648.83c-1.08-.87-2.12-1.79-3.14-2.72-1.18-1.08-2.76-2.18-3.41-3.68a19.2,19.2,0,0,1-1.29-4.82c-.11-.77-.17-1.55-.25-2.33,0-.2,0-.43-.07-.63s.26-.25-.25.15l-.62.23h0c.92-.06,1.27-1.27.15-1.2-1.28.08-.93,1.33-.84,2.17a25.71,25.71,0,0,0,1.2,6,6.83,6.83,0,0,0,1.18,2.27,25.34,25.34,0,0,0,2.12,2c1.28,1.19,2.58,2.36,3.93,3.46.57.46,2-.35,1.27-.95Z"/><path class="cls-20" d="M1025.37,647c-5,6.69-43.41,44.61-57.89,59.86l-56.13-52.92-14,13.11c.69,1.28,1.41,2.54,2.14,3.8q2.88,5,5.9,9.93,4.3,7,8.86,13.91c3.55,5.33,7.22,14,11,19.14,9.39,12.55,19.37,27.58,35.07,32.52a33.37,33.37,0,0,0,17.68.41c10.87-2.7,22.22-14.76,30.35-21.86,13.61-13.39,29.44-29.82,38.85-39.62L1061,627.13C1043.88,605.88,1025.37,647,1025.37,647Z"/><path class="cls-40" d="M929.32,671.44,947,687.59l2.52,2.3c.33.3,1.83-.33,1.56-.57L933.4,673.16l-2.52-2.29c-.33-.3-1.83.32-1.56.57Z"/><path class="cls-58" d="M1041.38,613.9a30.86,30.86,0,0,1,3.87,1.59c.51.25,1,.52,1.52.8a2.37,2.37,0,0,1,0-2.77A46.17,46.17,0,0,0,1041.38,613.9Z"/><path class="cls-58" d="M1040.66,613.15a61.87,61.87,0,0,0-11.64,7.06c-8.76,6.7-15.9,15.24-23,23.7-2.79,3.35-5.77,7.64-4.23,11.72a12.29,12.29,0,0,0,2.9,4c12.85,13.48,27.17,27.75,45.63,30.27l2.35-.63c9.73-13.33,14.09-29.85,16.19-46.21.49-3.83,3.24-7.21,5.18-10.66C1065.84,622.08,1054.06,611.81,1040.66,613.15Z"/><path class="cls-52" d="M1009.38,664.12a13.84,13.84,0,0,1-2.56-2.21,5,5,0,0,1-1.14-1.53,4.7,4.7,0,0,1,.68-2.36,23.76,23.76,0,0,1,1.93-3.25c2.78-4.12,5.31-8.39,8.34-12.34,2.29-3,4.77-5.81,7.3-8.6,3-3.33,5.66-7.25,9.52-9.71,5.29-3.37,12.3-4.42,18.14-1.91.33.14,1.46-.36,1-.56-5-2.14-10.64-1.77-15.66.11a21.67,21.67,0,0,0-6.45,3.69,43.54,43.54,0,0,0-5.09,5.42c-2.62,3.11-5.45,6-8,9.21q-2.67,3.27-5.06,6.77c-1.53,2.26-2.87,4.63-4.42,6.87-.77,1.12-1.56,2.25-2.22,3.44-.47.86-1.42,2.4-1.23,3.44a3.22,3.22,0,0,0,.71,1.13,13.29,13.29,0,0,0,3.09,2.85c.33.23,1.43-.27,1.15-.46Z"/><path class="cls-52" d="M1039.68,687.73a11.19,11.19,0,0,0,5.29,1.5c1.76.1,3.63.64,5.23-.34a12.41,12.41,0,0,0,2.21-1.95c1-.92,1.9-1.86,2.83-2.8,1.67-1.72,3.31-3.48,4.88-5.29,4.73-5.48,8.85-11.56,11.11-18.49a52.13,52.13,0,0,0,2.16-10.72c0-.35-1.19-.11-1.22.2a47.78,47.78,0,0,1-4.6,16.65c-3.31,6.59-8.17,12.3-13.3,17.55-.92,1-1.86,1.88-2.81,2.8a17.33,17.33,0,0,1-1.38,1.33c-1.11.88-1.88.71-3,.61-2.27-.22-4.19-.28-6.22-1.49-.32-.19-1.36.32-1.16.44Z"/><path class="cls-48" d="M995.84,568.77c4.69,1,14.43,6.13,16.12,8.49,0,0-6.17,2.84-17.06.61S984.35,571,984.35,571,989.86,567.54,995.84,568.77Z"/><path class="cls-2" d="M1008,574.21s-5.49-1.62-9.94-2.54-10.14-1.58-10.14-1.58,0-3.68,8.09-2S1008,574.21,1008,574.21Z"/><path class="cls-49" d="M994.39,577.82c5.25.28,11.71-2.17,17.57-.56,0,0-4,8.41-16.78,5.79s-10.83-12-10.83-12C990.38,571.84,989.45,576,994.39,577.82Z"/><path class="cls-49" d="M990.83,564.93c2.73.34,4.21,1.77,5.38,2s3.1-.49,5.74.27c2.48.72,11.79,9.44,10.43,10s-8.64-5.89-16.74-7.55-10.27,2.41-11.29,1.31S988.27,564.61,990.83,564.93Z"/><path class="cls-51" d="M122.51,598a3.13,3.13,0,0,1-.3-1.3l-.07-8.27c0-3.4,5.53-6.23,12.34-6.28s12.41,2.69,12.44,6.09l.06,8.27a3.32,3.32,0,0,1-.28,1.31Z"/><path class="cls-50" d="M134.58,595.34C86.51,595.7,47.73,621.07,48,652l174.09-1.33C221.82,619.74,182.66,595,134.58,595.34Z"/><path class="cls-2" d="M1181.4,125.65c-3.38-25.21-24.1-51.29-48.05-52.34,3.61-28.05-32.43-49.84-64.24-46.08a63.92,63.92,0,0,0-21.84,6.62,80.07,80.07,0,0,0-58.52-16C962.59,21,939.29,30.46,928.12,50.94a75.07,75.07,0,0,0-20.62-.41c-38.51,4.55-63.92,43.18-59.06,79.31,3.15,23.49,19.16,39.34,40.51,48.54,0,.27,1.13.76,1.16,1,2.58,19.16,12.63,32.57,31.16,43.38,24.2,14.13,65.2,18.54,87.11-2a73.42,73.42,0,0,0,52.32,13.66c23.62-2.8,43-16.28,53.36-34.62,2.35-.06,4.72-.22,7.1-.5C1159.67,194.77,1186.26,161.79,1181.4,125.65Z"/><path class="cls-40" d="M966.65,707.5a47.44,47.44,0,0,1,1.58,19.07c-.07.53,1.59.21,1.64-.25a47.7,47.7,0,0,0-1.56-19.27c-.14-.47-1.79,0-1.66.45Z"/><path class="cls-40" d="M1017.94,1062.17c-2.5-13-3.8-26.15-5.72-39.22-1.89-12.82-3-25.74-4.45-38.61-.75-6.87-1.51-13.74-2.52-20.58-.11-.74-1.92-.3-1.8.49,1.89,12.76,3,25.63,4.44,38.45,1.3,11.9,3,23.74,4.51,35.6,1.07,8.14,2.18,16.29,3.73,24.36.15.74,2,.29,1.81-.49Z"/><circle class="cls-2" cx="635.19" cy="182.35" r="16.01"/><circle class="cls-2" cx="835.2" cy="171.79" r="16.01"/><rect class="cls-60" x="465.3" y="132.79" width="100.56" height="64.09" transform="translate(-21.6 98.26) rotate(-10.67)"/><rect class="cls-61" x="453.08" y="139.65" width="116.84" height="74.46" rx="7.03" transform="translate(-12.92 43.08) rotate(-4.76)"/><path class="cls-62" d="M562.32,204.18l-98,8.17a3.19,3.19,0,0,1-3.45-2.91l-4.74-57A3.19,3.19,0,0,1,459,149l98-8.16a3.19,3.19,0,0,1,3.45,2.91l4.74,57a3.17,3.17,0,0,1-2.91,3.44Z"/><rect class="cls-63" x="537.53" y="159.94" width="39.61" height="22.26" rx="5.51" transform="translate(-12.28 46.86) rotate(-4.76)"/><circle class="cls-64" cx="550.62" cy="171.72" r="6.15"/><path class="cls-65" d="M1071.48,306.15a58.43,58.43,0,0,1,9.9-4.5c.37-.13.85-.43.73-.9s-.72-.53-1.08-.41a61.49,61.49,0,0,0-10.37,4.67c-.34.2-.67.58-.41,1a1,1,0,0,0,1.23.16Z"/><path class="cls-6" d="M1069.3,306.22c2-.47,3.8-1.62,5.69-2.39a34.48,34.48,0,0,1,6.29-1.88c.57-.11.41-.65-.14-.54a36.38,36.38,0,0,0-6.12,1.8c-2,.77-3.81,2-5.86,2.47-.56.13-.41.67.14.54Z"/><path class="cls-66" d="M1023.9,336.64l-.54,15.21a1,1,0,0,0,1,1l122.58,4.35a1.13,1.13,0,0,0,.51-.12l30.86-16.05a1,1,0,0,0-.47-1.92l-1.5.64a1,1,0,0,0-.48.12l-27.38,14.41a1,1,0,0,1-1.49-.95l.44-8.56a1,1,0,0,1,.57-.87l30.69-14.65a1,1,0,0,0-.38-1.93l-118-4.59a1.11,1.11,0,0,0-.4.06l-35.35,12.88A1,1,0,0,0,1023.9,336.64Z"/><path class="cls-67" d="M1031.85,322.41l-.47,13.17,122.11,4.33,30.58-14.66a.89.89,0,0,0-.35-1.69l-1.11,0-29.39,14.11.37-10.42,31.75-13.8a.89.89,0,0,0-.32-1.7l-115-4.29Z"/><path class="cls-68" d="M1015.34,322.09l.46-12.95a1,1,0,0,1,.78-.93l56.63-12a.65.65,0,0,1,.24,0l110.65,3a1,1,0,0,1,.25,1.92l-45,13.54a1,1,0,0,0-.7.94l-.07,8.55c0,.69.72.53,1.36.29l41.36-14.82a1.11,1.11,0,0,1,.48,0l2.81-.5a1,1,0,0,1,.21,1.89l-45.58,16.45a.82.82,0,0,1-.38.06l-122.5-4.34A1,1,0,0,1,1015.34,322.09Z"/><path class="cls-69" d="M1129.67,313.62c0,.14-25.15-.64-56.14-1.74s-56.14-2.1-56.13-2.24,25.14.63,56.14,1.73S1129.68,313.45,1129.67,313.62Z"/><polygon class="cls-2" points="1181.52 302.21 1181.48 309.51 1138.64 324.86 1138.61 314.84 1181.52 302.21"/><line class="cls-2" x1="1139.78" y1="322.28" x2="1179.97" y2="308.26"/><path class="cls-6" d="M1140,322.44l35.26-12.3,4.93-1.72c.77-.27,0-.48-.41-.32l-35.26,12.3-4.93,1.72c-.77.27,0,.48.41.32Z"/><line class="cls-2" x1="1152.03" y1="314.22" x2="1181.28" y2="304.47"/><path class="cls-6" d="M1152.14,314.65l25.62-8.54,3.64-1.21c.69-.23.48-1.09-.23-.85l-25.62,8.54-3.64,1.21c-.69.23-.48,1.08.23.85Z"/><polygon class="cls-2" points="1182.94 314.55 1182.61 323.52 1153.22 337.63 1153.59 327.21 1182.94 314.55"/><line class="cls-2" x1="1160.5" y1="329.88" x2="1182.15" y2="319.81"/><path class="cls-6" d="M1160.74,330.15l19-8.82,2.68-1.25c.72-.33.07-.79-.48-.54l-19,8.82-2.68,1.25c-.72.33-.07.79.48.54Z"/><line class="cls-2" x1="1154.48" y1="329.15" x2="1176.72" y2="319.58"/><path class="cls-6" d="M1154.73,329.49l19.5-8.39,2.75-1.18c.72-.31.08-.94-.51-.68l-19.5,8.39-2.75,1.18c-.72.31-.08.94.51.68Z"/><line class="cls-70" x1="1150.97" y1="327.87" x2="1140.73" y2="327.51"/><polygon class="cls-2" points="1176.27 330.44 1176.06 339.8 1146.87 355.16 1147.44 344.21 1176.27 330.44"/><line class="cls-2" x1="1148.65" y1="348.03" x2="1175.15" y2="334.83"/><path class="cls-6" d="M1148.82,348.27l23.24-11.57,3.26-1.63c.47-.23.06-.67-.34-.48l-23.25,11.57-3.26,1.63c-.46.23,0,.67.35.48Z"/><line class="cls-2" x1="1148.18" y1="350.76" x2="1176.17" y2="336.83"/><path class="cls-6" d="M1148.33,350.91l24.5-12.19,3.49-1.74c.47-.24,0-.48-.3-.31l-24.5,12.19L1148,350.6c-.47.24,0,.48.3.31Z"/><line class="cls-2" x1="1155.84" y1="342.18" x2="1176.33" y2="332.13"/><path class="cls-6" d="M1156.06,342.25l18-8.81,2.55-1.25c.45-.22-.25-.23-.45-.13l-17.95,8.81-2.55,1.25c-.45.22.25.23.45.13Z"/><path class="cls-71" d="M1033.09,342.33a1.54,1.54,0,0,0,.19,1.15,13.43,13.43,0,0,0,.6,1.6,1.83,1.83,0,0,0,2.58.64c.63-.35.75-.92,1.15-1.46.27-.35.66-.57.93-.92a4.12,4.12,0,0,0,.39-.63l-.33.08a6.07,6.07,0,0,1,.77,1.19l1.81,2.78c.3.46,1.31.2,1.58-.16l3.07-4.11-1.45.27c1.53,1,.88,3.86,3.3,3.83a2.81,2.81,0,0,0,2.07-1c.37-.43,1-2,1.59-2.05l-.81-.36c.62,1.34,1.35,2.75,2.88,3.17a3.38,3.38,0,0,0,1.73,0c.23-.06,1.54-.9,1.39-.93l-.5-.22c.43.37.42,1,.89,1.35a1.88,1.88,0,0,0,1.37.27,5.41,5.41,0,0,0,1.74-.62,4.75,4.75,0,0,1,2.83-.56c.81.06,1.87-1.11.65-1.2a6.75,6.75,0,0,0-3.61.48c-.44.21-1,.76-1.49.52s-.38-.78-.78-1.05a1.9,1.9,0,0,0-2.13.31c-.73.55-1.26.65-2-.06a6.48,6.48,0,0,1-1.18-1.95c-.15-.33-.49-.37-.81-.36a2.75,2.75,0,0,0-1.92.87c-.54.56-.79,1.42-1.35,1.94-.36.32-.42.22-.68-.23a7.39,7.39,0,0,1-.45-1.13,3.72,3.72,0,0,0-1.34-2,1.27,1.27,0,0,0-1.44.27l-3.08,4.11,1.57-.16-1.55-2.38a9.25,9.25,0,0,0-1.25-1.87,1.76,1.76,0,0,0-2.47.28c-.35.4-.52.89-.91,1.27a7,7,0,0,0-.86,1c-.19.27-.07.45-.29-.07-.14-.32-.14-.65-.26-1-.18-.48-.42-.54-.34-1.1.11-.84-1.72-.56-1.82.17Z"/><path class="cls-72" d="M1036.05,328.76c-.36,2.46,2.88,2.9,4.25,1.39.09-.09.39-.41.35-.52q-.9-.09-.54.12a1.5,1.5,0,0,1,.24.18,4.7,4.7,0,0,0,1.05.78,2.14,2.14,0,0,0,2.4-.59,2.38,2.38,0,0,0,.34-.49c.17-.21.15-.24-.06-.07.13.06.25.13.37.2a3.61,3.61,0,0,0,1.48.56c1.18.13,2.62-.67,3.58.2a3.11,3.11,0,0,0,2.68,1c1-.13,2.26-.94,3.3-.55.64.24,2.11-.68,1.09-1.07a4.35,4.35,0,0,0-2.76.09,7.93,7.93,0,0,1-1.42.41c-.66.06-1-.41-1.43-.81a3.2,3.2,0,0,0-2.58-.57,6.86,6.86,0,0,1-1.68.18c-.57-.08-1-.53-1.53-.71a2.26,2.26,0,0,0-2.39.56,1.64,1.64,0,0,0-.35.49c-.18.17-.16.22,0,.17s.23,0,0-.1a3.6,3.6,0,0,0-.9-.74,1.9,1.9,0,0,0-2.13.06c-.3.22-.44.74-.73.9-.63.36-1-.82-.89-1.26.12-.79-1.71-.49-1.81.2Z"/><path class="cls-69" d="M1020.9,315.28a16.53,16.53,0,0,0-.62,1.88c-.07.59.46,1.24.72,1.71s1.31.05,1.6-.23a6.49,6.49,0,0,0,1.21-1.4c.23-.44.39-.92.64-1.36l-1.59.23c.71,1.8,1.85,3.62,4.07,3.25a3.09,3.09,0,0,0,2.06-1.27c.52-.76.68-1.77,1.41-2.38l-1.49.13,1.51,2.86c.26.49,1.34.06,1.6-.24l1.55-1.81.36-.42c-.13,0-.13,0,0,.11a2.25,2.25,0,0,1,.62.84c.46.8.85,1.67,1.89,1.74a2.54,2.54,0,0,0,2.23-1.15c.38-.52.64-.59,1.22-.19a1.52,1.52,0,0,1,.68,1.29c0,.43,1.67.14,1.66-.44a2.25,2.25,0,0,0-2.31-2,3.4,3.4,0,0,0-1.72.36,2.39,2.39,0,0,0-.68.5c-.16.15-.62.68-.41.7-.54-.06-1-1.47-1.25-1.85a1.83,1.83,0,0,0-1.61-.84c-1.71.08-2.78,2-3.77,3.18l1.59-.24-1.51-2.85c-.23-.45-1.19-.11-1.48.13-.89.73-1,1.8-1.69,2.69-1.07,1.42-2.59-1.81-2.88-2.55-.19-.48-1.41-.09-1.6.23s-.44.93-.67,1.39a5.5,5.5,0,0,1-1.18,1.37l1.59-.23c-.24-.43-.76-1.07-.72-1.59a15.26,15.26,0,0,1,.61-1.8c.13-.52-1.53-.27-1.65.24Z"/><line class="cls-73" x1="1025.34" y1="337.82" x2="1145.3" y2="343.19"/><line class="cls-74" x1="1181.48" y1="309.51" x2="1181.75" y2="301.89"/><line class="cls-74" x1="1182.61" y1="323.7" x2="1182.94" y2="314.55"/><line class="cls-74" x1="1176.06" y1="339.76" x2="1176.39" y2="330.6"/><rect class="cls-75" x="1167.97" y="268.48" width="82.62" height="123.39" transform="translate(-23.64 103.71) rotate(-4.86)"/><path class="cls-76" d="M1248.4,376.42l-8.19-96.29a5.49,5.49,0,0,1-.58,0,6.86,6.86,0,0,1-6.83-6.27l-54.88,4.67c0,.23,0,.47,0,.71a8.37,8.37,0,0,1-7.67,8.34l8,94.56a6.36,6.36,0,0,1,.87-.06,6.86,6.86,0,0,1,6.83,6.25l56.09-4.77c0-.11,0-.22,0-.34A6.85,6.85,0,0,1,1248.4,376.42Z"/><g id="freepik--Label--inject-3"><path class="cls-77" d="M1226.5,375l-10.4,24.19a.61.61,0,0,0,.8.8l8-3.54a.62.62,0,0,1,.82.3.14.14,0,0,1,0,.07l2.71,8.12a.61.61,0,0,0,.78.38.63.63,0,0,0,.37-.38l9.79-26.09Z"/><path class="cls-77" d="M1240.07,379.05l5,25.85a.61.61,0,0,0,.72.48.62.62,0,0,0,.4-.27l4.64-7.44a.62.62,0,0,1,.85-.19l0,0,6.81,5.2a.62.62,0,0,0,.86-.12.58.58,0,0,0,.1-.51L1252.9,375Z"/><polygon class="cls-78" points="1240.57 332.63 1243.99 330.12 1246.67 333.4 1250.61 331.82 1252.39 335.66 1256.6 335.11 1257.37 339.28 1261.58 339.79 1261.29 344.02 1265.24 345.55 1263.91 349.58 1267.35 352.06 1265.06 355.63 1267.78 358.88 1264.67 361.76 1266.5 365.59 1262.77 367.61 1263.59 371.77 1259.48 372.8 1259.23 377.04 1254.99 377.01 1253.71 381.05 1249.61 379.98 1247.35 383.57 1243.65 381.51 1240.57 384.42 1237.5 381.51 1233.8 383.57 1231.54 379.98 1227.44 381.05 1226.15 377.01 1221.91 377.04 1221.67 372.8 1217.55 371.77 1218.37 367.61 1214.64 365.59 1216.47 361.76 1213.36 358.88 1216.08 355.63 1213.8 352.06 1217.24 349.58 1215.9 345.55 1219.86 344.02 1219.57 339.79 1223.78 339.28 1224.55 335.11 1228.75 335.66 1230.54 331.82 1234.47 333.4 1237.15 330.12 1240.57 332.63"/><circle class="cls-2" cx="1240.57" cy="357.27" r="19.21" transform="translate(25.27 792.81) rotate(-35.78)"/><path class="cls-78" d="M1244.76,352.72l5.15.76a1,1,0,0,1,.88,1.17,1.06,1.06,0,0,1-.31.59l-3.73,3.63a1,1,0,0,0-.3.92l.88,5.14a1,1,0,0,1-.85,1.19,1,1,0,0,1-.65-.1l-4.62-2.43a1,1,0,0,0-1,0l-4.62,2.41a1,1,0,0,1-1.39-.44,1,1,0,0,1-.1-.65l.88-5.13a1,1,0,0,0-.29-.91l-3.73-3.64a1,1,0,0,1,0-1.46,1.06,1.06,0,0,1,.6-.31l5.15-.74a1,1,0,0,0,.78-.56l2.31-4.67a1,1,0,0,1,1.85,0l2.3,4.68A1,1,0,0,0,1244.76,352.72Z"/></g><path class="cls-6" d="M1188.25,363.48a33.33,33.33,0,0,0,0,4.12,1.34,1.34,0,0,0,1.6,1.2c2.2-.17,2.76-2.89,4.36-4l-.54.18c.37,0,.72,2.07.83,2.38a2.44,2.44,0,0,0,1.25,1.47.78.78,0,0,0,.83-.27,14.27,14.27,0,0,1,2.2-3.19,7.54,7.54,0,0,1,1.47-1.35c.89-.56,1.18,0,1.43.75.68,2.09,3.28.92,4.5.13.4-.26-.51-.23-.72-.1-.84.55-2.21,1.16-2.78,0-.22-.46-.14-1-.62-1.29a2.15,2.15,0,0,0-2,.13,7.46,7.46,0,0,0-2.34,2,14.75,14.75,0,0,0-2.08,3.1l.82-.27c-1.15-.54-1.24-2-1.56-3.1-.11-.39-.19-.76-.64-.83a1.66,1.66,0,0,0-1.24.56,8.91,8.91,0,0,0-1.37,1.63c-.39.57-1.25,2.27-2.16,1.48-.58-.5-.37-1.64-.36-2.3l0-2.62c0-.22-.91-.07-.91.24Z"/><line class="cls-79" x1="1193.28" y1="299.23" x2="1221.36" y2="297.25"/><line class="cls-80" x1="1181.57" y1="312.83" x2="1231.19" y2="308.63"/><line class="cls-80" x1="1186.57" y1="372" x2="1209.68" y2="370.33"/><line class="cls-80" x1="1182.08" y1="320.81" x2="1235.49" y2="316.62"/><line class="cls-80" x1="1182.56" y1="328.97" x2="1235.97" y2="324.78"/><path class="cls-81" d="M1020.84,361.86a7.1,7.1,0,0,0,.44,3.62c.33.81.94,2.16,1.94,2.25a1.78,1.78,0,0,0,1.88-1.26c.6-1.48,1.18-3,1.78-4.44l-1.55.33c.49,1.15.92,3.42,2.56,3.24a2.14,2.14,0,0,0,1.5-.82c.71-.85,1.32-1.8,2-2.7l-1.48.25c.51.95,1,1.91,1.54,2.86.33.56.64.87,1.33.78a2,2,0,0,0,1.42-.88c.2-.31.28-.9.54-1.15l-.07-.13.21.29c.09.18.13.39.2.57a2.49,2.49,0,0,0,2.77,1.63,4.41,4.41,0,0,0,1.8-.53c.28-.16,1.4-1.41,1.51-1.35.41.23,1.71-.41,1.46-.55a2.58,2.58,0,0,0-2.78.45c-.62.5-.91,1.41-1.85,1.26a1.72,1.72,0,0,1-1.32-1.2c-.38-1-.81-1.59-2-1.25a2.5,2.5,0,0,0-1.25.76c-.26.32-.6,1.47-.78,1.54l.92-.11c-.55-.15-.93-1.27-1.18-1.73l-.91-1.68c-.21-.38-1.29,0-1.48.25l-1,1.35-.55.75-.22.3c-.3.26-.32.35,0,.29.39.19-.1-.32-.12-.36a3.9,3.9,0,0,1-.39-.76l-.76-1.78c-.18-.42-1.42,0-1.55.33l-1,2.59a9.45,9.45,0,0,1-1,2.48l.63-.32-.23.08.7,0c-.89-.24-1.43-1.68-1.69-2.47a7,7,0,0,1-.29-3c.06-.45-1.49-.16-1.53.25Z"/><path class="cls-82" d="M915.18,89.7a.31.31,0,0,1,.05.1c0,.06.08.16.13.28a5.84,5.84,0,0,1,.29,1,.74.74,0,0,1-.1.56.9.9,0,0,1-.37.3l-.28.14c-.06,0-.1.06-.1,0a1.65,1.65,0,0,1,.36-.22,1.08,1.08,0,0,0,.34-.3.7.7,0,0,0,.08-.53,5.92,5.92,0,0,0-.27-1l-.11-.29A.36.36,0,0,1,915.18,89.7Z"/><path class="cls-82" d="M915.6,91.34a3,3,0,0,0,.34-.27.68.68,0,0,0,.21-.38,1,1,0,0,0-.12-.54l-.44-.93-.13-.29a.36.36,0,0,1,0-.11l.06.1.14.28c.12.24.29.56.47.93a1,1,0,0,1,.11.57.71.71,0,0,1-.23.4,1.51,1.51,0,0,1-.26.18A.39.39,0,0,1,915.6,91.34Z"/><path class="cls-83" d="M1047.65,148.8a9.13,9.13,0,0,0-9-9.17c-4.93.07-9,4.54-8.84,9.81a9,9,0,0,0,8.91,8.87C1043.9,158.31,1047.71,154.26,1047.65,148.8Z"/><path class="cls-84" d="M1045.25,148.7a6.69,6.69,0,0,0-6.59-6.71,6.86,6.86,0,0,0-6.47,7.17,6.54,6.54,0,1,0,13.06-.46Z"/><line class="cls-85" x1="1062.89" y1="142.21" x2="1081.46" y2="142.36"/><path class="cls-86" d="M1095.3,142.23l-8.22.15c-3,.05-4.58,1.6-4.55,4.83,0,2.72-.3,5.49,1.11,8,3.11.74,6.28.37,9.42.44,2.68.06,5.41.09,6.11-3.6C1100.19,146.69,1099.15,144,1095.3,142.23Z"/><path class="cls-87" d="M1094.47,126.28q0,6.54-.07,13.08c-1.31,0-2.63,0-3.93,0-3-.11-4.59-1.77-4.62-4.92,0-2.74,0-5.48,0-8.23"/><path class="cls-88" d="M1094.47,131.29q0-6.54-.07-13.08c-1.31,0-2.63,0-3.93,0-3,.11-4.59,1.76-4.62,4.91,0,2.75,0,5.49,0,8.23"/><polygon class="cls-89" points="924.29 91.61 921.73 91.74 915.16 90.82 915.18 90.5 921.8 91.58 924.29 91.61"/><path class="cls-90" d="M1035.17,157.46c-4.53-18.13,10.57-29.38,23-25.76a19,19,0,0,1,13.6,18.18c0,2.47-.16,4.94-.24,7.41h4.81c-.08-5.49.7-11-.51-16.44-1.9-8.58-8.3-13.93-16.72-14-3.55-.05-7.1,0-10.66,0-11.13,0-18.26,7.28-18.54,18.92-.09,3.85,0,7.7,0,11.55Z"/><path class="cls-91" d="M917.36,128.33c6.76-6,14.73-6.59,22.33-1.92a18.6,18.6,0,0,1,7.83,9.56,22.3,22.3,0,0,1,.39,13.45,19.62,19.62,0,0,1-7.81,10.43,18.22,18.22,0,0,1-11.52,3,17.56,17.56,0,0,1-11.05-4.6c-3.17-2.91-6-7-6.51-11.48C910.19,139.72,912,133,917.36,128.33Z"/><path class="cls-92" d="M929.08,128.38a11.89,11.89,0,0,1,12.2,12.09c.08,7.1-5,12.54-11.73,12.58-6.59,0-11.75-5.21-11.86-12.08S922.59,128.54,929.08,128.38Zm.29,2.94c-4.94.07-9,4.55-8.84,9.82a9,9,0,0,0,8.91,8.87c5.19,0,9-4,8.95-9.51A9.15,9.15,0,0,0,929.37,131.32Z"/><path class="cls-83" d="M938.39,140.5a9.15,9.15,0,0,0-9-9.18c-4.94.07-9,4.55-8.84,9.82a9,9,0,0,0,8.91,8.87C934.63,150,938.45,146,938.39,140.5Z"/><path class="cls-91" d="M1040.73,138.85c6.76-6,14.73-6.6,22.33-1.93a18.64,18.64,0,0,1,7.83,9.56,22.29,22.29,0,0,1,.38,13.45,19.61,19.61,0,0,1-7.8,10.43,18.16,18.16,0,0,1-11.52,3,17.6,17.6,0,0,1-11-4.59c-3.17-2.92-6-7-6.51-11.49C1033.56,150.23,1035.41,143.53,1040.73,138.85Z"/><path class="cls-92" d="M1052.75,138.58a11.88,11.88,0,0,1,12.2,12.1c.09,7.09-5,12.53-11.73,12.58-6.58,0-11.74-5.22-11.85-12.09S1046.26,138.74,1052.75,138.58Zm.29,2.95c-4.93.06-9,4.54-8.84,9.81a9,9,0,0,0,8.92,8.87c5.19,0,9-4.05,9-9.51A9.14,9.14,0,0,0,1053,141.53Z"/><path class="cls-83" d="M1062.07,150.7a9.14,9.14,0,0,0-9-9.17c-4.93.06-9,4.54-8.84,9.81a9,9,0,0,0,8.92,8.87C1058.31,160.21,1062.13,156.16,1062.07,150.7Z"/><path class="cls-84" d="M1059.66,150.6a6.68,6.68,0,0,0-6.59-6.71,6.85,6.85,0,0,0-6.46,7.17,6.53,6.53,0,1,0,13.05-.46Z"/><rect class="cls-93" x="1027.09" y="116.86" width="81.79" height="4.68"/><line class="cls-85" x1="1077.31" y1="144.11" x2="1095.87" y2="144.26"/><path class="cls-86" d="M1109.72,144.13l-8.23.15c-3,.05-4.58,1.6-4.54,4.83,0,2.72-.3,5.48,1.1,8,3.11.74,6.28.36,9.42.43,2.69.06,5.41.1,6.12-3.59C1114.61,148.58,1113.57,145.93,1109.72,144.13Z"/><path class="cls-87" d="M1108.88,128.18q0,6.54-.07,13.08c-1.31,0-2.62,0-3.93,0-3-.11-4.59-1.76-4.62-4.91,0-2.75,0-5.49,0-8.23"/><path class="cls-88" d="M1108.88,133.19q0-6.54-.07-13.08c-1.31,0-2.62,0-3.93,0-3,.11-4.59,1.77-4.62,4.92,0,2.74,0,5.48,0,8.22"/><path class="cls-94" d="M1053.59,97.22A3.53,3.53,0,0,1,1056,95.8a10.48,10.48,0,0,1,3.81,1.13,2.2,2.2,0,0,1-1.32,1.78,18.37,18.37,0,0,1-3,1l-1.93-2.48"/><rect class="cls-95" x="956.35" y="120.02" width="72.17" height="36.95"/><line class="cls-96" x1="959.49" y1="143.23" x2="1025.46" y2="143.44"/><path class="cls-97" d="M1065.88,107.42c-5.67-.06-5.72-5.92-5.8-10.38-.09-4.65-.09-11.42,0-16.07.07-4.46,1.83-6.34,6.08-6.44s5.44,0,9.79,0,8.44,0,12.65,0c3.44,0,5.19.9,7.63,3.43q12,12.51,23.8,25.35c2.12,2.31,1.56,4-1.32,4.1Z"/><path class="cls-98" d="M940.37,103.54l.07-.91-.39-.26s-2.26.1-2.58-.22a4.89,4.89,0,0,1-.46-.56l-5.76.28,5-2.49h1.59l4.08-.25a1.1,1.1,0,0,1,.42.38c.24.3,1.11,2,1.11,2l-.45,1.39-.9,1.11s-.34,0-.28-.51h0a1.56,1.56,0,0,1-1.12.13h0l-.16,0S940.35,103.62,940.37,103.54Z"/><path class="cls-99" d="M940.49,103.6l.11,0,.29-.13a3.36,3.36,0,0,0,.43-.2c.14-.11.12-.32.12-.53,0-.38,0-.73,0-1.06,0-.11,0-.21,0-.32a.49.49,0,0,1,0-.12.49.49,0,0,1,0,.12v.32c0,.34,0,.68,0,1.06,0,.1,0,.21,0,.31a.38.38,0,0,1-.13.26.88.88,0,0,1-.24.11l-.2.08-.3.12Z"/><path class="cls-99" d="M942.16,101.09a.31.31,0,0,1,.05.1,2.93,2.93,0,0,1,.13.29,5.73,5.73,0,0,1,.29,1,.76.76,0,0,1-.1.57,1,1,0,0,1-.37.3l-.28.14-.1.05a2.21,2.21,0,0,1,.36-.23,1.05,1.05,0,0,0,.34-.29.66.66,0,0,0,.08-.53,5.68,5.68,0,0,0-.27-1l-.11-.29A.43.43,0,0,1,942.16,101.09Z"/><path class="cls-99" d="M942.59,102.74a2.52,2.52,0,0,0,.33-.27.65.65,0,0,0,.21-.39,1,1,0,0,0-.12-.53l-.44-.94-.13-.29a.42.42,0,0,1,0-.1l.06.1.14.27.47.93a1.13,1.13,0,0,1,.12.57.75.75,0,0,1-.24.41,2.2,2.2,0,0,1-.25.17Z"/><path class="cls-100" d="M918.92,109.42s-2-3.41-2.55-3-1.82,1.71-1.72,2.7l3.06,1.09Z"/><path class="cls-98" d="M939.28,105.36l.07-.91-.39-.25s-2.26.09-2.58-.23a4.89,4.89,0,0,1-.46-.56l-5.76.28,5.24-2.55,1.34.06,4.08-.25a1.18,1.18,0,0,1,.42.38c.24.31,1.11,2,1.11,2l-.45,1.4-.9,1.1s-.34,0-.29-.51h0a1.53,1.53,0,0,1-1.11.13h0l-.16,0S939.26,105.44,939.28,105.36Z"/><polygon class="cls-89" points="936.85 101.11 934.28 101.24 927.71 100.32 927.73 100 934.35 101.08 936.85 101.11"/><polyline class="cls-101" points="914.06 98.52 913.5 93.93 913.8 98.52"/><path class="cls-89" d="M923,99.52a4.44,4.44,0,0,0-2.25.74S921.93,99,923,99.52Z"/><path class="cls-89" d="M936.85,101.11s3.57-.56,3.86-.3a4.71,4.71,0,0,1,1,1.3,12,12,0,0,1,.62,1.21l-.08.55.2-.59a9.23,9.23,0,0,0-1.53-2.56C940.28,100.34,936.85,101.11,936.85,101.11Z"/><polygon class="cls-102" points="967.35 100.29 966.44 104.45 967.29 104.38 966.7 104.31 967.35 100.29"/><line class="cls-103" x1="962.33" y1="155.57" x2="1039.21" y2="155.82"/><line class="cls-103" x1="962.45" y1="161.71" x2="1039.33" y2="161.96"/><path class="cls-90" d="M923,167c-4.53-18.15,10.58-29.42,23-25.79a19,19,0,0,1,13.62,18.2c0,2.47-.16,4.94-.25,7.42h4.83c-.09-5.49.69-11-.51-16.46-1.91-8.6-8.32-13.95-16.75-14.07-3.55,0-7.11,0-10.67,0-11.15,0-18.28,7.29-18.56,18.94-.09,3.86,0,7.71,0,11.57Z"/><path class="cls-90" d="M1047.87,167c-4.53-18.15,10.58-29.42,23-25.79a19,19,0,0,1,13.62,18.2c0,2.47-.16,4.94-.24,7.42h4.82c-.09-5.49.69-11-.51-16.46-1.91-8.6-8.32-13.95-16.75-14.07-3.55,0-7.11,0-10.67,0-11.15,0-18.28,7.29-18.56,18.94-.09,3.86,0,7.71.05,11.57Z"/><path class="cls-83" d="M950,160.2a9.15,9.15,0,0,0-9-9.19c-4.94.07-9,4.55-8.85,9.83a9,9,0,0,0,8.92,8.88C946.19,169.72,950,165.66,950,160.2Z"/><path class="cls-83" d="M1074.81,160.26a9.17,9.17,0,0,0-9-9.19c-4.94.07-9,4.55-8.85,9.83a9,9,0,0,0,8.92,8.88C1071,169.78,1074.87,165.73,1074.81,160.26Z"/><path class="cls-104" d="M1072.4,160.16a6.69,6.69,0,0,0-6.61-6.72,6.86,6.86,0,0,0-6.46,7.18,6.54,6.54,0,1,0,13.07-.46Z"/><rect class="cls-93" x="1039.78" y="126.38" width="81.9" height="4.68"/><line class="cls-103" x1="1090.06" y1="153.66" x2="1108.66" y2="153.81"/><path class="cls-86" d="M1122.52,153.68l-8.24.15c-3,0-4.59,1.6-4.55,4.83,0,2.73-.3,5.5,1.1,8,3.12.75,6.29.37,9.44.44,2.69.06,5.42.1,6.12-3.6C1127.41,158.14,1126.37,155.49,1122.52,153.68Z"/><path class="cls-87" d="M1121.68,137.71q0,6.54-.07,13.1c-1.31,0-2.63,0-3.94,0-3-.11-4.59-1.77-4.62-4.92,0-2.75,0-5.49,0-8.24"/><path class="cls-88" d="M1121.68,142.73q0-6.55-.07-13.1c-1.31,0-2.63,0-3.94,0-3,.12-4.59,1.77-4.62,4.93,0,2.74,0,5.49,0,8.23"/><rect class="cls-83" x="965.44" y="130.44" width="76.45" height="37"/><rect class="cls-105" x="1025.71" y="115.25" width="11.48" height="3.38" rx="1.69" transform="translate(914.51 1148.38) rotate(-90)"/><line class="cls-103" x1="967" y1="153.68" x2="1036.88" y2="153.89"/><path class="cls-97" d="M985.71,100.22c0,5.21-1.8,7.2-6.68,7.22q-26.91.09-53.82,0c-4.84,0-10.64.57-10.71-4.59-.08-6.21,3.86-15.08,3.94-21.28.07-5.18,1.89-7.07,6.79-7.1,9,0,17.94,0,26.91,0s18.21,0,27.31,0c4.5,0,6.19,1.89,6.25,6.7C985.77,87.52,985.76,93.87,985.71,100.22Z"/><path class="cls-97" d="M1054.66,100.37c0,5.21-1.79,7.2-6.67,7.22q-26.93.09-53.83,0c-4.83,0-10.64.57-10.7-4.59-.08-6.21-.2-15.08-.12-21.28.07-5.18,5.95-7.07,10.85-7.1,9-.05,17.94,0,26.91,0s18.21-.06,27.31,0c4.5,0,6.19,1.89,6.24,6.7C1054.73,87.67,1054.71,94,1054.66,100.37Z"/><path class="cls-98" d="M953.79,115.58l.07-.92-.39-.25s-2.26.1-2.58-.23a4.15,4.15,0,0,1-.46-.56l-5.76.29,5-2.49h1.6l4.08-.25a1.15,1.15,0,0,1,.42.37c.24.31,1.11,2,1.11,2l-.45,1.4-.9,1.11s-.34,0-.29-.51h0a1.53,1.53,0,0,1-1.11.13h0l-.16,0S953.77,115.66,953.79,115.58Z"/><path class="cls-99" d="M953.91,115.64l.1,0,.3-.13a4.09,4.09,0,0,0,.42-.2c.14-.11.13-.32.12-.53,0-.38,0-.73,0-1.06,0-.11,0-.22,0-.32a.49.49,0,0,1,0-.12.49.49,0,0,1,0,.12v1.38c0,.1,0,.2,0,.31a.43.43,0,0,1-.13.26,1.28,1.28,0,0,1-.24.11l-.21.08-.3.12Z"/><path class="cls-99" d="M955.57,113.13a.21.21,0,0,1,.06.1l.13.29a6.75,6.75,0,0,1,.29,1,.82.82,0,0,1-.1.57,1,1,0,0,1-.37.3l-.28.14-.11,0a2.06,2.06,0,0,1,.37-.23.92.92,0,0,0,.33-.29.67.67,0,0,0,.09-.53,5.68,5.68,0,0,0-.27-1l-.11-.3Z"/><path class="cls-99" d="M956,114.77a2.22,2.22,0,0,0,.34-.26.71.71,0,0,0,.21-.39,1,1,0,0,0-.12-.54l-.44-.93-.13-.29a.36.36,0,0,1,0-.11l.06.1.14.28.47.93a1,1,0,0,1,.11.57.73.73,0,0,1-.23.41l-.26.17A.24.24,0,0,1,956,114.77Z"/><path class="cls-100" d="M930,110.7s-2-3.41-2.55-3-1.82,1.71-1.72,2.7l3.06,1.09Z"/><path class="cls-98" d="M952.69,117.4l.08-.91-.39-.26s-2.27.1-2.58-.23a3.44,3.44,0,0,1-.46-.55l-5.76.28,5.23-2.55,1.35.06,4.08-.25a1.18,1.18,0,0,1,.42.38c.24.3,1.11,2,1.11,2l-.45,1.39-.91,1.11s-.33,0-.28-.51h0a1.53,1.53,0,0,1-1.11.13h0l-.17,0S952.68,117.48,952.69,117.4Z"/><polygon class="cls-89" points="950.27 113.15 947.7 113.28 941.13 112.36 941.14 112.04 947.77 113.12 950.27 113.15"/><polyline class="cls-101" points="925.7 99.8 925.14 95.21 925.45 99.8"/><path class="cls-89" d="M937.46,101.42a4.44,4.44,0,0,0-2.25.74S936.36,100.89,937.46,101.42Z"/><path class="cls-89" d="M950.27,113.15s3.57-.56,3.86-.3a5.16,5.16,0,0,1,1,1.3,12.67,12.67,0,0,1,.62,1.2l-.08.56.2-.59a9.07,9.07,0,0,0-1.54-2.56C953.69,112.38,950.27,113.15,950.27,113.15Z"/><polygon class="cls-102" points="981.78 102.19 980.87 106.35 981.72 106.28 981.13 106.21 981.78 102.19"/><polyline class="cls-106" points="1115.16 93.74 1108.29 110.45 1127.47 110.45 1113.89 96.83"/><path class="cls-91" d="M1069.94,105.57a3,3,0,0,1-2.61,3.25l-2.27.41a3,3,0,0,1-3.58-2.13l-1.4-7.77a3,3,0,0,1,2.61-3.25l2.27-.4a3,3,0,0,1,3.58,2.13"/><path d="M1111.67,99.23l-4.41,10.57c-.44,1.06-1.21,1.52-1.72,1l-.36-.35a2.78,2.78,0,0,1-.13-2.79l4.41-10.58c.44-1.06,1.21-1.52,1.72-1l.36.34A2.82,2.82,0,0,1,1111.67,99.23Z"/><path class="cls-107" d="M937.47,168.87l36.37-.17h4.83l79.08.07h4.65l36.54,0,4.64,0h0c7.48-.06,13.49-.87,21-1.66,3.12.76,6.29,1.72,9.44,1.79,2.69.06,3,0,3.66-3.77,1-5.46,0-8-1.53-9.46-.08-1.44,0-3.3-.11-4.73,0-2.68,0-5.37,0-8.05,0-.34.07-.67.1-1h0l-.06-13.32c0-2.93,0-5.86,0-8.79.42-6.16-1.78-11-5.93-15.33-9.73-10.08-19.24-20.39-28.83-30.61a15.67,15.67,0,0,0-12-5.29c-57.23.07-108,0-165.21,0-6.06,0-8.06,1.56-9.27,7.87-2.2,11.39-5.19,22.59-6.8,34.1a50.91,50.91,0,0,0-.33,9.23m0,0c0,11.85,0,23.69-.12,35.53q1.35,0,2.49.12-1.14-.09-2.49-.12c-3,2.08-4.28,6.61-3,10.62,1.25,3.83,5.18,2.81,8.22,2.82,8.22,0,16.45.13,24.66-.06M1112.54,108l-45.55.18c-4.21-.06-6-2-6.1-6.42-.09-4.63-.08-15.56,0-20.18.08-4.44,1.84-6.31,6.08-6.41s5.45,0,9.8,0,8.43,0,12.65,0c3.43,0,5.19.9,7.62,3.41q12.06,12.45,23.8,25.22c2.12,2.29,1.57,4-1.32,4.06M981.84,82.17c.07-5.15,7-7,11.86-7.06,9,0,17.94,0,26.91,0s18.21-.06,27.31,0c4.5,0,6.19,1.88,6.24,6.67.08,6.31.06,57.89,0,64.2,0,5.19-1.79,7.7-6.68,7.72q-26.91.11-53.82,0c-4.83,0-11.76-4.77-11.83-9.91C981.76,137.63,981.76,88.34,981.84,82.17Zm-65.5,19c1.11-6.6,2.37-13.18,3.72-19.73,1-4.64,2.93-6.28,7.5-6.3,14.89-.05,28.76-.06,43.64,0,4.6,0,6.38,2,6.43,7,0,6,0,12,0,18.07s-1.75,7.74-7.38,7.77c-8.17,0-15.32,0-23.48,0s-16.6.06-24.9,0C917,107.85,915.52,106,916.34,101.15Zm-3.61,54.69c-.39-.09-.81-.17-1.26-.23.45.06.87.14,1.26.23a9.47,9.47,0,0,1,1.58.51A9.47,9.47,0,0,0,912.73,155.84Zm2.81,1.22a3.92,3.92,0,0,1,.62.6A3.92,3.92,0,0,0,915.54,157.06Z"/><path class="cls-95" d="M1103.58,168.71l-4.64,0-36.54,0h-4.65l-79.08-.07h-4.83l-36.37.17-.11-.17c-8.18.18-16.37.07-24.56.06-3,0-7,1-8.22-2.78-1.31-3.94,0-8.4,3-10.44.06-7.28.08-15.36.1-22.64h79.22c0,5.17,0,12.24,0,13.7.07,5,1.93,7.07,6.76,7.09q26.91.11,53.82,0c4.89,0,6.64-2,6.68-7.07,0-1.48,0-8.56,0-13.72l81.28.09c0,2.88.1,6.35.11,9.22-.63.1-.07.2-.07.2,0,.33-.07.66-.1,1l-.06,7.92c.08,1.41.16,2.82.23,4.23,3.13,2.27,4.19,4.33,3.17,9.7-.7,3.7-2.09,3.7-4.78,3.64l-30.48-.09"/><line class="cls-103" x1="917.76" y1="147.29" x2="931.04" y2="147.54"/><path class="cls-90" d="M937.45,168.93c-4.53-18.15,10.58-29.42,23-25.79a19,19,0,0,1,13.62,18.2c0,2.47-.16,4.94-.24,7.42h4.82c-.09-5.5.69-11-.51-16.46-1.91-8.6-8.32-13.95-16.75-14.07-3.55-.06-7.11,0-10.66,0-11.16,0-18.29,7.29-18.57,18.94-.09,3.86,0,7.71.05,11.57Z"/><path class="cls-90" d="M1062.3,168.93c-4.53-18.15,10.58-29.42,23-25.79a19,19,0,0,1,13.62,18.2c0,2.47-.15,4.94-.24,7.42h4.82c-.08-5.5.7-11-.51-16.46-1.91-8.6-8.32-13.95-16.75-14.07-3.55-.06-7.11,0-10.66,0-11.16,0-18.29,7.29-18.57,18.94-.09,3.86,0,7.71,0,11.57Z"/><path class="cls-91" d="M943,147.44c6.77-6,14.75-6.61,22.36-1.93a18.64,18.64,0,0,1,7.84,9.57,22.21,22.21,0,0,1,.38,13.47A19.56,19.56,0,0,1,965.79,179a18.21,18.21,0,0,1-11.53,3,17.59,17.59,0,0,1-11.07-4.6c-3.17-2.92-6-7.05-6.52-11.5C935.84,158.84,937.69,152.13,943,147.44Z"/><path class="cls-92" d="M955.06,150a11.91,11.91,0,0,1,12.22,12.11c.08,7.11-5,12.55-11.75,12.6-6.6,0-11.76-5.22-11.87-12.1S948.56,150.12,955.06,150Zm.29,2.95c-4.94.07-9,4.55-8.85,9.82a9,9,0,0,0,8.92,8.89c5.2,0,9-4.06,9-9.52A9.17,9.17,0,0,0,955.35,152.91Z"/><path class="cls-83" d="M964.39,162.1a9.17,9.17,0,0,0-9-9.19c-4.94.07-9,4.55-8.85,9.82a9,9,0,0,0,8.92,8.89C960.62,171.62,964.45,167.56,964.39,162.1Z"/><path class="cls-91" d="M1067.87,147.5c6.77-6,15.06-6.61,22.67-1.93a18.07,18.07,0,0,1,7.53,9.58,22.25,22.25,0,0,1,.39,13.46,19.69,19.69,0,0,1-7.82,10.45,18.27,18.27,0,0,1-11.53,3,17.59,17.59,0,0,1-11.07-4.6c-3.17-2.92-6-7.05-6.52-11.5C1060.69,158.9,1062.54,152.19,1067.87,147.5Z"/><path class="cls-92" d="M1079.91,150a11.91,11.91,0,0,1,12.22,12.11c.08,7.11-5,12.55-11.75,12.6-6.59.05-11.76-5.22-11.87-12.1S1073.41,150.19,1079.91,150Zm.29,2.95c-4.94.07-9,4.55-8.85,9.83a9,9,0,0,0,8.92,8.88c5.21,0,9-4.06,9-9.52A9.16,9.16,0,0,0,1080.2,153Z"/><path class="cls-83" d="M1089.24,162.16a9.16,9.16,0,0,0-9-9.19c-4.94.07-9,4.55-8.85,9.83a9,9,0,0,0,8.92,8.88C1085.48,171.68,1089.3,167.62,1089.24,162.16Z"/><path class="cls-104" d="M1086.83,162.05a6.69,6.69,0,0,0-6.6-6.71,6.87,6.87,0,0,0-6.47,7.18,6.54,6.54,0,1,0,13.07-.47Z"/><rect class="cls-93" x="1054.21" y="128.27" width="81.38" height="4.68"/><line class="cls-103" x1="1105.11" y1="157.42" x2="1123.09" y2="157.57"/><path class="cls-86" d="M1136.23,155.41c-2.44.05-5.59.27-8,.32-2.69.05-4.07,1.6-4,4.83,0,2.73-.27,5.5,1,8,2.77.75,5.59.37,8.38.44,2.39.06,4.82.1,5.44-3.6C1139.87,160,1139.65,157.22,1136.23,155.41Z"/><path class="cls-86" d="M916.21,158.74c0-.14,0-.84,0-1,.25-10.66,2.18-12.16-7.37-12.36-4.94,0-5.35,6.51-4,10.45,1.08,3.27,3.77,3,6.25,2.9C912.79,158.7,914.52,158.94,916.21,158.74Z"/><path class="cls-87" d="M1135.59,140.94q0,6.56-.07,13.1c-1.31,0-2.62,0-3.93,0-3-.11-4.59-1.76-4.62-4.92,0-2.75,0-5.49,0-8.24"/><path class="cls-87" d="M908.6,122.94h0a4.41,4.41,0,0,1,4.41,4.41V140a4.41,4.41,0,0,1-4.41,4.41h0a0,0,0,0,1,0,0V122.94A0,0,0,0,1,908.6,122.94Z"/><rect class="cls-108" x="908.6" y="130.76" width="4.41" height="5.8"/><path class="cls-109" d="M1135.59,146q0-6.56-.07-13.1c-1.31,0-2.62,0-3.93,0-3,.11-4.59,1.76-4.62,4.92,0,2.74,0,5.49,0,8.23"/><path class="cls-110" d="M1066.9,108c-5.68-.06-5.72-5.92-5.81-10.38-.09-4.65-.08-11.42,0-16.07.08-4.46,1.84-6.34,6.08-6.44s5.45,0,9.8,0,8.43,0,12.65,0c3.43,0,5.19.9,7.62,3.43Q1109.29,91,1121,103.86c2.12,2.31,1.57,4-1.32,4.1Z"/><path class="cls-111" d="M1051.23,101.42c0,5.18-1.8,6.67-6.55,6.69q-26.18.11-52.35,0c-4.7,0-6.46-1.6-6.52-6.72q-.12-9.24,0-18.48c.06-5.15,1.83-7.61,6.6-7.64,8.72,0,17.45,0,26.17,0s17.71-.06,26.56,0c4.38,0,6,2.47,6.08,7.24C1051.29,88.82,1051.28,95.12,1051.23,101.42Zm5.32,62.4c-.45-16.83.59-33.65,0-50.47-.54-14.66-1-29.33-1.12-44-25.23,0-47.93,0-73.16,0,.2,7-.71,14-.69,20.92.06,15.72-.26,31.43-.58,47.14-.23,10.62,1.32,21.23,1.19,31.85l74.28.07C1056.39,167.5,1056.6,165.66,1056.55,163.82Z"/><polygon class="cls-95" points="1056.43 169.34 979.98 169.34 978.97 132.34 1056.43 132.34 1056.43 169.34"/><rect class="cls-93" x="907.59" y="128.27" width="160.92" height="4.68"/><path class="cls-110" d="M1056.18,169.34c0-1.86.17-3.71.12-5.57-.45-17,.58-33.89,0-50.84-.55-14.77-1-29.55-1.12-44.34"/><rect class="cls-105" x="1046.07" y="113.1" width="3.38" height="11.48" rx="1.69"/><line class="cls-103" x1="980.89" y1="157.43" x2="1053.82" y2="157.65"/><path class="cls-110" d="M980.6,169.34c-.05-1.86.22-3.71.17-5.57-.45-17,.07-26.8.53-43.75.48-17.83.46-36.64.34-51.43"/><path class="cls-112" d="M898.8,635c-1.48-6.64,3.19-12.28,4.15-18.64a28.34,28.34,0,0,0-4.22-19.46c-.36-.56-2,0-1.53.7a27.54,27.54,0,0,1,3.86,20.15c-1.23,6.06-5.35,11.25-3.93,17.69.16.69,1.82.26,1.67-.44Z"/><polyline class="cls-113" points="309 308.79 309 356.31 206.03 356.31 206.03 249.86 269.83 249.86"/><polyline class="cls-4" points="181.21 245.9 114.44 245.9 110.96 249.63 108.39 252.26 105.83 254.75 100.71 260.26 91.55 270.46 78.99 283.94 77.38 285.81 75.53 287.65 70.63 292.74 64.2 299.81 48.41 316.76 63.67 316.84 68.06 312.36 98.06 317.93 101.94 313.01 103.59 313.21 103.59 316.76 117.95 313.98 119.16 320.19 203.09 320.19 211.26 308.26 211.26 301.96 215.84 298.17 225.81 293.14 228.85 283.35 237.76 272.95 246 272.17 271.28 245.9 206.06 245.9"/><line class="cls-114" x1="304.12" y1="292.12" x2="298.76" y2="284.57"/><polyline class="cls-114" points="290.12 272.83 285.7 266.19 271.28 245.9 265.59 251.75 311.61 316.76 321.63 316.76 309.12 299.15"/><polygon class="cls-4" points="128.39 320.37 186.63 256.66 220.92 257.32 163.38 320.37 128.39 320.37"/><polygon class="cls-4" points="71.36 310.28 124.38 250.96 162.05 247.23 105.13 310.28 71.36 310.28"/><line class="cls-115" x1="127.77" y1="247.23" x2="60.87" y2="320.2"/><line class="cls-115" x1="142.9" y1="247.23" x2="79.07" y2="319.45"/><line class="cls-115" x1="162.63" y1="245.9" x2="96.69" y2="319.74"/><line class="cls-115" x1="179.48" y1="246.46" x2="112.95" y2="319.46"/><line class="cls-115" x1="193.97" y1="246.49" x2="128.39" y2="320.37"/><line class="cls-115" x1="212.84" y1="246.62" x2="146.86" y2="320.07"/><line class="cls-115" x1="230.25" y1="246.7" x2="163.38" y2="320.37"/><line class="cls-115" x1="247.58" y1="246.78" x2="181.34" y2="319.46"/><path class="cls-116" d="M125.52,278.54a115.34,115.34,0,0,1,.27-14.4l15.32,10.17a3.89,3.89,0,0,0,1.81.8,3.94,3.94,0,0,0,2-.59c4-2,8.38-1.77,12.42-3.78-1.41,2.37-.52,7.63-.68,10.39a26.87,26.87,0,0,0,8.15,9.43q-7.53-1.32-15.16-1.91a18.28,18.28,0,0,0-6.6.32,19.82,19.82,0,0,0-6.37,3.76L128,299.46c-2.56-2.58.57-8.16-2.48-10.12a5.36,5.36,0,0,0-2.81-.59l-16.88-.39,20.71-10.31"/><polyline class="cls-117" points="281.88 274.76 277.46 281.33 271.28 281.8 262.89 279.84"/><polyline class="cls-117" points="270.46 281.61 265.59 290.76 268.03 296.51"/><polyline class="cls-117" points="164 328.17 180.1 335.13 186.06 331.65"/><line class="cls-117" x1="277.46" y1="281.33" x2="277.46" y2="288.52"/><polyline class="cls-117" points="164 320.39 164 327.07 154.78 336.49"/><line class="cls-117" x1="158.82" y1="332.35" x2="151.1" y2="329.97"/><line class="cls-117" x1="201.02" y1="351.12" x2="196.88" y2="356.87"/><polygon class="cls-118" points="283.86 349.96 283.86 370.15 261.63 387.63 165.05 387.63 165.05 367.77 283.86 349.96"/><polygon class="cls-119" points="260.92 368.06 165.05 368.06 192.58 349.96 283.86 349.96 260.92 368.06"/><polygon class="cls-120" points="256.9 365.21 174.59 365.21 194.29 351.75 276.6 351.75 256.9 365.21"/><polyline class="cls-121" points="165.05 381.09 261.61 381.09 283.86 363.33"/><polyline class="cls-121" points="165.05 378.17 261.61 378.17 283.86 360.41"/><polyline class="cls-121" points="165.05 374.65 261.61 374.65 283.86 356.89"/><polyline class="cls-121" points="165.05 371.62 261.61 371.62 283.86 353.86"/><polyline class="cls-121" points="165.05 384.18 261.61 384.18 283.86 366.43"/><polygon class="cls-122" points="220.56 349.96 199.87 368.31 199.87 386.65 222.15 386.65 222.15 368.31 241.57 349.96 220.56 349.96"/><rect class="cls-123" x="199.87" y="368.31" width="22.29" height="19.33"/><path class="cls-124" d="M249.88,392.51a32,32,0,0,0-9.06-1.17,32.57,32.57,0,0,0-9.12,1.17h-4.12v2.85h.06c0,.06-.06.12-.06.18,0,2.33,5.93,4.22,13.24,4.22s13.12-1.89,13.12-4.22v-3Z"/><ellipse class="cls-125" cx="240.82" cy="392.51" rx="13.23" ry="4.22"/><path class="cls-124" d="M280.06,391.8a31.68,31.68,0,0,0-9.07-1.17,32.18,32.18,0,0,0-9.11,1.17h-4.12v2.85h.06c0,.06-.06.13-.06.19,0,2.33,5.93,4.22,13.23,4.22s13.13-1.89,13.13-4.22v-3Z"/><ellipse class="cls-125" cx="270.99" cy="391.8" rx="13.23" ry="4.22"/><path class="cls-124" d="M283,386.89a32,32,0,0,0-9.06-1.17,32.62,32.62,0,0,0-9.12,1.17H260.7v2.86h.06c0,.06-.06.12-.06.19,0,2.33,5.92,4.21,13.23,4.21s13.12-1.88,13.12-4.21v-3.05Z"/><ellipse class="cls-125" cx="273.93" cy="386.89" rx="13.23" ry="4.22"/><path class="cls-124" d="M248.44,386.77a32,32,0,0,0-9.06-1.17,32.49,32.49,0,0,0-9.11,1.17h-4.12v2.86h.06c0,.06-.06.12-.06.19,0,2.33,5.92,4.21,13.23,4.21s13.13-1.88,13.13-4.21v-3.05Z"/><ellipse class="cls-125" cx="239.38" cy="386.77" rx="13.23" ry="4.22"/><path class="cls-124" d="M252.4,382.88a32,32,0,0,0-9.06-1.17,32.62,32.62,0,0,0-9.12,1.17h-4.11v2.86h.06c0,.06-.06.12-.06.19,0,2.33,5.92,4.21,13.23,4.21s13.12-1.88,13.12-4.21v-3.05Z"/><ellipse class="cls-125" cx="243.34" cy="382.88" rx="13.23" ry="4.22"/><path class="cls-124" d="M250.75,377.15a32,32,0,0,0-9.06-1.17,32.49,32.49,0,0,0-9.11,1.17h-4.12V380h.06c0,.07-.06.13-.06.19,0,2.33,5.92,4.22,13.23,4.22s13.13-1.89,13.13-4.22v-3Z"/><ellipse class="cls-125" cx="241.69" cy="377.15" rx="13.23" ry="4.22"/></g></svg>