<svg xmlns="http://www.w3.org/2000/svg" xmlns:xlink="http://www.w3.org/1999/xlink" viewBox="0 0 1334 1000"><defs><style>.cls-1,.cls-54,.cls-58{fill:none;}.cls-2{isolation:isolate;}.cls-3{fill:#f2ead4;}.cls-4{fill:#131110;}.cls-42,.cls-5,.cls-7{mix-blend-mode:multiply;}.cls-12,.cls-5,.cls-7{opacity:0.43;}.cls-12,.cls-6,.cls-7{fill:#b4574e;}.cls-8{fill:#513730;}.cls-9{fill:#5b3e35;}.cls-10{fill:#e35735;}.cls-11{fill:#795b54;}.cls-12{mix-blend-mode:color-dodge;}.cls-13{fill:#e56f64;mix-blend-mode:screen;}.cls-14{fill:#a86e57;}.cls-15{fill:#062f42;}.cls-16{fill:#5f8f9d;}.cls-17{fill:#231f20;}.cls-18,.cls-20{fill:#151210;}.cls-18{stroke:#231f20;stroke-width:1.24px;}.cls-18,.cls-54,.cls-58{stroke-miterlimit:10;}.cls-19{fill:#502e27;}.cls-21{fill:#1d1710;}.cls-22{fill:#663b2c;}.cls-23{fill:#0f0a09;}.cls-24{fill:#f1eef6;}.cls-25{fill:#13110f;}.cls-26{fill:#512a5f;}.cls-27{fill:#c3a5cb;}.cls-28{fill:#281639;}.cls-29{fill:#84553d;}.cls-30{fill:#010101;}.cls-31{fill:#181615;}.cls-32{fill:#191716;}.cls-33{fill:#040404;}.cls-34{fill:#331741;}.cls-35{fill:#1c5730;}.cls-36{fill:#e0e1e0;}.cls-37{fill:#fff;}.cls-38{fill:#263338;}.cls-39{clip-path:url(#clip-path);}.cls-40{fill:#d1eef4;}.cls-41,.cls-42{fill:#84b359;}.cls-42{opacity:0.5;}.cls-43{fill:#734423;}.cls-44{fill:#fcf1d7;}.cls-45{fill:#3d2317;}.cls-46{fill:#b33d2d;}.cls-47{clip-path:url(#clip-path-2);}.cls-48{fill:#ed8f3d;}.cls-49{clip-path:url(#clip-path-3);}.cls-50{fill:#cdacac;}.cls-51{fill:#008dc9;}.cls-52{fill:#e97537;}.cls-53{fill:#eae765;}.cls-54{stroke:#263338;stroke-width:0.5px;}.cls-55{fill:#5e4394;}.cls-56{fill:#dab549;}.cls-57{fill:#e1192c;}.cls-58{stroke:#cdacac;stroke-width:0.8px;}</style><clipPath id="clip-path"><path class="cls-1" d="M732.21,607.28S660,575.58,535.06,575.51L507.32,873.86l69.24,1.49c21.78-1,52.35,1.38,82.8,4.62l48.2,2.56Z"/></clipPath><clipPath id="clip-path-2"><path class="cls-1" d="M756.31,612.19s84.43-20.27,202.87-.3l-20.8,299.89L878.76,903c-27.33-3.09-58.91-5.86-85.46-9.07l-57.22-4.66Z"/></clipPath><clipPath id="clip-path-3"><path class="cls-1" d="M864.58,838.62a3.34,3.34,0,0,1-1.73-6.44,14.21,14.21,0,0,0,2.22-1.86,20.67,20.67,0,0,1,3.38-2.77,51.21,51.21,0,0,1,14.9-5.61,53.76,53.76,0,0,1,13.47-1c1.61,0,3.26,0,5,0,6.26-.16,13.57-2.47,14.83-7.17.88-3.26-.08-7.16-2.23-9.06a3.34,3.34,0,1,1,4.43-5c4,3.58,5.8,10.08,4.26,15.81-2.31,8.61-12.82,11.91-21.12,12.12-1.81,0-3.54,0-5.23,0a47.71,47.71,0,0,0-11.9.85,44.25,44.25,0,0,0-13,4.85,15.71,15.71,0,0,0-2.19,1.87A13.58,13.58,0,0,1,865,838.5,2.6,2.6,0,0,1,864.58,838.62Z"/></clipPath></defs><g class="cls-2"><g id="Layer_1" data-name="Layer 1"><polyline class="cls-3" points="1353.11 1028.11 1353.11 -5.6 -85.36 -11.03 -43.33 1040.34"/><path d="M826,218.47c12.86,0,10.27-16.55,11.94-18s1.47-10.39.22-12.22c-2-2.89-1.23-4-1.51-7.5,2.23-3.87,2.6-2.16,3.47-6.54.7-3.54.2-6.19-3.19-7.44,1.58-2.17-1.36-.65-.06-1.19a6.37,6.37,0,0,0,2.79-9.56c-3.27-4.66-4.13-.93-3.57-4.77,2.24-1.17-3.63-2.24-1.59-4.35,1.68-1.73,1.37-4.89-.2-6.71-1.79-2.08-1.86-3.92-2.31-6.72-.4-2.47-5.29-2-4.19-4.26,2-4.08-2.45-8.25-6.32-10.63,1.72-1.67-.74-1.65.13-3.88s.59-5.1-1.3-6.57c-1.16-.9-4.64-.51-4-1.82a8.43,8.43,0,0,0,.28-7.15,22.12,22.12,0,0,0-8.85-10.47,8.18,8.18,0,0,1-3.24-4.11c-.64-1.88-.61-4-1.65-5.7S799,76.42,798,78.16"/><path class="cls-4" d="M825.1,219.67c4,0,8.08-1.34,10.68-4.52a17.18,17.18,0,0,0,3.23-8.31c.33-2.06.62-4.17.91-6.23.05-.36-.11.21,0-.06-.32.62.17-.15.34-.38a5.45,5.45,0,0,0,.78-2.1,23.07,23.07,0,0,0,.29-5.75,10.53,10.53,0,0,0-1.1-4.92A7.51,7.51,0,0,1,839,184c-.1-1.28,0-2.57-.1-3.85l-.17.6a39.06,39.06,0,0,1,2.33-3.2,9.62,9.62,0,0,0,1.36-4,8.41,8.41,0,0,0-.22-4.77,5.88,5.88,0,0,0-3.47-3.05l.27,1c.67-1,1.07-2.1-.46-2.36a5.15,5.15,0,0,0-3.81,1c-1.24,1.13.43,1.64,1.46,1.46,4.31-.79,7.9-5.06,6.63-9.52a8,8,0,0,0-3.84-4.8,5.21,5.21,0,0,0-.94-.32c-.46-.12,0,0,0,0,.37,0,0,.32.12-.09a10.08,10.08,0,0,0,.15-1.23l-.87.89c.86-.49,1.89-1.37,1.1-2.36-.53-.68-1.45-1-2-1.64s.61-1.59.95-2.46a6,6,0,0,0-.41-5c-.4-.73-1-1.3-1.42-2a8.24,8.24,0,0,1-1-2.57c-.31-1.4-.15-3.24-1.25-4.32-.89-.86-2.13-1-3.13-1.66-.24-.16-.43-.26-.45-.57s.21-.54.29-.72a5.12,5.12,0,0,0,.34-1.49c.33-4.3-4-7.54-7.26-9.54l.28,1a2.08,2.08,0,0,0,.76-1.9c-.13-.53-.61-.91-.64-1.48a15.15,15.15,0,0,1,.6-2.48,7.08,7.08,0,0,0-.29-3.17,4.67,4.67,0,0,0-3.8-3.12c-.32-.07-1.52-.1-1.68-.35,0,0,.78-2,.86-2.38.86-4.35-1.89-8.83-4.75-11.88a40.73,40.73,0,0,0-5.22-4.32c-2-1.52-2.71-3.48-3.18-5.85s-1.17-4.53-3.59-5.35c-2.19-.76-5.39-.19-6.72,1.86-.55.86.49,1.19,1.19,1.19a3.84,3.84,0,0,0,3-1.19c.43-.66-.83.12-1,.19s-.43-.21,0,.07c.24.14.51.21.74.37a4,4,0,0,1,1.42,2.32C801.87,83,802,85,803,86.69s2.66,2.76,4.27,4a24.87,24.87,0,0,1,4.19,4c2.44,3,4.52,7.19,3,11.06-.21.55-.65,1.11-.39,1.71s1,.79,1.6.94c1.23.31,2.41.22,3.25,1.3a4.88,4.88,0,0,1,.9,2.89,12.72,12.72,0,0,1-.6,2.88,2.56,2.56,0,0,0,.3,1.84c.33.64.42.69-.13,1.27-.4.42-.09.81.28,1,2.2,1.37,4.61,3.23,5.77,5.62a4.82,4.82,0,0,1,.43,3.45c-.22.79-.73,1.42-.32,2.24.7,1.37,2.72,1.3,3.74,2.31.71.71.62,2,.78,2.95a10,10,0,0,0,1.09,3.37c.62,1.09,1.54,1.91,1.93,3.13a4.63,4.63,0,0,1-.11,3.45c-.38.75-1.18,1.21-1.17,2.14a2.21,2.21,0,0,0,.88,1.56c.46.4,1,.68,1.44,1.1,0,0,.18.23.23.24-.1,0,0,0,0,0s.27-.53.37-.49c-.33-.15-.83.84-.89,1.05a4.12,4.12,0,0,0-.11,1.91c.22.62.78.7,1.33.86.1,0,.3.12,0,0a2.35,2.35,0,0,1,.43.19,5.6,5.6,0,0,1,1.08.92,7.06,7.06,0,0,1,2,3.73,5.71,5.71,0,0,1-.62,3.58,4.85,4.85,0,0,1-1.1,1.37c-.62.51-1.69.62.09.29l1.46,1.46c-.92.47-1.19.63-.82.48a2.88,2.88,0,0,1-2.25,0c-.06-.31-.11-.35-.15-.11a2.65,2.65,0,0,1-.26.39.63.63,0,0,0,.28,1c2.67,1.05,3.29,3.34,2.88,6a10.49,10.49,0,0,1-.92,3.48A18.12,18.12,0,0,1,835.7,179a8.24,8.24,0,0,0-1.13,1.74,5.38,5.38,0,0,0-.1,2.12,14.16,14.16,0,0,0,.25,3.62,25.59,25.59,0,0,0,1.44,2.87,10.27,10.27,0,0,1,.58,2.8,20.67,20.67,0,0,1-.21,6.75,9,9,0,0,1-.35,1.15c-.19.5.13-.27-.36.45a3.55,3.55,0,0,0-.53,1.17c-.71,2.82-.6,5.8-1.37,8.64a12,12,0,0,1-2.58,5.16,6.39,6.39,0,0,1-1.8,1.33,6.27,6.27,0,0,1-2.64.47c-.94,0-2.44.32-3,1.19s.46,1.2,1.18,1.2Z"/><g class="cls-5"><path class="cls-6" d="M721.49,529.74c-3.38,29.62-7.2,63.7-11.23,100.86V532.27Z"/><path class="cls-6" d="M703.52,693.71c-3.93,37.22-7.93,76.48-11.85,116.65V696.42Z"/><path class="cls-6" d="M686.91,859.79c-4.47,47.45-8.73,95.54-12.52,142.56v0l-3.8,5.41V861.36Z"/></g><path class="cls-7" d="M735.36,411.74a.06.06,0,0,1,0,0c-.88,1.63-29.32,55.14-42.75,184.19-13.63,131.11-50.37,475.79-51.44,509.89-1.24,39.38,19.52,51.28,25.15,6.78q-1.35,21.48-2.53,42.12-.54,9.45-1,18.88l-33.42,1.74s-3.72,0,18.6-285.48c18.49-236.39,49.71-415.16,59.89-469.64.1-.5.2-1,.28-1.5.26-1.32.49-2.55.7-3.72l.08-.39c.18-.86.33-1.66.46-2.43s.34-1.65.47-2.38c.1-.5.18-1,.28-1.41.13-.66.23-1.25.34-1.78s.18-.93.26-1.3.1-.48.12-.68.11-.53.16-.73c.13-.62.18-.92.18-.92Z"/><path class="cls-8" d="M1078.78,1427c4.55,192.71,23.37,333.91,23.37,333.91l-27.73,10.35s-12-30.73-22.81-128.46a.41.41,0,0,1,0-.16c-8.14-73.72-15.66-185.55-16.84-351-2.74-377.5,78.1-825.84,81.27-844.92,0-.08,0-.15,0-.22a2.18,2.18,0,0,1,0-.35l24.17,1.17s-37,375.85-55.21,680.57c-1,17.38-2,34.39-2.9,50.93C1077.41,1266,1077,1350.56,1078.78,1427Z"/><path class="cls-9" d="M712.12,488.68s51.14,5.55,163.64,6.34S1071,487.88,1071,487.88l-4.65,105.06s-73.92,2.78-196.65,2.78S710.26,545,710.26,545Z"/><path class="cls-10" d="M693.52,640.12s51.14,5.55,163.64,6.34,195.25-4.76,195.25-4.76l-4.65,58.68s-73.91,2.78-196.64,2.78-159.45-6.74-159.45-6.74Z"/><path class="cls-10" d="M672.49,805.06s52.21,5.55,167.08,6.34,198,.53,198,.53l-4.75,58.68s-79,1.45-203.83-1.85c-125.25-3.32-158.37-7.4-158.37-7.4Z"/><path class="cls-11" d="M1057.06,1598c11.16,128.62,17.36,173.31,17.36,173.31l-47.11-6.54a1,1,0,0,0,0-.2,5,5,0,0,0,0-.55c-2-14.69-31.35-244-26-501.76.41-19.93,1.18-41.69,2.24-64.91,1.42-30.8,3.36-64.14,5.68-99.15,19-285.82,64.36-638.69,65.94-652.44a2,2,0,0,0,0-.37l40.91.81s-42.3,448.16-56.25,600.22c-3.77,41.26-6.53,91.26-8.32,144.81-1.31,38.76-2.09,79.4-2.4,119.91C1048.36,1420.8,1051.12,1529.53,1057.06,1598Z"/><path class="cls-12" d="M736.05,647.52s76.25,5.55,162.71,7.13,159-4,159-4-39,39.65-156.2,36.48S736.05,647.52,736.05,647.52Z"/><path class="cls-12" d="M714.34,810.78s76.07,7.1,162.47,10.44,159-.73,159-.73-40.15,38.85-157.18,33.29S714.34,810.78,714.34,810.78Z"/><path class="cls-13" d="M670.28,402.22S617,871.93,608.3,945.94c-4.55,38.84-11.16,90.49-16.43,130.82C614.44,794.57,670.28,402.22,670.28,402.22Z"/><path class="cls-14" d="M811.39,254.74s-18.56,51.53,12,121.08c3,6.8,36.15,20.49,36.15,20.49l-9.18,12c-7.93,10.38-74.81,62.76-86.49,68.6-58.12,29.09-91.65-1.46-121.83-36.27l13.29-25.92s9.49-9.69,10.71-18.36-13.73-74.61-13.73-74.61"/><path class="cls-14" d="M545.52,596C519.66,634.31,480,706.11,480,706.11l-165.09-86L289.3,680.76S428.57,843.22,493.69,846.2c32.51,1.49,69.66-33.93,83.87-53.07,7.63-10.28,32.53-71.09,75.17-128.94Z"/><path class="cls-15" d="M298.27,1080.82c2.5-.9,62.62-17.31,65.25-18.13,65.75-20.58,88.7-40.84,154.45-61.71l17.63-51.16,408.63,8.07s-19.62,8.18,3.23,65.07c14.11,35.11,41.19,176.6-34.38,215.86q-19.25,10-35.89,19c-30.83,22.37-134.62,84.42-134.62,84.42l-84.16,481.69-30.81-.35a366.33,366.33,0,0,1-121.51-22.3l3-7.48,9.13-484.39c1.45-18.63-4.84-32.36-.19-50.17l-52.9,25.69,15.63,474.59-7.45,4.87c-29.15,19.08-86.49,15.39-120.7,16.76l-21.5,1.84c-10.79-74.74-18.17-136-28.95-210.79-12.72-88.15-49-179.5-61.78-267.64C227.57,1215.78,205.46,1114.36,298.27,1080.82Z"/><path class="cls-16" d="M534,949.82,475.83,975.5c6.36,34.62,112,53.37,150,49.61s98.21-3.5,150.63-11.66,192.15,84.76,192.15,84.76l7.14-59.51c1.93-28.22-12.58-55.91-18-83.68l-16.29-83.69,1.07-194.93-13.84.65,1.65,2.68,139.06-38.48s-16.21-88.21-38.5-146.2c-17.38-45.14-60.28-60.87-74.47-64.82L926.3,416.36s-64.12-29.43-67.4-29.64l-34.26-16.2c-17.93,29.21-60.13,87.11-104,87.24-22.15.07-55.79-.3-59.68-28.3a75.05,75.05,0,0,1,0-16.75c.18-2.11,1.84-7.63-.19-8.87s-14.65,6.14-17,7.19c-24.12,10.78-67.55,22.94-91.13,34.74-17,8.49-31,13.05-42.13,29.51-21.42,31.77-57.36,165.93-57.36,165.93l10.88,79.17c12.66,10,22.64,14,38.3,17.94l34,8.08L530.64,888Z"/><path class="cls-17" d="M340.31,540.43C339.2,528.05,329,514.74,315.84,517a34.52,34.52,0,0,0-9.1,3.41l-12.93,6.28c-3.92,1.9-7.91,3.85-11.07,6.76-5.75,5.29-8,13.17-7.78,20.59s2.65,14.54,5.05,21.55c2.21,6.43,5.45,13.79,12.51,15.27,4.16.87,8.52-.65,12.81-.66,3.84,0,7.51,1.17,11.29,1.7,12.89,1.77,26.88-5.19,32.77-16.3"/><path class="cls-17" d="M307.23,514.64c-1.12-12.38-11.32-25.69-24.47-23.41a35.23,35.23,0,0,0-9.1,3.41l-12.93,6.28c-3.92,1.91-7.91,3.86-11.07,6.76-5.75,5.29-8,13.18-7.79,20.6s2.66,14.54,5.06,21.55c2.21,6.43,5.45,13.78,12.51,15.26,4.15.87,16.33,4.52,19.76,7.1,10.29,7.77.56-6.58,4.34-6.06,12.88,1.78,26.88-5.18,32.77-16.29"/><path class="cls-17" d="M292.59,481c-1.11-12.38-11.31-25.69-24.47-23.41A35.17,35.17,0,0,0,259,461l-12.94,6.28c-3.92,1.91-7.91,3.86-11.07,6.76-5.74,5.29-8,13.18-7.78,20.6s2.65,14.54,5.06,21.55c2.2,6.42,5.45,13.78,12.5,15.26,4.16.87,8.52-.64,12.81-.66,3.84,0,7.51,1.18,11.29,1.7,12.89,1.78,26.88-5.18,32.78-16.29"/><path class="cls-17" d="M293.86,437.84c-1.11-12.38-11.31-25.69-24.47-23.41a34.81,34.81,0,0,0-9.09,3.41l-12.94,6.28c-3.92,1.91-7.91,3.86-11.07,6.76-5.74,5.29-8,13.18-7.78,20.6S231.16,466,233.57,473c2.2,6.43,5.45,13.79,12.5,15.27,4.16.87,8.52-.64,12.81-.66,3.84,0,7.51,1.18,11.29,1.7,12.89,1.77,26.88-5.18,32.77-16.29"/><path class="cls-17" d="M308.51,407.65C307.4,395.27,297.2,382,284,384.24a34.46,34.46,0,0,0-9.09,3.41L262,393.93c-3.92,1.9-7.91,3.85-11.07,6.76-5.74,5.29-8,13.17-7.78,20.59s2.65,14.54,5.06,21.55c2.2,6.43,5.45,13.79,12.5,15.26,4.16.88,8.52-.64,12.81-.65,3.84,0,7.51,1.17,11.29,1.69,12.89,1.78,26.88-5.18,32.78-16.29"/><path class="cls-17" d="M342.66,382.93c-1.11-12.38-11.32-25.69-24.47-23.41a34.87,34.87,0,0,0-9.1,3.41l-12.93,6.28c-3.92,1.9-7.91,3.85-11.07,6.76-5.75,5.29-8,13.18-7.78,20.6s2.65,14.53,5.05,21.54c2.21,6.43,5.45,13.79,12.51,15.27,4.16.87,8.52-.65,12.81-.66,3.83,0,7.51,1.18,11.29,1.7,12.88,1.77,26.88-5.18,32.77-16.29"/><path class="cls-17" d="M413.78,382.56c-4.61-21.22-38.88-27.41-52-25.13-3.21.56-12-3.88-15.19-3.36-11,1.8-16.5,7-20.81,9.1-3.92,1.91,0,1-3.2,3.94-5.74,5.29-8,13.18-7.78,20.6s2.65,14.54,5.06,21.55c2.2,6.42,5.45,13.78,12.5,15.26,4.16.87,8.52-.64,12.81-.66,3.84,0,7.51,1.18,11.29,1.7,12.89,1.78,26.88-5.18,32.77-16.29"/><path class="cls-18" d="M265,554.35c8.82,10.87,19.16,21.51,32.1,27.35,13.24,6,28.14,4.33,42.1,2.15,27.2-4.25,53.7-15.1,74.34-33.61a114.24,114.24,0,0,0,37.33-73.71,157.67,157.67,0,0,0-5.63-60.81c-.7-1.19-1.38-2.43-2.1-3.57-21.33-33.35-42.87-44-80.53-43.3-23.18.18-36.86-6.4-69.07,13.45-6.94,4.28-13.39,14.19-22.09,20.7-13.1,9.81-26.5,25-30.26,38.19-7.13,25.2,2.23,58.15,5.76,86C251.7,536.87,258.08,545.77,265,554.35Z"/><path class="cls-14" d="M423.2,589.83c-6.22.28-12.39,1.76-18.61,1.19-7.36-.67-13.18,3-20.46,1.7-6.89-1.23-13.69-2.44-20.19-5.13-10.18-4.22-19.19-10.58-28.51-16.37.15.93.27,1.73.35,2.37,1.37,11.49-1.32,22.94-6.58,33.24l.44,3.27c26.06,38.48,41.39,60.72,124.15,34l-29.1-37.8Z"/><path class="cls-14" d="M458.64,484.9c-1-5.06-2.23-10.93-3.73-18-.44-2-.92-4-1.4-5.95a17.86,17.86,0,0,1-.77-3c-9.13-34-24.64-49.34-24.64-49.34a77.48,77.48,0,0,0-74.93-19.31c-31.49,8-55.54,33.94-65.91,56.78a50.52,50.52,0,0,0-2.26,36c3.14,10.15,7.2,16.76,12.59,27.32-11.17,2.07-21.08,8.57-12.3,28,12.12,26.8,31,31.55,39.09,21.12,4,1.26,9.27,11.42,12.6,19.16,6,2.2,12,4.7,18,7s12.21,9.19,18.53,10.2c6.79,1.09,13.54-.41,20.4-.54,14.05-.25,12.52,3.15,41.38-4.51,30.59-8.11,36.72-57.25,33.62-83.54C467.56,495.16,461.59,491.13,458.64,484.9Z"/><path class="cls-19" d="M423.11,592.55s-30.24,7-60.47-7c0,0,3.84,7.36,24.47,11.38a101.92,101.92,0,0,0,36.75.63Z"/><path class="cls-20" d="M313.35,523.09c-.08-.16-.82-7.21,1.56,1.07,1.2,4.16-6.83-8.36-10.75-10.42a23.49,23.49,0,0,0-12.4-3c-3.06,0-9.29,6.19-11.95,7.71-.43.33,2.5-4.81,2.07-4.48-13.24-22.18-21.34-41.12-10.95-74.78,3-9.7,14-22.28,17.38-26.27,20.3-24,42.06-30.63,69.88-34.56,32.23-4.54,66.37,1.72,81.34,31.76,3.61,7.24,4.88,10.34,6,18.34a38.72,38.72,0,0,0-23.47-20.87c-17.38-5.38-17,3-38.35,8.67-24.78,6.5-36.24-5-53.68,10.23-5.57,4.89-10.95,10.33-14.85,16.68-3.63,5.91-4.26,13.19-5.37,19.94s-.1,13.33,1,20.12c1.29,7.66,2.59,15.34,5,22.74,1.85,5.72,4.87,13.18.23,18.41C314,526.71,316.23,523.36,313.35,523.09Z"/><path class="cls-17" d="M315.15,522.6a4.27,4.27,0,0,1-.14-1.19c0,.24,0-.13,0-.18v-.5a1.77,1.77,0,0,0,0-.32,1,1,0,0,1,0-.17,1.1,1.1,0,0,1-.52.72l-1.35.5-1.32-.45.07.11s.1.22.08.13c.05.2.23.57.32.83.32.91.48,1.93.86,2.81.12.28,0,.08.11-.16,0,0,2.87-1.18,2.79-.85l-.13-.1c-.09-.23,0,0-.15-.13s-.39-.41-.57-.61c-1.92-2.16-3.65-4.48-5.58-6.63a25,25,0,0,0-3.12-3,18.92,18.92,0,0,0-5.22-2.61,25.11,25.11,0,0,0-8-1.38,9.64,9.64,0,0,0-5.06,1.26,39.9,39.9,0,0,0-5.2,3.66c-.82.66-1.64,1.33-2.47,2-.34.26-.67.51-1,.76-.14.1-.66.44-.56.39l2.17,0h0l.44.9c0,.15-.1.19,0-.07s.22-.46.34-.68c.29-.59.6-1.17.9-1.75.39-.76,1.45-2.23.42-2.91a2.31,2.31,0,0,0-2.18,0l0,0,2.43.26c-4.76-8-9.27-16.18-12.14-25.06a69.62,69.62,0,0,1-3-28.39,100.53,100.53,0,0,1,3.29-17A49.25,49.25,0,0,1,278,428.75a125.2,125.2,0,0,1,8.51-11.38c2.66-3.23,5.37-6.43,8.28-9.44a85.94,85.94,0,0,1,24.26-17.74,111.72,111.72,0,0,1,27.39-8.61c18.93-3.67,39.06-5.23,57.69.85a58.36,58.36,0,0,1,23.25,13.81,54.89,54.89,0,0,1,8.77,11.46,61.2,61.2,0,0,1,6.09,13.63,57.89,57.89,0,0,1,1.52,7.61l3.59-1a33.74,33.74,0,0,0-5.13-8.44,39.64,39.64,0,0,0-17.63-12.68c-6.32-2.24-13-3.27-19.33-.83-2.63,1-5.09,2.39-7.61,3.63A70.09,70.09,0,0,1,361.43,417c-6.56-.26-13.25-.8-19.63,1.16-8.22,2.52-14.76,8.61-20.53,14.75a49.68,49.68,0,0,0-9,12.24c-2.06,4.35-2.89,9.16-3.62,13.88-.41,2.68-.93,5.36-1.08,8.08a51.79,51.79,0,0,0,.24,8c.56,5.47,1.59,10.92,2.59,16.33a118.88,118.88,0,0,0,3.85,15.66c1.3,4,3,8.27,2.29,12.52a8.89,8.89,0,0,1-.9,2.69,7.8,7.8,0,0,1-.83,1.23c0,.07-.55.52-.56.63s-.79,0,.57-.21l1.37,0c.65.23.74,1,.58.1a2.62,2.62,0,0,0-.34-1,3.26,3.26,0,0,0-2.48-1.34,2.33,2.33,0,0,0-2.34,1.1c-.37.83.33,1.4,1.09,1.51.41.06.41.27.48.66.12.63.21,1.07.89,1.34,1.78.72,3.32-1.14,4.21-2.39,2.61-3.69,2.32-8.24,1.24-12.42-1.22-4.75-3-9.32-4.09-14.11-1.27-5.5-2.19-11.08-3.1-16.65s-1.61-11.22-.84-16.86a87.33,87.33,0,0,1,2.83-14.82c1.56-4.87,4.54-9,7.86-12.84A79.92,79.92,0,0,1,333,425.83a29.26,29.26,0,0,1,9.43-5.17,33,33,0,0,1,9.32-1.27c7.34-.08,14.61.77,22,0a76.2,76.2,0,0,0,25.65-7.68c5-2.49,9.28-5,15-4.41a36.91,36.91,0,0,1,21,9.86,40.35,40.35,0,0,1,5.64,6.73c.59.88,1.14,1.79,1.66,2.72.19.34.37.69.55,1s.09.16.3.61c.1.23.2.45.29.68.64,1.61,3.84.75,3.59-1a51.4,51.4,0,0,0-4.23-14.63,70.49,70.49,0,0,0-8-13.63,58.06,58.06,0,0,0-22.43-17.22c-18.4-8.16-39.34-7.85-58.85-4.79a144.11,144.11,0,0,0-29.67,7.45,87.87,87.87,0,0,0-25.89,15.54,136.69,136.69,0,0,0-19.16,21.12A78.88,78.88,0,0,0,271,434.66c-2.49,5.13-3.78,11-4.88,16.53a76.33,76.33,0,0,0-.13,31.14c2,9.24,6,17.87,10.62,26.09,1.19,2.13,2.42,4.24,3.67,6.34.44.74,1.82.59,2.44.26h0l-2.17,0h0l-.44-.9c0-.16.1-.2,0,.07s-.22.46-.34.68c-.29.58-.6,1.16-.9,1.75-.39.75-1.45,2.22-.42,2.9a2.31,2.31,0,0,0,2.18,0,34.57,34.57,0,0,0,5.1-3.79c1.61-1.27,3.52-2.93,5.36-3.58a2.77,2.77,0,0,1,1-.14,14.49,14.49,0,0,1,2.79.19,22.12,22.12,0,0,1,5.2,1.29,14.31,14.31,0,0,1,5.21,3.31c2.56,2.63,4.61,5.71,7.16,8.34,1.06,1.09,2.87,1.86,4.07.35a1.74,1.74,0,0,0,.27-1.62,18.28,18.28,0,0,0-1.18-3.6,2,2,0,0,0-2.05-1.45,2.21,2.21,0,0,0-2.14,1.78,6.93,6.93,0,0,0,.17,3C312.14,525.2,315.71,524.2,315.15,522.6Z"/><ellipse class="cls-17" cx="446.38" cy="478.48" rx="6.93" ry="6.9" transform="translate(-36.38 920.22) rotate(-89.45)"/><path class="cls-20" d="M451.71,471.72a18.74,18.74,0,0,0-13.74-.21c-10.22,3.34-13.39,16.77-13.39,16.77s5.06-9,15.06-12.6a35.61,35.61,0,0,1,16.92-.92C456.23,473.79,454,472.61,451.71,471.72Z"/><path class="cls-17" d="M293.72,536.91c-1.81-2.91-3.12-6.43-2.59-9.91,0-.3.14-.6.19-.9s.13,0-.06,0c.15,0,0,0,0,0a3.69,3.69,0,0,0,.4-.29c2.41-1.63,5.57-1.08,8.07.65,3.53,2.44,6,6.41,7.9,10.13l1.5-.67a6.29,6.29,0,0,0-4.22-.43c-1.76.57-2.18,2.25-1.95,3.91.63,4.66,5.45,6.07,9.5,5.56.88-.11,1.34-1.23.19-1.08-3.28.41-6.84-.57-7.84-4.08-.24-.84-.55-2.71.35-3.29a2.51,2.51,0,0,1,1.71,0c.24,0,.47.13.71.2l.23.09c.32.13,1.84,0,1.5-.67-2.75-5.24-7.26-12.66-14.12-12.46-1.73.05-5.15.8-5.65,2.83-.95,3.83.6,7.93,2.6,11.14.35.56,2,0,1.54-.7Z"/><path class="cls-21" d="M369.65,495.79a6.91,6.91,0,1,0,4.43-6.79A6.92,6.92,0,0,0,369.65,495.79Z"/><path class="cls-20" d="M393.52,496.22s-9.22-12.74-24.35-8.87c-12.88,3.3-16.15,10.89-18,15.56a39.16,39.16,0,0,1,18.72-11.75C381.12,487.89,393.52,496.22,393.52,496.22Z"/><path class="cls-22" d="M422.76,540.15c-9.72,2.24-27.89,5-27.89,5s6.73,26.38,33.58,19.75c22.45-5.54,16.09-29,16.09-29S432.48,537.92,422.76,540.15Z"/><path class="cls-23" d="M422.86,540.13C418.24,541.19,401,545,401,545s8.43,13.89,25.14,10c18.12-4.17,15-18.13,15-18.13Z"/><path class="cls-24" d="M423.45,541.8c-4.62,1.06-18.86,3.55-18.86,3.55s6.19,3.7,20.05.51,17.17-8.93,17.17-8.93Z"/><path class="cls-22" d="M445.66,534.09c-.11-.5-1.16-.49-3.5-.15-3.9.57-5.46-.51-8.28-.08-4.81.74-7.4,3.23-9.46,3.7s-5.47-.63-10.12.81c-2.73.84-11,3.78-14.77,5-2.25.71-5.13.47-5.6.7-.64.32,4,5.83,29.9-.12S445.81,534.77,445.66,534.09Z"/><path class="cls-25" d="M386.05,469.51c0-.24-.85-.12-.88-.37-13.35-.82-23.13.7-26.57,2a24.74,24.74,0,0,0-7.26,4.54s-6.16,5.26-6.71,7,4-1.56,4-1.56a20.75,20.75,0,0,1,2.75-1.46c5.87-2.12,11.33-5,17.57-5.31,5.33-.28,12.94,1.62,18.31,2.74C387,474.49,386.15,472.15,386.05,469.51Z"/><path class="cls-25" d="M418.83,464.32c-.08-.23.61-.45.54-.68,10.13-6,18.42-8.43,21.65-8.56a20,20,0,0,1,7.54,1.29s3,.23,4.18,1.6.13,2.31.13,2.31a16.19,16.19,0,0,0-2.75-.26c-5.47.38-10.93-.14-15.93,2.05-4.3,1.85-9.49,6.55-13.24,9.68C420.11,469.22,419.82,466.77,418.83,464.32Z"/><path class="cls-25" d="M418.14,525a20.51,20.51,0,0,0,7.53-.2,25.32,25.32,0,0,0,7.33-2.49c3.07-1.69,5.47-5.78,3.21-9-.62-.87-1.37-1.65-2-2.46a25,25,0,0,1-2.57-3.68c-.22-.4-1.45,0-1.17.51a34.05,34.05,0,0,0,3.88,5.21,4.85,4.85,0,0,1,1.47,4.08c-.67,4.35-5.11,5.89-8.84,6.82a19.27,19.27,0,0,1-8,.48,1,1,0,0,0-.9.24c-.16.19-.16.45.14.5Z"/><path class="cls-25" d="M404.89,519.24a2.52,2.52,0,0,0-2.24,2.09,7.57,7.57,0,0,0,.31,3.47,3.86,3.86,0,0,0,2.13,2.62,8.89,8.89,0,0,0,4.93.32c2.13-.35,3.59-1.86,5.48-2.74.15-.07.38-.19.16-.3s-.7.08-.89.17c-1.36.63-2.49,1.73-3.9,2.27a6,6,0,0,1-2.15.28,6.08,6.08,0,0,1-2.16-.31c-2-.75-2.65-3-2.72-4.94a4.57,4.57,0,0,1,.19-1.6,2.62,2.62,0,0,1,.31-.6,1.48,1.48,0,0,1,.25-.25c.09-.06.07-.05.05,0,.13,0,.75-.15.75-.34s-.37-.12-.5-.1Z"/><path class="cls-26" d="M355,970.75s-15.83,74.94,33.1,80.28c10,1.65,149.88,5.83,149.88,5.83l49-20.66,68.62-59.78c4.06-3.53-21.17-31.38-24.67-34-7.34-5.57-14.77-12.06-23.41-15.24-19-7-55.35-19.33-74.64-25.5-31.62-10.12-46-21.95-42.16-18.59,12.06,10.43-65.48,61.65-65.48,61.65Z"/><path class="cls-27" d="M495.71,763.18s-3.79,12.41-5.71,31.61c-1,9.74-1.68,19.61-2.18,29.23-18.32.88-36.58,6.2-54.82,7.78-26.32,2.29-52.47-1-78.43-5.15-35.1-5.64-69.11-14-101.93-26.5,5.35-29.08,10.16-61.24,10.16-61.24,2.94-11.38-5.53-25.52-5.53-25.52l-26.15-36.07c2-17.84,26.69-36.24,54.51-53.82,5.86-3.71,40.1-24.54,47-24.65,0,0,27.72,41.92,70.54,44.84,43.39,2.95,21.49-37.37,21.49-37.37s46.39,21.34,62.85,38.41c23.52,24.4,13.06,91.12,13.06,91.12Z"/><path class="cls-26" d="M268.38,838.06c2.2-3,5.62-12.42,9.41-24.35,30.65,15.11,62.85,26.67,96.12,35.72,25.8,7,50.26-1.45,77-.1,19.41,1,41.72,11.14,61.38,12.31-4.37,33.6,4.23,52.12,4.23,52.12s23.43,31,6.55,48.79c-45.09-13.43-139.49,44.26-185.44,38.25-43.89-5.74-32.89-55.12-74.42-69.56.86-8.76,13-37.08,13.8-40.81C286.45,846.75,268.38,838.06,268.38,838.06Z"/><path class="cls-27" d="M498.25,692.65c.84,12.19-17.46,80.59-17.46,80.59s28,9.76,47.13-22.14a533.68,533.68,0,0,1-13-56c-5.57-33-21.56-44-33.82-55.28s-38.56-19.71-38.56-19.71"/><path class="cls-14" d="M1046.25,929.31c-26.44-10.06-50.46-13.59-69.78-37.32-.62-2.37-5.59-39.69-6.51-43-1.3-4.67-13-50.62-14.12-56.49-5.74-28.81-17.52-58.78-18.15-73.53l131.13-50.9c15.52,61.58,17.52,103.91,28.42,145.95,8.48,32.72,6.88,97.9,5,123.06C1090.07,923.94,1063.79,936,1046.25,929.31Z"/><path class="cls-16" d="M1054.26,575.89l40.88,151.84s-24,20.12-66.09,27.66-102.62,8.14-102.62,8.14L889,622.85c-6-24.14-11.63-77.23-7.16-101.94,0,0,5.4-36.94,24.4-50"/><path class="cls-28" d="M895.8,474.84c-10.1,7-15.91,19.13-19.81,30.45a128.73,128.73,0,0,0-5.23,20.62c-2.13,12.81-1.85,26-1.18,38.91a417.19,417.19,0,0,0,4.63,44.34c.95,6,2,11.94,3.44,17.82.27,1.12.48,2.23.67,3.37l2.89,17,4.72,27.87L891.15,706l4.43,26.13L897.92,746l.1.63c.13.75,1.1.93,1.7.93h26.44c2.15,0,2.78-2.85.28-2.85H900l1.7.93L900.08,736l-4-23.55L891,682.3l-4.93-29.07-3.5-20.66c-.78-4.58-1.84-9.06-2.74-13.62a374.07,374.07,0,0,1-5.64-41.88c-1.17-14-1.88-28.18-.79-42.19A115.91,115.91,0,0,1,877,514.06c3-11.17,7.32-22.79,15-31.66a34.11,34.11,0,0,1,6.31-5.75,1.24,1.24,0,0,0,.17-2,2.35,2.35,0,0,0-2.65.2Z"/><path class="cls-19" d="M522.29,751.51c2.45,18.09,7,35.75,11.18,53.48,1.23,5.17,2.42,10.35,3.52,15.55.24,1.1,3.48.3,3.23-.86-3.78-17.83-8.69-35.41-12.12-53.31q-1.5-7.83-2.57-15.72c-.15-1.07-3.4-.34-3.24.86Z"/><path class="cls-28" d="M559.34,746.19A231,231,0,0,0,557.66,721c-1.15-10.39-2.61-20.74-4.14-31.08-3.18-21.55-6.8-43-9.37-64.69A246,246,0,0,1,542,596.39c0-1.62-3.7-.88-3.7.42A230.64,230.64,0,0,0,540,622c1.15,10.39,2.61,20.75,4.14,31.09,3.18,21.55,6.8,43,9.36,64.68a244.17,244.17,0,0,1,2.16,28.83c0,1.62,3.69.88,3.69-.42Z"/><path class="cls-29" d="M817.38,282.13c0,.16,0,.3,0,.45A.62.62,0,0,0,817.38,282.13Z"/><path class="cls-14" d="M729.09,392.84,678,401l-26.49-.72c-2.56.56-18.9-23.22-21.31-26.17C622.73,365,613,353,607.42,342.52c-5.95-11.2-15.53-20-20.18-34-3.41-10.24-4.91-17.59-2.68-35.82a24.59,24.59,0,0,0-2.25-13.43c-4.24-9.38-7.35-20.73-12.74-33.36-.42-1-2.63-5.76-2.45-7,0,0-13.27-54.51-7.26-76.15s19-33.6,32.77-40.21S649.55,90,649.55,90l57.29-20.21,55.07,14.8,37.6,55.82,10.43,71.4,5,64.64"/><path d="M792.15,210c.79,5.52-.64,34.12-.2,39.57l28.15-6.15C824.91,223,830.78,198.9,833,193.24c3.5-8.84-18.67-44.86-21.2-59.24l-.54-3.1c-2.4-13.8-19.84-33-46.68-51.4C718.43,47.86,720.24,47,661.83,63c-4,1.09-8,2.34-11.82,3.7-36.16,12.87-67.36,18.45-85,54.32-12.68,25.86-5.3-5-.77,10.43-5.08-31.1-5.95-4.46-3.47-8.72,14.51-25,15.76-3.37,24.65-6.54,7.75-2.75,26.63-2.52,27.91-2.28,9.45.24,17.94-2.64,27.21-5.94,6.91-2.46,18.3-12.79,19.77-13.44,4.15-4.29,2.13-19.35,10.71-22.41,19.94-7.1,49.79-3.59,60.61-.94,12.79,3.13,43.15,9.41,45.46,41.6"/><path d="M655.7,392.5a2.28,2.28,0,0,0,.88-.54c4.67-4.66,4.69-6.75,7.2-7.91a15,15,0,0,1,2.69-1.19c7.38-2.59,11.85-4.31,34.83,4.52.46.18,26.47-8.57,27-8.72l12.47-9.27c2-1.89,44.92-55.73,44.92-55.73.49-1.6,7.75-13.81,7.84-15.28a3.61,3.61,0,0,1,.44-.33l.3-.2.13.26a10,10,0,0,1,.42,1.8,31,31,0,0,1,.1,7.94c-.43,4.06-.34,8.11-.61,12.16-.1,1.44-.27,2.86-.48,4.28-5.15,4.84-33.13,59.5-52.35,74.36-1.31.64-5.43,2.75-16.87,6.06-21.5,6.23-42.61,10.44-65.39,8.51a19.74,19.74,0,0,1-14.57-8.35c-9.42-13.58-30.25-43.78-38.2-65.28,8.53,11.67,26.64,36.71,39.07,53.74.37.51,8.77-.7,9.5-.63"/><path class="cls-14" d="M802.8,286.84C823.07,306.3,827,265.73,827,265.73c11.85-22.49,7.51-42.85,4-56.66s-18.82-10.33-18.82-10.33c-12.71,4.18-17,12.39-18.59,58.58"/><path d="M603.66,101.32c21.14-4.5,74-30.07,102.39-37.51,11.77-3.08,57.1,18.67,63.56,24.38,14.8,13.08-5.55,53.74,24.4,98.82,9.89,14.89,13.77-15.33,24.35-6.38S833,193.24,833,193.24c-2.91-48.19-2.76-46.51-22.19-90.85s-73.76-54.6-99-53.71-102,23.94-121.27,37.94"/><path d="M690.23,225.66c2.86-2.38,7-1.75,9.48-.34a8.33,8.33,0,0,1,3.3,3.28,8.62,8.62,0,0,1-.32,8.1,8,8,0,0,1-8.64,3.53c-4.35-1-6.67-5.45-6.45-9.12a7.91,7.91,0,0,1,2.63-5.45"/><path d="M597.15,246.67c-3.6-1-7.06,1.3-8.77,3.64a8.35,8.35,0,0,0-1.62,4.36,8.62,8.62,0,0,0,3.66,7.23,8,8,0,0,0,9.33-.39c3.54-2.71,3.79-7.74,2-11a7.83,7.83,0,0,0-4.65-3.85"/><path d="M626.71,253s-15.85-10.17-25.57-9c-14.17,1.76-17,5.67-20.59,13.12,0,0,7.65-8.65,17.67-9.62C607.8,246.65,626.71,253,626.71,253Z"/><path d="M671.11,239.8s16.8-16.55,26.3-18.88c13.88-3.41,32.3,1.19,38.25,6.89,0,0-24.56-7.33-34.27-4.66C692.11,225.69,671.11,239.8,671.11,239.8Z"/><path d="M656.09,191.62q1.1,5,2.22,10c.56,2.53,1.67,8.35,2.25,10.87,7.51-3.89,14-8.67,19-10.71,9.83-4.06,19.73-8.93,30.44-9.59a35.52,35.52,0,0,1,14.45,1.66c1.48.52,5.77,3.25,7.52,1.92.72-.54-1.49-4.34-1.72-4.73-4.49-7.65-12.22-9.54-21.19-9.62-18.29-.18-35.72,4.1-52.93,10.23"/><path d="M564.68,214.72l5.56-2.43c15.45-6.83,31.78-9.2,48.59-9.77.58,3.35,1.15,6.7,1.72,10.07.44,2.56,1.38,7.14,1.8,9.69-7.77-.87-14.6-2.32-19.55-2.42-9.8-.19-20.15-.51-29.47,2.78-.73.26-4.7,1.74-5.4,2C564.08,220.56,563.46,215.68,564.68,214.72Z"/><path d="M694.88,349.44l-36.2,9.48s11.47,12.05,20.21,10.14C684.35,367.87,690.39,356.86,694.88,349.44Z"/><path class="cls-30" d="M649.38,305.22c4.56,1.29,10.67-.58,14.21-4.08.79-.78,3.95-.88,2.85.21-4.68,4.62-13.55,6.9-19.43,5.22-.58-.17-.58-.6,0-1a3.51,3.51,0,0,1,2.34-.39"/><path class="cls-30" d="M668,299.77a25.48,25.48,0,0,1,8.39-4.21,2,2,0,0,1,1.46.14c.31.18.43.49.13.76a9.71,9.71,0,0,1-4.62,2.21,1.92,1.92,0,0,1-1.64-.27c-.36-.37.08-.75.49-.84a7.69,7.69,0,0,0,3.73-1.79l1.6.9a22.64,22.64,0,0,0-7.49,3.79,1.93,1.93,0,0,1-1.67.17c-.37-.13-.82-.52-.38-.86"/><path class="cls-30" d="M680.22,297.5c3.57-.88,7.44-3.4,8.6-6.55,1.76-4.76-2.14-10.68-7.2-12.37-.55-.18-.38-.62.1-.83a2.93,2.93,0,0,1,2,0c4.41,1.47,8.1,6.2,8.37,10.25.25,3.78-2.63,7.08-6.69,9.08a19.84,19.84,0,0,1-3.86,1.43c-.54.13-1.56.18-1.92-.2s.09-.68.6-.8"/><path class="cls-30" d="M642.4,304.79a.49.49,0,0,0-.61-.6,4.2,4.2,0,0,1-3-.33l-.69,1.4a12.57,12.57,0,0,1,6.07.83,1,1,0,0,0,1.11-.43c.19-.25.34-.77-.06-.93"/><path class="cls-30" d="M645.23,304.73a14,14,0,0,0-6.79-.9,1.19,1.19,0,0,0-.86.65.53.53,0,0,0,.18.75"/><path class="cls-30" d="M635.05,306.91a7.53,7.53,0,0,1-7.21-3.09,11.24,11.24,0,0,1,.22-12.41.45.45,0,0,0-.34-.74,1.38,1.38,0,0,0-1.15.68A12.48,12.48,0,0,0,625,302.2a8.63,8.63,0,0,0,7,6.1,8.8,8.8,0,0,0,2.71,0c.36-.07,1-.37,1-.85s-.29-.6-.62-.54"/><path d="M586.27,113.23c1.28-1.6,3.6-2.52,5.77-3.35l2.27-1.25q10.7-2.25,21.51-3.85a15.6,15.6,0,0,1,5.39-.17l.53.14c5.26-1.24,10.53-2.42,15.83-3.47l2.55.17c2.32-.14,4.79-.25,6.56.56s2.23,2.89.28,4-5.47.6-6.72,2.13c-1.38,1.68,2.17,3.06,1.51,4.86-.42,1.13-2.26,1.84-3.37,2.8-1.32,1.15-1.53,2.65-2.74,3.85a7.56,7.56,0,0,1-5.46,1.85c-2,.56-4.82.28-5.19,1.78a2.47,2.47,0,0,0,.19,1.17,4.1,4.1,0,0,1-2.32,4.27,6.68,6.68,0,0,1-5.8.33c-1.6-.78-2.43-2.28-4.12-2.95a10.21,10.21,0,0,0-1.73-.48,5.09,5.09,0,0,1-1.65,1.46,6.68,6.68,0,0,1-5.8.33c-1.61-.77-2.43-2.28-4.12-3-1.42-.57-3.4-.55-4.26-1.58-1.35-1.64,1.31-4.6-.66-5.82-1.78-1.1-4.71.89-7,.56S585,114.83,586.27,113.23Z"/><path d="M698.39,391.15c-1.14,1.2-3.07,1.8-4.88,2.33l-1.91.86q-8.77,1.11-17.61,1.71a12.71,12.71,0,0,1-4.37-.21c-.14,0-.28-.1-.42-.15-4.32.66-8.65,1.27-13,1.77l-2.05-.3c-1.88,0-3.89-.11-5.26-.88s-1.61-2.48,0-3.21,4.45-.13,5.56-1.29-1.55-2.61-.9-4c.41-.88,1.95-1.33,2.9-2,1.14-.84,1.41-2,2.46-2.92a6.11,6.11,0,0,1,4.53-1.15c1.63-.32,3.91.09,4.3-1.1a1.81,1.81,0,0,0-.07-.95,3.31,3.31,0,0,1,2.15-3.3,5.4,5.4,0,0,1,4.7.12c1.24.72,1.81,2,3.13,2.65a10.5,10.5,0,0,0,1.37.49,4.23,4.23,0,0,1,1.43-1.07,5.4,5.4,0,0,1,4.7.11c1.24.73,1.81,2,3.13,2.65,1.11.55,2.71.66,3.33,1.55,1,1.41-1.35,3.63.16,4.74s3.86-.41,5.72,0S699.52,389.94,698.39,391.15Z"/><path d="M801.44,87.37c-1.06-2.51-5.73-14.53-6.79-17a6,6,0,0,1-8.54-3.53c-.41-1.75-.24-4-1.86-4.82s-3.42.94-5.24,1.18c-4.06.53-5.79-5.89-9.82-6.61-2.52-.44-5,1.57-7.51,1.23-3.84-.51-5.41-5.85-9.18-6.73-2.61-.61-5.25,1.18-7.92,1-5.78-.51-9.15-8.3-14.87-7.33-2.1.35-3.78,2.12-5.9,2.32-3.79.34,1.06-4.56-2.74-4.42-3.49.13-5.55,4.23-8.9,5.22-5.45,1.61-10.85-7-15.65-4-2.07,1.31-2.81,4.07-4.82,5.47-4.69,3.26-11.33-3.13-16.56-.84-2.62,1.15-4.09,4.24-6.82,5.11-4.25,1.34-8.58-3.44-12.89-2.31-3.43.89-5.31,5.21-8.84,5.65-2.46.3,3.06-3.49.57-3.4-4.23.15-6.49,5.26-10.42,6.86-3.29,1.35-7,0-10.54-.26s-9.81,7.76-9.29,11.28"/><path d="M803.69,86.76c-2.37-5.63-4.42-11.4-6.79-17-.49-1.16-2.27-1.16-3.22-.62a3.42,3.42,0,0,1-3.91-.66c-1.64-1.37-1.41-3.31-1.92-5.19-.67-2.42-2.87-3.37-5.25-2.89a22.8,22.8,0,0,0-3.21,1.17c-.5.18-.63.1-1.2-.26a20.08,20.08,0,0,1-3.37-3.4,8.56,8.56,0,0,0-4.57-2.82,9.06,9.06,0,0,0-3.7.19,25.75,25.75,0,0,1-3.5,1c-1.54.14-2.79-1.41-3.71-2.43a14.76,14.76,0,0,0-4.15-3.69c-2.39-1.18-4.93-.71-7.41-.08a5.82,5.82,0,0,1-5-.52,39.83,39.83,0,0,1-4.4-3.38c-3.28-2.66-7-4-11.09-2.26a26.93,26.93,0,0,1-3,1.52c-.24.06-.43,0-.11.11,0,0,.6.18.3.1.14,0,.08.06.07.14.12-1,.57-2.07.3-3-.49-1.85-3-1.82-4.47-1.56a12,12,0,0,0-5.64,3.09,16.73,16.73,0,0,1-2.31,1.81,2,2,0,0,1-1.29.38c-1.57-.08-3.08-1.09-4.39-1.87-3.22-1.92-6.68-4-10.49-2.32-2.22,1-3.38,2.84-4.73,4.72-1.07,1.48-1.78,1.88-3.43,1.65-4.08-.56-7.65-2.84-11.9-2a11.3,11.3,0,0,0-5.66,3.32c-1.22,1.18-2.25,2.6-4.1,2.25-2.1-.39-4-1.58-6-2.16a9.63,9.63,0,0,0-6.81.34c-1.94.88-3.36,2.41-4.92,3.79A11.67,11.67,0,0,1,647,55.32c.13-.08-.27.1-.22,0h-.08c1.05,0,1.57.31,1.57,1l0,.11c-.05.15-.05.15,0,0s.09-.15,0,0-.07.1,0,0c.63-.81,1.66-1.65,1.82-2.73.31-2.17-3-1.81-4.23-1.53a12.37,12.37,0,0,0-5.41,3.18c-1.34,1.21-2.59,2.77-4.24,3.59-2.2,1.08-5.13.11-7.42-.2a8.8,8.8,0,0,0-5.69.73,18.65,18.65,0,0,0-7.51,8.23,7.89,7.89,0,0,0-.93,4.27c.22,1.92,4.74.84,4.51-1.21a7.16,7.16,0,0,1,1.22-3.65A17,17,0,0,1,623.72,63a15.75,15.75,0,0,1,1.32-1l.42-.21c.63-.31-.26.11.11,0s-.49,0,0,0c-.56,0,.26,0,.45.06,2.78.27,5.52,1,8.34.73a12.08,12.08,0,0,0,6.49-2.86c1.49-1.25,2.76-2.78,4.36-3.89a3.64,3.64,0,0,1,.81-.47c-.22.09.42-.14.41-.13.63-.9-.13.54,0,0-.11.37-1.7-2-1-.69a1.13,1.13,0,0,1,0-.44s-.09.21-.12.22c-.2.08.09-.11-.08.1-.6.76-1.63,1.62-1.73,2.64-.2,2.1,3.06,1.61,4.21,1.26a14.36,14.36,0,0,0,5.39-3.63c1.12-1,2.14-2.07,3.75-1.8,2.1.34,4,1.55,6,2.15a9.63,9.63,0,0,0,6.87-.32c2-.94,3.32-2.64,5-4,2.65-2.26,6.56.06,9.57.8a12,12,0,0,0,6,.17,9.52,9.52,0,0,0,5.32-4.15,11,11,0,0,1,1.74-2.26,3.49,3.49,0,0,1,.56-.35c-.18.12-.34-.08,0,0-.27-.07.18,0,.26,0a11.65,11.65,0,0,1,4.16,1.93c3.38,2,6.88,3.78,10.84,2.24a18.85,18.85,0,0,0,5-3.43,7,7,0,0,1,1.83-1.27,1.26,1.26,0,0,1,.51-.08s-.26-.09-.28-.1c-.36-.09,0-.19-.13-.11,0,0,0,.25,0,0,0,.13,0,.26,0,.39l-.15.73a4.45,4.45,0,0,0-.16,1.66c.28,1.74,2.32,1.95,3.76,1.79a10.23,10.23,0,0,0,3.47-1.12,8.74,8.74,0,0,1,2.67-1.23c1.38-.16,2.85.86,4,1.67,3,2.2,5.51,5,9.34,5.64,2.51.42,4.68-.64,7.11-.94,1.75-.22,3,1.13,4.08,2.32a16.17,16.17,0,0,0,4,3.66c2.19,1.19,4.62,1,6.93.24a7.74,7.74,0,0,1,2.73-.69,3.56,3.56,0,0,1,1.89,1c1.25,1.06,2.18,2.44,3.37,3.56a6.75,6.75,0,0,0,5,2.14,9.15,9.15,0,0,0,3.24-.81,13.29,13.29,0,0,0,1.22-.54c.58-.32,0,.3-.11-.07,0,0,.46.43.45.41a6.28,6.28,0,0,1,.6,2.55,7.47,7.47,0,0,0,1,2.89,7.55,7.55,0,0,0,4.63,3.19,8.85,8.85,0,0,0,6.38-.79l-3.23-.62c2.38,5.63,4.43,11.4,6.8,17,.79,1.89,5.26.58,4.5-1.21Z"/><path class="cls-31" d="M739.5,64.77c21.73,4.31,31.33,10,44.8,27.6L660.81,72.53a105.52,105.52,0,0,1,24.7-7.06C707.46,62.44,717.77,60.45,739.5,64.77Z"/><path class="cls-20" d="M738.12,66c7,1.4,14.07,3.12,20.56,6.22a53.51,53.51,0,0,1,15.14,11.14,113,113,0,0,1,8.39,9.89l3.47-2.12-12.34-2L744,84.43l-35.78-5.74-30.81-5L667.19,72.1a35.9,35.9,0,0,0-4.79-.77l-.21,0-.49,2.17A119.69,119.69,0,0,1,678,68.1a161.91,161.91,0,0,1,16.26-2.63c8.86-1.22,17.74-2.25,26.7-1.77A122.25,122.25,0,0,1,738.12,66a3.87,3.87,0,0,0,3.19-.86c.67-.64.54-1.42-.43-1.61a117.74,117.74,0,0,0-30-2.32c-4.81.28-9.6.87-14.37,1.51-5.71.77-11.46,1.41-17.09,2.63a122.72,122.72,0,0,0-19.54,6.24c-.92.37-2.23,1.89-.49,2.17l12.34,2,29.39,4.72,35.77,5.75,30.82,5c5,.8,10,1.67,15,2.4l.21,0c.82.13,4.64-.6,3.47-2.12-4.44-5.78-9.24-11.41-15.06-15.86a56.78,56.78,0,0,0-17.54-8.87,119.54,119.54,0,0,0-12.92-3.22,3.88,3.88,0,0,0-3.19.86C737,65,737.16,65.8,738.12,66Z"/><path class="cls-31" d="M572.92,95.89c.52-.35,1-.71,1.51-1.09,2.48-2,7.65-8.62,4.81-10,.14-2.6,4.57-7,10.64-8,1.74-.28,3.5.31,5.27.29a7.56,7.56,0,0,0,5.51-2.67,18,18,0,0,1,10.91-5.92,19.3,19.3,0,0,0,5.88-1.81l43.36,5.88c-17.46,7-34.7,17.07-51.73,22.27A85.92,85.92,0,0,0,585,106.17c-4.75,3.31-10.7,6-15.32,9.59C570.7,109.13,571.74,102.5,572.92,95.89Z"/><path class="cls-20" d="M575,95.68a20.37,20.37,0,0,0,6.57-7.38c.47-.92,1.1-2.32.69-3.36-.19-.47-.66-.66-.67-1.13a3.72,3.72,0,0,1,.79-1.68A11.21,11.21,0,0,1,586,78.81a10.14,10.14,0,0,1,2.35-1.06,7.55,7.55,0,0,1,3.21,0,14.38,14.38,0,0,0,7.58-1.06c2.22-1,3.52-2.66,5.29-4.2a13.12,13.12,0,0,1,5.75-3.12,36.78,36.78,0,0,0,8.59-2.5l-3.14.61,14.62,2,23.34,3.17,5.39.73.59-1c-12.82,5.17-25,11.71-37.75,17.1-3,1.28-6.11,2.5-9.23,3.59s-6.24,2-9.31,3.08a88.18,88.18,0,0,0-17.58,8.48c-3,1.91-5.91,3.86-9,5.63a75.2,75.2,0,0,0-9.06,5.79l4.28-.82c1.06-6.63,2.11-13.26,3.28-19.87.1-.53-2.22-.06-2.41,0-.61.16-2,.46-2.1,1.21-1.17,6.61-2.21,13.24-3.28,19.87-.07.44,1.73.15,1.81.14a5.76,5.76,0,0,0,2.47-1c4.88-3.8,10.59-6.37,15.69-9.85a77.08,77.08,0,0,1,17-8.62c3.07-1.13,6.22-2,9.31-3.09s6-2.21,9-3.44c6.21-2.56,12.28-5.43,18.34-8.31,7-3.3,13.95-6.6,21.11-9.49.27-.11,1.61-.91.58-1L635.6,68l-14.41-2a8.43,8.43,0,0,0-4.76.25,20.66,20.66,0,0,1-3.33,1.2c-1.41.29-2.82.46-4.22.87a23.45,23.45,0,0,0-7.31,3.53,22.74,22.74,0,0,0-3,2.77,15.53,15.53,0,0,1-1.73,1.42c-.13.11-.52.13,0,.07a4.89,4.89,0,0,1-1.08,0,16.66,16.66,0,0,0-9.4.93A18.94,18.94,0,0,0,579.61,81,7.33,7.33,0,0,0,577,85.37l.13.14c1.8,1-.15,4-.88,5.09a19.47,19.47,0,0,1-5.34,5.51c-.86.59.76.64,1,.61A6.46,6.46,0,0,0,575,95.68Z"/><path d="M619,362.56c2.3,5.12,3.33,10.73,7,15-1.87,1-.51,3.93,1.29,5.05s4.21,2.28,4.12,4.39c0,.74-.4,1.43-.42,2.17,0,2.31,3,3.23,5.25,3.43-1.3,1.42.39,3.62,2.09,4.54s3.87,2.09,3.68,4c-.09.94-.8,1.82-.61,2.75.39,1.95,3.58,1.39,4.93,2.84.78.85.73,2.14,1.18,3.2a3.7,3.7,0,0,0,5.87.92c1.12,3.88,3.71,8.69,7.65,7.8,2.44-.55,4.38-3.32,6.8-2.71,1.5.38,2.41,2,3.83,2.56,4.82,2,8.61-8,13.42-5.93,2.58,1.1,3.2,5.19,6,5.62,2.61.41,4.32-2.86,6.87-3.58,2.77-.79,6.13,1.54,8.43-.2,1-.76,1.39-2.06,2.18-3,1.82-2.2,4.46.2,7.29.57,5.07.67,4.9-2.86,4.9-2.86.84-3.61,2.76-3.68,6.25-2.44,1.17.41,2.3,1.16,3.52,1,3-.37,3.54-5.5,6.55-5.74,1.11-.09,2.12.57,3.19.86,3.88,1,7.5-4.54,5-7.67a8.4,8.4,0,0,0,6.44-10.29c4.44.66,8.88-3.71,8.29-8.16,5.17.51,9.38-6.25,6.65-10.67,3.68.71,7.44-3.1,6.69-6.77-.39-1.89-1.61-4.14-.22-5.47.92-.88,2.39-.64,3.63-.87a4.83,4.83,0,0,0,2.89-7.2c5.1.38,8.47-7.23,4.77-10.75,4,.19,6.56-5.76,3.66-8.54,5.27-1.07,7.64-8.76,3.91-12.62l-50.36,73.34L727,397s-55,14.69-66.39,11.75S619,362.56,619,362.56Z"/><path class="cls-4" d="M616.76,363.16c2.28,5.16,3.46,10.92,7.2,15.31l.61-1.86c-2,1.27-2,3.45-.88,5.33s3.46,2.35,4.88,3.95c.88,1,.4,1.83.22,3a3.5,3.5,0,0,0,.76,2.82c1.38,1.65,3.89,2.15,5.91,2.35l-1-2.08a3.36,3.36,0,0,0,0,4.42c1,1.42,2.57,2,4,2.94a3.06,3.06,0,0,1,1.34,1.46c.24.78-.27,1.49-.46,2.23a2.83,2.83,0,0,0,1.87,3.45c1,.43,2.56.46,3.28,1.3a6.25,6.25,0,0,1,.73,2.22,4.31,4.31,0,0,0,1.07,1.85c2.43,2.4,6.82,1.87,9.07-.48l-4.11,0c1.33,4.44,4.25,9.62,9.67,8.72a10.49,10.49,0,0,0,3.67-1.49c.53-.32,1-.69,1.58-1,.1-.06.86-.3.55-.31.6,0,1.81,1.39,2.46,1.86a5.85,5.85,0,0,0,3,1.05c4.27.3,6.88-3.34,9.85-5.62a10.84,10.84,0,0,1,1-.69c-.08.05-.29.16.1,0,.6-.31-.41.08.22-.09.44-.13.09,0,0,0,.48-.05-.22-.14.25,0-.24-.09.11.05.13.06a2.59,2.59,0,0,1,.61.38c1.57,1.32,2.16,3.47,3.92,4.64,2.21,1.48,5.1.76,7.15-.64.88-.6,1.63-1.36,2.51-1.94a3.09,3.09,0,0,1,2.52-.2c2.77.48,5.66.87,8-1.18a6.87,6.87,0,0,0,1.25-1.49c.17-.26.94-1.22.94-1.53l.1-.13c-.62.15-.83.21-.61.18,0-.06.69.19.43.08.64.27,1.36.47,2,.71,3.39,1.22,9.68,1.31,10.6-3.31,0-.19,0-.39.07-.59a4.43,4.43,0,0,1,.47-1.32c.24-.44.34-.31-.14-.13s.2.07-.07,0c.16,0,.34,0,.5.06a8.61,8.61,0,0,1,1.23.34c1.43.45,2.75,1.26,4.28,1.34,3,.18,5-1.74,6.48-4,.23-.36,1.2-1.89,1.38-1.82,0,0-.54.23-.49.1a6.06,6.06,0,0,1,1.27.42,7.82,7.82,0,0,0,2.07.55c5,.48,10.86-5.48,7.29-10.24l-1.69,2.35c5.47-1,9.86-6.72,8.32-12.3l-3.07,2.12c5.84.7,12-4.15,11.35-10.27l-3.07,2.12c6.61.47,13.25-6.78,9.54-13.14l-2.88,2.47a9.06,9.06,0,0,0,8.5-3.72,6.74,6.74,0,0,0,1.36-3.95c0-1.58-.84-3-.94-4.52a1.82,1.82,0,0,1,.09-.84c.06-.12-.32.19-.1.08a12.21,12.21,0,0,1,2.38-.28,7.32,7.32,0,0,0,3.92-2.32,6,6,0,0,0,.67-7.23l-2.89,2.47a9,9,0,0,0,8.45-4.88c1.36-2.67,1.42-6.12-.8-8.35l-2.89,2.47a7.79,7.79,0,0,0,7.2-4.12,6,6,0,0,0-.64-6.88l-1.7,2.35c6.23-1.42,10.37-9.82,5.6-15-1.13-1.22-3.4-.41-4.21.77l-5,7.26-12.05,17.55-14.52,21.15-12.61,18.36c-2,2.94-4.31,5.82-6.1,8.9l-.09.12.67-.71-11.36,7.74-2.57,1.75a1.9,1.9,0,0,0-.55.37c-.12.17,1.13-.43,1-.44a8.3,8.3,0,0,0-2.36.61c-10.61,2.76-21.29,5.3-32,7.51-6.28,1.3-12.09,2.41-18.5,3.22-2.49.31-5,.57-7.49.65h-1.09c-.47,0-.94,0-1.41-.06s-.79-.06-1.18-.11l-.47-.08c.67.11,0,0-.17-.06a8.75,8.75,0,0,1-1-.35c.16.07,0,0-.24-.12l-.63-.34a23.57,23.57,0,0,1-2.52-1.69,54.68,54.68,0,0,1-5.64-5,185.13,185.13,0,0,1-13-14.61c-6.13-7.52-11.76-15.39-17.56-23.16l-.28-.41c-1.07-1.52-5.4.13-4.15,1.91,3.72,5.31,7.61,10.52,11.57,15.65,6.68,8.67,13.58,17.46,21.68,24.88,2.6,2.38,5.62,5.19,9.13,6.11s7.43.51,11,.15c11.08-1.1,22.07-3.53,32.91-6q11.7-2.65,23.32-5.7c2.25-.59,4.05-2.14,6-3.44,3.47-2.36,7-4.6,10.42-7.09a12.22,12.22,0,0,0,2.35-3.07l4.94-7.19,15.94-23.22,17.2-25,10.24-14.93.49-.71-4.21.77a6.47,6.47,0,0,1,1.34,6.2c-.49,1.9-1.82,3.68-3.54,4.07-.72.17-2.68,1.35-1.7,2.36a3.8,3.8,0,0,1,.81,3.93,4.21,4.21,0,0,1-1,1.7c-.07.07-.42.36-.34.31-.12.08-.43.12-.24.12a3.54,3.54,0,0,0-2.47.78c-.42.38-1,1.16-.42,1.69a5,5,0,0,1,1,5.32,5.9,5.9,0,0,1-1.49,2.34c-.63.57-.82.66-1.4.63-1.12,0-3.94.89-2.89,2.47.83,1.25.76,4-.81,4.73a18.64,18.64,0,0,1-2.66.36,5.11,5.11,0,0,0-3.52,2.38c-1.23,2.33.86,4.63.53,7-.25,1.8-1.7,3.69-3.65,3.39-1.23-.19-3.78.92-2.88,2.47a5.82,5.82,0,0,1-.2,5.66c-.79,1.43-2.11,2.64-3.57,2.54-1.23-.09-3.22.59-3.07,2.12.3,2.91-2.05,6.41-5.22,6-1-.12-3.47.65-3.06,2.12.93,3.37-.92,7.62-4.57,8.29-.89.17-2.49,1.29-1.69,2.36a3.72,3.72,0,0,1-.48,4.67,3.32,3.32,0,0,1-.67.56c-.33.17-.06.11-.38.08a6.28,6.28,0,0,1-1.23-.44,7.23,7.23,0,0,0-2.51-.53,6.74,6.74,0,0,0-5.64,3.25c-.42.6-.78,1.25-1.23,1.84-.17.22-.56.59-.65.72-.31.43-.21.07-.11.06,1.11,0,.06-.24-.19-.33-2.09-.77-4.13-1.75-6.43-1.51a5.53,5.53,0,0,0-4.75,3.52,7.45,7.45,0,0,0-.41,1.54c0,.13,0,.26-.06.39s-.15.42,0,.07a1.81,1.81,0,0,1-.18.37c0,.07-.11.17-.17.19.3-.1.2-.08,0,0a7.2,7.2,0,0,1-2.84-.48c-2.43-.86-4.94-1.73-7.34-.18a8.41,8.41,0,0,0-2.44,2.95c-.56.91-.62.82-1.73.65-2.62-.39-5-.93-7.54.32a15.16,15.16,0,0,0-2.69,1.86c-.37.29-.73.61-1.12.86.21-.14-.42.29-.4.23-.08.23,0-.16.21,0a5.7,5.7,0,0,1-1.54-1.33c-.62-.82-1.12-1.72-1.79-2.49a5.89,5.89,0,0,0-5.15-2.1c-3.85.39-6.11,3.64-8.95,5.75-.28.21-.78.53-.78.53l-.5.22c.3-.14-.16-.16.18-.06-.26-.08,0,.09-.42-.1a5.81,5.81,0,0,1-1.31-1,6.53,6.53,0,0,0-3.52-1.81,7.21,7.21,0,0,0-4.14.88c-1,.54-2.07,1.57-3.19,1.9a2,2,0,0,1-1.78-.55c-1.93-1.48-2.92-4.11-3.59-6.36-.49-1.65-3.29-.82-4.11,0-.2.21-.32.13-.08.12a1.65,1.65,0,0,1-.91-.28c-1-.6-1-1.8-1.33-2.81a4,4,0,0,0-2.21-2.52c-.89-.4-2.13-.45-2.94-1s.07-1.89.2-2.7a3.61,3.61,0,0,0-1.18-3.19,15.72,15.72,0,0,0-3.13-2.1c-.53-.32-2.47-1.85-1.84-2.67.81-1.05.22-1.95-1-2.08s-3-.36-3.64-1.55c-.44-.86.2-1.86.26-2.74a3.79,3.79,0,0,0-.63-2.29c-.9-1.41-2.52-2.15-3.87-3a4.2,4.2,0,0,1-1.49-1.61c-.13-.26-.52-1.21-.23-1.4.57-.35,1.14-1.23.61-1.86-3.56-4.19-4.66-9.68-6.83-14.61C620.45,360.11,616,361.43,616.76,363.16Z"/><path d="M664.25,77.06l54.21-17.19,50.32,19.64,26.82,54.93-3.16,46.86h0L791.87,247c-1.54.44.4,2.12-1.15,2.56a2.32,2.32,0,0,1-1.47.08c-1.15-.46-.82-2.13-.71-3.37.27-2.88-1.74-5.39-3.38-7.78s.14-4.38,1.64-6.85c.79-1.31,2.34-2.34,2.26-3.87-.11-2-2.7-2.59-4.26-3.83a4.84,4.84,0,0,1,.9-7.75s-4.07-3.17-4.1-10.82.81-16,.81-16h0a9,9,0,0,1-1.49-1.47c-3.08-4.11.07-10.53-2.64-14.89-1.22-1.95-3.46-3.15-4.51-5.2-2-3.92,1.17-8.76,0-13-1.32-4.76-7.82-7.88-6.73-12.7.54-2.35,2.85-4,3.26-6.4.71-4.14-4.57-8.53-2.08-11.92.87-1.17,2.47-1.71,3.12-3,1.33-2.62-2-5-3.6-7.47s-1.33-5.87-2.17-8.79-4.18-5.7-6.7-4c.82-5-4.2-17.23-9-15.84-2.38.68-5.31,2.38-6.94.52-1.15-1.33-.5-3.55-1.52-5C738.8,76.56,733,83.67,729,81.58c-1.08-.57-1.71-1.72-2.67-2.47-2.17-1.71-5.36-1-7.85.2s-4.94,2.84-7.7,2.79-5.62-2.95-4.32-5.39c-2.51,2.08-5.14,4.22-8.31,5s-7-.31-8.42-3.25c-.08,4.65-6.68,7.57-10.17,4.5-1.39-1.22-2.54-3.21-4.39-3.11a4.06,4.06,0,0,0-2.2,1c-2.91,2.28-10.6,9.81-11.8,13.3Z"/><path class="cls-4" d="M664.58,78.31l18.34-5.81,29.2-9.26,6.68-2.12-2.11-.1,17,6.66,27,10.55L767,80.66l-.47-.55,5.06,10.37,10.53,21.57,9.22,18.88,1.28,2.63a5.29,5.29,0,0,0,.66,1.35c.16.12.08.2.06-.21a2.86,2.86,0,0,1,0,.42c-.06.75-.1,1.5-.15,2.25l-1.43,21.24-1.4,20.73c-.16,2.3-.17,4.58-.19,6.89l-.18,20.5-.21,24.63-.13,15.15v.75L791,246a2.94,2.94,0,0,0-2,1.81,2.84,2.84,0,0,0,0,.92l.07.39c0,.82.65.6,1.82-.64,0-.2-.22-.63-.23-.89,0-.41.07-.83.1-1.24a7.78,7.78,0,0,0-.21-2.92c-.58-2.05-1.94-3.74-3.09-5.48-1.41-2.15,0-3.89,1.21-5.78.92-1.45,2.62-2.75,2.64-4.61s-1.49-2.78-2.88-3.57-2.59-1.52-2.87-3.28c-.16-1,.06-2.92,1-3.43.45-.24,2-1.27,1.16-2-2.95-2.34-3.89-6.86-3.92-10.39a145.5,145.5,0,0,1,.82-15.75l-.44.71h0c.35-.27.69-1,.26-1.37a7,7,0,0,1-2.67-4.7,42,42,0,0,1-.07-5.5,12.11,12.11,0,0,0-.89-5.23c-.84-1.75-2.29-2.9-3.61-4.27-3-3.12-1.45-6.85-1-10.64a9.46,9.46,0,0,0-.68-5.18,18.16,18.16,0,0,0-2.7-3.91c-1.77-2.08-4.47-4.66-3.38-7.67.65-1.77,2.14-3.1,2.81-4.87a6.71,6.71,0,0,0-.14-4.67c-.74-2.11-3.65-6-1.62-8.07,1.22-1.27,2.89-1.93,3.33-3.82.39-1.65-.57-3.18-1.54-4.42-1.34-1.73-2.77-3.13-3.33-5.32s-.5-4.48-1.24-6.59a7,7,0,0,0-10.27-3.86l3.68.53c.63-4.27-1.33-9.18-3.56-12.72a9.43,9.43,0,0,0-4.15-3.95,5.92,5.92,0,0,0-3.12-.33c-1.52.22-2.87,1.08-4.37,1.33-1.14.19-1.4-1.15-1.54-2.12-.2-1.34-.31-2.7-1.37-3.68-1.78-1.66-4.54-1-6.58-.27-.91.34-1.78.77-2.66,1.18a6.46,6.46,0,0,1-2.5.86,2.9,2.9,0,0,1-.54-.16A6.49,6.49,0,0,1,729.18,79a6.74,6.74,0,0,0-3.85-2.11c-4-.66-7.37,1.3-10.79,2.94-1.37.65-2.82,1.34-4.27.53-1.13-.63-2.36-2.11-1.73-3.49.39-.84-.18-1.33-1-1.46a3.86,3.86,0,0,0-2.93.89c-2.05,1.69-4.43,3.88-7.17,4.25A5.43,5.43,0,0,1,692,77.84a2,2,0,0,0-2.29-.71c-.7.14-2.19.65-2.23,1.56a4.28,4.28,0,0,1-1.3,3,4,4,0,0,1-1,.74,2.24,2.24,0,0,1-1.08.32c-2.65.23-3.82-3-6-3.94-3.22-1.44-6.23.9-8.51,2.94a75.18,75.18,0,0,0-5.79,5.78c-1.83,2-3.85,4.23-4.81,6.84l4.53-.5,3.11-17.11c.34-1.88-4.22-1.18-4.53.5l-3.11,17.11c-.19,1,1.29,1.19,2,1.12a2.94,2.94,0,0,0,2.54-1.62c.72-2,2.52-3.86,3.94-5.43a73.89,73.89,0,0,1,5.88-5.86c.37-.32.73-.65,1.11-1a3.44,3.44,0,0,0,.36-.28c.19-.18.55-.17.14-.2s-.15,0-.13.1a8.55,8.55,0,0,0,.85.63c.24.23.48.48.71.73A12.47,12.47,0,0,0,678,84.27c2.37,1.76,5.7,1.56,8.33.56,2.81-1.06,5.52-3.45,5.67-6.64l-4.52.86c1.72,3.35,5.53,4.53,9.1,4.21,4.58-.4,8.3-3.27,11.71-6.09l-4-.57c-1.31,2.85.74,5.49,3.44,6.47,3.29,1.19,6.84-.27,9.76-1.77a14.57,14.57,0,0,1,4.19-1.76,3.76,3.76,0,0,1,3.56,1.51,6.43,6.43,0,0,0,3,2.1,8.13,8.13,0,0,0,4-.1c2.05-.5,4.51-2,6.08-2.43,0,0,.65-.23.34-.09l-.09,0c.26,0,.28,0,0,0,0-.11,0,.06,0,0s.51.41.34.25c1,.94.7,2.67,1.06,3.88,1,3.38,4.95,3,7.61,2.12.72-.24,1.44-.49,2.15-.75l.34-.1c-.31,0-.33,0-.06,0-.09.33-.58-.35-.18,0,.1.1.55.21.83.39a6.32,6.32,0,0,1,1.07.93,18.34,18.34,0,0,1,3.66,6.57,15.1,15.1,0,0,1,1.12,6.92c-.27,1.81,3,1,3.69.52-.33.2-.63-.1-.27.13s.62.25.9.43a6,6,0,0,1,1.75,1.86c1,1.56,1.08,3.57,1.34,5.35a12.71,12.71,0,0,0,1.64,5.16c.92,1.47,2.28,2.62,3.17,4.11s.51,2.53-.81,3.54-2.51,2.13-2.71,3.81c-.34,3,1.89,5.5,2.58,8.25.92,3.63-2.85,5.62-3.21,9-.31,3,1.76,5.32,3.56,7.42A19.29,19.29,0,0,1,771,154a8.31,8.31,0,0,1,.68,5c-.44,3.49-1.72,7.15.42,10.35,1.08,1.62,2.82,2.67,3.93,4.27a9.78,9.78,0,0,1,1.24,5.69,36.58,36.58,0,0,0,.12,5.83,8.14,8.14,0,0,0,3,5.15l.25-1.37c-.54.43-.48,1.17-.54,1.78-.11,1.18-.2,2.35-.28,3.52-.27,3.79-.47,7.59-.43,11.39s1,8.9,4.27,11.49l1.17-2c-2.77,1.44-4.68,4.54-3.46,7.69a6.37,6.37,0,0,0,3.15,3.18c1,.58,2.79,1.36,2.2,2.85a9,9,0,0,1-1.5,2,25.32,25.32,0,0,0-1.66,2.55c-1,1.63-1.76,3.49-.83,5.33s2.3,3.13,3.05,5a6.32,6.32,0,0,1,.56,2.64,16.3,16.3,0,0,0-.12,2.52c.27,2.43,3,2.51,4.89,2a3.72,3.72,0,0,0,2.39-1.66,2,2,0,0,0,.15-1.18,1.47,1.47,0,0,0-.05-.29c-.24-.78.45-.1-.76.37.45-.17,1.34-.72,1.34-1.3l.23-25.55.31-36.2c.06-6.46.64-12.88,1.07-19.32l1.36-20.23.52-7.66c.08-1.17.25-2.38.24-3.55a4.46,4.46,0,0,0-.69-1.82l-2.36-4.84-7.91-16.2-15-30.8c-.32-.65-.67-1.83-1.31-2.24a13.44,13.44,0,0,0-2.4-.94L753.51,71.7,721.45,59.19a5,5,0,0,0-3.41-.54c-1,.28-2,.65-3,1l-15.2,4.82L666.06,75.13l-2.15.68c-.73.23-2.16.84-1.92,1.86S663.92,78.52,664.58,78.31Z"/><path class="cls-32" d="M583.9,103.17c.91,1.43-1,3-2.62,3.49s-3.75,1.17-3.75,2.87c0,1,.91,1.94.91,3,0,3.21-6.46,1.59-7.65,4.57-.89,2.24,2.21,5,.65,6.88-.74.87-2.07.81-3.18,1.09a4.87,4.87,0,0,0-3.58,4.24c-.11,1.47.45,3-.14,4.38-.7,1.65-2.7,2.19-4.17,3.2-3.88,2.66-3.91,8.29-3.2,12.93s1.56,9.95-1.44,13.55c-3.73-2.23-.73-5.68,1.28-9.53a25,25,0,0,0,1.9-3.43c.42-1.24.21-2.86-.93-3.5-.56-.32-1.3-.38-1.69-.89-1.11-1.47,1.9-2.4,3.16-3.75,1.57-1.69,0-4.4-1.7-6s-3.73-3.68-2.87-5.83c.75-1.89,3.39-2.47,4.17-4.35.89-2.13-1.09-4.43-.95-6.73.19-3.07,3.76-4.55,6.73-5.34a4.8,4.8,0,0,1,.83-7.56c1.08-.55,2.46-.77,3.05-1.82.88-1.57-.71-3.85.44-5.23,1-1.17,3.06-.61,4.12-1.68,1.7-1.72-1.21-4.59-.5-6.9.94-3,7.31-3,6.47-6.08"/><path class="cls-20" d="M581.64,103.77c.73,1.42-.58,2.18-1.73,2.55a9.66,9.66,0,0,0-3.74,1.92,2.51,2.51,0,0,0-.66,2.9,5.31,5.31,0,0,1,.68,2c0,.38-.28.63-.34.89,0,0,.24-.11.23-.11-.25.27.12,0-.26.08l-1.06.23a16.67,16.67,0,0,0-3.78,1.15c-2.24,1.07-3.06,2.69-2.19,5.08a7.37,7.37,0,0,1,.84,3c0,.07-.26.72-.25.73l.68-.18-.7.12a14,14,0,0,0-2.54.68,7.41,7.41,0,0,0-3.34,2.38,6.16,6.16,0,0,0-1,4.54c.12,1.59,0,2.87-1.48,3.76a22.41,22.41,0,0,0-3.47,2.21,10.24,10.24,0,0,0-2.92,6.9c-.53,6.24,3.24,13.7-1.13,19.2l4.35-1.17c-1.92-1.23-1.87-2.92-1-4.84a53.74,53.74,0,0,1,3.28-5.83c1-1.54,2-3.83.45-5.39-.58-.6-1.94-.63-2.23-1.43s.57-1.12,1-1.44c1.48-1,3.13-2,2.91-4.06-.25-2.23-2.18-3.7-3.6-5.21s-2.65-3.91-.61-5.62c1.36-1.14,3.13-2,3.38-4,.3-2.39-1.85-4.64-.91-7,.72-1.83,2.67-2.58,4.43-3.06.24-.07,2.64-.83,1.93-1.47-1.77-1.6-2-5.41.37-6.65,1.32-.71,3.14-1,3.75-2.64a4.43,4.43,0,0,0,.09-2.11c0-.33-.11-.66-.14-1s.11-.94.05-1.32l.07-.14c.13-.19.05-.21-.24-.07-3.14-3.54-.29,0-.3.07s1.15-.23,1.23-.25a9.21,9.21,0,0,0,2.82-1.08,2.8,2.8,0,0,0,1.26-3.31c-.32-1.27-1.15-2.61-1-4a2.82,2.82,0,0,1,1.81-2.09c1.74-.9,5.35-2,4.76-4.55-.22-1-4.75.14-4.51,1.21a1.5,1.5,0,0,1-.85,1.77c-1.06.63-2.25,1-3.3,1.67a4.9,4.9,0,0,0-2.28,2.43c-.42,1.32.17,2.64.59,3.87a5,5,0,0,1,.41,2c0,.23-.24.52-.25.72,0,.4,1.18-.18.6-.15a4.52,4.52,0,0,0-.62.12c-1.55.31-3.85.83-4.59,2.43-.66,1.44.39,3,0,4.41-.19.67-.58.83-1.17,1.07A9.43,9.43,0,0,0,563,107a5.22,5.22,0,0,0-.32,7.77l1.94-1.47c-3.55,1-9.51,3-8.72,7.73.35,2.11,2.11,4.56.22,6.41-1.38,1.34-3.5,2.12-3.7,4.3-.22,2.48,2.21,4.18,3.69,5.79s2.58,4,.47,5.54c-1,.69-3.58,2-2.56,3.51.56.85,1.77.73,2.37,1.54a3.36,3.36,0,0,1,0,3.37c-1.16,2.41-2.84,4.58-4,7-1,2.18-1,4.19,1.18,5.59,1.08.7,3.63-.26,4.35-1.16,3.93-5,1.34-11.55,1.14-17.19-.1-2.63.18-5.6,1.87-7.74,1.57-2,4.74-2.3,5.81-4.75.7-1.63-.13-3.4.24-5.07a4.59,4.59,0,0,1,.83-1.74c.18-.22.47-.41.62-.64.42-.24.32-.25-.28,0l.7-.12c2.58-.46,6-1.53,5-4.8a17.51,17.51,0,0,1-1-3.07,2,2,0,0,1,.3-1.51,1.49,1.49,0,0,1,.23-.27c.29-.29-.13,0,.26-.12a3.58,3.58,0,0,0,.46-.1c.6-.13,1.21-.25,1.8-.39a11.11,11.11,0,0,0,3.35-1.3,2.54,2.54,0,0,0,1.35-2.57c-.2-1.21-1.68-2.77-.27-3.79a6.53,6.53,0,0,1,1.67-.6,9.59,9.59,0,0,0,2.25-1c1.18-.75,2.61-2.08,1.84-3.58-.56-1.1-4.88.49-4.51,1.21Z"/><path class="cls-33" d="M795.11,219.48l.21-5.82L728.56,208h0c-25.56-4.47-57.65,8.8-74.57,25.1l-16.9,4.31.11-.3c-22.81-10.6-56.27-6.17-79.28,10.49l1.21,2.52h0c0,.17.29.52.54,1l1.08,2.19c6.73,14,14.27,28.71,19.25,32,3.35,2.21,12.8,1.69,20.49.76,2.91-.32,5.55-.73,7.45-1,2.28-.38,22.48-3.69,25.21-7.47s3.83-28.14,4-35.8l17.33-4.34c3.36,5.25,12.78,28.86,22.3,32.12s52.86-7.52,55.7-14.4c2-4.91,7.11-22.22,7.65-30.69l1.58-11.08ZM630.66,275.7c-3.07,3.72-43.21,10.74-49,6.95-4.89-3.22-14.5-23.18-18.12-30.68l-.07-.33c20.8-13.62,50.95-17.66,70.72-8.8-.56,13.27-1.84,30.43-3.55,32.79ZM727,254.45c-1.76,4.35-39.3,15.43-49.12,12.06-6.83-2.31-14-19.52-19-29.2,16.62-15.56,54.54-28.5,77.56-23.13-1.29,13.43-4.24,29.52-9.48,40.27Z"/><path class="cls-20" d="M652,308.79c-3.35-.7-5.54,1.34-7.9,3.3-1,.87-2,.6-3.34,1a5.23,5.23,0,0,0-2.38,1.34,4.69,4.69,0,0,0-.73,1,3.13,3.13,0,0,0-.22.45c-.13.38-.63.58.24.23s.27-.22-.22-.34-.71-.21-1.07-.31a7.62,7.62,0,0,0-2.76-.45,4.93,4.93,0,0,0-4.29,2.58c-.27.59-.42,1.22-.66,1.81-.08.2-.43.75-.3.67s-.34,0-.43,0a10.86,10.86,0,0,0-4.85,1.23,4,4,0,0,0-1.78,2,3.84,3.84,0,0,0-.18,1.22,5.32,5.32,0,0,0,0,.54s.91-.3.26-.15c-1.08.26-3,1.14-2.93,2.84s4.6.66,4.51-1.21c0,.68-1.66,1.18,0,.55a6.75,6.75,0,0,0,.95-.43,3.16,3.16,0,0,0,1.67-1.93c.13-.52,0-1.59.3-1.83s1.45-.09,1.87-.14c1.88-.24,3.9-.95,4.93-2.67a13.83,13.83,0,0,0,.82-2.08s.34-.68.33-.71c-1.16.29-1.39.5-.69.61l.71.22a7.73,7.73,0,0,0,5.64,0,4.73,4.73,0,0,0,2.09-1.87l.3-.59c.28-.36.19-.41-.28-.14.28,0,.61,0,.89-.07a9.28,9.28,0,0,0,4.92-2.14c.56-.46,1.07-1,1.62-1.43.07-.05.74-.59.75-.56s-.84,0-.49.1a3.66,3.66,0,0,0,3.19-.85c.65-.67.52-1.56-.48-1.78Z"/><path class="cls-22" d="M665.42,326.42c15.59-3.46,40.45-10.88,40.45-10.88s7.06,35.56-29.09,43.57-42-26.61-42-26.61S649.83,329.87,665.42,326.42Z"/><path d="M665.27,326.45c7.41-1.64,32.27-7.5,32.27-7.5s-2.66,24.52-24.11,29.49c-29,6.73-32.35-16.79-32.35-16.79Z"/><path class="cls-24" d="M665.19,327.63c7.41-1.64,29.69-7.89,29.69-7.89s-3.33,9.19-25.57,14.12-28.23-1.36-28.23-1.36Z"/><path class="cls-22" d="M634,330.7c.75-.37-6.61,1.13-3,0,6-1.88,9.5-4.35,13.87-5.67,7.46-2.27,12.94-.35,16.24-1.08s7.46-4.79,15.18-5.89c4.52-.64,15.88-1.46,22.14-2.3,3.75-.5,7.75-2.88,8.58-2.86,1.15,0,.47,10.57-41.26,18.54C631.13,338.05,633,331.21,634,330.7Z"/><path d="M655.39,312.71l1.25,6.83a2.71,2.71,0,0,1-1.67,2.61c-7,2.71-26.51,9.8-33.07,11.18a3.59,3.59,0,0,1-.46.05l.39,0c-2.55,0-2.36-5.75-.22-7.25,6.49-4.57,4.59-5.47,8.31-7.34,4.66-2.34,16.52-7.51,22.44-8.77A2.6,2.6,0,0,1,655.39,312.71Z"/><path d="M810.31,234.29c4.92.34,6.64,5.56,7.13,9.73.14,1.22.12,2.42.33,3.62a25.21,25.21,0,0,1-.76,11.67,18.72,18.72,0,0,1-1.88,4.36c-.39.63-1.26,2.17-2.1,2.32-1.11.2-1.4-2.51-1.44-3.28-.24-4,.95-8.26,0-12.21a2.71,2.71,0,0,0-3.2-2.37,30.82,30.82,0,0,0-5.42,1.74l1.27.17c1.07-8.58,2-17.2,4.75-25.43,1.18-3.5,2.8-7.67,5.57-10.15l.54-.44a1.73,1.73,0,0,1,.24-.16c.33-.21,0,0,.14-.07l-1.21,0a14.84,14.84,0,0,1,3.92,4,29.12,29.12,0,0,1,4.89,14.42c0,.5,1.92.12,1.86-.49-.56-6-2.45-12.12-6.64-16.59a8.86,8.86,0,0,0-2.28-2,1.88,1.88,0,0,0-1.71.25,10.29,10.29,0,0,0-3.32,3.31,37.48,37.48,0,0,0-4.7,10.91c-2.14,7.42-2.94,15.06-3.9,22.69-.07.56,1,.25,1.27.17l2.66-.9a6.34,6.34,0,0,1,1.86-.57c1.54.09,1.71,2.59,1.78,3.69a62.88,62.88,0,0,1-.21,6.86c-.1,1.83-.33,4,.29,5.74s2.23,1.91,3.73,1.27c2.22-.95,3.52-3.5,4.38-5.61a25.67,25.67,0,0,0,1.76-11.1c-.07-1.27-.4-2.52-.48-3.78,0-.57,0-1.14-.08-1.71-.39-4.78-2.3-10.59-7.9-11a1.75,1.75,0,0,0-1.32.35c-.19.24-.31.52.15.55Z"/><path d="M642.11,103.81c3.54.46,7.19.23,10.33-1.64a5.79,5.79,0,0,0,2.63-2.81,8,8,0,0,0,.3-2,4.21,4.21,0,0,1,.17-1.11c.26-.77.68-.53-.75,0l-2.51.56.32,0-1.26-.1a10.24,10.24,0,0,1,1.79.74,7,7,0,0,0,1.93.39,13,13,0,0,0,5.38-.89,9.56,9.56,0,0,0,3.83-2.44,7.09,7.09,0,0,0,1.55-3.84,16.19,16.19,0,0,1,.38-2.08,4.73,4.73,0,0,1,.41-1,5.74,5.74,0,0,0,.47-.65c0,.5-4.5.32-2.64.93a8.6,8.6,0,0,0,.87.24,8,8,0,0,0,3.61-.24A6.1,6.1,0,0,0,673.05,85c.66-1.38.23-3,.64-4.4s-5.89-.67-6.38,1.07a11.3,11.3,0,0,0-.29,2.77,4.56,4.56,0,0,1-.22,1.32c-.81,2.2-.78-2.22,3.43-.37a8.61,8.61,0,0,0-6.93.49A6.15,6.15,0,0,0,659.72,90c-.37,1.61-.23,3.63-1.42,4.92-.15.16-.38.29-.32.33s1.13-.26,1.15-.29-.26,0-.44-.1a6.33,6.33,0,0,1-1-.46c-2.23-1.07-5.47-.25-7.33,1.25a3.62,3.62,0,0,0-1.3,2c-.23,1,0,2-.44,3-.08.2-.47.57-.5.76-.1.5.77-.85.64-.12a17.31,17.31,0,0,1-2.52-.23,7.18,7.18,0,0,0-4.56,1.22c-1.06.74-.82,1.42.42,1.58Z"/><path class="cls-34" d="M282.34,805.45a669.48,669.48,0,0,0,81,13.65C438.1,826.7,488,816.16,488,816.16s8.93,34.57,10.41,43.46c0,0-89.92,7.27-147.64-1.21-24.48-3.59-51.39-9.2-74.28-14.47C277.87,831.05,280.22,818.26,282.34,805.45Z"/><path d="M624.08,328.9c-1.72,2.33-3.53,5-3.12,7.87a11,11,0,0,0,1,3l2,4.46a1.81,1.81,0,0,0,.54.79,2,2,0,0,0,1,.24,7.67,7.67,0,0,0,3.34-.38,2.64,2.64,0,0,0,1.72-2.63,3.62,3.62,0,0,1-.22-1.36c.18-.88,1.34-1,2.15-1.44,2-1,1.87-3.87,2.38-6.08.69-3,3.05-5.35,5.69-6.93a23,23,0,0,0,3.9-2.52,4.44,4.44,0,0,0,1.57-4.15"/><path d="M713.28,311.15c2.52,1.43,5.26,3.13,6.05,5.92a10.94,10.94,0,0,1,.28,3.13l0,4.89a1.88,1.88,0,0,1-.17.94,1.77,1.77,0,0,1-.84.63,7.71,7.71,0,0,1-3.2,1,2.65,2.65,0,0,1-2.64-1.71,3.64,3.64,0,0,0-.36-1.33c-.52-.73-1.64-.4-2.55-.44-2.26-.11-3.28-2.78-4.64-4.6-1.85-2.45-5-3.65-8-4a22.06,22.06,0,0,1-4.59-.71,4.43,4.43,0,0,1-3.12-3.15"/><path d="M711.11,305.36a6.76,6.76,0,0,0-5.93-1.34c-1,.25-2,.71-2.88.33a4.27,4.27,0,0,1-1.24-1c-1.24-1.24-2.67-.55-4.31.1a25.3,25.3,0,0,1-4.54,1.2c-2.16.45-4.52-2-6.35-.74-.73.47-1.06,1.38-1.77,1.88-1.14.8-2.73.23-3.92-.51a5.06,5.06,0,0,0-3.6-.74,7.52,7.52,0,0,0-3.51,1.08c-1.06.7-4.35,3.38-5.18,2.42"/><path class="cls-20" d="M712.87,304.17a8.79,8.79,0,0,0-4.91-1.79,10.75,10.75,0,0,0-2.94.28,6.27,6.27,0,0,1-1.23.34c-.76,0,.07.05-.07,0a3.41,3.41,0,0,1-.58-.56c-2.92-2.68-6.8,0-10,.65a2.67,2.67,0,0,1-1.63,0c-.68-.21-1.33-.51-2-.7a6.17,6.17,0,0,0-5.08.69c-.45.31-1.64,1.26-1.75,1.84s.51-.54.64-.2c0,0-.47-.14-.53-.17-.48-.19-.9-.51-1.36-.73a8.6,8.6,0,0,0-5.2-.62,11.56,11.56,0,0,0-5.22,2c-.52.37-1,.74-1.56,1.08-.21.14-.59.37-.71.43a3.54,3.54,0,0,0-.34.16c-.14.06-.15.06,0,0a1.61,1.61,0,0,1,1.6.2,2.84,2.84,0,0,0-3-.18c-.55.25-2,1.31-1.13,2,2.21,2,5.64-.35,7.55-1.71a5.55,5.55,0,0,1,3.16-1.31c1.6-.09,2.9,1.25,4.47,1.56a5.93,5.93,0,0,0,5.48-1.72c.11-.13.8-.85.76-1-.13-.32-.65.44-.82.19,0,0,.32.11.24.05a8.3,8.3,0,0,0,2.17.74,9.78,9.78,0,0,0,5.23-.14,21.3,21.3,0,0,0,2.63-.73,8.55,8.55,0,0,1,2.28-.82c-.17,0-.35-.11-.11.08s.37.35.57.52a4.23,4.23,0,0,0,1.33.92,5.56,5.56,0,0,0,3.33.11,7.52,7.52,0,0,1,2.61-.43,5.39,5.39,0,0,1,2.65,1.25c1.33,1.05,5.41-.89,3.53-2.38Z"/><path d="M664.41,309.91l3,7a2.73,2.73,0,0,0,2.72,1.65c8-.62,38.53-3,45.57-4.68.17,0,0,3.07.18,3l1.63-.47c2.52-1.1-1.32-9.54-4-10a153.75,153.75,0,0,0-20-2c-5.55-.08-20.81.19-27.17,1.65A2.75,2.75,0,0,0,664.41,309.91Z"/><path class="cls-14" d="M1102.91,922.4s4.73,85.73-77.05,94.26S968.65,892,968.65,892Z"/><path class="cls-35" d="M998.08,619,975.46,923c-.64,8.77-8.54,15.39-17.65,14.79-.36,0-.72-.06-1.08-.11L721,910.62l25.14-308.9,233.71-1.45c10-.07,18.22,7.72,18.26,17.39C998.13,618.1,998.11,618.54,998.08,619Z"/><polygon class="cls-36" points="965.63 598.42 987.37 607.3 964.16 919.24 963.68 925.69 939.6 924.05 965.63 598.42"/><path class="cls-37" d="M745.28,601S833.79,575.45,977,598L950.92,925.21l-122-14.66L719.24,897.37Z"/><path class="cls-38" d="M982.91,606l-.61,8.53-1.65,23.22-2.44,34.34-3,41.74L972,759.51,968.7,805.8,965.63,849,963,885.42l-1.86,26.12c-.29,4.09-.89,8.29-.88,12.39a4.9,4.9,0,0,1,0,.54c0,.25,1.43.08,1.46-.39l.61-8.53L964,892.33,966.42,858l3-41.74,3.25-45.7,3.29-46.29L979,681.1l2.59-36.46,1.86-26.12c.29-4.09.89-8.29.88-12.39,0-.18,0-.36,0-.54s-1.43-.08-1.46.39Z"/><path class="cls-35" d="M494.83,576.75l-27.24,303.6c-.79,8.76,5.93,16.58,15,17.47.36,0,.72.06,1.08.07l237,11.76L746.2,600.77,515.85,561.25c-9.9-1.7-19.23,4.64-20.85,14.18C494.93,575.86,494.87,576.3,494.83,576.75Z"/><polygon class="cls-36" points="530.2 561.75 507.3 566.96 479.35 878.51 478.77 884.96 502.8 887.27 530.2 561.75"/><path class="cls-37" d="M747.18,600.22S664,560.58,519.05,559.43l-27.6,327.13L614.2,892l110.37,4.87Z"/><path class="cls-38" d="M512.48,566.52l-.79,8.48-2.16,23.2-3.18,34.19-3.88,41.71L498.21,720l-4.29,46.11-4,43-3.38,36.34-2.43,26.13c-.38,4.13-.85,8.26-1.15,12.39,0,.18,0,.36,0,.54,0,.43,1.41.14,1.44-.24l.79-8.49,2.16-23.19,3.18-34.19,3.88-41.71,4.27-45.85,4.28-46.11,4-43,3.38-36.33,2.43-26.13c.39-4.13.85-8.26,1.16-12.39,0-.18,0-.36,0-.54,0-.43-1.41-.14-1.45.24Z"/><path class="cls-38" d="M518.71,560.49l-.81,8.68-2.22,23.75-3.28,35-4,42.71L504,717.57l-4.42,47.22-4.11,44L492,846l-2.5,26.76c-.4,4.23-.88,8.45-1.19,12.69,0,.18,0,.36-.05.54,0,.48,1.41.19,1.45-.22l.81-8.68,2.22-23.75,3.28-35,4-42.71,4.39-46.93,4.41-47.22,4.12-44,3.48-37.2,2.5-26.76c.4-4.23.88-8.45,1.19-12.69,0-.18,0-.36,0-.54.05-.48-1.41-.19-1.45.22Z"/><g class="cls-39"><path class="cls-40" d="M734.15,590.3S662.23,554.51,537.21,556L486.89,876.79l94.22.27c21.82-1.37,60.88,3,82.47,6.68l47.84,4.73Z"/><path class="cls-41" d="M458.81,905.37l8.82-89.29c27.49-4.27,93.34-9.56,143.84-4.27,57.95,6.08,107,18.81,143.91,35.18L750,918.83Z"/><path class="cls-42" d="M565.4,840.3c-.56,6.12,22,13.33,50.34,16.12s51.8.07,52.35-6-22-13.34-50.35-16.12S566,834.18,565.4,840.3Z"/><path class="cls-43" d="M658.37,828.06c-3.2,5.87-2.8,14.55-9.65,18a28.05,28.05,0,0,1-11.51,3c-2.73.1-7.86-1.15-10.16-2.89-4.33-3.28-2.55-14.73-2.12-19.33.62-6.73,3.89-16.39,11-19.16,5.44-2.1,10.77-.21,16.39-.14,3.85.05,13.25-6.78,13-1.55C665,813,660.79,823.63,658.37,828.06Z"/><path class="cls-43" d="M576.55,820c2.09,6.39.15,14.84,6.25,19.58a28.29,28.29,0,0,0,10.78,5.15c2.66.63,7.93.4,10.5-.86,4.84-2.38,5.14-14,5.55-18.58.59-6.73-.89-16.86-7.4-21-5-3.12-10.55-2.3-16.07-3.32-3.79-.7-11.81-9.24-12.5-4.06C572.73,803.93,575,815.21,576.55,820Z"/><path class="cls-43" d="M652.85,756.34c-10.73-10.27-41.33-13.57-55.19-6.3-15.23,8-30.13,48-21.94,61.73,8.45,14.17,76.61,21.86,85.2,8.34C670.37,805.23,665.13,768.1,652.85,756.34Z"/><path class="cls-43" d="M652.17,782c23.89,2.38,47.19-11.84,56.42-32.3,3.9-8.65-12.71-16.55-18.46-6.46-8.47,14.9-18.38,16.82-35.06,15.15-9.94-1-12.83,22.61-2.9,23.61Z"/><path class="cls-43" d="M599.43,770.85c-23.14,5.63-48.82-5.21-61.79-24.14-5.49-8,8.86-18.6,16.43-9.42,11.18,13.54,21.89,14.6,38,10.67,9.62-2.34,16.94,20.56,7.33,22.89Z"/><path class="cls-44" d="M643.18,753.07c-7-8-27.17-10.2-36.41-4.27-10.17,6.52-20.5,38.38-15.24,49.14,5.41,11.1,50.39,16.31,56.23,5.5C654.19,791.54,651.17,762.22,643.18,753.07Z"/><path class="cls-43" d="M658.67,677.66c-.59,6.56,8.88,16.58,15.82,17.26s15.67-8.33,16.26-14.9a13,13,0,0,0-11.39-13.83C672.42,665.51,659.27,671.09,658.67,677.66Z"/><path class="cls-44" d="M658.8,682.09c-.42,4.74,6.41,12,11.41,12.46s10.42-8,10.85-12.79-.26-6.17-5.27-6.66S659.23,677.35,658.8,682.09Z"/><path class="cls-43" d="M606.51,672.52c-.59,6.56-11.69,14.56-18.63,13.88s-14-11-13.39-17.62,6.91-12.83,13.85-12.15S607.11,666,606.51,672.52Z"/><path class="cls-44" d="M605.59,676.85c-.43,4.74-8.43,10.51-13.43,10s-8.81-9.94-8.38-14.67,1.37-6,6.37-5.53S606,672.11,605.59,676.85Z"/><path class="cls-43" d="M667.41,676.06c-13.09-11.77-50.28-15.75-67-7.59-18.44,9-36.26,54.4-26.22,70.09,10.36,16.17,93.17,25.44,103.51,10.13C689,731.83,682.4,689.54,667.41,676.06Z"/><path class="cls-44" d="M606,731c-.92,10.14,8.33,13,19.95,14.14s21.21.13,22.13-10-7.37-23.68-19-24.82S606.86,720.81,606,731Z"/><path class="cls-43" d="M629.39,706.52c-3.65-.36-9.75,10.67-9,11.59s13.76,2.2,17,1.88C637.39,720,633,706.88,629.39,706.52Z"/><path class="cls-37" d="M645.94,710.63c-.39,4.4,2.15,8.25,5.68,8.6s6.71-3,7.11-7.35-2.14-8.25-5.67-8.6S646.34,706.22,645.94,710.63Z"/><path d="M652.49,709.53c2.83.28,5.12,1.61,5.68,4.85-1.14,3.08-3.73,5.12-6.55,4.85s-5-2.79-5.57-6C647.18,710.11,649.67,709.25,652.49,709.53Z"/><path d="M636.47,721.55c1.92-1.64.86-3.23-2.36-3.55l-10.48-1c-3.22-.31-4.55,1-3,3,0,0,5.9,6.81,7.17,6.94S636.47,721.55,636.47,721.55Z"/><path class="cls-45" d="M652.68,700.45c-.75.17-.1,0,.15,0l-.2,0h.81c.18,0-.35,0-.09,0l.18,0,.39,0,.19,0c.1,0,.34.11,0,0,.27.1.56.15.84.26l.37.17c.13.06,0,0,0,0l.1,0,.24.16a4.27,4.27,0,0,1,.75.65,5.21,5.21,0,0,1,1.1,2.43c0,.2.37.27.52.29a2.67,2.67,0,0,0,1.05-.11,2.6,2.6,0,0,0,1-.43c.15-.12.35-.29.31-.51a5.15,5.15,0,0,0-2.9-3.84,7.53,7.53,0,0,0-3.7-.52,9.46,9.46,0,0,0-1.4.21c-.33.07-1.4.44-1.26.94s1.27.25,1.57.18Z"/><path class="cls-37" d="M598.82,706c-.4,4.41,2.15,8.26,5.68,8.6s6.71-2.94,7.11-7.34-2.14-8.25-5.67-8.6S599.22,701.6,598.82,706Z"/><path d="M605.37,704.91c2.82.27,5.11,1.6,5.68,4.85-1.14,3.07-3.73,5.12-6.55,4.84s-5-2.79-5.57-6C600.06,705.49,602.55,704.63,605.37,704.91Z"/><path class="cls-45" d="M608.48,695.4a7.93,7.93,0,0,0-7.64.83,6,6,0,0,0-1.94,2.66c-.22.56.93.52,1.19.48.54-.09,1.4-.31,1.64-.89a5.1,5.1,0,0,1,.54-1.07l.33-.42.19-.21h0c-.11.1.05,0,.08-.06l.17-.14s.28-.19.1-.08l.11-.06c.07,0,.17-.08.24-.13-.11.08-.29.12-.08.05s.33-.12.06,0l.06,0,.22,0c.08,0-.41.06-.11,0l.22,0h.54c.08,0-.31,0-.09,0l.22,0a5.52,5.52,0,0,1,.71.11l.16,0c.16,0,0,0-.09,0a1.57,1.57,0,0,0,.29.08c.19.06.39.13.58.21a2.48,2.48,0,0,0,2-.3c.35-.21.9-.7.29-1Z"/><path class="cls-44" d="M640.78,743.44l-7.63,6.91-.23-2.59a53.71,53.71,0,0,1-7.82,4.17,6.59,6.59,0,0,0-.22-3.6,10.65,10.65,0,0,1-1.71,2.14.93.93,0,0,1-.79.35,1,1,0,0,1-.52-.48l-2.22-3.48c.11.93-.16,2.25-1.13,2.15-.59-.06-.93-.64-1.19-1.14a16.71,16.71,0,0,0-3.91-4.8c-.4-.34-.86-.74-.82-1.24.07-.88,1.39-.94,2.31-.78a29.75,29.75,0,0,0,10.48-.07"/><path class="cls-44" d="M647.89,803.33a19.59,19.59,0,0,1-8.66,8.68l.62-1.5-6.74,2.91.9-2.34a60.88,60.88,0,0,1-10.14,3.63c.33-1,.34-2.42-.73-2.55a2,2,0,0,0-.88.17l-2.1.79a3.39,3.39,0,0,1-1.82.32,3.34,3.34,0,0,1-1.42-.82l-4.06-3.37-.39,2.61a41,41,0,0,1-7.28-3.82l-.3,2.26a28.43,28.43,0,0,1-6.06-4.66l-.47,3.18a36,36,0,0,1-6.37-9.93c-.66-1.54-1.12-3.53.11-4.68,1-.94,2.61-.85,4-.66a79.43,79.43,0,0,1,9.91,2"/><path class="cls-43" d="M627.17,848c6.75,2.52,12.41,1.82,19.52.77a5.24,5.24,0,0,0,2-.6c1.75-1.08,1.56-3.78.15-5.3s-3.55-2.17-5.59-2.75c-3.34-.94-6.77-1.9-10.22-1.63s-7,2.07-8.13,5.16C624.89,843.63,622.73,846.33,627.17,848Z"/><path class="cls-43" d="M584.33,844.44c6.75,2.52,12.41,1.82,19.52.77a5.24,5.24,0,0,0,2-.6c1.75-1.08,1.56-3.78.15-5.3s-3.55-2.17-5.59-2.75c-3.34-.95-6.77-1.91-10.22-1.63s-7,2.07-8.13,5.15C582.05,840.08,579.89,842.79,584.33,844.44Z"/><polygon class="cls-37" points="649.41 708.49 651.19 713.75 646.95 709.6 649.41 708.49"/><polygon class="cls-37" points="602.38 704.48 604.16 709.74 599.92 705.59 602.38 704.48"/><path class="cls-46" d="M635.37,734.8s-2,6.74-9.11,6.27-8.37-7.57-8.37-7.57,8,.84,9.08-1.58C627,731.92,629.39,734.88,635.37,734.8Z"/><path d="M626,732.38a8.85,8.85,0,0,0,10,2.49A11.91,11.91,0,0,0,640.6,731c.81-1-1.21-1.24-1.75-.54a9.29,9.29,0,0,1-4.09,3.41,5.09,5.09,0,0,1-3.4-.11,8.38,8.38,0,0,1-3.41-2.3c-.59-.67-2.62.15-2,.91Z"/><path d="M612.76,728.49a12.05,12.05,0,0,0,5.38,5.26,8.77,8.77,0,0,0,5.43.3,11.7,11.7,0,0,0,3.7-1.64,4,4,0,0,0,.53-.39c.35-.32.28-.82.32-1.27l.42-4.66c.06-.68-2.06-.26-2.11.33L626.1,730a14.76,14.76,0,0,0-.17,1.88c0,.41-.16,0,.2,0,0,0-.13.11-.16.13a9.05,9.05,0,0,1-2,1.06c-.23.09,0,0-.25.08a4.05,4.05,0,0,1-.47.12c-.18,0,.15,0,0,0l-.27,0c-.19,0-.3,0-.42,0a5.69,5.69,0,0,1-2.05-.25c-2.52-.78-4.33-3-5.63-5.15-.36-.61-2.38.15-2.13.57Z"/><path class="cls-1" d="M738.57,589.57S660,553.31,523.81,553.94L498.21,876l68.35,1c31.16,1.47,67.05,4,97.37,5.23l52.14,5.06Z"/></g><g class="cls-47"><path class="cls-40" d="M753,605.78s88.16-12.45,206.59,7.52L938.81,913.19l-65.88-11.77c-20.52-4.5-58.2-6.27-79.2-6.13l-61.52-3.81Z"/><path class="cls-41" d="M993.37,925.16l4.21-71.39c-27-9.08-92.57-25.57-144.28-28.26-59.34-3.09-110.7,2.39-150.47,13.73l-4.05,68.52Z"/><path class="cls-42" d="M895,866.25c-.39,6.6-24.23,10.57-53.23,8.85S789.57,866.65,790,860s24.22-10.57,53.23-8.86S895.4,859.64,895,866.25Z"/><path class="cls-48" d="M805.38,844.87c2,5.85.49,13.78,6,17.94a24,24,0,0,0,9.62,4.37c2.36.48,7,.06,9.23-1.21,4.21-2.4,4.19-13.19,4.44-17.48.35-6.28-1.2-15.63-7-19.19-4.45-2.72-9.35-1.73-14.24-2.46-3.36-.51-10.63-8.13-11.11-3.29C801.62,830.06,803.87,840.45,805.38,844.87Z"/><path class="cls-48" d="M877.68,849.14c-2.68,5.58-2.12,13.63-8.06,17.11a24,24,0,0,1-10.08,3.21c-2.4.19-6.95-.76-9-2.29-3.89-2.88-2.61-13.59-2.34-17.88.38-6.28,3-15.38,9.24-18.23,4.74-2.17,9.49-.62,14.44-.77,3.39-.11,11.51-6.81,11.42-1.95C883.16,834.87,879.7,844.93,877.68,849.14Z"/><path class="cls-48" d="M864.58,838.62a3.34,3.34,0,0,1-1.73-6.44,14.21,14.21,0,0,0,2.22-1.86,20.67,20.67,0,0,1,3.38-2.77,51.21,51.21,0,0,1,14.9-5.61,53.76,53.76,0,0,1,13.47-1c1.61,0,3.26,0,5,0,6.26-.16,13.57-2.47,14.83-7.17.88-3.26-.08-7.16-2.23-9.06a3.34,3.34,0,1,1,4.43-5c4,3.58,5.8,10.08,4.26,15.81-2.31,8.61-12.82,11.91-21.12,12.12-1.81,0-3.54,0-5.23,0a47.71,47.71,0,0,0-11.9.85,44.25,44.25,0,0,0-13,4.85,15.71,15.71,0,0,0-2.19,1.87A13.58,13.58,0,0,1,865,838.5,2.6,2.6,0,0,1,864.58,838.62Z"/><path class="cls-48" d="M819.78,779.68c10.71-7.92,37.79-6.59,48.88,2.07,12.19,9.52,19.81,48.45,10.84,59.91-9.25,11.82-69.61,9.19-75.28-4.47C798,822.16,807.52,788.75,819.78,779.68Z"/><path class="cls-48" d="M816.94,803.37c-21.12-1.22-39.5-17.61-44.79-37.74-2.24-8.52,9.8-12.42,13.45-2.31,5.38,14.9,17.23,17.08,32,17.93,8.78.5,8.14,22.62-.63,22.12Z"/><path class="cls-48" d="M867.67,804.43c20.72,4.29,42.71-6.8,53-24.88,4.36-7.65-6.26-14.52-12.39-5.71-9.06,13-21.07,12-35.53,9.06-8.61-1.78-13.71,19.75-5.11,21.53Z"/><path class="cls-44" d="M828.63,778.05c7.13-6.35,25-5.51,32.27,1.26,8,7.45,12.71,38.22,6.7,47.37-6.2,9.44-46.06,7.83-49.7-2.95C813.9,811.87,820.46,785.33,828.63,778.05Z"/><path class="cls-48" d="M825.23,706.48c-.36,6.12-9.94,14-16.07,13.63s-11.1-12.32-10.73-18.45,1.46-7.82,7.59-7.46S825.59,700.35,825.23,706.48Z"/><path class="cls-44" d="M824.53,710.54c-.26,4.42-7.18,10.09-11.6,9.83s-8-8.89-7.74-13.3,1.06-5.65,5.48-5.38S824.79,706.12,824.53,710.54Z"/><path class="cls-48" d="M871.33,709.18c-.37,6.13,8.23,15.07,14.35,15.43s12.47-10.93,12.83-17.06-.53-7.94-6.66-8.3S871.69,703.05,871.33,709.18Z"/><path class="cls-44" d="M871.55,713.3c-.26,4.42,5.93,10.86,10.35,11.13s9-7.89,9.26-12.31-.39-5.72-4.81-6S871.81,708.88,871.55,713.3Z"/><path class="cls-48" d="M817.84,703.77c13-9,45.88-7.32,59.39,2.57,14.85,10.89,24.28,55.2,13.44,68.2-11.18,13.4-84.51,10.13-91.46-5.43C791.57,752,803,714,817.84,703.77Z"/><path class="cls-44" d="M864,763c-.56,9.46-9,10.77-19.25,10.16s-18.49-2.9-17.93-12.35,9.58-20.74,19.85-20.13S864.56,753.55,864,763Z"/><path class="cls-48" d="M846.86,737.2c3.23.19,7.06,11.2,6.29,11.94s-12.27.06-15-.69C838.1,748.45,843.66,737,846.86,737.2Z"/><path class="cls-37" d="M831.9,738.62c-.24,4.11-3,7.29-6.09,7.1s-5.45-3.66-5.21-7.77,3-7.28,6.09-7.1S832.15,734.51,831.9,738.62Z"/><path d="M826.35,736.68c-2.49-.15-4.67.75-5.59,3.65.58,3,2.56,5.25,5,5.39s4.73-1.85,5.66-4.76C830.89,738,828.84,736.83,826.35,736.68Z"/><path d="M838.69,750c-1.45-1.78-.31-3.1,2.53-2.93l9.26.55c2.84.17,3.82,1.61,2.17,3.2,0,0-6,5.43-7.17,5.36S838.69,750,838.69,750Z"/><path class="cls-45" d="M828.37,727a6.5,6.5,0,0,0-2-.43,6.1,6.1,0,0,0-4.34,1.27,5.83,5.83,0,0,0-1.76,2.6.61.61,0,0,0,0,.65,1,1,0,0,0,.71.32,2.08,2.08,0,0,0,1-.18,1.32,1.32,0,0,0,.67-.58,6.11,6.11,0,0,1,.51-1.14l.14-.22c.14-.22-.09.1,0,0s.23-.27.35-.4l.08-.07.07-.06.17-.12.1-.07c.12-.07.14,0-.11.06a1.69,1.69,0,0,0,.36-.17c.24-.11-.18.06-.11,0l.21-.07c.16,0,.6-.08.09,0l.38-.05.34,0c-.4,0-.08,0,.1,0a6.17,6.17,0,0,1,.62.08c.24,0-.23,0-.1,0l.13,0,.24.06a4.88,4.88,0,0,1,.54.18,1.81,1.81,0,0,0,1.82-.49c.4-.47.24-.91-.3-1.13Z"/><path class="cls-37" d="M873.54,741.08c-.24,4.11-3,7.29-6.09,7.1s-5.45-3.66-5.21-7.77,3-7.28,6.09-7.1S873.78,737,873.54,741.08Z"/><path d="M868,739.14c-2.49-.15-4.66.75-5.58,3.65.57,3,2.56,5.24,5.05,5.39s4.73-1.85,5.66-4.76C872.53,740.43,870.48,739.29,868,739.14Z"/><path class="cls-45" d="M867.68,731.51l.13,0,.13,0c.24-.05-.44.07-.14,0l.52-.06.29,0c.12,0,.33,0-.13,0h.16a6,6,0,0,1,.73.08c.25,0-.21-.05-.07,0l.18,0a2.4,2.4,0,0,1,.38.12l.18.07c.21.08-.19-.1,0,0s.27.14.39.22l.34.25c.12.09-.15-.16,0,0l.18.18a3.68,3.68,0,0,1,.34.44,1.14,1.14,0,0,1,.15.23c0,.05.16.32.07.12a7.82,7.82,0,0,1,.45,1.34c.13.59,1.06.6,1.5.47s1.2-.54,1.07-1.16a5.7,5.7,0,0,0-1.07-2.36,4.55,4.55,0,0,0-1.82-1.34,6.54,6.54,0,0,0-3.42-.39c-.32,0-.64.1-1,.18-.47.13-1.23.56-1.07,1.16s1.05.6,1.5.47Z"/><path class="cls-44" d="M832,769.54l5.72,7.44.54-2.35a48.7,48.7,0,0,0,6.25,5,6.43,6.43,0,0,1,.68-3.28,10.28,10.28,0,0,0,1.2,2.21c.16.22.37.45.64.43a.8.8,0,0,0,.51-.36l2.4-2.88c-.22.83-.16,2.08.7,2.13.52,0,.89-.46,1.19-.88a14.85,14.85,0,0,1,4-3.85c.39-.26.84-.56.87-1,.06-.82-1.08-1.07-1.9-1.05a24.9,24.9,0,0,1-9.12-1.55"/><path class="cls-44" d="M817.81,823.61a18.26,18.26,0,0,0,6.37,9.22l-.33-1.46,5.48,3.62-.47-2.28a51.81,51.81,0,0,0,8.33,4.79c-.15-.92,0-2.28,1-2.24a1.56,1.56,0,0,1,.74.28l1.73,1a2.17,2.17,0,0,0,2.89,0l4-2.53v2.46a34.21,34.21,0,0,0,6.85-2.48l-.05,2.13a24.33,24.33,0,0,0,5.9-3.43v3a32.74,32.74,0,0,0,6.87-8.23c.78-1.33,1.45-3.08.54-4.32-.75-1-2.17-1.15-3.41-1.18a68,68,0,0,0-8.91.43"/><path class="cls-44" d="M829.88,867.64c-6.22,1.35-11-.1-17.1-2.08a4.51,4.51,0,0,1-1.65-.83c-1.38-1.25-.85-3.7.57-4.9s3.39-1.49,5.24-1.73c3-.4,6.15-.79,9.12-.05s5.78,2.9,6.38,5.9C832.44,864,834,866.75,829.88,867.64Z"/><path class="cls-44" d="M867.64,870.48c-6.21,1.35-11-.1-17.09-2.07a4.53,4.53,0,0,1-1.65-.84c-1.39-1.24-.86-3.7.57-4.9s3.38-1.48,5.23-1.73c3-.39,6.15-.79,9.12,0s5.79,2.9,6.38,5.9C870.2,866.8,871.72,869.59,867.64,870.48Z"/><path d="M829.34,719.51s12.54-.76,18.46,6.19c0,0,8.2-6.16,18.41-3.94,0,0-5.14-6.15-18-.57C848.23,721.19,838.82,713.25,829.34,719.51Z"/><path d="M826.1,711.85s15.17-2.16,22.31,6.2a26.27,26.27,0,0,1,21.09-4.62s-5.12-7.35-20.58-.63C848.92,712.8,837.52,704.3,826.1,711.85Z"/><path d="M826.58,703.73s15.17-2.16,22.31,6.21A26.23,26.23,0,0,1,870,705.32s-5.12-7.35-20.58-.63C849.4,704.69,838,696.19,826.58,703.73Z"/><path d="M799.93,734.43s5.74,13.25,15.53,17.66c0,0-12.29.09-17.59-8.69A19,19,0,0,1,799.93,734.43Z"/><path d="M796.61,756.31S807,762,817.43,759.62c0,0-10.52,7.26-20,3.4A30.12,30.12,0,0,1,796.61,756.31Z"/><path d="M893.68,740.13s-6.78,12.24-17,15.47c0,0,12.19,1.53,18.49-6.56A22.28,22.28,0,0,0,893.68,740.13Z"/><path d="M895.11,762s-10.93,4.39-21.07.84c0,0,9.8,8.42,19.7,5.72A48.89,48.89,0,0,0,895.11,762Z"/><polygon class="cls-37" points="829.17 736.16 826.92 740.74 831.16 737.53 829.17 736.16"/><polygon class="cls-37" points="870.64 739.17 868.39 743.75 872.64 740.54 870.64 739.17"/><path d="M800.45,711.11s0-9.63,1.72-12.76a31.9,31.9,0,0,1,11.57-2.19s-4.34-3.52-14-1.53C799.72,694.63,794.77,700.85,800.45,711.11Z"/><path d="M895.44,716.41s1.17-9.55-.2-12.87A32,32,0,0,0,884,700s4.73-3,14.1.14C898.11,700.14,902.3,706.9,895.44,716.41Z"/><path class="cls-45" d="M819.93,736.9l-3.82-.44a2.39,2.39,0,0,0-1,.07,2,2,0,0,0-.86.42c-.13.12-.34.32-.26.52a.57.57,0,0,0,.49.33l3.82.44a2.78,2.78,0,0,0,.95-.07,2.27,2.27,0,0,0,.87-.42c.13-.12.33-.32.26-.53a.57.57,0,0,0-.49-.32Z"/><path class="cls-45" d="M879.37,740.09l-3.82-.43a1.86,1.86,0,0,0-1,.18,1.38,1.38,0,0,0-.67.59c-.24.58.23,1,.77,1l3.82.44a2,2,0,0,0,1-.18,1.35,1.35,0,0,0,.66-.59c.25-.58-.22-1-.77-1Z"/><path d="M810.61,780.75s-4.86,4.06-6.37,9.26c0,0-2.77-2.83-.28-10.47Z"/><path d="M802,778.79s-5.62,2.91-8.21,7.68c0,0-2.1-3.37,2-10.29Z"/><path d="M793.81,774.66s-6.27.87-10.3,4.49c0,0-.86-3.87,5.3-9Z"/><circle class="cls-44" cx="778.97" cy="766.33" r="3.57"/><circle class="cls-44" cx="774.05" cy="763.27" r="1.52"/><circle class="cls-44" cx="777.26" cy="760.42" r="1.52"/><circle class="cls-44" cx="781.45" cy="760.92" r="1.52"/><path d="M878.87,784.05s3.71,5.14,3.88,10.55c0,0,3.39-2.06,2.86-10.07Z"/><path d="M888.07,784.68s4.73,4.21,6,9.47c0,0,2.87-2.75.63-10.46Z"/><path d="M896.87,783.13s5.86,2.4,8.86,6.91c0,0,1.79-3.54-2.89-10.07Z"/><circle class="cls-44" cx="913.31" cy="778.74" r="3.57"/><circle class="cls-44" cx="918.83" cy="777" r="1.52"/><circle class="cls-44" cx="916.43" cy="773.44" r="1.52"/><circle class="cls-44" cx="912.24" cy="772.89" r="1.52"/><path d="M802.88,834.51a29.59,29.59,0,0,0,10.31-5.67,27.54,27.54,0,0,1-11.13,1.42A41,41,0,0,0,802.88,834.51Z"/><path d="M807.33,855.91a29.52,29.52,0,0,0,10.31-5.68,27.4,27.4,0,0,1-11.14,1.43C806.72,853.14,807,854.56,807.33,855.91Z"/><path d="M874,860.63a29.58,29.58,0,0,1-9.57-6.85,27.58,27.58,0,0,0,10.88,2.73A42.32,42.32,0,0,1,874,860.63Z"/><path d="M804.23,808.11A29.47,29.47,0,0,0,816,808a27.82,27.82,0,0,1-10.5-4A42.12,42.12,0,0,0,804.23,808.11Z"/><path d="M802.42,820.83A29.51,29.51,0,0,0,814,818.61a27.67,27.67,0,0,1-11-2.07C802.7,818,802.52,819.44,802.42,820.83Z"/><path d="M881.56,838.69a29.58,29.58,0,0,1-9.57-6.85,27.58,27.58,0,0,0,10.88,2.73A42.32,42.32,0,0,1,881.56,838.69Z"/><path d="M883.32,812.31a29.39,29.39,0,0,1-11.66-1.55,27.77,27.77,0,0,0,10.89-2.7A40.19,40.19,0,0,1,883.32,812.31Z"/><path d="M883.62,825.15a29.49,29.49,0,0,1-11.22-3.56,27.66,27.66,0,0,0,11.2-.76A41.63,41.63,0,0,1,883.62,825.15Z"/><g class="cls-49"><rect x="889.44" y="817.85" width="8.08" height="11.39" transform="translate(-43.95 50.4) rotate(-3.15)"/><rect x="904" y="817.05" width="8.08" height="11.39" transform="translate(-169.01 238.45) rotate(-13.7)"/><rect x="915.2" y="809" width="8.08" height="11.39" transform="translate(-182.73 1357.27) rotate(-67.76)"/><rect x="912.79" y="795.44" width="8.08" height="11.39" transform="translate(611.41 1979.74) rotate(-116.62)"/></g><path class="cls-46" d="M837.88,762.36s.88,6.5,7.09,7.06,8.29-5.77,8.29-5.77-7.06-.36-7.69-2.74C845.57,760.91,843.07,763.29,837.88,762.36Z"/><path d="M844.94,760.49a7.47,7.47,0,0,1-.63.48l-.31.2c-.08.05-.18.11,0,0l-.24.13a9.47,9.47,0,0,1-.91.43c-.08,0-.28.11-.09,0l-.28.09c-.19.06-.38.1-.58.15s0,0-.12,0l-.31,0-.28,0H841a4.49,4.49,0,0,1-2.51-.84,9.68,9.68,0,0,1-2.94-3.7c-.38-.74-2.22-.05-1.77.84,1.26,2.44,3.23,4.72,6.12,5a8.6,8.6,0,0,0,5.39-1.44,8.11,8.11,0,0,0,1-.7c1-.86-.57-1.47-1.27-.84Z"/><path d="M856.56,759.53c-1.12,1.44-2.8,3.32-4.69,3.56a5.61,5.61,0,0,1-3.38-.85,9.05,9.05,0,0,1-1.88-1.5,1.49,1.49,0,0,1-.12-.14c.06.15,0-.05.06-.11a8.9,8.9,0,0,0,.09-1.55l.21-3.57c0-.26-1.9,0-1.93.52l-.21,3.51-.06,1a3.11,3.11,0,0,0,0,.68.72.72,0,0,0,.23.35,7.53,7.53,0,0,0,7,2.28,11.49,11.49,0,0,0,6.6-4.53c.21-.27-.72-.19-.77-.18a1.91,1.91,0,0,0-1.14.52Z"/><path class="cls-50" d="M748.77,656.13c19.14,6.56,40.37,3.5,59.46-1.65a209.75,209.75,0,0,0,28.85-10,228.84,228.84,0,0,0,27.78-14.59c10.16-6.2,19.91-13,29.47-20.11.79-.59-1.11-.37-1.48-.1-16.42,12.16-33.49,23.63-52,32.3a198.84,198.84,0,0,1-28,10.51,155.54,155.54,0,0,1-29.58,6c-11,1-22.3.46-32.84-3.15-.45-.16-2.17.57-1.57.77Z"/><polygon class="cls-51" points="772.73 659.38 787.8 680.95 795.33 657.12 772.73 659.38"/><polygon class="cls-52" points="801.22 655.27 819.5 674.18 823.17 649.47 801.22 655.27"/><polygon class="cls-52" points="877.57 619.81 901.79 630.07 895.51 605.89 877.57 619.81"/><polygon class="cls-53" points="828.39 646.93 849.45 662.69 849.14 637.7 828.39 646.93"/><polygon class="cls-51" points="855.83 634.22 879.12 646.47 874.87 621.84 855.83 634.22"/></g><line class="cls-54" x1="719.24" y1="897.37" x2="747.18" y2="600.22"/><path class="cls-55" d="M605,668.79l18.34-50,24.33,49S621.09,683.52,605,668.79Z"/><path class="cls-56" d="M616.48,637s5.51,2.8,16.88,1.92l2.6,5.24s-9.73,3.95-21.65-1.35Z"/><path class="cls-56" d="M610.9,653s19.81,5.67,29.85.84l2.64,5.3s-16.73,9-34.66-.32Z"/><path class="cls-57" d="M534.24,631.71c-.8,15.17,10.77,28.11,19.31,28.56,6.4.34,21.4-11.2,22.2-26.37s-7.85-28-19.31-28.57S535,616.54,534.24,631.71Z"/><path class="cls-57" d="M549.58,664.81c-.52-.69-.18-2.36,0-3,.37-1.47,2.36-3.91,4.1-3.81.3,0,3.83,2.25,3.69,4.78a4.08,4.08,0,0,1-.67,2.23c-.51.66-.81.35-1.59.4a8.5,8.5,0,0,0-1,.29,4.38,4.38,0,0,1-1.13-.19c-.64-.06-1.25-.4-1.88-.45s-1,.31-1.46-.11Z"/><path class="cls-37" d="M559.67,612.19s10.75,9.94,10.32,21.87C570,634.06,573.71,615.91,559.67,612.19Z"/><path class="cls-58" d="M553,665.46s-4.69,5.44-4.51,16.83,4.19,32.43,2.39,38.66c-3,10.31-7.56,14.93-7.56,14.93"/><path class="cls-14" d="M707.6,892.29l-9.25-5.5,3.49-4.26c19.45,5.16,163.7-6.3,200.25-.7L977,888.71c18.32,17.42,29.18,39.31,39.61,62.47,8.54,19,31.92,39.26,29.45,59a125.09,125.09,0,0,1-14.43,4.9C959,1034.71,729.83,967.11,690.49,944.8l50.66-4.67-3.79-5.85C753.32,918.4,703.34,913.72,707.6,892.29Z"/><path class="cls-14" d="M763.3,958.62l-89.69-15.15s-45.88,4.12-66.51,0a157.57,157.57,0,0,1-41.85-16.73l-30.2-2.51a22.27,22.27,0,0,1-6.95-1.75l-10-4.36s-22.93,7.92-25.55,1.09,3.94-15.42,13-17c106.76-18.7,129.75-36.38,129.75-36.38-10.63-6.69-15.47-12.8-27.19-17.53C590,841.12,583.18,828.55,590.2,820c4.93-6,26.09,2.68,39.49,13.35,8.71,6.94,32.55,5.69,49.6,15.47s24.47,35.69,24.47,35.69c6.19,4.75,76.44,19.38,76.44,19.38C780.26,905.45,763.3,958.62,763.3,958.62Z"/><path class="cls-19" d="M518.65,918.39c20.5-3.06,41.38-2.35,61.81-6a113.06,113.06,0,0,0,16.82-4.21c.55-.19,1.56-.64,1.36-1.39s-1.35-.71-1.87-.53c-19.52,6.64-40.47,6.63-60.8,8.2-5.67.44-11.33,1-17,1.83-.63.1-1.73.43-1.81,1.2s.87,1,1.44.88Z"/><path class="cls-19" d="M564.52,927.27c14.12,1.82,28.41,2.21,42.62,2.94.64,0,1.82-.24,2.13-.88s-.28-.91-.87-.94c-14-.71-28-1.08-41.9-2.86a2.87,2.87,0,0,0-2.28.61c-.45.43-.42,1,.3,1.13Z"/><path class="cls-14" d="M268.34,648.19s34.25,0,45.21,32.88,8.23,137,8.23,137,54.8-15.24,76.72-26.12,51.38-27.09,51.38-27.09,8.89-27.16,14.21-31.74,22.11-11.54,31.53-16.46,17.6-8.19,17.6-8.19,3.78,8.43-2.57,12.27c0,0,34.6-15.4,40.75-13.36s4.09,5.33,0,10.24-25.9,19.11-25.9,19.11,9,2.25,8.54,9.16a36,36,0,0,1-.87,6.8,8.73,8.73,0,0,1,7,9.42c-.5,12.39-4.41,13.1-4.41,13.1s2.87,2.46-2,11.06-21.7,13.1-32.34,16-20.47,4.92-33.17,10.24-55.27,29.07-71.24,43-45.45,34-74.92,43.81-49.14,17.61-59.37,6.14S245,873.5,241.77,858.35s-10.65-72.47-10.65-102.77-.41-65.92,6.55-84.34S268.34,648.19,268.34,648.19Z"/><path class="cls-19" d="M322.43,816.79c-8.68.21-16.61,3.81-24,8.1s-14.87,8.63-20.47,15a27.31,27.31,0,0,0-6.25,11.68c-.27,1.17,3,.68,3.23-.41,1.75-7.51,7.22-13.25,13.3-17.63,3.18-2.29,6.55-4.32,9.9-6.34a88.47,88.47,0,0,1,10.39-5.54,34.18,34.18,0,0,1,12.64-3c.65,0,1.8-.21,2.13-.88s-.27-1-.87-.93Z"/><path class="cls-19" d="M533.45,776a11.76,11.76,0,0,1-1.53,1.7c-.84.83-1.71,1.62-2.61,2.38s-1.8,1.5-2.75,2.18l-.29.2-.17.12-.59.38-.28.16-.13.07.12-.06s-.2.09-.24.11l.21-.08.28-.09c-.29.09-1.59.4-1.5.86s1.57,0,1.73,0a15.36,15.36,0,0,0,4.9-2.84,49.86,49.86,0,0,0,4.44-3.91,14.23,14.23,0,0,0,1.59-1.79c.31-.43-1.17-.24-1.27-.22a3.26,3.26,0,0,0-1.91.83Z"/><path class="cls-19" d="M531.09,752.34a58,58,0,0,0-7,10.16c-.36.67.32,1.13.93,1.16a2.36,2.36,0,0,0,2.12-.94,54.76,54.76,0,0,1,6.55-9.64.77.77,0,0,0-.37-1.35,2.42,2.42,0,0,0-2.28.61Z"/><path class="cls-19" d="M523.76,736.83a42.37,42.37,0,0,0-10.66,7.58c-.55.54.47.75.82.74a3.28,3.28,0,0,0,2.15-.83,37.91,37.91,0,0,1,9.62-6.8c.38-.19,1-.78.34-1a3.18,3.18,0,0,0-2.27.36Z"/><path class="cls-19" d="M514.29,718.6c-3.3.79-6.34,2.72-9.33,4.28s-6.27,3.31-9.38,5q-9.33,5.08-18.47,10.53c-.44.26-.95.66-.35,1s1.79-.09,2.27-.37q8.73-5.19,17.63-10.07,4.33-2.38,8.73-4.69,2.24-1.18,4.5-2.34a21.51,21.51,0,0,1,4.73-2.11c.37-.09,1.61-.49,1.45-1.06s-1.46-.27-1.78-.2Z"/><path class="cls-27" d="M317.08,665.29s10.64,21.28,13,53.38c2.07,27.73,6.38,56.11,6.38,56.11s-66.82,28.25-115,6.48c0,0-5.5-68,10.16-108.69,5.94-15.43,37.22-34,51.89-43s45.12-14.71,45.12-14.71"/><path class="cls-26" d="M292.29,656.13c6.78,0,11.93,5.38,15.85,10.31,2.17,2.72,4.14,5.59,6.18,8.42a68.65,68.65,0,0,1,6.5,10.49c3.74,7.79,5.87,16.26,7.59,24.69a204.87,204.87,0,0,1,3.17,60.33l.94-.79-9.88,4.48c-.39.18-1.25.64-.83,1.17s1.59.2,2,0l9.88-4.48c.29-.13.9-.4.94-.79A206.86,206.86,0,0,0,332,711.82c-1.67-8.82-3.75-17.71-7.45-25.92a60.56,60.56,0,0,0-6.46-11c-2.12-2.88-4.12-5.83-6.3-8.66-4.53-5.88-10.31-11.83-18.27-11.78-.6,0-1.72.21-2,.82s.26.84.82.84Z"/><path class="cls-26" d="M374.42,902.32l-106,11.43s-74.69,149.8,31.94,164.8c25,2.08,43.64,1.49,56.62.2a93.75,93.75,0,0,1,50.65,9.34l50,31.09L590,1027.26l59-45.18c-26.2-43.79-72.89-42.39-92.75-45.19l-59.46-8.79"/><path class="cls-26" d="M652.79,968.5c6,2.41,12.12,41.11,7,45s-45.32,14.18-51.26,16.67c-10.77,4.54-11.67,7.14-16,18-2.2,5.49-4.23,11.64-9.28,14.7-3,1.81-6.6,2.21-10,2.83-32.87,5.92-56.18,2.47-97.62,48.25-3.71,4.1-8.33,16.23-18.66,12.1-5.14-2.06-13.08-13.71-14-19.16,25.52-8,58.68-29.82,75.69-50.45l49.24-59.69"/><path class="cls-19" d="M974.1,888.68c17.55,3.76,32.46,14.72,43.72,28.4a113.77,113.77,0,0,1,9,12.68c.57.92,3.73-.31,3.36-.9-9.45-15.34-22.4-29-38.89-36.72a67.8,67.8,0,0,0-14.48-4.87,3.55,3.55,0,0,0-2.36.39c-.28.15-1.16.85-.37,1Z"/></g><g id="Layer_3" data-name="Layer 3"><path class="cls-38" d="M976.74,601.91l-.59,7.63-1.6,20.76L972.18,661l-2.9,37.46-3.17,41-3.19,41.41-3,38.48L957.42,852l-1.8,23.39c-.29,3.71-.6,7.43-.86,11.14,0,.16,0,.32,0,.48-.05.59,1.42.31,1.46-.18l.59-7.63,1.6-20.76,2.37-30.71,2.9-37.46,3.17-41L970,707.85l3-38.47,2.52-32.63,1.8-23.4c.29-3.71.6-7.42.87-11.14l0-.48c0-.59-1.42-.31-1.46.18Z"/></g></g></svg>