<svg xmlns="http://www.w3.org/2000/svg" viewBox="0 0 1303.15 1057.31"><defs><style>.cls-1{fill:#f2ead4;}.cls-2{fill:#a86e57;}.cls-3{fill:#502e27;}.cls-4{fill:#c3a5cb;}.cls-5{fill:#b45d32;}.cls-6{fill:#e28a3d;}.cls-7{fill:#d08c3e;}.cls-8{fill:#13110f;}.cls-9{fill:#231f20;}.cls-10{fill:#010101;}.cls-11{fill:#663b2c;}.cls-12{fill:#251710;}.cls-13{fill:#f1eef6;}.cls-14{fill:#6f9991;}.cls-15{fill:#142b30;}.cls-16{fill:#ae3831;}.cls-17{fill:#681b12;}.cls-18,.cls-19{fill:#151210;}.cls-18{stroke:#231f20;stroke-width:0.88px;}.cls-18,.cls-35,.cls-36,.cls-37{stroke-miterlimit:10;}.cls-20{fill:#1d1710;}.cls-21{fill:#0f0a09;}.cls-22{fill:#512a5f;}.cls-23{fill:#331741;}.cls-24{fill:#ad623b;}.cls-25{fill:#9e542d;}.cls-26{fill:#ea9546;}.cls-27{fill:#da7c3a;}.cls-28{fill:#cdb54c;}.cls-29{fill:#2a4b4f;}.cls-30{fill:#df523c;}.cls-31{fill:#fff;}.cls-32{fill:#d72e34;}.cls-33{fill:#e9c098;}.cls-34{fill:#6c5337;}.cls-35,.cls-36,.cls-37{fill:none;stroke:#9a7c48;stroke-width:1.16px;}.cls-36{stroke-dasharray:7.04 7.04;}.cls-37{stroke-dasharray:6.79 6.79;}.cls-38{fill:#9e4092;}.cls-39{fill:#eae35c;}.cls-40{fill:#385fa5;}.cls-41{fill:#392f19;opacity:0.43;}.cls-42{fill:#3a3a3a;}.cls-43{fill:#1d1d1f;}.cls-44{fill:#93171f;}</style></defs><g id="Layer_2" data-name="Layer 2"><polyline class="cls-1" points="-36.33 1080.41 -36.33 -10.94 1345.36 -10.94 1345.36 1080.41"/><path class="cls-2" d="M918.09,671.41c22.74-4.3,75-25.14,84.82-29.74,0,0,32.67-12.76,74.95,14.72l-57.63,40.35c-24.17,7.8-78.73,29.82-102.21,14.74C900.2,687.18,917.89,688.54,918.09,671.41Z"/><path class="cls-2" d="M928.51,715.61c-32.66-7.05-19-44-9.19-63.64,11.28-22.71,22.35-34.66,38.92-69.34,2.28-4.78,21.8-35.75,25-39.93l20.77,6.69L967.14,665.81C951.15,668.62,944.7,714.78,928.51,715.61Z"/><path class="cls-3" d="M968.7,655.23c.25,2-.57,4.33-1.06,6.23-.8,3.1-1.74,6.16-2.75,9.2-.8,2.43-1.62,4.88-2.65,7.22a28.83,28.83,0,0,1-5.13,7.65c-2.66,2.88-5.84,5.26-8.61,8-.82.82,1.16.75,1.61.3,2.56-2.56,5.4-4.81,8-7.36a31.67,31.67,0,0,0,5.86-8.19,54.09,54.09,0,0,0,2.54-6.62c1.07-3.13,2.06-6.29,2.92-9.48.61-2.29,1.64-5.11,1.33-7.54-.08-.64-2.12-.19-2,.55Z"/><path class="cls-4" d="M1066.08,621.27c-5.49-.65-18-1.36-23.51-.77-13.35,1.41-25.64,10-38.34,14.28-5,1.71-10.83,4.27-11.82,9.49a15.18,15.18,0,0,0,.49,6c4.81,22.16,10.66,46.07,28.24,60.38l2.85.83c18.55-7.69,33.55-22.09,46.1-37.77,2.93-3.67.31-7.36,4.51-9.71C1072.56,648,1080.86,628.36,1066.08,621.27Z"/><path class="cls-2" d="M429.56,433.74c7.69-35,41.17-38.72,64.18-26.13,11.66,6.38,12.88,33.18,12.88,33.18,7,49.34-2.09,160.87-4.6,186.38-4.67.7-10-1.69-14.46,0C472.13,633,472,664.86,465.62,680c-1.26,3-16.69,2-25.21-.64a35.73,35.73,0,0,1-20.55-15.92c-2.18-3.73-.92-10-1.1-13.76-.76-16,5.87-39,5.53-46.28C424.29,603.42,421.86,468.7,429.56,433.74Z"/><path class="cls-2" d="M471,691.32c-1.2.11-2.41.19-3.61.25A90.32,90.32,0,0,1,434,686.71c-5.17-1.8-8.95-4.29-12-8.85-1.69-2.5-4.16-6.13-4.58-9.22-1.19-8.69,12.28-.5,17.16-7.56,4.75-6.88,10.51-13.56,12.74-21.79,2.83-10.78,7.56-21.65,14.9-30.21,1.26,1.8,8.68,3.86,8.68,3.86L646,597.3s-32.65,12.87-21.8,16.21c22.22,6.84,27.43,19.17,26,19.8Q642.1,637,634,640.48q-16.17,7-32.58,13.42c-21.76,8.51-43.86,16.16-66.31,22.65q-16.93,4.91-34.11,8.88C491.06,687.72,481.17,690.42,471,691.32Z"/></g><g id="Layer_1" data-name="Layer 1"><path class="cls-2" d="M507.17,487.4c-.4-9.53-.45-8-.3.16C507.07,487.48,507.18,487.42,507.17,487.4Z"/><path class="cls-3" d="M524.93,641.64a14.21,14.21,0,0,0-7.68-.17,37.78,37.78,0,0,0-8.71,2.9,32.59,32.59,0,0,0-14.13,12.83c-.44.74,1.51.51,1.83,0a30.62,30.62,0,0,1,12.41-11.79,35.2,35.2,0,0,1,7.57-2.76c2.27-.54,4.88-.94,7.13-.1.55.21,2.34-.62,1.58-.9Z"/><path class="cls-2" d="M373,327.62c-.64.79-7.36,5.26-10.85,5.54,1.78,8.09-3.05,29.86,2.54,36.24,10.59,12.07,35.66,47.17,51.39,50.08,14,2.58,50.27-6,39.94-44-2.31-10.18-4.43-12.2-4.29-13.85.43-5,15.54-32.68,15.54-32.68l-70.88-59S392,304,373,327.62Z"/><path class="cls-3" d="M453.66,357.3s-5.13-7-10.36-10.2-15.06-5.58-34.88-35.63c.18.26-.18,1.75-.18,2.08a25,25,0,0,0,.6,5.84c1.59,7.47,5.76,14.23,10.68,20a84.35,84.35,0,0,0,12.4,11.79,52.55,52.55,0,0,0,13.49,8.1,43,43,0,0,0,4.43,1.4c.38.1,2.21,1.14,2.3.82Z"/><path class="cls-2" d="M534.16,196.13l.28.39a4.56,4.56,0,0,1-.16-.69Zm12.92,8c.13.27.28.54.45.82l.1-.26S547.19,203.86,547.08,204.16ZM406.64,311c8.13,18.22,25.92,40.49,46.87,47.32,7.51,2.45,16.58,4.87,23.46,2,6.66-2.81,12-7.41,17.61-11.81,5.1-4,10.54-7.41,15.33-11.83,10.72-9.89,21-16.27,24.18-37.47.71-4.67,1.86-10.57,3.75-14.69,2.18-4.75,10.62-24.4,15.23-35.56s.5-31.84.5-31.84c.49-3.3-.36-6.06-1.09-9.13l-1.33-.51a1.4,1.4,0,0,1,.2,1.47,11.61,11.61,0,0,1-3.84-3.89c-2.34.15-4-1.52-5.07-3.67-.12.31,0,1,.32,1.17a7.13,7.13,0,0,1-4.63-3.85c-.11.31,0,1-.12,1.35a13,13,0,0,1-3.57-3.51c.15.52,8.09,2.19,8,2.4-2.1-.45-.07,1.08-1.16-1.07l-1.22-1.76c-1.77-.32-2.09.7-3-1,.22.43.36-3.71.24-3.4-2-.76-1.4-.69-2.71-2.23-.12.3-6.19-.08-6.3.23-1.66-.63-1.8,1.06-2.67-.67.22.43,1.69-.82,1.9-.39-2.1-.45-3.34.55-4.42-1.61.21.43-5.31-5.83-5.31-5.83-2.1-.46-2,.3-3.2-1.55.43.87-9-4.05-8.89-3.32-1.66-.62.87,7.3-.11,5.88-.12.3-3.48-2.37-3.48-2.37-1.78-.32.14,2.15-.73.43-.11.3-.13,1.34.2,1.47-2.34.16-4.43-1.33-6-3.31.43.86.53,1.6.75,2-1.66-.63-3.11-.83-4.3-2.68-.12.3.2,1.47.53,1.6a7,7,0,0,1-5.08-2.63c-.12.31.31,1.17.53,1.6a5,5,0,0,1-3.75-2.12l.53,1.6c-1.33-.51-2.56-.27-4.32-1.64-.12.3.43.86.32,1.17a13.27,13.27,0,0,1-3.21-1.57c-.12.31.65,1.29.32,1.17-1.33-.51-2.56-.27-4-1.51.22.43.32,1.16.54,1.59-1.33-.5-2.78-.7-3.88-1.81a2.42,2.42,0,0,0,.21,1.47c-1.33-.5-2.56-.27-4-1.51-.12.3.32,1.17.54,1.6a18.67,18.67,0,0,1-4-1.52c-.12.31.43.87.65,1.3-1.33-.51-2.78-.7-4.21-1.94-.23.61,0,1-.13,1.34-1-.38-1.54-.93-2.54-1.31l-1.89,0c-7,4.33-14.38,24.89-14.38,24.89-13.41,4.33-23.76,19.59-25.62,25.51S407,242.8,407,242.8c-.85-2.76-2.77-8.72-2.84-11.54-.19-2.51,1.51-5,1.32-7.52-1.13-6-8.36-7-13.17-5.34l-1,.77c-7.69,5-10.25,28.5-8.88,36.29-3.79,13.39,5.06,24.5,15,17.55l-.11,5.74"/><path class="cls-5" d="M553.52,229.92c-1.33-20.82-20.27-38.67-60.34-59.7s-78.72-18.11-78.72-18.11c42.33-52.77,102.62-27.68,116.22-22.52s63.76,84.8,21.9,126L549,258.7S553.76,233.7,553.52,229.92Z"/><path class="cls-5" d="M408.4,135.52S417.64,95.91,450,93.68c43.17-3,96.15,8.57,99.45,54.11Z"/><path class="cls-6" d="M377.53,228.42c-1.88-4.22,2.24-12.64.93-17.07-6.84-23.23,4.22-39.25,13.42-47.77,4-3.71,3.84-12.94,5.57-16.86,9.1-20.58,11.76-20.31,51.16-30,32.06-7.92,59.32,3.31,74.95,10.2,25,11,35.68,16.91,37.75,38.4.27,2.81-1.09,3.27-1.19,6.49-.15,4.54,5.38,8.33,4.5,13.83,0,0-37.78.77-71.64,5.31S386.9,235.35,382.27,253.75C382.12,254.33,379.61,233.09,377.53,228.42Z"/><path class="cls-5" d="M377.76,191S465,139.35,517.87,158.8c0,0-79.71-31.62-128.07,5.74l-1.45,1.67a49.59,49.59,0,0,0-8.87,14.92Z"/><path class="cls-7" d="M392.87,267.24c-3.32-.88-5.83,1.13-7.21,3.7-2.49,4.64,1.18,10.36,6.37,9.48l.6-.13s-7.36,4.13-11-1.22.64-10.62,2.93-11.63C389.62,265.19,392.87,267.24,392.87,267.24Z"/><path class="cls-8" d="M421.2,220.32l-13,29-5.47-17S415.9,223.68,421.2,220.32Z"/><path class="cls-9" d="M401.35,245.16c-1.93-.71-4.51-.91-5.11,1.56-.51,2.08.1,4.3-.25,6.41a3,3,0,0,1-1.51,2.49c-1.14.43-2-1.75-2.28-2.53a13.16,13.16,0,0,1,.27-9.37c1.06-2.47,3-6.42,6.08-6.58.85,0,1.16-1.14.14-1.09-3.28.17-5.46,3.18-6.86,5.84a14.72,14.72,0,0,0-1.78,8.43c.2,2.38,1.58,7.86,5.09,6.17,2.43-1.17,2.54-4,2.48-6.32a11.64,11.64,0,0,1,.16-3.68c.41-1.26,1.75-.68,2.7-.33.64.24,1.75-.67.87-1Z"/><path class="cls-10" d="M489.69,305a9,9,0,0,1-7.88-3.6c-.39-.53-2.22-.85-1.68-.1,2.29,3.15,7.23,5.23,10.81,4.7.36,0,.4-.31.08-.58a2,2,0,0,0-1.33-.42"/><path class="cls-10" d="M479.4,300.18a14.61,14.61,0,0,0-4.49-3.2,1.12,1.12,0,0,0-.86,0c-.2.08-.3.25-.15.44a5.56,5.56,0,0,0,2.48,1.7,1.09,1.09,0,0,0,1,0c.25-.19,0-.46-.2-.54a4.33,4.33,0,0,1-2-1.38l-1,.41a13,13,0,0,1,4,2.88,1.09,1.09,0,0,0,.95.24c.23-.05.53-.24.31-.49"/><path class="cls-10" d="M472.47,297.83c-2-.82-4-2.64-4.39-4.63-.57-3,2.29-6.33,5.4-6.93.34-.07.28-.34,0-.51a1.66,1.66,0,0,0-1.17-.17,8.18,8.18,0,0,0-5.88,5.57c-.5,2.25.86,4.47,3,6a10.87,10.87,0,0,0,2.11,1.18c.3.12.89.23,1.13,0s0-.42-.27-.53"/><path class="cls-10" d="M493.8,305.26a.29.29,0,0,1,.41-.3,2.45,2.45,0,0,0,1.77,0l.27.9a7.27,7.27,0,0,0-3.62,0,.57.57,0,0,1-.6-.35c-.09-.16-.12-.49.12-.55"/><path class="cls-10" d="M492.15,305a8.12,8.12,0,0,1,4,0,.66.66,0,0,1,.44.46.33.33,0,0,1-.17.43"/><path class="cls-10" d="M497.88,307.13a4.4,4.4,0,0,0,4.48-1.27,7,7,0,0,0,1.05-7.48.28.28,0,0,1,.27-.41.77.77,0,0,1,.61.5,7.79,7.79,0,0,1-.09,6.65,5.25,5.25,0,0,1-4.64,3.1A5,5,0,0,1,498,308c-.2-.07-.52-.3-.52-.59s.23-.34.42-.28"/><path class="cls-8" d="M529.24,272a4.92,4.92,0,0,1,5.43,5.63,5.14,5.14,0,0,1-2.8,3.94,4.77,4.77,0,0,1-5.46-1,5.27,5.27,0,0,1-.25-6.65,4.7,4.7,0,0,1,3.08-1.87"/><path class="cls-8" d="M508.75,270.64s11.66-3.67,16.42-2.38c7,1.87,13.8,8.71,14.91,12.93,0,0-8.82-9.69-13.75-10.87C521.61,269.2,508.75,270.64,508.75,270.64Z"/><path class="cls-8" d="M473.71,250.9c-1.49-1.65-4.55-2.51-6.16-1.9a4.93,4.93,0,0,0-2.23,1.65,5.14,5.14,0,0,0-.53,4.8,4.78,4.78,0,0,0,4.79,2.84,5.28,5.28,0,0,0,4.6-4.82c0-.4.66-.95-.53-2.29"/><path class="cls-8" d="M480.49,258.78s-7.7-10.29-12.63-12.32c-7.19-3-17.5-2-21.17.58,0,0,13.83-1.94,18.85.29C470.33,249.46,480.49,258.78,480.49,258.78Z"/><path class="cls-8" d="M544.47,269a2,2,0,0,1,.77,0c.24-.35.48-.7.7-1.05a4.64,4.64,0,0,0,.32-.77l0-.21a17.44,17.44,0,0,0-2.26-5,19.81,19.81,0,0,0-5.55-5.08c-2.55-1.6-10.06-4.58-20.65-6.63l-1.32,4.16-1,3.17c3.82.24,7,.63,9.43,1,5.09.74,7.68,1.14,10.34,2.51a28.18,28.18,0,0,1,5.76,4.09,18,18,0,0,1,2.8,2.87A11.2,11.2,0,0,1,544.47,269Z"/><path class="cls-8" d="M491.66,237.93c-.64,1.3-1.3,2.6-2,3.9-.49,1-1,2-1.49,3-3.56-2.79-6.69-5-9.07-6.62-5-3.43-7.64-5.16-11-6.27a38.69,38.69,0,0,0-8.15-1.63,23,23,0,0,0-4.62-.18c-3.47.31-5.46,1.59-5.82,1.22s1.12-1.62,1.27-1.75a17.69,17.69,0,0,1,8.94-3.82,25.72,25.72,0,0,1,8.71.78c3.44.86,12.3,4.62,23.19,11.4"/><path class="cls-11" d="M476.68,315.39c-10.48-4.26-25.19-15.27-25.19-15.27S441.67,328.4,466,338.28s32.72-14.42,32.72-14.42S487.15,319.65,476.68,315.39Z"/><path class="cls-12" d="M476.78,315.44c-5-2-22.34-12.34-22.34-12.34s-2.3,19.69,15.71,27c19.53,7.95,25-7.05,25-7.05Z"/><path class="cls-13" d="M476.68,316.3c-5-2-19.78-9.06-19.78-9.06s3.15,7.89,18.09,14,21.92,2.5,21.92,2.5Z"/><path class="cls-11" d="M500.35,322.77c-.47-.35-2.1-1.35-2.1-1.35-4-2-4.11-3.27-7-4.72-4.93-2.48-9-1.71-11.24-2.61s-4.6-4.31-9.87-6a73.73,73.73,0,0,1-11.34-4.4c-5.82-3-7.21-7-7.8-7.05-.81-.11-3.38,10.33,24.49,21.66S501,323.26,500.35,322.77Z"/><polygon class="cls-14" points="-43.52 1174.12 1334.46 1174.12 1334.46 887.89 -38.33 887.89 -43.52 1174.12"/><path class="cls-2" d="M211.59,933.3C208.46,925.72,199.4,917.68,193,914s-14.23-.27-16.32.61c-15.55,6.59-23.6,19.46-35.84,30.53a155.5,155.5,0,0,1-31,21.8c-11.34,6.07-23.7,9.15-35.2,14.63l-.24.12a27.24,27.24,0,0,0-13,13.08c-1,2.09-2,4.14-3.06,6.08-1.52,2.69-3.16,4.7-1.58,7.88,2.92,5.85,12.71-.84,15.58-2.07a3.62,3.62,0,0,1,1.69-.25c2.3.2,9.09.45,20.54-2a30.08,30.08,0,0,1,3.26-.51c0,.07,0-.07,0,0,6.09-1,33.51-2.23,38.43-2.71,9.71-.94,39.4-7.25,39.4-7.25,3.39-.47,45-16.48,61.52-6.3L243.54,949S214.73,940.88,211.59,933.3Z"/><path class="cls-2" d="M261.56,876.27c-3.13-7.58-12.19-15.62-18.62-19.34s-14.23-.27-16.32.61c-15.55,6.59-23.6,19.46-35.84,30.53a155.5,155.5,0,0,1-31,21.8c-11.35,6.07-23.7,9.15-35.2,14.63l-.24.12a27.24,27.24,0,0,0-13,13.08c-1,2.09-2,4.14-3.06,6.08-1.52,2.69-3.16,4.7-1.58,7.88,2.92,5.85,12.71-.84,15.58-2.07a3.62,3.62,0,0,1,1.69-.25c2.3.2,9.09.45,20.54-2.05a30.08,30.08,0,0,1,3.26-.51c0,.07,0-.07,0,0,6.09-1,33.51-2.23,38.43-2.71,9.71-.94,39.4-7.25,39.4-7.25,3.39-.47,45.43-11.41,62-1.23l5.85-43.6S264.7,883.85,261.56,876.27Z"/><path class="cls-2" d="M180.78,773.55c1,34.83-8.65,110,99.11,115.27l-49.15-10.76-.11,84.73s320.76-2.09,330.19-2.22c18.15-.2,59.7-22.68,50-76.74-8.8-49-38.78-68.29-52.38-78.27s-218.65-90-276.28-98.63L196.51,754Z"/><path class="cls-2" d="M160.88,817.3c6.26,34.28,24.53,72.22,67.46,89.4l-7.44,15C207.15,949.56,195.65,952,203.5,982l5.15,1s278,40.69,322.88,25.15c17.91-3,56.84-32.48,55.13-87.38S537.91,859.21,523,851.43s-171.49-32.19-229.77-31.94l-65.91-42.76Z"/><path class="cls-15" d="M174.88,664.33c.3-1.16,1.78-2.88,2-4.22,2.5-1.69.79.77,6.35-3.33a235.73,235.73,0,0,0,26.39,7.72c21.79,5,44.46,5.93,66.74,5.43,24.37-.55,48.65-3,72.9-5.38,21-2,42-4,63.12-4.45l3.51,44.37L582.47,818.6s53.39,40.79,2.15,86c-38.46,34-147.91,50.76-147.91,50.76-1,1.89-27.13-3.32-42.44-5.44-19-4.25-139.35-29.58-150.41-31.76-54.68-10.79-109-50.83-114-107.68-2.72-31.1,2-69.92,15.51-98.18C152,698.66,171.11,679,174.88,664.33Z"/><path class="cls-16" d="M486.9,545.77c-1.59,43.6-8.37,55.74-19,64.16-13.65,10.77-23,2.39-30.78,11.88-15.45,18.78-6.75,56.84-5.55,89.66,0,0-82.38,10-138.8.84s-123-46.19-123-46.19c33-44.61,53.76-69.09,53.76-69.09l8.32-95.37,5.5-71.07c6-50.18,39.08-76.78,70.59-83.58l54.72-15.92s13.05,65.37,61,70.25,27.88-38.87,27.88-38.87,38,30.91,46.92,42.37a107,107,0,0,1,22,66.23c-.12,32.2,11.51,74.93,12.92,80.62s-47.1,8.42-47.1,8.42"/><path class="cls-3" d="M582.71,955.6c4.72-13.63,8-28.3,6.38-42.79a57.52,57.52,0,0,0-1.74-8.93c-.18-.67-2-.17-1.86.5,3.4,12.24,2.37,25.2-.52,37.44a144.85,144.85,0,0,1-4.12,14c-.23.65,1.64.42,1.86-.22Z"/><path class="cls-17" d="M494.26,498.53c-5.65,4.89-8,12.31-8.37,19.6-.37,8.21-.13,16.44-.46,24.66-.22,5.34-.61,10.67-1.3,16-.22,1.69,3,1.32,3.23-.21a226.45,226.45,0,0,0,1.54-26.29c.05-3.83.06-7.65.13-11.48a41.1,41.1,0,0,1,1.27-10.54,20.87,20.87,0,0,1,6.09-10.14c1.63-1.4-.87-2.66-2.13-1.57Z"/><path class="cls-16" d="M327.11,353.21s-66.46,13.21-78.3,48.86-.93,103-.93,103,73.64.58,109.7-13.8S327.11,353.21,327.11,353.21Z"/><path class="cls-17" d="M290.73,368c5.41-.86,11,.1,16.12,1.8a51.86,51.86,0,0,1,15.28,8c4.64,3.56,7.93,8.21,11.28,12.94A161.73,161.73,0,0,1,342.49,405a98.67,98.67,0,0,1,9.85,24.52,172.3,172.3,0,0,1,3.78,25.18c1.18,12.33,2.28,24.65,4.07,36.91l.9-1-11,2.94c-1.32.35-1,1.68.36,1.33l11-2.94c.43-.12,1-.45.9-1-1.66-11.37-2.75-22.79-3.81-34.23-.81-8.7-1.65-17.43-3.59-26a97.91,97.91,0,0,0-9.39-24.78,149.65,149.65,0,0,0-8.81-14.28c-3.29-4.77-6.57-9.75-11-13.55a52,52,0,0,0-16.59-9.42c-5.76-2-12.11-3.22-18.21-2.25-.4.07-1.18.3-1.2.82s.56.69,1,.62Z"/><path class="cls-17" d="M263.88,504.28a53.74,53.74,0,0,1-5.94.55c-.89.05-1.78.14-2.66.25-1.29.17-3.28.94-3.68-.85a17.46,17.46,0,0,1,.06-4c0-1.7,0-3.4,0-5.11-.08-3.06-.29-6.13-.57-9.18-1.15-12.57-3-25.08-4.11-37.65a92.14,92.14,0,0,1,.2-21.32c0-.24-2.07-.07-2.17.58-1.88,13.17.38,26.47,1.74,39.58.7,6.63,1.63,13.23,2.22,19.87.28,3.22.49,6.44.55,9.68,0,1.62,0,3.24,0,4.87,0,1.21-.5,3.1.35,4.13.65.8,1.81.68,2.72.56,1.41-.19,2.8-.43,4.22-.51,2.26-.14,4.47-.28,6.71-.64.87-.14,1.94-1,.41-.79Z"/><path class="cls-9" d="M1126.07,578.69c0-8.82,6.25-18.91,15.7-18.19a24.54,24.54,0,0,1,6.65,1.79l9.56,3.56a32,32,0,0,1,8.28,4c4.41,3.34,6.55,8.76,6.89,14s-.89,10.45-2.12,15.57c-1.12,4.69-2.91,10.1-7.79,11.62-2.88.9-6.07.12-9.1.41-2.71.25-5.22,1.34-7.85,2-9,2.12-19.34-1.84-24.25-9.29"/><path class="cls-9" d="M1149.69,558.74c0-8.82,6.26-18.91,15.7-18.19a24.73,24.73,0,0,1,6.66,1.8l9.56,3.56a32,32,0,0,1,8.27,4c4.42,3.35,6.55,8.77,6.89,14s-.89,10.45-2.11,15.56c-1.12,4.69-2.92,10.11-7.8,11.63-2.88.9-11.23,4.29-13.48,6.35-6.74,6.19-.84-4.61-3.47-4-9,2.13-19.34-1.84-24.25-9.28"/><path class="cls-9" d="M1157.75,534c0-8.82,6.26-18.91,15.7-18.19a25,25,0,0,1,6.66,1.79l9.56,3.57a31.55,31.55,0,0,1,8.27,4c4.42,3.35,6.55,8.77,6.89,14s-.89,10.45-2.11,15.56c-1.12,4.69-2.92,10.11-7.8,11.63-2.88.89-6.06.12-9.09.4-2.71.25-5.23,1.34-7.86,2-9,2.13-19.33-1.84-24.25-9.29"/><path class="cls-9" d="M1151.93,503.09c0-8.82,6.26-18.91,15.7-18.19a24.91,24.91,0,0,1,6.65,1.79l9.56,3.56a32,32,0,0,1,8.28,4c4.42,3.35,6.55,8.77,6.89,14s-.89,10.45-2.11,15.56c-1.13,4.69-2.92,10.11-7.8,11.63-2.88.89-6.06.12-9.09.4-2.71.25-5.23,1.34-7.86,2-9,2.13-19.34-1.84-24.25-9.29"/><path class="cls-9" d="M1139.54,482.76c0-8.82,6.26-18.91,15.7-18.19a24.54,24.54,0,0,1,6.65,1.79l9.56,3.56a32,32,0,0,1,8.28,4c4.42,3.34,6.55,8.76,6.89,14s-.89,10.45-2.11,15.57c-1.13,4.69-2.92,10.1-7.8,11.62-2.88.9-6.06.12-9.1.41-2.71.25-5.22,1.34-7.85,2-9,2.12-19.34-1.84-24.25-9.29"/><path class="cls-9" d="M1113.75,467.61c0-8.82,6.26-18.91,15.7-18.19a25.08,25.08,0,0,1,6.66,1.79l9.56,3.56a32.05,32.05,0,0,1,8.27,4c4.42,3.35,6.55,8.77,6.89,14s-.89,10.45-2.11,15.56c-1.12,4.69-2.92,10.11-7.8,11.63-2.88.89-6.06.12-9.09.4-2.71.25-5.23,1.34-7.86,2-9,2.13-19.34-1.84-24.25-9.29"/><path class="cls-9" d="M1060.69,472.61c.66-13.26,25.57-22.29,35-21.57,2.31.18,4.1-4.83,13.35-3.55,3.37.47,6.37,2.38,9.56,3.56a32.05,32.05,0,0,1,8.27,4c4.42,3.35,6.55,8.76,6.89,14s-.89,10.45-2.11,15.56c-1.12,4.69-2.92,10.11-7.8,11.63-2.88.89-6.06.12-9.09.4-2.71.25-5.23,1.34-7.86,2-9,2.13-19.34-1.84-24.25-9.29"/><path class="cls-18" d="M1179.2,582.51c-5.49,8.27-12.07,16.49-20.81,21.49-9,5.12-19.59,5-29.59,4.36-19.5-1.15-39-7-54.78-18.7a81.12,81.12,0,0,1-31.36-49.54,112,112,0,0,1-.13-43.32c.41-.89.81-1.82,1.24-2.66,12.8-25,22-31.19,48.65-33.27,16.38-1.44,30.89-9.78,55,2.06,5.19,2.55,10.41,9.12,17,13.13,9.91,6,20.4,15.83,23.95,24.92,6.75,17.32,2.36,41.22,1.75,61.1A101.32,101.32,0,0,1,1179.2,582.51Z"/><path class="cls-2" d="M1032,562.36c.18-8,4.13-11.2,5.78-15.8.38-3.64.84-7.87,1.43-13,.16-1.47.37-2.89.58-4.29a13.12,13.12,0,0,0,.34-2.16c4.15-24.66,14.07-36.51,14.07-36.51a54.94,54.94,0,0,1,51.61-18.71c22.78,3.55,41.52,20.21,50.39,35.64a35.84,35.84,0,0,1,4,25.27c-1.53,7.39-4,12.33-7,20.15,8,.71,15.47,4.63,10.58,18.95-6.74,19.75-19.77,24.38-26.18,17.56-3.77,1.61-5.74,10.11-6.64,14.3-1.73,8-3,21.69,0,29.32l-.52,2.28c-21,25.45-33.28,40.14-90,15.78l22.69-27.61,1.14-5.93a51.75,51.75,0,0,1-9.76-2.76C1036.74,607.64,1031.78,571.73,1032,562.36Z"/><path class="cls-3" d="M1064.37,617.68s21.52,4.68,42.83-5.57c0,0-3.25,6.22-17.85,9.27s-25.47-.17-25.47-.17Z"/><path class="cls-19" d="M1143,563.7c0-.12.09-5.15-1,.86-.56,3,4.26-6.36,6.89-8.08a16.53,16.53,0,0,1,8.55-3c2.16-.22,7,3.74,9,4.64.33.2-2.1-3.23-1.77-3,7.85-16.56,12.29-30.48,2.68-53.55-2.78-6.65-11.43-14.79-14.06-17.38-16-15.56-31.78-18.79-51.69-19.68-23.07-1-46.76,5.71-55.3,27.93-2.06,5.36-2.75,7.64-3,13.36,0,0,2.91-12.37,14.82-17.34s12.53,2,28,4.54c17.93,2.92,25.25-6,38.6,3.6,12.18,8.79,14.13,15,14.13,15,.37,3.44,1.94,6.56,2.85,9.86a28.58,28.58,0,0,1,.7,9.88c-.53,6.84-.79,13.71-2.27,20.42-.91,4.17-2.54,9.64,1.09,13C1142.74,566.31,1141,564.09,1143,563.7Z"/><path class="cls-9" d="M1144.25,563.6a5.11,5.11,0,0,0-.06-1.91,1.41,1.41,0,0,0-2.45-.51c-.79.76-1.16,2.83-1.14,3.83,0,1.26,1.48,1.29,2.33.69a7.56,7.56,0,0,0,1.66-2.06c.83-1.22,1.63-2.45,2.5-3.65a12.84,12.84,0,0,1,2.45-2.85,14.24,14.24,0,0,1,6.81-2.64c1.84-.2,3.36.88,4.86,1.83,1.35.85,2.86,2.24,4.42,2.69.72.21,1.89-.08,2-.95.09-.54-.53-1.21-.79-1.62s-.47-.72-.7-1.09a2.35,2.35,0,0,0-.24-.37c-.16-.18,0-.26-.08,0l-2,1h0a1.7,1.7,0,0,0,2-.72c3-6.24,5.7-12.65,7.14-19.43a51,51,0,0,0-.16-21.37,74.36,74.36,0,0,0-4.06-12.77,34.5,34.5,0,0,0-5.5-8.7,102.3,102.3,0,0,0-13.92-13.92,62.91,62.91,0,0,0-19.39-11,86.7,86.7,0,0,0-21.24-4.1c-14-1.15-28.59-.61-41.58,5.34a43.67,43.67,0,0,0-15.66,11.82A40.18,40.18,0,0,0,1046,490a47,47,0,0,0-3.47,10.24,40.36,40.36,0,0,0-.6,5.7c-.07,1.38,2.33.86,2.58-.19a26.13,26.13,0,0,1,3.34-7.33,23.88,23.88,0,0,1,13.77-10.22,11.65,11.65,0,0,1,6.17-.15,45.44,45.44,0,0,1,6,2.42,49.46,49.46,0,0,0,19.55,4.12c5.65,0,11.14-1.36,16.77-1.58a19.84,19.84,0,0,1,7.53,1.09,32.68,32.68,0,0,1,9,5.53c3.86,3.07,7.75,6.63,10.2,11a4.83,4.83,0,0,1,.71,1.83c.63,4.05,2.65,7.7,3.31,11.74.7,4.37.06,8.89-.26,13.28a109.89,109.89,0,0,1-1.54,13c-.62,3.16-1.66,6.32-1.43,9.58a8.46,8.46,0,0,0,1.4,4.24c.64.9,1.64,2.14,2.88,1.92a1.5,1.5,0,0,0,1.27-1c0-.1,0-.21,0-.31s0-.22,0-.3,0,0,0,0c1.58-.42,1.11-2.16-.46-1.74a2.81,2.81,0,0,0-1.89,1.27,2.14,2.14,0,0,0-.23.73c0,.45-.15.46.15.1l1.18-.55c.26,0,.54.19.49,0s-.39-.36-.53-.51a6.17,6.17,0,0,1-1.55-3.07,13.08,13.08,0,0,1,.09-4.91c.62-3.69,1.57-7.29,2-11,.53-4.35.77-8.74,1.09-13.11a31.05,31.05,0,0,0-1.2-12.31c-.65-2-1.45-3.92-1.94-5.95-.18-.77-.21-1.6-.45-2.36a11.23,11.23,0,0,0-1.34-2.54c-3-4.71-7.43-8.54-11.85-11.85-4.85-3.62-10-5.81-16.17-5.63-5.53.17-10.94,1.55-16.49,1.6a47.49,47.49,0,0,1-19.59-4.3,34.75,34.75,0,0,0-5.82-2.23,14.9,14.9,0,0,0-6.74,0,27.52,27.52,0,0,0-19.91,19.12c-.06.19-.12.39-.16.58l2.58-.19a40.42,40.42,0,0,1,20.22-33.07c11.76-6.61,25.68-7.82,38.9-7.07a99,99,0,0,1,21,3.05,60.42,60.42,0,0,1,18.81,8.9,93.92,93.92,0,0,1,14.44,13.1,57.6,57.6,0,0,1,6.44,8.09,45.36,45.36,0,0,1,4.59,11.13,53.08,53.08,0,0,1,2.24,21.71,66.08,66.08,0,0,1-5.57,18.68c-.69,1.6-1.42,3.17-2.17,4.74l2-.71h0c-.72-.21-1.89.08-2,1-.09.53.53,1.2.79,1.61s.47.73.7,1.09a2.45,2.45,0,0,0,.24.38c.16.18,0,.25.08,0l2-1a11.52,11.52,0,0,1-2.59-1.58c-1.1-.72-2.19-1.44-3.35-2.05a7.94,7.94,0,0,0-3.08-1.08,14.68,14.68,0,0,0-5.23.89,13.82,13.82,0,0,0-6.61,4.09,60.31,60.31,0,0,0-3.72,5.23c-.27.4-.54.81-.84,1.2a2.88,2.88,0,0,0-.3.39c0,.05-.1.09-.12.13-.07.22,0-.06,0,0a19,19,0,0,1,1.88.26s0,0,0-.1a4.27,4.27,0,0,0,.24-1.26c.08-.35.2-.7.25-1,.11-.75.6-.09-.68.14h-1c-.84-.42-.34-.55-.38-.06a4.55,4.55,0,0,0,0,.52,3.54,3.54,0,0,1,0,.86C1141.41,565.05,1144,564.74,1144.25,563.6Z"/><ellipse class="cls-9" cx="1045.99" cy="541.2" rx="4.9" ry="4.91" transform="translate(-51.03 112.78) rotate(-6.03)"/><path class="cls-19" d="M1041.77,536.79a13.23,13.23,0,0,1,9.69-1.08c7.44,1.66,10.59,10.93,10.59,10.93a21.79,21.79,0,0,0-11.49-7.88,25.24,25.24,0,0,0-12,.5C1038.72,538.55,1040.25,537.57,1041.77,536.79Z"/><path class="cls-9" d="M1158.89,572.37a11.1,11.1,0,0,0,1.2-7.69,1.43,1.43,0,0,0-.84-1.12c-2.29-1.12-4.85-.13-6.64,1.47-2.42,2.18-3.91,5.33-5.12,8.29-.19.47.54.48.81.34a2.6,2.6,0,0,1,1.92-.41c.79.32.79,1.59.68,2.29-.37,2.51-2.67,3.46-5,3.39-.25,0-.68.08-.78.35s.08.42.34.42c2.89.09,6.23-1.12,6.62-4.39.13-1.07-.06-2.45-1.25-2.8a4.34,4.34,0,0,0-3.06.55l.81.34a24.39,24.39,0,0,1,4.19-7.31,6.36,6.36,0,0,1,3.4-2.19,3.68,3.68,0,0,1,2,.26c.16.07.31.2.47.26s0,0-.06-.1c0,.12.1.24.14.37.85,2.51.1,5.32-1,7.6-.28.56.91.49,1.12.08Z"/><path class="cls-20" d="M1101.35,548.23a4.9,4.9,0,1,1-3.59-4.5A4.89,4.89,0,0,1,1101.35,548.23Z"/><path class="cls-19" d="M1084.53,550.15s5.64-9.62,16.59-7.91c9.32,1.46,12.14,6.6,13.74,9.77a27.75,27.75,0,0,0-14-7C1092.72,543.43,1084.53,550.15,1084.53,550.15Z"/><path class="cls-11" d="M1066.84,583.16c7,.92,20,1.61,20,1.61s-3,19.09-22.38,16.22c-16.23-2.39-13.33-19.39-13.33-19.39S1059.83,582.23,1066.84,583.16Z"/><path class="cls-21" d="M1066.78,583.15c3.33.44,15.77,1.94,15.77,1.94s-5,10.37-17.08,8.79c-13.08-1.72-11.85-11.79-11.85-11.79Z"/><path class="cls-13" d="M1066.47,584.37c3.34.44,13.56,1.23,13.56,1.23s-4.12,3-14.12,1.72-12.74-5.15-12.74-5.15Z"/><path class="cls-11" d="M1050.26,580.42c0-.36.79-.42,2.47-.34,2.79.14,3.82-.73,5.83-.61,3.45.19,5.45,1.77,6.94,2s3.82-.82,7.2-.12c2,.41,8,1.93,10.76,2.52,1.64.36,3.67,0,4,.12s-2.46,4.39-21.12,1.94S1050.2,580.91,1050.26,580.42Z"/><path class="cls-8" d="M1088,530.78c0-.17.59-.14.6-.32,9.37-1.48,16.38-1.07,18.9-.36a17.66,17.66,0,0,1,5.44,2.71s4.7,3.3,5.21,4.5-3-.83-3-.83a14.42,14.42,0,0,0-2-.85c-4.29-1.1-8.34-2.79-12.77-2.56-3.78.17-9,2-12.74,3.18C1087.66,534.36,1088.1,532.65,1088,530.78Z"/><path class="cls-8" d="M1064.49,529.33c0-.17-.46-.27-.43-.44-7.56-3.54-13.57-4.71-15.87-4.58a14.21,14.21,0,0,0-5.24,1.42s-2.12.37-2.84,1.41a1.14,1.14,0,0,0,.07,1.64,11.82,11.82,0,0,1,1.92-.37c3.89-.1,7.71-.84,11.39.37,3.16,1,7.15,4,10,5.94C1063.92,532.88,1064,531.13,1064.49,529.33Z"/><path class="cls-8" d="M1068.71,571.62a14.56,14.56,0,0,1-6.79,0c-1.68-.35-3.51-.79-4.72-2.09a3.66,3.66,0,0,1-.82-4.27c.37-.67.85-1.26,1.28-1.89a17.27,17.27,0,0,0,1.57-2.78c.2-.44-.7-.39-.85-.07a30.61,30.61,0,0,1-2.59,4.24,3.57,3.57,0,0,0-.54,3.22c1,3.16,4.54,4,7.42,4.42a15.19,15.19,0,0,0,6.19-.25c.55-.16.41-.7-.15-.55Z"/><path class="cls-8" d="M1077.78,567.49c1.43.13,1.3,2.3,1.14,3.29a2.84,2.84,0,0,1-.8,1.76,3.76,3.76,0,0,1-2.81.67c-1.36-.06-2.44-1-3.68-1.47a1,1,0,0,0-.58.06s-.41.2-.27.24c1.23.44,2.29,1.36,3.63,1.5a7.29,7.29,0,0,0,3.55-.47,2.91,2.91,0,0,0,1.72-1.84,6.33,6.33,0,0,0,.2-2.37c-.1-.79-.46-1.62-1.35-1.7a1.25,1.25,0,0,0-.63.12c-.06,0-.32.19-.12.21Z"/><path class="cls-2" d="M1186.51,858.56c-.87,22,4.36,69.41-61.31,72l30-6.45-.63,53.4s-184.48-2.65-190.23-2.79c-11.05-.25-37-15.18-40.66-49.58s24.18-42.76,32.54-49,100.71-35.43,135.88-40.49l85,10.5Z"/><path class="cls-2" d="M1169.53,945.94c2.15-4.67,8-9.48,12.15-11.65s8.92.18,10.21.79c9.57,4.51,14.3,12.77,21.69,20a97.91,97.91,0,0,0,18.86,14.42c7,4.08,14.62,6.32,21.69,10l.15.08a17.07,17.07,0,0,1,7.78,8.51c.56,1.33,1.14,2.64,1.77,3.89.88,1.72,1.86,3,.79,5-2,3.6-8,1.07-9.78.23a2.37,2.37,0,0,0-1-.2c-1.45.07-5.71.06-12.82-1.79-.69-.17-1.36-.3-2-.4l0,.12c-3.78-.76-20.56-2-23.63-2.41-6.06-.83-24.75-7.79-24.75-7.79s-24.66-4.42-33,.23l-8.43-30S1167.38,950.61,1169.53,945.94Z"/><path class="cls-2" d="M1195.68,886c-.87,22,4.36,69.4-61.32,72l30-6.45,2.47,32.28s-164.91,24-193.32,18.33c-11-.25-37-15.18-40.67-49.58s24.18-42.77,32.55-49,100.7-35.43,135.87-40.49l85,10.49Z"/><path class="cls-3" d="M933.14,951.82c-1-9.81.49-19.82,6.11-28.09,4.08-6,9.89-10.47,16-14.16,2.4-1.44,4.87-2.76,7.29-4.17,1.37-.8,2.91-1.95,4.08-2.58a100.67,100.67,0,0,1,12.61-5.25c15.88-5.88,32.08-10.93,48.3-15.79,18-5.39,36.16-10.5,54.5-14.68,3.72-.85,7.46-1.66,11.21-2.38,1.62-.32,3.24-.61,4.86-.88a24.61,24.61,0,0,1,3.23-.53,19.94,19.94,0,0,1,2.55.31l6,.74,42,5.16,33.6,4.13a5.27,5.27,0,0,0,1.11.14s.19,0,.2,0c-.14.25-.8-.61-.18.2l5.9,7.72,2.78,3.64a3.18,3.18,0,0,1,.45.59c-.14-.38-.09.26-.09.42l0,.89c-.07,2.46-.09,4.92-.13,7.37-.23,11.86-1.19,24.08-6.52,34.88A43,43,0,0,1,1176.15,945c-7.14,5.31-15.68,8.33-24.34,10a109.5,109.5,0,0,1-16.75,1.85l.07,1.24,26.41-5.63,3.8-.81c1.16-.24.82-1.44-.32-1.19l-26.42,5.62-3.79.81c-1,.2-1,1.29.07,1.25,18-.72,37.74-4.95,49.9-19.32,8.38-9.9,11.41-22.8,12.27-35.46.36-5.33.34-10.66.48-16a4.25,4.25,0,0,0-.24-2.51c-.73-1.11-1.63-2.13-2.44-3.19l-6.28-8.22a2.34,2.34,0,0,0-2-1.08l-4.5-.55-17.45-2.14-45.41-5.59-14.73-1.81c-.81-.1-1.66-.28-2.48-.3a19.33,19.33,0,0,0-3.68.53q-2.57.42-5.12.92c-17.76,3.41-35.27,8.23-52.63,13.21-17.84,5.11-35.6,10.57-53.13,16.66-5.83,2-11.67,4.08-17.36,6.49a46.58,46.58,0,0,0-4.68,2.22c-1.62.93-3.13,2.05-4.76,3-5.67,3.23-11.37,6.37-16.27,10.73a39,39,0,0,0-12.47,20.93,50,50,0,0,0-.62,15.63c.08.79,1.94.35,1.85-.5Z"/><path class="cls-22" d="M1027.47,792.51c-1.84-19.85-3.46-27.65-5.2-47.47,8.19,1.23,16.4,2.36,24.64,3.33,12.14,1.42,24.31,2.52,36.52,3.21a285.07,285.07,0,0,0,33.2.17c10.8-.66,21.57-1.72,32.39-2.1,9.22-.33,11.32-3,20.41-1.29-2.48,16.26,8.61,37.22,10.11,45.64l9.36,20.55,10,20.73c3.5,9.17,7.46,33.28,8.17,43,7.83,107.11-112.77,80.65-112.77,80.65S1077,929.9,1073.1,922.83l-8.5-13.57c-3.24.23-13.83-20.92-23.21-30.08-20.1-19.6-57.18-25-57.18-25l50.54-32.69Z"/><path class="cls-4" d="M1024.7,682.19c3.36-14.44,5.84-23.57,13.75-36.37,5.06-8.19,15.06-21,24.62-22.23-4,5.71-12.3,18.61-1.29,22.78,20.59,8.24,48.29-4.79,67.88-22.36l13.94,7.45c40.06,15.49,35.2,69.71,34.73,85.31-.31,10,2.87,37.17-1,64.33-9.17-1-16.56-.24-25.68.81-11.68,1.35-23.23,3.55-34.86,5.22-5.59.8-11.21,1.49-16.85,1.85a138.4,138.4,0,0,1-17-.19c-12.36-.73-24.74-1.48-37-3.08a189.88,189.88,0,0,1-19.31-3.41c-.89-9.06-4.4-14.5-5.66-25.56C1018.87,732.29,1019.05,706.5,1024.7,682.19Z"/><path class="cls-22" d="M1035.71,954.65c1.84,1.58,1,4.85-1,6.2s-4.62,1.34-7,1.28l-25.15-.61a16.14,16.14,0,0,1-5.71-.82c-5.06-2.05-6.7-8.41-6.69-13.87s.9-11.27-1.65-16.09c-4.13-7.83-14.6-8.87-23-11.53a12.79,12.79,0,0,1-5.45-2.9c-4.53-4.57-1.65-12.23-2.53-18.6A15.46,15.46,0,0,0,944,884.86c-1.77-.17-3.81-.14-4.93-1.52-1.9-2.34.9-5.57,3.47-7.17,14.37-9,28.9-20.12,45.46-24.42,10.78-2.79,26.35-16.9,37.12-19.69,0,0,41.94,31.27,66.4,60.53s31.6,70,31.6,70c-21,.44-73.81.61-99.75,1-.48-10.23-5.83-18.89-12.73-26.73-4.89-10.12-14.33-18.73-21.94-26.41-6.31-6.37-12.69-12.47-19.25-18.34-6.39-7.53-13.3-14.62-21.46-19.51a114.82,114.82,0,0,1,13.23-8.26"/><path class="cls-23" d="M1178.71,769.53s.66,25.71,2.42,30.45c0,0-42.54,15.13-75.22,16.57s-74-1.87-74-1.87l-5.32-32.38s39.73,7,81.73,3.33S1178.71,769.53,1178.71,769.53Z"/><path class="cls-3" d="M1144.7,643.36c1,0,1.44-1.33.18-1.33-1.05,0-1.44,1.33-.18,1.33Z"/><path class="cls-3" d="M331.53,644.88c1.28-6.06,3.68-12,8.24-16.3,4.06-3.87,9.38-6,14.75-7.26a101.53,101.53,0,0,1,10.4-1.86c.81-.12,1.61-1,.31-.83-11.79,1.62-24.79,4.35-31.4,15.35a36,36,0,0,0-4.14,11.18c-.12.54,1.73.25,1.84-.28Z"/><path class="cls-3" d="M138.42,948.7l11.82-11.11c1.8-1.68,3.66-3.29,5.46-5,3.56-3.34,6.9-6.9,10.34-10.36,6.76-6.81,14.51-14.4,24.26-16.42,5.32-1.1,10.81.1,15.82,2a33.8,33.8,0,0,1,11.24,6.84,30.35,30.35,0,0,1,4.7,5.71,28.49,28.49,0,0,0,4.42,5c1.52,1.45,3.14,3.37,5.19,4a29.83,29.83,0,0,0,5.21,1c5.92.83,11.91,1.2,17.87,1.54,7.47.42,14.95.71,22.43.94,10.35.32,20.71.58,31.07.65h.5c.37,0,1.07-.12,1.22-.52s-.12-.62-.52-.62c-8.91-.08-17.83-.27-26.74-.51-14.1-.39-28.3-.69-42.32-2.27a54.83,54.83,0,0,1-6.25-1,13.56,13.56,0,0,1-1.78-.52,11.72,11.72,0,0,1-2-1.62,54.71,54.71,0,0,1-4.82-4.69c-1.57-1.76-2.7-3.83-4.23-5.62a32.7,32.7,0,0,0-10.84-8.13,36.82,36.82,0,0,0-14.83-3.85c-9.81-.09-18.23,5.7-25.23,12-3.78,3.41-7.29,7.1-10.86,10.73-2.77,2.82-5.65,5.48-8.57,8.15-4.3,3.93-8.5,8-12.74,12l-1.3,1.22c-.81.76,1,.84,1.51.38Z"/><polygon class="cls-24" points="809.99 830.93 927.9 824.02 927.9 1007.25 815.67 994.78 809.99 830.93"/><polygon class="cls-25" points="815.67 811.54 602.91 821.86 602.91 1007.25 927.9 824.02 815.67 811.54"/><polygon class="cls-26" points="715.13 1024.03 927.9 1007.25 927.9 824.02 715.13 836.49 715.13 1024.03"/><polygon class="cls-27" points="715.13 1024.03 602.91 1007.25 602.91 821.86 715.13 836.49 715.13 1024.03"/><path class="cls-28" d="M561.33,886.58c15.65,1.66,30.92,1.71,45.84,8.57,11.27,5.18,19.88,15.17,31.51,19.52,11.42,4.27,16.15-6.59,18.72-14.42,2.32-7.06,4.29-14.32,7.91-20.8s10.64-10.08,15.07-15.88c6.48-8.47,9.65-15.39,20.82-20.58,7.57-3.52,11.77-5.77,21-6.84,4.27-.5,38.39,0,40.2-3.25,1-1.88,3.64-6.69,3.61-8.88-.12-7.77-18.29-5.74-20.76-13.39l-34.87-19.11c-4.64-1.92-27.18-14.57-32-15.87-.81.32-9.71-1.39-10.8-1.37-15.69.3-23.78,1.33-38.77,4.9-10.74,2.56-20.06,7.71-25.93,16.15-6.86,9.88-20.58,7.12-30.18,14.58-10.82,8.41-15,20.24-19.05,32.62a84.39,84.39,0,0,1-19.5,32.15c-.17.18-.35.33-.52.49a3.67,3.67,0,0,0-.28,2.07c.26,1.23,1.46,2.15,2.59,2.92.55.38,1.1.74,1.66,1.1a34.22,34.22,0,0,0,21.31,5.29A12,12,0,0,1,561.33,886.58Z"/><path class="cls-29" d="M537,872.27c6.37,4.56,14.09,6.87,21.79,7.88,8.89,1.18,17.88.41,26.81,1.12,16.37,1.3,32.18,7.78,45.41,17.39,3.65,2.64,7.29,5.4,11.52,7,3.54,1.36,8.14,2.28,11.64.32,1.51-.84.13-2.07-1.1-1.38-3,1.71-7.36.26-10.27-1.09-3.67-1.7-6.9-4.2-10.16-6.56A96,96,0,0,0,612,885.64a89.12,89.12,0,0,0-22.37-5.8c-8.74-1.05-17.57-.35-26.33-1.05-8.55-.69-17.23-2.87-24.29-7.92-.85-.61-3.12.59-2,1.4Z"/><path class="cls-29" d="M541.21,867c12.9,7.46,27.8,7,42.2,6.74a77.88,77.88,0,0,1,12.68.56A68.71,68.71,0,0,1,607.4,877a139.71,139.71,0,0,1,22.39,10.09c8.41,4.53,16.7,9.28,25,13.94a2.4,2.4,0,0,0,1.64-.16c.12-.05,1.14-.49.77-.7-7.45-4.16-14.87-8.37-22.34-12.47a167.06,167.06,0,0,0-21.78-10.39,69.49,69.49,0,0,0-22.83-4.6c-7.47-.16-14.93.48-22.41,0-8.46-.51-16.86-2.32-24.26-6.59-.44-.26-1.21,0-1.64.16-.12,0-1.13.48-.76.69Z"/><path class="cls-29" d="M547.55,858.69c5,1.42,11.11,1.36,15.59-1.63,4.79-3.19,4.36-9.17,1.49-13.55-.36-.56-2,.14-2.42.45a11.28,11.28,0,0,0-4,8.35c-.07,3.27,1.08,6.82,3.81,8.81s6.55,1.91,9.77.84a20.75,20.75,0,0,0,8.6-5.5c2.68-3,2.38-6.85-.24-9.81-.38-.42-2,.21-2.35.54a8.72,8.72,0,0,0-1.89,9c1.08,3.37,3.67,6.81,7.33,7.47,3.42.61,6.85-.94,9.47-3a25.65,25.65,0,0,0,4-4,11.1,11.1,0,0,0,2.4-4c.57-2.24-.41-5.56-3.12-5.89a5.57,5.57,0,0,0-3.85,1.64,4.91,4.91,0,0,0-1.42,3.46c-.09,3.48,2.56,6.55,4.83,8.9,2.46,2.54,5.62,6.09,9.48,6,3.6-.1,7.29-2.65,9.66-5.2A16,16,0,0,0,619,852c0-.14-.41-.15-.44-.15-3-.11-6.6.85-8.27,3.56-1.9,3.09-.16,6.94,1.67,9.61,2.08,3.05,5.16,6.62,9,7.18,3.66.52,7.14-1.58,9.76-3.94a18.54,18.54,0,0,0,3.55-4.29c.69-1.15,1.64-2.66,1.27-4.07-.94-3.46-6-1-7.5.62-4.55,5-.1,12.42,4.42,15.59,3.38,2.37,7.13,1,9.45-2.08a9.55,9.55,0,0,0,2.07-4.76,5.85,5.85,0,0,0-2.29-4.95c-.46-.4-2,.19-2.35.54-3.25,2.92-3,7.52-1,11.13a16.57,16.57,0,0,0,4.87,5.56c2.16,1.55,4.45,1.11,6.69-.05a14.87,14.87,0,0,0,5.5-4.7c1.07-1.56,2.29-3.81,1.23-5.67s-3.38-1.53-5-.74a6.63,6.63,0,0,0-3.72,5c-.87,6,5.63,10.83,10.58,12.59a2.55,2.55,0,0,0,1.63-.17c.09,0,1.15-.55.77-.68-3.83-1.37-7.64-4-9.54-7.67a7.55,7.55,0,0,1-.69-5.62,5.85,5.85,0,0,1,1.35-2.29,5.57,5.57,0,0,1,.51-.46c.17-.14.75-.3.45-.33s.28.22.27.21a3.25,3.25,0,0,1,.71.63c1,1.37.43,3-.25,4.33a12.41,12.41,0,0,1-3.66,4.29c-1,.73-2.1,1.59-3.34,1.14a9,9,0,0,1-2.76-2.07,15.65,15.65,0,0,1-3.42-4.73c-1.5-3.26-1.68-7.35,1.17-9.92l-2.35.54a5.67,5.67,0,0,1,1.6,6.82,12.3,12.3,0,0,1-1.78,2.89,5.26,5.26,0,0,1-1.17,1.23c-.88.5-1.8,0-2.57-.51-3.85-2.36-7.25-7.22-6.56-11.93a6.76,6.76,0,0,1,1.06-2.76,5.58,5.58,0,0,1,1-1.1c.55-.49.85-.79,1.48-.26,2,1.64-.41,4.85-1.5,6.32a17.78,17.78,0,0,1-3,3.14c-1.1.91-2.58,2.18-4.07,2.26-3.09.18-5.89-2.74-7.71-4.88-2-2.34-4-5.28-4-8.45a4.71,4.71,0,0,1,4.87-5.1l-.44-.15a15.39,15.39,0,0,1-3.86,8.9,16.91,16.91,0,0,1-3.95,3.2,4,4,0,0,1-2.9.85,7.59,7.59,0,0,1-2.82-1.35,34.7,34.7,0,0,1-4.26-3.77,24.28,24.28,0,0,1-4-4.89c-1.32-2.27-2.51-6.92.87-8.16l-1.63.17a4.63,4.63,0,0,1,2.37,6.53,18,18,0,0,1-3.3,4.4,17.71,17.71,0,0,1-4.57,3.65c-4.16,2.08-8-2.1-9.49-5.57-1.39-3.22-1.37-7.08,1.2-9.7l-2.35.53a6.8,6.8,0,0,1-.34,9.9c-2.62,2.49-6.54,5.09-10.31,4.13s-5.83-4.51-6.25-8.19a10.81,10.81,0,0,1,3.68-9.6l-2.42.45c2.3,3.51,3.44,8.58.19,11.93s-8.6,2.76-12.63,1.62a2.85,2.85,0,0,0-1.78.34c-.22.11-.87.46-.32.61Z"/><path class="cls-30" d="M876,826.31c-9-4.89-15.33-13.57-24.18-18.8-5.16-3-11-4.73-16.84-6-16.68-3.68-23.8-4-38.81,4.14-2.12,1.16-17.94,4.15-20.06,5.31-3.61,2-15.31,20-13.7,22s11.48.14,14,0c12.36-.72,11.54-2.31,23.27-2.11,0,0,57.62-3,75.26-4.41"/></g><g id="Layer_3" data-name="Layer 3"><ellipse class="cls-31" cx="730.01" cy="125.99" rx="108.04" ry="88.16"/><ellipse class="cls-31" cx="746.14" cy="342.17" rx="124.04" ry="101.22"/><ellipse class="cls-31" cx="188.95" cy="167.35" rx="141.19" ry="115.22"/><path class="cls-2" d="M777.33,401.59c.92-.08,7.24,0,8.07-.42,3.05-1.43,4.59-3.17,5.24-5.91.21-1.14,1.15-5.89,1-7-.33-2.2,0-.74,2-1.75l2.55-1.29a5.23,5.23,0,0,0,2.32-2.24,22.58,22.58,0,0,0,2.12-6.46c.46-3.85-4.84-9.82-4.84-9.82l2.9-1c3.11-1.71,4-3.12,4.08-6.67v-1.68a16.26,16.26,0,0,0-1.54-4.74,5.42,5.42,0,0,1,1.64-6.79c1.77-1.33,3.44-3,3.65-4.62a16.39,16.39,0,0,0-9-15.08,6,6,0,0,0-1.16-.43,249,249,0,0,0-32.59-6.44c-.76-.1-12.59-4.68-13.25-5-5.37,3-.16,8.6-6.47,8.69-5.84.09-11.65-.66-17.47-.91a5.34,5.34,0,0,0-4.69,2.46l0,0a5.72,5.72,0,0,1-1.06,1.19l-27.42,22.86c-1.63,1.35-11,.27-11,2.38,0,23,5.69,49.53,5,49.59s17.29-4.95,23-1.85C710.36,398.71,747.87,404,777.33,401.59Z"/><path class="cls-2" d="M758.2,323.32c-.67-1.09-5.5-7.34-5.51-8.71a7.11,7.11,0,0,1,.09-1.14,106.11,106.11,0,0,0,.75-31.87c-2.09-11.39-8.57-14.2-12.85-14.84a3.32,3.32,0,0,0-3.75,2.82,2.73,2.73,0,0,0,0,.57,177,177,0,0,1-.24,22.33c-.58,3.71-8.81,21.26-14,32C733.45,323.65,749.18,329.17,758.2,323.32Z"/><path class="cls-3" d="M737,348.69a24.56,24.56,0,0,1,12.73,17.6c.1.54,2,.09,1.93-.52a25,25,0,0,0-13.1-17.93c-.48-.25-2.27.48-1.56.85Z"/><path class="cls-3" d="M798.55,346.65a34.31,34.31,0,0,1-6.33,0c-2.64,0-5.29-.05-7.93-.09-4.81-.08-9.61-.21-14.41-.31-3.81-.08-7.62-.08-11.42-.52a11.61,11.61,0,0,1-7.18-3.75,7.4,7.4,0,0,1-1.22-8.17c2.75-6.2,10.27-6.54,16.12-6.54,2.56,0,5.12-.07,7.69-.11l7.28-.1,3.7,0h1.29a7.34,7.34,0,0,1,2.34,0c.46.23,2.24-.49,1.56-.82a4.86,4.86,0,0,0-1.95-.13h-2.27l-2.52,0-8.25.1c-2.41,0-4.82.11-7.23.12-5.38,0-11.35.06-15.91,3.31a10.29,10.29,0,0,0-4.43,6.6,7.93,7.93,0,0,0,2.81,7.22c4.51,4.12,11.08,3.48,16.74,3.62,5.26.13,10.51.23,15.76.34,2.42,0,4.84.07,7.26.1l3.93.05a24.1,24.1,0,0,0,4.25-.1c.27,0,1.09-.22,1.12-.58s-.56-.33-.8-.29Z"/><path class="cls-3" d="M794.42,365.47a37.58,37.58,0,0,1-6.7-.23c-2.79-.14-5.57-.39-8.34-.67-4.51-.46-9-1.09-13.47-1.68-4.33-.58-9.28-1.2-11.9-5.16a8.28,8.28,0,0,1-1.25-6.16,6.41,6.41,0,0,1,1.38-2.83,5.9,5.9,0,0,1,1.26-1.13c.24-.16,1.55-.95,1.75-.84.54.28,2.31-.52,1.54-.92-1.37-.71-3.88.75-5,1.54a7.51,7.51,0,0,0-3,5c-.63,4.59,2.52,8.44,6.63,10a33.06,33.06,0,0,0,7.57,1.55c2.72.37,5.43.77,8.16,1.09,4.17.5,8.36,1,12.55,1.21,2.74.17,5.77.63,8.5.27.92-.12,1.61-1.21.27-1Z"/><path class="cls-3" d="M788.66,383.24a55.25,55.25,0,0,1-8.19-1c-2.2-.34-4.39-.73-6.58-1.1l-10.17-1.7a73.84,73.84,0,0,1-9-1.71c-3.26-1-6.33-3.83-5.72-7.52.68-4,5-6.59,8.9-6,.54.08,2.25-.79,1.21-1-5.51-.83-13.74,3.46-11.86,10.05,1.5,5.28,8.08,5.9,12.58,6.65l18.92,3.16a58.62,58.62,0,0,0,9.12,1.15c.65,0,2.07-1,.78-1Z"/><path class="cls-3" d="M780.55,399.51a89.47,89.47,0,0,1-11.07-4.67c-3.18-1.45-6.34-2.92-9.51-4.4a41.86,41.86,0,0,1-6.51-3.3,5.3,5.3,0,0,1-2.49-4.88,3.81,3.81,0,0,1,1.73-2.56,3.5,3.5,0,0,1,2.25-.54c.06,0,.86.09.93.22.32.52,2.14-.19,1.93-.52-.46-.76-2.28-.62-3-.55a7.56,7.56,0,0,0-4.06,1.6c-2.92,2.36-1.7,6.16,1.08,8a45.12,45.12,0,0,0,6.21,3.13q4.44,2.07,8.9,4.12c3.94,1.81,7.88,3.86,12,5.11.48.15,2.2-.61,1.57-.8Z"/><path class="cls-3" d="M708.33,394.4a22,22,0,0,1-8.62-11,20.29,20.29,0,0,1,.65-13.55c.2-.52-1.7-.3-1.92.28a20.74,20.74,0,0,0-.66,13.79,22.5,22.5,0,0,0,8.75,11.21c.5.36,2.23-.41,1.8-.71Z"/><g id="SXjBRz.tif"><path class="cls-32" d="M729.55,181.05c-5.36-9.05-12.93-16-20.57-22.84s-15.14-13.49-20.91-21.94c-8.54-12.5-9.36-25.94-2.21-36.52,5.44-8,15-11,24.36-9.63,7.35,1.08,12,5.48,16.82,9.9,2.52,2.3,3.6,2,5.72-.17,5.3-5.36,11.14-10,19.17-10.43,19.05-1.13,31,17.09,25.46,34.83-2.93,9.4-8.69,16.75-15.43,23.57-9.26,9.38-20.08,17.18-28.13,27.8C732.48,177.4,731.74,179.71,729.55,181.05Z"/></g></g><g id="Layer_4" data-name="Layer 4"><path class="cls-33" d="M1056.19,429l.56.13a1,1,0,0,1-.08-.37c0-4,26.37-7.41,58.85-7.55s55.08,4.53,58.1,7.24c.18.16.58.25.41.48l21.68,74.21c-107.34,27.21-165,.75-165,.75Z"/><path class="cls-34" d="M1055.54,429.63l.55.12c.51.12,1.89-.15,1.74-.91-.12-.6.1-.75.49-1a8.84,8.84,0,0,1,2.08-1,49.29,49.29,0,0,1,8.39-1.93,238.74,238.74,0,0,1,27.74-2.58c20.81-1,42.07-.89,62.65,2.73a84,84,0,0,1,9.28,2.08,15.25,15.25,0,0,1,4.73,2.15l-.24-.43a7,7,0,0,0,.55,2.23l1.53,5.27,5.17,17.7L1192,494.25l2.68,9.18.92-.88a406.78,406.78,0,0,1-56.9,10.34,316.9,316.9,0,0,1-45.17,1.68,241.46,241.46,0,0,1-33.08-3.4,169.3,169.3,0,0,1-20.76-4.93q-1.62-.5-3.21-1.05c-.81-.28-1.72-.6-2.32-.83s-1.09-.42-1.62-.64c-.16-.06-.64-.37-.8-.34l-.1,0,.23.42,8.65-25.45,13.68-40.23,3.13-9.2c.27-.8-1.91-.53-2.17.24l-8.66,25.46-13.67,40.23-3.13,9.2c-.06.16.09.36.23.43a67.49,67.49,0,0,0,6.75,2.51,158,158,0,0,0,19.41,4.91,238,238,0,0,0,32.16,3.83,311.54,311.54,0,0,0,44-.89,399.73,399.73,0,0,0,56.06-9.19c2.56-.6,5.11-1.23,7.66-1.87.33-.09,1.06-.43.92-.89L1190.13,480l-11.25-38.52L1175.5,430c-.22-.76-.31-1.56-.93-2a15.34,15.34,0,0,0-4.8-2.08c-7.44-2.21-15.33-3.16-23-3.94a315.17,315.17,0,0,0-37.88-1.32,321.76,321.76,0,0,0-35,2.27,95.31,95.31,0,0,0-11.25,2c-2.07.53-4.65,1.12-6.27,2.62a1.86,1.86,0,0,0-.72,1.9l1.74-.92-.55-.12C1056.09,428.2,1054.29,429.34,1055.54,429.63Z"/><path class="cls-33" d="M1187.84,476.18l27,33.09s-26.36,22.35-111.92,17-95.65-25.32-95.65-25.32l32.78-28.64S1111.8,501.72,1187.84,476.18Z"/><path class="cls-34" d="M1186.84,476.66l9.1,11.13,14.6,17.86,3.34,4.09.28-1c-.25.21-.51.4-.77.59l-1,.67-.67.42-.35.22-.23.13a71.76,71.76,0,0,1-10.64,5,129.7,129.7,0,0,1-19.32,5.59,215.74,215.74,0,0,1-29.85,4.09,345.58,345.58,0,0,1-41.59.31c-14.57-.71-29.14-2-43.56-4.15a224.11,224.11,0,0,1-29.37-6.2,101.16,101.16,0,0,1-17.35-6.57,41.82,41.82,0,0,1-8.57-5.53,11.12,11.12,0,0,1-1-.94c-.27-.26-.52-.54-.77-.83a7.72,7.72,0,0,0-.76-1s0-.09-.07-.13l-.28,1,11-9.64,17.7-15.47,4-3.53-1.35.23c9.36,3.84,19.38,6.37,29.23,8.54a241.1,241.1,0,0,0,70.56,5.17,204.5,204.5,0,0,0,48.78-9.79c1.3-.44.93-1.91-.39-1.47-26.59,8.89-54.86,11.78-82.76,9.73a241.56,241.56,0,0,1-54.61-10.29c-3.21-1-6.44-2.06-9.56-3.33a1.47,1.47,0,0,0-1.34.23l-11,9.65-17.71,15.46-4,3.54c-.32.28-.47.57-.27,1a8.93,8.93,0,0,0,1.67,2.06,33.4,33.4,0,0,0,7.07,5.2,85,85,0,0,0,15.29,6.63,188.6,188.6,0,0,0,26.39,6.5,386.39,386.39,0,0,0,40.83,4.9,396.1,396.1,0,0,0,44.79.89,246.36,246.36,0,0,0,32.86-3.44,149.78,149.78,0,0,0,22.1-5.54,85.54,85.54,0,0,0,12.94-5.48,30.16,30.16,0,0,0,5.15-3.21l.18-.15c.26-.22.55-.63.28-1l-9.1-11.13-14.6-17.86-3.34-4.09C1188.21,475,1186.15,475.81,1186.84,476.66Z"/><path class="cls-35" d="M1193.82,488.42s-1,.55-3.16,1.44"/><path class="cls-36" d="M1184.05,492.28c-11.57,3.78-33.85,9-69.19,9.5-41.13.54-67.31-11.92-78.21-18.48"/><path class="cls-35" d="M1033.67,481.42c-1.88-1.26-2.82-2-2.82-2"/><path class="cls-35" d="M1204.11,498.24s-1.1.48-3.23,1.28"/><path class="cls-37" d="M1194.47,501.76c-13.75,4.45-41.61,11.62-79.81,12.12a214.84,214.84,0,0,1-89.58-18.52"/><path class="cls-35" d="M1022,493.91c-2-1-3.1-1.58-3.1-1.58"/><ellipse class="cls-38" cx="1157.97" cy="465.64" rx="3.72" ry="9.2" transform="translate(-4.98 12.59) rotate(-0.62)"/><ellipse class="cls-38" cx="1158.23" cy="489.34" rx="3.72" ry="9.2" transform="translate(-5.24 12.59) rotate(-0.62)"/><ellipse class="cls-38" cx="1146.25" cy="477.82" rx="9.2" ry="3.72" transform="translate(-5.11 12.46) rotate(-0.62)"/><ellipse class="cls-38" cx="1169.95" cy="477.57" rx="9.2" ry="3.72" transform="translate(-5.11 12.72) rotate(-0.62)"/><ellipse class="cls-38" cx="1149.68" cy="469.29" rx="3.72" ry="9.2" transform="translate(2.04 943.57) rotate(-44.66)"/><ellipse class="cls-38" cx="1166.34" cy="486.16" rx="3.72" ry="9.2" transform="translate(-5 960.15) rotate(-44.66)"/><ellipse class="cls-38" cx="1149.72" cy="486.2" rx="9.2" ry="3.72" transform="translate(-9.83 948.48) rotate(-44.66)"/><ellipse class="cls-38" cx="1166.59" cy="469.54" rx="9.2" ry="3.72" transform="translate(6.75 955.52) rotate(-44.66)"/><circle class="cls-39" cx="1157.77" cy="477.7" r="5.63"/><ellipse class="cls-38" cx="1113.42" cy="470.05" rx="3.72" ry="9.2" transform="translate(-5.03 12.1) rotate(-0.62)"/><ellipse class="cls-38" cx="1113.67" cy="493.76" rx="3.72" ry="9.2" transform="matrix(1, -0.01, 0.01, 1, -5.29, 12.11)"/><ellipse class="cls-38" cx="1101.69" cy="482.24" rx="9.2" ry="3.72" transform="translate(-5.16 11.98) rotate(-0.62)"/><ellipse class="cls-38" cx="1125.4" cy="481.98" rx="9.2" ry="3.72" transform="translate(-5.16 12.23) rotate(-0.62)"/><ellipse class="cls-38" cx="1105.12" cy="473.71" rx="3.72" ry="9.2" transform="translate(-13.92 913.53) rotate(-44.66)"/><ellipse class="cls-38" cx="1121.78" cy="490.57" rx="3.72" ry="9.2" transform="translate(-20.96 930.1) rotate(-44.66)"/><ellipse class="cls-38" cx="1105.17" cy="490.62" rx="9.2" ry="3.72" transform="translate(-25.79 918.44) rotate(-44.66)"/><ellipse class="cls-38" cx="1122.03" cy="473.96" rx="9.2" ry="3.72" transform="translate(-9.22 925.48) rotate(-44.66)"/><circle class="cls-39" cx="1113.21" cy="482.12" r="5.63"/><ellipse class="cls-38" cx="1069.37" cy="463.94" rx="3.72" ry="9.2" transform="translate(-4.97 11.62) rotate(-0.62)"/><ellipse class="cls-38" cx="1069.63" cy="487.65" rx="3.72" ry="9.2" transform="translate(-5.23 11.63) rotate(-0.62)"/><ellipse class="cls-38" cx="1057.65" cy="476.13" rx="9.2" ry="3.72" transform="translate(-5.1 11.5) rotate(-0.62)"/><ellipse class="cls-38" cx="1081.35" cy="475.88" rx="9.2" ry="3.72" transform="translate(-5.1 11.75) rotate(-0.62)"/><ellipse class="cls-38" cx="1061.08" cy="467.6" rx="3.72" ry="9.2" transform="translate(-22.34 880.8) rotate(-44.66)"/><ellipse class="cls-38" cx="1077.74" cy="484.46" rx="3.72" ry="9.2" transform="translate(-29.39 897.38) rotate(-44.66)"/><ellipse class="cls-38" cx="1061.13" cy="484.51" rx="9.2" ry="3.72" transform="translate(-34.22 885.72) rotate(-44.66)"/><ellipse class="cls-38" cx="1077.99" cy="467.85" rx="9.2" ry="3.72" transform="translate(-17.64 892.76) rotate(-44.66)"/><circle class="cls-39" cx="1069.17" cy="476.01" r="5.63"/><path class="cls-2" d="M1113.49,674c-3.35,9.62-33.82,67.8-45,90.84l-86.41-44.13-6.93,16.46c1.28,1.22-12.39-6.06-11.09-4.87,3.46,3.16,22.61,22.62,26.16,25.68,5.06,4.38,11,11.95,16.25,16.13,6.09,4.87,9.37,9.9,15.72,14.43,15.53,11.07,32.66,24.8,52.69,24.72a40.57,40.57,0,0,0,20.65-6.08c11.6-7.16,20.3-25.34,27.11-36.58,10.81-20.56,23.09-45.47,30.36-60.33l-5.42-56.65C1119.89,635.31,1113.49,674,1113.49,674Z"/><path class="cls-4" d="M1121.31,638.19a79.82,79.82,0,0,0-12.81,12.31c-9.22,11-15.86,23.94-22.42,36.73-2.6,5.07-5.16,11.37-2,16.12a16.29,16.29,0,0,0,4.82,4.25c20.21,13.48,42.52,27.54,66.73,25.47l2.81-1.48c8.57-19.74,9.39-42,7.38-63.43-.48-5-4.58-15.34-3.1-20.28C1149.25,637.12,1138,632.65,1121.31,638.19Z"/><path class="cls-22" d="M1096.07,712.13a16.72,16.72,0,0,1-4.13-2.3c-.44-.33-1.42-.91-1.64-1.46-.4-.94.13-2.74.36-3.67a37.44,37.44,0,0,1,1.56-4.58c2.39-6,4.36-12.19,7.1-18.09,2.08-4.44,4.44-8.73,6.85-13,2.88-5.09,5.09-10.72,9.28-14.93,5.68-5.71,14.19-9.22,22.25-7.69a1.63,1.63,0,0,0,1.12-.2c.11-.07.58-.38.19-.45-6.74-1.28-13.66.56-19.45,4.09a28.29,28.29,0,0,0-7.76,6.86,54.81,54.81,0,0,0-4.76,8c-2.46,4.74-5.22,9.3-7.62,14.08q-2.39,4.74-4.37,9.68c-1.35,3.36-2.39,6.83-3.74,10.19-1.17,2.92-3,6.5-2.63,9.74.1.78.83,1.23,1.42,1.71a17.41,17.41,0,0,0,4.65,2.64c.38.14,1.83-.45,1.32-.65Z"/><path class="cls-22" d="M1141.41,733.25a14.85,14.85,0,0,0,7.34.41c2.24-.37,5-.18,6.66-1.95a22.41,22.41,0,0,0,2.34-3.36c1-1.5,1.93-3,2.86-4.53q2.37-3.86,4.51-7.85c4.39-8.27,7.79-17.1,8.65-26.48a66.86,66.86,0,0,0-.33-14.14c0-.36-1.66,0-1.61.43a61.73,61.73,0,0,1-1.23,23c-2.43,9.4-7.08,18.09-12.17,26.29q-1.38,2.21-2.8,4.38a15.64,15.64,0,0,1-1.68,2.37,4.27,4.27,0,0,1-2.76.87c-1.22.14-2.43.41-3.65.54a11.31,11.31,0,0,1-4.82-.62c-.39-.13-1.83.49-1.31.66Z"/><path class="cls-3" d="M1067.78,765.79a57.38,57.38,0,0,1,8.83,21.46c.19,1,2.21.48,2-.54a58.55,58.55,0,0,0-9-21.84c-.55-.81-2.47,0-1.84.92Z"/><path class="cls-22" d="M1021.32,708.7c0-6.71,0-13.42.23-20.13s.39-13.49,1.22-20.17c0-.2-1.45-.06-1.51.4-.82,6.68-1,13.45-1.21,20.17s-.23,13.42-.23,20.13c0,.26,1.5,0,1.5-.4Z"/></g><g id="Layer_5" data-name="Layer 5"><path class="cls-40" d="M1129.65,620.24c-4,8.61-8.37,17.44-14.49,24.78a43.47,43.47,0,0,1-12,9.84,112.58,112.58,0,0,0-13.69,8.64,84.42,84.42,0,0,0-8.84,8.07c-2.52,2.61-5.22,5-7.94,7.44-6.75,6-13.7,11.72-20.61,17.5-1.26,1.06-2.56,2.09-3.79,3.2a53.14,53.14,0,0,0-4.75,5.19,37.15,37.15,0,0,1-4.94,5.09,14.4,14.4,0,0,1-7,3c-10.79,1.74-22-2.38-32.44,2-4.76,2-9.33,4.46-13.94,6.75-6.65,3.32-13.33,6.59-20.13,9.6a132.81,132.81,0,0,1-20.22,7.44,36.85,36.85,0,0,1-8.14,1.3,10,10,0,0,1-5.62-1.18c-1.95-1.24-2.35-3.62-2.45-5.77a47.39,47.39,0,0,1,1.09-10.88c1.41-7.51,3.69-14.83,5.17-22.33.12-.6.24-1.21.32-1.83,0-.15.18-.68.11-.79s-.29.37-.34.29,0,0,.1,0a3.83,3.83,0,0,0,1.07,0l1.75.07c3.27.16,6.53.36,9.79.53,1.25.07,2.51.14,3.76.16a4.41,4.41,0,0,0,.89,0c.59-.1.59-.44.7-1A18.24,18.24,0,0,1,960,686.57q6.6-5.22,13.22-10.4a52.52,52.52,0,0,0,4.54-3.58c.46-.46.81-1.06,1.24-1.55a22,22,0,0,1,2.13-2.19,26.85,26.85,0,0,1,5-3.51c7.31-4.07,15.74-5.4,23.51-8.29a34.81,34.81,0,0,0,10.09-5.48,21.71,21.71,0,0,0,3.95-4.23,46.55,46.55,0,0,0,3.75-7,31.18,31.18,0,0,1,4.47-7.41A19.25,19.25,0,0,1,1037,629a40,40,0,0,1,13.28-4,91.7,91.7,0,0,1,12.83-.9.5.5,0,0,0,0-1c-8.82.09-18.45.72-26.39,4.94a20.53,20.53,0,0,0-5.12,3.75,26.21,26.21,0,0,0-4.31,6.59,78.74,78.74,0,0,1-3.94,7.71,20.7,20.7,0,0,1-4.06,4.6c-6.38,5.41-15.1,7.07-22.88,9.48A54.42,54.42,0,0,0,985,664.82a27.33,27.33,0,0,0-4.86,3.56,22.25,22.25,0,0,0-2.11,2.23,14.69,14.69,0,0,1-1,1.31,59.88,59.88,0,0,1-4.85,3.82l-8,6.26c-1.68,1.33-3.37,2.64-5,4a20.32,20.32,0,0,0-3.94,4.08,17.69,17.69,0,0,0-2,3.47,16.5,16.5,0,0,0-.64,1.7c-.14.43-.63,1.52-.49,1.95.06.16.14.2.29.12,0,0-.1,0-.13,0h-.48c-.49,0-1,0-1.47,0-1.52-.06-3-.15-4.54-.23-3.11-.17-6.23-.38-9.34-.48-.47,0-1.58-.23-1.93.21s-.2,1.07-.27,1.46c-.11.68-.24,1.35-.38,2-.74,3.54-1.67,7-2.54,10.55-1,4.11-2,8.24-2.73,12.41a41.57,41.57,0,0,0-.85,10.55c.18,2.2.74,4.43,2.62,5.77A9.87,9.87,0,0,0,936,741c6,.12,12-2,17.6-4,7.21-2.61,14.22-5.78,21.13-9.07,6.18-3,12.27-6.05,18.41-9.08,2-1,4-2,6.11-2.89a32.39,32.39,0,0,1,13.19-2.22c6.31.08,12.65,1.12,18.95.21a15.56,15.56,0,0,0,7-2.57,29.59,29.59,0,0,0,5-4.76c1.58-1.83,3.08-3.73,4.79-5.43,1.26-1.25,2.66-2.35,4-3.49q4.92-4.11,9.84-8.23c6.49-5.47,13.2-10.87,19.1-17a79.05,79.05,0,0,1,16.46-13.32c4.19-2.5,8.6-4.63,12.43-7.69,5.37-4.29,9.37-10.06,12.82-15.93,2.82-4.8,5.31-9.79,7.67-14.83.27-.58-.59-1.09-.86-.51Z"/><circle class="cls-40" cx="1130.08" cy="621.27" r="5.31"/><circle class="cls-40" cx="1110.06" cy="649.39" r="2.86"/><circle class="cls-40" cx="1096.86" cy="658.92" r="5.31"/><circle class="cls-40" cx="1122.04" cy="637.36" r="5.31"/><circle class="cls-40" cx="1081.94" cy="672.2" r="2.86"/><circle class="cls-40" cx="1068.9" cy="679.75" r="5.31"/><circle class="cls-40" cx="1057.54" cy="692.97" r="2.86"/><circle class="cls-40" cx="1016.86" cy="714.47" r="2.86"/><circle class="cls-40" cx="929.41" cy="737.47" r="2.86"/><circle class="cls-40" cx="1045.37" cy="703.84" r="5.31"/><circle class="cls-40" cx="986.84" cy="665.74" r="2.86"/><circle class="cls-40" cx="1005.02" cy="657.56" r="5.31"/><circle class="cls-40" cx="1031.53" cy="714.47" r="5.31"/><circle class="cls-40" cx="999.06" cy="714.67" r="5.31"/><circle class="cls-40" cx="943.21" cy="739" r="5.31"/><circle class="cls-40" cx="929.75" cy="720.69" r="5.31"/><circle class="cls-40" cx="949.98" cy="720.69" r="5.31"/><circle class="cls-40" cx="958.79" cy="687.65" r="5.31"/><circle class="cls-40" cx="974.62" cy="676.34" r="5.31"/><circle class="cls-40" cx="1019.72" cy="650.74" r="2.86"/><circle class="cls-40" cx="1027.33" cy="637.36" r="5.31"/><circle class="cls-40" cx="1054.68" cy="623.59" r="5.31"/><circle class="cls-40" cx="1039.71" cy="628.19" r="2.86"/><path class="cls-2" d="M995.48,729l-10.73,8.62-8.32,6.68s-20.61-7.79-24.36-12S940,718.88,940,718.88a7.52,7.52,0,0,1-3.17,4,7.34,7.34,0,0,1-5.77.44l1.58-10.42c-3.92,1.94-4.58-2.78-4.58-2.78l2.05-8.57c-4.75,2.63-5.75-3.48-5.75-3.48l5.46-9.66a17.2,17.2,0,0,1-6.63-.08c-2.64-.81-.38-4.55-.38-4.55l18.34-6.19,24,11.42,23.71,34.75Z"/><path class="cls-3" d="M1067.32,765.46c.41,0,1.15-.12,1.33-.57s-.14-.69-.57-.69-1.16.13-1.33.58.14.68.57.68Z"/><path class="cls-3" d="M938.13,719a5.69,5.69,0,0,1-7.31,3.7l.4.49,1.58-10.42c.11-.71-1.09-.53-1.43-.38-1.58.73-2.53-.36-3-1.82-.06-.19-.15-.87-.17-.6a7.06,7.06,0,0,1,.27-1.1l1.78-7.45c.17-.69-1.13-.53-1.43-.37-1,.54-1.92.72-2.82-.12a5,5,0,0,1-1.22-2.07c-.08-.23-.11-.5-.21-.73s.07-.46-.13,0c.18-.37.41-.73.61-1.09l4.85-8.57c.3-.54-.44-.75-.83-.68a16.81,16.81,0,0,1-4.25.22c-1-.09-2.52,0-2.74-1.31a4.55,4.55,0,0,1,.81-2.86l-.8.52,18.34-6.19-1,0,20,9.51c.49.23,1,.49,1.46.7s.12,0,.46.28a39.25,39.25,0,0,1,3.59,3.22,33.55,33.55,0,0,1,2,3l3.81,5.58,6.43,9.42c.43.62,2.38-.08,1.87-.83l-9.91-14.51a22,22,0,0,0-3.32-4.33,27.59,27.59,0,0,0-3-2.69,15.7,15.7,0,0,0-1.71-.81l-18.21-8.67a18.16,18.16,0,0,0-1.84-.87,3,3,0,0,0-2,.3l-9.41,3.17c-2.62.89-5.3,1.66-7.88,2.66-1.34.52-2,2.82-1.71,4.14s1.46,1.57,2.58,1.75a18.85,18.85,0,0,0,6.18-.06l-.83-.68-2.43,4.29a59,59,0,0,0-2.93,5.19c-.42.95.33,2.33.85,3.14,1.41,2.23,4,2.19,6.16,1.06l-1.43-.37-.91,3.8a37.11,37.11,0,0,0-1.11,4.63,4.08,4.08,0,0,0,.82,2.48c1.21,1.79,3.41,1.61,5.17.8l-1.44-.37-1.58,10.42c0,.28.18.42.41.49a8.4,8.4,0,0,0,10.56-5.11c.28-.75-1.76-.52-2,.22Z"/><path class="cls-3" d="M953.68,687.26a38.12,38.12,0,0,0-4.73-1.93c-1.81-.62-3.81-1.31-6-1.83a29,29,0,0,0-6.22-.92,3.87,3.87,0,0,0-2.84.93,17.15,17.15,0,0,0-1.7,1.71,10.87,10.87,0,0,0-2.75,3.79c.13.09,1.21-1.2,3.3-3.17.52-.48,1.11-1.05,1.71-1.54a3,3,0,0,1,2.21-.59,33.55,33.55,0,0,1,6,1c2.1.52,4.05,1.16,5.88,1.74s3.45,1.07,4.73,1.62a13.55,13.55,0,0,1,3.68,2.55A6,6,0,0,0,953.68,687.26Z"/><path class="cls-3" d="M950.55,697.2c-2.52-1-5.85-2.76-9.86-4.08a7.49,7.49,0,0,0-3.24-.55,10.19,10.19,0,0,0-2.7,1.35,9.92,9.92,0,0,0-3.59,3.43,19.64,19.64,0,0,0-1.12,3.09,9.07,9.07,0,0,0-.29,1.16,4.28,4.28,0,0,0,.69-1,21.54,21.54,0,0,1,1.41-2.83,9.82,9.82,0,0,1,3.5-3,10.78,10.78,0,0,1,2.32-1.12,7.24,7.24,0,0,1,2.68.54c3.87,1.28,7.32,2.92,9.94,3.73a11.33,11.33,0,0,0,4.37.88A33.45,33.45,0,0,0,950.55,697.2Z"/><path class="cls-3" d="M933.73,710.05a5.43,5.43,0,0,1,1.68-2.71,3.91,3.91,0,0,1,3.57-.61,12.59,12.59,0,0,1,3.66,1.84l3,1.9c.76.47,1.51.85,1.93,1.14s.5.53.59.57.15-.42-.28-.9a16.05,16.05,0,0,0-1.84-1.55l-2.85-2.1a11.9,11.9,0,0,0-4-2.1,4.93,4.93,0,0,0-4.58.93,6,6,0,0,0-1.77,3.32,6.76,6.76,0,0,0,0,3.33C933,713.14,933.11,711.85,933.73,710.05Z"/><path class="cls-2" d="M979.38,504.78a5.31,5.31,0,0,1,1.48-3.76l5.1-5.31,8-14s23-12.42,25.26-9.2c2.55,3.61-6.25,9.43-6.25,9.43s15.4,3.51,19.85,4.08,6.64,7.3,1.49,7.55a67.64,67.64,0,0,1-10.16-.35s4.5,2.71,4.64,5.53-4.72,3.21-4.72,3.21l-12.75-9-12.45,9.59s-4.57,10-2,12.46,7.39,0,7.76-1.23c.66-2,2.86-6.55,4.26-9.65a44.52,44.52,0,0,0,7.62,5.51,126,126,0,0,1-3.27,12.42s.76,18.79-.57,22.48c-.83,2.26-4.86,6.16-7.87,8.82-.1,0-3,2-3.15,2.09-.13.66-.57,2.69-1.28,5.74L979,550.55c.35-2.81.64-8.58.94-9.49Z"/><path class="cls-2" d="M990.8,505.14c3.46-6.65,14.9-9.42,20.24-10.07.34,0,1.88,2.8,2,3.13s-2.42,1.94-2.68,2.21c-3,3.11-6.77,5.51-9.6,8.8s-4.67,8-3,12a18.62,18.62,0,0,0,2.11,3.39,55.17,55.17,0,0,1,6.29,11.6s-11.52.36-16.4-3.58"/><path class="cls-3" d="M1007.68,535a57.22,57.22,0,0,0-5.09-9.87c-2-3-4.36-5.62-3.87-9.49.44-3.49,2.54-6.37,4.91-8.84.63-.67,1.31-1.28,2-1.89.44-.39.87-.79,1.3-1.19s1-1.06,1.22-1.2c1.45-1.09,3.05-2,4.52-3.06,1-.73,1.39-1.12,1.38-2.16,0-4.4-6.95-2.89-9.54-2.35-5.58,1.18-11.31,4-14.12,9.16-.5.94,1.51.88,1.89.17,2.41-4.48,7.19-6.85,12-7.95,1.89-.44,4.77-1.19,6.65-.45,1.23.49.93,1.3,1.09,2.31.07.46-.15,0,.11-.13-.06,0-.1.13-.17.16a4.36,4.36,0,0,0-.73.55c-.8.58-1.61,1.12-2.43,1.66a27.1,27.1,0,0,0-3.75,3c-3.66,3.47-7.65,7.06-8.32,12.38-.45,3.64,1.34,6.15,3.29,9a55.18,55.18,0,0,1,5.7,10.7c.33.82,2.31.25,2-.54Z"/><path class="cls-3" d="M988.28,495.92c3.28-3.72,6.61-7.27,11.08-9.56,4.21-2.16,8.86-3.3,13.43-4.44,1.18-.3,1-1.11-.22-.81-4.91,1.23-9.87,2.51-14.41,4.82-4.71,2.42-8.25,6.12-11.71,10-.49.56,1.46.37,1.83-.05Z"/><path class="cls-3" d="M1011.64,493a57.86,57.86,0,0,1,11.32.12,2.14,2.14,0,0,0,1.41-.38c.31-.23.27-.45-.13-.49a60.7,60.7,0,0,0-11.75-.12,2,2,0,0,0-1.34.49c-.25.34.23.4.49.38Z"/><path class="cls-2" d="M473.1,606,345,587.4s-3.92-1.32-4.64-3.48c-9.79,6.34-15.07,1.68-21,11.55-8.64,14.29-4.16,46.55-4.55,63.3,0,.81-6.71.74-10.58,1a33.58,33.58,0,0,0,12.1,6.77c6.57,1.91,2.44,2.48,9.22,3.08,10.44.93,31.71,2,42.21,2.35s20.9.51,31.36.43c20.73-.14,41.46-1.06,62.13-2.55,19.57-1.4,39.1-3.31,58.58-5.58,17.27-2,34.5-4.32,51.71-6.79q10.69-1.54,21.4-3.16Z"/><path class="cls-2" d="M248.85,417.73c.63-37,33.81-47.72,59.74-39.67,13.13,4.07,19.87,31,19.87,31,17.26,48.6,30.9,163.6,33.59,190-4.59,1.67-10.54.35-14.67,3-14.44,9.13-26.09,22.71-34.06,37.74-4,7.45-6.19,6.31-7.88,14.69-17-16.52-23.91-33.84-29.48-55.89-8.37-33.2-13.1-67-18.25-100.81C253.71,471.57,248.4,444.33,248.85,417.73Z"/><path class="cls-16" d="M327.9,353.67s-65.7.13-77.39,35.31-.79,114.58-.79,114.58,72.67.57,108.25-13.62S327.9,353.67,327.9,353.67Z"/><path class="cls-17" d="M289.86,369.7a33,33,0,0,1,14.54,1.44,51.47,51.47,0,0,1,14.28,6.93,43.82,43.82,0,0,1,10.55,10.84,142.5,142.5,0,0,1,9,14,113.09,113.09,0,0,1,10.52,25.91,194.42,194.42,0,0,1,4.78,26.68c1.49,12,2.69,24.12,4.45,36.14l1.36-1.23-9.17,2.91c-.46.14-1.54.55-1.36,1.22s1.35.52,1.79.38l9.17-2.9c.51-.16,1.46-.53,1.36-1.23-1.62-11.06-2.78-22.18-4.1-33.29a220.44,220.44,0,0,0-4.66-27.73,113.48,113.48,0,0,0-10.22-26.31,141,141,0,0,0-8.58-13.79c-3.07-4.38-6.18-8.48-10.47-11.75a53.19,53.19,0,0,0-15.74-8.18,37.07,37.07,0,0,0-17.09-1.81c-.55.09-1.69.38-1.78,1.08s.89.77,1.36.69Z"/><path class="cls-2" d="M348.36,660.19s-11.29,14.35-37.36,7.73-32.27-56.23-34.48-77.44c-2.26-21.75,65.32,7.67,65.32,7.67Z"/><path class="cls-3" d="M325.9,620c3.76-12.32,11.08-25.76,24.53-29.15a32,32,0,0,1,11.78-.55,2.06,2.06,0,0,0,1.54-.41c.28-.29.31-.61-.18-.67-7.18-.87-14.54.07-20.89,3.69-6,3.4-10.42,8.78-13.69,14.73a66.12,66.12,0,0,0-5.25,12.67c-.2.65,1.95.36,2.16-.31Z"/><path class="cls-2" d="M563.14,655.68l61.61-.4,26.72-12.5a223.55,223.55,0,0,0,26.32-7.63c3.5-2.21,2.38-4.49,1.39-6.16s-21.79-.14-21.79-.14,27.73-5.81,31.27-9.91.89-7.81-1.25-9.69-45.77,10.89-45.77,10.89l17.31-9s25.48-2.53,30.55-6.94.43-11.35.43-11.35l-30.84,4.76-21.33,4.34,21-8.06s22.21-3.31,25.86-8.44-3-9.33-3-9.33l-32.37,3.27-33.58,10.89a52,52,0,0,0,8.19-12c3-6.48-1-5.11-1-5.11L593.72,583,568,617.47Z"/><path class="cls-2" d="M701.64,623.41l-24.85,5,13,3.75a69.3,69.3,0,0,1,17.32.86c3.35,1.62,2,6.9,2,6.9l-44.94,2.21-22,4.13a24.23,24.23,0,0,1-22.8-8l-22.58-26.12,11.8-20.11,10.23-22.14,7.5-11.12,15.82-12.45s6.28,2.64,1.53,10.4-7.89,12.11-7.89,12.11l-4,13.55,5.42,3.47,41.69-6.16,12.55-6.59s9.49-12,19.85-10.75a2.11,2.11,0,0,1,1.05.48,2.09,2.09,0,0,1,.23,3l-18,20.68-13.94,6,16.57-2.33s18.16-12.4,26.5-12.6,4.93,4.89,4.93,4.89l-21.12,19.61-23.16,8.31,16.92-1.85,20.8-7.12s6.58-1.94,7.94,2.74a4.07,4.07,0,0,1-1.59,4.59Z"/><path class="cls-41" d="M736.42,560.1s21.34-13.35,36.83-28.16C773.25,531.94,756.92,541.47,736.42,560.1Z"/><path class="cls-41" d="M742.23,574.13s33.93-.24,58.71-7C800.94,567.14,774.7,568.77,742.23,574.13Z"/><path class="cls-41" d="M740,591.58s25.89,10.6,47,13.38C787,605,766.51,597.85,740,591.58Z"/><path class="cls-41" d="M707,548.9s-3.35-28.7-8.25-45.08A237.22,237.22,0,0,0,707,548.9Z"/><path class="cls-41" d="M693,554.89s-17.88-27.31-31.07-41.34A267.08,267.08,0,0,0,693,554.89Z"/><path class="cls-41" d="M723.08,550.7s16.25-30.28,22-54.87C745.1,495.83,733.69,518.07,723.08,550.7Z"/><path class="cls-17" d="M260.16,504.22a40.74,40.74,0,0,1-7.24.22,30,30,0,0,0-3.55.09c-.65.06-1.29.17-1.94.23-1,.09-1.53,0-1.72-1.09a20.32,20.32,0,0,1,.07-3.82c0-1.62,0-3.24,0-4.86-.08-3.08-.29-6.15-.57-9.22-1.12-12.32-2.92-24.57-4-36.89a91.69,91.69,0,0,1,.16-21.14c.13-.89-3-.32-3.12.51-1.85,12.92.34,25.89,1.66,38.74.68,6.63,1.61,13.23,2.2,19.87.29,3.23.51,6.46.57,9.7,0,1.62,0,3.24,0,4.86,0,1.14-.41,2.77.17,3.84.65,1.22,2.26,1.07,3.42.91a30.74,30.74,0,0,1,4.69-.34,48.75,48.75,0,0,0,8.71-.3c.38-.06,1.82-.37,1.83-.91s-.9-.46-1.28-.4Z"/><path class="cls-3" d="M615.75,588.55a17.93,17.93,0,0,0-4.62.32,13.12,13.12,0,0,0-4.74,1.52c-3.5,2.12-7.07,4.52-9.07,8.2-.31.57.28,1,.78,1a1.81,1.81,0,0,0,1.72-.79c1.73-3.18,4.83-5.2,7.83-7.06a5,5,0,0,1,1.38-.65,17.4,17.4,0,0,1,2-.47,14.36,14.36,0,0,1,3.76-.28,1.8,1.8,0,0,0,1.72-.79c.27-.58-.24-1-.78-1Z"/><path class="cls-3" d="M428.56,674c15.62-.62,31.22-1.95,46.77-3.57s30.88-3.56,46.27-5.7q18.14-2.53,36.21-5.43,5.7-.92,11.4-1.87c1.73-.3,3.53-.48,5.24-.9.12,0,.52-.08,0,0a3.65,3.65,0,0,1,.47,0l3.1,0,12.31-.11,28.75-.27,4,0a6.61,6.61,0,0,0,2.13-.17c2.68-1,5.26-2.47,7.85-3.68l13.58-6.35,4.45-2.08c2.11-1,4.59-1.23,6.85-1.81q7.37-1.87,14.6-4.26c2.94-1,9-2.06,8.71-6.28-.11-1.61-.82-3.08-2.46-3.25a25.18,25.18,0,0,0-4.51.09c-9.22.67-18.41,2.16-27.54,3.58l-2.06.33,0,1.23q8.64-2.05,17.2-4.38c4.66-1.25,9.31-2.56,13.92-4a87.55,87.55,0,0,0,10.67-3.85,10.67,10.67,0,0,0,2.91-1.76,6.4,6.4,0,0,0,1.29-7.68c-.67-1.27-1.78-3-3.34-3.2a11.49,11.49,0,0,0-2.87.16c-8,1.1-15.92,3.46-23.71,5.55q-6.12,1.65-12.24,3.38l-4.29,1.23a14.15,14.15,0,0,0-2.41.69,1.91,1.91,0,0,1-.34.1l.6,1.09,9.92-5.18,6-3.14c.3-.16,1.09-.4,1.3-.68s-.6.06-.43.11a1.65,1.65,0,0,0,.44,0c4.3-.37,8.6-1,12.86-1.76,5.26-.89,11-1.76,15.81-4.08,2.68-1.28,4.79-3.54,4.93-6.65a11.83,11.83,0,0,0-2-6.83c-.16-.23-.62-.25-.86-.21l-22.73,3.51c-6,.93-11.86,2-17.79,3.22l-11.94,2.43.59,1.09,11.7-4.5,7.21-2.77c.61-.24,1.26-.43,1.85-.71s-.88.13.09,0a110.2,110.2,0,0,0,15.13-3.27c4.43-1.28,13.1-3.46,12.57-9.59a8.48,8.48,0,0,0-4.09-5.91c-.76-.44-1.89-.13-2.73,0l-15.14,1.53-14.27,1.45a29.4,29.4,0,0,0-6,1.64l-28.35,9.19-.66.22,1,.81a53.53,53.53,0,0,0,6.58-8.91,30.72,30.72,0,0,0,2.4-4.8,5.46,5.46,0,0,0,.46-3c-.43-1.78-2.57-1.4-3.88-1l-20.31,6.87-7.84,2.65c-1.28.43-1.81,1.44-2.59,2.5l-13.22,17.69-7,9.44a64.22,64.22,0,0,0-3.91,5.24c-.06.09-.13.17-.2.26l1.41-.61L559,615.67l-22.67-3.07L509,608.91l-23.62-3.2-7.8-1.06c-1.22-.16-2.48-.42-3.71-.5l-.17,0c-.89-.12-2.24,1.11-.81,1.31l9.39,1.27L505,609.78l27.31,3.7,23.61,3.19,7.8,1.06c1.23.17,2.48.43,3.72.5l.16,0a1.65,1.65,0,0,0,1.41-.61l22.58-30.24,3.15-4.22-.84.54L610,578.26l10.15-3.43c.85-.28,1.69-.59,2.55-.86l.27-.09c.24-.07.21-.18.39,0,1.55,1.1-.74,4.95-1.4,6.16a51.42,51.42,0,0,1-7.2,10.17c-.65.72.47,1,1,.81l24.81-8c2.92-.94,5.83-2,8.77-2.84-.64.19.27,0,.47,0l2.07-.21,6.78-.69,16.65-1.68,5.23-.53c.14,0,.77,0,.87-.09-.34.35-.94-.43-.34.14.37.36.81.66,1.18,1,2.19,2.16,3.36,5.57.8,8-1.77,1.67-4.44,2.54-6.7,3.3a107.6,107.6,0,0,1-16.15,3.79,41,41,0,0,0-7.85,2.64l-14.15,5.44-.94.36c-1.22.47-.38,1.28.59,1.08l21.16-4.3c.42-.08-.42.06.13,0s.84-.13,1.25-.19l5.17-.8,14.54-2.25,9.64-1.49-.86-.21a11.37,11.37,0,0,1,1.85,5.61,6.36,6.36,0,0,1-4,6.18c-4.71,2.11-10.12,2.92-15.17,3.75-4,.65-8,1.16-12.06,1.62a5.39,5.39,0,0,0-2,.7L652.34,614l-11.16,5.82c-1.08.56-.46,1.39.6,1.08,4.92-1.44,9.87-2.82,14.82-4.18,8-2.21,16.09-4.44,24.26-6.08,1.3-.26,2.61-.5,3.92-.65a12,12,0,0,1,1.21-.1l.46,0s.08,0,0,0a10.83,10.83,0,0,1,2,2.42,5.46,5.46,0,0,1,.6,4.3,5.09,5.09,0,0,1-2.78,3.29,60.38,60.38,0,0,1-9.5,3.58c-4.35,1.39-8.75,2.65-13.16,3.85-6.3,1.72-12.65,3.22-19,4.87l-.32.08c-1,.24-1.25,1.44,0,1.24,7.48-1.2,15-2.3,22.5-3.19,3.55-.42,7.43-1.17,11-.8l.29,0c-.1-.06.08.11-.06,0a2.51,2.51,0,0,1,.33.55c.77,1.49.86,3-.46,4.17-1,.89-2.47,1.19-3.69,1.61s-2.52.84-3.79,1.25q-3.56,1.14-7.16,2.16c-2.4.68-4.8,1.32-7.22,1.92a45.3,45.3,0,0,0-5.17,1.26c-.9.35-1.78.84-2.67,1.25l-12.53,5.87-10.73,5a2.38,2.38,0,0,0-.74.34c.2-.26,1.26-.11.49-.15s-1.84,0-2.75,0l-26.93.25c-6.61.06-13.28-.14-19.87.19a26,26,0,0,0-3.16.5l-9.17,1.53q-16.21,2.65-32.47,5-22.07,3.18-44.19,5.75c-15.54,1.77-31.12,3.27-46.74,4.2q-5.34.33-10.7.54c-1.11,0-1.74,1.35-.26,1.29Z"/><polygon class="cls-31" points="293.91 209.32 342.3 295.47 243.6 255.27 293.91 209.32"/><polygon class="cls-31" points="658.13 151.03 609.53 239.64 700.1 190.26 658.13 151.03"/><polygon class="cls-31" points="641.18 309.16 556.48 320.64 639.49 354 641.18 309.16"/><rect class="cls-9" x="216.35" y="132.63" width="2.12" height="74.48"/><rect class="cls-42" x="164.63" y="113.85" width="51.72" height="93.26"/><g id="Qy5hhC.tif"><path class="cls-2" d="M189.13,216.6c-.29.15-.59.28-.86.45a40.59,40.59,0,0,0-14.72,16.27c-.8,1.52-1.61,6.94-3.57,6.49-10.9-2.53-22.21-6.43-33.39-17.18-1.17-1,3.5-5.55,4.15-6.53,2.12-3.24,3.87-6.69,5.73-10.08,2.6-4.76,1.35-9.73.92-14.6-.92-10.58-2-21.16-.73-31.78.66-5.48,3.26-10.38,5.23-15.46,1.39-3.59,3.08-7.07,4.67-10.58.93-2.07,1.89-2.34,3.66-1a7.9,7.9,0,0,1,2.85,8.6,52.11,52.11,0,0,0-1.23,21c2.57,15.51.82,31.12,1.31,46.68.16,5.25.54,5.6,5.7,6.09C175.47,215.68,182.1,216,189.13,216.6Z"/><path class="cls-9" d="M164.87,155.85q0,21.6-.1,43.19c0,5.89,0,5.89,5.81,5.88l43.2-.07a26.47,26.47,0,0,1,4.69,4.65c0,.75-.1,1.51-.08,2.27.08,2.14-.83,3.16-3.07,3.38a251.46,251.46,0,0,1-49.15,0c-2.85-.28-3.46-.93-3.46-3.81q0-28.8,0-57.6A5.54,5.54,0,0,1,164.87,155.85Z"/><path class="cls-9" d="M216.35,117.31c0-1.14-.41-1.53-1.64-1.53q-24.17.07-48.33,0c-1.72,0-1.63.91-1.63,2.07,0,5.57,0,11.13-.06,16.7a25.61,25.61,0,0,0-2.06-2c0-5.74,0-11.47.08-17.21a4.16,4.16,0,0,1,.9-3.06c.79-.75,2.07-.74,3.09-.83,4.09-.35,9.81-.94,14.73-1.14,5.11-.2,10.23-.19,15.35,0,4.09.11,8.18.3,12.27.53,2.24.13,4.48.45,6.72.71a2.68,2.68,0,0,1,2.63,3q0,15.06,0,30.12a2.81,2.81,0,0,1-1.56,2.61l-.51-.58v-1c.6-.51.47-1.22.47-1.87V119.18C216.82,118.52,217,117.82,216.35,117.31Z"/><path class="cls-2" d="M220.08,161.88c3.19,0,5.43.75,6.45,3.59s-.46,4.66-2.29,6.43L220,176c1,0,1.35,0,1.72,0a5.22,5.22,0,0,1,4.68,3.3,4.84,4.84,0,0,1-1.14,5.57q-3.11,3.34-6.44,6.45a5.2,5.2,0,0,1-7.46,0c-2-2.09-1.92-5.16.31-7.45,1.57-1.62,3.28-3.09,5.23-4.91-1.87-.37-3.22,0-4.42-.78a5.26,5.26,0,0,1-1-8.26c1.48-1.58,3.08-3.06,4.85-4.79-1-.19-1.66-.26-2.27-.42-4.12-1.06-5.56-5.49-2.72-8.66,2.07-2.32,4.32-4.5,6.59-6.63a5.51,5.51,0,0,1,7.34,0,5.26,5.26,0,0,1,0,7.31c-.78.88-1.65,1.69-2.49,2.51S221.29,160.71,220.08,161.88Z"/><path class="cls-2" d="M218.5,140.57c0-4.52.05-8.73,0-12.93a2.45,2.45,0,0,1,1.69-2.5,5.12,5.12,0,0,1,6.12,1.57,4.93,4.93,0,0,1,.05,6.27C223.92,135.55,221.28,137.9,218.5,140.57Z"/><path class="cls-9" d="M216.35,117.31c.6.51.47,1.21.47,1.87v24.59c0,.65.13,1.36-.47,1.87Z"/><path class="cls-43" d="M216.35,146.67l.51.58-.34.27Z"/><path class="cls-44" d="M186.49,256.3a89.13,89.13,0,0,1-88.76-90.64c.81-48.77,41.32-88.26,90.29-87.54a89.1,89.1,0,0,1-1.53,178.18ZM147.63,138.43c-5.5-5.58-11.14-11-16.54-16.7-1.7-1.79-2.44-1.43-3.71.31a75.48,75.48,0,0,0-10.84,20.13c-7.75,23-5.49,44.9,7.61,65.29,12,18.77,29.36,30,51.5,33.42,21.09,3.23,40-2.12,56.93-14.95,1-.75,1.33-1.23.28-2.26-4.84-4.69-9.6-9.44-14.39-14.17a26.47,26.47,0,0,0-4.69-4.65c-8.44-8.52-16.85-17.07-25.33-25.56-7.82-7.85-15.71-15.63-23.58-23.44m44.85,24.07M222.84,193c6.63,6.72,13.33,13.37,20,20.09,1,1,1.53,1.44,2.62,0,17.48-23.8,21-49.59,9.08-76.5-15.53-35-53.85-51.73-90.27-40.5a71.54,71.54,0,0,0-23.09,12.18c-.66.52-2.09.9-.75,2.23q11.15,11,22.24,22"/></g></g></svg>