<svg xmlns="http://www.w3.org/2000/svg" viewBox="0 0 1334 1000"><defs><style>.cls-1{fill:#e0dabd;}.cls-2{fill:#a66f54;}.cls-3{fill:#628e9f;}.cls-4{fill:#131110;}.cls-5{fill:#a66e53;}.cls-6{fill:#825639;}.cls-7{fill:#010101;}.cls-8{fill:#181615;}.cls-9{fill:#151210;}.cls-10{fill:#191716;}.cls-11{fill:#040404;}.cls-12{fill:#653c29;}.cls-13{fill:#f1eef7;}.cls-14{fill:#7f7f7f;}.cls-15{fill:#27153c;}.cls-16{fill:#999277;}.cls-17{fill:#161412;stroke:#171514;stroke-miterlimit:10;stroke-width:0.86px;}.cls-18{fill:#3f271c;}.cls-19{fill:#221f20;}.cls-20{fill:#151312;}.cls-21{fill:#745245;}.cls-22{fill:#a382ad;}.cls-23{fill:#4f2e25;}.cls-24{fill:#3f2060;}.cls-25{fill:#122e3b;}.cls-26{fill:#fff;}.cls-27{fill:#8cc9e8;}.cls-28{fill:#899092;}.cls-29{fill:#1c1313;}.cls-30{fill:#f0ecf6;}.cls-31{fill:#a57056;}.cls-32{fill:#ce8d2a;}.cls-33{font-size:150px;fill:#666465;font-family:ComicHelvetic-Light, Comic Helvetic;font-weight:300;}</style></defs><g id="Layer_5" data-name="Layer 5"><rect class="cls-1" x="-40.88" y="-68.83" width="1444.16" height="1096.06"/><path class="cls-2" d="M363.57,564.22c5.81,1.83,49.88,20.87,64.1,63,17.93,53.07,19.23,202,23.62,257.32,8.76,110.27,22,112.13,25.45,222.88l-84-11.12s5.93-262.13-18.44-320.76S363.57,564.22,363.57,564.22Z"/><path class="cls-2" d="M855.26,452.52c-7.33,2.26-62.88,26-81,78.9C751.39,598.1,749,785.57,743.13,855.12c-11.62,138.73-28.34,141-33.23,280.35l105.75-13.54s-6-329.92,25-403.57S855.26,452.52,855.26,452.52Z"/><path d="M207.25,473.38c-4.32-8-8.28-16.29-11.93-24.68a3.53,3.53,0,0,1,2.24-4.67,48.8,48.8,0,0,0-6.41-9.26c-5.31-5.72-18.66-8.16-18.66-8.16s-.14-14.47-6.43-15.1-19,2.58-19,2.58-11.62-7-20.5,3.24c0,0-9.75,1.49-9.68,14.74a39.59,39.59,0,0,0,1.62,10.36s-4.75.87-10.4,10.05c-2.44,3.95-3.84,15.84.15,24.91l.12,2.13c5.26,11.93,12.28,18.64,22.53,18,.05.11,10.44,23.63,33.91,18.17,20.38-4.75,24.56-16.11,24.56-16.11s10.29,3.5,15,1.34c5-2.25,8.11-7.14,9.57-12.54Q210.52,480.92,207.25,473.38Z"/><path d="M208.21,472.94q-3.93-7.33-7.48-14.87c-1.13-2.4-2.23-4.8-3.3-7.22-.49-1.1-1.37-2.44-1.33-3.68a2.85,2.85,0,0,1,1.9-2.62c.4-.14.75-.55.53-1a42.48,42.48,0,0,0-6.79-9.64,23.3,23.3,0,0,0-7.3-4.53A54.08,54.08,0,0,0,173.11,426l.43.52c0-4.08-.58-8.66-2.56-12.28a6.3,6.3,0,0,0-6.06-3.46,55.92,55.92,0,0,0-10.72,1.16c-2.44.45-4.87.95-7.27,1.55l1,.07a18.79,18.79,0,0,0-7.75-2.38,17,17,0,0,0-14.43,5.93l1-.43a12.1,12.1,0,0,0-5.51,2.56c-3.64,2.91-5.18,7.44-5.32,12a38.67,38.67,0,0,0,1.61,11.51l.88-.89c-2.63.5-5.07,2.81-6.81,4.67a25.77,25.77,0,0,0-5.06,7.2,24.68,24.68,0,0,0-1.61,7.13,38.56,38.56,0,0,0,.21,9.11,31.67,31.67,0,0,0,1.11,5,15,15,0,0,1,1.07,3.46,9.36,9.36,0,0,0,.07,1.3,8.27,8.27,0,0,0,.77,1.79c.68,1.44,1.42,2.86,2.23,4.23a32.22,32.22,0,0,0,5.11,6.73,19.75,19.75,0,0,0,15.35,5.75l-.92-.39a34.75,34.75,0,0,0,15.3,16.38,28.73,28.73,0,0,0,19.64,2.16c7.2-1.63,14.39-4.56,20-9.5,2.24-2,4.58-4.5,5.64-7.36l-1.67.74c4.2,1.42,9.15,2.61,13.58,1.92a14,14,0,0,0,8-4.81,20.52,20.52,0,0,0,2.92-4.38c.35-.72.67-1.45.95-2.2a7.5,7.5,0,0,0,.79-2.65,6.29,6.29,0,0,0-.81-1.75l-.91-2c-.57-1.24-1.14-2.49-1.7-3.74q-1.68-3.75-3.33-7.51c-.36-.82-2.42-.2-2.08.56,1.71,3.91,3.44,7.81,5.22,11.69a21,21,0,0,1,1.32,2.85,4.55,4.55,0,0,1-.57,2.65,21.4,21.4,0,0,1-2.32,4.45c-1.63,2.37-4.2,4.91-7.13,5.46a20.39,20.39,0,0,1-7.81-.52,43.35,43.35,0,0,1-4.88-1.31,1.42,1.42,0,0,0-1.68.74c.15-.41-.09.19-.14.29a10.53,10.53,0,0,1-.65,1.19,21.1,21.1,0,0,1-3.06,3.87c-4.62,4.69-10.83,7.56-17.09,9.33-6.63,1.86-13.43,2.1-19.77-.9a32,32,0,0,1-11.37-9.38,33.14,33.14,0,0,1-4.3-6.85c-.16-.37-.57-.41-.92-.39a17.58,17.58,0,0,1-13.1-4.74,30,30,0,0,1-4.83-5.88c-.77-1.2-1.48-2.45-2.13-3.72a13.27,13.27,0,0,1-1.56-3.54,11.5,11.5,0,0,0-.26-2.2,41.87,41.87,0,0,1-1.44-4.49,35.75,35.75,0,0,1-.9-9,31.81,31.81,0,0,1,1-7.58,19,19,0,0,1,3.55-6.5,21.62,21.62,0,0,1,5.46-5.29,8.12,8.12,0,0,1,1.44-.73,1.09,1.09,0,0,1,.4-.12c.35-.07,1-.45.88-.9-1.92-7-3.43-17.18,3.18-22.32a10,10,0,0,1,3.81-1.85c.16,0,.14-.05-.12,0a2.91,2.91,0,0,0,.58-.15,3.61,3.61,0,0,0,1-.92,17.44,17.44,0,0,1,1.73-1.6,13.12,13.12,0,0,1,5.68-2.67,16.28,16.28,0,0,1,9,1.08c.62.25,1.19.6,1.8.86a2.37,2.37,0,0,0,1.64,0c2.94-.71,5.92-1.32,8.91-1.78,1.88-.29,3.76-.53,5.66-.64,1.41-.07,3.19-.28,4.46.45,2.6,1.48,3.43,5.33,3.93,8a36.7,36.7,0,0,1,.64,6.1.49.49,0,0,0,.42.52,52.06,52.06,0,0,1,10.94,3.29,22,22,0,0,1,7.11,4.39,42.89,42.89,0,0,1,6.69,9.54l.53-.95a4.43,4.43,0,0,0-3.08,4.75,20.47,20.47,0,0,0,1.78,4.25q1,2.19,2,4.38,4,8.58,8.46,16.92C206.66,474.51,208.68,473.82,208.21,472.94Z"/><path class="cls-3" d="M852.58,780.81C828,783.17,725.66,766.9,701.5,743.54,726.52,688.79,748,545,766.1,502.8c22.39-52.25,171.69-101.6,179-103.29,0,0-15.51,172.57-52.24,244.85C886.18,657.46,860,755.32,852.58,780.81Z"/><path d="M1076.18,252.1c12.14,1.81,12-14.19,13.82-15.32s2.85-9.61,1.93-11.51c-1.47-3-.6-4-.37-7.29,2.65-3.35,2.76-1.68,4.2-5.69,1.16-3.25,1.06-5.83-2-7.48,1.79-1.82-1.19-.81.11-1.13a6.09,6.09,0,0,0,4-8.64c-2.42-4.86-3.77-1.46-2.7-5,2.28-.79-3.11-2.62-.88-4.33,1.83-1.4,2-4.42.75-6.37-1.4-2.21-1.2-4-1.23-6.67,0-2.38-4.71-2.65-3.35-4.61,2.47-3.57-1.15-8.14-4.48-10.93,1.86-1.34-.47-1.66.67-3.64s1.28-4.74-.3-6.39c-1-1-4.3-1.14-3.5-2.29a8,8,0,0,0,1.27-6.71,21.06,21.06,0,0,0-6.87-11.13,7.8,7.8,0,0,1-2.48-4.34c-.34-1.87,0-3.87-.76-5.62s-3.34-2.88-4.5-1.37"/><path class="cls-4" d="M1074.85,253.22c4.68.65,9.49-.75,12.39-4.63,2.08-2.77,3-6.19,3.84-9.48.15-.57.31-1.12.5-1.68l.12-.28c.08-.18,0,.14,0,0a.94.94,0,0,1,.12-.18c-.13.13-.26.28,0,.1,1.49-1.34,1.94-3.55,2.27-5.45s.75-4.52.18-6.51c-.34-1.2-1-2.19-1-3.49s.13-3.45.94-4.37c.65-.74,1.49-1.3,2.14-2a10.45,10.45,0,0,0,1.7-3.54,8.18,8.18,0,0,0,.44-4.4,5.65,5.65,0,0,0-3-3.44l.27,1c.79-.84,1.16-1.88-.24-2.23a4.75,4.75,0,0,0-3.3.57c-1.08.73-1,1.8.47,1.75,4.26-.14,8.32-3.83,8-8.23a7.69,7.69,0,0,0-2.79-5.14,5,5,0,0,0-.78-.44c-.23-.11-.37-.27-.18,0s0,.18.08,0c.15-.4.22-.86.34-1.27l-1.31,1.11c.89-.35,2.24-1.1,1.78-2.25-.34-.82-1.29-1.22-1.72-2a.61.61,0,0,1-.1-.62,7.32,7.32,0,0,1,.63-.57,4.89,4.89,0,0,0,.75-1.05,5.91,5.91,0,0,0,.38-4.48,20.94,20.94,0,0,0-1.09-2.17,8.14,8.14,0,0,1-.61-2.47c-.13-1.41.33-3.2-.53-4.41A9.52,9.52,0,0,0,1093,169c-1.14-.82-.12-1.35.23-2.47,1.24-3.95-2.53-7.9-5.24-10.21l-.28,1.13a2.66,2.66,0,0,0,1.18-1.64c.07-.6-.38-1-.39-1.61s.58-1.43.81-2.08a6.9,6.9,0,0,0,.36-2.85,4.33,4.33,0,0,0-2.77-3.83,14.18,14.18,0,0,1-1.86-.68c-.09,0-.24-.24-.19.08,0-.24.75-1.24.87-1.49,1.9-4,.1-8.68-2.12-12.14a27.85,27.85,0,0,0-4.34-5.05,8.28,8.28,0,0,1-2.52-6.06c-.11-2.32-.37-4.66-2.68-5.81a5.7,5.7,0,0,0-6.53,1.36c-.7.77.59,1.16,1.14,1.18a3.85,3.85,0,0,0,2.85-1.16l-.68.23c-.72.1-.89.2-.49.29a2,2,0,0,0,.39.19,3,3,0,0,1,.8.7,5,5,0,0,1,.81,2.64c.2,2,.08,3.88,1.06,5.71.89,1.64,2.33,2.75,3.58,4.1a21.63,21.63,0,0,1,3.36,4.64,16.67,16.67,0,0,1,1.75,5.22,7.85,7.85,0,0,1-1.24,5.43c-.64,1.11.11,1.72,1.14,2.13,1.19.47,2.35.59,3,1.85.9,1.89.11,3.54-.6,5.29a2.51,2.51,0,0,0,0,1.73c.17.53.45.64,0,1-.3.23-.69.79-.29,1.13,1.93,1.65,3.92,3.65,4.78,6.1a4.61,4.61,0,0,1,.06,3.35c-.31.72-1,1.34-.71,2.18.42,1.34,2.26,1.64,3.12,2.62.63.72.43,1.75.44,2.65a11.11,11.11,0,0,0,.42,3.39c.36,1.11,1.13,2,1.42,3.14a4.68,4.68,0,0,1-.24,3.17c-.39.77-1.28,1.13-1.58,2a1.81,1.81,0,0,0,.37,1.78c.35.47.81.83,1.2,1.26a2.8,2.8,0,0,0,.3.38l0,.1a.93.93,0,0,1,.75-.81,2.13,2.13,0,0,0-1.16.81c-.66,1-.86,2.43.26,3a6,6,0,0,1,2.9,4.81,5.35,5.35,0,0,1-.83,3.28,4.34,4.34,0,0,1-1.11,1.19c-.61.41-1.65.33,0,.27l.47,1.75a2.48,2.48,0,0,1-2.37.3c-.59-.15-.14-.45-.72.17-.37.4-.1.8.28,1,2.65,1.53,2.44,4.19,1.53,6.75a7.42,7.42,0,0,1-1.22,2.53c.11-.13-.42.35-.55.46-.39.34-.75.69-1.11,1.07a5.67,5.67,0,0,0-1.31,1.63,11.42,11.42,0,0,0-.23,2,10.65,10.65,0,0,0-.12,3.69c.21,1,.79,1.84,1,2.84a12.34,12.34,0,0,1,0,2.85,18,18,0,0,1-1.27,6.1c-.38.84-1,1.14-1.48,2.26-1,2.53-1.35,5.26-2.44,7.77A11.3,11.3,0,0,1,1082,250a4.65,4.65,0,0,1-1,.68c.33-.17-.31.14-.3.14-.47.19.15,0-.3.1a7,7,0,0,1-2.83.09,3.91,3.91,0,0,0-3,.82c-.61.57-.56,1.3.38,1.43Z"/><path class="cls-5" d="M1061,278.38s-27.85,44.76-9.35,112.76c1.81,6.64,30.36,23.75,30.36,23.75l-10.07,9.76c-8.69,8.43-77.23,47.32-88.74,51.08-57.3,18.72-72.35,1.51-95.27-34.56l21.89-23.64s-.25-22.81,2.06-30.6-9.76-68.83-9.76-68.83"/><path class="cls-6" d="M1059.06,311c0,.15,0,.28,0,.43A.58.58,0,0,0,1059.06,311Z"/><path class="cls-5" d="M960.06,403.1l-49.4.51-24.91-4.42c-2.5.17-14.58-24.6-16.44-27.72-5.76-9.7-13.29-22.4-17.06-33.06-4-11.41-11.84-21.11-14.26-35-1.78-10.16-2.16-17.3,2.52-34.21a23.49,23.49,0,0,0-.23-13c-2.68-9.46-4-20.62-7.32-33.31-.26-1-1.68-5.81-1.33-6.93,0,0-4.85-53.35,3.89-72.94s22.73-29,36.62-33.35,55.52-3.8,55.52-3.8l57-11,49.93,21.75,27.63,58-.22,68.91-4.36,61.75"/><path d="M1045.41,239.27c0,5.33-5.41,32.13-5.76,37.34l27.45-1.83c7.42-18.6,16.35-40.5,19.27-45.52,4.56-7.86-11.3-45-11.66-58.94l-.08-3c-.31-13.37-14.08-34-36.83-55.13-39.14-36.39-37.32-36.91-94.73-30.11-3.94.46-7.88,1.08-11.68,1.82-36,7.06-66.22,7.93-87.9,39.32-15.63,22.64-4.3-5.42-2.2,9.74-.41-30.08-5-5-2-8.73,17.23-21.51,15.36-1,24.21-2.69,7.71-1.51,25.5,1.38,26.67,1.78,8.9,1.56,17.32,0,26.54-1.77,6.88-1.35,19.09-9.5,20.57-9.9,4.52-3.47,4.74-18,13.27-19.65,19.84-3.89,47.53,3.62,57.38,7.65,11.64,4.77,39.43,15,37.06,45.71"/><path d="M890.79,392.43a2.29,2.29,0,0,0,.92-.39c5.06-3.74,5.37-5.71,7.91-6.45a15,15,0,0,1,2.7-.75c7.35-1.41,11.81-2.4,32.26,9.18.41.24,26.21-4.36,26.71-4.42l13.09-7c2.17-1.5,50.28-46.29,50.28-46.29.69-1.45,9.27-12,9.56-13.33a3.5,3.5,0,0,1,.47-.25l.31-.15c0,.09.06.2.09.27a9.36,9.36,0,0,1,.13,1.76,29.42,29.42,0,0,1-1,7.51c-1,3.78-1.46,7.61-2.29,11.4-.3,1.34-.66,2.66-1.06,4-5.55,3.85-39.68,51.52-59.93,62.84-1.33.42-5.51,1.83-16.79,3.35-21.18,2.85-41.71,3.85-63-1.19a18.84,18.84,0,0,1-12.58-9.95c-7-14.14-22.4-45.61-26.88-67,6.42,12.22,20,38.43,29.32,56.26.29.54,8.39.58,9.06.74"/><path class="cls-5" d="M1044.63,313.39c16.39,21.24,25.85-16.52,25.85-16.52,14.37-19.57,13.15-39.41,11.75-52.94s-16.3-12.42-16.3-12.42c-12.6,2.15-17.84,9.3-25.83,52.71"/><path d="M882.72,110.09c20.61-1.27,74.1-18,102-21,11.56-1.25,51.3,25.69,56.6,32,12.13,14.44-12.83,50,9.1,96.77,7.24,15.46,15.16-12.54,23.89-2.59s12.07,14,12.07,14c4.05-45.92,4-44.31-8.14-88.93s-62-62-85.87-64.69-99.73,8.22-119.88,18.73"/><path d="M946.64,239.41c3.05-1.84,6.83-.67,9,1A7.92,7.92,0,0,1,958.3,244a8.22,8.22,0,0,1-1.44,7.6,7.65,7.65,0,0,1-8.66,2.12c-4-1.54-5.53-6.1-4.8-9.53a7.58,7.58,0,0,1,3.24-4.78"/><path d="M856.17,246.51a1.09,1.09,0,0,1-.17-.13c-1.93.08-3.85.12-5.76.35-.54.07-1,.14-1.68.29a17.21,17.21,0,0,0-1.74.48,12,12,0,0,0-2.33,1.09,8.73,8.73,0,0,0-.58,1.68c-.73,3.44.83,8,4.81,9.53a7.64,7.64,0,0,0,8.65-2.12,8.25,8.25,0,0,0,1.45-7.6A8,8,0,0,0,856.17,246.51Z"/><path d="M883.09,256.63s-13.54-11.84-22.88-12.08c-13.64-.34-16.91,2.95-21.29,9.48,0,0,8.44-7.08,18-6.58C866.13,247.92,883.09,256.63,883.09,256.63Z"/><path d="M926.89,250.39s18.2-13.26,27.51-14.12C968,235,984.73,242,989.54,248.17c0,0-22.16-10.38-31.7-9.24C948.72,240,926.89,250.39,926.89,250.39Z"/><path d="M919.51,202.77q.33,4.84.68,9.72c.18,2.48.41,8.13.59,10.59,7.64-2.61,14.45-6.21,19.42-7.44,9.86-2.45,19.9-5.65,30.1-4.76a33.87,33.87,0,0,1,13.41,3.6c1.33.71,5,3.89,6.84,2.88.75-.42-.8-4.31-1-4.71-3.16-7.86-10.2-10.73-18.66-12.08-17.25-2.75-34.31-1.17-51.42,2.2"/><path d="M829.91,211.69l5.6-1.51c15.55-4.27,31.31-4.2,47.27-2.37q.11,4.86.2,9.74c0,2.48.3,6.95.34,9.42-7.22-1.93-13.47-4.26-18.13-5.05-9.23-1.56-19-3.32-28.22-1.53-.73.14-4.69,1-5.39,1.14C828.52,217.12,828.63,212.43,829.91,211.69Z"/><path d="M933.88,357.29l-35.54,3.84s9.14,13,17.66,12.43C921.33,373.2,928.59,363.66,933.88,357.29Z"/><path class="cls-7" d="M897.14,309.1c4.12,1.87,10.16,1,14-1.84.85-.62,3.85-.28,2.65.6-5.07,3.7-13.76,4.6-19.07,2.19-.53-.24-.47-.65.16-.91a3.38,3.38,0,0,1,2.26,0"/><path class="cls-7" d="M915.45,306.58a24.31,24.31,0,0,1,8.51-2.8,1.92,1.92,0,0,1,1.36.35c.27.21.34.52,0,.73a9.22,9.22,0,0,1-4.68,1.43,1.78,1.78,0,0,1-1.5-.48c-.3-.4.18-.7.57-.72a7.44,7.44,0,0,0,3.78-1.17l1.38,1.07a22,22,0,0,0-7.61,2.52,1.78,1.78,0,0,1-1.59-.07c-.33-.17-.71-.6-.24-.86"/><path class="cls-7" d="M927.35,306.16c3.5-.32,7.51-2.16,9-5,2.33-4.24-.51-10.39-5-12.69-.5-.26-.27-.64.2-.78a2.76,2.76,0,0,1,1.9.28c4,2,6.77,7,6.46,10.86-.3,3.6-3.49,6.32-7.61,7.63a18.34,18.34,0,0,1-3.84.81c-.53.05-1.5-.05-1.78-.46s.18-.63.67-.68"/><path class="cls-7" d="M890.61,307.71a.47.47,0,0,0-.49-.65,4,4,0,0,1-2.78-.73l-.85,1.23a12,12,0,0,1,5.62,1.64,1,1,0,0,0,1.11-.26c.21-.21.43-.67.07-.89"/><path class="cls-7" d="M893.29,308.05a13.61,13.61,0,0,0-6.28-1.8,1.11,1.11,0,0,0-.91.49.51.51,0,0,0,.06.73"/><path class="cls-7" d="M883.36,308.68a7.16,7.16,0,0,1-6.36-3.94,10.71,10.71,0,0,1,2-11.68.44.44,0,0,0-.22-.75,1.32,1.32,0,0,0-1.19.48,12,12,0,0,0-3.06,10,8.3,8.3,0,0,0,8.29,7.12,1.23,1.23,0,0,0,1.09-.65c.15-.44-.18-.61-.51-.6"/><path d="M864.62,118.88c1.44-1.32,3.75-1.87,5.92-2.34l2.32-.86q10.42-.62,20.86-.61a15.13,15.13,0,0,1,5.12.6l.48.21c5.14-.43,10.28-.8,15.43-1l2.39.52c2.21.19,4.56.44,6.12,1.45s1.69,3-.3,3.78-5.25-.2-6.64,1.06c-1.54,1.4,1.61,3.2.73,4.8-.55,1-2.39,1.42-3.57,2.18-1.41.9-1.82,2.28-3.13,3.24a7.16,7.16,0,0,1-5.42,1c-1.94.25-4.6-.42-5.15,1a2.32,2.32,0,0,0,0,1.14,3.91,3.91,0,0,1-2.79,3.7,6.39,6.39,0,0,1-5.52-.51c-1.41-1-2-2.49-3.48-3.37a11.26,11.26,0,0,0-1.57-.69,4.83,4.83,0,0,1-1.76,1.14,6.38,6.38,0,0,1-5.53-.5c-1.4-1-2-2.5-3.47-3.37-1.26-.74-3.13-1-3.8-2.09-1-1.75,1.89-4.17.2-5.59-1.53-1.29-4.58.17-6.73-.47S863.18,120.21,864.62,118.88Z"/><path d="M931.3,397.17c-1.25,1-3.15,1.27-4.93,1.51l-1.93.55q-8.45-.18-16.87-.87a11.87,11.87,0,0,1-4.09-.82l-.38-.2c-4.17,0-8.35,0-12.52-.16l-1.9-.57a11.48,11.48,0,0,1-4.84-1.57c-1.2-.91-1.17-2.57.48-3s4.23.5,5.44-.43-1.1-2.68-.29-3.92c.51-.78,2-1,3-1.52,1.19-.64,1.62-1.73,2.74-2.42a5.81,5.81,0,0,1,4.44-.44c1.58-.07,3.68.64,4.21-.43a1.91,1.91,0,0,0,.07-.92,3.14,3.14,0,0,1,2.49-2.8,5.16,5.16,0,0,1,4.43.77c1.07.86,1.43,2.14,2.58,2.94a8.85,8.85,0,0,0,1.22.66,4.09,4.09,0,0,1,1.5-.81,5.16,5.16,0,0,1,4.43.77c1.07.86,1.43,2.14,2.58,3,1,.67,2.47,1,2.93,1.93.73,1.47-1.79,3.24-.52,4.49s3.71.16,5.4.82S932.54,396.2,931.3,397.17Z"/><path d="M1071.48,124.81c-.65-2.51-3.36-14.52-4-17a5.71,5.71,0,0,1-7.56-4.55c-.15-1.71.34-3.85-1.09-4.8s-3.35.4-5.11.37c-3.9-.07-4.64-6.38-8.34-7.63-2.32-.77-4.91.78-7.26.1-3.56-1-4.29-6.29-7.73-7.65-2.38-.94-5.12.38-7.61-.22-5.39-1.3-7.47-9.13-13-9-2,0-3.87,1.47-5.9,1.36-3.62-.21,1.65-4.16-2-4.56-3.32-.37-5.84,3.21-9.14,3.67-5.38.76-9.26-8.15-14.23-6-2.13,1-3.23,3.45-5.32,4.49-4.89,2.42-10.25-4.56-15.51-3.13-2.65.72-4.47,3.43-7.17,3.86-4.21.67-7.62-4.45-11.85-4-3.37.36-5.75,4.18-9.14,4.09-2.37-.06,3.37-2.86,1-3.13-4-.45-6.88,4.06-10.81,5-3.3.8-6.6-1-9.92-1.74s-10.36,5.94-10.36,9.34"/><path d="M1073.63,124.24c-1.44-5.66-2.56-11.39-4-17-.32-1.27-2.26-.9-3.08-.59-1.27.5-3-.84-3.66-1.77-1.22-1.62-.59-3.5-.94-5.35-.46-2.31-2.67-3.13-4.82-2.82-1.59.23-2.79,1.17-4.08,0-2.4-2.28-3.18-6-6.78-6.93a9,9,0,0,0-3.32-.13,12.38,12.38,0,0,1-3.31.38c-1.58-.22-2.58-2-3.37-3.16a12.75,12.75,0,0,0-3.34-3.89c-2-1.33-4.41-1.15-6.69-.92a6,6,0,0,1-4.87-1.37,33.46,33.46,0,0,1-3.45-3.59c-2.67-2.93-5.81-4.87-9.91-3.78a24.61,24.61,0,0,1-3.12,1h-.5a.4.4,0,0,1,.18.07s.19.2.16.22-.06,0,0-.12c.16-.43.17-.56.36-1.09a3.39,3.39,0,0,0,.31-1.8c-.33-1.67-2.53-1.92-3.92-1.84-2.29.14-4.23,1.31-6.12,2.5-1.18.73-2.29,1.47-3.54,1.09a12.29,12.29,0,0,1-3.88-2.5c-2.57-2.1-5.27-4.32-8.82-3.53-2.22.5-3.77,2-5.27,3.57-1.06,1.15-1.78,1.83-3.32,1.48-3.79-.87-6.78-3.7-10.83-3.7a10.69,10.69,0,0,0-6.22,2.28c-1.35,1-2.51,2.19-4.26,1.63s-3.28-1.79-4.92-2.63A9.4,9.4,0,0,0,938,68.79a15.3,15.3,0,0,0-5.41,2.74c-.7.47-1.44.75-2.14,1.16-.48.27-.49-.37.28.23L931,74l.05-.08c.06,0-.29.29.06,0a7,7,0,0,0,2-2.13c.85-1.91-1.76-2.23-3-2.18a11.71,11.71,0,0,0-6,2.3c-1.41.95-2.79,2.24-4.43,2.76-2.33.73-5.1-.71-7.31-1.33a8.08,8.08,0,0,0-5.55.14,18.37,18.37,0,0,0-8,6.67,7.47,7.47,0,0,0-1.55,3.77c-.07,2.13,4.28,1.42,4.35-.38.09-2.7,3.08-5.29,5.12-6.7a8.34,8.34,0,0,1,1.6-.9l.43-.13c-.31.07.31,0,0,0s.41.11.42.11c2.55.59,4.95,1.72,7.61,1.87a11.71,11.71,0,0,0,6.74-1.81c1.61-1,3-2.29,4.72-3.08a3.22,3.22,0,0,1,.78-.3l.39,0c.41-.07.2.17.13,0l-.3-.29a.52.52,0,0,1-.24-.82c0,.22-.06,0,.07-.08-.16.07-.4.42-.54.55-.64.6-1.71,1.29-1.8,2.26-.18,2.05,3.29,1.59,4.39,1.3a18.61,18.61,0,0,0,5.33-2.88,3.62,3.62,0,0,1,4-.49c1.78.78,3.33,2,5.1,2.77a8.61,8.61,0,0,0,5.93.49c2.23-.64,3.76-2.27,5.73-3.37,1.37-.77,2.83-.24,4.2.31,1.76.71,3.4,1.68,5.17,2.35a9.87,9.87,0,0,0,5.78.53,10.37,10.37,0,0,0,5.18-3.48,8.28,8.28,0,0,1,1.77-1.59c.05,0,.27,0,.2,0a1.77,1.77,0,0,1,.73.16,13.07,13.07,0,0,1,3.58,2.42c2.61,2.14,5.37,4.24,9,3.66a16.34,16.34,0,0,0,5.86-2.68,5.44,5.44,0,0,1,2-.93c-.08,0,.67,0,.62,0s-.19-.1-.21-.1,0-.09,0,0a8.2,8.2,0,0,0-.29.95,4.94,4.94,0,0,0-.42,1.56c-.05,1.69,1.79,2.13,3.15,2.15a10.75,10.75,0,0,0,3.87-.8,5.15,5.15,0,0,1,2.49-.52,7,7,0,0,1,3.51,2.33c2.35,2.43,4.44,5.5,7.87,6.48,2.33.66,4.5-.11,6.83.06,1.8.13,2.84,1.74,3.75,3.11a14.49,14.49,0,0,0,3.16,3.85c1.78,1.34,4.06,1.34,6.16,1a6.38,6.38,0,0,1,3-.17,3.73,3.73,0,0,1,1.55,1.2c1,1.18,1.74,2.58,2.68,3.83a6.26,6.26,0,0,0,3.85,2.6,8,8,0,0,0,3.31-.22c.69-.17,1.56-.77,2,0a6,6,0,0,1,.24,2.6,6.86,6.86,0,0,0,.5,2.83,7.23,7.23,0,0,0,4.12,3.71,8.37,8.37,0,0,0,6.07-.19l-3.07-.59c1.44,5.65,2.57,11.39,4,17,.48,1.86,4.78.72,4.3-1.15Z"/><path class="cls-8" d="M1016.17,94.73c19.92,7.14,28.18,13.87,38.42,32.39L940.76,91a100.92,100.92,0,0,1,24.32-3.19C986.24,88,996.26,87.59,1016.17,94.73Z"/><path class="cls-9" d="M1014.45,95.74c6.41,2.3,12.85,4.89,18.52,8.71a51.46,51.46,0,0,1,12.83,12.62,101.39,101.39,0,0,1,6.64,10.62l3.88-1.58-11.33-3.6-27.2-8.63L984.9,103.43l-28.43-9-9.37-3a34.5,34.5,0,0,0-4.43-1.4l-.19-.06L941,92a112.26,112.26,0,0,1,16.9-2.82c5.21-.42,10.48-.19,15.71-.12,8.42.12,16.83.44,25.1,2.15a117.57,117.57,0,0,1,15.71,4.56,3.79,3.79,0,0,0,3-.43c.49-.3,1.4-1.23.41-1.59a111,111,0,0,0-27.53-6.37c-4.47-.4-8.94-.54-13.42-.61-5.39-.09-10.82-.31-16.2,0A117.73,117.73,0,0,0,940.49,90c-.47.11-3,1.51-1.45,2l11.32,3.59,27.2,8.64,32.9,10.45,28.43,9c4.6,1.46,9.18,3,13.79,4.38l.19.06a3.71,3.71,0,0,0,2.56-.19c.36-.15,1.64-.8,1.32-1.39-3.41-6.14-7.16-12.19-12-17.26a53.14,53.14,0,0,0-15.09-10.71,112.73,112.73,0,0,0-11.71-4.85,3.78,3.78,0,0,0-3,.43C1014.37,94.45,1013.46,95.38,1014.45,95.74Z"/><path class="cls-8" d="M854.46,100.63c.54-.26,1.08-.53,1.58-.82,2.63-1.52,8.44-7.06,6-8.8.5-2.44,5.3-6,11.17-6.06,1.69,0,3.27.78,4.94,1a7.27,7.27,0,0,0,5.58-1.74,17.19,17.19,0,0,1,11.14-4.06,18.16,18.16,0,0,0,5.81-.88L940.76,91c-17.48,4.17-35.18,11.23-52,13.74a81.84,81.84,0,0,0-24.4,7.33c-5,2.46-11,4.11-15.82,6.9C850.5,112.82,852.41,106.7,854.46,100.63Z"/><path class="cls-9" d="M855.31,101.54A22.43,22.43,0,0,0,862.57,96c1.15-1.33,3.43-4.26,1.42-5.83l.16.59c.54-2.18,3.4-3.57,5.35-4.12a8.75,8.75,0,0,1,4.84-.08,12.57,12.57,0,0,0,5.77.54,12,12,0,0,0,5.31-2.49,15.17,15.17,0,0,1,4.35-2.49,14.86,14.86,0,0,1,4.69-.7,23.37,23.37,0,0,0,6.48-1l-1.61.08,35.18,10.23,4.94,1.44,1-2.29c-12.73,3-25.1,7.46-37.77,10.75-3.06.79-6.13,1.52-9.23,2.12s-6.34,1-9.5,1.64A84.22,84.22,0,0,0,866,110c-3.07,1.37-6.07,2.8-9.2,4a73.5,73.5,0,0,0-9.59,4.3l3.5.4c1.94-6.11,3.86-12.23,5.9-18.3.5-1.5-3.81-1-4.31.52-2,6.08-4,12.19-5.9,18.3-.52,1.63,3,.68,3.49.4,5.12-2.88,10.87-4.52,16.16-7a75.72,75.72,0,0,1,17.61-5.78c5.94-1.22,11.92-2,17.82-3.49,6.25-1.56,12.41-3.43,18.57-5.29,7-2.11,13.93-4.22,21-5.92,1.06-.25,2.89-1.74,1-2.29l-24.69-7.18L904,78.69a7.81,7.81,0,0,0-3-.61c-1.35.16-2.62.69-4,.8s-2.69,0-4,.2a21.61,21.61,0,0,0-7.35,2.36,22.51,22.51,0,0,0-3.43,2.29,3.74,3.74,0,0,1-3.11,1c-1.42-.23-2.73-.81-4.17-.95a14.87,14.87,0,0,0-4.21.28A18.55,18.55,0,0,0,863.42,87c-1.5,1.05-3.12,2.46-3.58,4.31a.64.64,0,0,0,.16.59c1.29,1-.69,3.16-1.4,4a16.62,16.62,0,0,1-5,3.9c-.59.29-1.74,1-1.14,1.76S854.68,101.85,855.31,101.54Z"/><path d="M860.37,359c1.45,5.16,1.63,10.61,4.52,15.12-1.91.67-1,3.65.5,5s3.66,2.74,3.27,4.72c-.13.69-.58,1.3-.7,2-.37,2.18,2.33,3.47,4.48,4-1.43,1.16-.14,3.48,1.33,4.59s3.36,2.51,2.91,4.3c-.22.88-1,1.61-1,2.51.1,1.89,3.19,1.82,4.26,3.38.61.91.39,2.13.67,3.19a3.53,3.53,0,0,0,5.41,1.69c.51,3.82,2.27,8.74,6.12,8.46,2.38-.18,4.61-2.53,6.81-1.61,1.36.57,2,2.19,3.26,3,4.26,2.59,9.25-6.31,13.5-3.71,2.28,1.4,2.29,5.36,4.85,6.15,2.41.76,4.48-2.09,7-2.41,2.73-.35,5.58,2.32,8,1,1-.57,1.6-1.75,2.49-2.54,2-1.83,4.18.81,6.8,1.56,4.7,1.35,5-2,5-2,1.3-3.3,3.12-3.09,6.24-1.43,1,.56,2,1.42,3.18,1.45,2.88.07,4.13-4.69,7-4.5,1.06.08,1.92.84,2.89,1.26,3.52,1.53,7.72-3.22,5.77-6.53a8,8,0,0,0,7.54-8.82c4.1,1.25,8.91-2.24,9-6.53,4.81,1.21,9.74-4.58,7.78-9.14,3.38,1.19,7.47-1.88,7.28-5.45-.1-1.84-.94-4.13.56-5.2,1-.7,2.34-.27,3.56-.31a4.61,4.61,0,0,0,3.74-6.39c4.76,1.08,9-5.63,6-9.48,3.75.74,7-4.52,4.66-7.55,5.13-.27,8.46-7.2,5.47-11.37l-57.9,62.16-15.13,7.3s-54,6.12-64.36,1.73S860.37,359,860.37,359Z"/><path class="cls-4" d="M858.22,359.55c1.43,5.23,1.77,10.74,4.69,15.45L864,373a3.56,3.56,0,0,0-2.09,4.64c.72,2.07,2.53,2.91,3.89,4.48a2.24,2.24,0,0,1,.41,2.71,3.73,3.73,0,0,0-.16,3c.87,1.95,3.23,2.86,5.15,3.35l-.5-1.89a3.22,3.22,0,0,0-.51,4.05c.78,1.51,2.14,2.23,3.32,3.37a3.08,3.08,0,0,1,1.08,1.62c.09.75-.53,1.41-.78,2.07a2.64,2.64,0,0,0,1.1,3.33c.88.6,2.25.77,3,1.59.53.62.43,1.57.53,2.33a4.4,4.4,0,0,0,.64,1.85c1.79,2.71,6.07,2.67,8.44.85l-3.55-.28c.56,3.94,2.29,8.93,6.91,9.32a8.74,8.74,0,0,0,4-.73c.7-.28,1.94-1.19,2.72-1.08.49.06,1.46,1.47,2,2A5.25,5.25,0,0,0,902,421c3.94.95,7.12-2.18,10.13-3.91a6.55,6.55,0,0,1,1.1-.53c-.23.08.46-.07.27,0,.08,0,.09,0,.34.08a2.36,2.36,0,0,1,.91.78c1.16,1.47,1.49,3.46,2.92,4.73,1.94,1.71,4.72,1.28,6.84.17a15.55,15.55,0,0,1,2.7-1.5c.92-.25,2,.31,2.87.6,2.47.85,5.09,1.13,7.31-.53.22-.17,2.44-2.26,2.32-2.46l-.54.17c-.26,0-.28,0-.07,0s.44.15.6.22c.57.26,1.11.6,1.67.9,3.12,1.66,8.73,2.4,10.42-1.7.08-.19.22-.74.28-.87s.59-1.21.68-1.14a5.25,5.25,0,0,1-.52.17,15.85,15.85,0,0,1,2.57,1.08,8.32,8.32,0,0,0,3.73,1.53c2.63.14,4.51-1.49,6.15-3.31a9.27,9.27,0,0,1,1-1.06c.08-.08.24-.24.17-.15l.18-.09a.62.62,0,0,1-.52.11c0-.06,1.46.73,1.63.81a6.22,6.22,0,0,0,2.08.69c4.73.67,10.26-4.38,7.71-9.13l-2.2,2.35c5.56-.21,10.59-5.13,9.91-10.84L981.25,400c5.29,1.46,12.16-2.21,12.42-8.08l-3.44,1.55a9.76,9.76,0,0,0,9.15-2.86c2.06-2.15,3.19-5.34,2-8.21L998,384.37a8.82,8.82,0,0,0,8.52-2.17,7.15,7.15,0,0,0,2.09-3.56,14,14,0,0,0-.19-4c0-.41.12-1.15.09-1.37,0,.26-.65.15.27.22.37,0,.74,0,1.11.05a7.31,7.31,0,0,0,4.37-1.39c2.12-1.54,3.47-4.51,2.3-7l-3.42,1.93a8.8,8.8,0,0,0,8.9-3.6c1.73-2.42,2.19-5.66.36-8.15l-2.75,2.35c5,.8,10.82-5.13,7.42-9.9l-2.2,2.36c6.32-.5,11.57-8,7.67-13.73-.78-1.15-3-.42-3.75.37l-8.17,8.77-18.4,19.76-19.47,20.89-11.36,12.2a4.07,4.07,0,0,0-.4.43c-.3.48.64-.47.71-.46-.27,0-1,.47-1.23.59L968,400.13l-6.52,3.15c-1.5.72-3.15,1.34-4.58,2.2-.75.46,1.26-.14.8-.18a5.2,5.2,0,0,0-.69.08l-3.11.33q-5.82.6-11.65,1.11c-10.52.91-21.08,1.68-31.64,1.77a85.36,85.36,0,0,1-12.5-.59l-1.1-.17H897l-.29-.06-.54-.12a12.41,12.41,0,0,1-1.7-.53c.37.15-.27-.15-.48-.28a7.57,7.57,0,0,1-.84-.55,13.37,13.37,0,0,1-1.59-1.34,63.52,63.52,0,0,1-8.22-10.27c-3-4.43-5.84-9-8.55-13.65q-3.81-6.53-7.37-13.2c-1.49-2.78-3.05-5.75-4.32-8.24l-.6-1.2a2.06,2.06,0,0,0-2.51-.76c-.6.15-2.25,1-1.8,1.91,2.77,5.55,5.71,11,8.73,16.45,5.09,9.15,10.38,18.45,17,26.64,2.15,2.68,4.65,5.75,7.9,7.13,3,1.28,6.64,1.42,9.88,1.58,10.56.53,21.21-.2,31.74-1q11.51-.86,23-2.09c2.2-.24,4.06-1.38,6-2.33,3.66-1.77,7.36-3.46,11-5.31a10.75,10.75,0,0,0,2.76-2.54l5.64-6.06,18.34-19.68L1020,351.08l11.79-12.65.58-.62-3.76.37c1.94,2.85.53,8.72-3.26,9-1,.08-3.12,1.08-2.21,2.36,1.18,1.64.24,5.52-1.91,5.18-1-.16-3.79.95-2.75,2.36a4.68,4.68,0,0,1,.13,5c-.59,1.1-1.74,2.44-2.9,2.22a3.38,3.38,0,0,0-2.43.35c-.43.26-1.29.95-1,1.58.56,1.2.52,3.8-1.07,4.33a4,4,0,0,1-1.24,0,7.88,7.88,0,0,0-2.22.13,4.78,4.78,0,0,0-3.25,2.19c-1.09,2,.36,4.26-.25,6.33-.47,1.58-2,3-3.69,2.48-.93-.29-4,.38-3.42,1.93a5.47,5.47,0,0,1-.72,5.29c-.81,1.13-2.17,2.24-3.65,1.92-1-.23-3.37.1-3.44,1.55-.12,2.75-2.5,5.81-5.53,5-1.23-.34-3.61.31-3.42,1.93.37,3.1-1.86,6.67-5.16,6.79-1.13.05-2.91,1.05-2.21,2.36a3.44,3.44,0,0,1-1.21,4.17c-.43.3-.52.36-1,.2-1.23-.36-2.11-1.27-3.46-1.42a6.65,6.65,0,0,0-5.51,2.28c-.57.58-1.06,1.23-1.65,1.79-.16.15-.54.45-.55.45.54-.09-.2-.3-.39-.41-1.86-1-3.7-2.26-5.91-2.27a5.62,5.62,0,0,0-5,2.93,7.46,7.46,0,0,0-.6,1.5c-.1.34.14-.26-.06.18a1,1,0,0,1-.12.23c-.26.4.21-.31-.09.12s-.07,0,0,0c.29,0,.05-.09.06,0s.43,0,.06,0a2.44,2.44,0,0,1-.46,0,7.5,7.5,0,0,1-3-1.14c-2-1.12-4.18-1.91-6.44-.79a8.29,8.29,0,0,0-2.57,2.33c-.19.22-.7.68-.55.65a3.27,3.27,0,0,1-1.25-.3c-2.32-.73-4.44-1.5-6.88-.77a14.33,14.33,0,0,0-3.17,1.55c-.38.22-.77.41-1.15.61a1,1,0,0,1-.34.11c.5,0,.11,0,0-.09-1.44-.9-1.85-2.94-2.73-4.3a5.18,5.18,0,0,0-4.48-2.39c-3.65,0-6.22,2.83-9.16,4.3a4.06,4.06,0,0,1-.76.32c-.27.06-.06.1-.37,0-.63-.18-1.41-1.24-2-1.85-2.06-2.2-4.78-2-7.39-.92a7.45,7.45,0,0,1-2.53,1,2.78,2.78,0,0,1-1.93-1.29,13.07,13.07,0,0,1-2.23-6.3c-.21-1.44-2.86-.81-3.55-.28-.46.35-.2.08.06.09-.08,0-.24,0-.35,0a3.65,3.65,0,0,1-1-.53c-.89-.82-.63-2.08-.86-3.15a3.76,3.76,0,0,0-2-2.51c-.7-.4-1.8-.59-2.38-1.17s.35-1.78.58-2.51a3.49,3.49,0,0,0-.7-3.3c-.67-.85-5.28-3.78-3.82-5.17a1.08,1.08,0,0,0-.51-1.89c-1.17-.3-3.32-.88-3.58-2.33-.15-.86.56-1.66.7-2.49a3.54,3.54,0,0,0-.35-2.19c-.75-1.5-2.16-2.3-3.32-3.43a4,4,0,0,1-1-1.65c-.09-.3-.06-.69-.15-1s.36-.34-.17-.11c.78-.34,1.6-1.18,1.06-2.05-2.75-4.44-3-9.85-4.34-14.78C862,356.58,857.72,357.73,858.22,359.55Z"/><path d="M943.37,95.73,997,87.14l44.75,25.64,17.58,55.66-9.6,43.81h0l-9.81,62c-1.52.19.08,2.05-1.44,2.25a2.22,2.22,0,0,1-1.4-.13c-1-.6-.48-2.13-.2-3.28.66-2.68-.88-5.35-2.09-7.83s.75-4.12,2.51-6.24c.93-1.12,2.54-1.88,2.68-3.33.18-1.89-2.18-2.83-3.48-4.22a4.62,4.62,0,0,1,1.94-7.19s-3.39-3.58-2.35-10.81,3-15,3-15h0a8.54,8.54,0,0,1-1.2-1.61c-2.33-4.31,1.55-9.93-.4-14.43-.87-2-2.82-3.46-3.52-5.55-1.34-4,2.34-8.1,1.83-12.27-.58-4.69-6.27-8.55-4.56-12.95.84-2.14,3.26-3.39,4-5.58,1.25-3.82-3.11-8.7-.28-11.55,1-1,2.57-1.27,3.37-2.41,1.62-2.28-1.21-5-2.34-7.56s-.44-5.73-.82-8.6-3.14-6-5.76-4.73c1.47-4.57-1.54-16.86-6.3-16.24-2.34.31-5.34,1.51-6.62-.48-.9-1.42,0-3.42-.73-4.92-1.93-3.84-8.46,2-11.92-.49-.94-.68-1.38-1.86-2.18-2.71-1.81-1.91-4.92-1.69-7.44-.92s-5.07,2-7.67,1.56-4.88-3.58-3.32-5.7c-2.66,1.6-5.44,3.25-8.54,3.52s-6.59-1.27-7.49-4.25c-.74,4.38-7.38,6.2-10.25,2.81-1.14-1.35-1.94-3.39-3.7-3.55a3.84,3.84,0,0,0-2.23.67c-3.07,1.74-11.39,7.77-13,10.9Z"/><path class="cls-4" d="M943.1,97l18.08-2.89,28.94-4.64,6.61-1-1.43-.21,15.13,8.67,24.1,13.81,5.52,3.16-.46-.52,10.25,32.45,6,19,.86,2.72a6.74,6.74,0,0,0,.42,1.34c.12.18-.05.23,0-.19a2.45,2.45,0,0,1-.08.37c-.2.72-.32,1.48-.48,2.21L1048,210.36c-.47,2.15-.81,4.3-1.15,6.47l-3.08,19.44-5.93,37.48-.12.72,1.84-1.43a3.48,3.48,0,0,0-2.37,1.54,2.11,2.11,0,0,0-.19.92c0,.13,0,.27,0,.41-.12.75.39.52,1.52-.69.2.09.26.08.16,0a1.18,1.18,0,0,1-.08-.49,3.78,3.78,0,0,1,.16-.94,10,10,0,0,0,.37-2.94c-.16-2.27-1.37-4.11-2.24-6.13s.65-3.55,2-5.07c1.06-1.23,2.8-2.17,3.18-3.87s-.74-2.8-1.91-3.73-2.38-1.76-2.53-3.39c-.07-.78.28-2.87,1.11-3.16.57-.2,2.57-1.1,1.67-2.07-2.52-2.7-2.61-7.23-2.11-10.62a143.65,143.65,0,0,1,3-14.52l-.8,1h0c.5-.29,1.13-1,.63-1.62-2.58-2.92-1.64-6.22-1.1-9.72a13.08,13.08,0,0,0,0-4.87,12,12,0,0,0-2.58-4.48,6.23,6.23,0,0,1-1.53-4.71,29.93,29.93,0,0,1,1.44-5.05,10.68,10.68,0,0,0,.53-5.19,12.92,12.92,0,0,0-1.81-4.15c-1.33-2.23-3.88-5.19-2.66-8,.64-1.47,2.09-2.5,3-3.77a6.13,6.13,0,0,0,1.15-4.26,26,26,0,0,0-1.07-4.51c-.29-1.13-.73-2.67,0-3.72a4.66,4.66,0,0,1,1.7-1.15,6.17,6.17,0,0,0,2.12-1.81,4.19,4.19,0,0,0,0-4.36c-.92-1.85-2.31-3.44-2.7-5.52-.44-2.3,0-4.66-.32-7a7.28,7.28,0,0,0-2.75-4.65,6,6,0,0,0-6-.5l3,.76c1.15-3.79,0-8.68-1.5-12.2a9.66,9.66,0,0,0-3.24-4.38c-2-1.33-4.29-.48-6.5-.18-1.11.16-1.82-.07-2.05-1.28-.29-1.53.27-3-.65-4.44-1.22-1.87-3.76-1.72-5.69-1.33-1.74.36-4,1.55-5.54,1.24-.87-.18-1.41-1-1.91-1.78a6.34,6.34,0,0,0-3.59-2.73c-3.59-1-7,.5-10.38,1.48-1.48.43-3,.69-4.26-.36-1-.86-1.82-2.35-1-3.6.43-.65-.11-1.18-.72-1.35a3.53,3.53,0,0,0-2.66.51c-2.2,1.32-4.71,3-7.38,3a5.5,5.5,0,0,1-5.14-3.54c-.54-1.59-4-.55-4.31.82a3.51,3.51,0,0,1-3.65,3c-2.7-.23-3.24-3.26-5.23-4.59-2.65-1.79-5.82,0-8.14,1.56a74,74,0,0,0-6.44,4.74c-2,1.63-4.34,3.47-5.6,5.78l4.17-.13,5.36-15.72c.33-1-1.34-1.13-1.9-1.07A2.76,2.76,0,0,0,941.21,96l-5.36,15.72c-.29.86,1.12,1.09,1.63,1.07a3.11,3.11,0,0,0,2.55-1.21c1.06-1.93,3-3.43,4.68-4.81a66.43,66.43,0,0,1,6.26-4.58c.4-.25.79-.51,1.2-.74.12-.07.67-.27.28-.24s.2.17.39.33c1,.88,1.53,2.27,2.52,3.19,2,1.92,5.11,2.14,7.72,1.47,2.88-.75,5.69-2.73,6.3-5.79l-4.32.82c1.11,3.27,4.55,4.9,7.83,5,4.3.15,8.16-2,11.73-4.13l-3.39-.85c-1.53,2.34,0,5.07,2.15,6.35,3,1.78,6.85.55,9.92-.49a10.47,10.47,0,0,1,4.12-.84,4.09,4.09,0,0,1,3.11,2.15,6,6,0,0,0,6.31,2.6c2-.28,4.4-1.47,6.1-1.43-.18,0,.17.08.15.07a1.68,1.68,0,0,1,.67.86c.53,1.36-.13,2.91.43,4.28,1.23,3,5.14,2.18,7.59,1.72.23-.05.54-.09.77-.15.86-.2-.22-.07.3,0-.16,0,.24.08.44.21a5.81,5.81,0,0,1,1.59,1.72,18.26,18.26,0,0,1,2.41,6.82,13.93,13.93,0,0,1,0,6.42c-.45,1.49,2.48,1,3,.76-.36.14-.29-.08,0,.16a8.52,8.52,0,0,1,.8.53,5.5,5.5,0,0,1,1.46,2.07c.73,1.77.52,3.72.53,5.59a11.25,11.25,0,0,0,1.19,5.5c.76,1.4,2,2.77,2.27,4.37.35,1.79-1.25,2.07-2.45,2.9a4.92,4.92,0,0,0-2.28,3.48c-.31,2.88,1.62,5.47,1.45,8.31-.18,3.12-3.89,4.55-4.45,7.64-.51,2.84,1.39,5.4,2.81,7.67a13.25,13.25,0,0,1,1.9,4.11,9.5,9.5,0,0,1-.58,4.86c-1,3.2-2.3,6.33-.44,9.49,1,1.62,2.49,2.91,3.06,4.75a11.37,11.37,0,0,1,0,5.22,27.09,27.09,0,0,0-.6,5.46,7.77,7.77,0,0,0,2.13,5l.63-1.61a2.28,2.28,0,0,0-1,1.74c-.26,1-.5,2.11-.74,3.16-.79,3.51-1.5,7-2,10.6-.56,3.84-.39,8.85,2.45,11.89l1.67-2.07c-2.95,1-5.24,3.54-4.76,6.84a5.24,5.24,0,0,0,2.2,3.35c.88.7,2.77,1.79,2.13,3.16a5.28,5.28,0,0,1-1.34,1.37,22,22,0,0,0-1.91,2.07c-1.09,1.29-2.28,2.71-2.18,4.5.11,2,1.69,3.83,2.26,5.72a6.21,6.21,0,0,1,.25,3,13.94,13.94,0,0,0-.44,2.21c-.1,2.36,2.29,2.77,4.18,2.43a3.73,3.73,0,0,0,2.62-1.52,2.15,2.15,0,0,0,.24-.89,3.23,3.23,0,0,0,0-.44c-.16-.74,1.22,0-1.12.54.65-.15,1.72-.67,1.84-1.43l3.8-24,5.42-34.21c1-6.1,2.42-12.1,3.74-18.13l4.12-18.83,1.57-7.16a26.12,26.12,0,0,0,.74-3.38,4.89,4.89,0,0,0-.43-1.79l-1.53-4.84-5.14-16.28-9.9-31.34c-.24-.76-.37-1.83-1-2.34a18.59,18.59,0,0,0-2-1.17l-12.88-7.38L999.87,86.72a4,4,0,0,0-2.68-.87c-1,.11-2,.31-3,.47l-15.06,2.41-33.43,5.35-2.12.34c-.82.13-2.27.54-2.42,1.55S942.43,97.14,943.1,97Z"/><path class="cls-10" d="M863.8,109c.67,1.49-1.35,2.73-3,2.94s-3.71.57-4,2.18c-.15,1,.59,2,.44,3-.44,3-6.33.59-7.87,3.24-1.16,2,1.37,5.07-.36,6.58-.82.72-2.07.48-3.16.59a4.65,4.65,0,0,0-4,3.5c-.32,1.37,0,2.92-.75,4.12-.9,1.45-2.86,1.68-4.4,2.43-4,2-4.85,7.28-4.84,11.76s.07,9.61-3.28,12.59c-3.2-2.63.12-5.47,2.56-8.82a23.91,23.91,0,0,0,2.28-3,2.82,2.82,0,0,0-.38-3.44c-.49-.38-1.18-.54-1.48-1.08-.83-1.54,2.14-2,3.51-3.09,1.73-1.38.62-4.16-.75-5.89s-3-4-1.89-5.91c1-1.68,3.55-1.86,4.55-3.52,1.14-1.89-.41-4.34,0-6.49.62-2.87,4.2-3.77,7.11-4.1a4.59,4.59,0,0,1,1.85-7c1.1-.37,2.44-.37,3.14-1.29,1.06-1.35-.13-3.73,1.15-4.87,1.08-1,3-.15,4.13-1,1.85-1.38-.49-4.5.5-6.58,1.32-2.75,7.33-1.8,7-4.83"/><path class="cls-9" d="M861.65,109.62a1.25,1.25,0,0,1-.43,1.53c-.24.19.09,0,0,0s-.58.08-.64.09a11.65,11.65,0,0,0-4.45,1.48,2.65,2.65,0,0,0-1.4,2.73,12.79,12.79,0,0,1,.43,1.83c0,.31-.16.51-.18.77a.46.46,0,0,1-.17.22,1.37,1.37,0,0,1,.64-.28c.75-.32,0-.06-.5,0s-.86,0-1.29.08a13.16,13.16,0,0,0-3.83.81,3.64,3.64,0,0,0-2.6,5.21,10.72,10.72,0,0,1,.28,1.48,2.54,2.54,0,0,1,0,.87c-.13.47-.52.55.32.31,1.11-.33.16-.15-.14-.14a10.4,10.4,0,0,0-1.37.11,11.4,11.4,0,0,0-2.5.67,7,7,0,0,0-3.27,2.42c-.89,1.27-.82,2.62-1,4.1a2.82,2.82,0,0,1-2.21,2.65,12.69,12.69,0,0,0-3.59,1.83,10.35,10.35,0,0,0-3.49,6.27c-1.13,5.57,1.11,13.08-3.54,17.42l4-.89c-1.83-1.62-1.12-3.42.12-5.17s2.8-3.46,4.13-5.23c1-1.36,1.77-3.54.2-4.83-.44-.37-1.7-.7-1.47-1.5.12-.46.93-.66,1.28-.83,1.54-.74,3.18-1.63,3.24-3.54s-1.4-3.61-2.5-5.16-2.31-4-.23-5.38c1.42-.92,3.31-1.47,4-3.22.8-2.16-.84-4.45,0-6.59.66-1.67,2.26-2.06,3.88-2.26.5-.06,3.68-.71,3-1.6a4.19,4.19,0,0,1-.67-3.75,4.35,4.35,0,0,1,.89-1.67c.07-.08.65-.62.29-.36s0,0,.17,0l.7-.16c1.42-.37,3.39-1,4-2.5a5.43,5.43,0,0,0,.24-1.88c0-.23.28-2,.27-2,.12.15-1.74.2-1,.27a5.31,5.31,0,0,0,.69,0,10.1,10.1,0,0,0,1.22-.13,8.18,8.18,0,0,0,2.83-1,2.81,2.81,0,0,0,1.49-3c-.12-1.32-.8-2.81-.29-4.11a1.78,1.78,0,0,1,.71-.87,3.1,3.1,0,0,1,.79-.31c1.92-.59,5.74-1.31,5.55-4-.06-.78-4.39,0-4.31,1.16.07.92-.36,1.11-.86,1.26l-.49.15-.89.27a17,17,0,0,0-2.06.77A5.3,5.3,0,0,0,853,96.12c-.63,1.19-.24,2.61,0,3.85a4.27,4.27,0,0,1,.1,1.88c-.13.49-.59.67.29.35,1.15-.42-.08-.19-.49-.16-1.6.12-3.93.61-4.85,2.1-.73,1.18-.12,2.63-.54,3.88-.11.32-.63.76-.15.55a7.49,7.49,0,0,1-1,.25,9.38,9.38,0,0,0-2.59,1.09,5.08,5.08,0,0,0-1.45,7.44l3-1.6c-3.49.41-9.79,1.47-10.25,5.89-.2,2,1.38,4.85-.37,6.41-1.42,1.26-3.69,1.51-4.37,3.56-.79,2.39,1.28,4.36,2.49,6.15.88,1.29,2.13,4,.34,5-1.06.64-3.6,1.21-3.64,2.79,0,.91.85,1.23,1.48,1.66a2.32,2.32,0,0,1,.73,2.82c-.45,1.32-1.63,2.32-2.46,3.41s-1.73,2.17-2.54,3.29c-1.44,2-2,4.07.08,5.89.81.72,3.3-.27,4-.9,4.29-4,3.17-10.11,3.56-15.36.18-2.48.71-5.28,2.34-7.26s4.69-1.87,6.42-3.89c.91-1.05.88-2.34,1-3.66a5.23,5.23,0,0,1,.48-1.94,3.73,3.73,0,0,1,.65-.92c.29-.3.95-.53.19-.37.66-.14,1.44,0,2.11-.12a8.76,8.76,0,0,0,2.65-.81,2.89,2.89,0,0,0,1.83-2.73c0-1.11-.49-2.17-.57-3.28a3,3,0,0,1,.27-1.45c0-.06.23-.36.29-.33s-.51.16-.51.21,2.21-.15,2.52-.19a10.73,10.73,0,0,0,3.85-1,2.69,2.69,0,0,0,1.77-2.48c0-.83-.56-1.6-.45-2.44a1.1,1.1,0,0,1,.45-.8,18.22,18.22,0,0,1,2.13-.4,10,10,0,0,0,2.68-1.1c1-.65,2.09-1.63,1.64-3-.34-1-4.61.26-4.3,1.15Z"/><path class="cls-11" d="M1046.86,248.69l1-5.46-62.24-14.77h0c-23.52-7.83-55.69.18-74,13.18l-16.57,1.69.15-.26c-20-13.23-52.28-13.77-76.36-1.28l.79,2.55h0c0,.16.2.53.36,1.06l.71,2.22c4.39,14.17,9.43,29.13,13.67,32.92,2.86,2.56,11.85,3.4,19.25,3.61,2.79.11,5.34.1,7.17.1,2.21,0,21.75-.31,24.86-3.5s7.59-26,8.84-33.25l17-1.65c2.43,5.43,8,29.06,16.52,33.48s51,.36,54.63-5.74c2.59-4.35,9.85-20,11.56-27.9l3.06-10.25Zm-163.24,29.9c-3.42,3.08-42.32,4.05-47.25-.35-4.17-3.73-10.43-23.94-12.78-31.54l0-.31c21.56-9.93,50.6-9.5,68,1.66-2.4,12.46-6,28.48-8,30.47Zm94-6.48c-2.27,3.85-39.3,9-48.09,4.46-6.13-3.15-10.48-20.42-13.78-30.26,17.88-12.35,55.53-19.22,76.5-10.9-3.11,12.5-8.16,27.28-14.63,36.7Z"/><path class="cls-9" d="M899,312.65c-1.87-.69-3.92,0-5.57.94-1.16.68-2.06,1.67-3.42,1.6a6.93,6.93,0,0,0-3.59.64A4.38,4.38,0,0,0,885,316.9a5.91,5.91,0,0,0-.49.63c-.44.51-.21.51.72,0a6.11,6.11,0,0,0-1-.37c-.45-.2-.89-.44-1.35-.64a5.46,5.46,0,0,0-3.54-.33c-1.9.48-2.72,1.78-3.6,3.37a5.09,5.09,0,0,1-.3.5c-.2.23-.07.22.4,0,0,.11-1.22,0-1.34,0a9.73,9.73,0,0,0-3.09.2,6,6,0,0,0-2.52,1.25,3.42,3.42,0,0,0-.79,1c-.09.17-.52,1.23-.37,1.39.85-.23,1-.29.51-.16.25-.06.08,0-.52.1a6,6,0,0,0-1.25.37A2.55,2.55,0,0,0,864.8,326c-.21,1.87,4.14,1.13,4.32-.48-.06.57-2.08,1-.23.56a8,8,0,0,0,1.05-.33,3.49,3.49,0,0,0,1.9-1.7,4.62,4.62,0,0,0,.28-1,1.77,1.77,0,0,1,.16-.61c-.27.1-.34.15-.22.16a7.18,7.18,0,0,1,1.59.11,6.71,6.71,0,0,0,5.4-1.85A9.15,9.15,0,0,0,880.2,319c.1-.2.41-.54.44-.73-1.25.19-1.52.4-.82.63l.51.24a7.27,7.27,0,0,0,5.23.86,5.07,5.07,0,0,0,2.55-1.65c.11-.14.66-.73.62-.84-.93.25-1.06.36-.38.34l.61,0a9.19,9.19,0,0,0,5-1.45c.63-.38,1.22-.84,1.86-1.2a2.26,2.26,0,0,1,.56-.28c-.4.1-.5,0,0,.21,1.49.55,5-1.61,2.59-2.51Z"/><path class="cls-12" d="M909.3,331.39c15.21-1.06,39.74-4.57,39.74-4.57s1.64,34.58-33.63,37.05-35.95-31.07-35.95-31.07S894.09,332.45,909.3,331.39Z"/><path d="M909.15,331.4c7.23-.51,31.53-2.53,31.53-2.53s-5.83,21.87-26.79,23.55c-28.34,2.26-28.31-19.52-28.31-19.52Z"/><path class="cls-13" d="M908.91,332.5c7.23-.5,29.16-3.26,29.16-3.26s-4.45,8.21-26.15,9.73-26.46-5.27-26.46-5.27Z"/><path class="cls-12" d="M879,331c.76-.24-6.4.14-2.83-.42,5.95-.93,9.58-2.77,13.9-3.4,7.36-1.09,12.27,1.5,15.49,1.27S913.3,325,920.74,325c4.36,0,15.21.86,21.23,1,3.62.06,7.73-1.63,8.51-1.5,1.09.19-1,10.06-41.58,11.7C875.28,337.53,878,331.34,879,331Z"/><path d="M901.76,317l.22,6.63a2.61,2.61,0,0,1-2,2.23c-7,1.57-26.41,5.51-32.81,5.89a2.16,2.16,0,0,1-.44,0l.37.07c-2.41-.33-1.42-5.76.81-6.87,6.77-3.41,5.11-4.53,8.89-5.77,4.72-1.55,16.65-4.76,22.43-5.11A2.49,2.49,0,0,1,901.76,317Z"/><path d="M1059.19,264.91c4.6,1,5.47,6.35,5.33,10.33,0,1.14-.23,2.24-.2,3.38a24.27,24.27,0,0,1-2.16,10.44,19.2,19.2,0,0,1-2.29,3.89c-.54.69-1.39,1.86-2.28,2.1-1.28.35-1.37-2-1.32-2.84.21-3.94,1.94-7.73,1.8-11.7,0-1.59-.71-2.86-2.44-2.92a25.87,25.87,0,0,0-5.18.83l.74.29c2.2-7.86,4.24-15.78,8-23.1,1.63-3.21,3.69-6.91,6.79-9l.41-.24c.34-.19.06,0,.27-.13s.11,0-.1,0l-.69-.09a13.8,13.8,0,0,1,3.13,4.32,27.87,27.87,0,0,1,2.6,14.2c0,.62,1.73.24,1.76-.26.31-5.72-.56-11.69-3.83-16.53a7.94,7.94,0,0,0-2-2.35,1.71,1.71,0,0,0-1.46.08,10.27,10.27,0,0,0-3.72,2.74,35.46,35.46,0,0,0-6,9.67c-3.07,6.72-4.92,13.83-6.9,20.92-.1.36.58.32.74.29l2.67-.48a6.82,6.82,0,0,1,2.09-.3c1.62.27,1.42,2.75,1.31,3.92-.22,2.22-.78,4.39-1.21,6.57-.34,1.68-.89,3.77-.42,5.48s2.15,1.76,3.54,1.23c2.08-.8,3.55-2.84,4.64-4.69a24.38,24.38,0,0,0,3.21-10.13c.11-1.2,0-2.41.07-3.6,0-.57.14-1.13.18-1.7.3-4.65-.66-10.34-6-11.51-.48-.11-2.06.65-1.11.86Z"/><path d="M918.32,118.09a14.09,14.09,0,0,0,9.91-.36,5.24,5.24,0,0,0,3.81-4.47,5.39,5.39,0,0,1,.23-.81c.45-1.1.92-.41-1.25.15l-2.26.27c.32,0,1,.69,1.31.85a6.05,6.05,0,0,0,1.95.6,11.24,11.24,0,0,0,4.43-.34c3.07-.8,5.42-2.41,6.39-5.5a18.79,18.79,0,0,1,.64-1.92,4.52,4.52,0,0,1,.43-.85c1.07-1.49-.12,1.94-2.51.21a5.92,5.92,0,0,0,4.65.65,6.77,6.77,0,0,0,4.51-2.65c.75-1.22.6-2.73,1.19-4,.49-1.09-2.1-.81-2.51-.74-1,.18-3.07.63-3.58,1.76a12.94,12.94,0,0,0-.66,2.66c-.09.36-.25.69-.35,1l-.15.26q5.32-.15,3.26-.87a7.21,7.21,0,0,0-6.16-.12,7,7,0,0,0-4.14,3.5c-.7,1.51-.79,3.23-1.93,4.51-.19.22-.76.36.14,0-.65.25.83-.29.92-.2s-.6-.12-.68-.15a3.82,3.82,0,0,1-.87-.51c-1.93-1.35-4.39-1-6.44,0a4.94,4.94,0,0,0-2.18,1.86,15.1,15.1,0,0,0-.77,2.56c0,.1-.51.82-.51.91-.17.13-.15.15.05,0a3.25,3.25,0,0,1,1.16-.29c-.13-.12-.89-.07-1.15-.11-.62-.12-1.24-.31-1.85-.48a6.51,6.51,0,0,0-4.31.74c-.59.3-2.08,1.37-.72,1.76Z"/><path d="M869.91,327.9c-2,2-4,4.22-4.06,7a10.65,10.65,0,0,0,.53,2.95l1.27,4.49a1.79,1.79,0,0,0,.4.83,1.87,1.87,0,0,0,.93.37,7.53,7.53,0,0,0,3.2.12,2.53,2.53,0,0,0,2-2.25,3.45,3.45,0,0,1,0-1.32c.29-.8,1.41-.78,2.23-1.05,2.06-.68,2.32-3.39,3.11-5.41,1.07-2.73,3.64-4.62,6.35-5.75a21,21,0,0,0,4-1.82,4.19,4.19,0,0,0,2.06-3.7"/><path d="M956.66,323.72c2.17,1.71,4.52,3.7,4.87,6.45a10.84,10.84,0,0,1-.17,3l-.72,4.6a1.74,1.74,0,0,1-.29.87,1.81,1.81,0,0,1-.88.48,7.55,7.55,0,0,1-3.17.51,2.53,2.53,0,0,1-2.25-2,3.57,3.57,0,0,0-.15-1.31c-.39-.76-1.5-.6-2.34-.77-2.13-.43-2.71-3.09-3.74-5-1.4-2.57-4.17-4.14-7-4.93a22,22,0,0,1-4.24-1.32,4.24,4.24,0,0,1-2.49-3.42"/><path d="M955.41,318a6.4,6.4,0,0,0-5.41-2.1c-.93.1-2,.39-2.75-.1a3.73,3.73,0,0,1-1-1.13c-1-1.35-2.45-.89-4.09-.51a23.79,23.79,0,0,1-4.46.49c-2.1.12-4-2.48-5.89-1.6-.75.35-1.2,1.16-1.94,1.53-1.19.6-2.61-.16-3.63-1a4.82,4.82,0,0,0-3.29-1.21,7.41,7.41,0,0,0-3.47.52c-1.1.52-4.58,2.59-5.23,1.56"/><path class="cls-9" d="M957.4,317.06a8,8,0,0,0-4.24-2.42,9.37,9.37,0,0,0-2.53-.19c-.83.05-1.51.44-2.08-.25a4.47,4.47,0,0,0-4.22-1.84c-1.77.15-3.47.7-5.26.81-1.4.09-2.19-.57-3.42-1.14a5.64,5.64,0,0,0-4.77-.09,4.91,4.91,0,0,0-2,1.46l-.08.08c-.27.24,0,.2.68-.12l-.43-.18c-.38-.29-.81-.52-1.2-.81a7.16,7.16,0,0,0-4.4-1.46,11.2,11.2,0,0,0-5.63,1.19c-.6.31-1.21.63-1.83.9a3.47,3.47,0,0,1-.59.23c-.09.07-.31,0-.16,0s.67-.11.92.2c-1.08-1.3-5.21.3-4,1.78,1.66,2,5.34,0,7.1-.87a5.13,5.13,0,0,1,3.41-.68c1.62.27,2.68,1.86,4.32,2.27a5.78,5.78,0,0,0,5.25-1.49c1.18-1.08-.49-.15-.46-.31a4,4,0,0,1,.7.25c.62.28,1.19.67,1.82.95a9.43,9.43,0,0,0,4.86.48,23.48,23.48,0,0,0,3-.44c.38-.08,1.18-.43,1.53-.33.66.18,1.15,1.41,1.79,1.8a5.06,5.06,0,0,0,3,.48,6.74,6.74,0,0,1,2.61,0,5.18,5.18,0,0,1,2.29,1.47c1.16,1.24,5.27-.41,4-1.78Z"/><path d="M910.67,315.66l1.85,7a2.61,2.61,0,0,0,2.33,1.94c7.67.55,36.82,2.56,43.7,2,.17,0-.41,2.9-.25,2.86l1.6-.22c2.54-.68.1-9.19-2.41-10a146.73,146.73,0,0,0-18.61-4.68c-5.23-.86-19.67-2.76-25.89-2.27A2.61,2.61,0,0,0,910.67,315.66Z"/><path class="cls-14" d="M1136.65,668.14A7.43,7.43,0,0,1,1137,667l5.53-13.36a7.65,7.65,0,0,1,5.87-4.49c11.78-2,45.94-7.41,81.23-8.57l.11,10.6.9,0,.39,35.77-3.62.05c-24.72.35-42.86.59-56.15.77-7.4,26.08-13.13,77.32-14.74,86.23-1.72,9.52-6.5,45.61-8.41,60.24a7.61,7.61,0,0,1-7.68,6.29l-5.92.06c-4.4,0-8-3.22-7.89-7.23C1127.18,804.7,1129.64,700.21,1136.65,668.14Z"/><path class="cls-3" d="M1056.94,396.06l20.38,8.66c27.29,11.7,114.19,37.32,133.14,60.21,28.46,34.2-86.09,136.23-89.81,164.91-1.89,13.91-13.27,117.17-.35,197.43A1344.85,1344.85,0,0,1,1136,988.49l-86.68,11.86a456.26,456.26,0,0,1-127.58-.52l-108.22,21c2.1-55.37-23.32,41.37-17.49-31.26l1.79-412.92,39.26-110.78s-5.61-4.6-3.12-9.91l75.83-38.48S885.49,466,928.57,471.88c44.48,6,71.67-5.22,105-31.2C1033.56,440.68,1053.56,411.52,1056.94,396.06Z"/><path class="cls-3" d="M1192.14,611.63s29,196.19,36.38,253.57,20.33,139,16.07,175.81-214.57,58.2-292.41,50.71-150.7,3.84-144.11-93.38c2.82-41.72,167.66-423.57,167.66-423.57Z"/><path class="cls-15" d="M785.6,557.2q.28,26.25.6,52.52.28,22.89.63,45.8.33,20.43.75,40.86.4,18.86,1,37.7.54,18.18,1.26,36.34l.18,4.49c.07,1.82,3.74,1.19,3.68-.32q-.75-18.14-1.3-36.29-.58-18.72-1-37.44-.47-20.18-.77-40.37-.37-22.54-.64-45.09-.33-25.8-.6-51.59c0-2.31-.05-4.62-.08-6.93,0-1.82-3.69-1.21-3.68.32Z"/><path class="cls-16" d="M318.38,267c-1.89.13-2.81,1.84-3.59,3.35-.61,1.18-1.59,3.47-3.32,2.74a4.23,4.23,0,0,1-1.69-1.74,20.53,20.53,0,0,0-1.55-2.26,2.87,2.87,0,0,0-4.37-.27,15.7,15.7,0,0,0-1.85,2.52c-.44.63-1,1.46-1.91,1.27-.71-.16-1,.93-.3,1.09,1.95.42,3-1.47,3.88-2.84a4.05,4.05,0,0,1,1.75-1.75,1.78,1.78,0,0,1,2,.74c1.16,1.31,1.74,3.26,3.35,4.14s3.31-.14,4.23-1.61c.53-.86.93-1.79,1.45-2.66a2.72,2.72,0,0,1,2-1.59c.72-.05.72-1.18,0-1.13Z"/><path class="cls-17" d="M361.4,411.85c-17.13-9.65-22.53-29.91-22.67-48.48-.15-17.78-16.34-43.24,5-44.78.22,0-2.46-4-4-7.72-.52,1.2-1.08,2.39-1.7,3.54-1.19,2.2-5,.66-4.07-1.72a94.94,94.94,0,0,0,3.8-12.69,58.74,58.74,0,0,0,1-22.45A43.52,43.52,0,0,0,331,259.13c-56.72-60.62-116-38.91-152.07-29.71-71.94,18.36-99.37,97.42-68,169.06C143,471.91,198,489.77,271.41,479c31.39-4.59,70.4-35.5,90.7-66.82Z"/><path class="cls-2" d="M317.49,530.71c-1.15-3.71.45-40.83.45-40.83l-58.47-25.73-64.12-20.46s12.41,45.48,5.48,75.76c-.86,3.79-6.71,9-6.71,9s17.83,53.87,92.67,53.94S325,536.24,325,536.24Z"/><path class="cls-18" d="M314.53,493.07c-1.5-9.84-.65-8.5-2-18.6a12.58,12.58,0,0,1-.09-2.43c-29.57,4.4-73.39-2.92-98.39.43,1.05.57,10.32,15.12,26.06,25.33,25.28,16.41,42.21,20.39,63.74,18.5l5.93-.2s7.39-.46,7.37-1.45V492.28Z"/><path class="cls-2" d="M194.46,439.35c-2.51-11.21-.4-14.08-6.06-24.12-4.28-7.61-19.09-19.18-26-24.52-5.15-1.69-11.07,2.05-14,6.38l-.41,1.52c-4,10.76,4.35,32.35,20.86,43.62,5.61,14.65,23.59,12.46,29.78,5.16C198.15,444.64,195.07,442.07,194.46,439.35Z"/><path class="cls-2" d="M370.08,402.22c-1.73-6.46-12.23-18.78-12.73-25.16-.59-7.36-1.08-41.86-11-63.05-4.18-8.95-8.12-16.26-11.49-22a2.29,2.29,0,0,1-.82-.82,33.9,33.9,0,0,0-2.53-3.83c-8.84-11.29-24-15.89-37.77-18.06-7.76-1.22-15.68-14.4-23.53-14.32-4.64.05-9.45,13.08-14.12,13.51.27.41.28.58-.17.35,0,.22-1.25.11-2.63-.06-1.35.15-2.68.31-4,.5a1.06,1.06,0,0,0,.16.23c.17.54.77,1.55,1.21,1.49-2.77,1.8-6.37,1.39-9.61,0,1.13.77,1.76,1.61,2.32,2-2.48.36-4.38,1.1-7.13-.37.07.46,1.26,1.68,1.76,1.61a9.89,9.89,0,0,1-8.06.24c.07.45,1.19,1.22,1.75,1.6a7.06,7.06,0,0,1-6.07-.05l1.76,1.61c-2,.29-3.33,1.41-6.44.93.07.46,1.13.77,1.19,1.23a18.6,18.6,0,0,1-5,.26c.06.45,1.68,1.15,1.19,1.22-1.76.26-3,1.17-5.12,1l-.38.25a14.77,14.77,0,0,0,1.31,1.24,33.59,33.59,0,0,1-4.1.64l-1.24.88a3.19,3.19,0,0,0,.6.57,12.9,12.9,0,0,0-2.14.56l-1.91,1.46-.36.29.22.15-.5.09c-13.36,10.75-23.91,24.57-32.15,39.45a184.4,184.4,0,0,0-14.85,35.09c.3,2.59.7,4.83,1.05,6.54a32.7,32.7,0,0,0,2.8,6.9A70.76,70.76,0,0,1,175,391.09c7.56,11.12,12,24.15,14.57,37.26,1.82,9.37,9.69,18.88,10.07,28.4l-.16,3.43,15.32,19c26.48,22.31,56.63,34,79.35,33.83,11.12-.1,21.38-.09,33.8-6.18C359.46,491.35,379.5,437.24,370.08,402.22Z"/><path class="cls-19" d="M177.85,423.44a94.84,94.84,0,0,0-10.11-14.64,30.64,30.64,0,0,0-6.74-6.12,9.11,9.11,0,0,0-3.63-1.49c-1.25-.16-1.62.84-2,1.87-2.05,5.1-1.33,10.91.42,16,.24.7,1.68.3,1.44-.38a24.59,24.59,0,0,1-1.32-12.39,15.25,15.25,0,0,1,.95-3.24c.12-.28.29-.56.4-.85a.71.71,0,0,1,.12-.21l-.66.33c.15,0,.16,0,0,0,.18.06.42.05.61.1a6.69,6.69,0,0,1,.88.29,10.27,10.27,0,0,1,1.37.68c3.7,2.16,6.63,5.64,9.21,9a108,108,0,0,1,7.75,11.76c.35.6,1.72,0,1.32-.66Z"/><path class="cls-19" d="M177.52,423.68c-2.6.26-5.88,1.14-4.9,4.4.89,3,3.21,5.48,3.53,8.66.1,1.06-.34,3.65-1.59,3.53-1.8-.16-3.56-2.19-4.57-3.49a18.28,18.28,0,0,1-3.9-10.37c-.15-3.83,0-9.7,3.84-11.83.59-.34-.84-.18-1.1,0-3.53,2-4.12,6.68-4.2,10.33a18.82,18.82,0,0,0,2.81,10.68c1.54,2.51,5,6.79,8.39,4.85,3.09-1.75,1.46-6,.28-8.32A22.41,22.41,0,0,1,174,427.3c-.48-2.15,1-2.86,2.94-3.06.37,0,1.57-.65.63-.56Z"/><path class="cls-20" d="M342,359.52c2.46-2.12,6-1.61,8.25-.39a7.38,7.38,0,0,1,2.91,2.87,7.67,7.67,0,0,1-.17,7.13,6.88,6.88,0,0,1-7.46,3.18c-3.8-.83-5.88-4.74-5.73-8a6.93,6.93,0,0,1,2.2-4.81"/><path class="cls-20" d="M262.52,378.18c-3.15-.82-6.13,1.21-7.58,3.28a7.37,7.37,0,0,0-1.35,3.85,7.68,7.68,0,0,0,3.28,6.34,6.89,6.89,0,0,0,8.1-.43c3-2.41,3.2-6.84,1.64-9.68a6.92,6.92,0,0,0-4.09-3.36"/><path class="cls-20" d="M280.41,383.94s-17.29-7.42-25-6.42c-13.92,1.82-24.76,12.55-27.48,18.57,0,0,17.24-14.87,25.2-15.73C260.73,379.54,280.41,383.94,280.41,383.94Z"/><path class="cls-21" d="M362.63,721l.34-.25.12.18Z"/><path class="cls-22" d="M422.71,726.79s46.38-11.27,42.65-17.68-14.74-42.78-26.77-77.05c-18.5-52.66-30.94-64.65-45.79-75.39s-75.31-26-75.31-26,35.66,34.83-24.16,45.9-98.19-52.79-98.19-52.79l-44.22,20.27c-44.4,20.46-88,55.73-89.92,107.28L98.86,776.26l12.42,121.86s-31.23,22.48-43.18,115c0,0,71.88,8,181.24,11.49,101.91,3.29,176.28-17.9,176.28-17.9-18.1-51.2-33.21-143.6-32-152.7,2.72-20.94,4.55-24.64,11.28-30.64,7.95-7.08,18.24-16.5,23.32-25.77,10.1-18.46,5.18-56.42.29-75.76"/><path class="cls-2" d="M161.11,602.37c16.27,2-10.57,13.3-10.57,13.3,36.2,62.33,41.19,251.1,41.19,251.1l170.8,8.87a142.53,142.53,0,0,0,25.68,1.82L411,877l14.14,44.67c-54.62,16-168.8,50-268.91,49.86-30.74-.06-44.48-31.07-55.5-63-6.66-19.31-27.35-183.17-31.27-191.63,0,0,3.43-30.32-4.76-75.14S129,598.46,161.11,602.37Z"/><path class="cls-23" d="M190.46,866.37c-5.35,2.46-10.45,5.86-13.89,10.72a32.51,32.51,0,0,0-5.34,14.4,82.12,82.12,0,0,0-.72,9.91c0,.87,4.26.24,4.29-1.14.22-10.16,1.7-20.92,9.84-27.94a35.1,35.1,0,0,1,8.36-5.16c.55-.25,1.29-.9.47-1.29s-2.25.15-3,.5Z"/><path class="cls-22" d="M140.38,550.41s-66.45,37-79.38,82.42S60.94,759,60.94,759s92.46-3.27,136.94-23.27S140.38,550.41,140.38,550.41Z"/><path class="cls-24" d="M124.39,592.13c12.56-2.59,24.4,3.42,33.49,11.71A75,75,0,0,1,176,629.4c4.2,9.65,6.59,20,8.28,30.33,1.91,11.68,3,23.47,4.2,35.24,1.59,15.45,3.41,30.89,6.32,46.16l3-1.57-4.37.87c-.72.14-2.73.49-3,1.34s1.72.49,2,.43l4.37-.87c.44-.08,3.19-.65,3-1.56-2.66-14-4.43-28.09-5.91-42.23-1.28-12.16-2.34-24.36-4.18-36.46-1.62-10.66-3.88-21.33-8-31.34a76.74,76.74,0,0,0-17.45-26A52.53,52.53,0,0,0,146.79,592a38.23,38.23,0,0,0-21.44-1.61c-.71.15-2.72.49-3,1.35s1.71.49,2,.43Z"/><path class="cls-24" d="M421.11,652.14c-4.81,7.36-3.81,16.94-2.69,25.21a223,223,0,0,0,4.45,23.49c.81,3.28,1.78,6.53,2.67,9.8l3.08,11.25c.4,1.46,5.46.11,5.06-1.36-1.88-6.87-3.79-13.73-5.63-20.61-.78-2.93-1.32-5.94-1.93-8.9-.79-3.89-1.53-7.8-2.15-11.72a80,80,0,0,1-1.3-16.42A22.49,22.49,0,0,1,425.76,652c.62-.94-.53-1.19-1.28-1.18-1,0-2.76.38-3.37,1.3Z"/><path class="cls-25" d="M320.38,738.76s-.74,2.53-4.65.3c-63.33-36-136.13-210.47-136.13-210.47l10.3-6.72s67.52,166.2,129.71,216.93"/><path class="cls-25" d="M319.32,733.18c40.31-78.74,1.06-204.57,1.06-204.57L331,531.27s43.26,154.11-9,205.28l-13.64-2.63"/><path class="cls-26" d="M347.76,816.45l-34.46,4.7a7.5,7.5,0,0,1-8.39-6.5l-8.33-62.42a7.55,7.55,0,0,1,6.38-8.51L337.43,739a7.47,7.47,0,0,1,8.38,6.49l8.33,62.42A7.53,7.53,0,0,1,347.76,816.45Z"/><path class="cls-27" d="M326.4,810.39l-11.2,1.52a3.47,3.47,0,0,1-3.9-3l-1.14-8.54a3.51,3.51,0,0,1,3-4l11.2-1.52a3.49,3.49,0,0,1,3.91,3l1.14,8.54A3.52,3.52,0,0,1,326.4,810.39Z"/><path class="cls-28" d="M310.94,786.74h0a.72.72,0,0,1-.8-.62L305.86,754a.72.72,0,0,1,.6-.81h0a.72.72,0,0,1,.8.62l4.29,32.12A.73.73,0,0,1,310.94,786.74Z"/><path class="cls-28" d="M338.31,807.08h0a.7.7,0,0,1-.8-.61l-7.61-57a.71.71,0,0,1,.6-.81h0a.7.7,0,0,1,.8.61l7.62,57A.71.71,0,0,1,338.31,807.08Z"/><path class="cls-28" d="M345.34,806.13h0a.72.72,0,0,1-.8-.62l-7.61-57a.72.72,0,0,1,.61-.81h0a.71.71,0,0,1,.8.62l7.61,57A.73.73,0,0,1,345.34,806.13Z"/><path class="cls-28" d="M308.67,741.17l-.44-3.33a4.61,4.61,0,0,1,3.91-5.21l13.53-1.85a4.59,4.59,0,0,1,5.14,4l.44,3.33a4.63,4.63,0,0,1-3.91,5.22l-13.53,1.84A4.59,4.59,0,0,1,308.67,741.17Z"/><path class="cls-7" d="M321.94,423c-2.81,2.23-7.66,2.8-11.19,1.52-.78-.29-3,.59-1.93,1,4.66,1.69,11.56.57,15.19-2.31.36-.29.23-.57-.3-.64a2.91,2.91,0,0,0-1.77.44"/><path class="cls-7" d="M307.28,424.87a20.4,20.4,0,0,0-7.15-.31,1.6,1.6,0,0,0-1,.54c-.16.21-.16.45.13.54a7.72,7.72,0,0,0,3.91.1,1.49,1.49,0,0,0,1.07-.67c.15-.36-.28-.48-.59-.41a6.26,6.26,0,0,1-3.16-.09l-.85,1.08a18.26,18.26,0,0,1,6.39.29,1.52,1.52,0,0,0,1.22-.38c.22-.19.42-.59,0-.69"/><path class="cls-7" d="M298,427c-2.77.48-6.24,0-8-1.81-2.65-2.66-1.74-8.19,1.31-10.83.33-.28.08-.52-.32-.52a2.3,2.3,0,0,0-1.41.59c-2.66,2.3-3.77,7-2.75,9.75.95,2.61,4,4,7.41,4.08a15.72,15.72,0,0,0,3.13-.19c.42-.08,1.15-.35,1.29-.71s-.27-.43-.66-.36"/><path class="cls-7" d="M326.72,420.6A.36.36,0,0,1,327,420a3.36,3.36,0,0,0,2-1.11l.9.73a10,10,0,0,0-4,2.36.78.78,0,0,1-.9,0c-.21-.11-.47-.41-.24-.64"/><path class="cls-7" d="M324.71,421.4a11.14,11.14,0,0,1,4.5-2.62.94.94,0,0,1,.81.17.39.39,0,0,1,.09.56"/><path class="cls-7" d="M332.52,419.82a5.73,5.73,0,0,0,4.13-4.22,7.94,7.94,0,0,0-3.85-8.23.33.33,0,0,1,0-.6,1.11,1.11,0,0,1,1,.11,8.9,8.9,0,0,1,4.37,6.77,6.36,6.36,0,0,1-3.08,6.17,7.07,7.07,0,0,1-1.9.81,1,1,0,0,1-1-.26c-.2-.3,0-.49.28-.55"/><path class="cls-20" d="M320.92,374.7s11.35-13.61,18.16-15.78c9.95-3.16,14.18,0,18.85,4.29,0,0-8.87-5.1-15.82-2.67C335.48,362.87,320.92,374.7,320.92,374.7Z"/><path class="cls-12" d="M321.66,442c-14.67,2.39-43.59,5.37-43.59,5.37s9.34,34,43.34,28.43,25.39-39.13,25.39-39.13S336.32,439.55,321.66,442Z"/><path class="cls-29" d="M321.8,441.92c-7,1.14-40.14,5.4-40.14,5.4s14.82,22.9,39.84,17.71c26.27-5.45,20.88-27.27,20.88-27.27Z"/><path class="cls-30" d="M322.29,443c-7,1.2-6.93,1.52-33.26,4.27,0,0,9,6.77,29.86,3.35S346,438.2,346,438.2Z"/><path class="cls-12" d="M348.38,436.69c-.78-.07-.87.15-5.42-1.53a13.36,13.36,0,0,0-7.45-1.24c-7.23.59-11.28,4.29-14.38,4.8S313,437,306,438.76c-4.12,1-15.71,4.65-21.39,6.12-3.41.88-7.7.13-8.41.44-1,.43,2.31,8.05,41.32,1.66S349.45,436.79,348.38,436.69Z"/><path class="cls-31" d="M970.61,813.7l-93.09-53.44s-50.24-7.21-72.23-17.27a215,215,0,0,1-44.22-29.54l-28.27-8.57a44.57,44.57,0,0,1-14.54-7.56l-7.48-5.87s-25,2.68-27.52-5.55,6.24-11.84,14.74-15.34,141.16-5.83,141.16-5.83c-11.12-10.2-16-18.23-28.42-26.55-19.09-12.65-25.87-28.34-17.93-36,5.58-5.36,27.92,9.86,41.84,25.19,9,10,34.72,14.88,52.61,30.19s24.65,45.88,24.65,45.88c6.45,6.89,23.93,23.28,23.93,23.28C935.82,728.54,970.61,813.7,970.61,813.7Z"/><path class="cls-18" d="M710,693l8.41,1,20.19,2.5,24.58,3,21.14,2.62c3.42.43,6.86,1,10.29,1.28l.15,0a2.78,2.78,0,0,0,2.76-1.29c.43-1-.39-1.64-1.28-1.75l-8.41-1-20.2-2.51-24.57-3L722,691.23c-3.43-.42-6.86-1-10.3-1.28h-.15a2.76,2.76,0,0,0-2.75,1.28c-.43,1,.38,1.64,1.28,1.75Z"/><path class="cls-18" d="M758.78,714.72a78.39,78.39,0,0,0,25.13,7.83,43.7,43.7,0,0,0,11,.1c.82-.11,2.3-.28,2.83-1s-.45-.8-1-.73c-7.65,1-15.46-.75-22.7-3.12a77.82,77.82,0,0,1-11.22-4.52,3.76,3.76,0,0,0-2.73.23c-.19.07-1.93.88-1.26,1.23Z"/><path class="cls-31" d="M354.19,941.75l80.73-12.88s37.73,8.45,56.11,7.23A163.64,163.64,0,0,0,530.5,927L572.26,925s17.09,8.67,21.1,3.49-1.25-10.12-6.35-14.91-98.93-42.32-98.93-42.32c10.67-4.26,16.35-8.64,27.41-11.22,17-3.85,26.08-13.19,22.49-20.76-2.52-5.32-22.55-.53-36.6,6.63-9.14,4.64-28.76,1.2-45.63,7.27s-30,26-30,26c-6.45,3.16-23.33,10.1-23.33,10.1C402,890.51,354.19,941.75,354.19,941.75Z"/><path class="cls-18" d="M449,855.2a46.6,46.6,0,0,0-23.44,19c-.38.62-.76,1.25-1.09,1.91l.76-.62a16,16,0,0,1-5,1.13,70,70,0,0,1-7.38.37c-4.6,0-9.2-.17-13.79-.5-1-.06-1.94-.14-2.9-.22a2,2,0,0,0-1.89.82c-.28.63.25,1,.82,1a138.91,138.91,0,0,0,23.16.49,30.9,30.9,0,0,0,6.34-1c1.14-.33,2.27-.66,2.85-1.74a38.37,38.37,0,0,1,5.68-7.77,43.44,43.44,0,0,1,17.1-11.44c.48-.17,1.11-.76.73-1.29s-1.42-.29-1.92-.11Z"/><path class="cls-18" d="M407.51,934.12l16.07-2.56,9.25-1.48a6.17,6.17,0,0,0,1.88-.3c-.11.07-1-.17-.3,0,.55.16,1.13.25,1.69.37q9.51,2,19.13,3.63a2.28,2.28,0,0,0,2-.54c.39-.42.35-1.07-.32-1.18q-9.06-1.51-18-3.4a12.83,12.83,0,0,0-4.9-.54l-19.6,3.12-6.56,1c-.55.09-1.54.37-1.61,1.06s.79.83,1.28.75Z"/><path class="cls-18" d="M573.19,923.89l-21.45-5.24-33.92-8.29L510,908.45a2.27,2.27,0,0,0-2.28.61.91.91,0,0,0,.41,1.54l21.46,5.24,33.91,8.29,7.83,1.91a2.27,2.27,0,0,0,2.27-.61.91.91,0,0,0-.41-1.54Z"/><path class="cls-18" d="M531.26,926.83a59.45,59.45,0,0,1-9,.18c-5.85-.27-11.92-1.22-17.16-4a2.8,2.8,0,0,0-2.08.17c-.14,0-1.46.66-1,.93,5.43,2.89,11.71,3.9,17.8,4.22a63.63,63.63,0,0,0,10-.19c.59-.06,1.81-.21,2.16-.77s-.3-.61-.77-.55Z"/><path class="cls-2" d="M1261.74,934.35a206.17,206.17,0,0,0-13.34-36.62c-5.55-11.51-17.85-11.61-26.31-21.21-8.19-9.29-14.75-10.52-25.84-16.08-9.17-4.6-15.18-17.86-25.31-19l-37.67-156.69c2.45-8.49,12-112.53-1.14-221.27,0,0,79.52,17.06,109.45,114.25,13.61,44.18,93.23,321.57,25,361.22C1266.27,937.8,1262,935.46,1261.74,934.35Z"/><path class="cls-5" d="M885.79,693.39,1085.52,775a548.24,548.24,0,0,1,60.34,24.7l24.79,14.21,2.1-4.09a85.57,85.57,0,0,1,17.17,28.87c8.21,23.58,18.35,45.32,11.2,68.79-3.59,11.78,1.65,17.36-3.93,28.38,0,0,5.52,12.1-2.33,14.9-65.17,3.15-304.22-196-304.22-196Z"/><path class="cls-3" d="M1248.31,740.85c-20.43,4.12-83.51,19-104.17,19.57l-23.53-131.49-9.09-204.33s95.33,17.16,126.29,67.86c21.88,41.31,53.36,157,72.11,229.28C1290.41,732.37,1270.39,736.39,1248.31,740.85Z"/><path class="cls-15" d="M1124.78,481.89c-8,3.17-13.13,10-16.41,17.73-3.58,8.5-5.28,17.75-6.42,26.86a195.28,195.28,0,0,0-1.68,23.16c0,8.11.44,16.21,1.14,24.28,1.74,20.06,4.85,40,8.34,59.82,3.82,21.67,8.23,43.23,12.91,64.74,4.22,19.42,8.7,38.79,13.27,58.13l1.44,6.07c.09.39,1.27.16,1.46.12l13.27-2.94c.36-.08,2.15-.43,2.15-1s-1.08-.34-1.44-.26l-13.26,2.94,1.46.12c-4.39-18.48-8.7-37-12.8-55.52-4.7-21.23-9.15-42.51-13.09-63.89-3.71-20.08-7-40.27-9.21-60.58-1.69-15.7-2.63-31.43-1.27-47.19a149.66,149.66,0,0,1,4.38-27c2.24-8.08,5.68-16.8,12.41-22.19a18,18,0,0,1,4.57-2.73c.34-.13,1.43-.45,1.11-.94s-2,.14-2.33.25Z"/><ellipse class="cls-32" cx="185.47" cy="454.43" rx="8.62" ry="8.91"/><path d="M272.35,350.82c-21.87,1.08-29.4,3.66-43.63,10.6-5.48,2.67-9.1,6.21-10.65,12.18-.23.89-1,6,.57,6.23,1.74.28,3.46-4.4,4.3-5.46,3-3.84,7.25-5.3,11.6-6.61a161.79,161.79,0,0,1,25.31-5.23c4.14-.55,9.14,0,15.78-.22,1-1-.2-5.22-1-7.43-1-2.9-.16-.42-1.16-3.3C273.51,351.58,273.64,350.76,272.35,350.82Z"/><path d="M354.48,338.73a31.72,31.72,0,0,0-.22-3.42,14.28,14.28,0,0,0-.41-1.92c-11.69.48-19.7,2.32-36.36,9.88-1.14.52-.66,1.2-.66,1.2.42,3,0,.43.47,3.47.33,2.31,1.18,6.63,2.49,7.06,5.83-2.77,9.91-5.48,13.75-6.85a160.72,160.72,0,0,1,20.94-6C354.49,341,354.5,339.87,354.48,338.73Z"/><path d="M108.11,358.55c9.8-21.17,21.19-42,37.68-58.54,15.44-15.46,34.71-26.46,54-36.75,13-6.93,26.18-13.67,40.35-17.63s29.49-5,43.49-.48c11.68,3.77,22.17,11.26,34.3,13.08a6.45,6.45,0,0,0,4.24-.42c1.45-.88,4.19,2.3,4.51.62,1.76-9.53-4.49-21.41-12.4-27s-18.85-6.2-27.64-4.81c-3.54-8.09-13.36-11.75-21.95-13.79s-20.48.08-27.27,5.73c-1.4,1.17,1.81.06,0,0a6.89,6.89,0,0,1-3.23-1.27c-6.17-3.68-13-6.52-20.2-6.87s-14.71,2-19.44,7.46c-1.58,1.8-2.87,3.94-4.89,5.26-4.33,2.84-10,.85-15.19.51a23.23,23.23,0,0,0-20.1,9.52c-1.32,1.85-2.48,4-4.54,4.94a9.35,9.35,0,0,1-4.37.54c-4.62-.21-6.53,1-10.54,3.28-11.28,6.44-15.07,11.73-14.23,21.65.09,1.09-1.6,2.29-2.19,3.21a4.49,4.49,0,0,1-3,1.6c-6.54,1.36-8.75,6.52-13.3,11.41s-6.51,23.36-5.38,30.08c1,6.13-.37-3.12,4.13,1.17a8.34,8.34,0,0,0-10.17,3.21c-4.16,5.9-14.3,23.07-6.5,39.07s14,17.7,14,17.7-6.07,17.82-4.4,25.62,8.31,18.59,23.14,17.3c0,0,8.33,8.64,8.33,13.65S124,433.37,129.5,433,108.11,358.55,108.11,358.55Z"/><path d="M155,372.77l22.31,29c4,5.2,6.59,15.29,10.22,9.84,2-3,1.66-12.06,0-15.32-5-9.83-11.23-28.22-16.21-38,10.36-2.05,23.16-16.9,25.35-27.23S196,316.84,194,306.47c5.68,5.64,15.7,4.23,21.86-.87s9.42-12.81,12.45-20.21c4.27,6.35,20.27,3.36,26.53-1.05s7.23-5.24,9.15-12.65,1.41-9.36.79-16c2.6,10,12.77,17.29,17.05,18.31,10.08,2.42,23,2.24,29.77-5.59-1.38,5.4,2.13,11.1,6.89,14s10.5,3.58,16.06,4.06a5.76,5.76,0,0,0,3.35-.4c2.69-1.54,1.29-5.67-.54-8.17C319,252.8,286.41,239,255.67,243.31c-28.29,4-52.69,21.53-74.21,40.31-14.64,12.78-29.4,27.95-31.83,47.23"/><path d="M182.67,343.69c3.89,2.87,5.21,8.21,4.72,13a18.06,18.06,0,0,1-3.24,8.86,12.46,12.46,0,0,1-7.87,5,2.09,2.09,0,0,1-1.5-.18,2.22,2.22,0,0,1-.7-.92,66.38,66.38,0,0,1-6.29-18.69,6,6,0,0,1,0-3.08c1.09-3,5.74-2.78,7.73-5.29"/><path class="cls-5" d="M1155.92,940.19s36.31,23,80.19,16c50-8,55.87-61.66,53.32-78.55s-104.63-32.93-104.63-32.93Z"/><path class="cls-18" d="M1160.75,809.34c16.78,7.71,34.3,19.8,37.4,39.37a48.75,48.75,0,0,1,.47,9.88c0,.63,4,.13,4.05-1.08A43,43,0,0,0,1199.8,839c-3.34-8.15-9.45-14.82-16.39-20.09a100.29,100.29,0,0,0-18.85-11,3.7,3.7,0,0,0-2.61.21c-.17.07-1.85.88-1.2,1.18Z"/><ellipse class="cls-26" cx="597.02" cy="216.55" rx="155.1" ry="126.43"/><polygon class="cls-26" points="722.15 244.48 786.12 319.99 688.39 302.65 722.15 244.48"/><text class="cls-33" transform="translate(553.05 264.25)">?</text></g></svg>