<svg xmlns="http://www.w3.org/2000/svg" viewBox="0 0 1303.15 1057.31"><defs><style>.cls-1{fill:#f2ead4;}.cls-2{fill:#a86e57;}.cls-3{fill:#502e27;}.cls-4{fill:#b45d32;}.cls-5{fill:#e28a3d;}.cls-6{fill:#d08c3e;}.cls-7{fill:#13110f;}.cls-8{fill:#231f20;}.cls-9{fill:#010101;}.cls-10{fill:#663b2c;}.cls-11{fill:#251710;}.cls-12{fill:#f1eef6;}.cls-13{fill:#6f9991;}.cls-14{fill:#142b30;}.cls-15{fill:#ae3831;}.cls-16{fill:#681b12;}.cls-17{fill:#4679b7;}.cls-18{fill:#192940;}.cls-19{fill:#3b6d9f;}.cls-20,.cls-21{fill:#151210;}.cls-20{stroke:#231f20;stroke-miterlimit:10;stroke-width:0.88px;}.cls-22{fill:#1d1710;}.cls-23{fill:#0f0a09;}.cls-24{fill:#512a5f;}.cls-25{fill:#c3a5cb;}.cls-26{fill:#331741;}.cls-27{fill:#b23a2b;}.cls-28{fill:#43221c;}.cls-29{fill:#7a2f26;}.cls-30{fill:#f68d3b;}.cls-31{fill:#b0532f;}.cls-32{fill:#d57138;}</style></defs><g id="Layer_1" data-name="Layer 1"><polyline class="cls-1" points="-21.02 1067.5 -21.02 -28.24 1312.01 -28.24 1312.01 1067.5"/><path class="cls-2" d="M579.46,430.42c-3.48-44.37,9.17,149.76,9.17,149.76l169.72,44.18c-7.06,10.53,1.49,18.72.88,35.71,0,0-137.14,2.16-155.53,1.55-89.46-3-95.47-51.22-101.14-99.57-1.9-16.15-12.76-98.23.72-105C506.35,455.54,579.89,431,579.46,430.42Z"/><path class="cls-2" d="M735.58,659.56l18.91,1.07s18.72,12.87,30.61,15.54c8.66,1.6,29.44,5.34,38.21,4.5l17.61,5.55s9.92,9.38,13.08,6.49.38-7.37-2.33-11.73-58.34-48.79-58.34-48.79a129.21,129.21,0,0,1,22.07-1c11.31.54,17.09-5.4,13.24-10.26-2.37-3-18.23-7.45-23.87-4.08s-18.52-4.66-30-3.61-22.16,12.61-22.16,12.61a86.77,86.77,0,0,1-14.81,1.37C732.05,636.78,735.58,659.56,735.58,659.56Z"/><path class="cls-2" d="M984,647.54c-11.07,10.35-23.26-17.81-37.62-12.45-35.51,13.23-114.76,80.68-133.18,76.08-42.63-10.64-85.75-83.61-85.75-83.61l17.7-21.27,68.35,52.07s66.13-70.63,91.23-84.7c10.39-5.83,11,28.79,34.88,29,1.62,0,11.47,2.15,12.41,2.24"/><path class="cls-3" d="M732.84,610.47a29.94,29.94,0,0,0-4.62,21.34c0,.32,1.93-.09,1.86-.5a29.67,29.67,0,0,1,4.6-21.2c.17-.25-.68-.13-.74-.12a1.78,1.78,0,0,0-1.1.48Z"/><path class="cls-3" d="M799.39,653.9a21.84,21.84,0,0,1,6.69,16.38c0,.79,1.85.43,1.87-.22a22.44,22.44,0,0,0-6.83-16.9c-.49-.47-2.26.24-1.73.74Z"/><path class="cls-2" d="M434.84,277c-.64.8-7.38,5.28-10.89,5.56,1.78,8.12-3.07,30,2.55,36.39,10.63,12.11,35.81,47.36,51.6,50.28,14,2.59,50.46-6,40.1-44.19-2.32-10.22-4.45-12.24-4.31-13.9.43-5,15.61-32.81,15.61-32.81l-71.17-59.24S454,253.28,434.84,277Z"/><path class="cls-3" d="M515.88,306.84s-5.15-7-10.41-10.24-15.11-5.6-35-35.78a8.47,8.47,0,0,1-.19,2.09,26.2,26.2,0,0,0,.6,5.86c1.6,7.51,5.79,14.29,10.73,20.06a85,85,0,0,0,12.45,11.84,52.82,52.82,0,0,0,13.55,8.13,43.36,43.36,0,0,0,4.45,1.41c.38.09,2.21,1.14,2.31.81Z"/><path class="cls-2" d="M596.71,145c.08.13.18.26.28.4a4,4,0,0,1-.17-.7Zm13,8.07c.13.27.29.54.46.82l.09-.26S609.79,152.78,609.67,153.09Zm-141,107.27c8.16,18.3,26,40.65,47.06,47.52,7.54,2.45,16.65,4.88,23.55,2C546,307,551.31,302.4,557,298c5.11-4,10.58-7.44,15.39-11.88,10.76-9.93,21.07-16.34,24.28-37.62.7-4.7,1.86-10.61,3.76-14.75,2.19-4.77,10.67-24.5,15.29-35.7s.5-32,.5-32c.5-3.32-.36-6.09-1.1-9.17l-1.33-.51a1.41,1.41,0,0,1,.2,1.48,11.79,11.79,0,0,1-3.85-3.91c-2.36.15-4-1.52-5.1-3.69-.11.31,0,1,.32,1.18a7.19,7.19,0,0,1-4.64-3.86c-.11.3,0,1-.13,1.35a13.14,13.14,0,0,1-3.57-3.52c.15.51,8.12,2.2,8,2.41-2.11-.45-.08,1.08-1.17-1.08L602.64,145c-1.79-.32-2.1.71-3-1,.21.43.36-3.73.24-3.42-2-.76-1.41-.68-2.73-2.23-.11.3-6.21-.08-6.32.22-1.67-.63-1.81,1.07-2.68-.66.22.43,1.69-.83,1.91-.4-2.12-.45-3.36.55-4.44-1.61.21.43-5.33-5.86-5.33-5.86-2.12-.45-2,.31-3.22-1.55.44.87-9-4.07-8.92-3.33-1.67-.63.87,7.32-.12,5.89-.11.31-3.49-2.37-3.49-2.37-1.78-.33.14,2.15-.73.42-.11.31-.13,1.36.21,1.48-2.35.16-4.46-1.33-6-3.32.43.87.53,1.61.75,2-1.67-.64-3.12-.83-4.32-2.69-.12.3.2,1.48.54,1.6a7.06,7.06,0,0,1-5.11-2.63c-.11.3.32,1.17.53,1.6a5,5,0,0,1-3.76-2.13l.53,1.61c-1.33-.51-2.56-.28-4.33-1.65-.12.31.43.87.32,1.17a12.81,12.81,0,0,1-3.22-1.57c-.12.31.65,1.3.31,1.17-1.33-.5-2.56-.27-4-1.51.22.43.32,1.17.54,1.6-1.34-.51-2.79-.7-3.89-1.82a2.53,2.53,0,0,0,.2,1.48c-1.33-.51-2.56-.28-4-1.52-.11.3.32,1.17.54,1.6a18.5,18.5,0,0,1-4-1.52c-.11.31.44.87.66,1.3-1.34-.5-2.79-.7-4.22-1.95-.24.61,0,1-.13,1.35-1-.38-1.56-.94-2.56-1.31l-1.9,0c-7,4.36-14.43,25-14.43,25-13.47,4.34-23.86,19.67-25.73,25.61s-8.3,17.86-8.3,17.86c-.85-2.77-2.78-8.76-2.85-11.58-.19-2.53,1.52-5,1.33-7.55-1.14-6-8.4-7-13.22-5.37l-1,.78c-7.73,5-10.29,28.61-8.92,36.44-3.8,13.44,5.09,24.59,15.07,17.61l-.11,5.76"/><path class="cls-4" d="M616.14,179c-1.33-20.9-20.35-38.83-60.58-59.95s-79-18.18-79-18.18c42.5-53,103-27.78,116.69-22.6s64,85.14,22,126.48l-3.61,3.15S616.38,182.75,616.14,179Z"/><path class="cls-4" d="M470.44,84.17s9.28-39.77,41.72-42c43.35-3,96.54,8.59,99.86,54.32Z"/><path class="cls-5" d="M439.44,177.44c-1.89-4.24,2.25-12.68.94-17.14-6.87-23.31,4.23-39.4,13.47-48,4-3.72,3.85-13,5.6-16.93,9.13-20.65,11.8-20.39,51.35-30.16,32.2-8,59.57,3.33,75.26,10.25,25.13,11.08,35.82,17,37.9,38.55.27,2.82-1.09,3.28-1.19,6.51-.15,4.57,5.4,8.37,4.52,13.89,0,0-37.93.78-71.93,5.34S448.85,184.4,444.2,202.88C444.05,203.46,441.53,182.13,439.44,177.44Z"/><path class="cls-4" d="M439.67,139.85S527.24,88,580.35,107.54c0,0-80-31.74-128.59,5.76L450.31,115a49.79,49.79,0,0,0-8.91,15Z"/><path class="cls-6" d="M454.84,216.42c-3.33-.89-5.85,1.13-7.24,3.72-2.49,4.65,1.19,10.4,6.4,9.51.2,0,.4-.08.6-.13,0,0-7.39,4.15-11.09-1.23s.65-10.65,2.95-11.67C451.59,214.36,454.84,216.42,454.84,216.42Z"/><path class="cls-7" d="M483.29,169.31l-13.06,29.11-5.49-17.12S478,172.68,483.29,169.31Z"/><path class="cls-8" d="M463.36,194.25c-1.94-.71-4.53-.92-5.14,1.57-.5,2.09.11,4.32-.24,6.44a3,3,0,0,1-1.52,2.49c-1.15.43-2-1.76-2.29-2.53a13.21,13.21,0,0,1,.27-9.41c1.07-2.49,3-6.45,6.11-6.62.85,0,1.16-1.14.13-1.09-3.28.18-5.47,3.2-6.88,5.86a14.71,14.71,0,0,0-1.78,8.47c.2,2.39,1.58,7.89,5.11,6.2,2.44-1.17,2.54-4,2.49-6.35a11.4,11.4,0,0,1,.15-3.69c.42-1.27,1.76-.68,2.72-.33.63.23,1.76-.68.87-1Z"/><path class="cls-9" d="M552.06,254.29a9,9,0,0,1-7.92-3.61c-.39-.53-2.22-.85-1.69-.11,2.3,3.17,7.26,5.26,10.86,4.73.36-.06.4-.32.08-.58a2,2,0,0,0-1.33-.43"/><path class="cls-9" d="M541.72,249.5a14.55,14.55,0,0,0-4.5-3.22,1.14,1.14,0,0,0-.87,0c-.2.08-.3.25-.15.44a5.56,5.56,0,0,0,2.49,1.71,1.14,1.14,0,0,0,1,0c.24-.19,0-.46-.21-.55a4.34,4.34,0,0,1-2-1.38l-1,.41a13,13,0,0,1,4,2.9,1.07,1.07,0,0,0,1,.23c.22,0,.52-.24.3-.48"/><path class="cls-9" d="M534.77,247.13c-2-.82-4-2.65-4.41-4.65-.57-3,2.3-6.35,5.42-7,.34-.06.28-.34,0-.51a1.65,1.65,0,0,0-1.17-.17,8.22,8.22,0,0,0-5.9,5.59c-.5,2.26.87,4.49,3,6a11,11,0,0,0,2.12,1.18,1.46,1.46,0,0,0,1.14,0c.25-.2,0-.42-.27-.54"/><path class="cls-9" d="M556.18,254.6a.3.3,0,0,1,.41-.31,2.42,2.42,0,0,0,1.78,0l.27.9a7.2,7.2,0,0,0-3.63,0,.59.59,0,0,1-.61-.35c-.08-.17-.12-.49.13-.56"/><path class="cls-9" d="M554.53,254.33a8.16,8.16,0,0,1,4.05,0,.68.68,0,0,1,.44.46.33.33,0,0,1-.17.44"/><path class="cls-9" d="M560.27,256.47a4.43,4.43,0,0,0,4.51-1.28,7.06,7.06,0,0,0,1.05-7.5.28.28,0,0,1,.27-.42.81.81,0,0,1,.61.5,7.78,7.78,0,0,1-.09,6.68,5.24,5.24,0,0,1-4.65,3.11,4.71,4.71,0,0,1-1.59-.22c-.2-.07-.52-.3-.52-.59s.22-.34.41-.28"/><path class="cls-7" d="M591.76,221.22a5.56,5.56,0,0,1,5.11,3,5.38,5.38,0,0,1,.34,2.69,5.16,5.16,0,0,1-2.8,4,4.79,4.79,0,0,1-5.49-1.05,5.3,5.3,0,0,1-.25-6.68,4.67,4.67,0,0,1,3.09-1.88"/><path class="cls-7" d="M571.19,219.83s11.71-3.68,16.49-2.39c7,1.88,13.85,8.75,15,13,0,0-8.86-9.73-13.81-10.91C584.1,218.39,571.19,219.83,571.19,219.83Z"/><path class="cls-7" d="M536,200c-1.48-1.66-4.56-2.53-6.18-1.91a5,5,0,0,0-2.24,1.65,5.15,5.15,0,0,0-.52,4.82,4.78,4.78,0,0,0,4.8,2.85,5.3,5.3,0,0,0,4.62-4.83c0-.4.66-1-.54-2.31"/><path class="cls-7" d="M542.82,207.93s-7.73-10.33-12.68-12.38c-7.23-3-17.57-2-21.26.59,0,0,13.89-1.95,18.92.29C532.61,198.57,542.82,207.93,542.82,207.93Z"/><path class="cls-7" d="M607.06,218.22a2,2,0,0,1,.77,0c.24-.35.48-.7.7-1.06a5.75,5.75,0,0,0,.33-.77c0-.07,0-.14,0-.21a17.28,17.28,0,0,0-2.27-5.06A20.07,20.07,0,0,0,601,206c-2.56-1.6-10.1-4.59-20.73-6.65L579,203.54c-.34,1.07-.67,2.13-1,3.19,3.83.24,7,.64,9.47,1,5.11.75,7.71,1.15,10.38,2.53a28.11,28.11,0,0,1,5.78,4.1,18.09,18.09,0,0,1,2.81,2.88C606.68,217.58,606.86,217.89,607.06,218.22Z"/><path class="cls-7" d="M554,187l-1.95,3.92c-.5,1-1,2-1.51,3-3.56-2.8-6.71-5-9.1-6.65-5.07-3.44-7.67-5.18-11.06-6.29a38.47,38.47,0,0,0-8.17-1.64,23.22,23.22,0,0,0-4.65-.18c-3.48.31-5.47,1.6-5.83,1.22s1.12-1.62,1.27-1.76a17.82,17.82,0,0,1,9-3.83,25.89,25.89,0,0,1,8.74.78c3.46.87,12.35,4.64,23.28,11.45"/><path class="cls-10" d="M539,264.77c-10.52-4.28-25.29-15.34-25.29-15.34s-9.86,28.4,14.52,38.31,32.85-14.47,32.85-14.47S549.5,269,539,264.77Z"/><path class="cls-11" d="M539.09,264.81c-5-2-22.43-12.39-22.43-12.39s-2.31,19.77,15.78,27.13c19.61,8,25.12-7.08,25.12-7.08Z"/><path class="cls-12" d="M539,265.68c-5-2-19.86-9.1-19.86-9.1s3.16,7.92,18.16,14,22,2.51,22,2.51Z"/><path class="cls-10" d="M562.76,272.18c-.48-.36-2.11-1.36-2.11-1.36-4-2.05-4.13-3.28-7-4.74-5-2.49-9.06-1.71-11.29-2.62s-4.62-4.33-9.91-6A74.15,74.15,0,0,1,521,253c-5.83-3-7.23-7-7.82-7.07-.81-.11-3.39,10.37,24.59,21.74S563.42,272.66,562.76,272.18Z"/><polygon class="cls-13" points="-50.19 1116.04 1333.34 1116.04 1333.34 883.76 -44.98 883.76 -50.19 1116.04"/><path class="cls-2" d="M272.84,885.16c-3.15-7.61-12.24-15.68-18.7-19.42s-14.29-.27-16.39.62c-15.61,6.61-23.69,19.53-36,30.65a156.27,156.27,0,0,1-31.1,21.88c-11.4,6.1-23.8,9.19-35.34,14.7l-.25.12a27.34,27.34,0,0,0-13,13.12c-1,2.1-2,4.16-3.08,6.11-1.52,2.7-3.16,4.72-1.58,7.91,2.93,5.88,12.77-.84,15.65-2.07a3.48,3.48,0,0,1,1.69-.26c2.31.21,9.13.45,20.63-2a32.58,32.58,0,0,1,3.27-.52h0c6.11-1,33.64-2.24,38.58-2.72C207,952.29,236.8,946,236.8,946c3.41-.47,45.15-16.55,61.77-6.33l6.34-38.69S276,892.77,272.84,885.16Z"/><path class="cls-2" d="M323,827.9c-3.15-7.61-12.24-15.68-18.7-19.42s-14.29-.27-16.39.62c-15.61,6.61-23.69,19.53-36,30.65a156.27,156.27,0,0,1-31.1,21.88c-11.4,6.1-23.8,9.19-35.34,14.7l-.25.12a27.34,27.34,0,0,0-13,13.12c-1,2.1-2,4.16-3.08,6.11-1.52,2.71-3.16,4.72-1.58,7.91,2.93,5.88,12.77-.84,15.65-2.07a3.48,3.48,0,0,1,1.69-.26c2.31.21,9.13.45,20.63-2a32.58,32.58,0,0,1,3.27-.52c0,.07,0-.06,0,0,6.11-1,33.64-2.23,38.59-2.72C257.16,895,287,888.7,287,888.7c3.41-.47,45.61-11.46,62.24-1.24l5.87-43.78S326.16,835.51,323,827.9Z"/><path class="cls-2" d="M241.9,724.76c1,35-8.68,110.48,99.51,115.74l-49.34-10.8L292,914.77s322.05-2.1,331.52-2.23c18.23-.2,59.94-22.78,50.19-77-8.83-49.16-38.93-68.56-52.58-78.58s-219.54-90.34-277.4-99l-86,47.29Z"/><path class="cls-2" d="M221.92,768.69c6.29,34.42,24.63,72.51,67.73,89.76l-7.47,15.11c-13.8,27.92-25.35,30.34-17.47,60.47l5.17,1S549,975.91,594.06,960.31c18-3,57.07-32.61,55.36-87.73s-48.95-61.81-64-69.62-172.18-32.32-230.7-32.07L288.58,728Z"/><path class="cls-14" d="M236,615.11c.31-1.17,1.8-2.9,2-4.24,2.51-1.69.79.77,6.37-3.34a240.94,240.94,0,0,0,26.49,7.75c21.89,5,44.65,6,67,5.45,24.47-.55,48.84-3.05,73.19-5.4,21.08-2,42.2-4,63.37-4.47L478,655.41,645.21,770s53.6,41,2.16,86.38c-38.62,34.09-148.51,51-148.51,51-1,1.89-27.24-3.34-42.61-5.47-19.07-4.26-139.91-29.69-151-31.88-54.9-10.83-109.41-51-114.4-108.11-2.74-31.22,2-70.2,15.57-98.58C213,649.58,232.2,629.79,236,615.11Z"/><path class="cls-15" d="M549.25,496.07c-1.6,43.77-8.4,56-19.1,64.42-13.69,10.82-23.06,2.39-30.9,11.93-15.51,18.86-6.78,57.07-5.57,90,0,0-82.71,10.06-139.36.84S230.78,616.9,230.78,616.9c33.12-44.78,54-69.36,54-69.36l8.36-95.76,5.52-71.35c6-50.39,39.24-77.09,70.87-83.92l54.94-16s13.11,65.64,61.22,70.54,28-39,28-39,39.18,31,48.11,42.55a107.47,107.47,0,0,1,22.1,66.49c-.13,32.33,5.56,75.23,7,80.95s-42.29,8.45-42.29,8.45"/><path class="cls-3" d="M645.45,907.55c4.73-13.66,8-28.36,6.41-42.88a59,59,0,0,0-1.75-9c-.19-.67-2.05-.17-1.87.5,3.41,12.26,2.38,25.22-.5,37.47a142.94,142.94,0,0,1-4.16,14.18c-.23.65,1.65.42,1.87-.22Z"/><path class="cls-16" d="M556.64,448.64c-5.68,4.91-8.07,12.36-8.4,19.68-.38,8.24-.14,16.51-.47,24.76-.21,5.36-.6,10.71-1.3,16-.22,1.7,3,1.32,3.24-.2a226.14,226.14,0,0,0,1.55-26.4c0-3.85.06-7.69.14-11.53a41.1,41.1,0,0,1,1.27-10.59,20.8,20.8,0,0,1,6.11-10.17c1.64-1.41-.87-2.68-2.14-1.58Z"/><path class="cls-2" d="M316.72,366.62c.64-37.69,34.4-48.55,60.79-40.36,13.35,4.14,12.94,31.55,12.94,31.55C408,407.26,425,544.48,427.76,571.34c-4.67,1.69-10.24-.53-14.44,2.12-14.69,9.29-22.9,3.78-31,19.07-4,7.59-8.71,19.7-10.44,28.23C354.56,604,350,573.05,344.31,550.61c-8.52-33.77-13.33-68.19-18.58-102.56C321.67,421.4,316.26,393.69,316.72,366.62Z"/><path class="cls-15" d="M388.82,302.73S322.09,316,310.21,351.8s-.94,103.44-.94,103.44,73.94.58,110.15-13.86S388.82,302.73,388.82,302.73Z"/><path class="cls-16" d="M352.3,317.57c5.43-.86,11,.11,16.17,1.81a52,52,0,0,1,15.35,8.06c4.65,3.56,7.95,8.22,11.3,12.95a161.57,161.57,0,0,1,9.08,14.23,99.11,99.11,0,0,1,10,24.75,174.37,174.37,0,0,1,3.78,25.13c1.18,12.42,2.29,24.83,4.09,37.18l.91-1-11,3c-1.32.35-1,1.69.36,1.33l11-2.95c.43-.11,1-.44.91-1-1.67-11.36-2.76-22.78-3.82-34.21-.81-8.73-1.65-17.51-3.58-26.08A98.79,98.79,0,0,0,407.44,356a152.46,152.46,0,0,0-8.75-14.23c-3.34-4.85-6.67-9.94-11.15-13.81a52.31,52.31,0,0,0-16.73-9.53c-5.79-2-12.16-3.23-18.28-2.25-.41.07-1.19.3-1.21.83s.56.68,1,.61Z"/><path class="cls-2" d="M416.64,630.44S401.33,641,378,626.64,363.69,562.24,368,541c4.38-21.81,61.12,27.23,61.12,27.23Z"/><path class="cls-16" d="M325.33,454.41a56.66,56.66,0,0,1-6,.56c-.89,0-1.78.13-2.67.25-1.3.17-3.29.94-3.69-.85a17.62,17.62,0,0,1,.05-4c0-1.71,0-3.42,0-5.13-.09-3.08-.3-6.16-.58-9.22-1.15-12.62-3-25.18-4.13-37.8a93.39,93.39,0,0,1,.2-21.4c0-.25-2.07-.08-2.17.58-1.89,13.22.38,26.58,1.75,39.74.69,6.65,1.63,13.28,2.22,19.94.29,3.23.5,6.47.56,9.72q0,2.44,0,4.89c0,1.21-.51,3.12.35,4.15.66.8,1.81.69,2.73.56,1.42-.19,2.81-.43,4.24-.51a66.25,66.25,0,0,0,6.74-.65c.87-.14,1.94-1,.4-.79Z"/><path class="cls-8" d="M976.17,510.1c.35-8.84,7.13-18.68,16.57-17.53a24.92,24.92,0,0,1,6.59,2.09l9.43,4a31.7,31.7,0,0,1,8.12,4.41c4.28,3.55,6.17,9.08,6.28,14.37s-1.36,10.44-2.82,15.51c-1.34,4.65-3.38,10-8.35,11.31-2.93.77-6.08-.15-9.14,0-2.73.13-5.3,1.11-8,1.61-9.1,1.73-19.31-2.72-23.9-10.41"/><path class="cls-8" d="M1000.77,491.16c.34-8.84,7.12-18.68,16.56-17.53a24.81,24.81,0,0,1,6.59,2.09l9.43,4a31.7,31.7,0,0,1,8.12,4.41c4.28,3.55,6.17,9.08,6.28,14.37s-1.36,10.44-2.82,15.51c-1.34,4.65-3.38,10-8.34,11.31-2.93.77-11.47,3.8-13.81,5.77-7,5.9-.63-4.67-3.3-4.16-9.11,1.73-19.31-2.72-23.91-10.41"/><path class="cls-8" d="M1010,466.73c.35-8.85,7.13-18.68,16.57-17.53a24.81,24.81,0,0,1,6.59,2.09l9.43,4a32,32,0,0,1,8.12,4.42c4.28,3.55,6.17,9.08,6.28,14.37s-1.36,10.43-2.82,15.51c-1.34,4.65-3.38,10-8.35,11.31-2.92.77-6.08-.15-9.13,0-2.73.13-5.31,1.11-8,1.62-9.11,1.73-19.32-2.72-23.91-10.41"/><path class="cls-8" d="M1005.52,435.45c.34-8.85,7.12-18.69,16.56-17.54a24.65,24.65,0,0,1,6.6,2.1l9.42,4a31.7,31.7,0,0,1,8.12,4.41c4.28,3.56,6.18,9.08,6.28,14.37s-1.36,10.44-2.82,15.51c-1.34,4.66-3.38,10-8.34,11.31-2.93.77-6.09-.15-9.14,0-2.73.13-5.3,1.11-8,1.61-9.11,1.73-19.31-2.71-23.91-10.41"/><path class="cls-8" d="M994,414.49c.35-8.85,7.13-18.68,16.57-17.53a24.81,24.81,0,0,1,6.59,2.09l9.43,4a32,32,0,0,1,8.12,4.42c4.28,3.55,6.17,9.08,6.28,14.37s-1.36,10.44-2.82,15.51c-1.34,4.65-3.38,10-8.35,11.31-2.92.77-6.08-.15-9.13,0-2.73.13-5.31,1.11-8,1.62-9.11,1.73-19.32-2.72-23.91-10.41"/><path class="cls-8" d="M968.82,398.14c.35-8.85,7.12-18.69,16.56-17.54a24.9,24.9,0,0,1,6.6,2.1l9.43,4a32.18,32.18,0,0,1,8.12,4.41c4.28,3.56,6.17,9.09,6.28,14.37s-1.37,10.44-2.82,15.52c-1.34,4.65-3.38,10-8.35,11.31-2.93.77-6.09-.15-9.14,0-2.73.13-5.3,1.11-8,1.62-9.1,1.72-19.31-2.72-23.9-10.41"/><path class="cls-8" d="M915.37,400.77c1.26-13.27,26.65-21.21,36.09-20.06,2.31.28,4.32-4.66,13.55-3,3.35.62,6.28,2.67,9.42,4a32,32,0,0,1,8.12,4.41c4.28,3.56,6.18,9.09,6.28,14.37S987.47,411,986,416c-1.34,4.66-3.38,10-8.34,11.32-2.93.77-6.09-.15-9.14,0-2.73.13-5.3,1.11-8,1.62-9.11,1.72-19.31-2.72-23.91-10.41"/><rect class="cls-17" x="692.76" y="559.95" width="46.02" height="46.08" transform="translate(-94.72 1024.94) rotate(-67.77)"/><polygon class="cls-18" points="728.4 613.01 715.84 620.6 673.19 603.16 685.74 595.57 728.4 613.01"/><polygon class="cls-19" points="703.15 552.98 690.6 560.57 673.19 603.16 685.74 595.57 703.15 552.98"/><path class="cls-20" d="M1029.29,516.33c-5.88,8-12.85,16-21.84,20.62-9.21,4.73-19.87,4.09-29.88,3-19.5-2-38.75-8.8-54.1-21.22a81.39,81.39,0,0,1-29.22-51.1,112.3,112.3,0,0,1,1.82-43.46c.45-.88.89-1.78,1.36-2.62,14-24.5,23.48-30.29,50.3-31.17,16.49-.71,31.42-8.42,55,4.54,5.1,2.79,10,9.61,16.47,13.93,9.67,6.5,19.75,16.8,22.9,26.08,6,17.67.51,41.45-1,61.36A101.66,101.66,0,0,1,1029.29,516.33Z"/><path class="cls-2" d="M882.54,489.49c.53-8,4.64-11.05,6.51-15.58.54-3.64,1.19-7.86,2-13,.23-1.47.5-2.88.77-4.27a13.48,13.48,0,0,0,.45-2.15c5.26-24.55,15.75-36,15.75-36a55.17,55.17,0,0,1,52.6-16.44c22.7,4.58,40.75,22.15,48.94,38a36,36,0,0,1,2.92,25.53c-1.88,7.34-4.52,12.18-8,19.89,8,1.07,15.31,5.34,9.76,19.48-7.65,19.51-20.93,23.57-27,16.44-3.85,1.44-6.21,9.88-7.31,14-2.09,8-4,21.62-1.33,29.41l-.63,2.27c-22.18,24.58-35.18,38.76-91,11.77l24-26.67,1.41-5.89a53,53,0,0,1-9.66-3.21C885.27,535.12,881.91,498.89,882.54,489.49Z"/><path class="cls-3" d="M912.53,546.44s21.37,5.66,43.21-3.66c0,0-3.53,6.09-18.32,8.49S911.88,550,911.88,550Z"/><path class="cls-21" d="M993.79,495.83c.06-.11.32-5.16-1.07.82-.7,3,4.56-6.19,7.27-7.8a16.34,16.34,0,0,1,4.16-1.89,16,16,0,0,1,4.56-.69c2.17-.13,6.83,4.07,8.78,5.05.32.22-2-3.33-1.64-3.11,8.62-16.25,13.7-30,5.1-53.59-2.49-6.8-10.8-15.35-13.32-18.07-15.31-16.32-31-20.27-51-22.06C933.58,392.42,909.51,398.1,900,420c-2.31,5.29-3.1,7.54-3.64,13.27,0,0,3.48-12.28,15.65-16.73s12.48,2.54,27.9,5.82c17.86,3.73,25.6-4.88,38.55,5.34,11.83,9.37,13.5,15.7,13.5,15.7.22,3.46,1.65,6.67,2.42,10a28.67,28.67,0,0,1,.25,9.95c-.83,6.83-1.4,13.71-3.19,20.38-1.11,4.13-3,9.55.5,13.1C993.45,498.44,991.75,496.13,993.79,495.83Z"/><path class="cls-8" d="M995.08,495.74a5.11,5.11,0,0,0,0-1.87,1.39,1.39,0,0,0-2.45-.58,2.71,2.71,0,0,0-.65,1.23,9.8,9.8,0,0,0-.64,2.53c0,1.3,1.42,1.36,2.32.75a8.22,8.22,0,0,0,1.76-2c.86-1.15,1.69-2.32,2.58-3.44a13.6,13.6,0,0,1,2.55-2.75,14.05,14.05,0,0,1,7.09-2.4c1.84-.1,3.35,1.09,4.79,2.09s2.76,2.36,4.31,2.9a1.6,1.6,0,0,0,2-1c.1-.51-.51-1.25-.75-1.66s-.44-.74-.65-1.12a3,3,0,0,0-.22-.39c-.17-.19,0-.24-.07,0l-2,1h0a1.69,1.69,0,0,0,2-.71c3.26-6.15,6.29-12.46,8-19.22a51.19,51.19,0,0,0,.77-21.48,74.75,74.75,0,0,0-3.57-13.15,35.42,35.42,0,0,0-5.27-9,103.63,103.63,0,0,0-13.48-14.61,63.15,63.15,0,0,0-18.78-11.6,86.58,86.58,0,0,0-20.89-5c-14.08-1.8-28.79-1.88-42.14,3.58a43.75,43.75,0,0,0-16.23,11.28,40.64,40.64,0,0,0-5.8,8.59,46.15,46.15,0,0,0-3.87,10.08,41.42,41.42,0,0,0-.83,5.56c-.14,1.4,2.3.82,2.59-.2-.13.46.1-.3.16-.46q.3-.84.66-1.65a28.71,28.71,0,0,1,2.94-5.17,24,24,0,0,1,14.23-9.5,11.72,11.72,0,0,1,6.3.21,47.18,47.18,0,0,1,5.84,2.66,48.71,48.71,0,0,0,19.59,5c5.6.21,11.11-.89,16.7-.85a20,20,0,0,1,7.44,1.43,32.41,32.41,0,0,1,8.68,5.85c3.76,3.26,7.6,7.06,9.87,11.57a6.51,6.51,0,0,1,.63,1.71,46.43,46.43,0,0,0,1.31,5.9,35.2,35.2,0,0,1,1.49,6.24c.49,4.35-.33,8.77-.83,13.07a114.26,114.26,0,0,1-2.11,13c-.78,3.28-2.08,6.57-1.91,10a8.28,8.28,0,0,0,1.31,4.21c.66,1,1.71,2.31,3.06,1.81a1.44,1.44,0,0,0,1-1c.07-.29,0-.48.09-.51,1.61-.35,1.12-2.09-.47-1.75a2.79,2.79,0,0,0-1.87,1.16,1.9,1.9,0,0,0-.28.74c-.11.65-.14.26.32,0l1.29-.35c.57.1.29.07-.08-.32a6.94,6.94,0,0,1-.68-.86,6.36,6.36,0,0,1-.92-2.33,12.79,12.79,0,0,1,.25-5c.78-3.72,1.93-7.32,2.55-11.08.73-4.34,1.17-8.72,1.69-13.09a31.4,31.4,0,0,0-.72-12.62c-.56-1.94-1.23-3.85-1.62-5.84-.15-.79-.14-1.62-.34-2.39a11.81,11.81,0,0,0-1.29-2.68c-2.83-4.89-7.16-8.94-11.5-12.48-4.62-3.76-9.68-6.09-15.69-6.18-5.62-.09-11.17,1.09-16.81.84a48,48,0,0,1-19.24-5.15,34.93,34.93,0,0,0-5.85-2.56,15,15,0,0,0-6.63-.24,27.66,27.66,0,0,0-20.88,18.19c-.08.24-.16.49-.23.74l2.59-.2A40.51,40.51,0,0,1,919.29,401c12.16-6.18,26.3-6.71,39.61-5.35a99.94,99.94,0,0,1,20.5,3.93A60.85,60.85,0,0,1,998,409.36a94.15,94.15,0,0,1,13.8,13.64,59.54,59.54,0,0,1,6.22,8.52,44.45,44.45,0,0,1,4.11,11.26,53.28,53.28,0,0,1,1.36,22,66.36,66.36,0,0,1-6.48,18.69c-.76,1.55-1.56,3.09-2.37,4.62l2-.71h0a1.58,1.58,0,0,0-2,1c-.1.51.51,1.24.74,1.65s.45.75.66,1.12a2.46,2.46,0,0,0,.22.39c.17.2,0,.25.07,0l2-1a15.73,15.73,0,0,1-2.52-1.72c-1.07-.77-2.13-1.54-3.27-2.21a8.15,8.15,0,0,0-3-1.19,14.58,14.58,0,0,0-5.16.63,14.12,14.12,0,0,0-7.09,4c-1.45,1.59-2.67,3.37-4,5.09-.27.36-.54.72-.83,1.07a3.9,3.9,0,0,0-.33.38c-.1.17-.12.06-.1.1s2.09.1,1.9.3c0,0,0-.16,0-.21a5.74,5.74,0,0,0,.28-1.19c.09-.35.21-.68.3-1s.39-.49-.07-.15l-1,.35h0l-.88-.19c-.47-.27-.11-.34-.16-.06a4.7,4.7,0,0,0,0,.65,4.1,4.1,0,0,1-.06.86C992.18,497.15,994.79,496.86,995.08,495.74Z"/><ellipse class="cls-8" cx="897.54" cy="468.9" rx="4.92" ry="4.93" transform="translate(-26.62 54.94) rotate(-3.45)"/><path class="cls-21" d="M893.5,464.28a13.36,13.36,0,0,1,9.77-.65c7.39,2,10.13,11.45,10.13,11.45a21.86,21.86,0,0,0-11.17-8.42,25.39,25.39,0,0,0-12.07,0C890.36,465.91,891.94,465,893.5,464.28Z"/><path class="cls-8" d="M1009.38,505.22a11.17,11.17,0,0,0,1.55-7.6,1.45,1.45,0,0,0-.78-1.2c-2.22-1.24-4.86-.35-6.7,1.17-2.55,2.09-4.2,5.18-5.55,8.12-.22.48.55.46.81.34a2.53,2.53,0,0,1,1.89-.31c.81.33.76,1.59.63,2.3-.45,2.54-2.85,3.37-5.17,3.2-.52,0-1.24.71-.44.77,2.92.22,6.33-.92,6.83-4.2.17-1.08,0-2.45-1.2-2.82a4.48,4.48,0,0,0-3,.46l.81.34a24.44,24.44,0,0,1,4.56-7.16,6.29,6.29,0,0,1,3.44-2,3.58,3.58,0,0,1,2.09.36c.17.09.31.21.48.29s-.06,0-.07-.1c0,.14.09.27.13.4.72,2.55-.16,5.32-1.4,7.55-.3.54.9.49,1.13.08Z"/><path class="cls-22" d="M952.75,478.44a4.92,4.92,0,1,1-3.4-4.67A4.92,4.92,0,0,1,952.75,478.44Z"/><path class="cls-21" d="M935.79,479.61s6.1-9.4,17-7.19c9.28,1.88,11.88,7.17,13.34,10.42a27.85,27.85,0,0,0-13.74-7.68C944.31,473.24,935.79,479.61,935.79,479.61Z"/><path class="cls-10" d="M916.57,511.92c7,1.24,20,2.52,20,2.52s-3.84,19-23.18,15.27c-16.17-3.14-12.49-20.05-12.49-20.05S909.57,510.68,916.57,511.92Z"/><path class="cls-23" d="M916.5,511.91c3.32.59,15.73,2.65,15.73,2.65s-5.49,10.19-17.52,8.05c-13-2.31-11.36-12.35-11.36-12.35Z"/><path class="cls-12" d="M916.14,513.12c3.32.59,13.54,1.84,13.54,1.84s-4.27,2.86-14.24,1.09-12.54-5.73-12.54-5.73Z"/><path class="cls-10" d="M900.06,508.43c.06-.36.81-.38,2.48-.23,2.8.26,3.87-.56,5.89-.35,3.45.35,5.38,2,6.86,2.29s3.87-.65,7.23.21c2,.5,8,2.29,10.69,3,1.62.42,3.67.15,4,.3s-2.67,4.29-21.27,1S900,508.92,900.06,508.43Z"/><path class="cls-7" d="M940.14,460.34c0-.17.6-.12.61-.29,9.47-1.07,16.48-.34,19,.48a17.35,17.35,0,0,1,5.33,3s4.58,3.52,5,4.75-2.93-1-2.93-1a14.1,14.1,0,0,0-2-.94c-4.25-1.3-8.24-3.18-12.69-3.15-3.8,0-9.15,1.63-12.92,2.62C939.65,463.92,940.16,462.22,940.14,460.34Z"/><path class="cls-7" d="M916.63,457.83c0-.17-.45-.3-.41-.46-7.42-3.89-13.41-5.34-15.71-5.31a14.25,14.25,0,0,0-5.32,1.18s-2.15.28-2.91,1.3,0,1.64,0,1.64a11.94,11.94,0,0,1,1.94-.28c3.9.07,7.77-.5,11.41.88,3.12,1.16,7,4.32,9.77,6.41C915.89,461.36,916,459.6,916.63,457.83Z"/><path class="cls-7" d="M919,500.44a14.57,14.57,0,0,1-6.66-.27c-1.7-.41-3.55-.94-4.74-2.29a3.68,3.68,0,0,1-.67-4.38c.41-.67.94-1.27,1.41-1.9A17.81,17.81,0,0,0,910,489c.22-.43-.7-.39-.86-.07a31.08,31.08,0,0,1-2.78,4.13,3.61,3.61,0,0,0-.66,3.3c.89,3.19,4.49,4.17,7.36,4.69a15.23,15.23,0,0,0,6.09,0c.56-.13.41-.68-.15-.55Z"/><path class="cls-7" d="M928.25,496.72c1.44.2,1.2,2.44,1,3.43a2.8,2.8,0,0,1-1,1.71,4.16,4.16,0,0,1-2.94.44c-1.28-.18-2.29-1.15-3.47-1.63a.9.9,0,0,0-.58.06s-.41.19-.27.24c1.19.49,2.21,1.45,3.52,1.65a7,7,0,0,0,3.57-.31,2.91,2.91,0,0,0,1.85-1.77,6,6,0,0,0,.32-2.39c-.06-.8-.39-1.64-1.28-1.77a1.13,1.13,0,0,0-.63.12c-.06,0-.32.19-.12.22Z"/><path class="cls-2" d="M1032.15,810.12c-.88,22,4.37,69.68-61.57,72.26l30.14-6.47-.63,53.61s-185.22-2.66-191-2.8c-11.1-.26-37.19-15.24-40.83-49.78S792.55,834,801,827.78s101.11-35.57,136.42-40.65l85.32,10.53Z"/><path class="cls-2" d="M1015.09,897.85c2.17-4.69,8.06-9.52,12.2-11.7s9,.18,10.25.79c9.61,4.53,14.36,12.83,21.78,20.1a98,98,0,0,0,18.94,14.47c7,4.11,14.68,6.35,21.77,10.08l.15.08a17.18,17.18,0,0,1,7.82,8.55c.56,1.34,1.14,2.66,1.77,3.9.89,1.73,1.87,3,.8,5-2,3.61-8,1.07-9.83.23a2.24,2.24,0,0,0-1-.2c-1.45.07-5.73.06-12.87-1.8a19.31,19.31,0,0,0-2-.4l0,.12c-3.8-.76-20.64-2-23.73-2.42-6.08-.83-24.84-7.82-24.84-7.82s-24.76-4.44-33.09.23l-8.46-30.12S1012.93,902.54,1015.09,897.85Z"/><path class="cls-2" d="M1041.35,837.67c-.88,22,4.37,69.68-61.57,72.25l30.15-6.46,2.47,32.41S846.83,960,818.3,954.27c-11.09-.26-37.19-15.24-40.83-49.78s24.28-42.94,32.68-49.16,101.11-35.57,136.42-40.65l85.32,10.53Z"/><path class="cls-3" d="M776.76,904.75c-1-9.84.48-19.9,6.13-28.2,4.09-6,9.93-10.51,16.11-14.22,2.41-1.44,4.89-2.77,7.32-4.19,1.38-.8,2.92-1.95,4.09-2.58a100.11,100.11,0,0,1,12.67-5.27c15.94-5.91,32.21-11,48.49-15.85,18.09-5.42,36.3-10.55,54.72-14.75,3.74-.85,7.49-1.66,11.26-2.39,1.62-.31,3.24-.61,4.87-.88a25.15,25.15,0,0,1,3.25-.53,20.1,20.1,0,0,1,2.56.31l6,.74,42.16,5.18,33.74,4.15a5.28,5.28,0,0,0,1.12.14s.19,0,.19,0c-.13.25-.8-.61-.18.2l5.93,7.76L1040,838a2.9,2.9,0,0,1,.46.6c-.15-.38-.09.26-.1.43s0,.59,0,.89c-.07,2.46-.09,4.93-.14,7.4-.22,11.9-1.18,24.17-6.54,35a43.15,43.15,0,0,1-12.91,15.56c-7.17,5.32-15.74,8.36-24.43,10.07a109.42,109.42,0,0,1-16.83,1.85l.07,1.25,26.53-5.65,3.8-.81c1.17-.25.83-1.45-.32-1.2L983,909.08l-3.81.81c-1,.2-1,1.29.07,1.25,18-.73,37.89-5,50.1-19.39,8.42-10,11.46-22.9,12.32-35.61.37-5.35.35-10.7.48-16a4.24,4.24,0,0,0-.24-2.53c-.73-1.11-1.63-2.14-2.44-3.19l-6.31-8.26a2.31,2.31,0,0,0-2-1.08l-4.51-.55-17.53-2.16-45.59-5.61-14.79-1.81c-.81-.1-1.66-.29-2.49-.31a20.14,20.14,0,0,0-3.69.53q-2.58.43-5.15.93c-17.82,3.43-35.4,8.26-52.84,13.26-17.91,5.14-35.74,10.61-53.34,16.73-5.86,2-11.72,4.1-17.43,6.52a44.64,44.64,0,0,0-4.69,2.22c-1.64.93-3.15,2.06-4.79,3C798.68,861,793,864.17,788,868.55a39.13,39.13,0,0,0-12.51,21,50,50,0,0,0-.63,15.68c.08.8,2,.36,1.87-.5Z"/><path class="cls-24" d="M872.46,743.81c-1.85-19.94-3.47-27.77-5.22-47.67,8.22,1.24,16.47,2.38,24.73,3.34,12.19,1.43,24.42,2.54,36.68,3.22a282.76,282.76,0,0,0,33.32.18c10.85-.66,21.67-1.73,32.53-2.11,9.26-.33,17.51-.35,26.63,1.37-2.49,16.32,2.51,34.71,4,43.16l9.4,20.64,10.08,20.8c3.51,9.21,7.49,33.42,8.21,43.22,7.85,107.54-113.23,81-113.23,81s-17.44-29.19-21.33-36.29L909.75,861c-3.26.23-13.89-21-23.31-30.2C866.26,811.14,829,805.75,829,805.75L864.63,771Z"/><path class="cls-25" d="M861.21,580.45C876.47,560.6,911,552.28,911,552.28c-15.45,16.12-2.36,22.82-2.36,22.82,20.28,9.19,48.65-2.63,69.1-19.37l13.64,8.1c37.61,24.27,36.21,66,35,81.6-.76,10-2.83,42.94-7.94,70-9.15-1.44-16.6-1-25.79-.34-11.77.83-23.46,2.51-35.2,3.67-5.65.55-11.31,1-17,1.1a139.37,139.37,0,0,1-17.08-1c-12.37-1.29-24.75-2.6-37-4.76a188.82,188.82,0,0,1-19.21-4.29c-.49-9.12-3.76-14.75-4.53-25.89l-1.43-37.46c-6.22-.09-9-3.8-13-8.28-18.08-20.2-15.37-24.68-15.37-24.68S852.4,591.91,861.21,580.45Z"/><path class="cls-24" d="M880.73,906.59c1.86,1.59,1,4.87-1.05,6.23s-4.63,1.34-7.07,1.29l-25.25-.61a16.57,16.57,0,0,1-5.74-.83c-5.08-2-6.72-8.44-6.71-13.92s.9-11.32-1.66-16.16c-4.15-7.86-14.65-8.9-23.13-11.57a13,13,0,0,1-5.47-2.92c-4.55-4.58-1.65-12.28-2.55-18.67a15.49,15.49,0,0,0-13.45-12.9c-1.77-.17-3.82-.15-4.94-1.53-1.91-2.36.9-5.59,3.48-7.2,14.43-9,29.27-18.49,45.9-22.8,10.82-2.81,26.19-18.69,37-21.49,0,0,42.11,31.4,66.67,60.78s31.73,70.28,31.73,70.28c-21.11.44-74.11.61-100.15,1-.49-10.27-5.86-19-12.79-26.83-4.91-10.16-14.38-18.81-22-26.52-6.34-6.4-12.75-12.52-19.33-18.41-6.42-7.57-13.36-14.68-21.55-19.59a116.61,116.61,0,0,1,13.28-8.3"/><path class="cls-24" d="M862.17,646.25c0-11-1.84-21.83-1.51-32.81,0-.36-1.85-.1-1.86.5-.33,11,1.52,21.85,1.51,32.81,0,.38,1.86.09,1.86-.5Z"/><path class="cls-26" d="M1020.38,703.89s-.49,25.82,1,30.65c0,0-43.34,13.27-76.19,13.23s-74.16-5.21-74.16-5.21l-2.58-31s38.22,7.11,80.52,5.28S1020.38,703.89,1020.38,703.89Z"/><rect class="cls-17" x="1020.69" y="936.34" width="44.46" height="41.98"/><polygon class="cls-18" points="1020.69 978.33 1009.31 970.36 1009.31 928.38 1020.69 936.35 1020.69 978.33"/><rect class="cls-27" x="937.81" y="970.23" width="47.5" height="41.98"/><polygon class="cls-28" points="937.81 1012.21 925.66 1004.24 925.66 962.26 937.81 970.23 937.81 1012.21"/><polygon class="cls-29" points="985.31 970.23 973.16 962.26 925.66 962.26 937.81 970.23 985.31 970.23"/><rect class="cls-17" x="694.68" y="970.23" width="76.48" height="41.98"/><polygon class="cls-18" points="694.68 1012.21 675.11 1004.24 675.11 962.26 694.68 970.23 694.68 1012.21"/><polygon class="cls-19" points="771.16 970.23 751.59 962.26 675.11 962.26 694.68 970.23 771.16 970.23"/><rect class="cls-30" x="638.05" y="993.47" width="76.48" height="41.98"/><polygon class="cls-31" points="638.05 1035.45 618.48 1027.48 618.48 985.5 638.05 993.47 638.05 1035.45"/><polygon class="cls-32" points="714.53 993.47 694.96 985.5 618.48 985.5 638.05 993.47 714.53 993.47"/><rect class="cls-27" x="487.56" y="953.22" width="76.48" height="41.98"/><polygon class="cls-28" points="487.56 995.2 467.99 987.23 467.99 945.25 487.56 953.22 487.56 995.2"/><polygon class="cls-29" points="564.03 953.22 544.47 945.25 467.99 945.25 487.56 953.22 564.03 953.22"/><rect class="cls-27" x="717.58" y="869.65" width="47.5" height="41.98"/><polygon class="cls-28" points="717.58 911.63 705.43 903.66 705.43 861.68 717.58 869.65 717.58 911.63"/><polygon class="cls-29" points="765.08 869.65 752.93 861.68 705.43 861.68 717.58 869.65 765.08 869.65"/><rect class="cls-30" x="863.4" y="964.51" width="46.84" height="41.98"/><polygon class="cls-31" points="863.4 1006.49 851.41 998.52 851.41 956.54 863.4 964.51 863.4 1006.49"/><polygon class="cls-32" points="910.24 964.51 898.25 956.54 851.41 956.54 863.4 964.51 910.24 964.51"/><rect class="cls-30" x="709.55" y="823.95" width="46.84" height="41.98"/><polygon class="cls-31" points="709.55 865.93 697.57 857.96 697.57 815.98 709.55 823.95 709.55 865.93"/><polygon class="cls-32" points="756.39 823.95 744.4 815.98 697.57 815.98 709.55 823.95 756.39 823.95"/><polygon class="cls-19" points="1065.48 936.24 1054.11 928.27 1009.65 928.27 1021.02 936.24 1065.48 936.24"/><path class="cls-2" d="M740,584.73c4.29,2.35,9.45,6.83,13,10.09,4.11,4.3,11.36,19.94,11.36,19.94l15.29,9.88-11.35,25.3-16.5-9.46-19-2s-33.4-10.7-36.37-14.61-3.81-14.4-3.81-14.4c-4.78-4.52-2.06-12.77-2.06-12.77-5.27-9.8,2.17-8.81,2.17-8.81a2.06,2.06,0,0,1-.49-1c-.65-4.07,5.37-6.06,8-2.92,4.5,5.22,10.67,12.14,11.88,12.3s9.16,2.43,16.09,4.44a6.8,6.8,0,0,0,8.56-3.66c.12-.3,1.63-1.86-.52-3.78"/><path class="cls-3" d="M696,592.62a30.65,30.65,0,0,0,8.52,10.51,38.37,38.37,0,0,0,12,5c-.17.34-.34.68-.49,1a34,34,0,0,1-12.55-4.88A27,27,0,0,1,695,593.07a17.06,17.06,0,0,1-1.86-5.37A26,26,0,0,1,696,592.62Z"/><path class="cls-3" d="M694,600.69c1,1.27,2.17,2.82,3.42,4.56a34.57,34.57,0,0,0,4.41,5.21,19,19,0,0,0,6.14,3.37c1.85.68,3.74,1.27,5.65,1.77l.25.06-.3.86-.22,0a44.73,44.73,0,0,1-5.95-1.52,19.41,19.41,0,0,1-6.7-3.45,31.38,31.38,0,0,1-4.53-5.53L693,601.26a17,17,0,0,1-2.56-4.57A18.56,18.56,0,0,1,694,600.69Z"/><path class="cls-3" d="M694.57,612.55a34.93,34.93,0,0,0,2.32,3.25,22.22,22.22,0,0,0,1.58,1.79,5,5,0,0,0,1.85,1.36c3.58,1.34,6.68,2.67,9,3.64.23.08.44.18.66.27a3.93,3.93,0,0,0-.41.89c-2.44-.72-5.95-2-9.77-3.43a6.12,6.12,0,0,1-2.43-1.78,19.72,19.72,0,0,1-1.6-1.95,21.39,21.39,0,0,1-2.17-3.57c-1-2.15-1.19-3.62-1-3.65S693.33,610.63,694.57,612.55Z"/><path class="cls-2" d="M971,652.24c-27.69,20.27-75.78,65.93-108.09,65.16-40-.95-112.29-82.24-112.29-82.24l14-20.8,97.71,51.4s78.8-58,89.22-67.72c0,0,37-37.62,54.27-6.4"/><path class="cls-3" d="M831.92,705.4a163.41,163.41,0,0,1-28.52-17.76A213.3,213.3,0,0,1,782.88,669c-6.29-6.38-12.41-12.93-18.91-19.1a88.46,88.46,0,0,0-8.84-7.81,19.67,19.67,0,0,0-3.18-2.31,4.49,4.49,0,0,0-1.22-.17l-16.56-1.73a7.89,7.89,0,0,1-2.25-.42q-2.94-1-5.86-2c-6.3-2.13-12.58-4.34-18.75-6.81a83,83,0,0,1-7.71-3.44,7.88,7.88,0,0,1-4.23-4.22A38.39,38.39,0,0,1,693,610.49a12.47,12.47,0,0,0-.15-1.37c-.13-.49-.34-.61-.72-1.06a10,10,0,0,1-2.1-5.66,17.38,17.38,0,0,1,.35-4.93,9.23,9.23,0,0,0,.31-1.23c0-.66-.57-1.43-.84-2.06-.66-1.54-2-5.8.46-6.36a3.54,3.54,0,0,1,.91,0c.19,0,1.9-.32,1.7-.59-1.62-2.19.59-5.21,3.12-4.84a5.15,5.15,0,0,1,3.18,2.1q1.61,1.86,3.23,3.69c1.88,2.11,3.77,4.22,5.8,6.18a9.49,9.49,0,0,0,1.91,1.61,5.33,5.33,0,0,0,1.38.39c2.58.6,5.13,1.36,7.68,2.09l5.42,1.55a16.92,16.92,0,0,0,4.55,1,9,9,0,0,0,6.66-2.72,9.88,9.88,0,0,0,1.53-2.53,2.61,2.61,0,0,0-.59-2.88c-.33-.43-.28-.09-.18-.54a5.38,5.38,0,0,1,.41-.92l1.27-2.91,1.93-4.37-1.8.48a57.11,57.11,0,0,1,9,6.54,31.32,31.32,0,0,1,5.93,6.08,112.11,112.11,0,0,1,7.59,13.69c.6,1.22,1.19,2.43,1.76,3.66.18.4,2-.25,1.86-.5q-2.26-4.89-4.82-9.65c-1.3-2.44-2.65-4.87-4.17-7.18a27.74,27.74,0,0,0-5-5.53A61.53,61.53,0,0,0,740.13,584a2,2,0,0,0-1.8.48L734.58,593a.08.08,0,0,0,0,.13,2.53,2.53,0,0,1,.88,3,12.6,12.6,0,0,1-1,1.88,5.34,5.34,0,0,1-2.92,2.19,7.71,7.71,0,0,1-4.16-.48c-4.65-1.34-9.29-2.76-14-3.92a4.94,4.94,0,0,1-2.47-1.12,52.41,52.41,0,0,1-4.13-4.17c-1.8-1.94-3.54-3.92-5.28-5.91-1.23-1.42-2.27-2.68-4.25-2.89a7.66,7.66,0,0,0-5,1.26c-1.5,1-2.48,3.16-1.26,4.79l1.7-.59a6.84,6.84,0,0,0-4.23.86c-2.75,1.66-1.19,5.59,0,7.77.31.6.43.61.27,1.19s-.26,1.07-.36,1.61a16.41,16.41,0,0,0-.12,5.37,10.56,10.56,0,0,0,.81,2.76,8.27,8.27,0,0,0,.78,1.36c.26.37.9.85,1.08,1.26a11.38,11.38,0,0,1,.3,2.62c.49,3.66,1.1,7.76,3,11,1,1.67,2.74,2.51,4.42,3.34a162.22,162.22,0,0,0,18.26,7.28c4.62,1.64,9.25,3.31,13.93,4.73a16,16,0,0,0,3.08.41l9.43,1,4.36.46a16.27,16.27,0,0,1,2.42.25c.23.06,0-.05.31.18.54.37,1.07.78,1.61,1.17,1.07.78,2.16,1.52,3.17,2.39,7.13,6.18,13.72,12.93,20.28,19.7s13,13.37,20.08,19.46A159.52,159.52,0,0,0,822,701.72c2.69,1.5,5.43,2.93,8.19,4.3.47.23,1.9-.55,1.77-.62Z"/><path class="cls-3" d="M763.57,615.3l9.76,5.08,23.42,12.19L825,647.26,849.48,660c4,2.06,7.89,4.24,11.92,6.2l.16.09c.74.38,2.37-.62,1.44-1.1l-9.76-5.08-23.42-12.19L801.6,633.25,777.09,620.5c-4-2.07-7.9-4.25-11.92-6.21l-.17-.08c-.74-.39-2.36.61-1.43,1.09Z"/><path class="cls-25" d="M910.79,615.71c-1.14-6,4-11.22,8.71-15.18,11.84-10,23.8-20.08,37.55-27.22,10.56-5.48,22.39-9.12,34.2-9.2-1,1.58-.84,3.84,1.45,4.55,8.75,2.72,12.72,9.1,16.62,17.07.07.14,6.8,13.6,6.88,13.72,0,9.09-6.79,6.44-9.52,15.2-6.88,22.13-16.95,43.94-33.66,60l-3.41.3c-24.93-8-41.28-31.23-55.78-53A17.46,17.46,0,0,1,910.79,615.71Z"/><path class="cls-24" d="M915.1,624.61,913.53,621a1.14,1.14,0,0,1-.16-.7c.1-1.36,1.48-3,2.27-4a52.32,52.32,0,0,1,3.53-3.91c5.41-5.52,10.38-11.38,16.13-16.57,4.16-3.75,8.56-7.18,13-10.63,5.71-4.46,10.89-9.83,18-12.09,8.38-2.68,18.11-2.11,25.55,2.81.46.3,2.06-.45,1.76-.65-6.61-4.37-14.85-5.31-22.55-4a34.25,34.25,0,0,0-10.72,3.63,55.61,55.61,0,0,0-8.68,6.29c-4.79,4-9.82,7.7-14.57,11.75-3.07,2.61-6,5.33-8.88,8.18-3,3-5.68,6.27-8.63,9.31-2.68,2.77-5.91,5.52-7.55,9.08a2.56,2.56,0,0,0-.4,1.75,28.48,28.48,0,0,0,1.68,3.9c.21.48,2-.12,1.87-.5Z"/><path class="cls-3" d="M862.4,666.84a22,22,0,0,1,6.71,16.56c0,.31,1.85.07,1.87-.5a22.26,22.26,0,0,0-6.82-16.71c-.36-.34-2.06.35-1.76.65Z"/><path class="cls-24" d="M951.86,667.32c1.59,1.45,3,3.4,5,4.34a12.12,12.12,0,0,0,4,1.23,6.67,6.67,0,0,0,4.26-1.39q9.25-6,18.19-12.56c8.9-6.53,17.8-13.71,24-22.94a51.24,51.24,0,0,0,6.79-14.64c.25-.88-1.66-.66-1.89.14-2.58,9-7.77,16.81-14.37,23.43-8.43,8.44-18.45,15.25-28.29,21.91-1.71,1.15-3.41,2.3-5.13,3.44a4.77,4.77,0,0,1-3.16,1.25,11,11,0,0,1-2.44-.72c-2.3-.86-3.79-2.95-5.56-4.56-.61-.54-2.24.36-1.44,1.07Z"/><path class="cls-2" d="M405,640.56c-7-3.07-15.23-6-20.59-11,.1-1.09.11-1.09.27-2.18,2.35-15.88,9.51-31.17,19.41-43.74,6.84-8.68,9.57-17.48,19.63-22.36.43,2.14,6.53,4.09,6.53,4.09l171.1,58.71,6.31,35.84c-67.53,1.72-132-3.13-197.84-18.21C408.16,641.33,406.55,641,405,640.56Z"/><path class="cls-2" d="M586.36,658.83l19.94,2s35.5,26.51,47.79,30a94.37,94.37,0,0,0,27.75,2.39l9.23,6a20.57,20.57,0,0,0,14.57,3l4-.63s9.38,11,13.09,7.85,1.3-8.27-1-13.28-65.75-63.84-65.75-63.84c7.88-.78,20.09,4.73,27.87,5.37,11.94,1.08,17.19-3.11,13.7-8.72-2.15-3.47-10.75-8-17.77-6.84s-33.8-14.5-46.12-13.8-25.06,13.25-25.06,13.25c-6.54,1.24-15.88.93-15.88.93C585.4,633.07,586.36,658.83,586.36,658.83Z"/><path class="cls-3" d="M686.66,660a19.19,19.19,0,0,0-3.77-4.61c-2.31-2.4-4.74-4.68-7.19-6.93-5-4.63-10.2-9.12-15.41-13.55L656.84,632l-1.28.73c6.24-.55,12.64,1.89,18.57,3.5S686,639,692,637.82c3.24-.61,8.1-2.37,7.53-6.51-.67-4.85-6.79-7.62-10.86-8.85a22.79,22.79,0,0,0-8.81-.7,12.36,12.36,0,0,1-4-.63,114,114,0,0,1-13-4.77c-5-2-10-4.12-15.2-5.83-4.14-1.37-8.55-2.72-13-2.64-5.72.1-11.28,2.58-16.1,5.48a62.46,62.46,0,0,0-10.28,7.74l-.53.5c-.23.23.06.32.25.35-.45-.07.56-.46.53-.57s-2.08.27-2.21.27c.28,0-.15,0-.3,0-.39,0-1.28-.24-1.87-.38-2.4-.55-4.79-1.2-7.17-1.84-7.89-2.14-15.74-4.42-23.59-6.7q-14.28-4.17-28.54-8.43-12.33-3.67-24.66-7.4l-8.1-2.45c-1.28-.39-2.57-.88-3.87-1.17l-.18-.06c-.44-.13-2.1.58-1.52.76L517,597.13q12.54,3.79,25.11,7.54,14.77,4.41,29.6,8.75c8.08,2.36,16.18,4.71,24.31,6.9,2.36.63,4.72,1.27,7.1,1.8a14.8,14.8,0,0,0,1.88.34,9.65,9.65,0,0,0,1.86-.14c.55-.06,2.37-.1,2.69-.73.18-.34-.08-.39-.39-.43l.25.34a55.34,55.34,0,0,1,6.76-5.54c4.52-3.22,9.67-6.18,15.23-7.05,4.27-.67,8.6.49,12.67,1.74,4.75,1.46,9.38,3.31,14,5.18,4.36,1.76,8.69,3.61,13.14,5.12,2.85,1,5.71,1.86,8.73,1.48A18.86,18.86,0,0,1,689.2,624a18,18,0,0,1,6.77,4.41,5.94,5.94,0,0,1,1.61,4.79,4.9,4.9,0,0,1-3.33,3.38c-3,1.16-6.63,1-9.82.73a54,54,0,0,1-9.14-1.92c-6.06-1.66-12.55-4-18.93-3.45-.18,0-1.68.39-1.28.72,8.57,7.16,17.16,14.44,25,22.36,1.61,1.62,3.66,3.4,4.67,5.5.24.49,2-.15,1.87-.5Z"/><path class="cls-3" d="M709.25,700.66a142.54,142.54,0,0,0-12.55-10.17c-5.21-4-10.48-7.92-15.58-12.06a63.33,63.33,0,0,1-6-5.25c-.63-.65-2.39.14-1.7.85,3.71,3.87,8.16,7.1,12.39,10.38,5.28,4.07,10.63,8.05,15.86,12.19,2.09,1.66,4.2,3.33,6.12,5.19.65.62,2.23-.36,1.43-1.13Z"/><path class="cls-3" d="M681.09,691.83l-21.91-14.29L656,675.48c-.52-.34-2.19.41-1.74.7l21.92,14.29,3.16,2.06c.52.34,2.19-.41,1.74-.7Z"/><path class="cls-3" d="M391.26,589.57c1.28-6.07,3.31-12.28,7.47-17,3.69-4.22,8.78-6.57,14.22-7.6a60.89,60.89,0,0,1,11.6-.86c.59,0,2-.87.78-.88-6.75-.05-13.77.52-20,3.32a25.11,25.11,0,0,0-12.09,11.74,46.9,46.9,0,0,0-3.84,11.6c-.12.55,1.74.25,1.85-.29Z"/><path class="cls-3" d="M752.68,659.85c-2.61-3-5.37-6-7.68-9.28a117.78,117.78,0,0,1-6.11-10.42c-.3-.52-2.07.14-1.87.5,2,3.52,3.83,7.15,6.15,10.47a120.2,120.2,0,0,0,7.76,9.4c.34.39,2.11-.25,1.75-.67Z"/><path class="cls-3" d="M198.36,900.83l11.22-9.36a131.16,131.16,0,0,0,13.11-12.93c9.27-10.24,20.64-23.58,36-21.22,7.21,1.1,14.34,4,19.62,9.18a46.22,46.22,0,0,1,4.19,5.07,32.59,32.59,0,0,0,4.4,4.39c1.49,1.3,3.08,3,5,3.65,4.12,1.32,8.85,1.33,13.13,1.55,6.68.34,13.37.43,20.05.44q15.12,0,30.24-.4h.53c.37,0,1.08-.11,1.23-.53s-.12-.63-.52-.62c-8.76.27-17.53.39-26.29.42-6.93,0-13.87,0-20.79-.28-5-.19-10.14-.27-15-1.3a8.17,8.17,0,0,1-3.95-2.09c-1.54-1.27-3.06-2.58-4.47-4s-2.63-3.28-4-4.91c-5-6-12.36-9.64-19.93-11.24a27.22,27.22,0,0,0-14.81.53c-8.44,2.84-15.16,9.24-21.14,15.59-5.06,5.37-9.71,11.34-15.39,16.08L198,899.47l-1.17,1c-.36.3-.13.59.19.74a1.46,1.46,0,0,0,1.32-.36Z"/></g></svg>