<svg xmlns="http://www.w3.org/2000/svg" viewBox="0 0 1303.15 1057.31"><defs><style>.cls-1{fill:#f2ead4;}.cls-2{fill:#6f9991;}.cls-3{fill:#b23a2b;}.cls-4{fill:#43221c;}.cls-5{fill:#7a2f26;}.cls-6{fill:#4679b7;}.cls-7{fill:#192940;}.cls-8{fill:#3b6d9f;}.cls-9{fill:#a86e57;}.cls-10{fill:#422b16;}.cls-11{fill:#231f20;}.cls-12,.cls-14{fill:#151210;}.cls-12{stroke:#231f20;stroke-width:0.88px;}.cls-12,.cls-33{stroke-miterlimit:10;}.cls-13{fill:#502e27;}.cls-15{fill:#1d1710;}.cls-16{fill:#13110f;}.cls-17{fill:#0f0a09;}.cls-18{fill:#fff;}.cls-19{fill:#663b2c;}.cls-20{fill:#b45d32;}.cls-21{fill:#e28a3d;}.cls-22{fill:#d08c3e;}.cls-23{fill:#010101;}.cls-24{fill:#142b30;}.cls-25{fill:#ae3831;}.cls-26{fill:#681b12;}.cls-27{fill:#512a5f;}.cls-28{fill:#c3a5cb;}.cls-29{fill:#331741;}.cls-30{fill:#f68d3b;}.cls-31{fill:#b0532f;}.cls-32{fill:#d57138;}.cls-33{fill:none;stroke:#502e27;}.cls-34{fill:#251710;}</style></defs><g id="Layer_1" data-name="Layer 1"><polyline class="cls-1" points="-12.74 1062.88 -12.74 -32.86 1320.29 -32.86 1320.29 1062.88"/><polygon class="cls-2" points="-30.19 1116.04 1353.34 1116.04 1353.34 883.76 -24.98 883.76 -30.19 1116.04"/><rect class="cls-3" x="797.58" y="871.65" width="47.5" height="41.98"/><polygon class="cls-4" points="797.58 913.63 785.43 905.66 785.43 863.68 797.58 871.65 797.58 913.63"/><polygon class="cls-5" points="845.08 871.65 832.93 863.68 785.43 863.68 797.58 871.65 845.08 871.65"/><rect class="cls-6" x="744.76" y="870.29" width="44.46" height="41.98"/><polygon class="cls-7" points="744.76 912.27 733.38 904.3 733.38 862.32 744.76 870.29 744.76 912.27"/><polygon class="cls-8" points="789.55 870.18 778.17 862.22 733.72 862.22 745.09 870.18 789.55 870.18"/><path class="cls-9" d="M691.43,626.91s52.24,7.89,58.36,9.24c5.4,1.19,42.64,32.71,53.08,41.21h0a12.78,12.78,0,0,1-15.69,3c-12.14-6.42-34.81-19.6-34.81-19.6s-2.07,6.55-1.63,7.85c5.55,16.2-2.69,18.66-2.69,18.66s-.47,2.66-5.09,7.89c-5.79,6.53-15.72.5-15.72.5s.89,4-7.45,7.7-10.86-12.87-10.86-12.87.09,1.74-17.68-4-26-26.44-26-26.44l-44-12.06,8.53-44.32Z"/><path class="cls-10" d="M750.13,669.91c-1.83,1.12-4,1.17-6.07,1.15-1.91,0-4.59,0-5.23-2.28-.14-.49-1.78,0-1.64.44.74,2.63,4,2.64,6.2,2.66,2.65,0,5.42-.18,7.73-1.59.23-.15.48-.37.17-.56s-.91,0-1.16.18Z"/><path class="cls-10" d="M748.7,686.81a19,19,0,0,1-14-3.65,1.13,1.13,0,0,0-1.1,0c-.15.07-.74.45-.43.68a20.67,20.67,0,0,0,15.26,3.94c.29,0,.89-.21.93-.57s-.46-.41-.71-.37Z"/><path class="cls-10" d="M727.56,695.27l-4.81-7.22a60.49,60.49,0,0,1-4.54-7.13c-.91-1.89-1.51-4.39-.28-6.29,1.9-3,5.55,0,7.3,1.52.49.43,2-.23,1.51-.69-2.15-1.89-4.67-3.76-7.7-2.92a5,5,0,0,0-3.45,5.37c.17,3.15,2.36,5.9,4,8.42L726,696c.36.53,1.94-.05,1.52-.69Z"/><path class="cls-10" d="M709.36,690.66c-.88-2.61-1.6-5.92.06-8.39a5.16,5.16,0,0,1,.66-.82c.33-.32.53-.51,1-.38a8.32,8.32,0,0,1,2.31,1.32q2.42,1.65,4.71,3.5a1.15,1.15,0,0,0,1.08,0c.14-.06.73-.38.45-.61-1.39-1.12-2.83-2.2-4.31-3.21-1.29-.9-2.72-2.1-4.4-1.87-3,.4-4.21,3.85-4.12,6.46a15.55,15.55,0,0,0,.92,4.46c.18.53,1.81.06,1.64-.44Z"/><path class="cls-10" d="M692.59,654a40,40,0,0,0,3.37,6.16,13.91,13.91,0,0,0,4.44,3.7c2.85,1.62,6,3.14,9.27,3.32a36.73,36.73,0,0,0,8.18-.42c3.45-.61,6-2.92,9.3-4l-1-.38c-.35,3.9-1.25,7.87-.64,11.79.67,4.39,3.67,7.14,7.75,8.53a1.29,1.29,0,0,0,1.17-.31c2.15-2,2.81-4.77,3.17-7.55a52.39,52.39,0,0,1,2.12-10.29c2.27-6.69,5.94-14.49,2.47-21.44a10.45,10.45,0,0,0-7.13-5.82c-.59-.12-1.94.77-1,1,3.71.76,6.31,4,7.32,7.49,1.27,4.46.06,9.22-1.39,13.48s-3.14,8.27-3.7,12.68c-.45,3.48-.44,7.58-3.22,10.13l1.16-.31c-4-1.38-6.67-4.24-7.17-8.52-.43-3.67.4-7.36.73-11,0-.48-.66-.48-1-.38-3.37,1.07-6.08,3.5-9.64,4s-7.74.67-11.25-.74c-2.64-1.06-5.63-2.48-7.63-4.57s-3-4.6-4.15-7c-.31-.62-1.92-.11-1.64.44Z"/><path class="cls-9" d="M538.56,558.53c-8.46-37.8-47.68-201.62-40.68-163.42.48.53-60.32,30.65-63.22,32.49C422,435.7,445.83,539.69,451.25,555c13.18,37.27,14.35,59.11,37.44,70.1C525.16,591.65,509.36,572.56,538.56,558.53Z"/><path class="cls-9" d="M699.68,632l-161.4-74.12s-10.19,2.49-10.18,2.43c-29.56,4.6-38,35.07-41.71,63.23,10.86,8.07,27.9,15.07,54.53,22.41,17.74,4.9,151.26,21,151.26,21C696.75,650.51,690.35,640.54,699.68,632Z"/><path class="cls-9" d="M1082.24,646.7c-15.3,30.72-57.06,93.37-86.12,107.52-36,17.5-132.8-25.57-132.8-25.57l2.86-24.88,105.68,4.85s63.4-87.68,68.18-101.12c0,0,5.38-22.55,35-2.72"/><path class="cls-11" d="M1105.37,530c-.22-8.85,5.91-19.1,15.41-18.56a24.55,24.55,0,0,1,6.71,1.67l9.67,3.38a32.06,32.06,0,0,1,8.38,3.89c4.5,3.27,6.75,8.67,7.19,13.93s-.69,10.51-1.82,15.67c-1,4.73-2.73,10.2-7.6,11.82-2.87,1-6.09.24-9.12.58-2.72.3-5.22,1.45-7.85,2.12-9,2.31-19.45-1.47-24.53-8.85"/><path class="cls-11" d="M1128.7,509.5c-.22-8.85,5.91-19.1,15.4-18.56a24.53,24.53,0,0,1,6.72,1.67l9.66,3.39a31.78,31.78,0,0,1,8.39,3.88c4.5,3.27,6.74,8.67,7.19,13.94s-.69,10.5-1.82,15.66c-1,4.73-2.73,10.2-7.6,11.82-2.88,1-11.2,4.53-13.41,6.64-6.65,6.34-.93-4.61-3.56-3.94-9,2.31-19.45-1.47-24.53-8.85"/><path class="cls-11" d="M1136.31,484.53c-.22-8.85,5.91-19.1,15.41-18.56a24.55,24.55,0,0,1,6.71,1.67l9.67,3.38a32.06,32.06,0,0,1,8.38,3.89c4.5,3.27,6.75,8.67,7.19,13.93s-.69,10.51-1.82,15.67c-1,4.73-2.73,10.2-7.6,11.82-2.87,1-6.08.24-9.12.58-2.72.3-5.22,1.45-7.85,2.12-9,2.31-19.45-1.47-24.52-8.85"/><path class="cls-11" d="M1129.87,453.59c-.23-8.85,5.91-19.1,15.4-18.56a24.89,24.89,0,0,1,6.72,1.67l9.66,3.39A32.1,32.1,0,0,1,1170,444c4.5,3.27,6.74,8.67,7.19,13.94s-.69,10.5-1.82,15.66c-1,4.73-2.73,10.2-7.61,11.82-2.87,1-6.08.24-9.12.58-2.71.31-5.21,1.45-7.85,2.13-9,2.3-19.44-1.48-24.52-8.86"/><path class="cls-11" d="M1117,433.42c-.23-8.85,5.91-19.1,15.4-18.56a24.53,24.53,0,0,1,6.72,1.67l9.66,3.39a31.92,31.92,0,0,1,8.39,3.88c4.5,3.27,6.74,8.67,7.19,13.94s-.7,10.5-1.83,15.66c-1,4.73-2.73,10.2-7.6,11.82-2.87,1-6.08.24-9.12.58-2.71.31-5.22,1.45-7.85,2.12-9,2.31-19.44-1.47-24.52-8.85"/><path class="cls-11" d="M1090.86,418.72c-.23-8.86,5.91-19.11,15.4-18.57a25.27,25.27,0,0,1,6.72,1.67l9.66,3.39a32.25,32.25,0,0,1,8.39,3.88c4.5,3.28,6.74,8.67,7.19,13.94s-.7,10.51-1.83,15.66c-1,4.73-2.73,10.21-7.6,11.83-2.87,1-6.08.24-9.12.58-2.71.3-5.22,1.44-7.85,2.12-9,2.31-19.44-1.47-24.52-8.86"/><path class="cls-11" d="M1037.68,424.77c.41-13.33,25.24-22.88,34.74-22.34,2.31.13,4-4.92,13.32-3.82,3.39.4,6.44,2.26,9.67,3.39a32,32,0,0,1,8.38,3.88c4.5,3.28,6.74,8.67,7.19,13.94s-.69,10.51-1.82,15.66c-1,4.73-2.73,10.2-7.6,11.83-2.88.95-6.09.23-9.12.58-2.72.3-5.22,1.44-7.85,2.12-9,2.31-19.45-1.48-24.53-8.86"/><path class="cls-12" d="M1158.78,532.79c-5.35,8.41-11.8,16.78-20.48,22-8.88,5.31-19.56,5.35-29.62,5-19.59-.79-39.23-6.31-55.35-17.72a81.4,81.4,0,0,1-32.43-49.12,112.33,112.33,0,0,1-1-43.49c.4-.9.78-1.83,1.2-2.69,12.37-25.35,21.48-31.74,48.19-34.34,16.42-1.77,30.82-10.42,55.24,1,5.26,2.46,10.63,8.94,17.32,12.84,10.07,5.87,20.79,15.5,24.53,24.56,7.1,17.25,3.16,41.33,2.94,61.3A102.21,102.21,0,0,1,1158.78,532.79Z"/><path class="cls-9" d="M1106.85,572.52c-.11.05-6.95,2.6-7.07,2.66-11.66,5.8-18.83,2.33-31.83,4.67-4.36.79-21,3.48-24.38,1.85l.89-11.42a48.64,48.64,0,0,1-7.74-1.78l-2.5-.81c-18-6.92-23.64-42.86-23.61-52.28,0-8,3.92-11.32,5.49-16,.31-3.66.69-7.92,1.18-13,.14-1.49.32-2.91.5-4.32a13.3,13.3,0,0,0,.3-2.18c3.69-24.83,13.42-36.93,13.42-36.93a55.18,55.18,0,0,1,51.44-19.78c22.94,3.12,42.08,19.49,51.28,34.81a36,36,0,0,1,4.54,25.29c-1.4,7.44-3.73,12.45-6.69,20.36,8.08.56,15.62,4.34,11,18.81-6.38,20-19.37,24.86-25.94,18.14C1113.79,542.1,1106.72,550.19,1106.85,572.52Z"/><path class="cls-9" d="M1076.09,574.91c11.67-2.19,20.05-15.31,30.48-20.79-.59,7.26,1.89,27.12,4.14,32.38l-.47,2.3c-20.39,26.08-75.76,43-74.64,4.05l7.76-11.52C1055,582.43,1064.54,577.07,1076.09,574.91Z"/><path class="cls-13" d="M1044.23,570.12s21.65,4.48,42.85-6.23c0,0-3.14,6.31-17.74,9.66s-25.15.52-25.15.52Z"/><path class="cls-14" d="M1122,514.61c0-.12,0-5.17-1,.88-.51,3,4.15-6.47,6.76-8.25a16.6,16.6,0,0,1,8.53-3.13c2.16-.27,7.08,3.62,9.09,4.48.33.2-2.17-3.2-1.84-3,7.56-16.77,11.75-30.83,1.65-53.8-2.92-6.62-11.75-14.63-14.44-17.18-16.33-15.31-32.27-18.24-52.27-18.75-23.18-.58-46.83,6.63-55,29.11-2,5.42-2.62,7.72-2.78,13.47,0,0,2.68-12.47,14.54-17.7s12.62,1.73,28.21,4c18.07,2.58,25.24-6.51,38.82,2.86,12.4,8.59,14.48,14.8,14.48,14.8.44,3.44,2.08,6.55,3.06,9.84a28.76,28.76,0,0,1,.88,9.91c-.39,6.87-.52,13.77-1.87,20.54-.84,4.2-2.37,9.72,1.33,13C1121.86,517.23,1120,515,1122,514.61Z"/><path class="cls-11" d="M1123.33,514.51a5.17,5.17,0,0,0-.09-1.92,1.43,1.43,0,0,0-2.47-.51c-.79.77-1.11,2.86-1.08,3.86,0,1.27,1.48,1.3,2.34.7a7.63,7.63,0,0,0,1.67-2.15c.8-1.22,1.57-2.46,2.4-3.66a13,13,0,0,1,2.4-2.91,14.29,14.29,0,0,1,6.78-2.81c1.84-.25,3.39.8,4.92,1.72,1.37.83,2.92,2.2,4.48,2.63.72.19,1.92-.07,2-1,.07-.54-.55-1.2-.82-1.61l-.73-1.08a3.37,3.37,0,0,0-.24-.37c-.24-.27,0-.43-.1,0l-2,1h0a1.7,1.7,0,0,0,2-.72c2.82-6.28,5.44-12.73,6.77-19.52a51.13,51.13,0,0,0-.47-21.26,75.36,75.36,0,0,0-4.3-12.84,35.38,35.38,0,0,0-5.79-8.85,104.21,104.21,0,0,0-14.23-13.71,63.45,63.45,0,0,0-19.68-10.63,86.82,86.82,0,0,0-21.4-3.71c-14.13-.89-28.84-.07-41.78,6.22a43.64,43.64,0,0,0-15.4,12.14,40.14,40.14,0,0,0-5.2,8.73,46.24,46.24,0,0,0-3.36,10.5,40.66,40.66,0,0,0-.5,5.73c0,1.38,2.36.88,2.59-.2a25,25,0,0,1,16.79-17.95,11.72,11.72,0,0,1,6.24-.29,41.86,41.86,0,0,1,5.92,2.24,50,50,0,0,0,19.68,3.84c5.7-.08,11.2-1.56,16.85-1.91a20,20,0,0,1,7.58.88,32.17,32.17,0,0,1,9.1,5.28c4,3,8,6.55,10.6,10.9a4.83,4.83,0,0,1,.75,1.66,48.71,48.71,0,0,0,1.69,5.8,35.71,35.71,0,0,1,1.89,6.14c.77,4.31.25,8.76,0,13.09a113.29,113.29,0,0,1-1.27,13.13c-.56,3.24-1.57,6.48-1.3,9.79a8.53,8.53,0,0,0,1.39,4.18c.65.94,1.74,2.27,3,2a1.49,1.49,0,0,0,1.27-1c.06-.25.06-.64,0-.63,1.57-.45,1.11-2.2-.47-1.75a2.9,2.9,0,0,0-1.89,1.3,2.27,2.27,0,0,0-.21.73c0,.45-.14.48.16.11l1.19-.56c.28,0,.5.18.48,0s-.41-.37-.51-.46a6.41,6.41,0,0,1-.7-.86,6.51,6.51,0,0,1-1-2.23,13.18,13.18,0,0,1,0-4.93c.55-3.72,1.44-7.35,1.82-11.1.45-4.38.6-8.78.84-13.18A31.22,31.22,0,0,0,1120.5,470c-.68-1.9-1.47-3.76-2-5.72-.2-.78-.24-1.61-.49-2.36a11.8,11.8,0,0,0-1.44-2.6c-3.14-4.7-7.72-8.48-12.27-11.73-4.87-3.48-10.11-5.52-16.15-5.22-5.67.28-11.19,1.81-16.89,1.93a47.64,47.64,0,0,1-19.41-3.94,33.49,33.49,0,0,0-6-2.15,14.56,14.56,0,0,0-6.5.16c-9.59,2.29-17.15,10.17-19.74,19.58l-.15.59,2.59-.2a40.66,40.66,0,0,1,19.53-33.53c11.6-6.9,25.58-8.43,38.84-7.95a99.84,99.84,0,0,1,21.3,2.67,60.55,60.55,0,0,1,19.22,8.67,94.39,94.39,0,0,1,14.72,12.88,56.22,56.22,0,0,1,6.59,8,45.85,45.85,0,0,1,4.78,11.09,53.14,53.14,0,0,1,2.63,21.59,66.92,66.92,0,0,1-5.23,18.9c-.67,1.6-1.37,3.19-2.08,4.77l2-.72h0c-.72-.2-1.92.06-2,.95-.07.54.55,1.21.82,1.61l.73,1.08c.08.12.15.27.24.38.24.26,0,.42.1-.05l2-1a11.05,11.05,0,0,1-2.63-1.54c-1.12-.69-2.23-1.39-3.41-2a8,8,0,0,0-3.1-1,14.49,14.49,0,0,0-5.24,1,13.85,13.85,0,0,0-6.56,4.21,62.72,62.72,0,0,0-3.66,5.37c-.26.4-.52.8-.79,1.18a3.9,3.9,0,0,0-.31.4c0,.05-.09.09-.11.14-.06.21,0-.07,0,0a18.78,18.78,0,0,1,1.89.26s0,0,0-.1a4.62,4.62,0,0,0,.22-1.27c.06-.35.18-.71.22-1.06.1-.74.57-.12-.69.14l-1,0c-.64-.3-.32-.46-.37,0a3,3,0,0,0,0,.51,3.53,3.53,0,0,1,0,.86C1120.5,516,1123.11,515.65,1123.33,514.51Z"/><ellipse class="cls-11" cx="1024.26" cy="493.9" rx="4.92" ry="4.93" transform="translate(-53.39 130.97) rotate(-7.13)"/><path class="cls-14" d="M1019.93,489.55a13.33,13.33,0,0,1,9.71-1.27c7.5,1.53,10.85,10.77,10.85,10.77a21.84,21.84,0,0,0-11.69-7.68,25.44,25.44,0,0,0-12,.72C1016.91,491.38,1018.42,490.36,1019.93,489.55Z"/><path class="cls-11" d="M1138.19,523a11.13,11.13,0,0,0,1.06-7.75,1.39,1.39,0,0,0-.83-1.09c-2.3-1.11-4.87-.09-6.64,1.54-2.41,2.23-3.85,5.43-5,8.44-.22.58.69.42,1,.27-.24.13,0,0,.11,0s.32-.15.49-.21a1.73,1.73,0,0,1,1.28-.08c.74.38.73,1.63.62,2.33-.36,2.47-2.62,3.45-4.9,3.43-.25,0-.69.07-.79.34s.08.43.35.43c2.91,0,6.27-1.25,6.57-4.56.11-1.12-.15-2.48-1.41-2.78a4.53,4.53,0,0,0-3.09.7l1,.26a24.72,24.72,0,0,1,4-7.39,6.42,6.42,0,0,1,3.43-2.31,3.84,3.84,0,0,1,2,.22c.17.07.32.2.49.26s.05.15-.06-.11l.15.37c.89,2.5.2,5.34-.89,7.65-.27.57.93.5,1.12.09Z"/><path class="cls-15" d="M1080,499.88a4.92,4.92,0,1,1-3.69-4.44A4.93,4.93,0,0,1,1080,499.88Z"/><path class="cls-14" d="M1063.12,502.14s5.48-9.77,16.5-8.27c9.38,1.29,12.32,6.39,14,9.55a27.81,27.81,0,0,0-14.2-6.79C1071.21,495.23,1063.12,502.14,1063.12,502.14Z"/><path class="cls-16" d="M1063.42,487.69c-.06-.16.5-.36.43-.52,8.18-4.89,14.87-7.13,17.48-7.41a17.54,17.54,0,0,1,6.08.5s5.62,1.31,6.54,2.24-3.07.33-3.07.33a14.86,14.86,0,0,0-2.21,0c-4.41.59-8.82.53-12.86,2.39-3.46,1.58-7.66,5.26-10.69,7.73C1064.45,491.15,1064.22,489.39,1063.42,487.69Z"/><path class="cls-16" d="M1042.07,484.82c.08-.16-.38-.38-.31-.53-6.52-5.27-12.1-7.86-14.37-8.29a14.29,14.29,0,0,0-5.44.12s-2.16-.15-3.11.7-.34,1.61-.34,1.61a12.8,12.8,0,0,1,2,.11c3.81.83,7.72,1,11,3.1,2.84,1.74,6,5.6,8.33,8.19C1040.66,488.14,1041.12,486.44,1042.07,484.82Z"/><path class="cls-16" d="M1047.66,524a13.51,13.51,0,0,1-5.18.39,15.82,15.82,0,0,1-4.8-1.1,5,5,0,0,1-2.62-2.65,3.2,3.2,0,0,1,.32-3.11,32.13,32.13,0,0,0,2.55-4.35c.2-.47-.71-.45-.86-.09a32.27,32.27,0,0,1-2.51,4.29,3.65,3.65,0,0,0-.47,3.34c1.08,3.08,4.56,3.87,7.44,4.24a15.35,15.35,0,0,0,6.29-.36c.55-.16.39-.77-.16-.6Z"/><path class="cls-16" d="M1056.77,519.71c1.4.11,1.25,2.43,1.09,3.37a2.58,2.58,0,0,1-.91,1.75,4.3,4.3,0,0,1-2.75.6c-1.34,0-2.44-1-3.67-1.4a.85.85,0,0,0-.64.1c-.1,0-.3.22-.1.29,1.28.42,2.39,1.35,3.77,1.43a7.23,7.23,0,0,0,3.5-.56,2.9,2.9,0,0,0,1.61-1.91,6.23,6.23,0,0,0,.13-2.43c-.13-.83-.55-1.6-1.46-1.66a.86.86,0,0,0-.64.17c-.12.11-.14.24.07.25Z"/><path class="cls-17" d="M1043.21,534c6.23.43,18.2,6.12,20.8,8.84,0,0-5.73,6.68-20.19,5.67s-15.07-9.73-15.07-9.73S1035.26,533.42,1043.21,534Z"/><path class="cls-18" d="M1059.84,538.85s-7.38-1.14-13.3-1.56-13.38-.3-13.38-.3-.62-4.68,10.1-3.93S1059.84,538.85,1059.84,538.85Z"/><path class="cls-19" d="M1043.66,547.32c6.84-.53,13-5.24,20.83-4.17,0,0-2.93,11.21-19.93,10s-15.81-14.41-15.81-14.41C1035.22,539.89,1037,545.84,1043.66,547.32Z"/><path class="cls-19" d="M1036.06,529.94c3.59,0,5.76,1.55,7.31,1.65s3.91-1.14,7.46-.62c3.33.5,16.59,12.37,14.93,13.37s-11.89-8.4-22.64-9.15-12.86,4.78-14.37,3.57S1032.7,530,1036.06,529.94Z"/><path class="cls-13" d="M1054.32,482.08s-6.83,7.5,2.91,9.39C1057.23,491.47,1051.09,490.06,1054.32,482.08Z"/><path class="cls-13" d="M1049.59,481.44s4.82,9.83-4.61,9.25c0,0,6.6.66,4.74-8.95"/><path class="cls-13" d="M972.31,708.31a22,22,0,0,1,5.32,17.06c0,.26,1.8.08,1.87-.5a22.26,22.26,0,0,0-5.43-17.21c-.32-.35-2.06.3-1.76.65Z"/><path class="cls-9" d="M381.84,279c-.64.8-7.38,5.28-10.89,5.56,1.78,8.12-3.07,30,2.55,36.39,10.63,12.11,35.81,47.36,51.6,50.28,14,2.59,50.46-6,40.1-44.19-2.32-10.22-4.45-12.24-4.31-13.9.43-5,15.61-32.81,15.61-32.81l-71.17-59.24S401,255.28,381.84,279Z"/><path class="cls-13" d="M462.88,308.84s-5.15-7-10.41-10.24-15.11-5.6-35-35.78a8.47,8.47,0,0,1-.19,2.09,26.2,26.2,0,0,0,.6,5.86c1.6,7.51,5.79,14.29,10.73,20.06a85,85,0,0,0,12.45,11.84,52.82,52.82,0,0,0,13.55,8.13,43.36,43.36,0,0,0,4.45,1.41c.38.09,2.21,1.14,2.31.81Z"/><path class="cls-9" d="M543.71,147c.08.13.18.26.28.4a4,4,0,0,1-.17-.7Zm13,8.07c.13.27.29.54.46.82l.09-.26S556.79,154.78,556.67,155.09Zm-141,107.27c8.16,18.3,26,40.65,47.06,47.52,7.54,2.45,16.65,4.88,23.55,2C493,309,498.31,304.4,504,300c5.11-4,10.58-7.44,15.39-11.88,10.76-9.93,21.07-16.34,24.28-37.62.7-4.7,1.86-10.61,3.76-14.75,2.19-4.77,10.67-24.5,15.29-35.7s.5-32,.5-32c.5-3.32-.36-6.09-1.1-9.17l-1.33-.51a1.41,1.41,0,0,1,.2,1.48,11.79,11.79,0,0,1-3.85-3.91c-2.36.15-4-1.52-5.1-3.69-.11.31,0,1,.32,1.18a7.19,7.19,0,0,1-4.64-3.86c-.11.3,0,1-.13,1.35a13.14,13.14,0,0,1-3.57-3.52c.15.51,8.12,2.2,8,2.41-2.11-.45-.08,1.08-1.17-1.08L549.64,147c-1.79-.32-2.1.71-3-1,.21.43.36-3.73.24-3.42-2-.76-1.41-.68-2.73-2.23-.11.3-6.21-.08-6.32.22-1.67-.63-1.81,1.07-2.68-.66.22.43,1.69-.83,1.91-.4-2.12-.45-3.36.55-4.44-1.61.21.43-5.33-5.86-5.33-5.86-2.12-.45-2,.31-3.22-1.55.44.87-9-4.07-8.92-3.33-1.67-.63.87,7.32-.12,5.89-.11.31-3.49-2.37-3.49-2.37-1.78-.33.14,2.15-.73.42-.11.31-.13,1.36.21,1.48-2.35.16-4.46-1.33-6-3.32.43.87.53,1.61.75,2-1.67-.64-3.12-.83-4.32-2.69-.12.3.2,1.48.54,1.6a7.06,7.06,0,0,1-5.11-2.63c-.11.3.32,1.17.53,1.6a5,5,0,0,1-3.76-2.13l.53,1.61c-1.33-.51-2.56-.28-4.33-1.65-.12.31.43.87.32,1.17a12.81,12.81,0,0,1-3.22-1.57c-.12.31.65,1.3.31,1.17-1.33-.5-2.56-.27-4-1.51.22.43.32,1.17.54,1.6-1.34-.51-2.79-.7-3.89-1.82a2.53,2.53,0,0,0,.2,1.48c-1.33-.51-2.56-.28-4-1.52-.11.3.32,1.17.54,1.6a18.5,18.5,0,0,1-4-1.52c-.11.31.44.87.66,1.3-1.34-.5-2.79-.7-4.22-1.95-.24.61,0,1-.13,1.35-1-.38-1.56-.94-2.56-1.31l-1.9,0c-7,4.36-14.43,25-14.43,25-13.47,4.34-23.86,19.67-25.73,25.61s-8.3,17.86-8.3,17.86c-.85-2.77-2.78-8.76-2.85-11.58-.19-2.53,1.52-5,1.33-7.55-1.14-6-8.4-7-13.22-5.37l-1,.78c-7.73,5-10.29,28.61-8.92,36.44-3.8,13.44,5.09,24.59,15.07,17.61l-.11,5.76"/><path class="cls-20" d="M563.14,181c-1.33-20.9-20.35-38.83-60.58-59.95s-79-18.18-79-18.18c42.5-53,103-27.78,116.69-22.6s64,85.14,22,126.48l-3.61,3.15S563.38,184.75,563.14,181Z"/><path class="cls-20" d="M417.44,86.17s9.28-39.77,41.72-42c43.35-3,96.54,8.59,99.86,54.32Z"/><path class="cls-21" d="M386.44,179.44c-1.89-4.24,2.25-12.68.94-17.14-6.87-23.31,4.23-39.4,13.47-48,4-3.72,3.85-13,5.6-16.93,9.13-20.65,11.8-20.39,51.35-30.16,32.2-8,59.57,3.33,75.26,10.25,25.13,11.08,35.82,17,37.9,38.55.27,2.82-1.09,3.28-1.19,6.51-.15,4.57,5.4,8.37,4.52,13.89,0,0-37.93.78-71.93,5.34S395.85,186.4,391.2,204.88C391.05,205.46,388.53,184.13,386.44,179.44Z"/><path class="cls-20" d="M386.67,141.85S474.24,90,527.35,109.54c0,0-80-31.74-128.59,5.76L397.31,117a49.79,49.79,0,0,0-8.91,15Z"/><path class="cls-22" d="M401.84,218.42c-3.33-.89-5.85,1.13-7.24,3.72-2.49,4.65,1.19,10.4,6.4,9.51.2,0,.4-.08.6-.13,0,0-7.39,4.15-11.09-1.23s.65-10.65,2.95-11.67C398.59,216.36,401.84,218.42,401.84,218.42Z"/><path class="cls-16" d="M430.29,171.31l-13.06,29.11-5.49-17.12S425,174.68,430.29,171.31Z"/><path class="cls-11" d="M410.36,196.25c-1.94-.71-4.53-.92-5.14,1.57-.5,2.09.11,4.32-.24,6.44a3,3,0,0,1-1.52,2.49c-1.15.43-2-1.76-2.29-2.53a13.21,13.21,0,0,1,.27-9.41c1.07-2.49,3-6.45,6.11-6.62.85,0,1.16-1.14.13-1.09-3.28.18-5.47,3.2-6.88,5.86a14.71,14.71,0,0,0-1.78,8.47c.2,2.39,1.58,7.89,5.11,6.2,2.44-1.17,2.54-4,2.49-6.35a11.4,11.4,0,0,1,.15-3.69c.42-1.27,1.76-.68,2.72-.33.63.23,1.76-.68.87-1Z"/><path class="cls-23" d="M499.06,256.29a9,9,0,0,1-7.92-3.61c-.39-.53-2.22-.85-1.69-.11,2.3,3.17,7.26,5.26,10.86,4.73.36-.06.4-.32.08-.58a2,2,0,0,0-1.33-.43"/><path class="cls-23" d="M488.72,251.5a14.55,14.55,0,0,0-4.5-3.22,1.14,1.14,0,0,0-.87,0c-.2.08-.3.25-.15.44a5.56,5.56,0,0,0,2.49,1.71,1.14,1.14,0,0,0,1,0c.24-.19,0-.46-.21-.55a4.34,4.34,0,0,1-2-1.38l-1,.41a13,13,0,0,1,4,2.9,1.07,1.07,0,0,0,1,.23c.22,0,.52-.24.3-.48"/><path class="cls-23" d="M481.77,249.13c-2-.82-4-2.65-4.41-4.65-.57-3,2.3-6.35,5.42-7,.34-.06.28-.34,0-.51a1.65,1.65,0,0,0-1.17-.17,8.22,8.22,0,0,0-5.9,5.59c-.5,2.26.87,4.49,3,6a11,11,0,0,0,2.12,1.18,1.46,1.46,0,0,0,1.14,0c.25-.2,0-.42-.27-.54"/><path class="cls-23" d="M503.18,256.6a.3.3,0,0,1,.41-.31,2.42,2.42,0,0,0,1.78,0l.27.9a7.2,7.2,0,0,0-3.63,0,.59.59,0,0,1-.61-.35c-.08-.17-.12-.49.13-.56"/><path class="cls-23" d="M501.53,256.33a8.16,8.16,0,0,1,4.05,0,.68.68,0,0,1,.44.46.33.33,0,0,1-.17.44"/><path class="cls-23" d="M507.27,258.47a4.43,4.43,0,0,0,4.51-1.28,7.06,7.06,0,0,0,1.05-7.5.28.28,0,0,1,.27-.42.81.81,0,0,1,.61.5,7.78,7.78,0,0,1-.09,6.68,5.24,5.24,0,0,1-4.65,3.11,4.71,4.71,0,0,1-1.59-.22c-.2-.07-.52-.3-.52-.59s.22-.34.41-.28"/><path class="cls-16" d="M538.76,223.22a5.56,5.56,0,0,1,5.11,3,5.38,5.38,0,0,1,.34,2.69,5.16,5.16,0,0,1-2.8,4,4.79,4.79,0,0,1-5.49-1.05,5.3,5.3,0,0,1-.25-6.68,4.67,4.67,0,0,1,3.09-1.88"/><path class="cls-16" d="M518.19,221.83s11.71-3.68,16.49-2.39c7,1.88,13.85,8.75,15,13,0,0-8.86-9.73-13.81-10.91C531.1,220.39,518.19,221.83,518.19,221.83Z"/><path class="cls-16" d="M483,202c-1.48-1.66-4.56-2.53-6.18-1.91a5,5,0,0,0-2.24,1.65,5.15,5.15,0,0,0-.52,4.82,4.78,4.78,0,0,0,4.8,2.85,5.3,5.3,0,0,0,4.62-4.83c0-.4.66-1-.54-2.31"/><path class="cls-16" d="M489.82,209.93s-7.73-10.33-12.68-12.38c-7.23-3-17.57-2-21.26.59,0,0,13.89-1.95,18.92.29C479.61,200.57,489.82,209.93,489.82,209.93Z"/><path class="cls-16" d="M556,217.06a2.17,2.17,0,0,1,.75-.17c.16-.39.3-.79.44-1.19a5.86,5.86,0,0,0,.14-.82l0-.22a17.77,17.77,0,0,0-3.36-4.4,20.16,20.16,0,0,0-6.6-3.69c-2.85-1-10.88-2.15-21.7-1.72l-.33,4.37c-.08,1.11-.17,2.22-.24,3.33,3.78-.64,7-1,9.44-1.21,5.14-.44,7.77-.65,10.68.08a28.62,28.62,0,0,1,6.58,2.66,17.75,17.75,0,0,1,3.39,2.17A10.9,10.9,0,0,1,556,217.06Z"/><path class="cls-16" d="M501.23,194.74l-3.47,2.67-2.66,2c-2-4.08-3.83-7.45-5.27-10-3.06-5.31-4.63-8-7.19-10.49a38,38,0,0,0-6.64-5.05,23.5,23.5,0,0,0-4.09-2.2c-3.26-1.24-5.63-.95-5.79-1.45s1.73-1,1.92-1a18,18,0,0,1,9.75.48,26.12,26.12,0,0,1,7.52,4.54c2.73,2.29,9.07,9.57,15.92,20.48"/><path class="cls-9" d="M219.84,887.16c-3.15-7.61-12.24-15.68-18.7-19.42s-14.29-.27-16.39.62c-15.61,6.61-23.69,19.53-36,30.65a156.27,156.27,0,0,1-31.1,21.88c-11.4,6.1-23.8,9.19-35.34,14.7l-.25.12a27.34,27.34,0,0,0-13,13.12c-1,2.1-2,4.16-3.08,6.11-1.52,2.7-3.16,4.72-1.58,7.91,2.93,5.88,12.77-.84,15.65-2.07a3.48,3.48,0,0,1,1.69-.26c2.31.21,9.13.45,20.63-2a32.58,32.58,0,0,1,3.27-.52h0c6.11-1,33.64-2.24,38.58-2.72C154,954.29,183.8,948,183.8,948c3.41-.47,45.15-16.55,61.77-6.33l6.34-38.69S223,894.77,219.84,887.16Z"/><path class="cls-9" d="M270,829.9c-3.15-7.61-12.24-15.68-18.7-19.42s-14.29-.27-16.39.62c-15.61,6.61-23.69,19.53-36,30.65a156.27,156.27,0,0,1-31.1,21.88c-11.4,6.1-23.8,9.19-35.34,14.7l-.25.12a27.34,27.34,0,0,0-13,13.12c-1,2.1-2,4.16-3.08,6.11-1.52,2.71-3.16,4.72-1.58,7.91,2.93,5.88,12.77-.84,15.65-2.07a3.48,3.48,0,0,1,1.69-.26c2.31.21,9.13.45,20.63-2a32.58,32.58,0,0,1,3.27-.52c0,.07,0-.06,0,0,6.11-1,33.64-2.23,38.59-2.72C204.16,897,234,890.7,234,890.7c3.41-.47,45.61-11.46,62.24-1.24l5.87-43.78S273.16,837.51,270,829.9Z"/><path class="cls-9" d="M188.9,726.76c1,35-8.68,110.48,99.51,115.74l-49.34-10.8L239,916.77s322.05-2.1,331.52-2.23c18.23-.2,59.94-22.78,50.19-77-8.83-49.16-38.93-68.56-52.58-78.58s-219.54-90.34-277.4-99l-86,47.29Z"/><path class="cls-9" d="M168.92,770.69c6.29,34.42,24.63,72.51,67.73,89.76l-7.47,15.11c-13.8,27.92-25.35,30.34-17.47,60.47l5.17,1S496,977.91,541.06,962.31c18-3,57.07-32.61,55.36-87.73s-48.95-61.81-64-69.62-172.18-32.32-230.7-32.07L235.58,730Z"/><path class="cls-24" d="M183,617.11c.31-1.17,1.8-2.9,2-4.24,2.51-1.69.79.77,6.37-3.34a240.94,240.94,0,0,0,26.49,7.75c21.89,5,44.65,6,67,5.45,24.47-.55,48.84-3.05,73.19-5.4,21.08-2,42.2-4,63.37-4.47L425,657.41,592.21,772s53.6,41,2.16,86.38c-38.62,34.09-148.51,51-148.51,51-1,1.89-27.24-3.34-42.61-5.47-19.07-4.26-139.91-29.69-151-31.88-54.9-10.83-109.41-51-114.4-108.11-2.74-31.22,2-70.2,15.57-98.58C160,651.58,179.2,631.79,183,617.11Z"/><path class="cls-25" d="M495.25,498.07c-1.6,43.77-8.4,56-19.1,64.42-13.69,10.82-23.06,2.39-30.9,11.93-15.51,18.86-6.78,57.07-5.57,90,0,0-82.71,10.06-139.36.84S176.78,618.9,176.78,618.9c33.12-44.78,54-69.36,54-69.36l8.36-95.76,5.52-71.35c6-50.39,39.24-77.09,70.87-83.92l54.94-16s13.11,65.64,61.22,70.54,28-39,28-39,33.18,31,42.11,42.55,6.91,21.29,17.74,75.52c6.33,31.7,12.59,55.58,14,61.3s-39,19.07-39,19.07"/><path class="cls-13" d="M592.45,909.55c4.73-13.66,8-28.36,6.41-42.88a59,59,0,0,0-1.75-9c-.19-.67-2.05-.17-1.87.5,3.41,12.26,2.38,25.22-.5,37.47a142.94,142.94,0,0,1-4.16,14.18c-.23.65,1.65.42,1.87-.22Z"/><path class="cls-13" d="M145.32,902.67,157.26,894l5.5-4a56.93,56.93,0,0,0,7.08-6.81c6.45-6.77,12.61-14.15,20.45-19.4,5.3-3.55,11.32-5.71,17.73-4.8a37.3,37.3,0,0,1,19.42,8.53c3.37,3,5.55,6.93,8.84,10,1.3,1.22,2.66,2.38,4.05,3.5a4.63,4.63,0,0,0,1.51.9,24.9,24.9,0,0,0,5.13,1c2.67.34,5.34.53,8,.69,6.81.41,13.63.54,20.44.61q15.69.16,31.37-.19h.54c.37,0,1.07-.06,1.32-.35s.36-.41-.1-.4c-9.05.21-18.11.27-27.17.23-7.16,0-14.33-.13-21.48-.45-5.05-.22-10.32-.32-15.26-1.48-1.84-.44-2.89-1.41-4.33-2.65a48.61,48.61,0,0,1-4.54-4.31c-1.53-1.68-2.66-3.65-4.18-5.35-5.21-5.8-12.62-9.25-20.19-10.68a27.47,27.47,0,0,0-16,1.6c-8.6,3.56-15.36,10.49-21.64,17.15-4.6,4.87-9,10.08-14.42,14L145,901.83l-1.09.79c-.74.54,1.1.28,1.43,0Z"/><path class="cls-26" d="M503.64,450.64c-5.68,4.91-8.07,12.36-8.4,19.68-.38,8.24-.14,16.51-.47,24.76-.21,5.36-.6,10.71-1.3,16-.22,1.7,3,1.32,3.24-.2a226.14,226.14,0,0,0,1.55-26.4c.05-3.85.06-7.69.14-11.53a41.1,41.1,0,0,1,1.27-10.59,20.8,20.8,0,0,1,6.11-10.17c1.64-1.41-.87-2.68-2.14-1.58Z"/><path class="cls-9" d="M263.9,360.16c4.45-37.44,39.14-44.82,64.56-34,12.87,5.48,9.68,32.7,9.68,32.7,12.47,51,15.49,189.22,15.48,216.21-4.81,1.21-10.13-1.56-14.57.65-15.56,7.75-23.16,1.45-32.78,15.83-4.77,7.14-8.73,26.24-11.31,34.55-15.53-18.47-18.89-57.21-22.25-80.1-5.06-34.46-6.36-69.2-8.09-103.92C263.27,415.16,260.7,387,263.9,360.16Z"/><path class="cls-25" d="M339.27,306.47s-67.51,8.43-81.93,43.29S249,452.87,249,452.87s73.71,5.88,110.86-5.91S339.27,306.47,339.27,306.47Z"/><path class="cls-26" d="M303.82,318.66c9.64-.84,19.61,3.74,27.21,9.32a38.09,38.09,0,0,1,9.4,9.51,119.32,119.32,0,0,1,8.22,14.63c8.74,18.43,11.91,38.51,13.45,58.68.93,12.23,1.43,24.49,2.33,36.72l.91-1-11.19,2.16c-1.36.26-1,1.59.36,1.34l11.19-2.16a1,1,0,0,0,.91-1c-1.59-21.55-1.68-43.4-5.86-64.66A130.94,130.94,0,0,0,351.5,353a125.87,125.87,0,0,0-7.91-14.58A40.68,40.68,0,0,0,334.33,328c-8.26-6.59-19.49-11.75-30.27-10.82-1.16.11-1.73,1.58-.24,1.45Z"/><path class="cls-9" d="M336.87,637.75s-16.3,8.91-38.05-7.7-7.72-65.51-1.32-86.24c6.58-21.26,58.06,33.28,58.06,33.28Z"/><path class="cls-26" d="M267.29,453.14a50.14,50.14,0,0,1-5.88.14c-.91,0-1.82,0-2.74.05-1.22.06-3.38.74-3.87-.83-.35-1.14.12-2.71.24-3.85.17-1.7.3-3.41.38-5.12.16-3.24.17-6.48.11-9.73-.24-12.58-1.19-25.15-1.44-37.73a92.28,92.28,0,0,1,1.76-21.5c.1-.46-2-.15-2.14.39-2.8,12.83-1.53,25.88-1.16,38.87.2,6.69.65,13.38.8,20.07.07,3.4.06,6.81-.1,10.22-.08,1.62-.2,3.25-.36,4.87-.13,1.28-.74,3.16-.16,4.39.5,1.05,1.76,1.05,2.76,1,1.35-.09,2.69-.22,4-.21,2.29,0,4.53.06,6.82-.14.34,0,1.3-.16,1.46-.52s-.14-.38-.52-.35Z"/><path class="cls-9" d="M1179.15,812.12c-.88,22,4.37,69.68-61.57,72.26l30.14-6.47-.63,53.61s-185.22-2.66-191-2.8c-11.1-.26-37.19-15.24-40.83-49.78S939.55,836,948,829.78s101.11-35.57,136.42-40.65l85.32,10.53Z"/><path class="cls-9" d="M1162.09,899.85c2.17-4.69,8.06-9.52,12.2-11.7s9,.18,10.25.79c9.61,4.53,14.36,12.83,21.78,20.1a98,98,0,0,0,18.94,14.47c7,4.11,14.68,6.35,21.77,10.08l.15.08a17.18,17.18,0,0,1,7.82,8.55c.56,1.34,1.14,2.66,1.77,3.9.89,1.73,1.87,3,.8,5-2,3.61-8,1.07-9.83.23a2.24,2.24,0,0,0-1-.2c-1.45.07-5.73.06-12.87-1.8a19.31,19.31,0,0,0-2-.4l0,.12c-3.8-.76-20.64-2-23.73-2.42-6.08-.83-24.84-7.82-24.84-7.82s-24.76-4.44-33.09.23l-8.46-30.12S1159.93,904.54,1162.09,899.85Z"/><path class="cls-9" d="M1188.35,839.67c-.88,22,4.37,69.68-61.57,72.25l30.15-6.46,2.47,32.41S993.83,962,965.3,956.27c-11.09-.26-37.19-15.24-40.83-49.78s24.28-42.94,32.68-49.16,101.11-35.57,136.42-40.65l85.32,10.53Z"/><path class="cls-13" d="M924.76,906.75c-1-9.84.48-19.9,6.13-28.2,4.09-6,9.93-10.51,16.11-14.22,2.41-1.44,4.89-2.77,7.32-4.19,1.38-.8,2.92-1.95,4.09-2.58a100.11,100.11,0,0,1,12.67-5.27c15.94-5.91,32.21-11,48.49-15.85,18.09-5.42,36.3-10.55,54.72-14.75,3.74-.85,7.49-1.66,11.26-2.39,1.62-.31,3.24-.61,4.87-.88a25.15,25.15,0,0,1,3.25-.53,20.1,20.1,0,0,1,2.56.31l6,.74,42.16,5.18,33.74,4.15a5.28,5.28,0,0,0,1.12.14s.19,0,.19,0c-.13.25-.8-.61-.18.2l5.93,7.76L1188,840a2.9,2.9,0,0,1,.46.6c-.15-.38-.09.26-.1.43s0,.59,0,.89c-.07,2.46-.09,4.93-.14,7.4-.22,11.9-1.18,24.17-6.54,35a43.15,43.15,0,0,1-12.91,15.56c-7.17,5.32-15.74,8.36-24.43,10.07a109.42,109.42,0,0,1-16.83,1.85l.07,1.25,26.53-5.65,3.8-.81c1.17-.25.83-1.45-.32-1.2L1131,911.08l-3.81.81c-1,.2-1,1.29.07,1.25,18-.73,37.89-5,50.1-19.39,8.42-10,11.46-22.9,12.32-35.61.37-5.35.35-10.7.48-16a4.24,4.24,0,0,0-.24-2.53c-.73-1.11-1.63-2.14-2.44-3.19l-6.31-8.26a2.31,2.31,0,0,0-2-1.08l-4.51-.55-17.53-2.16-45.59-5.61-14.79-1.81c-.81-.1-1.66-.29-2.49-.31a20.14,20.14,0,0,0-3.69.53q-2.58.43-5.15.93c-17.82,3.43-35.4,8.26-52.84,13.26-17.91,5.14-35.74,10.61-53.34,16.73-5.86,2-11.72,4.1-17.43,6.52a44.64,44.64,0,0,0-4.69,2.22c-1.64.93-3.15,2.06-4.79,3C946.68,863,941,866.17,936,870.55a39.13,39.13,0,0,0-12.51,21,50,50,0,0,0-.63,15.68c.08.8,2,.36,1.87-.5Z"/><path class="cls-27" d="M1019.46,745.81c-1.85-19.94-3.47-27.77-5.22-47.67,8.22,1.24,16.47,2.38,24.73,3.34,12.19,1.43,24.42,2.54,36.68,3.22a282.76,282.76,0,0,0,33.32.18c10.85-.66,21.67-1.73,32.53-2.11,9.26-.33,11.37-3,20.49-1.3-2.49,16.33,8.65,37.38,10.15,45.83l9.4,20.64,10.08,20.8c3.51,9.21,7.49,33.42,8.21,43.22,7.85,107.54-113.23,81-113.23,81s-17.44-29.19-21.33-36.29L1056.75,863c-3.26.23-13.89-21-23.31-30.2C1013.26,813.14,976,807.75,976,807.75l50.74-32.83Z"/><path class="cls-28" d="M1008,640.72c2.36-14.7,3.18-20,10.21-33.31,4.51-8.56,15.63-24.18,25.11-26.08-3.59,6-12,17.52-.66,20.94,21.19,6.83,48-8.14,66.44-27.1l14.47,6.5c40.13,19.84,40.1,67.38,40.71,83,.38,10,5.45,37,3.45,64.5-9.26-.39-16.6.91-25.66,2.6-11.61,2.15-23,5.16-34.55,7.64-5.55,1.19-11.13,2.27-16.76,3a139.18,139.18,0,0,1-17.08,1c-12.43.11-24.88.22-37.3-.53a189.74,189.74,0,0,1-19.58-2.07c-1.52-9-5.41-14.23-7.44-25.21C1005.67,691.31,1004.06,665.46,1008,640.72Z"/><path class="cls-27" d="M1027.73,908.59c1.86,1.59,1,4.87-1,6.23s-3.39,3.12-5.83,3.07l-25.24-.61c-2,0-5.18-1.89-7-2.61-5.08-2-6.72-8.44-6.71-13.92s.9-11.32-1.66-16.16c-4.15-7.86-14.65-8.9-23.13-11.57a13,13,0,0,1-5.47-2.92c-4.55-4.58-1.65-12.28-2.55-18.67a15.49,15.49,0,0,0-13.45-12.9c-1.77-.17-3.82-.15-4.94-1.53-1.91-2.36.9-5.59,3.48-7.2,14.43-9,29-20.2,45.64-24.51,10.82-2.81,26.45-17,37.27-19.78,0,0,42.11,31.4,66.67,60.78s31.73,70.28,31.73,70.28c-21.11.44-74.11.61-100.15,1-.49-10.27-5.86-19-12.79-26.83-4.91-10.16-14.38-18.81-22-26.52-6.34-6.4-12.75-12.52-19.33-18.41-6.42-7.57-13.36-14.68-21.55-19.59a116.61,116.61,0,0,1,13.28-8.3"/><path class="cls-29" d="M1168.36,717.53s2.44,25.7,4.53,30.33c0,0-41.56,18.11-74.2,21.81s-74.27,3.25-74.27,3.25l-7.58-32s40.28,4.3,82.1-2.34S1168.36,717.53,1168.36,717.53Z"/><rect class="cls-30" x="657.05" y="936.47" width="76.48" height="41.98"/><polygon class="cls-31" points="657.05 978.45 637.48 970.48 637.48 928.5 657.05 936.47 657.05 978.45"/><polygon class="cls-32" points="733.53 936.47 713.96 928.5 637.48 928.5 657.05 936.47 733.53 936.47"/><rect class="cls-30" x="854.94" y="948.38" width="46.84" height="41.98"/><polygon class="cls-31" points="854.95 990.36 842.96 982.39 842.96 940.41 854.95 948.38 854.95 990.36"/><polygon class="cls-32" points="901.78 948.38 889.8 940.41 842.96 940.41 854.95 948.38 901.78 948.38"/><rect class="cls-30" x="776.55" y="825.95" width="46.84" height="41.98"/><polygon class="cls-31" points="776.55 867.93 764.57 859.96 764.57 817.98 776.55 825.95 776.55 867.93"/><polygon class="cls-32" points="823.39 825.95 811.4 817.98 764.57 817.98 776.55 825.95 823.39 825.95"/><path class="cls-9" d="M317.6,644.27c-6.21-4.52-13.58-9.12-17.73-15.21.33-1,.35-1,.74-2.07,5.71-15,16-28.38,28.38-38.52,8.55-7,13.11-15,24-17.61,0,2.18,5.5,5.4,5.5,5.4l154.41,94.23-1.56,36.35C445,694,383.14,675.33,322.06,646.41Z"/><path class="cls-13" d="M316.84,595.59c1.9-5.93,4.91-11.63,10-15.46,4.42-3.36,9.85-4.85,15.28-5.6a102.55,102.55,0,0,1,10.52-.79c.58,0,2-.93.77-.88-12,.42-25.47,1.88-33.17,12.34A36.91,36.91,0,0,0,315,595.88c-.16.49,1.68.25,1.85-.29Z"/><path class="cls-13" d="M538.75,558.48c-5.14-1.19-10.58.62-14.64,3.83-4.39,3.48-7.13,8.57-9.26,13.64-.24.55,1.68.34,1.94-.27,3.45-8.2,10.32-18.61,20.75-16.21.57.14,2.28-.75,1.21-1Z"/><path class="cls-9" d="M855.08,687.84c1.53,1,27,22.09,27,22.09L879,721.63l-7.79,8.88a12.93,12.93,0,0,1-14.09,3.66l-11.21-4c-2.17,1.8-6.7-2-6.7-2,4.72,4.11,0,9,0,9l-5.31-2.62-2.68.33-6.69-5.16-3.43-7.89,2.43-8.11,9-3.12.34-.86-8.94.9a57.59,57.59,0,0,1-5.22,10.3,3.93,3.93,0,0,1-.8,1.1,4.15,4.15,0,0,1-5.87,0l1-13.24-2.15-1.19,5.61-15.05,7.86-6.22a5.84,5.84,0,0,1,4-1.23c5.59.32,19.63,1.22,19.91,1.38A24.44,24.44,0,0,1,855.08,687.84Z"/><path class="cls-33" d="M833.45,710.05a19.65,19.65,0,0,0,.94,2.6,12,12,0,0,1,.28,6.35l-.08.41.36.22.35.24a8.86,8.86,0,0,1,3.63,5.35c.3,1.69.21,2.85.39,2.83"/><path class="cls-33" d="M826.55,715.63c-.06.16.91.42,2,1.45a5.48,5.48,0,0,1,1.46,5.38l0,.31.22.23c.57.6,1.16,1.21,1.71,1.86a6.85,6.85,0,0,1,1.18,9.79"/><path class="cls-33" d="M834.6,719.5c-.2-.25-1.25.22-2.37,1.06s-1.91,1.71-1.68,2"/><path class="cls-33" d="M839.24,728.19c.32,0-.77-1.68-2.45-3.41s-3.7-1.16-3.78-.84"/><path class="cls-33" d="M844.19,729a19.77,19.77,0,0,0,2.6-9.9,19.54,19.54,0,0,0-1.7-10.06"/><path class="cls-33" d="M763.12,708.35c0,.13.86.49,2.27.19a7.93,7.93,0,0,0,4.46-3,14.72,14.72,0,0,0,2.25-4.81c.37-1.29.45-2.17.29-2.16"/><path class="cls-33" d="M833.13,708.09c.2.26,1.13-.2,1.67-1.28s.41-2.09.07-2.13"/><rect class="cls-30" x="774.61" y="687.02" width="71.04" height="41.98" transform="translate(-56.13 69.9) rotate(-4.78)"/><polygon class="cls-31" points="776.48 731.88 757.7 725.45 754.21 683.62 772.98 690.05 776.48 731.88"/><polygon class="cls-32" points="843.77 684.13 825 677.7 754.21 683.62 772.98 690.05 843.77 684.13"/><path class="cls-9" d="M839.53,704.38l7.45,2.44s8.48,13.26,15.26,19,24.94-10.24,24.94-10.24L860,696.07,839.24,692l-17.83,2.34C815.88,706.29,839.53,704.38,839.53,704.38Z"/><path class="cls-33" d="M874.69,706.58a3.54,3.54,0,0,0-1.16-1.19c-.76-.56-1.7-1.29-2.84-2.17l-10.58-7.83h0l-20.76-4.19h-.18l-17.83,2.3-.51,0-.13.28-.11.32a8.23,8.23,0,0,0-.79,3.52,5.18,5.18,0,0,0,1.41,3.35,11.84,11.84,0,0,0,6,2.92,43.45,43.45,0,0,0,12.15.67l-.2,0,6,1.91,1.26.28A122.73,122.73,0,0,0,857.14,721a46.63,46.63,0,0,0,3.51,3.52,8.39,8.39,0,0,0,1.4,1.05"/><rect class="cls-3" x="780.3" y="784.22" width="46.09" height="41.98"/><polygon class="cls-4" points="780.29 826.2 768.5 818.23 768.5 776.25 780.29 784.22 780.29 826.2"/><polygon class="cls-5" points="826.38 784.22 814.59 776.25 768.5 776.25 780.29 784.22 826.38 784.22"/><rect class="cls-6" x="764.6" y="740.22" width="76.48" height="41.98"/><polygon class="cls-7" points="764.6 782.2 745.03 774.23 745.03 732.25 764.6 740.22 764.6 782.2"/><polygon class="cls-8" points="841.08 740.22 821.51 732.25 745.03 732.25 764.6 740.22 841.08 740.22"/><path class="cls-34" d="M487.36,266.44c-7.89-3.15-27.36-5-32.16-3.12,0,0,6.38,10.22,24.69,17.51s22.3.12,22.3.12S497.42,270.44,487.36,266.44Z"/><path class="cls-18" d="M464.08,262.68s9.72,2.94,17.21,5.92,16.56,7.53,16.56,7.53,3.57-5.46-10-10.87S464.08,262.68,464.08,262.68Z"/><path class="cls-19" d="M480.69,281.27c-8.06-4.71-15.23-14.63-25.49-17.95,0,0-2.29,16.35,19.23,24.92S502.19,281,502.19,281C492.46,276.31,489.78,283.39,480.69,281.27Z"/><path class="cls-19" d="M498.53,265.63c-4.38-2.16-8-1.48-9.94-2.26s-4.11-3.75-8.77-5.19c-4.37-1.36-26.67,2.5-25.23,4.72s18.54-.31,32.15,5.11,12.88,13.57,15.45,12.94S502.63,267.65,498.53,265.63Z"/><path class="cls-13" d="M521,192.67s-12.7,7.58-2.69,13.52C518.31,206.19,512.15,202.16,521,192.67Z"/><path class="cls-13" d="M514.87,189.26S516.14,206,503,199.82c0,0,9,4.69,11.85-10.06"/><path class="cls-9" d="M611.12,742.54c-2.66-5.54-66-67.93-66-67.93a166.12,166.12,0,0,1,26.95,2.63c13.67,2.57,19.5-1.89,18.19-9.09-.93-5.16-18.77-10.63-29-9.45-7.86.91-21.83-8.59-35.94-9.34s-28.73,10.89-28.73,10.89c-1.7.12-4.2.2-6.86.25l-.95-.2c-.56,2.38-1.08,4.78-1.47,7.21-2,12.41-11.58,19-9.23,31.81l26.67,9s12.87,14.19,26.93,19.33c24.42,9.89,32.68,10.11,34.4,6.74l14.14,7.74a21.68,21.68,0,0,0,7.2,2.43l7.8,1.17s10.7,12.63,15,9.81S613.79,748.08,611.12,742.54Z"/><path class="cls-10" d="M595,744q-10.08-7.57-19.54-16a157.8,157.8,0,0,1-13.85-13.52c-.27-.31-1.81.27-1.55.57a157.69,157.69,0,0,0,13.85,13.51q9.45,8.39,19.54,16c.37.28,1.81-.37,1.55-.56Z"/><path class="cls-10" d="M565.28,733.72l-17.55-12.15-2.52-1.74c-.41-.29-1.87.36-1.54.59l17.56,12.16,2.51,1.74c.42.29,1.87-.37,1.54-.6Z"/><rect class="cls-3" x="897.12" y="739.66" width="41.98" height="47.5" transform="translate(-197.49 1189.06) rotate(-60.63)"/><polygon class="cls-4" points="887.11 770.06 880.43 757.15 901.02 720.57 907.71 733.47 887.11 770.06"/><polygon class="cls-5" points="949.1 756.77 942.42 743.87 901.02 720.57 907.71 733.47 949.1 756.77"/><path class="cls-9" d="M1068.06,740.85s15.8-66,22.06-96.21l51.05,9.25,1.22,6.48c-8.08,33.36-15.35,99.27-40.54,119.54-31.16,25.06-136.27-.25-136.27-.25l-2.75-24.9Z"/><path class="cls-13" d="M1067.61,739.61a15,15,0,0,1,8.42,17c-.08.32,1.73.09,1.84-.35a15.2,15.2,0,0,0-8.49-17.3,1.85,1.85,0,0,0-1.2.13c-.07,0-.83.37-.57.48Z"/><path class="cls-9" d="M1000.66,751.9l-16.43,13.69-.15,12.47s-21.26,10.58-27.51,10.69S935.7,791,935.7,791a9,9,0,0,1,.93,5.83,8.79,8.79,0,0,1-3.89,5.45L925.3,793c-1.29,5-5.67,1.95-5.67,1.95l-5.56-8.34c-1.34,6.21-7.13,2.45-7.13,2.45L903,776.82a20,20,0,0,1-5,5.82c-2.62,1.74-4-3.12-4-3.12l8.43-21,27.16-12.6,49.13,6.52Z"/><path class="cls-13" d="M943.67,747.86l26.65,3.54c3,.4,6.17,1.1,9.24,1A109.84,109.84,0,0,0,990.69,751l14.15-1.87c.82-.11,1.61-1,.3-.85l-11.68,1.54c-4.2.56-8.41,1.27-12.62,1.67-.08,0-.19,0,.14,0h-.65l-.94,0c-.31,0,0,0,0,0-.33,0-.66-.09-1-.13l-5.34-.71L956.3,748.5,944.85,747c-.49-.07-2.17.75-1.18.88Z"/><path class="cls-13" d="M925.42,754.14c-3-1-5.67.23-8.32,1.63a68.89,68.89,0,0,0-8.74,5.49,37.5,37.5,0,0,0-3.66,3,11.38,11.38,0,0,0-3,3.57c-.61,1.48-.32,3.07-.21,4.62a15.65,15.65,0,0,0,1.1,5.32c.14.35,1.44-.08,1.32-.35a13.72,13.72,0,0,1-1-4.27,19,19,0,0,1-.15-4.52,6.47,6.47,0,0,1,2-3.32,33.87,33.87,0,0,1,3.32-3,72.21,72.21,0,0,1,7-4.74c2.69-1.65,6-4,9.2-2.88.32.1,1.51-.4,1.09-.54Z"/><path class="cls-13" d="M929.56,762.62c-2.75,1.34-5.33,3-8.08,4.33a55.19,55.19,0,0,0-8,4.45,5.73,5.73,0,0,0-2.36,3,17.23,17.23,0,0,0-.78,4.67,12.71,12.71,0,0,0,2.92,8c.24.3,1.4-.26,1.32-.35a13,13,0,0,1-2.9-7.14,16.38,16.38,0,0,1,.56-4.83,5.85,5.85,0,0,1,2.77-3.73,84.61,84.61,0,0,1,7.95-4.31c2.52-1.24,4.87-2.76,7.39-4,.78-.38-.45-.28-.75-.14Z"/><path class="cls-13" d="M935.52,777.92a32.54,32.54,0,0,0-4.48.88c-1.26.31-2.57.55-3.81,1-2.05.65-4.26,1.73-5.45,3.6a6.21,6.21,0,0,0-.13,6.34A10.2,10.2,0,0,0,924,792.5c.38.32.86.78,1.4.76.22,0,.79-.09.88-.33s-.08-.29-.33-.29c.31,0,.14,0-.06-.13a5.59,5.59,0,0,1-.71-.55,10.28,10.28,0,0,1-2-2.31,6.15,6.15,0,0,1-.48-5.76c1.43-3.1,5.08-3.75,8.08-4.48a31.76,31.76,0,0,1,4.21-.87c.22,0,.79-.08.88-.33s-.07-.31-.33-.29Z"/><path class="cls-28" d="M1069.62,677.76c-4.59-4.07-3.68-11.34-2.39-17.34,3.25-15.15,6.55-30.44,13.07-44.5,5-10.79,12.14-20.9,21.44-28.19.17,1.87,1.68,3.56,3.93,2.72,8.59-3.21,14.31-9.13,22.27-5.2.14.07,14.36,10.29,14.5,10.34,5.55,7.19-.79,14.11,2.41,22.7,8.09,21.73,13.45,45.14,10.05,68.07l-2.51,2.33c-24.61,8.92-51.76.52-76.57-7.86A17.66,17.66,0,0,1,1069.62,677.76Z"/><path class="cls-27" d="M1078.76,682.61l-3.51-2c-.41-.22-.35-.18-.55-.56-.7-1.28-.64-3.22-.62-4.63a48.89,48.89,0,0,1,.43-5.41c.43-3.63.61-7.25,1-10.88.39-4.1,1-8.18,1.72-12.23,1-5.56,2.45-11,3.82-16.47,1.78-7.11,2.71-14.46,7-20.63,4.88-7.08,12.67-12.9,21.45-13.54.53,0,2-.89.8-.8a31.6,31.6,0,0,0-19.83,9.54,33.13,33.13,0,0,0-6.79,9.55,52.55,52.55,0,0,0-3.18,10.64c-1.34,6.1-3.06,12.11-4.35,18.22q-1.21,5.81-2,11.69c-.53,4.17-.66,8.36-1.12,12.53-.42,3.83-1.31,8-.48,11.78a2.73,2.73,0,0,0,.76,1.72,27.25,27.25,0,0,0,3.74,2.08c.49.27,2-.49,1.76-.65Z"/><path class="cls-27" d="M1135.22,693.53a30.32,30.32,0,0,0,5,0c.61-.06,1.22-.09,1.84-.12.85,0,1.71.17,2.56.08a2.65,2.65,0,0,0,2.3-2c.48-1.47.75-3,1.24-4.46q.95-2.85,1.87-5.71,1.71-5.31,3.26-10.66c3.34-11.63,6.23-23.82,5.51-36a53.32,53.32,0,0,0-3.66-16.62c-.33-.83-2.19-.3-1.87.5,3.78,9.45,4.37,19.56,3.11,29.58-1.65,13.07-5.71,25.79-9.85,38.25-.5,1.5-.91,3-1.29,4.49-.24,1-.34,1.35-1.41,1.26a16.46,16.46,0,0,0-2.53,0,38.62,38.62,0,0,1-5.38,0c-.9-.06-1.91,1.26-.65,1.35Z"/></g></svg>