<svg xmlns="http://www.w3.org/2000/svg" viewBox="0 0 1303.15 1057.31"><defs><style>.cls-1{fill:#f2ead4;}.cls-2{fill:#a86e57;}.cls-3{fill:#502e27;}.cls-4{fill:#b45d32;}.cls-5{fill:#e28a3d;}.cls-6{fill:#d08c3e;}.cls-7{fill:#13110f;}.cls-8{fill:#231f20;}.cls-9{fill:#010101;}.cls-10{fill:#663b2c;}.cls-11{fill:#251710;}.cls-12{fill:#f1eef6;}.cls-13{fill:#6f9991;}.cls-14{fill:#142b30;}.cls-15{fill:#ae3831;}.cls-16{fill:#681b12;}.cls-17,.cls-18{fill:#151210;}.cls-17{stroke:#231f20;stroke-width:0.88px;}.cls-17,.cls-33{stroke-miterlimit:10;}.cls-19{fill:#1d1710;}.cls-20{fill:#0f0a09;}.cls-21{fill:#512a5f;}.cls-22{fill:#c3a5cb;}.cls-23{fill:#331741;}.cls-24{fill:#b23a2b;}.cls-25{fill:#43221c;}.cls-26{fill:#7a2f26;}.cls-27{fill:#4679b7;}.cls-28{fill:#192940;}.cls-29{fill:#3b6d9f;}.cls-30{fill:#f68d3b;}.cls-31{fill:#b0532f;}.cls-32{fill:#d57138;}.cls-33{fill:none;stroke:#502e27;}</style></defs><g id="Layer_1" data-name="Layer 1"><polyline class="cls-1" points="-12.74 1062.88 -12.74 -32.86 1320.29 -32.86 1320.29 1062.88"/><path class="cls-2" d="M518.83,439.52C506.19,396.85,559,584.09,559,584.09L734.18,592c-4.71,11.77,5.36,18,8.29,34.75,0,0-133.67,30.67-151.79,33.9-88.12,15.7-104-30.22-119.66-76.32-5.22-15.4-32.93-93.42-21.16-102.82C452.55,479.32,519.36,440,518.83,439.52Z"/><path class="cls-2" d="M1016.54,668.9c-17.8,29.34-44.7,90-74.84,101.64C904.42,785,811.91,729,811.91,729l4.92-24.57,104.5,18.62s50.54-83.77,56.43-96.76c0,0,20.7-59.62,48.58-37.39"/><path class="cls-3" d="M921.78,723.76a21.92,21.92,0,0,1,12.46,12.66c.17.45,2-.12,1.86-.5A22.29,22.29,0,0,0,923.3,723a1.92,1.92,0,0,0-1.3.24c-.2.1-.61.35-.22.5Z"/><path class="cls-2" d="M384.84,289c-.64.8-7.38,5.28-10.89,5.56,1.78,8.12-3.07,30,2.55,36.39,10.63,12.11,35.81,47.36,51.6,50.28,14,2.59,50.46-6,40.1-44.19-2.32-10.22-4.45-12.24-4.31-13.9.43-5,15.61-32.81,15.61-32.81l-71.17-59.24S404,265.28,384.84,289Z"/><path class="cls-3" d="M465.88,318.84s-5.15-7-10.41-10.24-15.11-5.6-35-35.78a8.47,8.47,0,0,1-.19,2.09,26.2,26.2,0,0,0,.6,5.86c1.6,7.51,5.79,14.29,10.73,20.06a85,85,0,0,0,12.45,11.84,52.82,52.82,0,0,0,13.55,8.13,43.36,43.36,0,0,0,4.45,1.41c.38.09,2.21,1.14,2.31.81Z"/><path class="cls-2" d="M546.71,157c.08.13.18.26.28.4a4,4,0,0,1-.17-.7Zm13,8.07c.13.27.29.54.46.82l.09-.26S559.79,164.78,559.67,165.09Zm-141,107.27c8.16,18.3,26,40.65,47.06,47.52,7.54,2.45,16.65,4.88,23.55,2C496,319,501.31,314.4,507,310c5.11-4,10.58-7.44,15.39-11.88,10.76-9.93,21.07-16.34,24.28-37.62.7-4.7,1.86-10.61,3.76-14.75,2.19-4.77,10.67-24.5,15.29-35.7s.5-32,.5-32c.5-3.32-.36-6.09-1.1-9.17l-1.33-.51a1.41,1.41,0,0,1,.2,1.48,11.79,11.79,0,0,1-3.85-3.91c-2.36.15-4-1.52-5.1-3.69-.11.31,0,1,.32,1.18a7.19,7.19,0,0,1-4.64-3.86c-.11.3,0,1-.13,1.35a13.14,13.14,0,0,1-3.57-3.52c.15.51,8.12,2.2,8,2.41-2.11-.45-.08,1.08-1.17-1.08L552.64,157c-1.79-.32-2.1.71-3-1,.21.43.36-3.73.24-3.42-2-.76-1.41-.68-2.73-2.23-.11.3-6.21-.08-6.32.22-1.67-.63-1.81,1.07-2.68-.66.22.43,1.69-.83,1.91-.4-2.12-.45-3.36.55-4.44-1.61.21.43-5.33-5.86-5.33-5.86-2.12-.45-2,.31-3.22-1.55.44.87-9-4.07-8.92-3.33-1.67-.63.87,7.32-.12,5.89-.11.31-3.49-2.37-3.49-2.37-1.78-.33.14,2.15-.73.42-.11.31-.13,1.36.21,1.48-2.35.16-4.46-1.33-6-3.32.43.87.53,1.61.75,2-1.67-.64-3.12-.83-4.32-2.69-.12.3.2,1.48.54,1.6a7.06,7.06,0,0,1-5.11-2.63c-.11.3.32,1.17.53,1.6a5,5,0,0,1-3.76-2.13l.53,1.61c-1.33-.51-2.56-.28-4.33-1.65-.12.31.43.87.32,1.17a12.81,12.81,0,0,1-3.22-1.57c-.12.31.65,1.3.31,1.17-1.33-.5-2.56-.27-4-1.51.22.43.32,1.17.54,1.6-1.34-.51-2.79-.7-3.89-1.82a2.53,2.53,0,0,0,.2,1.48c-1.33-.51-2.56-.28-4-1.52-.11.3.32,1.17.54,1.6a18.5,18.5,0,0,1-4-1.52c-.11.31.44.87.66,1.3-1.34-.5-2.79-.7-4.22-1.95-.24.61,0,1-.13,1.35-1-.38-1.56-.94-2.56-1.31l-1.9,0c-7,4.36-14.43,25-14.43,25-13.47,4.34-23.86,19.67-25.73,25.61s-8.3,17.86-8.3,17.86c-.85-2.77-2.78-8.76-2.85-11.58-.19-2.53,1.52-5,1.33-7.55-1.14-6-8.4-7-13.22-5.37l-1,.78c-7.73,5-10.29,28.61-8.92,36.44-3.8,13.44,5.09,24.59,15.07,17.61l-.11,5.76"/><path class="cls-4" d="M566.14,191c-1.33-20.9-20.35-38.83-60.58-59.95s-79-18.18-79-18.18c42.5-53,103-27.78,116.69-22.6s64,85.14,22,126.48l-3.61,3.15S566.38,194.75,566.14,191Z"/><path class="cls-4" d="M420.44,96.17s9.28-39.77,41.72-42c43.35-3,96.54,8.59,99.86,54.32Z"/><path class="cls-5" d="M389.44,189.44c-1.89-4.24,2.25-12.68.94-17.14-6.87-23.31,4.23-39.4,13.47-48,4-3.72,3.85-13,5.6-16.93,9.13-20.65,11.8-20.39,51.35-30.16,32.2-8,59.57,3.33,75.26,10.25,25.13,11.08,35.82,17,37.9,38.55.27,2.82-1.09,3.28-1.19,6.51-.15,4.57,5.4,8.37,4.52,13.89,0,0-37.93.78-71.93,5.34S398.85,196.4,394.2,214.88C394.05,215.46,391.53,194.13,389.44,189.44Z"/><path class="cls-4" d="M389.67,151.85S477.24,100,530.35,119.54c0,0-80-31.74-128.59,5.76L400.31,127a49.79,49.79,0,0,0-8.91,15Z"/><path class="cls-6" d="M404.84,228.42c-3.33-.89-5.85,1.13-7.24,3.72-2.49,4.65,1.19,10.4,6.4,9.51.2,0,.4-.08.6-.13,0,0-7.39,4.15-11.09-1.23s.65-10.65,2.95-11.67C401.59,226.36,404.84,228.42,404.84,228.42Z"/><path class="cls-7" d="M433.29,181.31l-13.06,29.11-5.49-17.12S428,184.68,433.29,181.31Z"/><path class="cls-8" d="M413.36,206.25c-1.94-.71-4.53-.92-5.14,1.57-.5,2.09.11,4.32-.24,6.44a3,3,0,0,1-1.52,2.49c-1.15.43-2-1.76-2.29-2.53a13.21,13.21,0,0,1,.27-9.41c1.07-2.49,3-6.45,6.11-6.62.85,0,1.16-1.14.13-1.09-3.28.18-5.47,3.2-6.88,5.86a14.71,14.71,0,0,0-1.78,8.47c.2,2.39,1.58,7.89,5.11,6.2,2.44-1.17,2.54-4,2.49-6.35a11.4,11.4,0,0,1,.15-3.69c.42-1.27,1.76-.68,2.72-.33.63.23,1.76-.68.87-1Z"/><path class="cls-9" d="M502.06,266.29a9,9,0,0,1-7.92-3.61c-.39-.53-2.22-.85-1.69-.11,2.3,3.17,7.26,5.26,10.86,4.73.36-.06.4-.32.08-.58a2,2,0,0,0-1.33-.43"/><path class="cls-9" d="M491.72,261.5a14.55,14.55,0,0,0-4.5-3.22,1.14,1.14,0,0,0-.87,0c-.2.08-.3.25-.15.44a5.56,5.56,0,0,0,2.49,1.71,1.14,1.14,0,0,0,1,0c.24-.19,0-.46-.21-.55a4.34,4.34,0,0,1-2-1.38l-1,.41a13,13,0,0,1,4,2.9,1.07,1.07,0,0,0,1,.23c.22,0,.52-.24.3-.48"/><path class="cls-9" d="M484.77,259.13c-2-.82-4-2.65-4.41-4.65-.57-3,2.3-6.35,5.42-7,.34-.06.28-.34,0-.51a1.65,1.65,0,0,0-1.17-.17,8.22,8.22,0,0,0-5.9,5.59c-.5,2.26.87,4.49,3,6a11,11,0,0,0,2.12,1.18,1.46,1.46,0,0,0,1.14,0c.25-.2,0-.42-.27-.54"/><path class="cls-9" d="M506.18,266.6a.3.3,0,0,1,.41-.31,2.42,2.42,0,0,0,1.78,0l.27.9a7.2,7.2,0,0,0-3.63,0,.59.59,0,0,1-.61-.35c-.08-.17-.12-.49.13-.56"/><path class="cls-9" d="M504.53,266.33a8.16,8.16,0,0,1,4.05,0,.68.68,0,0,1,.44.46.33.33,0,0,1-.17.44"/><path class="cls-9" d="M510.27,268.47a4.43,4.43,0,0,0,4.51-1.28,7.06,7.06,0,0,0,1.05-7.5.28.28,0,0,1,.27-.42.81.81,0,0,1,.61.5,7.78,7.78,0,0,1-.09,6.68,5.24,5.24,0,0,1-4.65,3.11,4.71,4.71,0,0,1-1.59-.22c-.2-.07-.52-.3-.52-.59s.22-.34.41-.28"/><path class="cls-7" d="M541.76,233.22a5.56,5.56,0,0,1,5.11,3,5.38,5.38,0,0,1,.34,2.69,5.16,5.16,0,0,1-2.8,4,4.79,4.79,0,0,1-5.49-1.05,5.3,5.3,0,0,1-.25-6.68,4.67,4.67,0,0,1,3.09-1.88"/><path class="cls-7" d="M521.19,231.83s11.71-3.68,16.49-2.39c7,1.88,13.85,8.75,15,13,0,0-8.86-9.73-13.81-10.91C534.1,230.39,521.19,231.83,521.19,231.83Z"/><path class="cls-7" d="M486,212c-1.48-1.66-4.56-2.53-6.18-1.91a5,5,0,0,0-2.24,1.65,5.15,5.15,0,0,0-.52,4.82,4.78,4.78,0,0,0,4.8,2.85,5.3,5.3,0,0,0,4.62-4.83c0-.4.66-1-.54-2.31"/><path class="cls-7" d="M492.82,219.93s-7.73-10.33-12.68-12.38c-7.23-3-17.57-2-21.26.59,0,0,13.89-1.95,18.92.29C482.61,210.57,492.82,219.93,492.82,219.93Z"/><path class="cls-7" d="M557.06,230.22a2,2,0,0,1,.77,0c.24-.35.48-.7.7-1.06a5.75,5.75,0,0,0,.33-.77c0-.07,0-.14,0-.21a17.28,17.28,0,0,0-2.27-5.06A20.07,20.07,0,0,0,551,218c-2.56-1.6-10.1-4.59-20.73-6.65L529,215.54c-.34,1.07-.67,2.13-1,3.19,3.83.24,7,.64,9.47,1,5.11.75,7.71,1.15,10.38,2.53a28.11,28.11,0,0,1,5.78,4.1,18.09,18.09,0,0,1,2.81,2.88C556.68,229.58,556.86,229.89,557.06,230.22Z"/><path class="cls-7" d="M504,199l-1.95,3.92c-.5,1-1,2-1.51,3-3.56-2.8-6.71-5-9.1-6.65-5.07-3.44-7.67-5.18-11.06-6.29a38.47,38.47,0,0,0-8.17-1.64,23.22,23.22,0,0,0-4.65-.18c-3.48.31-5.47,1.6-5.83,1.22s1.12-1.62,1.27-1.76a17.82,17.82,0,0,1,9-3.83,25.89,25.89,0,0,1,8.74.78c3.46.87,12.35,4.64,23.28,11.45"/><path class="cls-10" d="M489,276.77c-10.52-4.28-25.29-15.34-25.29-15.34s-9.86,28.4,14.52,38.31,32.85-14.47,32.85-14.47S499.5,281,489,276.77Z"/><path class="cls-11" d="M489.09,276.81c-5-2-22.43-12.39-22.43-12.39s-2.31,19.77,15.78,27.13c19.61,8,25.12-7.08,25.12-7.08Z"/><path class="cls-12" d="M489,277.68c-5-2-19.86-9.1-19.86-9.1s3.16,7.92,18.16,14,22,2.51,22,2.51Z"/><path class="cls-10" d="M512.76,284.18c-.48-.36-2.11-1.36-2.11-1.36-4-2.05-4.13-3.28-7-4.74-4.95-2.49-9.06-1.71-11.29-2.62s-4.62-4.33-9.91-6A74.15,74.15,0,0,1,471,265c-5.83-3-7.23-7-7.82-7.07-.81-.11-3.39,10.37,24.59,21.74S513.42,284.66,512.76,284.18Z"/><polygon class="cls-13" points="-30.19 1116.04 1353.34 1116.04 1353.34 883.76 -24.98 883.76 -30.19 1116.04"/><path class="cls-2" d="M222.84,897.16c-3.15-7.61-12.24-15.68-18.7-19.42s-14.29-.27-16.39.62c-15.61,6.61-23.69,19.53-36,30.65a156.27,156.27,0,0,1-31.1,21.88c-11.4,6.1-23.8,9.19-35.34,14.7l-.25.12a27.34,27.34,0,0,0-13,13.12c-1,2.1-2,4.16-3.08,6.11-1.52,2.7-3.16,4.72-1.58,7.91,2.93,5.88,12.77-.84,15.65-2.07a3.48,3.48,0,0,1,1.69-.26c2.31.21,9.13.45,20.63-2a32.58,32.58,0,0,1,3.27-.52h0c6.11-1,33.64-2.24,38.58-2.72C157,964.29,186.8,958,186.8,958c3.41-.47,45.15-16.55,61.77-6.33l6.34-38.69S226,904.77,222.84,897.16Z"/><path class="cls-2" d="M273,839.9c-3.15-7.61-12.24-15.68-18.7-19.42s-14.29-.27-16.39.62c-15.61,6.61-23.69,19.53-36,30.65a156.27,156.27,0,0,1-31.1,21.88c-11.4,6.1-23.8,9.19-35.34,14.7l-.25.12a27.34,27.34,0,0,0-13,13.12c-1,2.1-2,4.16-3.08,6.11-1.52,2.71-3.16,4.72-1.58,7.91,2.93,5.88,12.77-.84,15.65-2.07a3.48,3.48,0,0,1,1.69-.26c2.31.21,9.13.45,20.63-2a32.58,32.58,0,0,1,3.27-.52c0,.07,0-.06,0,0,6.11-1,33.64-2.23,38.59-2.72C207.16,907,237,900.7,237,900.7c3.41-.47,45.61-11.46,62.24-1.24l5.87-43.78S276.16,847.51,273,839.9Z"/><path class="cls-2" d="M191.9,736.76c1,35-8.68,110.48,99.51,115.74l-49.34-10.8L242,926.77s322.05-2.1,331.52-2.23c18.23-.2,59.94-22.78,50.19-77-8.83-49.16-38.93-68.56-52.58-78.58s-219.54-90.34-277.4-99l-86,47.29Z"/><path class="cls-2" d="M171.92,780.69c6.29,34.42,24.63,72.51,67.73,89.76l-7.47,15.11c-13.8,27.92-25.35,30.34-17.47,60.47l5.17,1S499,987.91,544.06,972.31c18-3,57.07-32.61,55.36-87.73s-48.95-61.81-64-69.62-172.18-32.32-230.7-32.07L238.58,740Z"/><path class="cls-14" d="M186,627.11c.31-1.17,1.8-2.9,2-4.24,2.51-1.69.79.77,6.37-3.34a240.94,240.94,0,0,0,26.49,7.75c21.89,5,44.65,6,67,5.45,24.47-.55,48.84-3.05,73.19-5.4,21.08-2,42.2-4,63.37-4.47L428,667.41,595.21,782s53.6,41,2.16,86.38c-38.62,34.09-148.51,51-148.51,51-1,1.89-27.24-3.34-42.61-5.47-19.07-4.26-139.91-29.69-151-31.88-54.9-10.83-109.41-51-114.4-108.11-2.74-31.22,2-70.2,15.57-98.58C163,661.58,182.2,641.79,186,627.11Z"/><path class="cls-15" d="M499.25,508.07c-1.6,43.77-8.4,56-19.1,64.42-13.69,10.82-23.06,2.39-30.9,11.93-15.51,18.86-6.78,57.07-5.57,90,0,0-82.71,10.06-139.36.84S180.78,628.9,180.78,628.9c33.12-44.78,54-69.36,54-69.36l8.36-95.76,5.52-71.35c6-50.39,39.24-77.09,70.87-83.92l54.94-16s13.11,65.64,61.22,70.54,28-39,28-39,38.18,31,47.11,42.55a107.47,107.47,0,0,1,22.1,66.49c-.13,32.33,11.56,75.23,13,80.95s-47.29,8.45-47.29,8.45"/><path class="cls-3" d="M595.45,919.55c4.73-13.66,8-28.36,6.41-42.88a59,59,0,0,0-1.75-9c-.19-.67-2.05-.17-1.87.5,3.41,12.26,2.38,25.22-.5,37.47a142.94,142.94,0,0,1-4.16,14.18c-.23.65,1.65.42,1.87-.22Z"/><path class="cls-16" d="M506.64,460.64c-5.68,4.91-8.07,12.36-8.4,19.68-.38,8.24-.14,16.51-.47,24.76-.21,5.36-.6,10.71-1.3,16-.22,1.7,3,1.32,3.24-.2a226.14,226.14,0,0,0,1.55-26.4c.05-3.85.06-7.69.14-11.53a41.1,41.1,0,0,1,1.27-10.59,20.8,20.8,0,0,1,6.11-10.17c1.64-1.41-.87-2.68-2.14-1.58Z"/><path class="cls-2" d="M266.72,378.62c.64-37.69,34.4-48.55,60.79-40.36,13.35,4.14,12.94,31.55,12.94,31.55C358,419.26,375,556.48,377.76,583.34c-4.67,1.69-10.24-.53-14.44,2.12-14.69,9.29-22.9,3.78-31,19.07-4,7.59-6,27-7.76,35.52-17.32-16.81-24.59-55-30.25-77.44-8.52-33.77-13.33-68.19-18.58-102.56C271.67,433.4,266.26,405.69,266.72,378.62Z"/><path class="cls-15" d="M338.82,314.73S272.09,328,260.21,363.8s-.94,103.44-.94,103.44,73.94.58,110.15-13.86S338.82,314.73,338.82,314.73Z"/><path class="cls-16" d="M302.3,329.57c5.43-.86,11,.11,16.17,1.81a52,52,0,0,1,15.35,8.06c4.65,3.56,7.95,8.22,11.3,12.95a161.57,161.57,0,0,1,9.08,14.23,99.11,99.11,0,0,1,10,24.75,174.37,174.37,0,0,1,3.78,25.13c1.18,12.42,2.29,24.83,4.09,37.18l.91-1-11,3c-1.32.35-1,1.69.36,1.33l11-2.95c.43-.11,1-.44.91-1-1.67-11.36-2.76-22.78-3.82-34.21-.81-8.73-1.65-17.51-3.58-26.08A98.79,98.79,0,0,0,357.44,368a152.46,152.46,0,0,0-8.75-14.23c-3.34-4.85-6.67-9.94-11.15-13.81a52.31,52.31,0,0,0-16.73-9.53c-5.79-2-12.16-3.23-18.28-2.25-.41.07-1.19.3-1.21.83s.56.68,1,.61Z"/><path class="cls-2" d="M367.44,647.39s-15.31,10.52-38.63-3.81-14.33-64.39-10.05-85.66c4.38-21.82,61.12,27.23,61.12,27.23Z"/><path class="cls-16" d="M275.33,466.41a56.66,56.66,0,0,1-6,.56c-.89,0-1.78.13-2.67.25-1.3.17-3.29.94-3.69-.85a17.62,17.62,0,0,1,.05-4c0-1.71,0-3.42,0-5.13-.09-3.08-.3-6.16-.58-9.22-1.15-12.62-3-25.18-4.13-37.8a93.39,93.39,0,0,1,.2-21.4c0-.25-2.07-.08-2.17.58-1.89,13.22.38,26.58,1.75,39.74.69,6.65,1.63,13.28,2.22,19.94.29,3.23.5,6.47.56,9.72q0,2.44,0,4.89c0,1.21-.51,3.12.35,4.15.66.8,1.81.69,2.73.56,1.42-.19,2.81-.43,4.24-.51a66.25,66.25,0,0,0,6.74-.65c.87-.14,1.94-1,.4-.79Z"/><path class="cls-8" d="M1028.19,539.86c-1.69-8.69,2.66-19.82,12.12-20.86a25.08,25.08,0,0,1,6.9.53l10.09,1.74a31.87,31.87,0,0,1,8.91,2.44c5,2.48,8.09,7.43,9.4,12.55s1.06,10.48.81,15.75c-.24,4.84-1,10.51-5.54,12.92-2.67,1.42-6,1.24-8.9,2.08-2.63.76-4.91,2.3-7.39,3.4-8.47,3.76-19.42,1.77-25.65-4.67"/><path class="cls-8" d="M1047.8,515.8c-1.69-8.69,2.66-19.82,12.12-20.86a24.6,24.6,0,0,1,6.89.53l10.1,1.74a32,32,0,0,1,8.91,2.44c5,2.48,8.09,7.43,9.4,12.55s1.06,10.47.8,15.75c-.23,4.83-1,10.51-5.53,12.92-2.68,1.41-10.29,6.32-12.12,8.76-5.51,7.36-1.69-4.39-4.17-3.28-8.47,3.76-19.42,1.77-25.65-4.67"/><path class="cls-8" d="M1051.17,489.91c-1.69-8.69,2.66-19.82,12.11-20.86a24.67,24.67,0,0,1,6.9.53l10.09,1.74a32,32,0,0,1,8.92,2.44c5,2.48,8.08,7.43,9.4,12.55s1.06,10.47.8,15.75c-.24,4.83-1,10.51-5.54,12.92-2.67,1.42-6,1.24-8.89,2.08-2.63.75-4.91,2.29-7.39,3.4-8.47,3.76-19.42,1.77-25.65-4.67"/><path class="cls-8" d="M1039.68,460.47c-1.69-8.69,2.66-19.82,12.12-20.86a25,25,0,0,1,6.89.53l10.1,1.74a32,32,0,0,1,8.91,2.44c5,2.48,8.09,7.43,9.4,12.55s1.06,10.48.8,15.75c-.23,4.83-1,10.51-5.53,12.92-2.68,1.42-6,1.24-8.9,2.08-2.63.75-4.91,2.29-7.39,3.4-8.47,3.76-19.42,1.77-25.65-4.67"/><path class="cls-8" d="M1023.68,442.7c-1.69-8.69,2.66-19.81,12.11-20.86a24.64,24.64,0,0,1,6.9.54l10.1,1.74a32,32,0,0,1,8.91,2.43c5,2.49,8.09,7.43,9.4,12.56s1.06,10.47.8,15.74c-.23,4.84-1,10.52-5.53,12.92-2.68,1.42-6,1.25-8.9,2.09-2.63.75-4.91,2.29-7.39,3.39-8.47,3.77-19.42,1.78-25.65-4.66"/><path class="cls-8" d="M995.42,432.55c-1.68-8.7,2.67-19.82,12.12-20.86a24.7,24.7,0,0,1,6.9.53l10.09,1.74a31.53,31.53,0,0,1,8.91,2.44c5,2.48,8.09,7.43,9.4,12.55s1.07,10.47.81,15.74c-.24,4.84-1,10.52-5.54,12.93-2.67,1.41-6,1.24-8.9,2.08-2.62.75-4.9,2.29-7.39,3.39-8.46,3.77-19.42,1.78-25.65-4.66"/><path class="cls-8" d="M944,447.33c-1.81-13.21,21.1-26.74,30.55-27.78,2.3-.26,3.14-5.53,12.51-6,3.41-.17,6.73,1.16,10.09,1.74a31.87,31.87,0,0,1,8.91,2.44c5,2.48,8.09,7.43,9.4,12.55s1.07,10.47.81,15.74c-.24,4.84-1,10.52-5.54,12.93-2.67,1.41-6,1.24-8.9,2.08-2.63.75-4.9,2.29-7.39,3.4-8.46,3.76-19.42,1.77-25.65-4.67"/><path class="cls-17" d="M1081.33,533.77c-3.88,9.19-8.85,18.51-16.55,25.07-7.88,6.71-18.4,8.53-28.39,9.8-19.45,2.47-39.73.29-57.52-8.29a81.38,81.38,0,0,1-40.13-43.06,112.27,112.27,0,0,1-8.18-42.73c.24-.95.46-1.93.73-2.85,8-27,15.93-34.86,41.84-41.86,15.89-4.46,28.66-15.38,54.63-8.17,5.6,1.56,12,7.06,19.21,9.8,10.91,4.12,23.08,11.84,28.27,20.14,9.87,15.84,10,40.24,13.07,60A102.07,102.07,0,0,1,1081.33,533.77Z"/><path class="cls-2" d="M932.33,541.21c-1.31-7.87,2-11.81,2.77-16.66-.31-3.66-.64-7.92-1-13.06-.1-1.49-.17-2.92-.22-4.34a13.36,13.36,0,0,0-.06-2.19c-.49-25.11,7.1-38.65,7.1-38.65a55.16,55.16,0,0,1,47.45-28c23.14-.73,44.73,12.24,56.34,25.81a36,36,0,0,1,8.67,24.19c-.14,7.57-1.61,12.89-3.21,21.19,8.06-.79,16.12,1.69,14,16.73-3,20.74-15,27.73-22.57,22.19-3.42,2.28-3.79,11-3.91,15.34-.21,8.24,1,22,5.43,28.93L1043,595c-16,29-25.39,45.78-85.85,32.27l17.27-31.46,0-6.06a51.17,51.17,0,0,1-10.14-.91C945.42,585,933.86,550.5,932.33,541.21Z"/><path class="cls-3" d="M974.55,589.79s22.1.63,41.23-13.45c0,0-2,6.74-15.89,12.46s-25.16,4.56-25.16,4.56Z"/><path class="cls-18" d="M1042.08,521.94c0-.13-.87-5.1-.86,1,0,3.08,3-7.07,5.3-9.26a16.78,16.78,0,0,1,7.89-4.5c2.09-.62,7.59,2.4,9.71,2.91.36.14-2.67-2.8-2.31-2.66,4.67-17.79,6.47-32.36-7.3-53.34-4-6-14-12.47-17.09-14.54-18.64-12.39-34.85-12.64-54.66-9.82-23,3.27-45.08,14.31-49.38,37.83-1,5.67-1.29,8-.5,13.74,0,0,.57-12.75,11.4-19.86s12.73-.39,28.49-.72c18.24-.45,23.81-10.61,38.76-3.62,13.65,6.41,16.73,12.2,16.73,12.2,1,3.31,3.13,6.11,4.64,9.19a28.64,28.64,0,0,1,2.52,9.63c.75,6.84,1.77,13.66,1.56,20.56-.13,4.28-.73,10,3.48,12.64C1042.34,524.55,1040.16,522.69,1042.08,521.94Z"/><path class="cls-8" d="M1043.37,521.84A5.51,5.51,0,0,0,1043,520a1.51,1.51,0,0,0-2.62-.38,2.24,2.24,0,0,0-.4,1.26,9.75,9.75,0,0,0,0,2.75c.25,1.1,1.58,1.14,2.37.51a6.39,6.39,0,0,0,1.46-2.54c.57-1.31,1.12-2.64,1.73-3.94a12.8,12.8,0,0,1,2-3.4,15,15,0,0,1,6-3.8c1.9-.66,3.59.11,5.38.82,1.52.6,3.25,1.67,4.89,1.83.54.06,1.76-.26,1.74-1s-.67-1.12-1.08-1.55-.59-.62-.88-.94a2.28,2.28,0,0,0-.33-.36c-.26-.17-.09-.5-.07.19l-1.74,1h0a1.59,1.59,0,0,0,1.74-1c1.72-6.58,3.23-13.29,3.4-20.12a50.78,50.78,0,0,0-3.79-20.52,74.33,74.33,0,0,0-6-11.51,35.28,35.28,0,0,0-6.89-7.94A100.15,100.15,0,0,0,1033.7,438a64.35,64.35,0,0,0-22.35-7.85,89.16,89.16,0,0,0-23.08,0c-13.75,1.56-27.72,4.89-39.11,13.12a43.36,43.36,0,0,0-12.83,14.28,40,40,0,0,0-3.59,9.19,44.91,44.91,0,0,0-1.62,11,43.34,43.34,0,0,0,.48,5.91c.15,1.13,2.52.56,2.57-.44a25.06,25.06,0,0,1,14.49-21.13c4.17-1.81,8.19-.42,12.39.49a49.36,49.36,0,0,0,20.29.09c5.4-1.1,10.43-3.46,15.81-4.6,6.33-1.34,12,.88,17.52,3.88,4.17,2.26,8.54,5,11.56,8.73a8.53,8.53,0,0,1,1.33,2.6c1.56,3.7,4.11,6.88,5.32,10.75,1.28,4.11,1.51,8.54,2,12.8a97.46,97.46,0,0,1,.81,14c-.08,2.89-.36,5.92.48,8.73a8.31,8.31,0,0,0,2.17,3.65c.8.75,2,1.75,3.17,1.41a1.39,1.39,0,0,0,1.09-1.1c0-.27-.22-.69.05-.82,1.58-.75.18-2.13-1.13-1.51a2.66,2.66,0,0,0-1.48,1.41,2,2,0,0,0-.09.83c0,.34-.08.49.1.17l1-.73H1041l1,0c-1.25-.33-2.34-1.88-2.85-3a12,12,0,0,1-.89-4.3c-.18-3.62.18-7.24,0-10.87-.24-4.5-.81-9-1.33-13.45-.47-4.15-1.13-8.14-3.08-11.89-.89-1.72-1.94-3.35-2.84-5.06-.61-1.16-.93-2.47-1.54-3.61a10.69,10.69,0,0,0-1.49-1.93c-3.69-4.06-8.6-7-13.45-9.44-5.44-2.74-10.91-4.29-17-3.17-5.38,1-10.4,3.38-15.74,4.57a46.18,46.18,0,0,1-20.06-.07c-4.28-.95-8.36-2.14-12.68-.64-9.61,3.33-16.28,12.76-17.35,22.71,0,.23,0,.46-.06.69l2.58-.44a40.7,40.7,0,0,1,13.62-36.16c9.93-8.48,23-12.49,35.71-14.25a103.93,103.93,0,0,1,22.63-1.12,60.93,60.93,0,0,1,21.61,5.85,97.62,97.62,0,0,1,16.63,10.57,47.65,47.65,0,0,1,7.56,6.91,52.63,52.63,0,0,1,6.3,10.3,52,52,0,0,1,5.66,20.51,69,69,0,0,1-2.15,19.08c-.38,1.63-.79,3.26-1.21,4.88l1.73-1h0c-.54-.06-1.77.26-1.74,1s.66,1.13,1.07,1.56.6.62.89.94a2.28,2.28,0,0,0,.33.36c.26.17.09.5.07-.19l1.74-1c.23,0-.22-.07-.3-.1l-.79-.29c-.58-.22-1.16-.46-1.73-.7a40.35,40.35,0,0,0-3.84-1.45,7.73,7.73,0,0,0-3.23-.42,15.39,15.39,0,0,0-4.77,1.75,13.91,13.91,0,0,0-5.85,5.31,65,65,0,0,0-2.79,6.06c-.18.4-.35.81-.55,1.2a2.06,2.06,0,0,0-.23.44c-.07.36,0,0,0,0a10.43,10.43,0,0,0,2-.07s0,.17,0,0a5.81,5.81,0,0,0,0-1.32,8.26,8.26,0,0,0,.06-1.11c0-.56.42-.45-.25,0l-1.29.34c-1.07,0-.58-.68-.57-.11a3.33,3.33,0,0,0,.16.6c0,.18.07.35.1.53s0,.56,0,.17C1040.75,523.37,1043.34,523,1043.37,521.84Z"/><ellipse class="cls-8" cx="942.22" cy="517.73" rx="4.92" ry="4.93" transform="translate(-108.95 292.19) rotate(-16.68)"/><path class="cls-18" d="M937.23,514.16a13.33,13.33,0,0,1,9.36-2.86c7.66.26,12.49,8.83,12.49,8.83a21.87,21.87,0,0,0-12.8-5.65,25.36,25.36,0,0,0-11.76,2.72C934.55,516.47,935.88,515.22,937.23,514.16Z"/><path class="cls-8" d="M1059.44,527.54a10.87,10.87,0,0,0-.31-7.84,1.38,1.38,0,0,0-1.08-.9c-2.45-.65-4.79.74-6.25,2.65-2,2.61-2.86,6-3.51,9.13-.09.48.79.33,1,.17.46-.37,1.25-1,1.87-.74.78.27.95,1.61.94,2.3,0,2.46-2.1,3.79-4.34,4.14-.61.1-1,.9-.13.78,2.84-.45,5.83-2.16,5.67-5.42-.06-1.1-.49-2.39-1.72-2.59a4.16,4.16,0,0,0-3.06,1.08l1,.16a24.8,24.8,0,0,1,2.72-7.86,6.69,6.69,0,0,1,3-2.93,3.48,3.48,0,0,1,2-.17l.35.1c.08,0,.26.13.14,0,0,0,.09.06,0,0s.13.22.15.27c1.32,2.32,1.06,5.28.36,7.74-.14.5,1.07.35,1.2-.12Z"/><path class="cls-19" d="M998.15,514.4a4.92,4.92,0,1,1-4.38-3.77A4.92,4.92,0,0,1,998.15,514.4Z"/><path class="cls-18" d="M981.91,519.41s3.78-10.54,14.9-10.88c9.47-.29,13.21,4.26,15.37,7.09a27.91,27.91,0,0,0-15.13-4.34C988.74,511.26,981.91,519.41,981.91,519.41Z"/><path class="cls-10" d="M970.58,555.26c7.1-.39,20.07-2.12,20.07-2.12s.62,19.38-19.07,20.16c-16.46.65-16.75-16.66-16.75-16.66S963.49,555.66,970.58,555.26Z"/><path class="cls-20" d="M970.51,555.27c3.38-.19,15.93-1,15.93-1s-3,11.17-15.22,11.85c-13.22.73-13.88-9.43-13.88-9.43Z"/><path class="cls-12" d="M970.44,556.53c3.37-.19,13.6-1.3,13.6-1.3s-3.49,3.75-13.61,4.31-13.52-2.71-13.52-2.71Z"/><path class="cls-10" d="M953.71,555.65c0-.37.7-.57,2.37-.8,2.78-.38,3.64-1.43,5.65-1.69,3.44-.45,5.7.74,7.2.66s3.63-1.52,7.09-1.45c2,0,8.29.41,11.09.48a26.16,26.16,0,0,0,4-.62c.51.09-1.61,4.79-20.48,5.83S953.74,556.14,953.71,555.65Z"/><path class="cls-7" d="M981.73,499.66c0-.17.56-.25.53-.43,9-3.2,16-4.1,18.58-3.86a17.22,17.22,0,0,1,5.87,1.67s5.25,2.38,6,3.47-3.08-.28-3.08-.28a14.94,14.94,0,0,0-2.17-.45c-4.43-.29-8.75-1.21-13.07-.16-3.7.87-8.54,3.67-12,5.5C982.07,503.25,982.18,501.49,981.73,499.66Z"/><path class="cls-7" d="M958.27,502.59c0-.17-.51-.18-.5-.36-8.12-2.08-14.27-2.12-16.52-1.57a14.32,14.32,0,0,0-4.9,2.37s-2,.76-2.54,1.93.37,1.6.37,1.6a11.39,11.39,0,0,1,1.83-.72c3.81-.82,7.45-2.26,11.31-1.75,3.3.41,7.79,2.61,11,4C958.36,506.2,958.07,504.46,958.27,502.59Z"/><path class="cls-7" d="M970.22,543.56a13.49,13.49,0,0,1-5,1.24,15,15,0,0,1-5-.32,4.91,4.91,0,0,1-3-2.27,3.25,3.25,0,0,1-.07-3.17,29.11,29.11,0,0,0,1.74-4.61c.09-.39-.83-.27-.91.09a33.16,33.16,0,0,1-1.76,4.63,3.53,3.53,0,0,0,0,3.21c1.53,3,5.21,3.18,8.16,3.07A15.2,15.2,0,0,0,970.6,544c.56-.27.06-.68-.38-.46Z"/><path class="cls-7" d="M978.61,537.71c.61-.06,1,.6,1.21,1.09a5.72,5.72,0,0,1,.36,2,2.88,2.88,0,0,1-.47,1.83,3.76,3.76,0,0,1-2.47,1.26c-1.43.25-2.69-.51-4.07-.73a1.29,1.29,0,0,0-.64.12c-.06,0-.31.19-.11.22,1.43.23,2.72,1,4.21.77a7.42,7.42,0,0,0,3.26-1.12,2.73,2.73,0,0,0,1.18-2.08,5.86,5.86,0,0,0-.31-2.42,1.65,1.65,0,0,0-1.75-1.29c-.16,0-.52.07-.61.21s.08.15.21.13Z"/><path class="cls-2" d="M1132.15,822.12c-.88,22,4.37,69.68-61.57,72.26l30.14-6.47-.63,53.61s-185.22-2.66-191-2.8c-11.1-.26-37.19-15.24-40.83-49.78S892.55,846,901,839.78s101.11-35.57,136.42-40.65l85.32,10.53Z"/><path class="cls-2" d="M1115.09,909.85c2.17-4.69,8.06-9.52,12.2-11.7s9,.18,10.25.79c9.61,4.53,14.36,12.83,21.78,20.1a98,98,0,0,0,18.94,14.47c7,4.11,14.68,6.35,21.77,10.08l.15.08a17.18,17.18,0,0,1,7.82,8.55c.56,1.34,1.14,2.66,1.77,3.9.89,1.73,1.87,3,.8,5-2,3.61-8,1.07-9.83.23a2.24,2.24,0,0,0-1-.2c-1.45.07-5.73.06-12.87-1.8a19.31,19.31,0,0,0-2-.4l0,.12c-3.8-.76-20.64-2-23.73-2.42-6.08-.83-24.84-7.82-24.84-7.82s-24.76-4.44-33.09.23l-8.46-30.12S1112.93,914.54,1115.09,909.85Z"/><path class="cls-2" d="M1141.35,849.67c-.88,22,4.37,69.68-61.57,72.25l30.15-6.46,2.47,32.41S946.83,972,918.3,966.27c-11.09-.26-37.19-15.24-40.83-49.78s24.28-42.94,32.68-49.16,101.11-35.57,136.42-40.65l85.32,10.53Z"/><path class="cls-3" d="M876.76,916.75c-1-9.84.48-19.9,6.13-28.2,4.09-6,9.93-10.51,16.11-14.22,2.41-1.44,4.89-2.77,7.32-4.19,1.38-.8,2.92-1.95,4.09-2.58a100.11,100.11,0,0,1,12.67-5.27c15.94-5.91,32.21-11,48.49-15.85,18.09-5.42,36.3-10.55,54.72-14.75,3.74-.85,7.49-1.66,11.26-2.39,1.62-.31,3.24-.61,4.87-.88a25.15,25.15,0,0,1,3.25-.53,20.1,20.1,0,0,1,2.56.31l6,.74,42.16,5.18,33.74,4.15a5.28,5.28,0,0,0,1.12.14s.19,0,.19,0c-.13.25-.8-.61-.18.2l5.93,7.76L1140,850a2.9,2.9,0,0,1,.46.6c-.15-.38-.09.26-.1.43s0,.59,0,.89c-.07,2.46-.09,4.93-.14,7.4-.22,11.9-1.18,24.17-6.54,35a43.15,43.15,0,0,1-12.91,15.56c-7.17,5.32-15.74,8.36-24.43,10.07a109.42,109.42,0,0,1-16.83,1.85l.07,1.25,26.53-5.65,3.8-.81c1.17-.25.83-1.45-.32-1.2L1083,921.08l-3.81.81c-1,.2-1,1.29.07,1.25,18-.73,37.89-5,50.1-19.39,8.42-10,11.46-22.9,12.32-35.61.37-5.35.35-10.7.48-16a4.24,4.24,0,0,0-.24-2.53c-.73-1.11-1.63-2.14-2.44-3.19l-6.31-8.26a2.31,2.31,0,0,0-2-1.08l-4.51-.55-17.53-2.16-45.59-5.61-14.79-1.81c-.81-.1-1.66-.29-2.49-.31a20.14,20.14,0,0,0-3.69.53q-2.58.43-5.15.93c-17.82,3.43-35.4,8.26-52.84,13.26-17.91,5.14-35.74,10.61-53.34,16.73-5.86,2-11.72,4.1-17.43,6.52a44.64,44.64,0,0,0-4.69,2.22c-1.64.93-3.15,2.06-4.79,3C898.68,873,893,876.17,888,880.55a39.13,39.13,0,0,0-12.51,21,50,50,0,0,0-.63,15.68c.08.8,2,.36,1.87-.5Z"/><path class="cls-21" d="M972.46,755.81c-1.85-19.94-3.47-27.77-5.22-47.67,8.22,1.24,16.47,2.38,24.73,3.34,12.19,1.43,24.42,2.54,36.68,3.22a282.76,282.76,0,0,0,33.32.18c10.85-.66,21.67-1.73,32.53-2.11,9.26-.33,11.37-3,20.49-1.3-2.49,16.33,8.65,37.38,10.15,45.83l9.4,20.64,10.08,20.8c3.51,9.21,7.49,33.42,8.21,43.22,7.85,107.54-113.23,81-113.23,81s-17.44-29.19-21.33-36.29L1009.75,873c-3.26.23-13.89-21-23.31-30.2C966.26,823.14,929,817.75,929,817.75l50.74-32.83Z"/><path class="cls-22" d="M947.38,660.81c.63-14.88,1.38-24.35,6.81-38.44,3.48-9,11-23.51,20.17-26.51-2.87,6.37-8.68,20.64,3,22.72,21.84,4.31,46.75-13.69,62.83-34.66l15.13,4.76c42.17,15,47.68,62.25,50.11,77.73,1.55,9.93,9.73,36.15,10.95,63.66-9.24.69-16.39,2.84-25.19,5.57-11.27,3.49-22.26,7.81-33.42,11.62-5.38,1.83-10.79,3.55-16.29,5a137.56,137.56,0,0,1-16.85,3c-12.33,1.57-24.69,3.13-37.11,3.83a189.92,189.92,0,0,1-19.68.22c-2.56-8.77-7-13.5-10.33-24.17C950.92,711.32,946.31,685.84,947.38,660.81Z"/><path class="cls-21" d="M980.73,918.59c1.86,1.59,1,4.87-1.05,6.23s-4.63,1.34-7.07,1.29l-25.25-.61a16.57,16.57,0,0,1-5.74-.83c-5.08-2-6.72-8.44-6.71-13.92s.9-11.32-1.66-16.16c-4.15-7.86-14.65-8.9-23.13-11.57a13,13,0,0,1-5.47-2.92c-4.55-4.58-1.65-12.28-2.55-18.67a15.49,15.49,0,0,0-13.45-12.9c-1.77-.17-3.82-.15-4.94-1.53-1.91-2.36.9-5.59,3.48-7.2,14.43-9,29-20.2,45.64-24.51,10.82-2.81,26.45-17,37.27-19.78,0,0,42.11,31.4,66.67,60.78s31.73,70.28,31.73,70.28c-21.11.44-74.11.61-100.15,1-.49-10.27-5.86-19-12.79-26.83-4.91-10.16-14.38-18.81-22-26.52-6.34-6.4-12.75-12.52-19.33-18.41-6.42-7.57-13.36-14.68-21.55-19.59a116.61,116.61,0,0,1,13.28-8.3"/><path class="cls-23" d="M1115.56,718.4s5.42,25.24,8,29.6c0,0-39.16,22.83-71.14,30.3s-73.39,11.9-73.39,11.9l-11.26-31s40.5-.42,81.26-11.89S1115.56,718.4,1115.56,718.4Z"/><rect class="cls-24" x="882.36" y="964.1" width="47.5" height="41.98"/><polygon class="cls-25" points="882.36 1006.08 870.2 998.11 870.2 956.13 882.36 964.1 882.36 1006.08"/><polygon class="cls-26" points="929.86 964.1 917.71 956.13 870.2 956.13 882.36 964.1 929.86 964.1"/><rect class="cls-27" x="846.39" y="765.63" width="41.98" height="76.48" transform="translate(-260.05 446.86) rotate(-25.25)"/><polygon class="cls-28" points="832.08 778.24 830.94 757.15 868.91 739.24 870.05 760.33 832.08 778.24"/><polygon class="cls-29" points="902.68 829.5 901.54 808.41 868.91 739.24 870.05 760.33 902.68 829.5"/><rect class="cls-30" x="660.05" y="946.47" width="76.48" height="41.98"/><polygon class="cls-31" points="660.05 988.45 640.48 980.48 640.48 938.5 660.05 946.47 660.05 988.45"/><polygon class="cls-32" points="736.53 946.47 716.96 938.5 640.48 938.5 660.05 946.47 736.53 946.47"/><rect class="cls-24" x="737.58" y="881.65" width="47.5" height="41.98"/><polygon class="cls-25" points="737.58 923.63 725.43 915.66 725.43 873.68 737.58 881.65 737.58 923.63"/><polygon class="cls-26" points="785.08 881.65 772.93 873.68 725.43 873.68 737.58 881.65 785.08 881.65"/><rect class="cls-30" x="807.94" y="958.38" width="46.84" height="41.98"/><polygon class="cls-31" points="807.95 1000.36 795.96 992.39 795.96 950.41 807.95 958.38 807.95 1000.36"/><polygon class="cls-32" points="854.78 958.38 842.8 950.41 795.96 950.41 807.95 958.38 854.78 958.38"/><rect class="cls-30" x="729.55" y="835.95" width="46.84" height="41.98"/><polygon class="cls-31" points="729.55 877.93 717.57 869.96 717.57 827.98 729.55 835.95 729.55 877.93"/><polygon class="cls-32" points="776.39 835.95 764.4 827.98 717.57 827.98 729.55 835.95 776.39 835.95"/><path class="cls-2" d="M884.16,772.21c4.73-1.25,11.56-1.57,16.35-1.63,6,.28,22,6.61,22,6.61l17.9-3.38L949.6,800l-18.48,4.52L916,816.16s-31.57,15.27-36.42,14.48-12.69-7.81-12.69-7.81c-6.57,0-10.29-7.82-10.29-7.82-10.58-3.47-4.5-7.88-4.5-7.88a1.9,1.9,0,0,1-1.06-.41c-3.28-2.5-.29-8.09,3.8-7.66,6.86.68,16.1,1.44,17.09.72s8.31-4.55,14.72-7.87a6.8,6.8,0,0,0,3.67-8.56c-.12-.29-1-2.56-1.91-2.64"/><path class="cls-33" d="M883.7,806.41a34.26,34.26,0,0,1-12.46,5.11,26.86,26.86,0,0,1-13.93-2.25,17.28,17.28,0,0,1-5-2.6"/><path class="cls-33" d="M886.92,813.47l-.19.12a43.82,43.82,0,0,1-5.35,3,19.48,19.48,0,0,1-7.24,2.12,31.07,31.07,0,0,1-7.09-.88l-5.53-1.27a17.19,17.19,0,0,1-5-1.54"/><path class="cls-33" d="M889,821.45c-2.26,1.16-5.65,2.69-9.44,4.26a6.13,6.13,0,0,1-3,.38,19.12,19.12,0,0,1-2.51-.31,21.42,21.42,0,0,1-4-1.09c-2.22-.85-3.36-1.8-3.23-2"/><path class="cls-2" d="M1021.29,747s3.78-67.72,4.54-98.6h51.89l2.35,6.16c-2,34.26,2.61,100.42-18.56,124.85-26.19,30.22-134.12,24.07-134.12,24.07l-7.15-24Z"/><path class="cls-3" d="M1058.46,600.21c1,0,1.44-1.33.17-1.33-1.05,0-1.44,1.33-.17,1.33Z"/><path class="cls-22" d="M1012.85,690.41c-5-3.51-5-10.84-4.39-16.94,1.47-15.43,3-31,7.8-45.72,3.71-11.3,9.61-22.18,18-30.5.39,1.84,2.09,3.34,4.22,2.24,8.16-4.18,13.15-10.73,21.51-7.76.15,0,15.46,8.55,15.61,8.58,6.35,6.5.86,14.11,5,22.27,10.56,20.63,18.62,43.26,17.92,66.43l-2.22,2.6c-23.41,11.73-51.35,6.56-77,1.13A17.67,17.67,0,0,1,1012.85,690.41Z"/><path class="cls-21" d="M1022.43,694.21l-3.72-1.52c-.46-.19-.29-.14-.5-.43-.82-1.16-1-3-1.14-4.41a44.8,44.8,0,0,1-.22-5.05c0-7.82-.56-15.59-.07-23.41.37-5.91,1.22-11.74,2-17.61.95-7.6,1.13-15.17,5.09-22,4.15-7.14,10.95-13.41,19.26-15,.76-.15,1.64-1,.34-.75a31.1,31.1,0,0,0-18.27,11.43,33.45,33.45,0,0,0-5.67,10.1,50.53,50.53,0,0,0-2,11c-.64,6.39-1.67,12.74-2.24,19.15-.36,4-.57,8.09-.6,12.14,0,4.22.35,8.42.36,12.63,0,3.78-.38,8,1.06,11.6a2,2,0,0,0,.89,1.23,40.17,40.17,0,0,0,4,1.63c.43.17,2.12-.51,1.53-.76Z"/><path class="cls-21" d="M1080,698.4a32.69,32.69,0,0,0,5-.58c.7-.15,1.41-.3,2.11-.38a11.15,11.15,0,0,0,2.31-.19c1.27-.4,1.67-1.51,1.83-2.73,1-7.31,2.79-14.52,4-21.81,1.88-11.72,3.2-23.91,1.07-35.69a53.25,53.25,0,0,0-5.59-15.95c-.39-.72-2.18,0-1.71.82,4.79,8.83,6.54,18.74,6.47,28.71-.08,12.83-2.51,25.6-5.08,38.12-.38,1.87-.77,3.71-1,5.61-.1.87-.11,1.57-1.07,1.72s-1.7.14-2.54.29a39.25,39.25,0,0,1-5.66.7c-1,.05-1.44,1.41-.17,1.36Z"/><path class="cls-2" d="M340.94,652.88c-6.29-4.4-13.75-8.87-18-14.88.32-1,.33-1,.71-2.08,5.43-15.11,15.48-28.67,27.67-39,8.42-7.15,12.84-15.24,23.67-18,0,2.18,5.6,5.29,5.6,5.29l156.09,91.41-.9,36.38c-66.54-11.67-128.74-29.18-190.33-57C343.94,654.26,342.43,653.58,340.94,652.88Z"/><path class="cls-3" d="M343.26,607.57c1.28-6.07,3.69-12,8.27-16.36,4.08-3.88,9.42-6,14.81-7.29a105.66,105.66,0,0,1,10.44-1.87c.82-.11,1.62-1,.31-.83-11.84,1.63-24.89,4.37-31.52,15.41a36.3,36.3,0,0,0-4.16,11.23c-.12.55,1.74.25,1.85-.29Z"/><rect class="cls-27" x="684.76" y="880.29" width="44.46" height="41.98"/><polygon class="cls-28" points="684.76 922.27 673.38 914.3 673.38 872.32 684.76 880.29 684.76 922.27"/><polygon class="cls-29" points="729.55 880.18 718.17 872.22 673.72 872.22 685.09 880.18 729.55 880.18"/><rect class="cls-24" x="599.51" y="674.6" width="51.22" height="41.98" transform="translate(-237.01 333.16) rotate(-25.25)"/><polygon class="cls-25" points="616.75 722.74 595.65 723.88 577.75 685.91 598.84 684.77 616.75 722.74"/><polygon class="cls-26" points="639.33 665.68 624.07 664.06 577.75 685.91 593 687.53 639.33 665.68"/><path class="cls-2" d="M512.55,662.63l11.64,27.6-2.92,17.29s26.75,20,35.36,21.68,28.3,8.38,28.3,8.38a12.7,12.7,0,0,0-2.75,7.82,12.36,12.36,0,0,0,4,8.52l12.63-11c.54,7.18,7.36,4.13,7.36,4.13L616,736.85c.29,8.92,9.23,5.18,9.23,5.18l8.52-15.9a28.22,28.22,0,0,0,5.4,9.29c3.19,3.06,6.36-3.3,6.36-3.3L639.08,701l-34.39-24.23-69.59-3.3Z"/><path class="cls-3" d="M609,690.35c4.31-.66,7.64,2.36,10.73,4.94a107.23,107.23,0,0,1,9.57,9,47,47,0,0,1,3.91,4.77c1.2,1.68,2.63,3.5,2.83,5.63s-.69,4.09-1.11,6.07a18,18,0,0,1-2.57,6.1c-.65,1,1.09,1.29,1.57.56a28.3,28.3,0,0,0,3.59-9.56,9.18,9.18,0,0,0,.11-5,16.93,16.93,0,0,0-2.59-4.44,59.39,59.39,0,0,0-7.55-8.53,99.86,99.86,0,0,0-8.27-7.24c-3.06-2.34-6-4.3-10.06-3.69-1,.15-1.42,1.58-.16,1.39Z"/><path class="cls-3" d="M599.28,700.38c3.12,2.28,5.91,4.93,9,7.22,3.39,2.5,6.66,5.08,9.84,7.85a8.32,8.32,0,0,1,3.21,5.25,24,24,0,0,1-.14,6.45,17,17,0,0,1-5.71,9.8c-1,.83.53,1.5,1.25.88a19.1,19.1,0,0,0,6-9.33,23.17,23.17,0,0,0,.54-7,10,10,0,0,0-.46-3,9.32,9.32,0,0,0-1.71-2.56,38.8,38.8,0,0,0-5-4.49c-1.73-1.42-3.52-2.76-5.32-4.09-1.5-1.11-3.05-2.19-4.49-3.38-1.88-1.56-3.65-3.21-5.63-4.66-.68-.5-2.3.46-1.44,1.09Z"/><path class="cls-3" d="M588,720.35a50.27,50.27,0,0,1,6.47,2.61,30.76,30.76,0,0,1,6.28,3.28c3,2.27,5.11,5.8,3.83,9.65a9.87,9.87,0,0,1-3,4.43,15.4,15.4,0,0,1-2.11,1.57c-.26.16-.58.29-.83.47-.44.31-.63-.16.43,0a2.26,2.26,0,0,0-1.3.25c-.14.07-.66.38-.24.46,1.6.31,3.68-1.33,4.82-2.2,2.51-1.91,4.51-4.7,4.43-8-.15-5.93-5.91-8.54-10.58-10.61a53.7,53.7,0,0,0-6.69-2.69,2.05,2.05,0,0,0-1.3.25c-.17.09-.64.35-.24.46Z"/><path class="cls-3" d="M559.08,583.46a17.88,17.88,0,0,0-14.34,5.24c-4.09,4-6.34,9.4-8,14.78-.19.63,1.78.36,2-.27,1.41-4.71,3.27-9.39,6.53-13.15,3.1-3.58,7.71-6.18,12.56-5.59a1.79,1.79,0,0,0,1.4-.37c.25-.27.28-.58-.17-.64Z"/><path class="cls-2" d="M807.1,687.66c1.44,1.1,25.07,24.27,25.07,24.27l-4,11.4-8.5,8.21A13,13,0,0,1,805.3,734l-10.84-4.94c-2.31,1.62-6.51-2.51-6.51-2.51,4.36,4.49-.78,9-.78,9l-5.08-3-2.69.11-6.24-5.7-2.76-8.15,3.1-7.88,9.27-2.36.4-.83-9,.16a56.74,56.74,0,0,1-6.06,9.83,4,4,0,0,1-.88,1,4.15,4.15,0,0,1-5.85-.53l2.09-13.11-2-1.37,6.85-14.52,8.35-5.55a5.89,5.89,0,0,1,4.09-.9c5.54.79,19.46,2.85,19.73,3A25.14,25.14,0,0,1,807.1,687.66Z"/><path class="cls-33" d="M783.69,708a20.63,20.63,0,0,0,.72,2.67,12,12,0,0,1-.25,6.35l-.11.41.33.24.34.27a8.87,8.87,0,0,1,3.17,5.64c.15,1.7,0,2.85.15,2.85"/><path class="cls-33" d="M776.35,713c-.07.16.87.5,1.86,1.62a5.43,5.43,0,0,1,1,5.47v.32l.2.25c.52.65,1.06,1.3,1.55,2a6.84,6.84,0,0,1,.36,9.86"/><path class="cls-33" d="M784.05,717.52c-.18-.27-1.26.11-2.45.85s-2,1.55-1.84,1.84"/><path class="cls-33" d="M788,726.56c.32,0-.63-1.74-2.16-3.6s-3.58-1.47-3.7-1.16"/><path class="cls-33" d="M792.82,727.73a24.24,24.24,0,0,0,2.56-19.82"/><path class="cls-33" d="M763.58,704.61c0,.13.8.56,2.24.38a7.87,7.87,0,0,0,4.69-2.65,14.49,14.49,0,0,0,2.65-4.6c.47-1.26.63-2.13.47-2.13"/><path class="cls-33" d="M783.53,706c.18.27,1.15-.11,1.77-1.14s.59-2,.25-2.11"/><rect class="cls-30" x="728.23" y="683.53" width="73.88" height="41.98"/><polygon class="cls-31" points="728.24 725.51 709.33 717.54 709.33 675.56 728.24 683.53 728.24 725.51"/><polygon class="cls-32" points="802.12 683.53 783.21 675.56 709.33 675.56 728.24 683.53 802.12 683.53"/><path class="cls-2" d="M790.22,702.86l7.23,3s7.34,13.92,13.62,20.2,25.7-8.12,25.7-8.12l-25.43-21.71L791,690.49l-18,.85C766.49,702.79,790.22,702.86,790.22,702.86Z"/><path class="cls-33" d="M825.08,708A3.49,3.49,0,0,0,824,706.7c-.71-.63-1.59-1.44-2.64-2.41l-9.9-8.68h0l-20.34-5.91H791l-18,.81h-.51l-.16.27-.13.32a8,8,0,0,0-1.08,3.43,5.16,5.16,0,0,0,1.12,3.46A11.85,11.85,0,0,0,778,701.4a43.45,43.45,0,0,0,12,1.68h-.2l5.77,2.4,1.23.39a123.71,123.71,0,0,0,9.54,15.06,48.32,48.32,0,0,0,3.21,3.79,9,9,0,0,0,1.3,1.17"/><path class="cls-3" d="M1020.68,745.74A15,15,0,0,1,1031.9,761c0,.2,1.83,0,1.86-.5a15.21,15.21,0,0,0-11.54-15.47,2.19,2.19,0,0,0-1.3.25c-.15.07-.64.34-.24.43Z"/><path class="cls-3" d="M149.37,912.62l11.87-11.15c1.8-1.69,3.67-3.31,5.48-5,3.58-3.34,6.93-6.92,10.38-10.4,6.82-6.86,14.66-14.55,24.51-16.51,5.35-1.06,10.88.17,15.89,2.09a31,31,0,0,1,16,12.74,29.58,29.58,0,0,0,4.4,4.89c1.52,1.43,3.11,3.3,5.14,4a31.47,31.47,0,0,0,5.25,1c5.94.83,12,1.19,17.93,1.53,7.52.43,15.06.72,22.59,1,10.36.32,20.73.58,31.09.65h.5c.36,0,1.07-.12,1.22-.52s-.12-.62-.52-.62q-13.38-.13-26.75-.52c-14.14-.38-28.38-.69-42.45-2.26a56.38,56.38,0,0,1-6.32-1,16.7,16.7,0,0,1-1.82-.52.94.94,0,0,1-.46-.24c-.51-.38-1-.83-1.46-1.24a58.54,58.54,0,0,1-4.81-4.64c-1.59-1.75-2.72-3.81-4.23-5.62A32.63,32.63,0,0,0,221.94,872a37.77,37.77,0,0,0-14.82-4c-9.82-.28-18.38,5.53-25.4,11.82-3.85,3.45-7.42,7.19-11,10.88-2.82,2.87-5.74,5.57-8.7,8.28-4.33,4-8.55,8-12.82,12l-1.31,1.23c-.81.76,1,.85,1.52.38Z"/><path class="cls-2" d="M714.91,632l22.78-2.31s24.78,11.81,39.47,12.73c10.64.27,36.15.8,46.46-1.86l22.07,3.27s13.62,9.32,16.84,5.28-.95-8.88-5-13.56-78.87-47.17-78.87-47.17A156.26,156.26,0,0,1,804.79,583c13.61-1.5,19.38-9.68,13.87-14.75-3.4-3.12-14.47-3.29-29.27-.35-7.79,1.55-23-2-36.5,1.39s-24,19.25-24,19.25c-6.92,2.72-17.42,4.45-17.42,4.45C706.38,605.51,714.91,632,714.91,632Z"/><path class="cls-3" d="M784.34,623.06a59.23,59.23,0,0,0,8.53.11,38.1,38.1,0,0,1,6,.24l4.8.51c7.12.76,14.48,1.94,20.4,6.29a12.85,12.85,0,0,1,3.47,3.54c.8,1.36.36,2.83.67,4.27.2.91,2.25.38,2-.55a10.74,10.74,0,0,1,0-1.61,7.12,7.12,0,0,0-.47-2.34,10.22,10.22,0,0,0-2.67-3.29,26.6,26.6,0,0,0-8.63-4.91,49.68,49.68,0,0,0-11.56-2.55c-1.66-.21-3.34-.38-5-.55-1.89-.2-3.83-.59-5.73-.65-2.13-.06-4.3.23-6.44.25a43.35,43.35,0,0,1-4.7-.2c-1-.1-2.1,1.29-.72,1.44Z"/><path class="cls-3" d="M784.11,606.46c-.24.83,2.74,2,3.22,2.31,3,1.64,6,3.25,8.95,5,2.69,1.59,5.3,3.3,8,4.87,1.09.65,2.83,1.77,4,.5.32-.36-.28-.43-.51-.43a2,2,0,0,0-1.36.51c.88-1,2-.18,1-.64-.32-.15-.62-.33-.92-.5-.88-.5-1.73-1-2.59-1.57-2.51-1.54-5-3.09-7.56-4.56-2.34-1.34-4.72-2.61-7.09-3.9-.3-.17-3.19-1.61-3.11-1.9.16-.53-1.86-.26-2,.32Z"/><path class="cls-3" d="M777.35,617a2,2,0,0,0,2.11-.75,7.66,7.66,0,0,0,1.08-2.7,21.12,21.12,0,0,0-.07-10.65,20.15,20.15,0,0,0-4.16-8c-.91-1.06-2.5-2.68-3.92-1.21-.34.35.29.43.51.43a2,2,0,0,0,1.36-.51c-1.69,1.75-2,0-1.28.65.2.19.43.35.64.55a14.34,14.34,0,0,1,1.57,1.82,20.48,20.48,0,0,1,3.23,6.86,21.1,21.1,0,0,1,.44,8.77,15.33,15.33,0,0,1-.76,3,7,7,0,0,1-.4.94c-.56,1-.07-.56,1.31,0-.5-.21-2.36.58-1.66.86Z"/></g></svg>