<svg xmlns="http://www.w3.org/2000/svg" viewBox="0 0 1303.15 1057.31"><defs><style>.cls-1{fill:#f2ead4;}.cls-2{fill:#a86e57;}.cls-3{fill:#c3a5cb;}.cls-4{fill:#502e27;}.cls-5{fill:#b45d32;}.cls-6{fill:#e28a3d;}.cls-7{fill:#d08c3e;}.cls-8{fill:#13110f;}.cls-9{fill:#231f20;}.cls-10{fill:#010101;}.cls-11{fill:#6f9991;}.cls-12{fill:#142b30;}.cls-13{fill:#ae3831;}.cls-14{fill:#681b12;}.cls-15{fill:#f68d3b;}.cls-16{fill:#b0532f;}.cls-17{fill:#d57138;}.cls-18{fill:#b23a2b;}.cls-19{fill:#43221c;}.cls-20{fill:#7a2f26;}.cls-21{fill:#4679b7;}.cls-22{fill:#192940;}.cls-23{fill:#3b6d9f;}.cls-24{fill:none;stroke:#502e27;}.cls-24,.cls-29{stroke-miterlimit:10;}.cls-25{fill:#251710;}.cls-26{fill:#fff;}.cls-27{fill:#663b2c;}.cls-28{fill:#65372b;}.cls-29,.cls-30{fill:#151210;}.cls-29{stroke:#231f20;stroke-width:0.89px;}.cls-31{fill:#1d1710;}.cls-32{fill:#f1eef6;}.cls-33{fill:#512a5f;}.cls-34{fill:#523835;}.cls-35{fill:#331741;}</style></defs><g id="Layer_1" data-name="Layer 1"><polyline class="cls-1" points="-12.74 1062.88 -12.74 -32.86 1320.29 -32.86 1320.29 1062.88"/><path class="cls-2" d="M1151.71,357.23,1153.3,339c4.82-19.33-1.92-49.73-10.92-58.69,0,0-3.36-9.59-18.15.74s-14.45,24.7-21.84,66.17l-.76,21.49c-6.06,31.66-8.33,70.63-8.71,77.29-1.7,29.42,32.82,120.2,32.82,120.2l21.81-6.89s-1.74-85.74-5.22-115.92Z"/><path class="cls-3" d="M1144.55,265.1c6.34,8.39,9.54,18.46,10.81,29.48,1.07,9.28,2.82,18.61,2.36,27.91-.32,6.43-.67,18.24-.67,18.24-2,1.13-11.7,1.34-14,1.59-26.06,2.78-54.41,5.07-76.51-9l-1.94-2.82c1.68-23.15,12-44.84,24.66-64.31,3-4.55,16.89-10.31,17.94-15.77.42-2.16,4.8-5.83,6.77-5.38,5.19,1.2,19.06,8.83,23,12.12A46.92,46.92,0,0,1,1144.55,265.1Z"/><path class="cls-2" d="M1103.88,568.3c-3.16-10.93,5.24-28.43,5.3-33.28a9.15,9.15,0,0,0-.61-2.62l26.53-16.21q1.32,2.53,2.94,5.21c12.69,20.76,17.17,35.11,16.12,47.37s-4.23,29.52-11.92,35.05-16.82,13.59-18.85,9.44,10-13.18,6.8-22.46-8.89-21.95-8.89-21.95-4,8.25-3.25,11.12,4.63,11.69-2.87,17.52-8-1.5-7.67-6S1107,579.23,1103.88,568.3Z"/><path class="cls-2" d="M432.07,382.88C410.33,344.05,503.12,515,503.12,515l172.62-31c-2,12.52,9.2,16.38,15.75,32.06,0,0-123.62,59.4-140.58,66.54-82.49,34.75-108.14-6.53-133.54-48-8.49-13.88-52.73-83.86-43.31-95.63C376.2,436.32,432.7,383.23,432.07,382.88Z"/><path class="cls-2" d="M289.4,285.76c-.51.88-6.5,6.33-9.92,7.14,3,7.76,1.5,30.1,8,35.58,12.33,10.37,42.56,41.39,58.61,41.89,14.28.44,49-13.59,32.94-49.75-3.83-9.75-6.24-11.43-6.35-13.09-.34-5,10.45-34.79,10.45-34.79L303.85,225S304.72,259.37,289.4,285.76Z"/><path class="cls-4" d="M374,302.94s-6.15-6.17-11.83-8.55-15.79-3.24-40-30.06a8.45,8.45,0,0,1,.13,2.1,25.6,25.6,0,0,0,1.49,5.7c2.71,7.18,7.88,13.24,13.63,18.2a84.64,84.64,0,0,0,14.1,9.81,52.23,52.23,0,0,0,14.63,6,39.8,39.8,0,0,0,4.61.72c.39,0,2.35.79,2.4.46Z"/><path class="cls-2" d="M429.42,130.76l.33.34a4.51,4.51,0,0,1-.26-.66Zm14,6a9.25,9.25,0,0,0,.58.73l.05-.26S443.52,136.45,443.45,136.77ZM320.32,264.15C331.15,281,352.19,300.39,374,304c7.83,1.29,17.2,2.31,23.58-1.62,6.19-3.8,10.77-9.18,15.69-14.39,4.45-4.72,9.33-9,13.41-14.08,9.14-11.45,18.36-19.34,18.31-40.86,0-4.75.23-10.77,1.48-15.15,1.45-5,6.84-25.83,9.72-37.6s-4.34-31.68-4.34-31.68c0-3.35-1.28-6-2.48-8.9l-1.39-.3a1.42,1.42,0,0,1,.42,1.43,11.73,11.73,0,0,1-4.4-3.28c-2.31.51-4.19-.9-5.6-2.87-.06.32.15,1,.5,1.11a7.19,7.19,0,0,1-5.18-3.11c-.06.32.15,1,.08,1.35a13.17,13.17,0,0,1-4.07-2.94c.23.49,8.37,1,8.32,1.17-2.16-.13.09,1.08-1.32-.89l-1.47-1.56c-1.82,0-2,1-3.1-.57.28.4-.21-3.73-.28-3.41-2.09-.45-1.49-.46-3-1.8-.07.32-6.15.87-6.22,1.19-1.74-.38-1.62,1.32-2.74-.26.28.4,1.54-1.07,1.82-.67-2.16-.13-3.23,1-4.63-.93.28.4-6.15-5-6.15-5-2.17-.13-1.95.6-3.42-1,.56.79-9.54-2.66-9.32-1.94-1.75-.37,2,7.1.77,5.84-.07.33-3.81-1.82-3.81-1.82-1.81,0,.47,2.11-.65.54-.07.31.07,1.35.42,1.43-2.3.51-4.6-.65-6.42-2.38.56.79.77,1.51,1.05,1.9-1.74-.37-3.21-.35-4.68-2-.07.31.43,1.42.78,1.5a7.07,7.07,0,0,1-5.45-1.83c-.07.32.49,1.11.77,1.5a5.07,5.07,0,0,1-4-1.53l.77,1.5c-1.4-.3-2.58.12-4.54-1-.07.32.56.79.5,1.11a13.22,13.22,0,0,1-3.43-1.06c-.06.32.85,1.18.5,1.11-1.4-.3-2.58.12-4.19-.9.28.4.49,1.11.77,1.51-1.39-.3-2.85-.28-4.11-1.22a2.39,2.39,0,0,0,.42,1.43c-1.4-.29-2.58.12-4.19-.89-.06.32.5,1.11.78,1.5a18.73,18.73,0,0,1-4.19-.89c-.07.32.56.79.84,1.18-1.39-.3-2.86-.27-4.47-1.29-.13.64.15,1,.08,1.36-1.05-.23-1.68-.69-2.72-.92l-1.88.27c-6.26,5.36-10.49,26.89-10.49,26.89-12.66,6.34-20.6,23-21.56,29.21s-5.5,18.91-5.5,18.91c-1.26-2.61-4.07-8.23-4.57-11-.57-2.46.74-5.19.17-7.66-2-5.79-9.36-5.68-13.88-3.3l-.86.92c-6.89,6.1-5.84,29.84-3.3,37.36-1.73,13.86,8.74,23.55,17.56,15.14l.76,5.71"/><path class="cls-5" d="M453.76,161.35c-4.48-20.46-26-35.3-68.95-50.08s-80.89-6-80.89-6c34-58.81,97.64-43.06,111.93-40S492,139.72,456.72,186.94l-3.09,3.66S454.58,165.07,453.76,161.35Z"/><path class="cls-5" d="M295.39,89.72S298.54,49,330.28,41.88C372.67,32.36,427,35.77,437.2,80.46Z"/><path class="cls-6" d="M278.87,186.61c-2.51-3.91.3-12.88-1.67-17.09-10.31-22-1.78-39.59,6.06-49.44,3.41-4.29,1.84-13.43,3-17.59,5.9-21.8,8.58-21.94,46.2-37.58,30.62-12.73,59.38-5.73,75.94-1.27,26.52,7.16,38,11.36,43.3,32.38.7,2.74-.58,3.41-.2,6.61.55,4.54,6.61,7.46,6.57,13.05,0,0-37.37,6.51-70.29,16.16S289.22,192.06,287.42,211C287.36,211.62,281.65,190.92,278.87,186.61Z"/><path class="cls-5" d="M273.41,149.42s78.71-64.5,134.17-53.24c0,0-83.92-19.26-126.24,25.16l-1.18,1.88a50.06,50.06,0,0,0-6.54,16.15Z"/><path class="cls-7" d="M300,222.81c-3.43-.38-5.62,2-6.6,4.76-1.76,5,2.75,10.1,7.76,8.44.19-.06.39-.14.58-.22,0,0-6.68,5.22-11.15.46s-1-10.63,1.15-12C296.46,221.26,300,222.81,300,222.81Z"/><path class="cls-8" d="M321,171.93l-8.5,30.75-8-16.08S316.23,176.07,321,171.93Z"/><path class="cls-9" d="M305,199.62c-2.07-.42-4.68-.18-4.77,2.45-.09,2.3,1,4.53.7,6.84-.08.74-.55,2.28-1.51,2.27-1.19,0-2.23-2.26-2.59-3.1a13.46,13.46,0,0,1-.7-8.69c.69-2.63,2-6.73,5.09-7.37.95-.19.66-1.21-.27-1-3.11.65-4.79,3.85-5.76,6.58a14.78,14.78,0,0,0-.68,8.2c.45,2.22,2.3,7.63,5.59,6.33,2.63-1,2.55-4.1,2.17-6.42a15.88,15.88,0,0,1-.51-4c.15-1.54,1.52-1.24,2.72-1,.74.15,1.52-.89.52-1.09Z"/><path class="cls-10" d="M401.82,245.52a9,9,0,0,1-8.37-2.37c-.47-.47-2.33-.51-1.68.15,2.75,2.79,8,4.1,11.44,3,.35-.11.35-.37,0-.59a2,2,0,0,0-1.38-.22"/><path class="cls-10" d="M390.88,242.35a14.41,14.41,0,0,0-4.94-2.5,1.12,1.12,0,0,0-.86.1c-.18.11-.26.3-.08.46a5.5,5.5,0,0,0,2.72,1.31,1.08,1.08,0,0,0,1-.18c.21-.22-.05-.46-.29-.5a4.35,4.35,0,0,1-2.19-1.07l-.95.56a13,13,0,0,1,4.41,2.26,1.12,1.12,0,0,0,1,.09c.22-.08.49-.32.23-.53"/><path class="cls-10" d="M383.65,241.06c-2.11-.5-4.39-2-5.06-3.92-1-2.89,1.31-6.63,4.3-7.71.33-.11.23-.38-.05-.5a1.65,1.65,0,0,0-1.18,0,8.19,8.19,0,0,0-5,6.41c-.16,2.31,1.53,4.31,3.92,5.5a11.23,11.23,0,0,0,2.27.84c.32.07.92.09,1.14-.14s-.05-.42-.35-.49"/><path class="cls-10" d="M405.94,245.2a.3.3,0,0,1,.36-.37,2.43,2.43,0,0,0,1.76-.22c.14.28.27.56.41.85a7.29,7.29,0,0,0-3.59.55.58.58,0,0,1-.65-.25c-.11-.15-.2-.47,0-.57"/><path class="cls-10" d="M404.27,245.19a8.16,8.16,0,0,1,4-.61.71.71,0,0,1,.51.39.35.35,0,0,1-.11.46"/><path class="cls-10" d="M410.27,246.44a4.46,4.46,0,0,0,4.26-1.95,7.07,7.07,0,0,0-.09-7.58.28.28,0,0,1,.2-.45.79.79,0,0,1,.68.4,7.83,7.83,0,0,1,.92,6.62,5.27,5.27,0,0,1-4.13,3.78,4.78,4.78,0,0,1-1.6,0c-.21,0-.56-.22-.61-.51s.18-.37.37-.33"/><path class="cls-8" d="M436.06,206.82a5.59,5.59,0,0,1,5.5,2.16,5.45,5.45,0,0,1,.74,2.6,5.14,5.14,0,0,1-2.17,4.34,4.78,4.78,0,0,1-5.58-.21,5.29,5.29,0,0,1-1.26-6.56,4.72,4.72,0,0,1,2.77-2.33"/><path class="cls-8" d="M415.52,208.56s11-5.4,15.93-4.85c7.19.8,15,6.55,16.77,10.57,0,0-10.23-8.28-15.31-8.7C428.06,205.18,415.52,208.56,415.52,208.56Z"/><path class="cls-8" d="M377.74,194.3c-1.72-1.41-4.9-1.8-6.4-1a5,5,0,0,0-2,2,5.14,5.14,0,0,0,.22,4.84,4.78,4.78,0,0,0,5.17,2.09,5.3,5.3,0,0,0,3.84-5.48c0-.4.51-1.05-.88-2.19"/><path class="cls-8" d="M385.67,201.09s-9.2-9-14.41-10.31c-7.59-1.86-17.67.67-20.92,3.8,0,0,13.43-4,18.75-2.58C374.17,193.39,385.67,201.09,385.67,201.09Z"/><path class="cls-8" d="M448.12,206.32a2.09,2.09,0,0,1,.74.22c.33-.27.65-.54,1-.83a5.49,5.49,0,0,0,.52-.65,1.19,1.19,0,0,0,.08-.2,17.28,17.28,0,0,0-.8-5.48,19.9,19.9,0,0,0-4-6.43c-2-2.24-8.46-7.18-18.12-12.07l-2.41,3.66q-.93,1.4-1.83,2.79c3.62,1.28,6.61,2.54,8.84,3.54,4.7,2.12,7.1,3.22,9.29,5.27a27.64,27.64,0,0,1,4.44,5.52,17.38,17.38,0,0,1,1.92,3.54C447.94,205.6,448,206,448.12,206.32Z"/><path class="cls-8" d="M396.69,171c-.1,1.45-.21,2.91-.32,4.37-.08,1.11-.17,2.22-.26,3.33-4.36-1.23-8.11-2.1-10.95-2.69-6-1.25-9.06-1.87-12.61-1.62a38.68,38.68,0,0,0-8.19,1.6,23.42,23.42,0,0,0-4.36,1.59c-3.1,1.61-4.46,3.57-4.94,3.36s.42-1.94.51-2.11a17.94,17.94,0,0,1,6.85-7,26.12,26.12,0,0,1,8.38-2.59c3.53-.52,13.19-.41,25.89,1.73"/><polygon class="cls-11" points="-30.19 1116.04 1353.34 1116.04 1353.34 883.76 -24.98 883.76 -30.19 1116.04"/><path class="cls-2" d="M202.84,893.16c-3.15-7.61-12.24-15.68-18.7-19.42s-14.29-.27-16.39.62c-15.61,6.61-23.69,19.53-36,30.65a156.27,156.27,0,0,1-31.1,21.88c-11.4,6.1-23.8,9.19-35.34,14.7l-.25.12a27.34,27.34,0,0,0-13,13.12c-1,2.1-2,4.16-3.08,6.11-1.52,2.7-3.16,4.72-1.58,7.91,2.93,5.88,12.77-.84,15.65-2.07a3.48,3.48,0,0,1,1.69-.26c2.31.21,9.13.45,20.63-2a32.58,32.58,0,0,1,3.27-.52h0c6.11-1,33.64-2.24,38.58-2.72C137,960.29,166.8,954,166.8,954c3.41-.47,45.15-16.55,61.77-6.33l6.34-38.69S206,900.77,202.84,893.16Z"/><path class="cls-2" d="M253,835.9c-3.15-7.61-12.24-15.68-18.7-19.42s-14.29-.27-16.39.62c-15.61,6.61-23.69,19.53-36,30.65a156.27,156.27,0,0,1-31.1,21.88c-11.4,6.1-23.8,9.19-35.34,14.7l-.25.12a27.34,27.34,0,0,0-13,13.12c-1,2.1-2,4.16-3.08,6.11-1.52,2.71-3.16,4.72-1.58,7.91,2.93,5.88,12.77-.84,15.65-2.07a3.48,3.48,0,0,1,1.69-.26c2.31.21,9.13.45,20.63-2a32.58,32.58,0,0,1,3.27-.52c0,.07,0-.06,0,0,6.11-1,33.64-2.23,38.59-2.72C187.16,903,217,896.7,217,896.7c3.41-.47,45.61-11.46,62.24-1.24l5.87-43.78S256.16,843.51,253,835.9Z"/><path class="cls-2" d="M171.9,732.76c1,35-8.68,110.48,99.51,115.74l-49.34-10.8L222,922.77s322.05-2.1,331.52-2.23c18.23-.2,59.94-22.78,50.19-77-8.83-49.16-38.93-68.56-52.58-78.58s-219.54-90.34-277.4-99l-86,47.29Z"/><path class="cls-2" d="M151.92,776.69c6.29,34.42,24.63,72.51,67.73,89.76l-7.47,15.11c-13.8,27.92-25.35,30.34-17.47,60.47l5.17,1S479,983.91,524.06,968.31c18-3,57.07-32.61,55.36-87.73s-48.95-61.81-64-69.62-172.18-32.32-230.7-32.07L218.58,736Z"/><path class="cls-12" d="M166,623.11c.31-1.17,1.8-2.9,2-4.24,2.51-1.69.79.77,6.37-3.34a240.94,240.94,0,0,0,26.49,7.75c21.89,5,44.65,6,67,5.45,24.47-.55,48.84-3.05,73.19-5.4,21.08-2,42.2-4,63.37-4.47L408,663.41,575.21,778s53.6,41,2.16,86.38c-38.62,34.09-148.51,51-148.51,51-1,1.89-27.24-3.34-42.61-5.47-19.07-4.26-139.91-29.69-151-31.88-54.9-10.83-109.41-51-114.4-108.11-2.74-31.22,2-70.2,15.57-98.58C143,657.58,162.2,637.79,166,623.11Z"/><path class="cls-13" d="M435.64,484.94c5.05,43.51.17,56.6-9.12,66.57-11.9,12.76-22.44,5.86-28.74,16.47-12.48,21,1.93,57.44,8.11,89.82,0,0-80.23,22.47-137.62,21.93s-129.14-27.14-129.14-27.14c26-49.29,42.85-76.74,42.85-76.74l-6.23-95.92-5.34-71.36c-1.69-50.72,27.12-82.14,57.35-93.68l51.89-24.12s22.89,62.9,71.19,60.46,21.75-42.82,21.75-42.82,37.37,19,47.94,29S441.9,350.05,460.81,402c11.05,30.38,27.79,50.75,30.05,56.19s-53.74,41.08-53.74,41.08"/><path class="cls-4" d="M575.45,915.55c4.73-13.66,8-28.36,6.41-42.88a59,59,0,0,0-1.75-9c-.19-.67-2.05-.17-1.87.5,3.41,12.26,2.38,25.22-.5,37.47a142.94,142.94,0,0,1-4.16,14.18c-.23.65,1.65.42,1.87-.22Z"/><path class="cls-4" d="M128.32,908.67,140.26,900l5.5-4a56.93,56.93,0,0,0,7.08-6.81c6.45-6.77,12.61-14.15,20.45-19.4,5.3-3.55,11.32-5.71,17.73-4.8a37.3,37.3,0,0,1,19.42,8.53c3.37,3,5.55,6.93,8.84,10,1.3,1.22,2.66,2.38,4.05,3.5a4.63,4.63,0,0,0,1.51.9,24.9,24.9,0,0,0,5.13,1c2.67.34,5.34.53,8,.69,6.81.41,13.63.54,20.44.61q15.69.16,31.37-.19h.54c.37,0,1.07-.06,1.32-.35s.36-.41-.1-.4c-9.05.21-18.11.27-27.17.23-7.16,0-14.33-.13-21.48-.45-5-.22-10.32-.32-15.26-1.48-1.84-.44-2.89-1.41-4.33-2.65a48.61,48.61,0,0,1-4.54-4.31c-1.53-1.68-2.66-3.65-4.18-5.35-5.21-5.8-12.62-9.25-20.19-10.68a27.47,27.47,0,0,0-16,1.6c-8.6,3.56-15.36,10.49-21.64,17.15-4.6,4.87-9,10.08-14.42,14L128,907.83l-1.09.79c-.74.54,1.1.28,1.43,0Z"/><path class="cls-14" d="M435.6,437c-4.9,5.76-6,13.59-5.15,20.89.91,8.12,2.35,16.17,3.27,24.3.59,5.24,1,10.5,1.12,15.78,0,1.74,3.27,1.32,3.24-.21a225.48,225.48,0,0,0-2.39-25.94c-.54-3.86-1.12-7.71-1.64-11.57a43,43,0,0,1-.39-11,21.12,21.12,0,0,1,4.63-11.23,1,1,0,0,0-.44-1.65,2.09,2.09,0,0,0-2.25.61Z"/><path class="cls-2" d="M186.2,392.18c-5.08-37.35,26.65-53.2,54-49.1,13.83,2.08,17.57,29.23,17.57,29.23,24.86,46.22,62.44,179.29,69.2,205.42-4.36,2.38-10.2,1-13.95,4.29-13.12,11.4-22.06,7.2-27.75,23.54-2.83,8.1-1.88,27.59-2.3,36.28-19.66-14-32.63-50.64-41.62-72-13.53-32.09-23.5-65.39-33.89-98.57C199.38,445.58,189.84,419,186.2,392.18Z"/><path class="cls-13" d="M247.8,318.11s-64,23.22-70.28,60.4,14.72,102.4,14.72,102.4S265.42,470.28,299,450.54,247.8,318.11,247.8,318.11Z"/><path class="cls-14" d="M214.13,338.25c5.31-1.7,11.07-1.54,16.51-.59A50.94,50.94,0,0,1,247,343.45c5.12,2.89,9.1,7.09,13.14,11.3a160.67,160.67,0,0,1,11,12.62,98.47,98.47,0,0,1,13.42,22.88,175.19,175.19,0,0,1,7.42,24c3,12.05,6,24.11,9.64,36l.63-.86L291.8,454c-1.37.61-.15,1.61.92,1.14l10.43-4.59c.29-.12.74-.47.63-.86-3.39-11.05-6.21-22.25-9-33.47-2.12-8.48-4.28-17-7.49-25.15a99,99,0,0,0-13-23.14,149.29,149.29,0,0,0-10.69-12.59c-4-4.3-8.12-8.87-13.15-12a52.14,52.14,0,0,0-18-6.92c-6.11-1.15-12.64-1.38-18.62.54-1.3.41-1,1.76.36,1.33Z"/><path class="cls-2" d="M326.44,642.6s-13.54,12.72-38.76,2.09-23.91-61.48-22.9-83.15c1-22.23,64.54,17.66,64.54,17.66Z"/><path class="cls-14" d="M207.49,477.84c-1.9.61-3.79,1-5.73,1.42-1,.22-2,.48-3,.78-.64.2-1.41.62-2.05.42s-.91-1.07-1-1.8c-.44-3.07-.75-6.14-1.33-9.19s-1.3-6.11-2.07-9.14c-3.07-12.06-6.71-24-9.63-36.08a91.64,91.64,0,0,1-2.91-20.63c0-.35-2.18,0-2.17.58.12,13.2,4.32,25.85,7.61,38.5,1.7,6.54,3.65,13,5.27,19.58.79,3.18,1.5,6.39,2.06,9.62.27,1.55.5,3.1.7,4.66.16,1.27,0,3.15.81,4.22s2.17.74,3.22.45c1.39-.37,2.73-.87,4.14-1.18,2.33-.51,4.61-1,6.89-1.73.22-.07.85-.3.65-.61s-1.21.06-1.4.13Z"/><rect class="cls-15" x="690.05" y="942.47" width="76.48" height="41.98"/><polygon class="cls-16" points="690.05 984.45 670.48 976.48 670.48 934.5 690.05 942.47 690.05 984.45"/><polygon class="cls-17" points="766.53 942.47 746.96 934.5 670.48 934.5 690.05 942.47 766.53 942.47"/><rect class="cls-18" x="767.58" y="877.65" width="47.5" height="41.98"/><polygon class="cls-19" points="767.58 919.63 755.43 911.66 755.43 869.68 767.58 877.65 767.58 919.63"/><polygon class="cls-20" points="815.08 877.65 802.93 869.68 755.43 869.68 767.58 877.65 815.08 877.65"/><rect class="cls-15" x="837.94" y="954.38" width="46.84" height="41.98"/><polygon class="cls-16" points="837.95 996.36 825.96 988.39 825.96 946.41 837.95 954.38 837.95 996.36"/><polygon class="cls-17" points="884.78 954.38 872.8 946.41 825.96 946.41 837.95 954.38 884.78 954.38"/><rect class="cls-15" x="759.55" y="831.95" width="46.84" height="41.98"/><polygon class="cls-16" points="759.55 873.93 747.57 865.96 747.57 823.98 759.55 831.95 759.55 873.93"/><polygon class="cls-17" points="806.39 831.95 794.4 823.98 747.57 823.98 759.55 831.95 806.39 831.95"/><path class="cls-2" d="M301.07,652c-6.88-3.4-14.92-6.68-20.05-12,.16-1.09.17-1.09.39-2.16,3.08-15.76,11-30.69,21.44-42.77,7.24-8.35,10.39-17,20.67-21.42.33,2.16,6.33,4.39,6.33,4.39L498,644.83l4.61,36.09c-67.54-1.46-131.68-9.35-196.77-27.52Q303.46,652.74,301.07,652Z"/><path class="cls-4" d="M296.55,606.94c.35-6.24,1.9-12.55,5.84-17.53,3.49-4.42,8.41-7.31,13.55-9.43a104,104,0,0,1,10-3.44c1.08-.32.92-1.06-.19-.73-11.47,3.41-24,8.05-28.78,20.07a36.52,36.52,0,0,0-2.31,11.56c0,.39,1.83.13,1.86-.5Z"/><rect class="cls-21" x="714.76" y="876.29" width="44.46" height="41.98"/><polygon class="cls-22" points="714.76 918.27 703.38 910.3 703.38 868.32 714.76 876.29 714.76 918.27"/><polygon class="cls-23" points="759.55 876.18 748.17 868.22 703.72 868.22 715.09 876.18 759.55 876.18"/><path class="cls-4" d="M503.76,512.76a16.94,16.94,0,0,0-11.41,8.14c-3.05,5.07-3.61,11.12-3.56,16.91,0,.54,1.95.19,1.95-.52,0-5.18.42-10.58,2.79-15.27,2-3.91,5.5-7.46,9.94-8.27.29,0,1.1-.23,1.12-.63s-.54-.42-.83-.36Z"/><path class="cls-24" d="M817.6,725.5c-.2-.25-1.25.22-2.37,1.06s-1.91,1.71-1.68,2"/><path class="cls-24" d="M796.12,714.35c0,.13.86.49,2.27.19a7.93,7.93,0,0,0,4.46-3,14.72,14.72,0,0,0,2.25-4.81c.37-1.29.45-2.17.29-2.16"/><path class="cls-24" d="M816.13,714.09c.2.26,1.13-.2,1.67-1.28s.41-2.09.07-2.13"/><rect class="cls-18" x="763.3" y="790.22" width="46.09" height="41.98"/><polygon class="cls-19" points="763.29 832.2 751.5 824.23 751.5 782.25 763.29 790.22 763.29 832.2"/><polygon class="cls-20" points="809.38 790.22 797.59 782.25 751.5 782.25 763.29 790.22 809.38 790.22"/><rect class="cls-21" x="747.6" y="746.22" width="76.48" height="41.98"/><polygon class="cls-22" points="747.6 788.2 728.03 780.23 728.03 738.25 747.6 746.22 747.6 788.2"/><polygon class="cls-23" points="824.08 746.22 804.51 738.25 728.03 738.25 747.6 746.22 824.08 746.22"/><path class="cls-25" d="M391.8,257.32c-8.28-1.91-27.8-.77-32.27,1.79,0,0,7.86,9.14,27.06,13.57s22.06-3.26,22.06-3.26S402.34,259.76,391.8,257.32Z"/><path class="cls-26" d="M368.21,257.13s10.05,1.44,17.91,3.25,17.51,4.94,17.51,4.94,2.71-5.94-11.54-9.24S368.21,257.13,368.21,257.13Z"/><path class="cls-27" d="M387.45,273c-8.68-3.44-17.27-12.15-27.92-13.88,0,0,.21,16.51,22.79,21.72s26.33-11.41,26.33-11.41C398.33,266.31,396.75,273.71,387.45,273Z"/><path class="cls-27" d="M402.71,254.83c-4.65-1.46-8.1-.25-10.16-.73s-4.63-3.08-9.46-3.8c-4.52-.68-26,6.51-24.22,8.49s18.27-3.12,32.55.18,14.79,11.46,17.23,10.45S407.07,256.21,402.71,254.83Z"/><path class="cls-4" d="M416.4,175.9s-11.41,9.41-.62,13.76C415.78,189.66,409.08,186.61,416.4,175.9Z"/><path class="cls-4" d="M409.82,173.45s3.79,16.36-10.1,12.23c0,0,9.63,3.27,10.2-11.74"/><path class="cls-2" d="M617.19,699.5c-3.56-5-76.56-55.78-76.56-55.78a165.88,165.88,0,0,1,27-2c13.91.21,18.9-5.16,16.39-12-1.8-4.92-20.3-7.3-30.23-4.39-7.58,2.22-23-4.77-37-3.12s-26.47,15.59-26.47,15.59c-1.65.41-4.1.91-6.72,1.41l-1,0c-.15,2.44-.25,4.9-.23,7.35.1,12.58-8.19,20.72-3.7,32.91l27.8,4.34s15.08,11.81,29.81,14.5c25.75,5.61,33.92,4.43,35,.81l15.24,5.24a21.82,21.82,0,0,0,7.51,1.18l7.88-.17s12.69,10.64,16.41,7.13S620.76,704.5,617.19,699.5Z"/><path class="cls-28" d="M603.83,704.65a161.38,161.38,0,0,0-14.49-9.16c-5.91-3.52-11.87-7-17.67-10.67a74.37,74.37,0,0,1-6.91-4.77c-.83-.67-4.26.84-3.65,1.33,4.42,3.57,9.48,6.43,14.34,9.35,5.9,3.55,11.87,7,17.72,10.61,2.38,1.48,4.77,3,7,4.64.6.45,1.89,0,2.5-.2.24-.09,1.71-.71,1.15-1.13Z"/><path class="cls-28" d="M571.63,698.29,548,685.4l-3.4-1.85a3.15,3.15,0,0,0-2.53.11c-.2.08-1.8.92-1.1,1.3l23.67,12.88,3.4,1.85a3.15,3.15,0,0,0,2.53-.11c.21-.08,1.8-.92,1.11-1.29Z"/><rect class="cls-15" x="757.31" y="701.79" width="71.04" height="41.98"/><polygon class="cls-16" points="757.31 743.77 739.13 735.8 739.13 693.82 757.31 701.79 757.31 743.77"/><polygon class="cls-17" points="828.34 701.79 810.17 693.82 739.13 693.82 757.31 701.79 828.34 701.79"/><path class="cls-9" d="M1079.26,177.83c3.66-8.1,2-20-7-23.18a24.81,24.81,0,0,0-6.86-1.07L1055.1,153a32,32,0,0,0-9.28.33c-5.44,1.27-9.62,5.4-12.08,10.1s-3.45,10-4.42,15.2c-.88,4.79-1.44,10.51,2.43,13.91,2.29,2,5.54,2.59,8.22,4.09,2.4,1.34,4.27,3.37,6.44,5,7.41,5.64,18.57,6.22,26.15,1.36"/><path class="cls-9" d="M1065.64,149.79c3.66-8.11,2-20-7-23.19a25.71,25.71,0,0,0-6.87-1.07l-10.27-.62a31.91,31.91,0,0,0-9.27.32c-5.44,1.28-9.62,5.4-12.09,10.1s-3.45,10-4.41,15.21c-.89,4.78-1.45,10.51,2.43,13.91,2.28,2,8.6,8.55,9.82,11.36,3.69,8.46,2.66-3.9,4.83-2.25,7.41,5.63,18.58,6.21,26.15,1.36"/><path class="cls-9" d="M1068.33,123.71c3.65-8.11,2-20-7-23.19a24.88,24.88,0,0,0-6.87-1.07l-10.27-.63a32.26,32.26,0,0,0-9.27.33c-5.44,1.28-9.62,5.4-12.09,10.1s-3.45,10-4.41,15.21c-.89,4.78-1.45,10.51,2.43,13.9,2.29,2,5.54,2.6,8.22,4.1,2.39,1.34,4.26,3.37,6.44,5,7.4,5.63,18.57,6.21,26.15,1.35"/><path class="cls-9" d="M1086.34,97.58c3.66-8.11,2-20-7-23.18a25.2,25.2,0,0,0-6.86-1.08l-10.27-.62a32.26,32.26,0,0,0-9.27.32c-5.44,1.28-9.62,5.4-12.09,10.1s-3.45,10-4.41,15.21c-.89,4.78-1.45,10.51,2.43,13.91,2.28,2,5.53,2.59,8.21,4.09,2.4,1.34,4.27,3.37,6.44,5,7.41,5.63,18.58,6.21,26.15,1.36"/><path class="cls-9" d="M1106.08,83.91c3.66-8.11,2-20-7-23.19a24.81,24.81,0,0,0-6.86-1.07L1081.92,59a32.33,32.33,0,0,0-9.28.33c-5.44,1.28-9.62,5.4-12.08,10.1s-3.45,10-4.42,15.21c-.88,4.78-1.44,10.51,2.43,13.9,2.29,2,5.54,2.6,8.22,4.09,2.4,1.34,4.27,3.38,6.44,5,7.41,5.63,18.57,6.21,26.15,1.35"/><path class="cls-9" d="M1136,80.49c3.66-8.1,2-20-7-23.18a24.94,24.94,0,0,0-6.87-1.07l-10.27-.63a31.9,31.9,0,0,0-9.27.33c-5.44,1.28-9.62,5.4-12.09,10.1s-3.45,10-4.41,15.21c-.89,4.78-1.45,10.5,2.43,13.9,2.28,2,5.54,2.59,8.21,4.09,2.4,1.34,4.27,3.37,6.44,5,7.41,5.63,18.58,6.21,26.15,1.35"/><path class="cls-9" d="M1182.91,106.81c4.81-12.49-14.45-31-23.45-34.21-2.2-.78-1.8-6.12-10.85-8.72-3.29-1-6.84-.42-10.27-.63a32.26,32.26,0,0,0-9.27.32c-5.44,1.28-9.62,5.4-12.09,10.11s-3.45,10-4.41,15.2c-.88,4.79-1.45,10.51,2.43,13.91,2.29,2,5.54,2.59,8.22,4.09,2.39,1.34,4.26,3.37,6.44,5,7.41,5.64,18.57,6.22,26.15,1.36"/><path class="cls-29" d="M1028.73,159.62c1.67,9.88,4.38,20.14,10.39,28.33,6.15,8.38,16,12.58,25.49,16.12,18.44,6.91,38.77,9.45,58.14,5.17a81.76,81.76,0,0,0,49.16-32.84,112.69,112.69,0,0,0,17.84-39.87c0-1,0-2,0-3-1.58-28.29-7.53-37.75-31.24-50.56-14.5-8-24.47-21.66-51.52-20.59-5.83.23-13.33,4.14-21,5.14-11.6,1.51-25.28,6.25-32.27,13.17-13.3,13.2-19,37-26.61,55.6A101.84,101.84,0,0,0,1028.73,159.62Z"/><path class="cls-2" d="M1172.66,201.27c3.09-7.4.78-12,1.13-16.93,1.14-3.51,2.45-7.6,4-12.53.44-1.43.83-2.82,1.21-4.19a12.86,12.86,0,0,1,.57-2.13c6.26-24.43,2-39.42,2-39.42a55.43,55.43,0,0,0-39.91-38.35c-22.45-6-46.55,1.65-61,12.24a36.24,36.24,0,0,0-14.06,21.65c-1.6,7.43-1.4,13-1.74,21.45-7.69-2.63-16.15-2.07-17.5,13.13-1.87,21,8.25,30.56,16.94,26.9,2.82,3,1.16,11.66.28,15.9-1.69,8.1-6.07,21.24-12,27l-.45,2.31c8.92,32,20.45,49.72,82.66,50.46l-16.29-32.25,1.85-7.52a52,52,0,0,0,10.12,1.44C1149.76,241.05,1169,210,1172.66,201.27Z"/><path class="cls-4" d="M1120.18,239s-21.75-4.49-37.2-22.66c0,0,.45,7.07,12.66,15.85s23.29,10,23.29,10Z"/><path class="cls-30" d="M1069.82,157.11c0-.13,2-4.78.6,1.22-.72,3-1.33-7.61-3-10.27a15.84,15.84,0,0,0-2.89-3.56,16.43,16.43,0,0,0-3.79-2.67c-1.9-1.09-8,.6-10.16.61-.38.05,3.26-2.12,2.87-2.07-.46-18.47,1.14-33.12,19.44-50.45,5.28-5,16.58-9,20.06-10.27,21.07-7.81,37-4.32,55.69,3,21.68,8.49,40.77,24.38,39.54,48.36-.29,5.78-.58,8.16-2.67,13.55,0,0,2.38-12.59-6.57-22s-12.35-3.31-27.68-7.27c-17.72-4.65-20.82-15.86-37-12.47-14.82,3.12-19.16,8.06-19.16,8.06-1.75,3-4.48,5.25-6.67,7.91a29,29,0,0,0-4.68,8.83c-2.31,6.51-4.88,13-6.27,19.74-.85,4.22-1.59,9.93-6.32,11.56C1069,159.61,1071.52,158.29,1069.82,157.11Z"/><path class="cls-9" d="M1071.12,157c-.08.41.19-.39.28-.57s.19-.34.26-.51.1-.13.11-.2c0,.12-.26.69-1.35.48l-.73-.37c-.2-.2,0-.26-.08.07s-.09.66-.15,1a5.61,5.61,0,0,0-.34,1.56c0,.14,0,.17,0,.08-.18.39.09.21.83-.53l1,0c.47.12.29.32.31.16a2.11,2.11,0,0,0-.14-.49c-.1-.41-.18-.82-.25-1.23-.23-1.2-.42-2.41-.65-3.61a15.58,15.58,0,0,0-2.67-6.87c-1.88-2.53-5-5.35-8.3-5.43a25.76,25.76,0,0,0-4.63.45c-.7.11-1.39.23-2.09.33l-1,.14c-.09,0-.83,0-.51.05l.86.84c-.27,1-.52.58-.15.42a3,3,0,0,0,.44-.29c.39-.27.79-.52,1.18-.78.56-.37,1.26-.72,1.45-1.41.13-.49-.49-.79-.86-.84h0l.86.83a93.92,93.92,0,0,1,1-19,49.42,49.42,0,0,1,7.09-17.95,65.26,65.26,0,0,1,7.3-9.2,37.3,37.3,0,0,1,8.22-7,91.74,91.74,0,0,1,15.72-6.92,63.72,63.72,0,0,1,24.52-4,81.54,81.54,0,0,1,22.71,4.86c13,4.52,25.93,10.74,35.15,21.26a41.66,41.66,0,0,1,9.1,16.5,38.82,38.82,0,0,1,1.34,9.88,45.17,45.17,0,0,1-1,10.44,40.17,40.17,0,0,1-1.7,5.25l2.53.05a27,27,0,0,0-.33-10.05,25.93,25.93,0,0,0-10-15.72c-3.64-2.65-7.64-2.84-12-2.84a48.31,48.31,0,0,1-18.81-3.59c-5.32-2.22-9.86-5.73-15-8.33a24.46,24.46,0,0,0-16.22-2.16c-6,1.14-12.09,3-17.29,6.16a19.4,19.4,0,0,0-2.76,2,6.47,6.47,0,0,0-.53.52c-.47.58-.82,1.29-1.28,1.89-.63.82-1.32,1.59-2,2.35-2.67,2.87-5.12,5.64-6.78,9.23-1.74,3.76-3,7.8-4.35,11.71a90.87,90.87,0,0,0-3.48,12.21c-.55,2.74-1,5.78-2.63,8.11a5.87,5.87,0,0,1-1.47,1.47,4.2,4.2,0,0,1-.8.45,5,5,0,0,0-.58.22c-.36.23-.49-.33.42.09l.54.52c.11.36,0,.19.14-.14a2.19,2.19,0,0,0,.11-.71,2,2,0,0,0-.93-1.49c-.88-.71-3.13.56-2,1.48.77.62-.57,1.57.63,2.07s2.72-.43,3.62-1c2.52-1.52,3.79-4.17,4.56-6.91,1-3.4,1.44-6.9,2.42-10.3,1.25-4.29,2.84-8.48,4.35-12.68,1.4-3.88,2.92-7.58,5.68-10.72,1.28-1.45,2.67-2.8,3.93-4.27.78-.92,1.42-1.92,2.11-2.9a1,1,0,0,1,.18-.18c-.16.18,0,0,.23-.2.45-.36.9-.71,1.38-1a30.74,30.74,0,0,1,5.49-2.85,61.68,61.68,0,0,1,10.3-3.1,23.48,23.48,0,0,1,9.33-.4c5.2,1,9.53,4.3,14,6.93a51.64,51.64,0,0,0,19.45,7,60,60,0,0,0,8,.43,24.21,24.21,0,0,1,5.77.41,13.66,13.66,0,0,1,5.74,3.28,24.37,24.37,0,0,1,6.23,8.47,27.5,27.5,0,0,1,2,14c0,.26-.06.53-.11.8-.24,1.25,2.19.92,2.53.05a42.56,42.56,0,0,0-4.79-39.58c-8-11.37-20.65-18.74-33.4-23.67-7.64-3-15.5-5.52-23.65-6.61a64.23,64.23,0,0,0-24.46,1.48,105,105,0,0,0-18.68,6.89,42.7,42.7,0,0,0-8.71,5.22,61.14,61.14,0,0,0-8.55,8.92,53.67,53.67,0,0,0-10,18.7,68.82,68.82,0,0,0-2.36,19.17c0,1.75,0,3.49.06,5.23,0,.51.38.77.86.84h0l-.85-.84c.26-1,.51-.58.14-.42a3,3,0,0,0-.43.3l-1.19.77c-.56.37-1.26.72-1.44,1.41-.14.49.49.79.85.84a17.49,17.49,0,0,0,4.59-.56c1.53-.24,3.44-.72,5-.26a8.83,8.83,0,0,1,2.74,1.75,15.62,15.62,0,0,1,2.78,2.79,10.66,10.66,0,0,1,1.94,4c.36,1.46.62,2.94.88,4.41a19.11,19.11,0,0,0,.67,3.3,1.54,1.54,0,0,0,2.66.37,2.72,2.72,0,0,0,.47-1.2,10.87,10.87,0,0,0,.46-2.51c0-1.55-1.91-1.37-2.68-.42a5.63,5.63,0,0,0-1,2.13C1068.26,158.47,1070.88,158.16,1071.12,157Z"/><ellipse class="cls-9" cx="1168.4" cy="176.03" rx="4.96" ry="4.94" transform="translate(432.47 1100.46) rotate(-60.04)"/><path class="cls-30" d="M1174.1,173.7a13.39,13.39,0,0,0-8.49-5c-7.54-1.51-14.24,5.75-14.24,5.75a22,22,0,0,1,13.82-2.57,25.56,25.56,0,0,1,10.87,5.37C1176.19,176.57,1175.18,175,1174.1,173.7Z"/><path class="cls-9" d="M1052.73,158.62a10.56,10.56,0,0,1,1.84-7c.12-.16.87-1.13.16-.38,0-.05-.13,0,0,0a1.19,1.19,0,0,0,.32,0c2-.1,3.62,1.78,4.37,3.63a22.64,22.64,0,0,1,1.16,9.17l1.15-.31a3.68,3.68,0,0,0-2.57-1.6,2.72,2.72,0,0,0-2.48,2c-1.19,3.1,1.17,5.54,3.87,6.65.44.18,1.39-.45.71-.73-2.13-.88-4-2.66-3.62-5.15.1-.59.51-2.05,1.3-2,.63,0,1.33.83,1.69,1.3.23.3,1.14.11,1.15-.31a23.88,23.88,0,0,0-1.06-9.13,7,7,0,0,0-2.76-3.65c-1.14-.67-3.12-1.17-4.13-.06-1.93,2.1-2.42,5.16-2.3,7.91,0,.47,1.22.2,1.2-.32Z"/><path class="cls-31" d="M1114.5,159.87a4.94,4.94,0,1,0,5.15-2.67A4.95,4.95,0,0,0,1114.5,159.87Z"/><path class="cls-30" d="M1129.22,168.52s-1.27-11.18-12.06-14.08c-9.18-2.46-13.89,1.12-16.66,3.39a28,28,0,0,1,15.79-.75C1124.42,159,1129.22,168.52,1129.22,168.52Z"/><path class="cls-32" d="M1131.87,207.45c-3.25-1-13-4.41-13-4.41s2.56,4.47,12.31,7.35,13.84.47,13.84.47Z"/><path class="cls-8" d="M1134.32,143.77c0-.18-.58-.18-.58-.36-9.34-2.07-16.42-2.09-19-1.53a17.75,17.75,0,0,0-5.64,2.4s-4.94,3-5.52,4.2,3-.65,3-.65a14.94,14.94,0,0,1,2.1-.73c4.39-.84,8.57-2.29,13-1.79,3.8.4,9,2.59,12.63,4C1134.43,147.39,1134.1,145.65,1134.32,143.77Z"/><path class="cls-8" d="M1160.93,153.13c.1-.15.52.15.62,0,7.85,3.05,12.89,6.62,14.4,8.38a14.29,14.29,0,0,1,2.62,4.8s1.21,1.81.94,3.06-1.23,1.1-1.23,1.1a11.83,11.83,0,0,0-1.08-1.66c-2.63-2.91-4.76-6.21-8.21-8.05-2.93-1.59-7.88-2.43-11.29-3.15C1158.74,156,1160,154.77,1160.93,153.13Z"/><path class="cls-8" d="M1134.49,195.27a14.46,14.46,0,0,0,4.93,2.54,17.24,17.24,0,0,0,5.22.9c2.51,0,5.44-1.83,5.21-4.63-.07-.74-.26-1.47-.4-2.21a17.64,17.64,0,0,1-.32-3.25c0-.49-.93-.36-.93.06a23.86,23.86,0,0,0,.55,4.46,3.7,3.7,0,0,1-.24,2.92c-1.83,2.74-5.5,2-8.17,1.23a14.28,14.28,0,0,1-5.16-2.56c-.32-.27-1.11.2-.69.54Z"/><path class="cls-8" d="M1128.5,186.81a2.24,2.24,0,0,0-2.21.57,4.88,4.88,0,0,0-1.14,2.18,3.07,3.07,0,0,0,.06,2.25,4.7,4.7,0,0,0,2.52,2,4.88,4.88,0,0,0,2.1.43c.83,0,1.65-.14,2.48-.08a1.22,1.22,0,0,0,.65-.17c.13-.1.13-.17,0-.18-1.2-.09-2.47.29-3.65,0a6.15,6.15,0,0,1-2.61-1.49,2.6,2.6,0,0,1-.77-2.06,6.08,6.08,0,0,1,.57-1.95,3.31,3.31,0,0,1,.63-1,4.57,4.57,0,0,1,.36-.29s-.1,0-.06,0,.21,0,.26.05a1,1,0,0,0,.58-.06s.41-.2.28-.24Z"/><path class="cls-25" d="M1134.75,206.63c-5.89-2.19-20.32-3.21-23.84-1.76,0,0,4.89,7.46,18.56,12.53s16.5-.29,16.5-.29S1142.26,209.42,1134.75,206.63Z"/><path class="cls-26" d="M1117.46,204.25s7.24,2,12.84,4.09,12.38,5.28,12.38,5.28,2.54-4.1-7.6-7.87S1117.46,204.25,1117.46,204.25Z"/><path class="cls-27" d="M1130.07,217.71c-6-3.34-11.52-10.56-19.16-12.84,0,0-1.42,12.14,14.65,18.11s20.41-5.87,20.41-5.87C1138.69,213.84,1136.83,219.12,1130.07,217.71Z"/><path class="cls-27" d="M1143,205.84c-3.28-1.52-5.93-1-7.39-1.5s-3.11-2.7-6.58-3.69c-3.26-.93-19.68,2.31-18.58,3.93s13.71-.56,23.87,3.22,9.76,9.82,11.65,9.31S1146.07,207.26,1143,205.84Z"/><path class="cls-3" d="M1150.74,315.35c-1.12-15.72-1.49-21.34-7.65-36.09-3.95-9.45-11.66-20.15-22.42-28.39,3.23,6.66,9.37,18.14-2.88,20.69-23,5.21-48-23.23-65.68-44.95l-27.49,11.79c-44.18,17.16-45.82,68.26-45.17,96.07.25,10.65-1,50-1.45,79.12,9.79.45,10.59,8.47,20,11.1,12,3.36,15.61,1.54,27.54,5.23,5.74,1.78,23.63-4,29.49-2.64s21.83,6.43,27.87,7c13.1,1.29,17.56-.3,30.73.07,6.92.2,13.27-10.57,20.2-11.09,2.45-9.36,5.29-17.65,8.46-29C1148.5,368.92,1152.61,341.81,1150.74,315.35Z"/><path class="cls-2" d="M1054.47,906.64c-1.61,5.54-2.26,8.67-3.91,14-1.91,6.09.55,11,7.34,14.11a54.23,54.23,0,0,0,19.87,4.4c8.34.17,17.31-.67,25.65-.49,7.14.15,29.66-.08,36.56,1.64,10.75,2.67,17.56,1.61,22.49.29,1.37-.37,2.2-.24,2.89-1.18,1.79-2.46,1.79-5.3-1.64-7.73-4.31-3.06-10,.32-14-3.2a14,14,0,0,0-2.19-1.8c-1.64-.93-3.69-.88-5.61-1-9.59-.6-8.58-4.59-20.92-8.64-3.62-1.18-32.66-23.12-36-24.9"/><path class="cls-2" d="M1052.36,914.37s46.79,18.67,60.34,19.77,17.36,4.61,17.36,4.61-20.84-22.92-37.47-32.53c-3.5-2,18.53-119.57,28.89-174.44a334.25,334.25,0,0,0,5.84-68.9l-62.8,1.48L1062.6,723l-3.47,10.52c-1.81,5.5-6.76,16-7.58,21.7-2.24,15.53-7.61,19.74-5.58,44.22,1.12,13.54,3.37,32.25,3.53,37l7.38,59.17Z"/><path class="cls-2" d="M972.64,890.63s52.4,41.81,65.75,44.37,10.12-5.4,10.12-5.4-28.81-41.39-31-48.41c-1.22-3.85,28.43-108.24,44.7-161.65,11.31-37.11,17.31-67.2,17.31-67.2L1016.91,647l-16.73,54.13-7.66,2.71c-2.4,5.27-6.25,19.89-7.7,25.51-3.92,15.2-6.68,43.09-7.51,51.07-1.41,13.52.92,47.84.56,52.62l-1.28,42.78Z"/><path class="cls-2" d="M978,872.94c-.88,5.8-4.76,13.41-8.92,25-1.83,5.13-7.87,11.64-3.24,16.79,8.18,9.1,20.47,9.14,24.65,11.24,8.79,4.42,16.24,6.17,24.49,11.23s10.06,6.3,19.87,9.31a8.09,8.09,0,0,0,4.17.38c.9-.23,1.68-.72,2.58-1,3.19-.78,6.3,2,9.63,2.36a18.4,18.4,0,0,0,4.38-.37c3.82-.5,7.77,0,11.66.08s8-.23,11.16-2.13,5.13-5.79,3.58-9.11c-2.36-5-7.29-3.57-11.75-5.06s-6-2.61-9.57-5.4c-9.14-7.13-10.49-8.45-18.27-14.18-6-4.44-18.91-20.23-26.83-28.95l.75-20.56"/><path class="cls-4" d="M1041.27,947.07a4.16,4.16,0,0,0,3.62-2.79,4.78,4.78,0,0,0-.41-4c-1.43-2.62-4.26-4.28-6.6-6-.75-.55-2.84.52-1.82,1.27,2,1.48,4.22,2.83,5.72,4.86a4.48,4.48,0,0,1,1,3,3.35,3.35,0,0,1-.51,1.53,2.22,2.22,0,0,1-.45.52c-.15.11-.13.09-.34.1-.47,0-1.23.35-1.3.89s.64.7,1.06.68Z"/><path class="cls-4" d="M1050.68,949.5c3.26.7,5-2.19,5.3-5a6.25,6.25,0,0,0-.66-3.87,11.78,11.78,0,0,0-4.15-4c-1.9-1.22-3.66-3.09-5.93-3.59a1.69,1.69,0,0,0-1.65.45.64.64,0,0,0,.29,1.09c2.08.46,3.73,2.24,5.48,3.37s3.46,2.44,4.12,4.42a6.54,6.54,0,0,1-.1,3.59,4.39,4.39,0,0,1-.74,1.65,1.36,1.36,0,0,1-.4.37c.18-.11-.16,0,0,0-.17,0,0,0-.24,0a1.7,1.7,0,0,0-1.65.44.65.65,0,0,0,.29,1.1Z"/><path class="cls-4" d="M1058.87,948.72a5.58,5.58,0,0,0,4.53-3.64,6,6,0,0,0-.51-5.05,14.46,14.46,0,0,0-3.82-4.24,27.72,27.72,0,0,0-5.25-3.33,2.05,2.05,0,0,0-1.65.24c-.3.18-.73.59-.23.82a26.94,26.94,0,0,1,4.42,2.75,17.22,17.22,0,0,1,3.61,3.47,6.62,6.62,0,0,1,1.43,4.3c-.1,1.19-.94,3.36-2.18,3.51-.37.05-1.27.28-1.34.75s.69.46,1,.42Z"/><path class="cls-4" d="M1066.29,948.92a8.35,8.35,0,0,0,5.9-3.95,5.15,5.15,0,0,0-.25-5.73,18.65,18.65,0,0,0-4.94-4.47c-.84-.57-1.7-1.1-2.56-1.64a9.76,9.76,0,0,0-3.12-1.69,2.72,2.72,0,0,0-1.63.3c-.18.09-.82.5-.29.6a8.31,8.31,0,0,1,2.66,1.48c.73.46,1.47.9,2.19,1.37a23.84,23.84,0,0,1,4.61,3.76,5.28,5.28,0,0,1,1.63,4.89c-.44,1.76-1.86,3.87-3.76,4.22-.3.06-1.31.25-1.37.64s.74.26.93.22Z"/><path class="cls-4" d="M1055.3,923.77a21.55,21.55,0,0,0,10.49,7.78,11.51,11.51,0,0,0,4.71.93c-.47,0-.07,0,.12,0l.86-.11a13.61,13.61,0,0,1,5.35.42,6.34,6.34,0,0,1,4.52,6c.07,1,2.41.42,2.34-.63-.39-5.34-5-7.46-9.86-7.47a18.5,18.5,0,0,0-2.47.13,6.34,6.34,0,0,1-1.26.2c.59.08-.19-.2-.27-.21l-.74-.17c-.42-.1-.83-.22-1.24-.35a17.7,17.7,0,0,1-2.82-1.14,21.31,21.31,0,0,1-3.9-2.52,18,18,0,0,1-3.68-3.87c-.53-.79-2.78.05-2.15,1Z"/><path class="cls-33" d="M961.05,615c-8.38,74.37-17.39,80.78-20.13,107.25,12.78,9.89,14.35-3.84,32.73,2.2s24,6.59,36.58,0,23.1-4.4,39.37,2.19,29.4-.55,38.86-1.09,22,5.49,38.85,6,13.28-7.33,23.26-6.78c-.36-9-.56-149.94-8.28-231.48.19-.1-.37-3.54-.41-4.64l-.2-5.62c-2.4-21.1-3.44-33-5.55-47.71-22.27,3.05-47.79,5.76-70.11,5.51-18.45-.2-60.91-15.62-79-19.1-15.09-2.9,4.48,12.09-10.88,10.92-.77,5.93-23.27,33.23-22.19,92.85C953.91,525.49,962.88,598.73,961.05,615Z"/><path class="cls-34" d="M1124.12,339.19a1.08,1.08,0,0,0,.19.31l.6-.65Z"/><path class="cls-35" d="M977.63,404s1.53,21.08-3.42,32.15c0,0,40,16.83,74.73,19.66,47.11,3.84,89.66-6.8,89.66-6.8l-2.26-31.51s-36.39,10.59-91.46,5C1000.26,418.05,977.63,404,977.63,404Z"/><path class="cls-4" d="M1049.27,771.13c3.26-11,6.84-22,9.83-33.12q1.15-4.28,2.2-8.58c.24-1-2.13-.67-2.35.24-2.39,9.75-5.3,19.33-8.21,28.93q-1.93,6.38-3.82,12.77c-.28,1,2.08.66,2.35-.24Z"/><path class="cls-4" d="M1155.35,143.79s-11.56,8.92-1,13.56C1154.3,157.35,1147.78,154.13,1155.35,143.79Z"/><path class="cls-4" d="M1148.93,141.17s3.22,16.26-10.35,11.74c0,0,9.4,3.53,10.44-11.26"/><path class="cls-2" d="M1041.52,346.55l1.54-17.16c4.5-19.35,7.52-49.41-.68-58.33,0,0-20.82-9.84-34.41.56s-13.35,24.76-20.3,66.25l-.79,21.49c-5.69,31.68-7.94,70.65-8.33,77.31-1.68,29.42,29.52,120,29.52,120l23.68-8s-3-80.47-6-110.62Z"/><path class="cls-2" d="M1049.33,564c-1.7-11.25-16.64-23.64-18.72-28a8.84,8.84,0,0,1-.54-2.64l-30.88-3.65c-.09,1.91-.25,3.9-.5,6-2.85,24.16-5.74,41.29.34,52s21,22.85,30.27,24.66,21,5.33,21.08.7-14.56-7.82-15.56-17.56-1.1-23.66-1.1-23.66,7.09,5.83,7.61,8.74.67,12.56,9.92,14.72,6.6-4.68,4.47-8.62S1051,575.21,1049.33,564Z"/><path class="cls-4" d="M1019.16,588.39A93,93,0,0,0,1023,602.9c1,2.71,2.1,5.15,4.39,7a27.21,27.21,0,0,0,7.61,4.06,39.91,39.91,0,0,0,5.13,1.56c.63.15,2.53-.83,1.34-1.1a31.51,31.51,0,0,1-11.51-4.92,13.5,13.5,0,0,1-4.63-6.72,81.94,81.94,0,0,1-2.75-9.34c-.45-1.86-.87-3.73-1.22-5.61-.13-.67-2.31-.15-2.17.58Z"/><path class="cls-4" d="M1007.91,589.81q1.67,3.78,3.45,7.5c1.73,3.61,3.41,7.68,6.45,10.39a13.39,13.39,0,0,0,3.93,2.54,1.84,1.84,0,0,0,1.53-.22c.25-.15.69-.6.2-.79-4.31-1.69-6.61-5.8-8.58-9.71-1.7-3.39-3.29-6.83-4.81-10.3-.31-.7-2.44,0-2.17.59Z"/><path class="cls-3" d="M1062.66,269.31c2.24,6,9.12,4.71,10,11,2.09,15.36.73,31-.62,46.41-.54,6.12-1.81,13.34-7.4,15.88a17.56,17.56,0,0,1-6.84,1.11c-26.2.7-54.64.72-75.55-15.07l-1.72-3c3.52-22.94,15.56-43.74,29.7-62.14,3.31-4.3,17.66-8.94,19.14-14.3C1047.8,247.15,1050.63,254.68,1062.66,269.31Z"/><path class="cls-33" d="M1041.71,344.94a36.06,36.06,0,0,0,9,.2,43.56,43.56,0,0,0,5.71-.5c1.36-.28,2-1.81,2.47-3a29,29,0,0,0,1.45-5.27c.78-4,1.7-7.89,2.5-11.85a150.88,150.88,0,0,0,2.68-22.91c.17-3.59.44-7.17.71-10.75a35.22,35.22,0,0,0-1-13c-2.53-8.27-8.38-15.85-16.57-19.05-.39-.15-2,.48-1.42.69a27.16,27.16,0,0,1,13.51,12.41,31.58,31.58,0,0,1,3.4,9,36.27,36.27,0,0,1,.42,9.65c-.78,11.71-1.16,23.47-3.57,35-.7,3.39-1.53,6.73-2.16,10.13-.54,2.91-1.06,6.37-3,8.71l1.16-.42c-1.73.2-3.46.35-5.19.46a34,34,0,0,1-8.61-.15,1.85,1.85,0,0,0-1.22.22c-.12.07-.62.39-.21.47Z"/><path class="cls-33" d="M988.47,332.27c-1.43-1.11-3.39-2.67-3.78-4.51a24.69,24.69,0,0,1-.2-4.63c0-1.68,0-3.35,0-5a136.36,136.36,0,0,1,1-16.53,68.78,68.78,0,0,1,7.41-24.12,72.84,72.84,0,0,1,7.56-11.12c.38-.46-1.3-.25-1.58.1A67.28,67.28,0,0,0,987,287.34c-3.18,9.49-4.09,19.6-4.27,29.55a87.12,87.12,0,0,0,.1,10.72c.24,2.25,2.27,3.95,4,5.27.39.31,1.94-.37,1.63-.61Z"/><path class="cls-2" d="M666,527.58l21.63-7.47s26.83,5.83,41.35,3.36c10.42-2.18,35.37-7.51,44.79-12.47L796,509.13s15.39,6,17.61,1.28-3-8.42-8-12.05-87.58-27.84-87.58-27.84a157.35,157.35,0,0,1,24.22-11.22c12.9-4.57,16.64-13.86,10.12-17.53-4-2.26-14.84.11-28.58,6.36-7.22,3.29-22.84,3.28-35.2,9.72s-19,24.25-19,24.25c-6.11,4.24-15.93,8.32-15.93,8.32C651.64,503.72,666,527.58,666,527.58Z"/><path class="cls-4" d="M731.64,502.88a58.21,58.21,0,0,0,8.14-1.78,39.61,39.61,0,0,1,6-1.21c1.64-.19,3.28-.41,4.92-.62,7.11-.88,14.57-1.44,21.33,1.48a12.39,12.39,0,0,1,4,2.6c1,1.11.95,2.59,1.56,3.87.41.86,2.43.26,2-.55-.55-1.14-.56-2.48-1.26-3.6a8.88,8.88,0,0,0-3.06-2.58,25.82,25.82,0,0,0-9.54-3,48.44,48.44,0,0,0-12.15.05c-1.72.19-3.43.41-5.15.63-1.93.24-3.95.32-5.86.69-2.1.41-4.15,1.21-6.23,1.71a42.76,42.76,0,0,1-4.59.9c-1.11.14-1.6,1.62-.2,1.44Z"/><path class="cls-4" d="M727.45,486.73c0,.76,3.31,1.35,3.78,1.48,3.27.9,6.55,1.77,9.79,2.79,3,.94,6,2,9,2.93,1.06.33,3.28,1.1,4-.2.21-.36-1.71-.23-2,.32,1.51-2.58,1.72-.28,1.12-.58a2.23,2.23,0,0,0-.39-.09c-.36-.09-.73-.2-1.09-.31-1-.31-2-.66-3-1-2.8-.93-5.6-1.87-8.44-2.7-2.46-.73-4.94-1.38-7.42-2.06-.37-.11-3.27-.72-3.25-1.13s-2-.13-2,.55Z"/><path class="cls-4" d="M723.42,498.54c1.66.28,2.09-1.14,2.24-2.4a19.05,19.05,0,0,0-.67-7.32A20.35,20.35,0,0,0,716.58,477c-.92-.56-2.76-1.34-3.51,0-.2.36.73.3.85.28a1.62,1.62,0,0,0,1.18-.61c-.74,1.3-2.13.25-1.14.72a7.15,7.15,0,0,1,.77.42,14.7,14.7,0,0,1,1.91,1.44,20.31,20.31,0,0,1,4.61,5.85,21.24,21.24,0,0,1,2.42,8.52,15.45,15.45,0,0,1-.06,3c-.05.31-.1.63-.18.93-.31,1.09-.3-.25,1.29,0-.51-.09-2.37.76-1.3.93Z"/><path class="cls-33" d="M1152.44,341.61a134.7,134.7,0,0,0,2.62-23.44c.2-7.5-.08-15-.09-22.5,0-.47-1.73-.17-1.73.46,0,7.37.27,14.74.1,22.11a134.82,134.82,0,0,1-2.63,23.61c-.12.59,1.62.3,1.73-.24Z"/></g></svg>