<svg xmlns="http://www.w3.org/2000/svg" viewBox="0 0 114.49 114.22"><defs><style>.cls-1{fill:#fff;}.cls-2{fill:#0d4060;}.cls-3{fill:#0d4061;}</style></defs><g id="Layer_5" data-name="Layer 5"><circle class="cls-1" cx="57.48" cy="57.11" r="55.09"/><path class="cls-2" d="M57.48,113.45a56.34,56.34,0,1,1,56.33-56.34A56.41,56.41,0,0,1,57.48,113.45Zm0-110.18a53.84,53.84,0,1,0,53.83,53.84A53.9,53.9,0,0,0,57.48,3.27Z"/><path class="cls-3" d="M72.83,57.11q0,9.84,0,19.67c0,1.32.07,2.65,0,4-.22,2.53-2,4.15-4.79,4.5a9.39,9.39,0,0,1-1.19.07c-6.44,0-12.89,0-19.34,0a5.93,5.93,0,0,1-4.87-2.1,4.63,4.63,0,0,1-.93-3q0-10.07,0-20.13c0-8.61,0-17.22,0-25.82a6.55,6.55,0,0,1,.24-1.82c.63-2.1,2.34-3.06,4.57-3.42a6.74,6.74,0,0,1,1.19-.08c6.44,0,12.89,0,19.34,0A6,6,0,0,1,71.9,31a4.68,4.68,0,0,1,.92,3v23ZM70,35.34H44.52v40.9H70Z"/><circle class="cls-1" cx="57.28" cy="80.66" r="2.61"/><path class="cls-2" d="M87.82,85.12a42.46,42.46,0,1,0-.46.48l.49-.44Zm6-28a36.16,36.16,0,0,1-9.37,24.32L35.55,28.17A36.3,36.3,0,0,1,93.8,57.11Zm-72.65,0A36.22,36.22,0,0,1,31.78,31.46L80.83,84.9A36.29,36.29,0,0,1,21.15,57.11Z"/></g></svg>