<svg xmlns="http://www.w3.org/2000/svg" viewBox="0 0 660.99 660.99"><defs><style>.cls-1{fill:#a86e57;}.cls-2{fill:#d08c3e;}.cls-3{fill:#010101;}.cls-4{fill:#13110f;}.cls-5{fill:#b45d32;}.cls-6{fill:#e28a3d;}.cls-7{fill:#fff;}.cls-8{fill:#663b2c;}.cls-9{fill:#251710;}.cls-10{fill:#f1eef6;}</style></defs><g id="Layer_1" data-name="Layer 1"><path class="cls-1" d="M169.62,382.93s-18.78-28.82-29.43-27.67c-6.48.7,8.5,15.29,10.35,31.8,2.48,22.09-13.86,24.93-8.71,37.43s11.8,56.12,29,54.26c6.8-.74,13.77-15.82,13.77-15.82S175.21,402.62,169.62,382.93Z"/><path class="cls-2" d="M163.85,464.21c-7.41.82-14.34,6-15.17,13.79a14,14,0,0,0,2.64,9.79,12.5,12.5,0,0,0,6.22,4.54,17.66,17.66,0,0,0,16.06-2.08c.84-.57,1.39-1.79.34-2.46a3.71,3.71,0,0,0-3.74.38,10,10,0,0,1-9.33,1,13.06,13.06,0,0,1-2.39-1.12c-.1-.06-.54-.36-.23-.12a10.83,10.83,0,0,1-1.69-1.76,11.85,11.85,0,0,1-.3-14.5,9.64,9.64,0,0,1,3.19-2.77c-.32.18.07,0,.11-.05l.73-.35.51-.21c-.37.14.08,0,.23-.07a9.56,9.56,0,0,1,2.26-.48c1.07-.12,2.75-.73,2.92-2s-1.44-1.6-2.36-1.5Z"/><path class="cls-1" d="M482.43,382.05s15.78-30.57,26.49-30.5c6.52,0-6.91,16.06-7.09,32.68-.24,22.22,16.31,23.41,12.45,36.36s-6.08,57-23.35,56.91c-6.84-.05-15.29-14.35-15.29-14.35S478.86,402.2,482.43,382.05Z"/><path class="cls-1" d="M505.6,400.11a.22.22,0,0,0,0,.11c-3.81,19.32-8.52,39.65-11.75,63-8.58,61.54-26.9,89.81-68.7,117-43.8,28.5-56.94,39.59-94.76,41-37.82-1.41-51-12.5-94.76-41-41.78-27.17-60.12-55.44-68.67-117-1.91-13.72-4.32-26.39-6.75-38.43-1.8-8.93-3.63-17.54-5.29-25.95,0-.14,0-.25-.08-.36a.38.38,0,0,1,0-.11c-6-30.87-9.68-59.37-1.41-93.79,8.52-35.61,38-79.79,82.75-107.68h0a.1.1,0,0,0,.06,0,176.9,176.9,0,0,1,94.15-27.19c97.08,0,163.46,78.27,177,134.9C515.78,339.63,511.83,368.57,505.6,400.11Z"/><path class="cls-3" d="M342.87,480c-5.14,3.27-12.86,2.74-17.89-.87-1.12-.8-4.91.1-3.35,1.22,6.65,4.76,17.74,4.94,24.38.72.66-.42.55-1-.25-1.3a3.79,3.79,0,0,0-2.89.23"/><path class="cls-3" d="M319.09,478.59a37.85,37.85,0,0,0-13.15-3.26,3,3,0,0,0-2,.63c-.38.34-.46.8,0,1.08a14.42,14.42,0,0,0,7.22,1.65,2.76,2.76,0,0,0,2.23-.86c.4-.61-.34-1-1-1a11.33,11.33,0,0,1-5.82-1.35l-2,1.72a33.78,33.78,0,0,1,11.76,2.95,2.81,2.81,0,0,0,2.41-.26c.48-.29,1-.95.27-1.3"/><path class="cls-3" d="M301.24,479.15c-4.48-.13-9.75-2.43-12-6.41-3.33-6-.23-13.14,5.37-17,.61-.42.29-1-.33-1.11a3.16,3.16,0,0,0-2.39.58c-4.88,3.35-8,8.79-7.31,14.42.69,5.27,5,9,10.34,10.47a20.89,20.89,0,0,0,5,.81c.68,0,1.9-.22,2.23-.85s-.28-.91-.92-.93"/><path class="cls-3" d="M348.2,478.59a37.9,37.9,0,0,1,13.16-3.26,3,3,0,0,1,2,.63c.38.34.46.8,0,1.08a14.4,14.4,0,0,1-7.22,1.65,2.73,2.73,0,0,1-2.22-.86c-.41-.61.34-1,.94-1a11.34,11.34,0,0,0,5.83-1.35l2,1.72a33.78,33.78,0,0,0-11.76,2.95,2.78,2.78,0,0,1-2.4-.26c-.48-.29-1-.95-.28-1.3"/><path class="cls-3" d="M366.05,479.15c4.49-.13,9.76-2.43,12-6.41,3.33-6,.23-13.14-5.37-17-.61-.42-.28-1,.34-1.11a3.18,3.18,0,0,1,2.39.58c4.88,3.35,8,8.79,7.31,14.42-.69,5.27-5,9-10.35,10.47a20.73,20.73,0,0,1-5,.81c-.68,0-1.9-.22-2.23-.85s.28-.91.92-.93"/><path class="cls-4" d="M376.28,343c0,3.5.06,7,.09,10.52q0,4,.1,8c9.71-2.3,18-3.8,24.31-4.79,13.27-2.09,20.06-3.11,27.79-2a79,79,0,0,1,17.68,5.05,49.08,49.08,0,0,1,9.31,4.49c6.56,4.32,9.25,9.21,10.32,8.78s-.65-4.7-.82-5.14c-4.14-10.82-13.31-17.2-14-17.71a54.49,54.49,0,0,0-18-7.49c-7.63-1.76-28.77-3-56.81.24"/><path class="cls-4" d="M410,385.27c4.55-2.36,9.87-.32,12.85,2.31a11.58,11.58,0,0,1,3.46,5.38c1.12,3.82-.41,8.15-2.8,10.78A11,11,0,0,1,410.82,406c-5.56-2.59-7.36-9.28-6-14.14a10.76,10.76,0,0,1,5.11-6.54"/><path class="cls-4" d="M374.28,401.68s24-17.43,36.22-18.55c17.88-1.65,39.92,7.51,46.25,15.71,0,0-29.16-13.7-41.73-12.2C403,388.07,374.28,401.68,374.28,401.68Z"/><path class="cls-4" d="M289.93,343.41c0,3.49-.06,7-.09,10.51,0,2.68-.06,5.35-.11,8-9.71-2.29-18-3.79-24.3-4.78-13.27-2.1-20.07-3.12-27.79-2A78.42,78.42,0,0,0,220,360.24a48.2,48.2,0,0,0-9.31,4.49c-6.56,4.32-9.25,9.21-10.33,8.77s.65-4.69.82-5.13c4.14-10.82,13.31-17.2,14-17.71a54.12,54.12,0,0,1,18-7.49c7.64-1.76,28.77-3,56.82.24"/><path class="cls-4" d="M256.25,385.64c-4.54-2.35-9.86-.32-12.84,2.32a11.58,11.58,0,0,0-3.46,5.38c-1.12,3.82.4,8.15,2.8,10.78,3.2,3.52,8.54,4.12,12.64,2.21,5.55-2.59,7.36-9.28,6-14.14a10.87,10.87,0,0,0-5.12-6.55"/><path class="cls-4" d="M291.93,402.06s-24-17.43-36.22-18.56c-17.88-1.64-39.92,7.52-46.25,15.71,0,0,29.16-13.69,41.72-12.19C263.19,388.45,291.93,402.06,291.93,402.06Z"/><path class="cls-5" d="M125.47,237.76s80-39,182.27-26,151.48,77.61,168.77,123.71S495.45,428,495.45,428,520.57,440.7,538.84,347C565.48,210.5,416.14,90,383,90S173,85,125.47,237.76Z"/><path class="cls-5" d="M143.81,197.89s-17.15-107.63,57-127.8,230.33-56.31,276,42Z"/><path class="cls-6" d="M140,419A64.72,64.72,0,0,1,123.65,391C115.38,362,101,301.89,114.22,275.25c5.77-11.6,8.09-46.22,8.64-56.39,2.88-53.31-9.78-37,65.15-97.52S275.89,77.5,388.29,84.7s144.6,43.62,135.92,148.93c0,0-151.3-43.51-222.63-4.95S153.4,391.5,158.59,436.22C158.75,437.63,148.53,427.59,140,419Z"/><path class="cls-5" d="M110.44,328.85S224.83,182.59,358.58,181.27c0,0-171.21-22.31-247.11,101.27Z"/><path class="cls-5" d="M523.24,184.91S391.07,136.85,340.4,132.7s160.16,3.88,180.39,26.88Z"/><ellipse class="cls-7" cx="333.65" cy="524.33" rx="44.47" ry="9.35"/><path class="cls-2" d="M496.8,468.43a12.92,12.92,0,0,1,12.48,10.19,12.46,12.46,0,0,1-1.18,8.43,10.92,10.92,0,0,1-2.21,3.06c-.18.15-.37.28-.56.41.1-.07,0,0-.27.18l-.75.44a9.55,9.55,0,0,1-1.33.62l-.53.18c.49-.17-.46.1,0,0a7.88,7.88,0,0,1-.89.15,11.41,11.41,0,0,1-6.5-1.56c-.9-.49-2.47,0-3.35.36-.24.08-2.33,1-1.6,1.38,4.45,2.39,9.42,2.22,14.12.68a17.23,17.23,0,0,0,6.68-3.63,13.39,13.39,0,0,0,.33-18.4,14.84,14.84,0,0,0-11-4.5,7.11,7.11,0,0,0-3.7,1c-.79.5-.77,1,.27,1Z"/><path class="cls-8" d="M334.66,515.13c-25.56,0-67-2.92-67-2.92s7.72,49.19,67,49.19,67-49.19,67-49.19S360.23,515.13,334.66,515.13Z"/><path class="cls-9" d="M334.91,515.13c-12.15,0-61.14-2-61.14-2s16.2,26.11,60.16,26.11c47.66,0,61.66-25.73,61.66-25.73Z"/><path class="cls-10" d="M335.44,516.9c-12.15,0-49.13-2-49.13-2s13.31,13,49.77,13,48-12.57,48-12.57Z"/><path class="cls-8" d="M404.34,508.57c-1.29-.3-8.37,2-14.4,1.47-10.06-.84-22.23-3.41-29.52-4-12.44-.93-20.34,3.85-25.75,3.85s-13.32-4.78-25.76-3.85c-7.29.55-19.46,3.12-29.52,4-6,.51-13.11-1.77-14.4-1.47-1.79.43,1.69,13.25,69.69,13.25S406.13,509,404.34,508.57Z"/></g></svg>