<svg xmlns="http://www.w3.org/2000/svg" viewBox="0 0 114.49 114.22"><defs><style>.cls-1{fill:#fff;}.cls-2{fill:#0d4060;}</style></defs><g id="Layer_5" data-name="Layer 5"><circle class="cls-1" cx="57.48" cy="57.11" r="55.09"/><path class="cls-2" d="M57.48,113.45a56.34,56.34,0,1,1,56.33-56.34A56.41,56.41,0,0,1,57.48,113.45Zm0-110.18a53.84,53.84,0,1,0,53.83,53.84A53.9,53.9,0,0,0,57.48,3.27Z"/><path class="cls-2" d="M71.87,47.46c0,6.36-1.76,12.06-6.29,16.73-1.55,1.6-3,3.29-4.5,5a19.22,19.22,0,0,0-4.88,9.22C53.81,90.47,40.27,92,33.05,87.82c-4.53-2.62-6.12-6.64-6.29-11.53,0-.89.27-1.7,1.25-1.52a2,2,0,0,1,1.19,1.41c.74,8.36,7.41,12.93,15.81,10.87,4.48-1.1,7.44-3.88,8.42-8.23,1.3-5.79,4.5-10.23,8.51-14.34,3-3.06,5.72-6.29,6.67-10.66a29.4,29.4,0,0,0-4-22.94c-5.85-9-19.32-10.17-27.39-2.52-4.57,4.34-6.74,9.85-7.62,16-.2,1.43-.12,2.91-.37,4.33a.94.94,0,0,1-.07.22A1.28,1.28,0,0,1,27,49a.71.71,0,0,1-.16-.4c.11-9.15,2.7-17.42,10.09-23.27,9.86-7.81,25.8-5.87,31.84,7.79A37.21,37.21,0,0,1,71.87,47.46Z"/><path class="cls-2" d="M38.83,42.42A14.74,14.74,0,0,1,49.41,43c5.18,2.29,7.76,7.09,6.64,12.31a6.44,6.44,0,0,1-3.92,4.86,25.37,25.37,0,0,1-2.91,1.07c-3.36,1-5.62,3.36-5.4,7.47.17,3.29-1.34,5.31-4,6.14a5.52,5.52,0,0,1-7.16-4.66,16.19,16.19,0,0,1-.05-3.68.79.79,0,0,1,.06-.22,1.26,1.26,0,0,1,2.3.26A16.12,16.12,0,0,1,35,69.33a3.08,3.08,0,0,0,3.2,3.25c1.82,0,3-1.32,3.13-3.35a20.18,20.18,0,0,1,.18-3.4,8.86,8.86,0,0,1,5.94-6.64c.77-.29,1.58-.48,2.37-.75,3.27-1.13,4.59-3.52,3.85-6.93a9.54,9.54,0,0,0-9.15-7.26,27.19,27.19,0,0,0-4.89.58c-1.36.19-1.8,1.08-1.59,2.34.35,2,.69,4.07,1.14,6.08.21,1,.67,1.94-.58,2.34s-1.56-.71-1.84-1.58c-1.63-5-1.8-10.08.5-15a14.25,14.25,0,0,1,14.42-8.2c5.07.5,9.8,5,11.12,10.78a21.07,21.07,0,0,1,.48,4.62,1.93,1.93,0,0,1-1.17,1.45c-1,.21-1.15-.65-1.28-1.5a26.79,26.79,0,0,0-1.14-5.9c-3.23-8.16-13.27-9.53-18.66-2.58A36.58,36.58,0,0,0,38.52,42Z"/><path class="cls-2" d="M77.82,58.69a18.49,18.49,0,0,1,4.87-11.78c.62-.69,1.34-1.4,2.23-.65s.31,1.53-.31,2.26c-5.8,6.72-5.73,15.18.08,22a2.13,2.13,0,0,1,.27,2c-.65.86-1.43.32-2.07-.33A19.32,19.32,0,0,1,77.82,58.69Z"/><path class="cls-2" d="M85,59.45a13.11,13.11,0,0,1,3.37-8.63c.61-.67,1.3-1.17,2.11-.4s.34,1.35-.22,2c-3.69,4.49-3.66,9.56-.07,14a2.11,2.11,0,0,1,.25,2c-.66.85-1.45.33-2.07-.35A13,13,0,0,1,85,59.45Z"/><path class="cls-2" d="M92.35,59.45a6.1,6.1,0,0,1,1.9-4.75.82.82,0,0,1,.4-.18,1.3,1.3,0,0,1,1.54,1.31.7.7,0,0,1-.11.36,4.85,4.85,0,0,0,0,6.53.56.56,0,0,1,.11.35,1.31,1.31,0,0,1-1.54,1.32.93.93,0,0,1-.4-.19A6,6,0,0,1,92.35,59.45Z"/></g></svg>