<svg xmlns="http://www.w3.org/2000/svg" viewBox="0 0 660.99 660.99"><defs><style>.cls-1{fill:#231f20;}.cls-2{fill:#a86e57;}.cls-3,.cls-4{stroke:#000;stroke-miterlimit:10;}.cls-3{stroke-width:1.27px;}.cls-4{stroke-width:1.22px;}.cls-5{fill:#251710;}.cls-6{fill:#fff;}.cls-7{fill:#663b2c;}.cls-8{fill:#50271b;}</style></defs><g id="Layer_1" data-name="Layer 1"><path class="cls-1" d="M383.17,399.73c-.48-18.94,12.65-40.88,33-39.72,4.95.28,9.7,1.94,14.37,3.57l20.68,7.25c6.27,2.2,12.65,4.46,17.94,8.31,9.62,7,14.43,18.55,15.38,29.82s-1.48,22.48-3.89,33.51c-2.22,10.12-5.85,21.83-16.27,25.3-6.15,2-13,.51-19.52,1.24-5.81.65-11.16,3.1-16.79,4.54-19.21,4.94-41.61-3.15-52.47-18.94"/><path class="cls-1" d="M455.77,340.92c11.88-13.86,35.44-21.08,49.22-7.14,3.36,3.4,5.7,7.65,8,11.83l10.11,18.54c3.07,5.62,6.18,11.36,7.48,17.53,2.36,11.22-1.65,22.59-8.25,31.27s-15.57,15.13-24.42,21.46c-8.12,5.81-18.27,11.85-28,7.6-5.72-2.51-23.39-8.53-29.69-8.36-18.94.52,4.94-8.35,0-10.94-16.92-8.87-27.73-29.12-25.31-47.44"/><path class="cls-1" d="M421.51,390.45c11.39-14.26,34.68-22.3,48.95-8.84,3.47,3.28,6,7.45,8.38,11.55l10.75,18.18c3.26,5.51,6.57,11.13,8.08,17.25,2.75,11.14-.87,22.64-7.16,31.54s-15,15.66-23.66,22.3c-7.92,6.08-17.85,12.47-27.69,8.56-5.8-2.3-23.68-7.71-30-7.32-18.91,1.18,4.65-8.52-.4-10.94-17.23-8.27-28.73-28.14-26.94-46.53"/><path class="cls-1" d="M468.08,277.25c11.05-14.54,34.13-23.14,48.72-10,3.56,3.19,6.14,7.3,8.66,11.34l11.2,17.9c3.39,5.43,6.84,11,8.5,17.06,3,11.06-.31,22.65-6.38,31.7s-14.64,16-23.1,22.87c-7.77,6.28-17.54,12.91-27.48,9.25-5.85-2.16-10.1-7.45-15.43-10.82-4.77-3-10.27-4.39-15.37-6.69C440,352,428,332.4,429.32,314"/><path class="cls-1" d="M432.72,238.69c-.46-18.25,12.19-39.39,31.77-38.28,4.77.28,9.35,1.87,13.85,3.45l19.93,7c6,2.12,12.19,4.3,17.29,8,9.27,6.75,13.9,17.88,14.82,28.74s-1.42,21.66-3.75,32.29c-2.14,9.76-5.63,21-15.68,24.39-5.92,2-12.54.49-18.81,1.19-5.6.63-10.76,3-16.18,4.38-18.51,4.76-40.1-3-50.57-18.26"/><path class="cls-1" d="M406.26,197.09c-.46-18.25,12.19-39.39,31.77-38.27,4.77.27,9.35,1.86,13.85,3.44l19.92,7c6.05,2.11,12.2,4.29,17.3,8C498.37,184,503,195.13,503.92,206s-1.42,21.67-3.75,32.3c-2.14,9.75-5.63,21-15.68,24.38-5.92,2-12.55.49-18.81,1.19-5.6.63-10.76,3-16.18,4.38C431,273,409.4,265.2,398.93,250"/><path class="cls-1" d="M352.66,184.69c-10.58-14.88-11.91-39.48,4.95-49.49,4.11-2.45,8.8-3.68,13.41-4.89L391.45,125c6.19-1.62,12.51-3.26,18.81-3,11.47.42,21.53,7.06,28.36,15.55s10.92,18.76,14.93,28.88c3.68,9.28,7.09,20.59.63,29-3.81,4.94-10.13,7.42-14.93,11.5-4.29,3.65-7.26,8.49-11,12.68-12.68,14.29-34.94,19.89-52.13,13.12"/><path class="cls-1" d="M277.57,399.73c.48-18.94-12.65-40.88-33-39.72-5,.28-9.71,1.94-14.37,3.57l-20.68,7.25c-6.27,2.2-12.65,4.46-17.94,8.31-9.63,7-14.43,18.55-15.38,29.82s1.47,22.48,3.89,33.51c2.22,10.12,5.84,21.83,16.27,25.3,6.15,2,13,.51,19.51,1.24,5.81.65,11.17,3.1,16.8,4.54,19.2,4.94,41.61-3.15,52.47-18.94"/><path class="cls-1" d="M205.12,329.83c-11.19-14.43-34.36-22.8-48.81-9.55-3.53,3.23-6.07,7.36-8.55,11.42l-11,18c-3.34,5.46-6.73,11-8.33,17.14-2.91,11.09.54,22.64,6.7,31.63s14.8,15.88,23.33,22.64c7.83,6.21,17.67,12.74,27.57,9,5.83-2.22,23.78-7.37,30.06-6.88,18.9,1.45-4.52-8.58.56-10.93,17.35-8,29.14-27.72,27.62-46.13"/><path class="cls-1" d="M223,383.89c-13.76-12-38.1-15.78-49.75,0-2.83,3.85-4.53,8.39-6.19,12.85l-7.35,19.8c-2.23,6-4.48,12.13-4.88,18.42-.73,11.45,4.88,22.12,12.65,29.76s17.58,12.74,27.25,17.74c8.87,4.58,19.78,9.1,28.77,3.5,5.3-3.3,21.93-11.8,28.19-12.53,18.82-2.21-6.09-7.55-1.55-10.84,15.48-11.2,23.27-32.79,18.24-50.57"/><path class="cls-1" d="M145.16,269.63c-16.83,7.08-38.1,46.79-29,64.18,2.21,4.24,5.55,7.76,8.83,11.21l14.56,15.3c4.42,4.64,8.93,9.35,14.41,12.47,10,5.68,22,5.33,32.29,1.7s19.17-10.2,27.9-16.69c8-6,16.87-13.78,15.78-24.31-.63-6.21-4.7-11.64-6.63-17.64-1.73-5.36-1.71-11-2.67-16.55-3.26-18.83-19.24-35.31-37.42-38.6"/><path class="cls-1" d="M229.93,238.69c.46-18.25-12.19-39.39-31.77-38.28-4.78.28-9.35,1.87-13.85,3.45l-19.93,7c-6,2.12-12.19,4.3-17.29,8-9.28,6.75-13.91,17.88-14.82,28.74s1.42,21.66,3.75,32.29c2.14,9.76,5.63,21,15.68,24.39,5.92,2,12.54.49,18.8,1.19,5.6.63,10.77,3,16.19,4.38,18.51,4.76,40.1-3,50.57-18.26"/><path class="cls-1" d="M262.73,202.32c3.51-17.91-5.43-40.87-24.92-43-4.75-.53-9.53.27-14.23,1.07l-20.81,3.56c-6.32,1.08-12.74,2.19-18.39,5-10.28,5.11-16.7,15.3-19.42,25.86s-2.22,21.6-1.7,32.47c.48,10,2,21.68,11.38,26.66,5.51,2.93,12.28,2.58,18.34,4.32,5.42,1.56,10.11,4.74,15.23,7,17.45,7.79,40,3.71,52.91-9.54"/><path class="cls-1" d="M313,187.27c10.48-15,11.65-39.55-5.27-49.46-4.12-2.42-8.82-3.63-13.43-4.8l-20.47-5.22c-6.21-1.58-12.53-3.17-18.83-2.91-11.46.49-21.48,7.2-28.26,15.73s-10.81,18.83-14.75,29c-3.62,9.31-7,20.64-.44,29,3.84,4.92,10.17,7.35,15,11.41,4.32,3.62,7.31,8.44,11.06,12.6,12.78,14.21,35.07,19.67,52.22,12.79"/><path class="cls-1" d="M366.47,203.16c17.3-5.85,32.79-25,25-43-1.9-4.39-5-8.14-8-11.82L370.07,132c-4.07-4.94-8.23-10-13.47-13.48-9.53-6.39-21.57-6.9-32.08-4s-19.85,8.79-29,14.64c-8.42,5.36-17.81,12.52-17.5,23.1.19,6.24,3.86,12,5.35,18.07,1.34,5.48.9,11.13,1.46,16.71,1.9,19,16.65,36.6,34.54,41.2"/><path class="cls-2" d="M198.59,376.92s-11.92-23.11-20-23.05c-4.93,0-16.81,13.17-16.68,25.73.18,16.8,11.88,35.88,14.8,45.68s2.43,23.87,15.48,23.78c5.17,0,11.56-10.84,11.56-10.84S201.29,392.15,198.59,376.92Z"/><path class="cls-1" d="M195.24,399.57a113.14,113.14,0,0,0-10.45-18.31,35.13,35.13,0,0,0-7.46-7.93,11.12,11.12,0,0,0-4.22-2.08,3.72,3.72,0,0,0-2.65.41,5.49,5.49,0,0,0-1.65,2.29c-2.92,5.75-2.74,12.54-1.2,18.66.31,1.23,4,.28,3.67-1a28,28,0,0,1-.2-14.63,13.88,13.88,0,0,1,2.22-4.79l-2.43,1c.33,0-.47-.14-.14,0a1.36,1.36,0,0,0,.29.06l.19.05c.28.07-.31-.11-.07,0a12,12,0,0,1,2.58,1.34c4.13,2.9,7.25,7.26,10,11.44a124,124,0,0,1,7.89,14.51c.59,1.23,4.17.06,3.67-1Z"/><path class="cls-1" d="M189.69,401.45c-2-.09-4.11.39-5.33,2.16a8.12,8.12,0,0,0-1,5.14c.1,2.08.46,4.14.74,6.2a13.17,13.17,0,0,1,.19,4.33,2.79,2.79,0,0,1-.26.53c-.15-.36,2.23-.44,1.39-.43.37,0,.25.21.27.06a6.53,6.53,0,0,1-.48-.58,8.49,8.49,0,0,1-.71-1.33,41.69,41.69,0,0,1-2.48-8.78,31.18,31.18,0,0,1-.86-5.84,39.8,39.8,0,0,1,.23-4.36c.42-3.84,1.37-9.57,5.35-11.3.72-.31,1.35-1.2.85-1.95s-1.78-.62-2.5-.31c-4.41,1.91-6.22,6.8-7,11.19a29.37,29.37,0,0,0-.39,9.49A62.59,62.59,0,0,0,180,416.39c.59,1.78,1.34,4.3,3.05,5.35s4.12-.17,4.75-2.06c.58-1.72.22-3.72,0-5.48a42.93,42.93,0,0,1-.75-7.05,5.56,5.56,0,0,1,.51-2.52l.15-.22c-.08.1.4-.27.09-.09,0,0,.28-.12.08,0s.28-.07.28-.07c-.29,0,.3,0,.31,0a2.36,2.36,0,0,0,2.38-1.14,1.19,1.19,0,0,0-1.14-1.61Z"/><path class="cls-2" d="M462.85,373.94s11.92-23.11,20-23.05c4.92,0,16.81,13.17,16.68,25.73-.18,16.8-11.88,35.88-14.8,45.68s-2.43,23.87-15.48,23.78c-5.17,0-11.56-10.84-11.56-10.84S460.15,389.17,462.85,373.94Z"/><path class="cls-1" d="M469.84,396.77a114.59,114.59,0,0,1,9.75-17.28,38.18,38.18,0,0,1,7.13-8,13.66,13.66,0,0,1,1.14-.82l.54-.34.26-.15h0a5.08,5.08,0,0,0,.47-.23c.4-.21-.38.15.06,0,.6-.23-.43.08.2-.06.21-.05-.62.12-.23.05s-.36,0-.26,0c.44,0-1-.08-.8-.12-.14,0-.05-.22,0,0a2.21,2.21,0,0,0,.3.45,13.57,13.57,0,0,1,.79,1.45c2.63,5.49,2.4,11.92.95,17.69-.2.8,3.39.3,3.62-.64,1.43-5.67,1.75-11.91-.6-17.39a8.45,8.45,0,0,0-1.49-2.67c-.46-.45-1.18-.32-1.79-.22-5.1.85-9.09,5.24-12.1,9.09a103.45,103.45,0,0,0-11.6,19.78c-.29.61,1.26.4,1.47.37.61-.1,1.84-.37,2.15-1Z"/><path class="cls-1" d="M471.64,400.82c4-.17,2.71,6.39,2.38,8.73-.31,2.17-2.16,8.91,1.61,9.19,2.38.17,3.86-1.53,4.79-3.47a38.8,38.8,0,0,0,2.65-9,34.65,34.65,0,0,0,.94-6.71,39.92,39.92,0,0,0-.29-4.77c-.56-4.61-2-10.41-6.69-12.45a3.13,3.13,0,0,0-2.59.37c-.46.27-1.16,1-.35,1.32,3.85,1.68,5.14,6.54,5.76,10.31a38.86,38.86,0,0,1,.47,5.05,14.69,14.69,0,0,1-.25,3.57A63.36,63.36,0,0,1,477.83,413a20.19,20.19,0,0,1-1.18,3c-.18.35-.42.67-.63,1,0,0-.23.38-.18.21.12-.41,1.83-.72,2-.33-.05-.18-.35-.39-.45-.59a3.39,3.39,0,0,1-.22-.83,10.31,10.31,0,0,1,0-2.42c.19-1.92.55-3.82.78-5.73s.51-4.17-.23-6-2.64-2.51-4.58-2.43a3.11,3.11,0,0,0-2.43,1c-.43.7.37,1,1,1Z"/><path class="cls-2" d="M465.55,422.84a10.33,10.33,0,0,1-.33,1.72c-3.27,17.84-6.67,41.78-9.5,50.8-11,35.2-67.68,90.73-125.34,90.73s-114.3-55.53-125.33-90.73c-1.3-4.14-2.73-9.54-4.2-15.91-5.19-22.3-4-65.37-7.48-98.72,0,0-3,0-3,0-3.89-37.84-8.66-82.33-1.85-100,4.78-12.36,16.7-26.74,34.08-39.5v0c25.74-18.92,63.48-34.29,107.78-34.29,74.21,0,123,43.12,134.87,73.81C476,288.43,461.18,362,465.55,422.84Z"/><path d="M489.36,301.2c1.08-4.17,3.41-8.09,4.87-12.21,3.73-10.52,1.38-30.57-5.94-39a19.2,19.2,0,0,1-3.47-4.64,17.16,17.16,0,0,1-.93-5.59,47,47,0,0,0-11-26.69c-3.67-4.3-8.58-8.11-14.23-8.29a35.07,35.07,0,0,0-33.54-29.35c-2.06-.07-8.11,1.72-9.64,1-2-1-1.61-4-3.21-5.51-2.2-2-3.78-4.56-6.29-6.16-5.22-3.33-8-5-14-6.67s-21.69-4.56-26.76-.16c-.35.3-2.57,2.47-2.22,2.91-5-6.35-14.92-8.36-21.7-9-5.44,1.9-8.13,3.23-10.94,6.24-2-4.23-6.55-5.79-11.91-6.24-6.78.66-16.69,2.67-21.69,9,.35-.44-1.88-2.61-2.22-2.91-5.08-4.4-20.89-1.47-26.77.16s-8.76,3.34-14,6.67c-2.51,1.6-4.09,4.15-6.29,6.16-.59.54-2.77,6.06-2.8,6s-4.57-2.69-7.31-2.13c-2.39.5-17.8,2.08-27.95,12a28,28,0,0,0-4,4.79,21,21,0,0,0-3.26,13.4A15.26,15.26,0,0,0,192,208a17.32,17.32,0,0,0-2.43,2.13c-5.78,6.08-16,21.12-13.54,34.21,0,0-5.76,7.2-9.87,13.59s-2.87,30,4.51,43.21c0,0,1.68,5.42-1.43,12.91-3.84,9.23-3,30.12,4.44,36.84,0,0,16.34,17.07,16.35,17.07-2.2-2,.56-40.36,1.1-43.73,2.14-13.52,2.86-35.07,8-47.91,3.4-8.48,8.6-16.11,13.91-23.54q7.82-10.9,16.07-21.49a24.36,24.36,0,0,1,4.14-4.46c5.48-4.23,13.55-3.26,20-4.05,7.38-.9,14.79-1.6,22.18-2.3,17.39-1.65,35.49-4.07,53-3.52,30.39.94,60.62,4.09,90.85,7.25a15,15,0,0,1,4.89,1.08,14.86,14.86,0,0,1,4.76,4.32c9,10.94,18,21.94,25.14,34.2,13.87,24,13.53,71.17,17.8,98,4.83-3.76,15.18-16.89,20-10.89,3.85,4.77.93-23.33.33-29.43-.53-5.55-3.59-10.73-3.47-16.3A17.44,17.44,0,0,1,489.36,301.2Z"/><path d="M491.12,300.86c1.19-4.37,3.54-8.26,5-12.53a33.65,33.65,0,0,0,1.54-8.32,55.12,55.12,0,0,0-2.27-20.1,33,33,0,0,0-3.6-8.12c-2-3.11-5.11-5.28-5.77-9.1-.35-2-.33-4.09-.61-6.12a46.64,46.64,0,0,0-1.19-5.85,47.32,47.32,0,0,0-4.81-11.49c-4.19-7.17-10.69-14.68-19.56-15.13l.61.19a35.29,35.29,0,0,0-29-29,24.15,24.15,0,0,0-6.46-.45c-1.85.19-3.66.64-5.5.91s-3,.12-3.78-1.85a25,25,0,0,0-.89-2.42,10.56,10.56,0,0,0-2-2.29c-1.67-1.77-3.13-3.69-5.18-5.06s-3.89-2.48-5.92-3.56c-6.56-3.46-14.4-4.93-21.74-5.49a33.19,33.19,0,0,0-12.08.87,11.58,11.58,0,0,0-4.39,2.2c-.62.55-2.62,2.19-2.31,3.13l3.57-1c-4.4-5.41-11.52-7.63-18.17-8.7a19.72,19.72,0,0,0-4.51-.49c-1.85.16-3.83,1.18-5.53,1.89a22.2,22.2,0,0,0-7.81,5.18l3.39-.66c-1.52-3-4.29-4.73-7.48-5.61a17.88,17.88,0,0,0-5.42-.8,42,42,0,0,0-5.12.71c-6.94,1.22-14.53,3.64-19.13,9.3l3.51-.68c.34-1-1.76-2.75-2.49-3.33a10.85,10.85,0,0,0-4.79-1.84c-4.57-.8-9.41-.33-14,.34a72,72,0,0,0-13.14,3,43,43,0,0,0-7.33,3.37,31.88,31.88,0,0,0-7,4.84c-1.22,1.23-2.3,2.59-3.53,3.82a6.16,6.16,0,0,0-1.34,2c-.71,1.48-1.17,3.19-2,4.61l3.45-.93a13.37,13.37,0,0,0-9.07-2c-3,.51-5.94,1.05-8.86,1.84-9.78,2.63-20.16,7.67-25.42,16.75a20.46,20.46,0,0,0-2.66,12.53l3.27-1.13c-6.91-.85-13.45,3.2-17.69,8.28-5,6-9.23,13.23-11.12,20.89a30.85,30.85,0,0,0-.91,5.89,22.91,22.91,0,0,0,0,3.1,9.09,9.09,0,0,1,.25,2.32c-.23.79-1.44,1.84-1.93,2.47q-1.81,2.37-3.57,4.79c-2,2.72-4.4,5.52-5.4,8.79a32.32,32.32,0,0,0-1.2,8.3,72.36,72.36,0,0,0,2.88,22.8,54.63,54.63,0,0,0,1.86,5.4c.6,1.46,1.52,2.85,2.06,4.32.81,2.24.52,5.18.14,7.46-.62,3.62-2.35,6.9-3,10.52a50,50,0,0,0-.77,10.43c.16,6.52,1.11,14.21,5.13,19.6,2.1,2.81,4.94,5.27,7.36,7.8l10,10.42c.21.22.42.45.64.67l3.38-1.17c-.48-.48-.5-2-.56-2.74-.17-1.91-.18-3.83-.18-5.74,0-5.31.23-10.61.52-15.91.26-4.87.57-9.73,1-14.59.33-4,1-8,1.43-12,1.85-15.87,2.46-32.46,10-46.89,4.41-8.44,10.16-16.14,15.78-23.79q4.54-6.18,9.24-12.24c2.8-3.63,5.46-7.67,10.17-8.82,3.9-1,8-.74,12-1.09,4.91-.43,9.8-1.11,14.71-1.6,10.08-1,20.17-2,30.26-3a254,254,0,0,1,30.59-1.38c10.52.28,21,.89,31.53,1.66s20.76,1.68,31.13,2.68q7.62.75,15.23,1.53c5,.51,10,.85,14.95,1.58s7.74,5.09,10.76,8.79,6.14,7.54,9.1,11.39c5.39,7,10.83,14.39,14.72,22.38,6.24,12.81,8.54,27.46,10.34,41.46,1.9,14.75,2.8,29.61,4.51,44.39.34,2.94.72,5.88,1.18,8.81.12.77,3.08-.4,3.4-.65,4.4-3.49,7.85-8.3,12.82-11.05.94-.52,1.18-.75,2.22-.37s1.26,1.16,2,1.63c1.15.73,3.6.06,4.34-1s.65-2.77.71-4c.1-2.25,0-4.5-.06-6.74-.23-5.16-.67-10.32-1.16-15.46a47.68,47.68,0,0,0-1.37-8.57c-1.44-5.1-3.23-9.86-1.92-15.21.14-.59-3.31-.15-3.51.67-1.09,4.47-.27,8.5,1.05,12.8a47.2,47.2,0,0,1,2,9.38c.48,4.88.92,9.76,1.2,14.66.15,2.53.27,5.06.25,7.6a16.54,16.54,0,0,1-.47,5c-.05.16-.25.4-.27.55.09-.75,2.58-1.3,2.83-.73,0-.06-.19-.09-.23-.15a4.78,4.78,0,0,0-2-1.63c-2.21-.91-5.06,0-7.1.94-5.81,2.69-9.63,8.12-14.54,12l3.4-.65c-2.28-14.41-3-29-4.57-43.53-1.59-15-3.49-30.31-8.68-44.52-2.73-7.47-6.88-14.17-11.41-20.68-5.66-8.14-12-15.83-18.28-23.47a16.63,16.63,0,0,0-4.39-4.18c-2.08-1.16-4.55-1.28-6.87-1.52L404,221.8c-10.58-1.08-21.17-2.11-31.77-3-20.94-1.74-42.1-3.44-63.11-2.05-10.33.68-20.62,1.87-30.93,2.88-5.06.49-10.12,1-15.18,1.48-4.78.5-9.53,1.14-14.33,1.38a42.68,42.68,0,0,0-11.88,1.84c-4,1.4-6.77,3.95-9.37,7.27-6.37,8.13-12.56,16.43-18.48,24.9-5.2,7.46-10.24,15.36-12.89,24.14-2.29,7.59-3.29,15.55-4.2,23.4-1.23,10.62-2.67,21.21-3.39,31.87-.37,5.56-.68,11.11-.86,16.68a98.82,98.82,0,0,0,.08,13.33,4.34,4.34,0,0,0,.72,2.6c.59.59,3.81-.72,3.38-1.17-5.37-5.58-10.65-11.25-16.07-16.78-3.74-3.83-5.33-8.91-6.17-14.1a48.34,48.34,0,0,1,.65-20.25c1.41-5.09,4.57-11.25,1.85-16.47-3.44-6.61-5.11-14.16-5.91-21.52-.65-6-1.11-12.83.89-18.61,1.1-3.19,3.58-6,5.55-8.7q1.65-2.28,3.38-4.52a11.86,11.86,0,0,0,1.81-2.33,2.27,2.27,0,0,0,0-1.18,22.66,22.66,0,0,1-.21-3.08,28,28,0,0,1,.64-6,44.29,44.29,0,0,1,4.6-12,61,61,0,0,1,6.06-9.13c2.46-3.07,5.42-6.32,9.48-7a9.31,9.31,0,0,1,2.44-.13c.52.06,3.38-.28,3.26-1.13-1.17-8.57,4.26-16.3,10.91-21.08,6-4.33,13.25-6.52,20.51-7.72a7.21,7.21,0,0,1,3.33,0,17.51,17.51,0,0,1,4.31,1.86,3.87,3.87,0,0,0,3.44-.93,28,28,0,0,0,1.33-3.13,12.33,12.33,0,0,1,2.52-3.95,32,32,0,0,1,6-5.55,54.15,54.15,0,0,1,6.38-3.61,46.53,46.53,0,0,1,11-3.12,48.76,48.76,0,0,1,12.52-.89,13.4,13.4,0,0,1,5.57,1.43c.73.42,3.47,2.46,3.17,3.37-.23.68,3.1-.17,3.51-.68,3.81-4.68,9.79-6.64,15.55-7.58a16.69,16.69,0,0,1,8,.44,10.41,10.41,0,0,1,6.55,5.18c.36.73,3-.25,3.39-.66,2.79-2.93,6.16-4.42,9.93-5.74l-2.08.32c7.58.76,16.34,2.65,21.39,8.86.47.58,3.79-.3,3.57-1s1.55-2.19,2-2.61a6,6,0,0,1,3.1-1.24,38.59,38.59,0,0,1,10.46.25c7.05.9,14,2.59,20.14,6.25a32.66,32.66,0,0,1,5.39,3.6c1.64,1.49,3.17,3.25,4.65,4.89,1.22,1.36,1.15,3.32,2.26,4.72.84,1,2,1.1,3.24,1,3.58-.17,6.81-1.34,10.43-.92a34.84,34.84,0,0,1,14.12,4.84,35.5,35.5,0,0,1,16.24,24.12c0,.2.52.18.61.19,8,.41,14.23,7.9,18.06,14.28a47.17,47.17,0,0,1,4.79,10.91,60,60,0,0,1,1.92,11.6,10.42,10.42,0,0,0,1.85,5.4c1,1.38,2.26,2.55,3.28,3.92a28.9,28.9,0,0,1,3.88,7.68,54.75,54.75,0,0,1,2.92,19.38,36.76,36.76,0,0,1-1.38,9.73c-1.38,4.53-3.95,8.6-5.19,13.19C487.45,302.1,490.89,301.7,491.12,300.86Z"/><path d="M339.45,450.24c-3.86,3.24-9.92,3.16-14,.15-.92-.67-3.84.35-2.56,1.29,5.42,4,14.1,3.55,19.08-.63.5-.42.39-.95-.26-1.18a2.61,2.61,0,0,0-2.24.37"/><path d="M320.82,448.55a29.23,29.23,0,0,0-10.92-3,2.37,2.37,0,0,0-1.67.58c-.32.31-.39.73,0,1a11.09,11.09,0,0,0,6,1.5,2.19,2.19,0,0,0,1.85-.79c.33-.55-.28-.92-.78-.91a8.73,8.73,0,0,1-4.84-1.23c-.55.52-1.09,1.05-1.65,1.57a25.94,25.94,0,0,1,9.76,2.69,2.17,2.17,0,0,0,2-.24c.4-.26.83-.86.23-1.18"/><path d="M306,449.06c-3.72-.12-8.09-2.22-9.92-5.84-2.77-5.48-.19-12,4.45-15.48.51-.38.24-.87-.27-1a2.45,2.45,0,0,0-2,.53c-4,3.05-6.67,8-6.06,13.14.57,4.8,4.13,8.15,8.58,9.54a16.15,16.15,0,0,0,4.13.74c.56,0,1.57-.2,1.85-.77s-.24-.83-.77-.85"/><path d="M344.33,449.16a29,29,0,0,1,10.92-3,2.33,2.33,0,0,1,1.67.58c.32.31.39.72,0,1a11.11,11.11,0,0,1-6,1.5,2.18,2.18,0,0,1-1.85-.78c-.33-.56.28-.92.78-.91a8.81,8.81,0,0,0,4.84-1.23l1.65,1.56a26,26,0,0,0-9.76,2.7,2.17,2.17,0,0,1-2-.24c-.4-.26-.83-.87-.23-1.18"/><path d="M359.15,449.67c3.72-.12,8.09-2.22,9.92-5.85,2.76-5.47.19-12-4.45-15.47-.51-.38-.24-.88.27-1a2.49,2.49,0,0,1,2,.54c4.05,3.05,6.67,8,6.06,13.14-.57,4.79-4.13,8.15-8.58,9.54a16.15,16.15,0,0,1-4.13.74c-.56,0-1.57-.21-1.85-.78s.24-.83.77-.84"/><path class="cls-3" d="M271.39,367.2c-4.85-2.51-10.51-.34-13.69,2.47A12.29,12.29,0,0,0,254,375.4c-1.2,4.07.43,8.68,3,11.49,3.41,3.74,9.1,4.39,13.47,2.35,5.92-2.76,7.84-9.89,6.37-15.07a11.51,11.51,0,0,0-5.45-7"/><path class="cls-3" d="M302.65,387.94s-17-25.14-35-25.14c-25.42,0-27,9.38-37.39,17.16,0,0,16.95-12.74,36.61-12.25C284.66,368.15,302.65,387.94,302.65,387.94Z"/><path class="cls-3" d="M394.52,367.15c4.84-2.51,10.51-.34,13.68,2.47a12.2,12.2,0,0,1,3.69,5.73c1.2,4.07-.43,8.69-3,11.49-3.42,3.75-9.1,4.39-13.47,2.36-5.92-2.77-7.85-9.89-6.37-15.07a11.52,11.52,0,0,1,5.45-7"/><path class="cls-3" d="M363.26,387.9s17-25.15,35-25.15c25.43,0,31.42,10.79,36.94,18.48,0,0-16.5-14.05-36.15-13.57C381.25,368.1,363.26,387.9,363.26,387.9Z"/><path class="cls-4" d="M478.24,327.08c-1.55-13.42-3.26-26.82-4.91-40.23s-3.92-26.92-4.28-40.39c-.23-8.54.27-17.39-2.11-25.68-2.61-9.09-8.87-14-17.84-16-17.48-4-36.28-.54-53.88.83-18.19,1.41-36.58.63-54.81.88-20.13.29-40.4,1.05-60.27,4.51-19,3.32-38,9-53.76,20.51-13.93,10.16-24.39,24.42-30.8,40.36-12.08,30-12.83,59-12.77,91,2.13,1.6,10.62,17.48,12.53,19.29,3.21,3,5.45.52,6-3.85,1.67-12.79.62-47.51-.35-63-1.49-23.5,14.14-66.84,39.2-72.6,45.85-10.54,25.3,17.19,92.57,17.19s54.54-24.46,83.51-21.86c35.72,3.2,44.58,66.33,44.14,84.82-.31,12.94-.2,51.94.44,67.52C461,393,468,385.68,468,374.09c0-10.94,10-18.33,14.84-23.2C481.87,338.39,479.69,339.55,478.24,327.08Z"/><path class="cls-5" d="M334.69,474.79v-.45c-.95,0-1.95.11-3,.2-.56,0-1.13-.09-1.66-.11v.27c-18.22,2-37.67,16.26-44.66,22.57,0,0,5.88,16,44.34,17h1.8c41-.32,45.63-17.14,45.63-17.14C370.2,490.84,358.63,470.62,334.69,474.79Z"/><path class="cls-6" d="M367.94,482.27s-7.9-10.42-33.16-12V470c-1.18,0-2.29.08-3.41.14l-1.21-.05v.1c-25.26,1.55-34.82,12.57-34.82,12.57a300.82,300.82,0,0,1,31.44-1.49c1.1,0,2.25.06,3.38.08l.24,0c1.44-.05,2.6.11,4,.08h.35c1.13,0,2.29-.07,3.38-.08C354.93,481.25,367.94,482.27,367.94,482.27Z"/><path class="cls-7" d="M355.42,498.24c-8.21,1.78-5.56,1.38-15.25,4.1-2.33.66-4.44.68-9.51,2.46a26.05,26.05,0,0,1-4.93-.78c-9.68-2.72-12.86-2.7-21.07-4.47a42.06,42.06,0,0,0-23.69.9s1,.16,4.22,2.16c8.78,5.5,12.65,15.21,37.44,15.15a53.15,53.15,0,0,0,8-1.06,53.06,53.06,0,0,0,8,1.06c24.79.06,28.67-9.65,37.44-15.15,3.2-2,4.22-2.16,4.22-2.16C369.84,497,360.85,497.06,355.42,498.24Z"/><path class="cls-7" d="M331.1,478.36c-16,.25-19.65,1.54-26.74,6.57-4.76,3.38-11.63,8.81-15.61,12-5.55,4.38-8,3.91-8,3.91.66-.31.54-1.11,4.3-6.08,2-2.64,6.11-6.82,8.32-10,8.63-12.23,10.45-16.46,19-18.21a42.67,42.67,0,0,1,18.45.39s.16.06.16,0,.05,0,.15,0l.3-.06a42.67,42.67,0,0,1,18.45-.39c8.58,1.75,10.12,4.48,18.74,16.72,2.21,3.14,6.62,8.81,8.61,11.45,3.76,5,3.64,5.77,4.3,6.08,0,0-2.44.47-8-3.91-4-3.15-10.85-8.58-15.61-12-7.09-5-10.71-6.32-26.74-6.57"/><path class="cls-8" d="M327.42,314.17s15.56,23.72-9.22,27.94C318.2,342.11,335.39,336.58,327.42,314.17Z"/><path class="cls-8" d="M339,314.17s-15.55,23.72,9.23,27.94C348.21,342.11,331,336.58,339,314.17Z"/><path d="M273.2,342.8c7.12-.66,14.36-.69,21.34-2.38a27.38,27.38,0,0,0,13-7.26,6.88,6.88,0,0,0,1.28-1.62,6.77,6.77,0,0,0,.57-2.28c.33-3.18.3-7.34-2-9.86-2-2.18-2.19-1.32-5-.47-2.37.71-9.76,5.49-12.56,6.36-4.61,1.43-9.49,3.77-20,5.7-12.54,1.31-24-.1-34.43,4.66-6.6,4-12.86,6.88-13.6,15.23-.05.52-.48,5.6.51,5.84,2.4.58,5.44-4.35,6.69-5.61a34.83,34.83,0,0,1,9.7-6.67C247.79,342.43,263.11,342.92,273.2,342.8Z"/><path d="M273.13,343.16c4.68-.43,9.38-.59,14.05-1.13A42,42,0,0,0,299.79,339a27.74,27.74,0,0,0,5.1-3,16.93,16.93,0,0,0,4.26-4.05c1-1.51,1-3.64,1-5.39a13.5,13.5,0,0,0-.9-5.34,6.41,6.41,0,0,0-2.87-3.36c-1.13-.49-2.34.19-3.4.56a44.76,44.76,0,0,0-7.12,3.5,40.61,40.61,0,0,1-7,3.37c-2.44.81-4.85,1.72-7.3,2.5a93.27,93.27,0,0,1-11,2.76,51.1,51.1,0,0,1-6.89.59c-2.19.11-4.39.19-6.58.28a92.06,92.06,0,0,0-12.52,1.16,42.73,42.73,0,0,0-5.92,1.49c-1,.32-1.89.68-2.81,1.08a20.25,20.25,0,0,0-2.41,1.34,40.39,40.39,0,0,0-8,5.61,14,14,0,0,0-4.11,8.49c-.11.93-.15,1.88-.17,2.83a7.12,7.12,0,0,0,.35,3.21c.48.95,2,.47,2.74.1a10.89,10.89,0,0,0,3.17-2.84,36.31,36.31,0,0,1,2.46-2.93,30,30,0,0,1,5-3.89c.87-.56,1.77-1.07,2.68-1.56a12.4,12.4,0,0,1,1.41-.71,7.46,7.46,0,0,1,1.14-.24c1.65-.31,3.31-.52,5-.68,7.61-.76,15.29-.66,22.93-.66,1.69,0,3.37,0,5.06,0,.25,0,.66-.08.78-.34s-.09-.4-.33-.39c-7.22.08-14.44-.07-21.66.24a91.69,91.69,0,0,0-10.34.91c-.73.11-1.47.24-2.2.39a9.32,9.32,0,0,0-2.51,1.09,36.46,36.46,0,0,0-4.93,3.1,21.86,21.86,0,0,0-3.74,3.38c-.86,1-1.65,2.12-2.58,3.1A8.44,8.44,0,0,1,224,356c-.27.17-.93.58-1.24.38s-.28-.74-.32-1a12.84,12.84,0,0,1-.1-1.75,17.89,17.89,0,0,1,1.29-7.42,16.58,16.58,0,0,1,6.09-6.59,38.35,38.35,0,0,1,9.19-5,49.52,49.52,0,0,1,11.65-2.18c4.15-.35,8.33-.43,12.49-.64,2.15-.11,4.3-.25,6.44-.46a45.93,45.93,0,0,0,6.21-1.28c3-.73,6-1.63,8.94-2.65l3.38-1.19c1-.34,2-.61,3-1a82.84,82.84,0,0,0,7.39-3.92c1.11-.62,2.22-1.24,3.38-1.76.47-.21.92-.35,1.42-.52a14.21,14.21,0,0,1,1.8-.63,1.37,1.37,0,0,1,1.18.48,7.5,7.5,0,0,1,1.57,1.89,11.37,11.37,0,0,1,1.23,5.13,23.28,23.28,0,0,1-.07,2.64,8.35,8.35,0,0,1-.56,2.85,7.79,7.79,0,0,1-2,2.34,26.73,26.73,0,0,1-2.24,1.87,27.82,27.82,0,0,1-10.65,4.71,94.05,94.05,0,0,1-13.58,1.61c-2.19.15-4.37.3-6.55.5C272.67,342.5,272.31,343.24,273.13,343.16Z"/><path d="M394,342.8c-7.12-.66-14.36-.69-21.35-2.38a27.39,27.39,0,0,1-13-7.26,6.88,6.88,0,0,1-1.28-1.62,6.77,6.77,0,0,1-.57-2.28c-.33-3.18-.3-7.34,2-9.86,2-2.18,2.19-1.32,5-.47,2.37.71,9.76,5.49,12.56,6.36,4.61,1.43,9.49,3.77,20,5.7,12.54,1.31,24-.1,34.43,4.66,6.6,4,12.86,6.88,13.6,15.23.05.52.48,5.6-.51,5.84-2.4.58-5.44-4.35-6.69-5.61a34.83,34.83,0,0,0-9.7-6.67C419.36,342.43,404,342.92,394,342.8Z"/><path d="M394.17,342.44c-4.48-.42-9-.59-13.46-1.07a41.56,41.56,0,0,1-12.54-2.94,26.89,26.89,0,0,1-4.9-2.85,26,26,0,0,1-2.36-1.95,9,9,0,0,1-2-2.25,7.37,7.37,0,0,1-.62-2.79,22.86,22.86,0,0,1-.1-2.62,11.72,11.72,0,0,1,1.12-5.15,7.2,7.2,0,0,1,1.56-2c.37-.33.61-.5,1.09-.38s1.23.44,1.84.65a14.17,14.17,0,0,1,1.42.52c2.55,1.15,4.93,2.65,7.38,4,1.11.6,2.23,1.21,3.4,1.7.95.4,1.95.67,2.93,1,2.44.85,4.87,1.73,7.35,2.49q2.43.74,4.91,1.33a46.83,46.83,0,0,0,6.19,1.26c4.25.43,8.51.56,12.78.74a88.67,88.67,0,0,1,12.17,1.13,41,41,0,0,1,5.65,1.43c1,.32,1.91.68,2.84,1.09a23,23,0,0,1,2.31,1.33,37.56,37.56,0,0,1,7.68,5.43,13.6,13.6,0,0,1,3.87,8.4c.08.9.13,1.8.14,2.7a14.55,14.55,0,0,1-.08,1.75,5.54,5.54,0,0,1-.12.71s-.17.38-.16.39l.22-.1h-.15c-.11,0-.24,0-.35-.06a3.06,3.06,0,0,1-.82-.38,8.15,8.15,0,0,1-1.55-1.32c-1-1-1.75-2.07-2.61-3.12a20.22,20.22,0,0,0-3.54-3.25,35.68,35.68,0,0,0-5-3.22,9.17,9.17,0,0,0-2.42-1.07c-.75-.15-1.51-.29-2.28-.4-1.61-.25-3.23-.43-4.85-.57-7.37-.63-14.79-.55-22.18-.55l-4.78,0c-.25,0-.67.07-.78.33s.09.4.33.4c7.53.08,15.06-.09,22.59.28a79.25,79.25,0,0,1,10.55,1.09c.35.07.72.11,1.06.21a8.85,8.85,0,0,1,1.45.71c.93.49,1.84,1,2.73,1.57a30.73,30.73,0,0,1,5,3.87c1.92,1.84,3.2,4.55,5.63,5.83.8.42,2.3.74,2.89-.2a6.13,6.13,0,0,0,.42-3.15,17.44,17.44,0,0,0-1.5-7.71,17.75,17.75,0,0,0-6.29-6.59c-1.38-.93-2.8-1.78-4.23-2.63a22.06,22.06,0,0,0-2.42-1.36c-.91-.39-1.84-.75-2.77-1.06a50.89,50.89,0,0,0-12-2.27c-4.3-.36-8.63-.43-12.94-.66a51.55,51.55,0,0,1-6.92-.59c-2.09-.4-4.17-.85-6.23-1.38-3-.77-5.91-1.71-8.81-2.74a53.84,53.84,0,0,1-6.42-2.41c-2.69-1.35-5.25-2.92-7.92-4.31a23.45,23.45,0,0,0-3.16-1.32c-1.12-.39-2.23-1-3.41-.48a6.74,6.74,0,0,0-3,3.45,13.1,13.1,0,0,0-.94,5.25c0,1.73,0,3.86.87,5.39a9.78,9.78,0,0,0,2,2.22,25.57,25.57,0,0,0,2.19,1.83A28.67,28.67,0,0,0,373,340.93a91,91,0,0,0,13.87,1.72c2.3.16,4.6.31,6.9.52C394.22,343.21,395,342.51,394.17,342.44Z"/></g></svg>