<svg id="Layer_1" data-name="Layer 1" xmlns="http://www.w3.org/2000/svg" viewBox="0 0 121.68 121.1"><defs><style>.cls-1{fill:#a66e53;}.cls-2{fill:#4f2e25;}</style></defs><path class="cls-1" d="M13.57,58.72V26.26s12.87-11,29.23-12,47.27-1.67,49.79-1.67,7.36,1.16,7.74,7.36-1.55,7.75-1.55,7.75,4.7,0,4.8,9.26a14.32,14.32,0,0,1-1.7,7.23s3.65,1.84,3.84,7.26-2,7.72-4.75,8.5a13.45,13.45,0,0,1,.33,8.42c-1.35,4.45-5.61,6.58-10.07,7.16s-21.88,0-21.88,0,5.42,13,5.61,21.31-2.9,16.65-10.26,16.46-10.46-3.49-10.46-8.13c0,0,1.29-8.47-1.61-15.08S38.92,75.42,35.11,72.22c-2.75-2.32-7.1-2.89-10.47-3.75-4.28-1.08-7.77-2.1-10.6-5.74a2.08,2.08,0,0,1-.4-.69,2.22,2.22,0,0,1-.07-.68Z"/><path class="cls-2" d="M69.6,75c.08,0-.43-.12-.64-.2a5.16,5.16,0,0,1-1.65-1.09C65.42,71.87,65,69,65.13,66.44c.17-2.89,1.78-6.38,5.06-6,.67.07,1.5-.82.52-1a6.81,6.81,0,0,0-.69-.21,7.49,7.49,0,0,1-1.7-.9,7.72,7.72,0,0,1-3.07-5.5c-.28-2.38,0-5.4,1.67-7.27a4,4,0,0,1,1.45-1.06c.15-.06.31-.1.46-.15s-.12,0,.06,0c.58-.06,1.26-.89.33-1-2.85-.35-4.57-3.42-4.75-6.19-.19-3,.73-7.37,3.77-8.69.5-.22.55-.83-.06-.9-3.79-.47-3.42-5.31-3.23-8.12.09-1.32.29-2.81,1.4-3.68,1.57-1.21,4.09-1.15,6-1.21.8,0,1.13-1,.14-1-2.29.08-5,.16-7,1.56a5.47,5.47,0,0,0-2,4.25c-.18,2.2-.52,5.17.74,7.11a4.92,4.92,0,0,0,3.42,2.1l0-.9C61.32,30.36,61,43.36,68.71,44.3l.33-1c-4.22.46-5.49,5.55-5.31,9.05.21,3.76,2.6,7.34,6.46,8.06l.52-1c-3.9-.41-6.58,2.86-7,6.46-.43,3.8.78,9.46,5.36,10.13.68.11,1.49-.85.51-1Z"/><path class="cls-2" d="M69.44,60.37H100.7c.61,0,1.51-.93.54-.93H70c-.61,0-1.51.93-.54.93Z"/><path class="cls-2" d="M68.7,44.28l28.58.4,4,0c.65,0,1.51-.95.53-1l-28.58-.4-4-.06c-.65,0-1.51,1-.53,1Z"/><path class="cls-2" d="M67,28.41l27.6-.28,3.94,0c.57,0,1.53-.88.55-.87l-27.59.28-4,0c-.57,0-1.52.88-.55.87Z"/><path class="cls-2" d="M62.84,70.25q0-6.68-.19-13.36c-.09-3-.19-5.91-.48-8.85a12.93,12.93,0,0,0-.6-3.27,10.58,10.58,0,0,0-2.93-4c-2.37-2.14-5.75-4.24-9-4.64-.39,0-1.68.61-.91.71,2.94.36,6,2.28,8.18,4.15a10.48,10.48,0,0,1,3.19,4.15,12.25,12.25,0,0,1,.58,3.07c.61,5.79.61,11.66.67,17.47,0,1.65,0,3.29,0,4.94,0,.36,1.45.11,1.45-.39Z"/></svg>