<svg id="Layer_1" data-name="Layer 1" xmlns="http://www.w3.org/2000/svg" viewBox="0 0 121.68 121.1"><defs><style>.cls-1{fill:#ffcc04;}.cls-2{fill:#c17429;}</style></defs><path class="cls-1" d="M13.57,58.72V26.26s12.87-11,29.23-12,47.27-1.67,49.79-1.67,7.36,1.16,7.74,7.36-1.55,7.75-1.55,7.75,4.7,0,4.8,9.26a14.32,14.32,0,0,1-1.7,7.23s3.65,1.84,3.84,7.26-2,7.72-4.75,8.5a13.45,13.45,0,0,1,.33,8.42c-1.35,4.45-5.61,6.58-10.07,7.16s-21.88,0-21.88,0,5.42,13,5.61,21.31-2.9,16.65-10.26,16.46-10.46-3.49-10.46-8.13c0,0,1.29-8.47-1.61-15.08S38.92,75.42,35.11,72.22c-2.75-2.32-7.1-2.89-10.47-3.75-4.28-1.08-7.77-2.1-10.6-5.74a2.08,2.08,0,0,1-.4-.69,2.22,2.22,0,0,1-.07-.68Z"/><path class="cls-2" d="M69.78,75.08c-3.74-.56-4.79-5.4-4.66-8.47.12-2.88,1.6-6.63,5.06-6.27.43,0,1.52-.7.71-.85-3.13-.58-5.2-3.54-5.61-6.53-.34-2.43-.07-5.56,1.63-7.49a3.94,3.94,0,0,1,1.44-1.08,3.09,3.09,0,0,1,.43-.14c.25-.07-.09,0,.09,0,.53-.06,1.29-.76.37-.87.22,0-.45-.11-.6-.16a5.85,5.85,0,0,1-1.58-.79,6.82,6.82,0,0,1-2.58-5.18c-.24-3,.77-7.59,3.74-8.88.48-.22.58-.7,0-.77.31,0-.12,0-.18,0a4.41,4.41,0,0,1-.7-.23,3.94,3.94,0,0,1-1.74-1.49c-1.1-1.73-.77-4.35-.64-6.32.08-1.31.25-2.86,1.33-3.77,1.49-1.26,4-1.22,5.84-1.27.57,0,1.52-.91.54-.88-2.31.07-5,.13-7,1.45a5.23,5.23,0,0,0-2.12,4.2c-.2,2.2-.55,5.25.71,7.18a4.87,4.87,0,0,0,3.42,2.06l0-.77C61.34,30.43,61,43.3,68.69,44.24l.36-.88c-4.1.45-5.42,5.26-5.33,8.69.11,3.74,2.38,7.55,6.3,8.27l.71-.85c-3.8-.41-6.53,2.72-7,6.24-.46,3.68.63,9.53,5.16,10.2.5.07,1.71-.71.87-.83Z"/><path class="cls-2" d="M69.25,60.22H100.5a1.54,1.54,0,0,0,1-.28c.14-.16.27-.35-.09-.35H70.18a1.55,1.55,0,0,0-1,.28c-.14.16-.27.35.1.35Z"/><path class="cls-2" d="M68.67,44.15l28.58.4,4,.05c.47,0,1.56-.69.59-.7l-28.58-.4-4-.06c-.47,0-1.56.7-.59.71Z"/><path class="cls-2" d="M66.78,28.28,94.38,28l3.94,0a1.56,1.56,0,0,0,1-.27c.14-.16.27-.34-.09-.34l-27.59.28-3.94,0a1.59,1.59,0,0,0-1,.27c-.14.16-.27.35.09.34Z"/><path class="cls-2" d="M62.84,70.25q0-6.68-.19-13.36c-.09-3-.19-5.91-.48-8.85a12.93,12.93,0,0,0-.6-3.27,10.62,10.62,0,0,0-2.93-4c-2.37-2.13-5.75-4.24-9-4.64-.41,0-1.69.63-.9.73,2.93.36,6,2.27,8.17,4.15a10.37,10.37,0,0,1,3.19,4.14,12.25,12.25,0,0,1,.58,3.07c.61,5.79.61,11.66.67,17.47,0,1.65,0,3.29,0,4.94,0,.38,1.45.13,1.45-.39Z"/></svg>