<svg id="Layer_1" data-name="Layer 1" xmlns="http://www.w3.org/2000/svg" viewBox="0 0 121.68 121.1"><defs><style>.cls-1{fill:#ffcc04;}.cls-2{fill:#c17429;}</style></defs><path class="cls-1" d="M13.57,62.1V94.55s12.87,11,29.23,12,47.27,1.66,49.79,1.66,7.36-1.16,7.74-7.36-1.55-7.74-1.55-7.74,4.7,0,4.8-9.27a14.32,14.32,0,0,0-1.7-7.23s3.65-1.84,3.84-7.26-2-7.72-4.75-8.49a13.47,13.47,0,0,0,.33-8.42C100,48,95.69,45.9,91.23,45.32s-21.88,0-21.88,0S74.77,32.34,75,24,72.06,7.36,64.7,7.55,54.24,11,54.24,15.69c0,0,1.29,8.46-1.61,15.08S38.92,45.39,35.11,48.6c-2.75,2.31-7.1,2.89-10.47,3.74-4.28,1.09-7.77,2.1-10.6,5.74a2.18,2.18,0,0,0-.4.69,2.22,2.22,0,0,0-.07.68Z"/><path class="cls-2" d="M69.46,45c-8,1.19-8,17.22.88,16.28l.23-.69a8.49,8.49,0,0,0-6.78,7.55c-.34,3.25.57,8.8,4.72,9.26l.57-.7a7.14,7.14,0,0,0-6,6.48c-.39,3.47.68,8.4,4.28,10l.7-.67a5.59,5.59,0,0,0-3.52,1.89c-1.52,1.85-1.17,4.74-1,7,.09,1.63.39,3.37,1.79,4.4,1.87,1.36,4.61,1.38,6.82,1.45.48,0,1.55-.69.58-.72-1.94-.06-4.39-.08-6-1.27A4.68,4.68,0,0,1,65,101.59c-.26-2.65-.73-8,2.83-8.45.19,0,1.23-.43.7-.67-3-1.29-4-5.25-4.07-8.15s1.36-6.59,4.41-7c.25,0,1.33-.61.57-.7-3.42-.37-4.29-5.1-4.25-7.77a8.21,8.21,0,0,1,2.77-6.39,6.72,6.72,0,0,1,1.75-1c.16-.06.9-.26.65-.22.63-.11,1.26-.8.23-.69.3,0-.42,0-.58,0a5.15,5.15,0,0,1-1.76-.5c-2-1-2.82-3.13-3-5.21-.28-2.61,0-5.73,1.87-7.76a4.8,4.8,0,0,1,1.66-1.23,3.58,3.58,0,0,1,.52-.17c.65-.1,1.24-.85.23-.7Z"/><path class="cls-2" d="M69.42,61.28h31.26c.49,0,1.55-.74.58-.74H70c-.49,0-1.55.74-.58.74Z"/><path class="cls-2" d="M68.5,77.32l28.58-.4,4-.06c.31,0,1.63-.61.93-.6l-28.58.4-4,.06c-.31,0-1.63.6-.93.6Z"/><path class="cls-2" d="M66.77,93.11l27.6.28,3.94,0c.29,0,1.63-.54,1-.55L71.67,92.6l-4,0c-.28,0-1.63.55-1,.55Z"/><path class="cls-2" d="M61.39,50.56q0,6.21-.16,12.41c-.08,2.88-.18,5.76-.41,8.63-.22,2.66-.56,5-2.43,7.05a17.86,17.86,0,0,1-4.73,3.6,12.68,12.68,0,0,1-4.35,1.67c-.69.09-1.21.91-.21.78A18.29,18.29,0,0,0,57.19,81c2.52-1.87,4.43-4.18,4.85-7.35a151.11,151.11,0,0,0,.77-18.18c0-1.75,0-3.51,0-5.27,0-.43-1.45-.16-1.45.39Z"/></svg>