<svg id="Layer_1" data-name="Layer 1" xmlns="http://www.w3.org/2000/svg" viewBox="0 0 121.68 121.1"><defs><style>.cls-1{fill:#a66e53;}.cls-2{fill:#4f2e25;}</style></defs><path class="cls-1" d="M13.57,62.1V94.55s12.87,11,29.23,12,47.27,1.66,49.79,1.66,7.36-1.16,7.74-7.36-1.55-7.74-1.55-7.74,4.7,0,4.8-9.27a14.32,14.32,0,0,0-1.7-7.23s3.65-1.84,3.84-7.26-2-7.72-4.75-8.49a13.47,13.47,0,0,0,.33-8.42C100,48,95.69,45.9,91.23,45.32s-21.88,0-21.88,0S74.77,32.34,75,24,72.06,7.36,64.7,7.55,54.24,11,54.24,15.69c0,0,1.29,8.46-1.61,15.08S38.92,45.39,35.11,48.6c-2.75,2.31-7.1,2.89-10.47,3.74-4.28,1.09-7.77,2.1-10.6,5.74a2.18,2.18,0,0,0-.4.69,2.22,2.22,0,0,0-.07.68Z"/><path class="cls-2" d="M69.45,44.94c-8,1.18-8,17.29.9,16.35l.21-.76a8.5,8.5,0,0,0-6.77,7.57c-.34,3.24.57,8.84,4.73,9.29l.55-.75a7.16,7.16,0,0,0-6,6.5c-.39,3.47.68,8.43,4.28,10l.69-.72a5.55,5.55,0,0,0-3.52,1.9c-1.51,1.86-1.16,4.75-1,7,.09,1.63.39,3.37,1.8,4.41,1.86,1.37,4.6,1.4,6.81,1.47.53,0,1.55-.75.58-.78-1.94-.06-4.39-.07-6-1.25A4.65,4.65,0,0,1,65,101.59c-.26-2.66-.72-8,2.84-8.41.21,0,1.24-.48.68-.72-3-1.29-4-5.24-4.06-8.14s1.43-6.56,4.42-6.92c.28,0,1.33-.68.55-.76-3.46-.38-4.31-5.18-4.23-7.88a8.12,8.12,0,0,1,2.76-6.24,7,7,0,0,1,1.76-1,5.25,5.25,0,0,1,.52-.17c.09,0,.47-.1.13,0,.65-.12,1.24-.87.21-.76h-.11a3.77,3.77,0,0,1-.47,0A4.93,4.93,0,0,1,68.23,60c-2-1-2.82-3.12-3-5.19-.28-2.59,0-5.73,1.87-7.75a4.85,4.85,0,0,1,1.67-1.2c.17-.08.69-.21.52-.18.68-.1,1.22-.91.21-.76Z"/><path class="cls-2" d="M69.43,61.33h31.26c.57,0,1.53-.85.56-.85H70c-.56,0-1.53.85-.56.85Z"/><path class="cls-2" d="M68.67,77.38,97.25,77l4,0c.49,0,1.56-.75.59-.73l-28.58.39-4,.06c-.49,0-1.56.74-.59.73Z"/><path class="cls-2" d="M67,93.17l27.59.28,3.94,0c.45,0,1.57-.65.61-.66l-27.6-.28-3.94,0c-.44,0-1.57.65-.6.66Z"/><path class="cls-2" d="M61.39,50.56q0,6-.15,12.08c-.08,2.91-.17,5.82-.4,8.72-.2,2.55-.42,4.9-2.1,7a16.79,16.79,0,0,1-4.65,3.82A12.72,12.72,0,0,1,49.52,84c-.35,0-1.57.67-.63.56a18.61,18.61,0,0,0,8-3.52c2.56-1.81,4.67-4.1,5.12-7.3.85-5.94.74-12.09.81-18.08q0-2.76,0-5.52c0-.2-1.45,0-1.45.39Z"/></svg>