<?xml version="1.0" encoding="UTF-8"?>
<svg id="Layer_1" data-name="Layer 1" xmlns="http://www.w3.org/2000/svg" viewBox="0 0 345.43 345.43">
  <defs>
    <style>
      .cls-1 {
        fill: #f7ad1a;
      }

      .cls-2, .cls-3 {
        fill: #0d3a59;
      }

      .cls-3 {
        stroke: #0d3a59;
        stroke-miterlimit: 10;
      }
    </style>
  </defs>
  <path class="cls-2" d="M158.06,127.05c-27.51,0-49.89-22.38-49.89-49.89s22.38-49.89,49.89-49.89,49.9,22.38,49.9,49.89-22.38,49.89-49.9,49.89ZM158.06,39.4c-20.82,0-37.75,16.94-37.75,37.75s16.94,37.75,37.75,37.75,37.75-16.94,37.75-37.75-16.94-37.75-37.75-37.75Z"/>
  <path class="cls-1" d="M305.77,211.54c-7.57-1.19-28.91-1.51-45.12.68-43.55,5.88-81.83,30.57-87.92,34.65h-2.5c-6.1-3.93-45.23-28.21-88.85-34.02-18.13-2.41-30.11-2.31-38.03-2.24-2.57.02-4.8.04-6.6-.03-.04,0-.08,0-.13,0-1.6,0-2.93,1.26-3,2.88-.07,1.66,1.22,3.05,2.87,3.12,1.96.08,4.25.06,6.9.04,7.75-.07,19.48-.17,37.19,2.19,45.08,6,86.67,33.3,87.09,33.57l.75.5h6.15s.77-.53.77-.53c.41-.28,41.05-28.09,86.09-34.17,15.69-2.12,36.18-1.83,43.39-.69,1.64.26,3.17-.86,3.43-2.5.26-1.64-.86-3.17-2.5-3.43Z"/>
  <g>
    <path class="cls-1" d="M160.24,255.47c-12.39-6.88-39.2-19.8-73.1-24.6-47.33-6.71-61.72-2.02-61.72-2.02l21.01,70.87s54.89-11.73,113.81,18.97v-63.21Z"/>
    <path class="cls-1" d="M258.29,229.6c-34.6,3.7-61.44,18.17-73.53,25.78v63.52c53.49-28.11,114.24-19.18,114.24-19.18l21.01-70.87s-14.19-4.34-61.72.75Z"/>
    <path class="cls-1" d="M177.76,259.92h-10.04s-.17-.11-.48-.31v61.12h10.52v-60.81Z"/>
  </g>
  <path class="cls-3" d="M158.07,102.44c-9.13,0-18.66-3.14-22.08-10.17-.19-.39-.47-.77-.66-1.17-.7-1.56-.54-3.09.39-3.99.91-.88,2.49.85,4,1.64,3.23,1.7,6.49,3.3,10.09,4.04,8.66,1.76,17.94,1.04,25.85-3.17,1.1-.59,2.32-2.09,3.53-2.24,1.96-.24,2.42.43,1.93,2.36-.31,1.23-.93,2.47-1.7,3.49-5.26,6.92-13.28,9.21-21.36,9.21Z"/>
  <path class="cls-3" d="M144.46,65.04c2.31.14,4.26,1.07,5.88,2.58,1.17,1.09,2.23,2.34,3.19,3.62.97,1.3.63,2.95-.61,3.8-1.28.88-2.82.5-3.85-.81-.81-1.02-1.68-2.03-2.66-2.87-1.37-1.17-2.59-1.16-3.95.03-1.01.89-1.88,1.96-2.74,3-.74.88-1.63,1.28-2.74,1.07-1.05-.2-1.82-.86-2.02-1.91-.11-.6-.11-1.39.19-1.88,1.64-2.75,3.79-4.98,6.89-6.09.77-.28,1.61-.36,2.42-.53Z"/>
  <path class="cls-3" d="M178.56,75.51c-.97,0-1.66-.51-2.27-1.26-.79-.97-1.6-1.96-2.54-2.78-1.46-1.28-2.73-1.29-4.19,0-.97.86-1.79,1.9-2.63,2.91-.75.91-1.81,1.37-2.88,1.06-1.12-.32-1.84-1.07-1.98-2.23-.06-.48-.01-1.06.22-1.46,1.73-2.89,3.97-5.23,7.27-6.29,2.29-.74,4.44-.22,6.44,1.02,2.01,1.25,3.58,2.95,4.85,4.93.58.91.59,1.87.04,2.8-.51.87-1.3,1.32-2.35,1.31Z"/>
  <path class="cls-2" d="M291.8,199.69s.02,0,.02,0c-7.13-16.74-19.89-30.2-35.72-37.67-7.17,9.95-18.85,16.44-32.01,16.44-12.04,0-22.83-5.43-30.08-13.96-18.91,10.8-32.64,30.48-36.23,53.77-36.42-21.25-77.48-25.38-87.86-26.09,4.06-23.56,17.92-46.4,38.61-62.87l6.19-4.93c2.81-2.24,3.27-6.33,1.04-9.13-2.24-2.81-6.33-3.27-9.13-1.04l-6.19,4.93c-26.41,21.03-42.93,51.53-44.61,82.1,10.89.12,54,2.37,101.03,28.8h0c4.97,2.84,9.98,5.93,14.99,9.33,34.34-27.73,77.13-36.1,101.24-38.62l.72-.04c10.83-1.13,17.22-.81,18.1-.8-.03-.08-.07-.15-.1-.23Z"/>
  <path class="cls-2" d="M223.99,107.55c-17.34,0-31.46,14.11-31.46,31.45s14.11,31.45,31.46,31.45,31.45-14.11,31.45-31.45-14.11-31.45-31.45-31.45ZM207.47,135.68c-.08-.41-.07-.93.13-1.27,1.1-1.85,2.55-3.35,4.63-4.1.52-.19,1.08-.24,1.63-.36,1.56.09,2.87.72,3.96,1.74.79.74,1.5,1.57,2.15,2.44.65.87.42,1.99-.41,2.56-.86.59-1.9.33-2.59-.54-.54-.69-1.13-1.36-1.79-1.93-.92-.79-1.74-.78-2.66.02-.68.6-1.26,1.32-1.85,2.02-.49.59-1.1.86-1.84.72-.71-.14-1.22-.58-1.36-1.29ZM239.09,150.01c-.2.74-.59,1.49-1.09,2.1-2.13,2.64-5.76,4.4-9.12,5.13-1.72.37-3.5.5-5.25.74-4.15-.17-8.05-.99-11.36-3.44-1.04-.77-1.86-1.81-2.76-2.74-.19-.2-.3-.46-.42-.71-.45-.94-.35-1.86.25-2.41.58-.53,1.59.51,2.56.99,2.06,1.02,4.15,1.99,6.46,2.44,5.54,1.06,11.72.63,16.78-1.91.71-.35,1.48-1.26,2.26-1.35,1.25-.15,2,0,1.69,1.16ZM241.57,136.11c-.35.58-.87.89-1.58.88-.65,0-1.11-.34-1.53-.85-.53-.66-1.08-1.32-1.71-1.87-.98-.86-1.83-.87-2.82,0-.65.58-1.21,1.28-1.77,1.96-.51.61-1.22.92-1.94.72-.76-.21-1.24-.72-1.33-1.5-.04-.32,0-.71.15-.98,1.16-1.94,2.67-3.52,4.89-4.23,1.54-.5,2.99-.15,4.33.68,1.35.84,2.41,1.98,3.26,3.31.39.61.4,1.26.03,1.88Z"/>
</svg>